<?xml version="1.0" encoding="UTF-8"?>
<!-- Generator: CustomSymbols v2.6.2.41 by @serious_bret https://bretlester.com/app_content/CustomSymbols/ -->
<!-- Guides: Left/Right -0.031/-0.031 Cap/Base 0.08/0.08 -->
<!-- Settings: RefScale 1.0 Min/Max Stroke Scales 0.5/2.21 -->
<!DOCTYPE svg
PUBLIC "-//W3C//DTD SVG 1.1//EN"
       "http://www.w3.org/Graphics/SVG/1.1/DTD/svg11.dtd">
<svg version="1.1" xmlns="http://www.w3.org/2000/svg" xmlns:xlink="http://www.w3.org/1999/xlink" width="3300" height="2200">
<![CDATA[<svg width="15" height="15" viewBox="0 0 15 15" fill="none" xmlns="http://www.w3.org/2000/svg">
<path d="M4 7.5H11M7.5 14.5C3.63401 14.5 0.5 11.366 0.5 7.5C0.5 3.63401 3.63401 0.5 7.5 0.5C11.366 0.5 14.5 3.63401 14.5 7.5C14.5 11.366 11.366 14.5 7.5 14.5Z" stroke="#1D1929"/>
</svg>
]]>
 <g id="Notes">
  <rect height="2200" id="artboard" style="fill:white;opacity:1" width="3300" x="0" y="0"/>
  <line id="" style="fill:none;stroke:black;opacity:1;stroke-width:0.5;" x1="263" x2="3036" y1="292" y2="292"/>
  <text id="reftext1" style="stroke:none;fill:black;font-family:-apple-system,&quot;SF Pro Display&quot;,&quot;SF Pro Text&quot;,Helvetica,sans-serif;font-weight:bold;" transform="matrix(1 0 0 1 263 322)">Weight/Scale Variations</text>
  <text id="reftext2" style="stroke:none;fill:black;font-family:-apple-system,&quot;SF Pro Display&quot;,&quot;SF Pro Text&quot;,Helvetica,sans-serif;text-anchor:middle;" transform="matrix(1 0 0 1 559.711 322)">Ultralight</text>
  <text style="stroke:none;fill:black;font-family:-apple-system,&quot;SF Pro Display&quot;,&quot;SF Pro Text&quot;,Helvetica,sans-serif;text-anchor:middle;" transform="matrix(1 0 0 1 856.422 322)">Thin</text>
  <text style="stroke:none;fill:black;font-family:-apple-system,&quot;SF Pro Display&quot;,&quot;SF Pro Text&quot;,Helvetica,sans-serif;text-anchor:middle;" transform="matrix(1 0 0 1 1153.13 322)">Light</text>
  <text style="stroke:none;fill:black;font-family:-apple-system,&quot;SF Pro Display&quot;,&quot;SF Pro Text&quot;,Helvetica,sans-serif;text-anchor:middle;" transform="matrix(1 0 0 1 1449.84 322)">Regular</text>
  <text style="stroke:none;fill:black;font-family:-apple-system,&quot;SF Pro Display&quot;,&quot;SF Pro Text&quot;,Helvetica,sans-serif;text-anchor:middle;" transform="matrix(1 0 0 1 1746.56 322)">Medium</text>
  <text style="stroke:none;fill:black;font-family:-apple-system,&quot;SF Pro Display&quot;,&quot;SF Pro Text&quot;,Helvetica,sans-serif;text-anchor:middle;" transform="matrix(1 0 0 1 2043.27 322)">Semibold</text>
  <text style="stroke:none;fill:black;font-family:-apple-system,&quot;SF Pro Display&quot;,&quot;SF Pro Text&quot;,Helvetica,sans-serif;text-anchor:middle;" transform="matrix(1 0 0 1 2339.98 322)">Bold</text>
  <text style="stroke:none;fill:black;font-family:-apple-system,&quot;SF Pro Display&quot;,&quot;SF Pro Text&quot;,Helvetica,sans-serif;text-anchor:middle;" transform="matrix(1 0 0 1 2636.69 322)">Heavy</text>
  <text style="stroke:none;fill:black;font-family:-apple-system,&quot;SF Pro Display&quot;,&quot;SF Pro Text&quot;,Helvetica,sans-serif;text-anchor:middle;" transform="matrix(1 0 0 1 2933.4 322)">Black</text>
  <line id="" style="fill:none;stroke:black;opacity:1;stroke-width:0.5;" x1="263" x2="3036" y1="1903" y2="1903"/>
  <g id="" transform="matrix(1 0 0 1 263 1933)">
   <path d="M9.24805 0.830078C13.5547 0.830078 17.1387-2.74414 17.1387-7.05078C17.1387-11.3574 13.5449-14.9316 9.23828-14.9316C4.94141-14.9316 1.36719-11.3574 1.36719-7.05078C1.36719-2.74414 4.95117 0.830078 9.24805 0.830078ZM9.24805-0.654297C5.70312-0.654297 2.87109-3.49609 2.87109-7.05078C2.87109-10.6055 5.69336-13.4473 9.23828-13.4473C12.793-13.4473 15.6348-10.6055 15.6445-7.05078C15.6543-3.49609 12.8027-0.654297 9.24805-0.654297ZM6.39648-6.31836L8.50586-6.31836L8.50586-4.19922C8.50586-3.75977 8.79883-3.45703 9.22852-3.45703C9.67773-3.45703 9.9707-3.75977 9.9707-4.19922L9.9707-6.31836L12.0996-6.31836C12.5391-6.31836 12.8418-6.61133 12.8418-7.04102C12.8418-7.48047 12.5391-7.7832 12.0996-7.7832L9.9707-7.7832L9.9707-9.89258C9.9707-10.3418 9.67773-10.6445 9.22852-10.6445C8.79883-10.6445 8.50586-10.3418 8.50586-9.89258L8.50586-7.7832L6.39648-7.7832C5.94727-7.7832 5.64453-7.48047 5.64453-7.04102C5.64453-6.61133 5.94727-6.31836 6.39648-6.31836Z"/>
  </g>
  <g id="" transform="matrix(1 0 0 1 281.506 1933)">
   <path d="M11.709 2.91016C17.1582 2.91016 21.6699-1.61133 21.6699-7.05078C21.6699-12.5 17.1484-17.0117 11.6992-17.0117C6.25977-17.0117 1.74805-12.5 1.74805-7.05078C1.74805-1.61133 6.26953 2.91016 11.709 2.91016ZM11.709 1.25C7.09961 1.25 3.41797-2.44141 3.41797-7.05078C3.41797-11.6602 7.08984-15.3516 11.6992-15.3516C16.3086-15.3516 20-11.6602 20.0098-7.05078C20.0195-2.44141 16.3184 1.25 11.709 1.25ZM7.98828-6.23047L10.8789-6.23047L10.8789-3.32031C10.8789-2.83203 11.2109-2.5 11.6895-2.5C12.1777-2.5 12.5195-2.83203 12.5195-3.32031L12.5195-6.23047L15.4297-6.23047C15.918-6.23047 16.25-6.5625 16.25-7.04102C16.25-7.5293 15.918-7.87109 15.4297-7.87109L12.5195-7.87109L12.5195-10.7617C12.5195-11.2695 12.1777-11.6016 11.6895-11.6016C11.2109-11.6016 10.8789-11.2598 10.8789-10.7617L10.8789-7.87109L7.98828-7.87109C7.48047-7.87109 7.14844-7.5293 7.14844-7.04102C7.14844-6.5625 7.49023-6.23047 7.98828-6.23047Z"/>
  </g>
  <g id="" transform="matrix(1 0 0 1 304.924 1933)">
   <path d="M14.9707 5.66406C21.9336 5.66406 27.6953-0.0976562 27.6953-7.05078C27.6953-14.0137 21.9238-19.7754 14.9609-19.7754C8.00781-19.7754 2.25586-14.0137 2.25586-7.05078C2.25586-0.0976562 8.01758 5.66406 14.9707 5.66406ZM14.9707 3.84766C8.93555 3.84766 4.08203-1.01562 4.08203-7.05078C4.08203-13.0957 8.92578-17.9492 14.9609-17.9492C21.0059-17.9492 25.8594-13.0957 25.8691-7.05078C25.8789-1.01562 21.0156 3.84766 14.9707 3.84766ZM10.0586-6.14258L14.0625-6.14258L14.0625-2.12891C14.0625-1.5918 14.4336-1.2207 14.9512-1.2207C15.4883-1.2207 15.8594-1.5918 15.8594-2.12891L15.8594-6.14258L19.8828-6.14258C20.4102-6.14258 20.791-6.51367 20.791-7.03125C20.791-7.56836 20.4199-7.94922 19.8828-7.94922L15.8594-7.94922L15.8594-11.9531C15.8594-12.5098 15.4883-12.8809 14.9512-12.8809C14.4336-12.8809 14.0625-12.5 14.0625-11.9531L14.0625-7.94922L10.0586-7.94922C9.50195-7.94922 9.13086-7.56836 9.13086-7.03125C9.13086-6.51367 9.51172-6.14258 10.0586-6.14258Z"/>
  </g>
  <text style="stroke:none;fill:black;font-family:-apple-system,&quot;SF Pro Display&quot;,&quot;SF Pro Text&quot;,Helvetica,sans-serif;font-weight:bold;" transform="matrix(1 0 0 1 263 1953)">Design Variations</text>
  <text style="stroke:none;fill:black;font-family:-apple-system,&quot;SF Pro Display&quot;,&quot;SF Pro Text&quot;,Helvetica,sans-serif;" transform="matrix(1 0 0 1 263 1971)">Symbols are supported in up to nine weights and three scales.</text>
  <text style="stroke:none;fill:black;font-family:-apple-system,&quot;SF Pro Display&quot;,&quot;SF Pro Text&quot;,Helvetica,sans-serif;" transform="matrix(1 0 0 1 263 1989)">For optimal layout with text and other symbols, vertically align</text>
  <text style="stroke:none;fill:black;font-family:-apple-system,&quot;SF Pro Display&quot;,&quot;SF Pro Text&quot;,Helvetica,sans-serif;" transform="matrix(1 0 0 1 263 2007)">symbols with the adjacent text.</text>
  <line id="" style="fill:none;stroke:#00AEEF;stroke-width:0.5;opacity:1.0;" x1="776" x2="776" y1="1919" y2="1933"/>
  <g id="" transform="matrix(1 0 0 1 776 1933)">
   <path d="M3.31055 0.126953C3.82812 0.126953 4.08203-0.0683594 4.26758-0.605469L5.52734-4.0625L11.2891-4.0625L12.5488-0.605469C12.7344-0.0683594 12.9883 0.126953 13.4961 0.126953C14.0137 0.126953 14.3457-0.185547 14.3457-0.673828C14.3457-0.839844 14.3164-0.986328 14.2383-1.20117L9.6582-13.3887C9.43359-13.9941 9.0332-14.2871 8.4082-14.2871C7.80273-14.2871 7.39258-13.9941 7.17773-13.3984L2.59766-1.19141C2.51953-0.976562 2.49023-0.830078 2.49023-0.664062C2.49023-0.175781 2.80273 0.126953 3.31055 0.126953ZM6.00586-5.53711L8.37891-12.1094L8.42773-12.1094L10.8008-5.53711Z"/>
  </g>
  <line id="" style="fill:none;stroke:#00AEEF;stroke-width:0.5;opacity:1.0;" x1="792.836" x2="792.836" y1="1919" y2="1933"/>
  <text style="stroke:none;fill:black;font-family:-apple-system,&quot;SF Pro Display&quot;,&quot;SF Pro Text&quot;,Helvetica,sans-serif;font-weight:bold;" transform="matrix(1 0 0 1 776 1953)">Margins</text>
  <text style="stroke:none;fill:black;font-family:-apple-system,&quot;SF Pro Display&quot;,&quot;SF Pro Text&quot;,Helvetica,sans-serif;" transform="matrix(1 0 0 1 776 1971)">Leading and trailing margins on the left and right side of each symbol</text>
  <text style="stroke:none;fill:black;font-family:-apple-system,&quot;SF Pro Display&quot;,&quot;SF Pro Text&quot;,Helvetica,sans-serif;" transform="matrix(1 0 0 1 776 1989)">can be adjusted by modifying the x-location of the margin guidelines.</text>
  <text style="stroke:none;fill:black;font-family:-apple-system,&quot;SF Pro Display&quot;,&quot;SF Pro Text&quot;,Helvetica,sans-serif;" transform="matrix(1 0 0 1 776 2007)">Modifications are automatically applied proportionally to all</text>
  <text style="stroke:none;fill:black;font-family:-apple-system,&quot;SF Pro Display&quot;,&quot;SF Pro Text&quot;,Helvetica,sans-serif;" transform="matrix(1 0 0 1 776 2025)">scales and weights.</text>
  <g id="" transform="matrix(1 0 0 1 1289 1933)">
   <path d="M2.8418 1.86523L4.54102 3.57422C5.40039 4.44336 6.38672 4.38477 7.31445 3.35938L17.4902-7.85156C17.7539-7.76367 18.0273-7.7832 18.3398-7.8418L19.4043-8.03711L20.0684-7.36328L20.0293-6.80664C19.9902-6.30859 20.1172-5.92773 20.6055-5.44922L21.3672-4.70703C21.8457-4.22852 22.4609-4.19922 22.9297-4.66797L25.8398-7.58789C26.3086-8.05664 26.2891-8.65234 25.8105-9.13086L25.0391-9.89258C24.5605-10.3711 24.1895-10.5273 23.7109-10.4883L23.1348-10.4395L22.4902-11.0742L22.7344-12.1973C22.8613-12.7637 22.7051-13.2031 22.1191-13.7891L19.9219-15.9766C16.582-19.2969 12.1484-19.2188 9.25781-16.3281C8.83789-15.918 8.80859-15.3418 9.04297-14.9512C9.27734-14.5898 9.73633-14.3555 10.3809-14.5215C11.8457-14.8633 13.3691-14.9219 14.7949-13.9844L14.209-12.5293C14.0137-12.0508 13.9844-11.6504 14.1113-11.2891L3.04688-0.898438C2.06055 0.0195312 1.98242 0.996094 2.8418 1.86523ZM10.752-15.957C13.1836-17.7344 16.4746-17.4316 18.7012-15.2051L21.1328-12.793C21.3672-12.5586 21.4062-12.373 21.3379-12.0312L21.0156-10.5469L22.5195-9.0625L23.5059-9.12109C23.7598-9.13086 23.8379-9.11133 24.0332-8.91602L24.6094-8.33984L22.168-5.89844L21.5918-6.47461C21.3965-6.66992 21.3672-6.74805 21.377-7.01172L21.4453-7.98828L19.9512-9.47266L18.4277-9.21875C18.1055-9.15039 17.959-9.17969 17.7148-9.41406L15.7129-11.416C15.459-11.6504 15.4297-11.8164 15.5859-12.1875L16.4648-14.2773C14.9023-15.7324 12.8711-16.3574 10.8398-15.7617C10.6836-15.7227 10.625-15.8496 10.752-15.957ZM5.27344 2.30469L4.10156 1.14258C3.63281 0.683594 3.74023 0.341797 4.14062-0.0195312L14.9512-10.1953L16.416-8.71094L6.42578 2.27539C6.07422 2.67578 5.74219 2.77344 5.27344 2.30469Z"/>
  </g>
  <text style="stroke:none;fill:black;font-family:-apple-system,&quot;SF Pro Display&quot;,&quot;SF Pro Text&quot;,Helvetica,sans-serif;font-weight:bold;" transform="matrix(1 0 0 1 1289 1953)">Exporting</text>
  <text style="stroke:none;fill:black;font-family:-apple-system,&quot;SF Pro Display&quot;,&quot;SF Pro Text&quot;,Helvetica,sans-serif;" transform="matrix(1 0 0 1 1289 1971)">Symbols should be outlined when exporting to ensure the</text>
  <text style="stroke:none;fill:black;font-family:-apple-system,&quot;SF Pro Display&quot;,&quot;SF Pro Text&quot;,Helvetica,sans-serif;" transform="matrix(1 0 0 1 1289 1989)">design is preserved when submitting to Xcode.</text>
  <text id="template-version" style="stroke:none;fill:black;font-family:-apple-system,&quot;SF Pro Display&quot;,&quot;SF Pro Text&quot;,Helvetica,sans-serif;text-anchor:end;" transform="matrix(1 0 0 1 3036 1933)">Template v.2.0</text>
  <text style="stroke:none;fill:black;font-family:-apple-system,&quot;SF Pro Display&quot;,&quot;SF Pro Text&quot;,Helvetica,sans-serif;text-anchor:end;" transform="matrix(1 0 0 1 3036 1951)">Requires Xcode 12 or greater</text>
  <text style="stroke:none;fill:black;font-family:-apple-system,&quot;SF Pro Display&quot;,&quot;SF Pro Text&quot;,Helvetica,sans-serif;" transform="matrix(1 0 0 1 263 726)">Small</text>
  <text style="stroke:none;fill:black;font-family:-apple-system,&quot;SF Pro Display&quot;,&quot;SF Pro Text&quot;,Helvetica,sans-serif;" transform="matrix(1 0 0 1 263 1156)">Medium</text>
  <text style="stroke:none;fill:black;font-family:-apple-system,&quot;SF Pro Display&quot;,&quot;SF Pro Text&quot;,Helvetica,sans-serif;" transform="matrix(1 0 0 1 263 1586)">Large</text>
 </g>
 <g id="Guides">
  <g id="H-reference" style="fill:#27AAE1;stroke:none;" transform="matrix(1 0 0 1 339 696)">
   <path d="M0.976562 0L3.66211 0L12.9883-24.4629L45.752-24.4629L55.127 0L57.7637 0L30.6152-70.459L28.125-70.459ZM29.3457-67.1387L29.4434-67.1387L44.873-26.709L13.8672-26.709Z"/>
  </g>
  <line id="Baseline-S" style="fill:none;stroke:#27AAE1;opacity:1;stroke-width:0.5;" x1="263" x2="3036" y1="696" y2="696"/>
  <line id="Capline-S" style="fill:none;stroke:#27AAE1;opacity:1;stroke-width:0.5;" x1="263" x2="3036" y1="625.541" y2="625.541"/>
  <g id="H-reference" style="fill:#27AAE1;stroke:none;" transform="matrix(1 0 0 1 339 1126)">
   <path d="M0.976562 0L3.66211 0L12.9883-24.4629L45.752-24.4629L55.127 0L57.7637 0L30.6152-70.459L28.125-70.459ZM29.3457-67.1387L29.4434-67.1387L44.873-26.709L13.8672-26.709Z"/>
  </g>
  <line id="Baseline-M" style="fill:none;stroke:#27AAE1;opacity:1;stroke-width:0.5;" x1="263" x2="3036" y1="1126" y2="1126"/>
  <line id="Capline-M" style="fill:none;stroke:#27AAE1;opacity:1;stroke-width:0.5;" x1="263" x2="3036" y1="1055.54" y2="1055.54"/>
  <g id="H-reference" style="fill:#27AAE1;stroke:none;" transform="matrix(1 0 0 1 339 1556)">
   <path d="M0.976562 0L3.66211 0L12.9883-24.4629L45.752-24.4629L55.127 0L57.7637 0L30.6152-70.459L28.125-70.459ZM29.3457-67.1387L29.4434-67.1387L44.873-26.709L13.8672-26.709Z"/>
  </g>
  <line id="Baseline-L" style="fill:none;stroke:#27AAE1;opacity:1;stroke-width:0.5;" x1="263" x2="3036" y1="1556" y2="1556"/>
  <line id="Capline-L" style="fill:none;stroke:#27AAE1;opacity:1;stroke-width:0.5;" x1="263" x2="3036" y1="1485.54" y2="1485.54"/>
  <line id="left-margin" x1="1406.5892389787946" x2="1406.5892389787946" y1="1030.79" y2="1150.12" style="fill:none;stroke:#00AEEF;stroke-width:0.5;opacity:1.0;"/>
  <line id="right-margin" x1="1495.6707610212052" x2="1495.6707610212052" y1="1030.79" y2="1150.12" style="fill:none;stroke:#00AEEF;stroke-width:0.5;opacity:1.0;"/>
 </g>
 <g id="Symbols">
  <g id="Black-L" transform="matrix(1.0,0.0,0.0,1.0,2880.576815708705,1466.6668352399554)">  <path fill-opacity="1" fill-rule="nonzero" stroke-width="1px" stroke-dasharray="none" stroke-linecap="butt" stroke-linejoin="miter" stroke-opacity="1" stroke-miterlimit="4" stroke="none" fill="#000000" d="M28.855,62.074L79.351,62.074L79.351,46.132L28.855,46.132L28.855,62.074ZM54.103,96.628C30.617,96.628,11.578,77.589,11.578,54.103C11.578,30.617,30.617,11.578,54.103,11.578C77.589,11.578,96.628,30.617,96.628,54.103C96.628,77.589,77.589,96.628,54.103,96.628ZM54.103,112.571C86.394,112.571,112.571,86.394,112.571,54.103C112.571,21.812,86.394,-4.364,54.103,-4.364C21.812,-4.364,-4.364,21.812,-4.364,54.103C-4.364,86.394,21.812,112.571,54.103,112.571Z"/>
</g>
  <g id="Heavy-L" transform="matrix(1.0,0.0,0.0,1.0,2583.866815708705,1466.6668352399554)">  <path stroke="none" stroke-dasharray="none" stroke-miterlimit="4" stroke-opacity="1" fill="#000000" fill-opacity="1" stroke-width="1px" fill-rule="nonzero" stroke-linejoin="miter" stroke-linecap="butt" d="M28.855,61.202L79.351,61.202L79.351,47.005L28.855,47.005L28.855,61.202ZM54.103,97.501C30.135,97.501,10.705,78.071,10.705,54.103C10.705,30.135,30.135,10.705,54.103,10.705C78.071,10.705,97.501,30.135,97.501,54.103C97.501,78.071,78.071,97.501,54.103,97.501ZM54.103,111.698C85.912,111.698,111.698,85.912,111.698,54.103C111.698,22.295,85.912,-3.491,54.103,-3.491C22.295,-3.491,-3.491,22.295,-3.491,54.103C-3.491,85.912,22.295,111.698,54.103,111.698Z"/>
</g>
  <g id="Bold-L" transform="matrix(1.0,0.0,0.0,1.0,2287.156815708705,1466.6668352399554)">  <path fill-opacity="1" stroke-linecap="butt" fill="#000000" stroke-miterlimit="4" stroke-linejoin="miter" fill-rule="nonzero" stroke-opacity="1" stroke="none" stroke-dasharray="none" stroke-width="1px" d="M28.855,60.329L79.351,60.329L79.351,47.878L28.855,47.878L28.855,60.329ZM54.103,98.374C29.653,98.374,9.832,78.553,9.832,54.103C9.832,29.653,29.653,9.832,54.103,9.832C78.553,9.832,98.374,29.653,98.374,54.103C98.374,78.553,78.553,98.374,54.103,98.374ZM54.103,110.825C85.43,110.825,110.825,85.43,110.825,54.103C110.825,22.777,85.43,-2.619,54.103,-2.619C22.777,-2.619,-2.619,22.777,-2.619,54.103C-2.619,85.43,22.777,110.825,54.103,110.825Z"/>
</g>
  <g id="Semibold-L" transform="matrix(1.0,0.0,0.0,1.0,1990.4468157087053,1466.6668352399554)">  <path stroke-width="1px" stroke-linecap="butt" fill-rule="nonzero" stroke-miterlimit="4" stroke-dasharray="none" stroke-opacity="1" fill-opacity="1" stroke="none" fill="#000000" stroke-linejoin="miter" d="M28.855,59.456L79.351,59.456L79.351,48.751L28.855,48.751L28.855,59.456ZM54.103,99.247C29.171,99.247,8.959,79.035,8.959,54.103C8.959,29.171,29.171,8.959,54.103,8.959C79.035,8.959,99.247,29.171,99.247,54.103C99.247,79.035,79.035,99.247,54.103,99.247ZM54.103,109.952C84.948,109.952,109.952,84.948,109.952,54.103C109.952,23.259,84.948,-1.746,54.103,-1.746C23.259,-1.746,-1.746,23.259,-1.746,54.103C-1.746,84.948,23.259,109.952,54.103,109.952Z"/>
</g>
  <g id="Medium-L" transform="matrix(1.0,0.0,0.0,1.0,1693.7368157087053,1466.6668352399554)">  <path fill="#000000" stroke-opacity="1" fill-opacity="1" stroke-dasharray="none" stroke-linejoin="miter" stroke-linecap="butt" stroke-width="1px" stroke="none" stroke-miterlimit="4" fill-rule="nonzero" d="M28.855,58.583L79.351,58.583L79.351,49.623L28.855,49.623L28.855,58.583ZM54.103,100.12C28.689,100.12,8.087,79.517,8.087,54.103C8.087,28.689,28.689,8.087,54.103,8.087C79.517,8.087,100.12,28.689,100.12,54.103C100.12,79.517,79.517,100.12,54.103,100.12ZM54.103,109.079C84.466,109.079,109.079,84.466,109.079,54.103C109.079,23.741,84.466,-0.873,54.103,-0.873C23.741,-0.873,-0.873,23.741,-0.873,54.103C-0.873,84.466,23.741,109.079,54.103,109.079Z"/>
</g>
  <g id="Regular-L" transform="matrix(1.0,0.0,0.0,1.0,1397.0268157087053,1466.6668352399554)">  <path stroke-linejoin="miter" stroke="none" stroke-dasharray="none" fill-rule="nonzero" fill-opacity="1" stroke-opacity="1" fill="#000000" stroke-linecap="butt" stroke-miterlimit="4" stroke-width="1px" d="M28.855,57.71L79.351,57.71L79.351,50.496L28.855,50.496L28.855,57.71ZM54.103,100.993C28.207,100.993,7.214,80,7.214,54.103C7.214,28.207,28.207,7.214,54.103,7.214C80,7.214,100.993,28.207,100.993,54.103C100.993,80,80,100.993,54.103,100.993ZM54.103,108.206C83.984,108.206,108.206,83.984,108.206,54.103C108.206,24.223,83.984,0,54.103,0C24.223,0,0,24.223,0,54.103C0,83.984,24.223,108.206,54.103,108.206Z"/>
</g>
  <g id="Light-L" transform="matrix(1.0,0.0,0.0,1.0,1100.3168157087055,1466.6668352399554)">  <path fill="#000000" fill-rule="nonzero" stroke-linejoin="miter" fill-opacity="1" stroke-width="1px" stroke-dasharray="none" stroke-opacity="1" stroke-linecap="butt" stroke="none" stroke-miterlimit="4" d="M28.855,57.109L79.351,57.109L79.351,51.097L28.855,51.097L28.855,57.109ZM54.103,101.594C27.875,101.594,6.613,80.332,6.613,54.103C6.613,27.875,27.875,6.613,54.103,6.613C80.332,6.613,101.594,27.875,101.594,54.103C101.594,80.332,80.332,101.594,54.103,101.594ZM54.103,107.605C83.652,107.605,107.605,83.652,107.605,54.103C107.605,24.555,83.652,0.601,54.103,0.601C24.555,0.601,0.601,24.555,0.601,54.103C0.601,83.652,24.555,107.605,54.103,107.605Z"/>
</g>
  <g id="Thin-L" transform="matrix(1.0,0.0,0.0,1.0,803.6068157087054,1466.6668352399554)">  <path stroke-miterlimit="4" fill-opacity="1" stroke-linejoin="miter" stroke-linecap="butt" stroke="none" stroke-dasharray="none" stroke-width="1px" fill="#000000" stroke-opacity="1" fill-rule="nonzero" d="M28.855,56.508L79.351,56.508L79.351,51.699L28.855,51.699L28.855,56.508ZM54.103,102.195C27.543,102.195,6.011,80.664,6.011,54.103C6.011,27.543,27.543,6.011,54.103,6.011C80.664,6.011,102.195,27.543,102.195,54.103C102.195,80.664,80.664,102.195,54.103,102.195ZM54.103,107.004C83.32,107.004,107.004,83.32,107.004,54.103C107.004,24.887,83.32,1.202,54.103,1.202C24.887,1.202,1.202,24.887,1.202,54.103C1.202,83.32,24.887,107.004,54.103,107.004Z"/>
</g>
  <g id="Ultralight-L" transform="matrix(1.0,0.0,0.0,1.0,506.89681570870533,1466.6668352399554)">  <path stroke-width="1px" stroke-linecap="butt" fill="#000000" fill-rule="nonzero" stroke-linejoin="miter" stroke="none" stroke-dasharray="none" stroke-miterlimit="4" stroke-opacity="1" fill-opacity="1" d="M28.855,55.907L79.351,55.907L79.351,52.3L28.855,52.3L28.855,55.907ZM54.103,102.796C27.211,102.796,5.41,80.996,5.41,54.103C5.41,27.211,27.211,5.41,54.103,5.41C80.996,5.41,102.796,27.211,102.796,54.103C102.796,80.996,80.996,102.796,54.103,102.796ZM54.103,106.403C82.988,106.403,106.403,82.988,106.403,54.103C106.403,25.219,82.988,1.803,54.103,1.803C25.219,1.803,1.803,25.219,1.803,54.103C1.803,82.988,25.219,106.403,54.103,106.403Z"/>
</g>
  <g id="Black-M" transform="matrix(1.0,0.0,0.0,1.0,2892.7395470610118,1048.829566592262)">  <path fill-opacity="1" fill-rule="nonzero" stroke-width="1px" stroke-dasharray="none" stroke-linecap="butt" stroke-linejoin="miter" stroke-opacity="1" stroke-miterlimit="4" stroke="none" fill="#000000" d="M22.368,48.12L61.513,48.12L61.513,35.761L22.368,35.761L22.368,48.12ZM41.94,74.906C23.734,74.906,8.975,60.147,8.975,41.94C8.975,23.734,23.734,8.975,41.94,8.975C60.147,8.975,74.906,23.734,74.906,41.94C74.906,60.147,60.147,74.906,41.94,74.906ZM41.94,87.264C66.972,87.264,87.264,66.972,87.264,41.94C87.264,16.909,66.972,-3.383,41.94,-3.383C16.909,-3.383,-3.383,16.909,-3.383,41.94C-3.383,66.972,16.909,87.264,41.94,87.264Z"/>
</g>
  <g id="Heavy-M" transform="matrix(1.0,0.0,0.0,1.0,2596.0295470610117,1048.829566592262)">  <path stroke="none" stroke-dasharray="none" stroke-miterlimit="4" stroke-opacity="1" fill="#000000" fill-opacity="1" stroke-width="1px" fill-rule="nonzero" stroke-linejoin="miter" stroke-linecap="butt" d="M22.368,47.443L61.513,47.443L61.513,36.438L22.368,36.438L22.368,47.443ZM41.94,75.582C23.361,75.582,8.299,60.52,8.299,41.94C8.299,23.361,23.361,8.299,41.94,8.299C60.52,8.299,75.582,23.361,75.582,41.94C75.582,60.52,60.52,75.582,41.94,75.582ZM41.94,86.587C66.598,86.587,86.587,66.598,86.587,41.94C86.587,17.283,66.598,-2.707,41.94,-2.707C17.283,-2.707,-2.707,17.283,-2.707,41.94C-2.707,66.598,17.283,86.587,41.94,86.587Z"/>
</g>
  <g id="Bold-M" transform="matrix(1.0,0.0,0.0,1.0,2299.3195470610117,1048.829566592262)">  <path fill-opacity="1" stroke-linecap="butt" fill="#000000" stroke-miterlimit="4" stroke-linejoin="miter" fill-rule="nonzero" stroke-opacity="1" stroke="none" stroke-dasharray="none" stroke-width="1px" d="M22.368,46.766L61.513,46.766L61.513,37.115L22.368,37.115L22.368,46.766ZM41.94,76.259C22.987,76.259,7.622,60.894,7.622,41.94C7.622,22.987,22.987,7.622,41.94,7.622C60.894,7.622,76.259,22.987,76.259,41.94C76.259,60.894,60.894,76.259,41.94,76.259ZM41.94,85.911C66.225,85.911,85.911,66.225,85.911,41.94C85.911,17.656,66.225,-2.03,41.94,-2.03C17.656,-2.03,-2.03,17.656,-2.03,41.94C-2.03,66.225,17.656,85.911,41.94,85.911Z"/>
</g>
  <g id="Semibold-M" transform="matrix(1.0,0.0,0.0,1.0,2002.6095470610119,1048.829566592262)">  <path stroke-width="1px" stroke-linecap="butt" fill-rule="nonzero" stroke-miterlimit="4" stroke-dasharray="none" stroke-opacity="1" fill-opacity="1" stroke="none" fill="#000000" stroke-linejoin="miter" d="M22.368,46.09L61.513,46.09L61.513,37.791L22.368,37.791L22.368,46.09ZM41.94,76.936C22.613,76.936,6.945,61.268,6.945,41.94C6.945,22.613,22.613,6.945,41.94,6.945C61.268,6.945,76.936,22.613,76.936,41.94C76.936,61.268,61.268,76.936,41.94,76.936ZM41.94,85.234C65.851,85.234,85.234,65.851,85.234,41.94C85.234,18.03,65.851,-1.353,41.94,-1.353C18.03,-1.353,-1.353,18.03,-1.353,41.94C-1.353,65.851,18.03,85.234,41.94,85.234Z"/>
</g>
  <g id="Medium-M" transform="matrix(1.0,0.0,0.0,1.0,1705.8995470610118,1048.829566592262)">  <path fill="#000000" stroke-opacity="1" fill-opacity="1" stroke-dasharray="none" stroke-linejoin="miter" stroke-linecap="butt" stroke-width="1px" stroke="none" stroke-miterlimit="4" fill-rule="nonzero" d="M22.368,45.413L61.513,45.413L61.513,38.468L22.368,38.468L22.368,45.413ZM41.94,77.612C22.239,77.612,6.269,61.641,6.269,41.94C6.269,22.24,22.24,6.269,41.94,6.269C61.641,6.269,77.612,22.239,77.612,41.94C77.612,61.641,61.641,77.612,41.94,77.612ZM41.94,84.558C65.477,84.558,84.558,65.477,84.558,41.94C84.558,18.404,65.477,-0.677,41.94,-0.677C18.404,-0.677,-0.677,18.404,-0.677,41.94C-0.677,65.477,18.404,84.558,41.94,84.558Z"/>
</g>
  <g id="Regular-M" transform="matrix(1.0,0.0,0.0,1.0,1409.1895470610118,1048.829566592262)">  <path stroke-linejoin="miter" stroke="none" stroke-dasharray="none" fill-rule="nonzero" fill-opacity="1" stroke-opacity="1" fill="#000000" stroke-linecap="butt" stroke-miterlimit="4" stroke-width="1px" d="M22.368,44.736L61.513,44.736L61.513,39.144L22.368,39.144L22.368,44.736ZM41.94,78.289C21.866,78.289,5.592,62.015,5.592,41.94C5.592,21.866,21.866,5.592,41.94,5.592C62.015,5.592,78.289,21.866,78.289,41.94C78.289,62.015,62.015,78.289,41.94,78.289ZM41.94,83.881C65.104,83.881,83.881,65.104,83.881,41.94C83.881,18.777,65.104,0,41.94,0C18.777,0,0,18.777,0,41.94C0,65.104,18.777,83.881,41.94,83.881Z"/>
</g>
  <g id="Light-M" transform="matrix(1.0,0.0,0.0,1.0,1112.479547061012,1048.829566592262)">  <path fill="#000000" fill-rule="nonzero" stroke-linejoin="miter" fill-opacity="1" stroke-width="1px" stroke-dasharray="none" stroke-opacity="1" stroke-linecap="butt" stroke="none" stroke-miterlimit="4" d="M22.368,44.27L61.513,44.27L61.513,39.61L22.368,39.61L22.368,44.27ZM41.94,78.755C21.608,78.755,5.126,62.273,5.126,41.94C5.126,21.608,21.608,5.126,41.94,5.126C62.273,5.126,78.755,21.608,78.755,41.94C78.755,62.273,62.273,78.755,41.94,78.755ZM41.94,83.415C64.846,83.415,83.415,64.846,83.415,41.94C83.415,19.035,64.846,0.466,41.94,0.466C19.035,0.466,0.466,19.035,0.466,41.94C0.466,64.846,19.035,83.415,41.94,83.415Z"/>
</g>
  <g id="Thin-M" transform="matrix(1.0,0.0,0.0,1.0,815.769547061012,1048.829566592262)">  <path stroke-miterlimit="4" fill-opacity="1" stroke-linejoin="miter" stroke-linecap="butt" stroke="none" stroke-dasharray="none" stroke-width="1px" fill="#000000" stroke-opacity="1" fill-rule="nonzero" d="M22.368,43.804L61.513,43.804L61.513,40.076L22.368,40.076L22.368,43.804ZM41.94,79.221C21.351,79.221,4.66,62.53,4.66,41.94C4.66,21.351,21.351,4.66,41.94,4.66C62.53,4.66,79.221,21.351,79.221,41.94C79.221,62.53,62.53,79.221,41.94,79.221ZM41.94,82.949C64.589,82.949,82.949,64.589,82.949,41.94C82.949,19.292,64.589,0.932,41.94,0.932C19.292,0.932,0.932,19.292,0.932,41.94C0.932,64.589,19.292,82.949,41.94,82.949Z"/>
</g>
  <g id="Ultralight-M" transform="matrix(1.0,0.0,0.0,1.0,519.0595470610119,1048.829566592262)">  <path stroke-width="1px" stroke-linecap="butt" fill="#000000" fill-rule="nonzero" stroke-linejoin="miter" stroke="none" stroke-dasharray="none" stroke-miterlimit="4" stroke-opacity="1" fill-opacity="1" d="M22.368,43.338L61.513,43.338L61.513,40.542L22.368,40.542L22.368,43.338ZM41.94,79.687C21.094,79.687,4.194,62.787,4.194,41.94C4.194,21.094,21.094,4.194,41.94,4.194C62.787,4.194,79.687,21.094,79.687,41.94C79.687,62.787,62.787,79.687,41.94,79.687ZM41.94,82.483C64.331,82.483,82.483,64.331,82.483,41.94C82.483,19.549,64.331,1.398,41.94,1.398C19.55,1.398,1.398,19.55,1.398,41.94C1.398,64.331,19.549,82.483,41.94,82.483Z"/>
</g>
  <g id="Black-S" transform="matrix(1.0,0.0,0.0,1.0,2901.840625348772,627.9306448800223)">  <path fill-opacity="1" fill-rule="nonzero" stroke-width="1px" stroke-dasharray="none" stroke-linecap="butt" stroke-linejoin="miter" stroke-opacity="1" stroke-miterlimit="4" stroke="none" fill="#000000" d="M17.514,37.678L48.164,37.678L48.164,28.001L17.514,28.001L17.514,37.678ZM32.839,58.651C18.584,58.651,7.028,47.095,7.028,32.839C7.028,18.584,18.584,7.028,32.839,7.028C47.095,7.028,58.651,18.584,58.651,32.839C58.651,47.095,47.095,58.651,32.839,58.651ZM32.839,68.328C52.439,68.328,68.328,52.439,68.328,32.839C68.328,13.24,52.439,-2.649,32.839,-2.649C13.24,-2.649,-2.649,13.24,-2.649,32.839C-2.649,52.439,13.24,68.328,32.839,68.328Z"/>
</g>
  <g id="Heavy-S" transform="matrix(1.0,0.0,0.0,1.0,2605.130625348772,627.9306448800223)">  <path stroke="none" stroke-dasharray="none" stroke-miterlimit="4" stroke-opacity="1" fill="#000000" fill-opacity="1" stroke-width="1px" fill-rule="nonzero" stroke-linejoin="miter" stroke-linecap="butt" d="M17.514,37.148L48.164,37.148L48.164,28.531L17.514,28.531L17.514,37.148ZM32.839,59.181C18.291,59.181,6.498,47.387,6.498,32.839C6.498,18.291,18.291,6.498,32.839,6.498C47.387,6.498,59.181,18.291,59.181,32.839C59.181,47.387,47.387,59.181,32.839,59.181ZM32.839,67.798C52.147,67.798,67.798,52.147,67.798,32.839C67.798,13.532,52.146,-2.119,32.839,-2.119C13.532,-2.119,-2.119,13.532,-2.119,32.839C-2.119,52.146,13.532,67.798,32.839,67.798Z"/>
</g>
  <g id="Bold-S" transform="matrix(1.0,0.0,0.0,1.0,2308.420625348772,627.9306448800223)">  <path fill-opacity="1" stroke-linecap="butt" fill="#000000" stroke-miterlimit="4" stroke-linejoin="miter" fill-rule="nonzero" stroke-opacity="1" stroke="none" stroke-dasharray="none" stroke-width="1px" d="M17.514,36.618L48.164,36.618L48.164,29.061L17.514,29.061L17.514,36.618ZM32.839,59.711C17.999,59.711,5.968,47.68,5.968,32.839C5.968,17.999,17.999,5.968,32.839,5.968C47.68,5.968,59.711,17.999,59.711,32.839C59.711,47.68,47.68,59.711,32.839,59.711ZM32.839,67.268C51.854,67.268,67.268,51.854,67.268,32.839C67.268,13.825,51.854,-1.589,32.839,-1.589C13.825,-1.589,-1.589,13.825,-1.589,32.839C-1.589,51.854,13.825,67.268,32.839,67.268Z"/>
</g>
  <g id="Semibold-S" transform="matrix(1.0,0.0,0.0,1.0,2011.7106253487723,627.9306448800223)">  <path stroke-width="1px" stroke-linecap="butt" fill-rule="nonzero" stroke-miterlimit="4" stroke-dasharray="none" stroke-opacity="1" fill-opacity="1" stroke="none" fill="#000000" stroke-linejoin="miter" d="M17.514,36.088L48.164,36.088L48.164,29.59L17.514,29.59L17.514,36.088ZM32.839,60.241C17.706,60.241,5.438,47.973,5.438,32.839C5.438,17.706,17.706,5.438,32.839,5.438C47.973,5.438,60.241,17.706,60.241,32.839C60.241,47.973,47.973,60.241,32.839,60.241ZM32.839,66.738C51.561,66.738,66.738,51.561,66.738,32.839C66.738,14.117,51.561,-1.06,32.839,-1.06C14.117,-1.06,-1.06,14.117,-1.06,32.839C-1.06,51.561,14.117,66.738,32.839,66.738Z"/>
</g>
  <g id="Medium-S" transform="matrix(1.0,0.0,0.0,1.0,1715.0006253487722,627.9306448800223)">  <path fill="#000000" stroke-opacity="1" fill-opacity="1" stroke-dasharray="none" stroke-linejoin="miter" stroke-linecap="butt" stroke-width="1px" stroke="none" stroke-miterlimit="4" fill-rule="nonzero" d="M17.514,35.558L48.164,35.558L48.164,30.12L17.514,30.12L17.514,35.558ZM32.839,60.77C17.414,60.77,4.908,48.265,4.908,32.839C4.908,17.414,17.414,4.908,32.839,4.908C48.265,4.908,60.77,17.414,60.77,32.839C60.77,48.265,48.265,60.77,32.839,60.77ZM32.839,66.209C51.269,66.209,66.209,51.269,66.209,32.839C66.209,14.41,51.269,-0.53,32.839,-0.53C14.41,-0.53,-0.53,14.41,-0.53,32.839C-0.53,51.269,14.41,66.209,32.839,66.209Z"/>
</g>
  <g id="Regular-S" transform="matrix(1.0,0.0,0.0,1.0,1418.2906253487722,627.9306448800223)">  <path stroke-linejoin="miter" stroke="none" stroke-dasharray="none" fill-rule="nonzero" fill-opacity="1" stroke-opacity="1" fill="#000000" stroke-linecap="butt" stroke-miterlimit="4" stroke-width="1px" d="M17.514,35.029L48.164,35.029L48.164,30.65L17.514,30.65L17.514,35.029ZM32.839,61.3C17.121,61.3,4.379,48.558,4.379,32.839C4.379,17.121,17.121,4.379,32.839,4.379C48.558,4.379,61.3,17.121,61.3,32.839C61.3,48.558,48.558,61.3,32.839,61.3ZM32.839,65.679C50.976,65.679,65.679,50.976,65.679,32.839C65.679,14.703,50.976,0,32.839,0C14.703,0,0,14.703,0,32.839C0,50.976,14.703,65.679,32.839,65.679Z"/>
</g>
  <g id="Light-S" transform="matrix(1.0,0.0,0.0,1.0,1121.5806253487724,627.9306448800223)">  <path fill="#000000" fill-rule="nonzero" stroke-linejoin="miter" fill-opacity="1" stroke-width="1px" stroke-dasharray="none" stroke-opacity="1" stroke-linecap="butt" stroke="none" stroke-miterlimit="4" d="M17.514,34.664L48.164,34.664L48.164,31.015L17.514,31.015L17.514,34.664ZM32.839,61.665C16.919,61.665,4.014,48.759,4.014,32.839C4.014,16.919,16.919,4.014,32.839,4.014C48.759,4.014,61.665,16.919,61.665,32.839C61.665,48.759,48.759,61.665,32.839,61.665ZM32.839,65.314C50.775,65.314,65.314,50.775,65.314,32.839C65.314,14.904,50.775,0.365,32.839,0.365C14.904,0.365,0.365,14.904,0.365,32.839C0.365,50.775,14.904,65.314,32.839,65.314Z"/>
</g>
  <g id="Thin-S" transform="matrix(1.0,0.0,0.0,1.0,824.8706253487724,627.9306448800223)">  <path stroke-miterlimit="4" fill-opacity="1" stroke-linejoin="miter" stroke-linecap="butt" stroke="none" stroke-dasharray="none" stroke-width="1px" fill="#000000" stroke-opacity="1" fill-rule="nonzero" d="M17.514,34.299L48.164,34.299L48.164,31.38L17.514,31.38L17.514,34.299ZM32.839,62.03C16.718,62.03,3.649,48.961,3.649,32.839C3.649,16.718,16.718,3.649,32.839,3.649C48.961,3.649,62.03,16.718,62.03,32.839C62.03,48.961,48.961,62.03,32.839,62.03ZM32.839,64.949C50.573,64.949,64.949,50.573,64.949,32.839C64.949,15.106,50.573,0.73,32.839,0.73C15.106,0.73,0.73,15.106,0.73,32.839C0.73,50.573,15.106,64.949,32.839,64.949Z"/>
</g>
  <g id="Ultralight-S" transform="matrix(1.0,0.0,0.0,1.0,528.1606253487723,627.9306448800223)">  <path stroke-width="1px" stroke-linecap="butt" fill="#000000" fill-rule="nonzero" stroke-linejoin="miter" stroke="none" stroke-dasharray="none" stroke-miterlimit="4" stroke-opacity="1" fill-opacity="1" d="M17.514,33.934L48.164,33.934L48.164,31.745L17.514,31.745L17.514,33.934ZM32.839,62.395C16.516,62.395,3.284,49.162,3.284,32.839C3.284,16.516,16.516,3.284,32.839,3.284C49.162,3.284,62.395,16.516,62.395,32.839C62.395,49.162,49.162,62.395,32.839,62.395ZM32.839,64.584C50.372,64.584,64.584,50.372,64.584,32.839C64.584,15.307,50.372,1.095,32.839,1.095C15.307,1.095,1.095,15.307,1.095,32.839C1.095,50.372,15.307,64.584,32.839,64.584Z"/>
</g>
 </g>
</svg>
