<?xml version="1.0" encoding="UTF-8"?>
<!-- Generator: CustomSymbols v2.6.2.41 by @serious_bret https://bretlester.com/app_content/CustomSymbols/ -->
<!-- Guides: Left/Right -0.031/-0.031 Cap/Base 0.08/0.08 -->
<!-- Settings: RefScale 1.0 Min/Max Stroke Scales 0.5/2.21 -->
<!DOCTYPE svg
PUBLIC "-//W3C//DTD SVG 1.1//EN"
       "http://www.w3.org/Graphics/SVG/1.1/DTD/svg11.dtd">
<svg version="1.1" xmlns="http://www.w3.org/2000/svg" xmlns:xlink="http://www.w3.org/1999/xlink" width="3300" height="2200">
<![CDATA[<svg width="15" height="15" viewBox="0 0 15 15" fill="none" xmlns="http://www.w3.org/2000/svg">
<path d="M14.5 14.5L10.5 10.5M6.5 12.5C3.18629 12.5 0.5 9.81371 0.5 6.5C0.5 3.18629 3.18629 0.5 6.5 0.5C9.81371 0.5 12.5 3.18629 12.5 6.5C12.5 9.81371 9.81371 12.5 6.5 12.5Z" stroke="#1D1929"/>
</svg>
]]>
 <g id="Notes">
  <rect height="2200" id="artboard" style="fill:white;opacity:1" width="3300" x="0" y="0"/>
  <line id="" style="fill:none;stroke:black;opacity:1;stroke-width:0.5;" x1="263" x2="3036" y1="292" y2="292"/>
  <text id="reftext1" style="stroke:none;fill:black;font-family:-apple-system,&quot;SF Pro Display&quot;,&quot;SF Pro Text&quot;,Helvetica,sans-serif;font-weight:bold;" transform="matrix(1 0 0 1 263 322)">Weight/Scale Variations</text>
  <text id="reftext2" style="stroke:none;fill:black;font-family:-apple-system,&quot;SF Pro Display&quot;,&quot;SF Pro Text&quot;,Helvetica,sans-serif;text-anchor:middle;" transform="matrix(1 0 0 1 559.711 322)">Ultralight</text>
  <text style="stroke:none;fill:black;font-family:-apple-system,&quot;SF Pro Display&quot;,&quot;SF Pro Text&quot;,Helvetica,sans-serif;text-anchor:middle;" transform="matrix(1 0 0 1 856.422 322)">Thin</text>
  <text style="stroke:none;fill:black;font-family:-apple-system,&quot;SF Pro Display&quot;,&quot;SF Pro Text&quot;,Helvetica,sans-serif;text-anchor:middle;" transform="matrix(1 0 0 1 1153.13 322)">Light</text>
  <text style="stroke:none;fill:black;font-family:-apple-system,&quot;SF Pro Display&quot;,&quot;SF Pro Text&quot;,Helvetica,sans-serif;text-anchor:middle;" transform="matrix(1 0 0 1 1449.84 322)">Regular</text>
  <text style="stroke:none;fill:black;font-family:-apple-system,&quot;SF Pro Display&quot;,&quot;SF Pro Text&quot;,Helvetica,sans-serif;text-anchor:middle;" transform="matrix(1 0 0 1 1746.56 322)">Medium</text>
  <text style="stroke:none;fill:black;font-family:-apple-system,&quot;SF Pro Display&quot;,&quot;SF Pro Text&quot;,Helvetica,sans-serif;text-anchor:middle;" transform="matrix(1 0 0 1 2043.27 322)">Semibold</text>
  <text style="stroke:none;fill:black;font-family:-apple-system,&quot;SF Pro Display&quot;,&quot;SF Pro Text&quot;,Helvetica,sans-serif;text-anchor:middle;" transform="matrix(1 0 0 1 2339.98 322)">Bold</text>
  <text style="stroke:none;fill:black;font-family:-apple-system,&quot;SF Pro Display&quot;,&quot;SF Pro Text&quot;,Helvetica,sans-serif;text-anchor:middle;" transform="matrix(1 0 0 1 2636.69 322)">Heavy</text>
  <text style="stroke:none;fill:black;font-family:-apple-system,&quot;SF Pro Display&quot;,&quot;SF Pro Text&quot;,Helvetica,sans-serif;text-anchor:middle;" transform="matrix(1 0 0 1 2933.4 322)">Black</text>
  <line id="" style="fill:none;stroke:black;opacity:1;stroke-width:0.5;" x1="263" x2="3036" y1="1903" y2="1903"/>
  <g id="" transform="matrix(1 0 0 1 263 1933)">
   <path d="M9.24805 0.830078C13.5547 0.830078 17.1387-2.74414 17.1387-7.05078C17.1387-11.3574 13.5449-14.9316 9.23828-14.9316C4.94141-14.9316 1.36719-11.3574 1.36719-7.05078C1.36719-2.74414 4.95117 0.830078 9.24805 0.830078ZM9.24805-0.654297C5.70312-0.654297 2.87109-3.49609 2.87109-7.05078C2.87109-10.6055 5.69336-13.4473 9.23828-13.4473C12.793-13.4473 15.6348-10.6055 15.6445-7.05078C15.6543-3.49609 12.8027-0.654297 9.24805-0.654297ZM6.39648-6.31836L8.50586-6.31836L8.50586-4.19922C8.50586-3.75977 8.79883-3.45703 9.22852-3.45703C9.67773-3.45703 9.9707-3.75977 9.9707-4.19922L9.9707-6.31836L12.0996-6.31836C12.5391-6.31836 12.8418-6.61133 12.8418-7.04102C12.8418-7.48047 12.5391-7.7832 12.0996-7.7832L9.9707-7.7832L9.9707-9.89258C9.9707-10.3418 9.67773-10.6445 9.22852-10.6445C8.79883-10.6445 8.50586-10.3418 8.50586-9.89258L8.50586-7.7832L6.39648-7.7832C5.94727-7.7832 5.64453-7.48047 5.64453-7.04102C5.64453-6.61133 5.94727-6.31836 6.39648-6.31836Z"/>
  </g>
  <g id="" transform="matrix(1 0 0 1 281.506 1933)">
   <path d="M11.709 2.91016C17.1582 2.91016 21.6699-1.61133 21.6699-7.05078C21.6699-12.5 17.1484-17.0117 11.6992-17.0117C6.25977-17.0117 1.74805-12.5 1.74805-7.05078C1.74805-1.61133 6.26953 2.91016 11.709 2.91016ZM11.709 1.25C7.09961 1.25 3.41797-2.44141 3.41797-7.05078C3.41797-11.6602 7.08984-15.3516 11.6992-15.3516C16.3086-15.3516 20-11.6602 20.0098-7.05078C20.0195-2.44141 16.3184 1.25 11.709 1.25ZM7.98828-6.23047L10.8789-6.23047L10.8789-3.32031C10.8789-2.83203 11.2109-2.5 11.6895-2.5C12.1777-2.5 12.5195-2.83203 12.5195-3.32031L12.5195-6.23047L15.4297-6.23047C15.918-6.23047 16.25-6.5625 16.25-7.04102C16.25-7.5293 15.918-7.87109 15.4297-7.87109L12.5195-7.87109L12.5195-10.7617C12.5195-11.2695 12.1777-11.6016 11.6895-11.6016C11.2109-11.6016 10.8789-11.2598 10.8789-10.7617L10.8789-7.87109L7.98828-7.87109C7.48047-7.87109 7.14844-7.5293 7.14844-7.04102C7.14844-6.5625 7.49023-6.23047 7.98828-6.23047Z"/>
  </g>
  <g id="" transform="matrix(1 0 0 1 304.924 1933)">
   <path d="M14.9707 5.66406C21.9336 5.66406 27.6953-0.0976562 27.6953-7.05078C27.6953-14.0137 21.9238-19.7754 14.9609-19.7754C8.00781-19.7754 2.25586-14.0137 2.25586-7.05078C2.25586-0.0976562 8.01758 5.66406 14.9707 5.66406ZM14.9707 3.84766C8.93555 3.84766 4.08203-1.01562 4.08203-7.05078C4.08203-13.0957 8.92578-17.9492 14.9609-17.9492C21.0059-17.9492 25.8594-13.0957 25.8691-7.05078C25.8789-1.01562 21.0156 3.84766 14.9707 3.84766ZM10.0586-6.14258L14.0625-6.14258L14.0625-2.12891C14.0625-1.5918 14.4336-1.2207 14.9512-1.2207C15.4883-1.2207 15.8594-1.5918 15.8594-2.12891L15.8594-6.14258L19.8828-6.14258C20.4102-6.14258 20.791-6.51367 20.791-7.03125C20.791-7.56836 20.4199-7.94922 19.8828-7.94922L15.8594-7.94922L15.8594-11.9531C15.8594-12.5098 15.4883-12.8809 14.9512-12.8809C14.4336-12.8809 14.0625-12.5 14.0625-11.9531L14.0625-7.94922L10.0586-7.94922C9.50195-7.94922 9.13086-7.56836 9.13086-7.03125C9.13086-6.51367 9.51172-6.14258 10.0586-6.14258Z"/>
  </g>
  <text style="stroke:none;fill:black;font-family:-apple-system,&quot;SF Pro Display&quot;,&quot;SF Pro Text&quot;,Helvetica,sans-serif;font-weight:bold;" transform="matrix(1 0 0 1 263 1953)">Design Variations</text>
  <text style="stroke:none;fill:black;font-family:-apple-system,&quot;SF Pro Display&quot;,&quot;SF Pro Text&quot;,Helvetica,sans-serif;" transform="matrix(1 0 0 1 263 1971)">Symbols are supported in up to nine weights and three scales.</text>
  <text style="stroke:none;fill:black;font-family:-apple-system,&quot;SF Pro Display&quot;,&quot;SF Pro Text&quot;,Helvetica,sans-serif;" transform="matrix(1 0 0 1 263 1989)">For optimal layout with text and other symbols, vertically align</text>
  <text style="stroke:none;fill:black;font-family:-apple-system,&quot;SF Pro Display&quot;,&quot;SF Pro Text&quot;,Helvetica,sans-serif;" transform="matrix(1 0 0 1 263 2007)">symbols with the adjacent text.</text>
  <line id="" style="fill:none;stroke:#00AEEF;stroke-width:0.5;opacity:1.0;" x1="776" x2="776" y1="1919" y2="1933"/>
  <g id="" transform="matrix(1 0 0 1 776 1933)">
   <path d="M3.31055 0.126953C3.82812 0.126953 4.08203-0.0683594 4.26758-0.605469L5.52734-4.0625L11.2891-4.0625L12.5488-0.605469C12.7344-0.0683594 12.9883 0.126953 13.4961 0.126953C14.0137 0.126953 14.3457-0.185547 14.3457-0.673828C14.3457-0.839844 14.3164-0.986328 14.2383-1.20117L9.6582-13.3887C9.43359-13.9941 9.0332-14.2871 8.4082-14.2871C7.80273-14.2871 7.39258-13.9941 7.17773-13.3984L2.59766-1.19141C2.51953-0.976562 2.49023-0.830078 2.49023-0.664062C2.49023-0.175781 2.80273 0.126953 3.31055 0.126953ZM6.00586-5.53711L8.37891-12.1094L8.42773-12.1094L10.8008-5.53711Z"/>
  </g>
  <line id="" style="fill:none;stroke:#00AEEF;stroke-width:0.5;opacity:1.0;" x1="792.836" x2="792.836" y1="1919" y2="1933"/>
  <text style="stroke:none;fill:black;font-family:-apple-system,&quot;SF Pro Display&quot;,&quot;SF Pro Text&quot;,Helvetica,sans-serif;font-weight:bold;" transform="matrix(1 0 0 1 776 1953)">Margins</text>
  <text style="stroke:none;fill:black;font-family:-apple-system,&quot;SF Pro Display&quot;,&quot;SF Pro Text&quot;,Helvetica,sans-serif;" transform="matrix(1 0 0 1 776 1971)">Leading and trailing margins on the left and right side of each symbol</text>
  <text style="stroke:none;fill:black;font-family:-apple-system,&quot;SF Pro Display&quot;,&quot;SF Pro Text&quot;,Helvetica,sans-serif;" transform="matrix(1 0 0 1 776 1989)">can be adjusted by modifying the x-location of the margin guidelines.</text>
  <text style="stroke:none;fill:black;font-family:-apple-system,&quot;SF Pro Display&quot;,&quot;SF Pro Text&quot;,Helvetica,sans-serif;" transform="matrix(1 0 0 1 776 2007)">Modifications are automatically applied proportionally to all</text>
  <text style="stroke:none;fill:black;font-family:-apple-system,&quot;SF Pro Display&quot;,&quot;SF Pro Text&quot;,Helvetica,sans-serif;" transform="matrix(1 0 0 1 776 2025)">scales and weights.</text>
  <g id="" transform="matrix(1 0 0 1 1289 1933)">
   <path d="M2.8418 1.86523L4.54102 3.57422C5.40039 4.44336 6.38672 4.38477 7.31445 3.35938L17.4902-7.85156C17.7539-7.76367 18.0273-7.7832 18.3398-7.8418L19.4043-8.03711L20.0684-7.36328L20.0293-6.80664C19.9902-6.30859 20.1172-5.92773 20.6055-5.44922L21.3672-4.70703C21.8457-4.22852 22.4609-4.19922 22.9297-4.66797L25.8398-7.58789C26.3086-8.05664 26.2891-8.65234 25.8105-9.13086L25.0391-9.89258C24.5605-10.3711 24.1895-10.5273 23.7109-10.4883L23.1348-10.4395L22.4902-11.0742L22.7344-12.1973C22.8613-12.7637 22.7051-13.2031 22.1191-13.7891L19.9219-15.9766C16.582-19.2969 12.1484-19.2188 9.25781-16.3281C8.83789-15.918 8.80859-15.3418 9.04297-14.9512C9.27734-14.5898 9.73633-14.3555 10.3809-14.5215C11.8457-14.8633 13.3691-14.9219 14.7949-13.9844L14.209-12.5293C14.0137-12.0508 13.9844-11.6504 14.1113-11.2891L3.04688-0.898438C2.06055 0.0195312 1.98242 0.996094 2.8418 1.86523ZM10.752-15.957C13.1836-17.7344 16.4746-17.4316 18.7012-15.2051L21.1328-12.793C21.3672-12.5586 21.4062-12.373 21.3379-12.0312L21.0156-10.5469L22.5195-9.0625L23.5059-9.12109C23.7598-9.13086 23.8379-9.11133 24.0332-8.91602L24.6094-8.33984L22.168-5.89844L21.5918-6.47461C21.3965-6.66992 21.3672-6.74805 21.377-7.01172L21.4453-7.98828L19.9512-9.47266L18.4277-9.21875C18.1055-9.15039 17.959-9.17969 17.7148-9.41406L15.7129-11.416C15.459-11.6504 15.4297-11.8164 15.5859-12.1875L16.4648-14.2773C14.9023-15.7324 12.8711-16.3574 10.8398-15.7617C10.6836-15.7227 10.625-15.8496 10.752-15.957ZM5.27344 2.30469L4.10156 1.14258C3.63281 0.683594 3.74023 0.341797 4.14062-0.0195312L14.9512-10.1953L16.416-8.71094L6.42578 2.27539C6.07422 2.67578 5.74219 2.77344 5.27344 2.30469Z"/>
  </g>
  <text style="stroke:none;fill:black;font-family:-apple-system,&quot;SF Pro Display&quot;,&quot;SF Pro Text&quot;,Helvetica,sans-serif;font-weight:bold;" transform="matrix(1 0 0 1 1289 1953)">Exporting</text>
  <text style="stroke:none;fill:black;font-family:-apple-system,&quot;SF Pro Display&quot;,&quot;SF Pro Text&quot;,Helvetica,sans-serif;" transform="matrix(1 0 0 1 1289 1971)">Symbols should be outlined when exporting to ensure the</text>
  <text style="stroke:none;fill:black;font-family:-apple-system,&quot;SF Pro Display&quot;,&quot;SF Pro Text&quot;,Helvetica,sans-serif;" transform="matrix(1 0 0 1 1289 1989)">design is preserved when submitting to Xcode.</text>
  <text id="template-version" style="stroke:none;fill:black;font-family:-apple-system,&quot;SF Pro Display&quot;,&quot;SF Pro Text&quot;,Helvetica,sans-serif;text-anchor:end;" transform="matrix(1 0 0 1 3036 1933)">Template v.2.0</text>
  <text style="stroke:none;fill:black;font-family:-apple-system,&quot;SF Pro Display&quot;,&quot;SF Pro Text&quot;,Helvetica,sans-serif;text-anchor:end;" transform="matrix(1 0 0 1 3036 1951)">Requires Xcode 12 or greater</text>
  <text style="stroke:none;fill:black;font-family:-apple-system,&quot;SF Pro Display&quot;,&quot;SF Pro Text&quot;,Helvetica,sans-serif;" transform="matrix(1 0 0 1 263 726)">Small</text>
  <text style="stroke:none;fill:black;font-family:-apple-system,&quot;SF Pro Display&quot;,&quot;SF Pro Text&quot;,Helvetica,sans-serif;" transform="matrix(1 0 0 1 263 1156)">Medium</text>
  <text style="stroke:none;fill:black;font-family:-apple-system,&quot;SF Pro Display&quot;,&quot;SF Pro Text&quot;,Helvetica,sans-serif;" transform="matrix(1 0 0 1 263 1586)">Large</text>
 </g>
 <g id="Guides">
  <g id="H-reference" style="fill:#27AAE1;stroke:none;" transform="matrix(1 0 0 1 339 696)">
   <path d="M0.976562 0L3.66211 0L12.9883-24.4629L45.752-24.4629L55.127 0L57.7637 0L30.6152-70.459L28.125-70.459ZM29.3457-67.1387L29.4434-67.1387L44.873-26.709L13.8672-26.709Z"/>
  </g>
  <line id="Baseline-S" style="fill:none;stroke:#27AAE1;opacity:1;stroke-width:0.5;" x1="263" x2="3036" y1="696" y2="696"/>
  <line id="Capline-S" style="fill:none;stroke:#27AAE1;opacity:1;stroke-width:0.5;" x1="263" x2="3036" y1="625.541" y2="625.541"/>
  <g id="H-reference" style="fill:#27AAE1;stroke:none;" transform="matrix(1 0 0 1 339 1126)">
   <path d="M0.976562 0L3.66211 0L12.9883-24.4629L45.752-24.4629L55.127 0L57.7637 0L30.6152-70.459L28.125-70.459ZM29.3457-67.1387L29.4434-67.1387L44.873-26.709L13.8672-26.709Z"/>
  </g>
  <line id="Baseline-M" style="fill:none;stroke:#27AAE1;opacity:1;stroke-width:0.5;" x1="263" x2="3036" y1="1126" y2="1126"/>
  <line id="Capline-M" style="fill:none;stroke:#27AAE1;opacity:1;stroke-width:0.5;" x1="263" x2="3036" y1="1055.54" y2="1055.54"/>
  <g id="H-reference" style="fill:#27AAE1;stroke:none;" transform="matrix(1 0 0 1 339 1556)">
   <path d="M0.976562 0L3.66211 0L12.9883-24.4629L45.752-24.4629L55.127 0L57.7637 0L30.6152-70.459L28.125-70.459ZM29.3457-67.1387L29.4434-67.1387L44.873-26.709L13.8672-26.709Z"/>
  </g>
  <line id="Baseline-L" style="fill:none;stroke:#27AAE1;opacity:1;stroke-width:0.5;" x1="263" x2="3036" y1="1556" y2="1556"/>
  <line id="Capline-L" style="fill:none;stroke:#27AAE1;opacity:1;stroke-width:0.5;" x1="263" x2="3036" y1="1485.54" y2="1485.54"/>
  <line id="left-margin" x1="1406.5892389787946" x2="1406.5892389787946" y1="1030.79" y2="1150.12" style="fill:none;stroke:#00AEEF;stroke-width:0.5;opacity:1.0;"/>
  <line id="right-margin" x1="1495.6707610212052" x2="1495.6707610212052" y1="1030.79" y2="1150.12" style="fill:none;stroke:#00AEEF;stroke-width:0.5;opacity:1.0;"/>
 </g>
 <g id="Symbols">
  <g id="Black-L" transform="matrix(1.0,0.0,0.0,1.0,2880.576815708705,1466.6668352399554)">  <path fill-opacity="1" stroke-miterlimit="4" stroke-linejoin="miter" stroke-dasharray="none" fill="#000000" stroke-opacity="1" fill-rule="nonzero" stroke-width="1px" stroke="none" stroke-linecap="butt" d="M110.236,98.963L81.381,70.108L70.108,81.381L98.963,110.236L110.236,98.963ZM46.889,82.201C27.387,82.201,11.578,66.391,11.578,46.889C11.578,27.387,27.387,11.578,46.889,11.578C66.391,11.578,82.201,27.387,82.201,46.889C82.201,66.391,66.391,82.201,46.889,82.201ZM46.889,98.143C75.196,98.143,98.143,75.196,98.143,46.889C98.143,18.583,75.196,-4.364,46.889,-4.364C18.583,-4.364,-4.364,18.583,-4.364,46.889C-4.364,75.196,18.583,98.143,46.889,98.143Z"/>
</g>
  <g id="Heavy-L" transform="matrix(1.0,0.0,0.0,1.0,2583.866815708705,1466.6668352399554)">  <path fill="#000000" stroke-dasharray="none" stroke-miterlimit="4" stroke-width="1px" stroke-linejoin="miter" fill-rule="nonzero" stroke-opacity="1" fill-opacity="1" stroke="none" stroke-linecap="butt" d="M109.619,99.58L80.764,70.725L70.725,80.764L99.58,109.619L109.619,99.58ZM46.889,83.074C26.905,83.074,10.705,66.873,10.705,46.889C10.705,26.905,26.905,10.705,46.889,10.705C66.873,10.705,83.074,26.905,83.074,46.889C83.074,66.873,66.873,83.074,46.889,83.074ZM46.889,97.27C74.714,97.27,97.27,74.714,97.27,46.889C97.27,19.065,74.714,-3.491,46.889,-3.491C19.065,-3.491,-3.491,19.065,-3.491,46.889C-3.491,74.714,19.065,97.27,46.889,97.27Z"/>
</g>
  <g id="Bold-L" transform="matrix(1.0,0.0,0.0,1.0,2287.156815708705,1466.6668352399554)">  <path stroke-linecap="butt" fill-opacity="1" fill="#000000" stroke-opacity="1" stroke-width="1px" stroke="none" stroke-linejoin="miter" fill-rule="nonzero" stroke-dasharray="none" stroke-miterlimit="4" d="M109.002,100.197L80.147,71.342L71.342,80.147L100.197,109.002L109.002,100.197ZM46.889,83.947C26.423,83.947,9.832,67.355,9.832,46.889C9.832,26.423,26.423,9.832,46.889,9.832C67.355,9.832,83.947,26.423,83.947,46.889C83.947,67.355,67.355,83.947,46.889,83.947ZM46.889,96.397C74.232,96.397,96.397,74.232,96.397,46.889C96.397,19.547,74.232,-2.619,46.889,-2.619C19.547,-2.619,-2.619,19.547,-2.619,46.889C-2.619,74.232,19.547,96.397,46.889,96.397Z"/>
</g>
  <g id="Semibold-L" transform="matrix(1.0,0.0,0.0,1.0,1990.4468157087053,1466.6668352399554)">  <path stroke-dasharray="none" fill-opacity="1" stroke-linejoin="miter" fill="#000000" stroke-linecap="butt" stroke-miterlimit="4" stroke-width="1px" stroke="none" stroke-opacity="1" fill-rule="nonzero" d="M108.384,100.815L79.529,71.96L71.96,79.529L100.815,108.384L108.384,100.815ZM46.889,84.819C25.941,84.819,8.959,67.838,8.959,46.889C8.959,25.941,25.941,8.959,46.889,8.959C67.838,8.959,84.819,25.941,84.819,46.889C84.819,67.838,67.838,84.819,46.889,84.819ZM46.889,95.525C73.75,95.525,95.525,73.75,95.525,46.889C95.525,20.029,73.75,-1.746,46.889,-1.746C20.029,-1.746,-1.746,20.029,-1.746,46.889C-1.746,73.75,20.029,95.525,46.889,95.525Z"/>
</g>
  <g id="Medium-L" transform="matrix(1.0,0.0,0.0,1.0,1693.7368157087053,1466.6668352399554)">  <path stroke-dasharray="none" fill="#000000" fill-opacity="1" stroke="none" stroke-linejoin="miter" stroke-miterlimit="4" stroke-linecap="butt" stroke-width="1px" stroke-opacity="1" fill-rule="nonzero" d="M107.767,101.432L78.912,72.577L72.577,78.912L101.432,107.767L107.767,101.432ZM46.889,85.692C25.459,85.692,8.087,68.32,8.087,46.889C8.087,25.459,25.459,8.087,46.889,8.087C68.32,8.087,85.692,25.459,85.692,46.889C85.692,68.32,68.32,85.692,46.889,85.692ZM46.889,94.652C73.268,94.652,94.652,73.268,94.652,46.889C94.652,20.511,73.268,-0.873,46.889,-0.873C20.511,-0.873,-0.873,20.511,-0.873,46.889C-0.873,73.268,20.511,94.652,46.889,94.652Z"/>
</g>
  <g id="Regular-L" transform="matrix(1.0,0.0,0.0,1.0,1397.0268157087053,1466.6668352399554)">  <path stroke-linejoin="miter" stroke-linecap="butt" stroke-opacity="1" stroke-dasharray="none" stroke-miterlimit="4" fill-opacity="1" stroke="none" stroke-width="1px" fill-rule="nonzero" fill="#000000" d="M107.15,102.049L78.295,73.194L73.194,78.295L102.049,107.15L107.15,102.049ZM46.889,86.565C24.977,86.565,7.214,68.802,7.214,46.889C7.214,24.977,24.977,7.214,46.889,7.214C68.802,7.214,86.565,24.977,86.565,46.889C86.565,68.802,68.802,86.565,46.889,86.565ZM46.889,93.779C72.786,93.779,93.779,72.786,93.779,46.889C93.779,20.993,72.786,0,46.889,0C20.993,0,0,20.993,0,46.889C0,72.786,20.993,93.779,46.889,93.779Z"/>
</g>
  <g id="Light-L" transform="matrix(1.0,0.0,0.0,1.0,1100.3168157087055,1466.6668352399554)">  <path stroke-linecap="butt" stroke-dasharray="none" stroke-linejoin="miter" fill="#000000" stroke-opacity="1" stroke="none" fill-rule="nonzero" stroke-width="1px" fill-opacity="1" stroke-miterlimit="4" d="M106.725,102.474L77.87,73.619L73.619,77.87L102.474,106.725L106.725,102.474ZM46.889,87.166C24.645,87.166,6.613,69.134,6.613,46.889C6.613,24.645,24.645,6.613,46.889,6.613C69.134,6.613,87.166,24.645,87.166,46.889C87.166,69.134,69.134,87.166,46.889,87.166ZM46.889,93.178C72.454,93.178,93.178,72.454,93.178,46.889C93.178,21.325,72.454,0.601,46.889,0.601C21.325,0.601,0.601,21.325,0.601,46.889C0.601,72.454,21.325,93.178,46.889,93.178Z"/>
</g>
  <g id="Thin-L" transform="matrix(1.0,0.0,0.0,1.0,803.6068157087054,1466.6668352399554)">  <path stroke-dasharray="none" stroke-width="1px" stroke-linejoin="miter" fill-opacity="1" stroke-opacity="1" fill="#000000" fill-rule="nonzero" stroke-linecap="butt" stroke-miterlimit="4" stroke="none" d="M106.3,102.899L77.445,74.044L74.044,77.445L102.899,106.3L106.3,102.899ZM46.889,87.767C24.313,87.767,6.011,69.466,6.011,46.889C6.011,24.313,24.313,6.011,46.889,6.011C69.466,6.011,87.767,24.313,87.767,46.889C87.767,69.466,69.466,87.767,46.889,87.767ZM46.889,92.577C72.122,92.577,92.577,72.122,92.577,46.889C92.577,21.657,72.122,1.202,46.889,1.202C21.657,1.202,1.202,21.657,1.202,46.889C1.202,72.122,21.657,92.577,46.889,92.577Z"/>
</g>
  <g id="Ultralight-L" transform="matrix(1.0,0.0,0.0,1.0,506.89681570870533,1466.6668352399554)">  <path stroke="none" stroke-linejoin="miter" stroke-opacity="1" fill-opacity="1" stroke-miterlimit="4" stroke-dasharray="none" fill-rule="nonzero" stroke-width="1px" fill="#000000" stroke-linecap="butt" d="M105.875,103.324L77.02,74.469L74.469,77.02L103.324,105.875L105.875,103.324ZM46.889,88.369C23.981,88.369,5.41,69.798,5.41,46.889C5.41,23.981,23.981,5.41,46.889,5.41C69.798,5.41,88.369,23.981,88.369,46.889C88.369,69.798,69.798,88.369,46.889,88.369ZM46.889,91.975C71.79,91.975,91.975,71.79,91.975,46.889C91.975,21.989,71.79,1.803,46.889,1.803C21.989,1.803,1.803,21.989,1.803,46.889C1.803,71.79,21.989,91.975,46.889,91.975Z"/>
</g>
  <g id="Black-M" transform="matrix(1.0,0.0,0.0,1.0,2892.7395470610118,1048.829566592262)">  <path fill-opacity="1" stroke-miterlimit="4" stroke-linejoin="miter" stroke-dasharray="none" fill="#000000" stroke-opacity="1" fill-rule="nonzero" stroke-width="1px" stroke="none" stroke-linecap="butt" d="M85.454,76.716L63.086,54.347L54.347,63.086L76.716,85.454L85.454,76.716ZM36.348,63.722C21.231,63.722,8.975,51.466,8.975,36.348C8.975,21.231,21.231,8.975,36.348,8.975C51.466,8.975,63.722,21.231,63.722,36.348C63.722,51.466,51.466,63.722,36.348,63.722ZM36.348,76.08C58.292,76.08,76.08,58.292,76.08,36.348C76.08,14.405,58.292,-3.383,36.348,-3.383C14.405,-3.383,-3.383,14.405,-3.383,36.348C-3.383,58.292,14.405,76.08,36.348,76.08Z"/>
</g>
  <g id="Heavy-M" transform="matrix(1.0,0.0,0.0,1.0,2596.0295470610117,1048.829566592262)">  <path fill="#000000" stroke-dasharray="none" stroke-miterlimit="4" stroke-width="1px" stroke-linejoin="miter" fill-rule="nonzero" stroke-opacity="1" fill-opacity="1" stroke="none" stroke-linecap="butt" d="M84.976,77.194L62.608,54.826L54.826,62.608L77.194,84.976L84.976,77.194ZM36.348,64.398C20.857,64.398,8.299,51.84,8.299,36.348C8.299,20.857,20.857,8.299,36.348,8.299C51.84,8.299,64.398,20.857,64.398,36.348C64.398,51.84,51.84,64.398,36.348,64.398ZM36.348,75.403C57.918,75.403,75.403,57.918,75.403,36.348C75.403,14.779,57.918,-2.707,36.348,-2.707C14.779,-2.707,-2.707,14.779,-2.707,36.348C-2.707,57.918,14.779,75.403,36.348,75.403Z"/>
</g>
  <g id="Bold-M" transform="matrix(1.0,0.0,0.0,1.0,2299.3195470610117,1048.829566592262)">  <path stroke-linecap="butt" fill-opacity="1" fill="#000000" stroke-opacity="1" stroke-width="1px" stroke="none" stroke-linejoin="miter" fill-rule="nonzero" stroke-dasharray="none" stroke-miterlimit="4" d="M84.497,77.672L62.129,55.304L55.304,62.129L77.672,84.497L84.497,77.672ZM36.348,65.075C20.483,65.075,7.622,52.214,7.622,36.348C7.622,20.483,20.483,7.622,36.348,7.622C52.214,7.622,65.075,20.483,65.075,36.348C65.075,52.214,52.214,65.075,36.348,65.075ZM36.348,74.727C57.544,74.727,74.727,57.544,74.727,36.348C74.727,15.153,57.544,-2.03,36.348,-2.03C15.153,-2.03,-2.03,15.153,-2.03,36.348C-2.03,57.544,15.153,74.727,36.348,74.727Z"/>
</g>
  <g id="Semibold-M" transform="matrix(1.0,0.0,0.0,1.0,2002.6095470610119,1048.829566592262)">  <path stroke-dasharray="none" fill-opacity="1" stroke-linejoin="miter" fill="#000000" stroke-linecap="butt" stroke-miterlimit="4" stroke-width="1px" stroke="none" stroke-opacity="1" fill-rule="nonzero" d="M84.019,78.151L61.651,55.783L55.783,61.651L78.151,84.019L84.019,78.151ZM36.348,65.751C20.11,65.751,6.945,52.587,6.945,36.348C6.945,20.11,20.11,6.945,36.348,6.945C52.587,6.945,65.751,20.11,65.751,36.348C65.751,52.587,52.587,65.751,36.348,65.751ZM36.348,74.05C57.17,74.05,74.05,57.17,74.05,36.348C74.05,15.526,57.17,-1.353,36.348,-1.353C15.526,-1.353,-1.353,15.526,-1.353,36.348C-1.353,57.17,15.526,74.05,36.348,74.05Z"/>
</g>
  <g id="Medium-M" transform="matrix(1.0,0.0,0.0,1.0,1705.8995470610118,1048.829566592262)">  <path stroke-dasharray="none" fill="#000000" fill-opacity="1" stroke="none" stroke-linejoin="miter" stroke-miterlimit="4" stroke-linecap="butt" stroke-width="1px" stroke-opacity="1" fill-rule="nonzero" d="M83.54,78.629L61.172,56.261L56.261,61.172L78.629,83.54L83.54,78.629ZM36.348,66.428C19.736,66.428,6.269,52.961,6.269,36.348C6.269,19.736,19.736,6.269,36.348,6.269C52.961,6.269,66.428,19.736,66.428,36.348C66.428,52.961,52.961,66.428,36.348,66.428ZM36.348,73.373C56.797,73.373,73.373,56.797,73.373,36.348C73.373,15.9,56.797,-0.677,36.348,-0.677C15.9,-0.677,-0.677,15.9,-0.677,36.348C-0.677,56.797,15.9,73.373,36.348,73.373Z"/>
</g>
  <g id="Regular-M" transform="matrix(1.0,0.0,0.0,1.0,1409.1895470610118,1048.829566592262)">  <path stroke-linejoin="miter" stroke-linecap="butt" stroke-opacity="1" stroke-dasharray="none" stroke-miterlimit="4" fill-opacity="1" stroke="none" stroke-width="1px" fill-rule="nonzero" fill="#000000" d="M83.062,79.108L60.694,56.74L56.74,60.694L79.108,83.062L83.062,79.108ZM36.348,67.105C19.362,67.105,5.592,53.335,5.592,36.348C5.592,19.362,19.362,5.592,36.348,5.592C53.335,5.592,67.105,19.362,67.105,36.348C67.105,53.335,53.335,67.105,36.348,67.105ZM36.348,72.697C56.423,72.697,72.697,56.423,72.697,36.348C72.697,16.274,56.423,0,36.348,0C16.274,0,0,16.274,0,36.348C0,56.423,16.274,72.697,36.348,72.697Z"/>
</g>
  <g id="Light-M" transform="matrix(1.0,0.0,0.0,1.0,1112.479547061012,1048.829566592262)">  <path stroke-linecap="butt" stroke-dasharray="none" stroke-linejoin="miter" fill="#000000" stroke-opacity="1" stroke="none" fill-rule="nonzero" stroke-width="1px" fill-opacity="1" stroke-miterlimit="4" d="M82.732,79.437L60.364,57.069L57.069,60.364L79.437,82.732L82.732,79.437ZM36.348,67.571C19.105,67.571,5.126,53.592,5.126,36.348C5.126,19.105,19.105,5.126,36.348,5.126C53.592,5.126,67.571,19.105,67.571,36.348C67.571,53.592,53.592,67.571,36.348,67.571ZM36.348,72.231C56.166,72.231,72.231,56.166,72.231,36.348C72.231,16.531,56.166,0.466,36.348,0.466C16.531,0.466,0.466,16.531,0.466,36.348C0.466,56.166,16.531,72.231,36.348,72.231Z"/>
</g>
  <g id="Thin-M" transform="matrix(1.0,0.0,0.0,1.0,815.769547061012,1048.829566592262)">  <path stroke-dasharray="none" stroke-width="1px" stroke-linejoin="miter" fill-opacity="1" stroke-opacity="1" fill="#000000" fill-rule="nonzero" stroke-linecap="butt" stroke-miterlimit="4" stroke="none" d="M82.403,79.767L60.035,57.399L57.399,60.035L79.767,82.403L82.403,79.767ZM36.348,68.037C18.847,68.037,4.66,53.849,4.66,36.348C4.66,18.847,18.847,4.66,36.348,4.66C53.849,4.66,68.037,18.847,68.037,36.348C68.037,53.849,53.849,68.037,36.348,68.037ZM36.348,71.765C55.908,71.765,71.765,55.908,71.765,36.348C71.765,16.788,55.908,0.932,36.348,0.932C16.788,0.932,0.932,16.788,0.932,36.348C0.932,55.908,16.788,71.765,36.348,71.765Z"/>
</g>
  <g id="Ultralight-M" transform="matrix(1.0,0.0,0.0,1.0,519.0595470610119,1048.829566592262)">  <path stroke="none" stroke-linejoin="miter" stroke-opacity="1" fill-opacity="1" stroke-miterlimit="4" stroke-dasharray="none" fill-rule="nonzero" stroke-width="1px" fill="#000000" stroke-linecap="butt" d="M82.073,80.096L59.705,57.728L57.728,59.705L80.096,82.073L82.073,80.096ZM36.348,68.503C18.59,68.503,4.194,54.107,4.194,36.348C4.194,18.59,18.59,4.194,36.348,4.194C54.107,4.194,68.503,18.59,68.503,36.348C68.503,54.107,54.107,68.503,36.348,68.503ZM36.348,71.299C55.651,71.299,71.299,55.651,71.299,36.348C71.299,17.046,55.651,1.398,36.348,1.398C17.046,1.398,1.398,17.046,1.398,36.348C1.398,55.651,17.046,71.299,36.348,71.299Z"/>
</g>
  <g id="Black-S" transform="matrix(1.0,0.0,0.0,1.0,2901.840625348772,627.9306448800223)">  <path fill-opacity="1" stroke-miterlimit="4" stroke-linejoin="miter" stroke-dasharray="none" fill="#000000" stroke-opacity="1" fill-rule="nonzero" stroke-width="1px" stroke="none" stroke-linecap="butt" d="M66.911,60.068L49.396,42.554L42.554,49.396L60.068,66.911L66.911,60.068ZM28.461,49.894C16.624,49.894,7.028,40.298,7.028,28.461C7.028,16.624,16.624,7.028,28.461,7.028C40.298,7.028,49.894,16.624,49.894,28.461C49.894,40.298,40.298,49.894,28.461,49.894ZM28.461,59.571C45.642,59.571,59.571,45.642,59.571,28.461C59.571,11.279,45.642,-2.649,28.461,-2.649C11.279,-2.649,-2.649,11.279,-2.649,28.461C-2.649,45.642,11.279,59.571,28.461,59.571Z"/>
</g>
  <g id="Heavy-S" transform="matrix(1.0,0.0,0.0,1.0,2605.130625348772,627.9306448800223)">  <path fill="#000000" stroke-dasharray="none" stroke-miterlimit="4" stroke-width="1px" stroke-linejoin="miter" fill-rule="nonzero" stroke-opacity="1" fill-opacity="1" stroke="none" stroke-linecap="butt" d="M66.536,60.443L49.022,42.929L42.929,49.022L60.443,66.536L66.536,60.443ZM28.461,50.424C16.331,50.424,6.498,40.591,6.498,28.461C6.498,16.331,16.331,6.498,28.461,6.498C40.591,6.498,50.424,16.331,50.424,28.461C50.424,40.591,40.591,50.424,28.461,50.424ZM28.461,59.041C45.35,59.041,59.041,45.35,59.041,28.461C59.041,11.572,45.35,-2.119,28.461,-2.119C11.572,-2.119,-2.119,11.572,-2.119,28.461C-2.119,45.35,11.572,59.041,28.461,59.041Z"/>
</g>
  <g id="Bold-S" transform="matrix(1.0,0.0,0.0,1.0,2308.420625348772,627.9306448800223)">  <path stroke-linecap="butt" fill-opacity="1" fill="#000000" stroke-opacity="1" stroke-width="1px" stroke="none" stroke-linejoin="miter" fill-rule="nonzero" stroke-dasharray="none" stroke-miterlimit="4" d="M66.161,60.818L48.647,43.303L43.303,48.647L60.818,66.161L66.161,60.818ZM28.461,50.954C16.038,50.954,5.968,40.883,5.968,28.461C5.968,16.038,16.038,5.968,28.461,5.968C40.883,5.968,50.954,16.038,50.954,28.461C50.954,40.883,40.883,50.954,28.461,50.954ZM28.461,58.511C45.057,58.511,58.511,45.057,58.511,28.461C58.511,11.865,45.057,-1.589,28.461,-1.589C11.865,-1.589,-1.589,11.865,-1.589,28.461C-1.589,45.057,11.865,58.511,28.461,58.511Z"/>
</g>
  <g id="Semibold-S" transform="matrix(1.0,0.0,0.0,1.0,2011.7106253487723,627.9306448800223)">  <path stroke-dasharray="none" fill-opacity="1" stroke-linejoin="miter" fill="#000000" stroke-linecap="butt" stroke-miterlimit="4" stroke-width="1px" stroke="none" stroke-opacity="1" fill-rule="nonzero" d="M65.787,61.192L48.272,43.678L43.678,48.272L61.192,65.787L65.787,61.192ZM28.461,51.483C15.746,51.483,5.438,41.176,5.438,28.461C5.438,15.746,15.746,5.438,28.461,5.438C41.176,5.438,51.483,15.746,51.483,28.461C51.483,41.176,41.176,51.483,28.461,51.483ZM28.461,57.981C44.764,57.981,57.981,44.764,57.981,28.461C57.981,12.157,44.764,-1.06,28.461,-1.06C12.157,-1.06,-1.06,12.157,-1.06,28.461C-1.06,44.764,12.157,57.981,28.461,57.981Z"/>
</g>
  <g id="Medium-S" transform="matrix(1.0,0.0,0.0,1.0,1715.0006253487722,627.9306448800223)">  <path stroke-dasharray="none" fill="#000000" fill-opacity="1" stroke="none" stroke-linejoin="miter" stroke-miterlimit="4" stroke-linecap="butt" stroke-width="1px" stroke-opacity="1" fill-rule="nonzero" d="M65.412,61.567L47.898,44.052L44.052,47.898L61.567,65.412L65.412,61.567ZM28.461,52.013C15.453,52.013,4.908,41.468,4.908,28.461C4.908,15.453,15.453,4.908,28.461,4.908C41.468,4.908,52.013,15.453,52.013,28.461C52.013,41.468,41.468,52.013,28.461,52.013ZM28.461,57.451C44.472,57.451,57.451,44.472,57.451,28.461C57.451,12.45,44.472,-0.53,28.461,-0.53C12.45,-0.53,-0.53,12.45,-0.53,28.461C-0.53,44.472,12.45,57.451,28.461,57.451Z"/>
</g>
  <g id="Regular-S" transform="matrix(1.0,0.0,0.0,1.0,1418.2906253487722,627.9306448800223)">  <path stroke-linejoin="miter" stroke-linecap="butt" stroke-opacity="1" stroke-dasharray="none" stroke-miterlimit="4" fill-opacity="1" stroke="none" stroke-width="1px" fill-rule="nonzero" fill="#000000" d="M65.038,61.941L47.523,44.427L44.427,47.523L61.941,65.038L65.038,61.941ZM28.461,52.543C15.161,52.543,4.379,41.761,4.379,28.461C4.379,15.161,15.161,4.379,28.461,4.379C41.761,4.379,52.543,15.161,52.543,28.461C52.543,41.761,41.761,52.543,28.461,52.543ZM28.461,56.922C44.179,56.922,56.922,44.179,56.922,28.461C56.922,12.742,44.179,0,28.461,0C12.742,0,0,12.742,0,28.461C0,44.179,12.742,56.922,28.461,56.922Z"/>
</g>
  <g id="Light-S" transform="matrix(1.0,0.0,0.0,1.0,1121.5806253487724,627.9306448800223)">  <path stroke-linecap="butt" stroke-dasharray="none" stroke-linejoin="miter" fill="#000000" stroke-opacity="1" stroke="none" fill-rule="nonzero" stroke-width="1px" fill-opacity="1" stroke-miterlimit="4" d="M64.78,62.199L47.265,44.685L44.685,47.265L62.199,64.78L64.78,62.199ZM28.461,52.908C14.959,52.908,4.014,41.963,4.014,28.461C4.014,14.959,14.959,4.014,28.461,4.014C41.963,4.014,52.908,14.959,52.908,28.461C52.908,41.963,41.963,52.908,28.461,52.908ZM28.461,56.557C43.978,56.557,56.557,43.978,56.557,28.461C56.557,12.944,43.978,0.365,28.461,0.365C12.944,0.365,0.365,12.944,0.365,28.461C0.365,43.978,12.944,56.557,28.461,56.557Z"/>
</g>
  <g id="Thin-S" transform="matrix(1.0,0.0,0.0,1.0,824.8706253487724,627.9306448800223)">  <path stroke-dasharray="none" stroke-width="1px" stroke-linejoin="miter" fill-opacity="1" stroke-opacity="1" fill="#000000" fill-rule="nonzero" stroke-linecap="butt" stroke-miterlimit="4" stroke="none" d="M64.521,62.457L47.007,44.943L44.943,47.007L62.457,64.521L64.521,62.457ZM28.461,53.273C14.758,53.273,3.649,42.164,3.649,28.461C3.649,14.758,14.758,3.649,28.461,3.649C42.164,3.649,53.273,14.758,53.273,28.461C53.273,42.164,42.164,53.273,28.461,53.273ZM28.461,56.192C43.776,56.192,56.192,43.776,56.192,28.461C56.192,13.145,43.776,0.73,28.461,0.73C13.145,0.73,0.73,13.145,0.73,28.461C0.73,43.776,13.145,56.192,28.461,56.192Z"/>
</g>
  <g id="Ultralight-S" transform="matrix(1.0,0.0,0.0,1.0,528.1606253487723,627.9306448800223)">  <path stroke="none" stroke-linejoin="miter" stroke-opacity="1" fill-opacity="1" stroke-miterlimit="4" stroke-dasharray="none" fill-rule="nonzero" stroke-width="1px" fill="#000000" stroke-linecap="butt" d="M64.263,62.715L46.749,45.201L45.201,46.749L62.715,64.263L64.263,62.715ZM28.461,53.638C14.556,53.638,3.284,42.366,3.284,28.461C3.284,14.556,14.556,3.284,28.461,3.284C42.366,3.284,53.638,14.556,53.638,28.461C53.638,42.366,42.366,53.638,28.461,53.638ZM28.461,55.827C43.575,55.827,55.827,43.575,55.827,28.461C55.827,13.347,43.575,1.095,28.461,1.095C13.347,1.095,1.095,13.347,1.095,28.461C1.095,43.575,13.347,55.827,28.461,55.827Z"/>
</g>
 </g>
</svg>
