<?xml version="1.0" encoding="UTF-8"?>
<!-- Generator: CustomSymbols v2.6.2.41 by @serious_bret https://bretlester.com/app_content/CustomSymbols/ -->
<!-- Guides: Left/Right -0.031/-0.031 Cap/Base 0.08/0.08 -->
<!-- Settings: RefScale 1.0 Min/Max Stroke Scales 0.5/2.21 -->
<!DOCTYPE svg
PUBLIC "-//W3C//DTD SVG 1.1//EN"
       "http://www.w3.org/Graphics/SVG/1.1/DTD/svg11.dtd">
<svg version="1.1" xmlns="http://www.w3.org/2000/svg" xmlns:xlink="http://www.w3.org/1999/xlink" width="3300" height="2200">
<![CDATA[<svg width="15" height="15" viewBox="0 0 15 15" fill="none" xmlns="http://www.w3.org/2000/svg">
<path d="M5 5.5H6M9 5.5H10M4.5 8C6 10 9 10 10.5 8M1.5 13.0858C1.5 13.8668 2.13317 14.5 2.91421 14.5C3.28929 14.5 3.649 14.351 3.91421 14.0858L4 14C4.32014 13.6799 4.75435 13.5 5.20711 13.5H5.29289C5.74565 13.5 6.17986 13.6799 6.5 14L6.64645 14.1464C6.87282 14.3728 7.17986 14.5 7.5 14.5C7.82014 14.5 8.12718 14.3728 8.35355 14.1464L8.5 14C8.82014 13.6799 9.25435 13.5 9.70711 13.5H9.79289C10.2456 13.5 10.6799 13.6799 11 14L11.0858 14.0858C11.351 14.351 11.7107 14.5 12.0858 14.5C12.8668 14.5 13.5 13.8668 13.5 13.0858V6.5C13.5 3.18629 10.8137 0.5 7.5 0.5C4.18629 0.5 1.5 3.18629 1.5 6.5V13.0858Z" stroke="#1D1929"/>
</svg>
]]>
 <g id="Notes">
  <rect height="2200" id="artboard" style="fill:white;opacity:1" width="3300" x="0" y="0"/>
  <line id="" style="fill:none;stroke:black;opacity:1;stroke-width:0.5;" x1="263" x2="3036" y1="292" y2="292"/>
  <text id="reftext1" style="stroke:none;fill:black;font-family:-apple-system,&quot;SF Pro Display&quot;,&quot;SF Pro Text&quot;,Helvetica,sans-serif;font-weight:bold;" transform="matrix(1 0 0 1 263 322)">Weight/Scale Variations</text>
  <text id="reftext2" style="stroke:none;fill:black;font-family:-apple-system,&quot;SF Pro Display&quot;,&quot;SF Pro Text&quot;,Helvetica,sans-serif;text-anchor:middle;" transform="matrix(1 0 0 1 559.711 322)">Ultralight</text>
  <text style="stroke:none;fill:black;font-family:-apple-system,&quot;SF Pro Display&quot;,&quot;SF Pro Text&quot;,Helvetica,sans-serif;text-anchor:middle;" transform="matrix(1 0 0 1 856.422 322)">Thin</text>
  <text style="stroke:none;fill:black;font-family:-apple-system,&quot;SF Pro Display&quot;,&quot;SF Pro Text&quot;,Helvetica,sans-serif;text-anchor:middle;" transform="matrix(1 0 0 1 1153.13 322)">Light</text>
  <text style="stroke:none;fill:black;font-family:-apple-system,&quot;SF Pro Display&quot;,&quot;SF Pro Text&quot;,Helvetica,sans-serif;text-anchor:middle;" transform="matrix(1 0 0 1 1449.84 322)">Regular</text>
  <text style="stroke:none;fill:black;font-family:-apple-system,&quot;SF Pro Display&quot;,&quot;SF Pro Text&quot;,Helvetica,sans-serif;text-anchor:middle;" transform="matrix(1 0 0 1 1746.56 322)">Medium</text>
  <text style="stroke:none;fill:black;font-family:-apple-system,&quot;SF Pro Display&quot;,&quot;SF Pro Text&quot;,Helvetica,sans-serif;text-anchor:middle;" transform="matrix(1 0 0 1 2043.27 322)">Semibold</text>
  <text style="stroke:none;fill:black;font-family:-apple-system,&quot;SF Pro Display&quot;,&quot;SF Pro Text&quot;,Helvetica,sans-serif;text-anchor:middle;" transform="matrix(1 0 0 1 2339.98 322)">Bold</text>
  <text style="stroke:none;fill:black;font-family:-apple-system,&quot;SF Pro Display&quot;,&quot;SF Pro Text&quot;,Helvetica,sans-serif;text-anchor:middle;" transform="matrix(1 0 0 1 2636.69 322)">Heavy</text>
  <text style="stroke:none;fill:black;font-family:-apple-system,&quot;SF Pro Display&quot;,&quot;SF Pro Text&quot;,Helvetica,sans-serif;text-anchor:middle;" transform="matrix(1 0 0 1 2933.4 322)">Black</text>
  <line id="" style="fill:none;stroke:black;opacity:1;stroke-width:0.5;" x1="263" x2="3036" y1="1903" y2="1903"/>
  <g id="" transform="matrix(1 0 0 1 263 1933)">
   <path d="M9.24805 0.830078C13.5547 0.830078 17.1387-2.74414 17.1387-7.05078C17.1387-11.3574 13.5449-14.9316 9.23828-14.9316C4.94141-14.9316 1.36719-11.3574 1.36719-7.05078C1.36719-2.74414 4.95117 0.830078 9.24805 0.830078ZM9.24805-0.654297C5.70312-0.654297 2.87109-3.49609 2.87109-7.05078C2.87109-10.6055 5.69336-13.4473 9.23828-13.4473C12.793-13.4473 15.6348-10.6055 15.6445-7.05078C15.6543-3.49609 12.8027-0.654297 9.24805-0.654297ZM6.39648-6.31836L8.50586-6.31836L8.50586-4.19922C8.50586-3.75977 8.79883-3.45703 9.22852-3.45703C9.67773-3.45703 9.9707-3.75977 9.9707-4.19922L9.9707-6.31836L12.0996-6.31836C12.5391-6.31836 12.8418-6.61133 12.8418-7.04102C12.8418-7.48047 12.5391-7.7832 12.0996-7.7832L9.9707-7.7832L9.9707-9.89258C9.9707-10.3418 9.67773-10.6445 9.22852-10.6445C8.79883-10.6445 8.50586-10.3418 8.50586-9.89258L8.50586-7.7832L6.39648-7.7832C5.94727-7.7832 5.64453-7.48047 5.64453-7.04102C5.64453-6.61133 5.94727-6.31836 6.39648-6.31836Z"/>
  </g>
  <g id="" transform="matrix(1 0 0 1 281.506 1933)">
   <path d="M11.709 2.91016C17.1582 2.91016 21.6699-1.61133 21.6699-7.05078C21.6699-12.5 17.1484-17.0117 11.6992-17.0117C6.25977-17.0117 1.74805-12.5 1.74805-7.05078C1.74805-1.61133 6.26953 2.91016 11.709 2.91016ZM11.709 1.25C7.09961 1.25 3.41797-2.44141 3.41797-7.05078C3.41797-11.6602 7.08984-15.3516 11.6992-15.3516C16.3086-15.3516 20-11.6602 20.0098-7.05078C20.0195-2.44141 16.3184 1.25 11.709 1.25ZM7.98828-6.23047L10.8789-6.23047L10.8789-3.32031C10.8789-2.83203 11.2109-2.5 11.6895-2.5C12.1777-2.5 12.5195-2.83203 12.5195-3.32031L12.5195-6.23047L15.4297-6.23047C15.918-6.23047 16.25-6.5625 16.25-7.04102C16.25-7.5293 15.918-7.87109 15.4297-7.87109L12.5195-7.87109L12.5195-10.7617C12.5195-11.2695 12.1777-11.6016 11.6895-11.6016C11.2109-11.6016 10.8789-11.2598 10.8789-10.7617L10.8789-7.87109L7.98828-7.87109C7.48047-7.87109 7.14844-7.5293 7.14844-7.04102C7.14844-6.5625 7.49023-6.23047 7.98828-6.23047Z"/>
  </g>
  <g id="" transform="matrix(1 0 0 1 304.924 1933)">
   <path d="M14.9707 5.66406C21.9336 5.66406 27.6953-0.0976562 27.6953-7.05078C27.6953-14.0137 21.9238-19.7754 14.9609-19.7754C8.00781-19.7754 2.25586-14.0137 2.25586-7.05078C2.25586-0.0976562 8.01758 5.66406 14.9707 5.66406ZM14.9707 3.84766C8.93555 3.84766 4.08203-1.01562 4.08203-7.05078C4.08203-13.0957 8.92578-17.9492 14.9609-17.9492C21.0059-17.9492 25.8594-13.0957 25.8691-7.05078C25.8789-1.01562 21.0156 3.84766 14.9707 3.84766ZM10.0586-6.14258L14.0625-6.14258L14.0625-2.12891C14.0625-1.5918 14.4336-1.2207 14.9512-1.2207C15.4883-1.2207 15.8594-1.5918 15.8594-2.12891L15.8594-6.14258L19.8828-6.14258C20.4102-6.14258 20.791-6.51367 20.791-7.03125C20.791-7.56836 20.4199-7.94922 19.8828-7.94922L15.8594-7.94922L15.8594-11.9531C15.8594-12.5098 15.4883-12.8809 14.9512-12.8809C14.4336-12.8809 14.0625-12.5 14.0625-11.9531L14.0625-7.94922L10.0586-7.94922C9.50195-7.94922 9.13086-7.56836 9.13086-7.03125C9.13086-6.51367 9.51172-6.14258 10.0586-6.14258Z"/>
  </g>
  <text style="stroke:none;fill:black;font-family:-apple-system,&quot;SF Pro Display&quot;,&quot;SF Pro Text&quot;,Helvetica,sans-serif;font-weight:bold;" transform="matrix(1 0 0 1 263 1953)">Design Variations</text>
  <text style="stroke:none;fill:black;font-family:-apple-system,&quot;SF Pro Display&quot;,&quot;SF Pro Text&quot;,Helvetica,sans-serif;" transform="matrix(1 0 0 1 263 1971)">Symbols are supported in up to nine weights and three scales.</text>
  <text style="stroke:none;fill:black;font-family:-apple-system,&quot;SF Pro Display&quot;,&quot;SF Pro Text&quot;,Helvetica,sans-serif;" transform="matrix(1 0 0 1 263 1989)">For optimal layout with text and other symbols, vertically align</text>
  <text style="stroke:none;fill:black;font-family:-apple-system,&quot;SF Pro Display&quot;,&quot;SF Pro Text&quot;,Helvetica,sans-serif;" transform="matrix(1 0 0 1 263 2007)">symbols with the adjacent text.</text>
  <line id="" style="fill:none;stroke:#00AEEF;stroke-width:0.5;opacity:1.0;" x1="776" x2="776" y1="1919" y2="1933"/>
  <g id="" transform="matrix(1 0 0 1 776 1933)">
   <path d="M3.31055 0.126953C3.82812 0.126953 4.08203-0.0683594 4.26758-0.605469L5.52734-4.0625L11.2891-4.0625L12.5488-0.605469C12.7344-0.0683594 12.9883 0.126953 13.4961 0.126953C14.0137 0.126953 14.3457-0.185547 14.3457-0.673828C14.3457-0.839844 14.3164-0.986328 14.2383-1.20117L9.6582-13.3887C9.43359-13.9941 9.0332-14.2871 8.4082-14.2871C7.80273-14.2871 7.39258-13.9941 7.17773-13.3984L2.59766-1.19141C2.51953-0.976562 2.49023-0.830078 2.49023-0.664062C2.49023-0.175781 2.80273 0.126953 3.31055 0.126953ZM6.00586-5.53711L8.37891-12.1094L8.42773-12.1094L10.8008-5.53711Z"/>
  </g>
  <line id="" style="fill:none;stroke:#00AEEF;stroke-width:0.5;opacity:1.0;" x1="792.836" x2="792.836" y1="1919" y2="1933"/>
  <text style="stroke:none;fill:black;font-family:-apple-system,&quot;SF Pro Display&quot;,&quot;SF Pro Text&quot;,Helvetica,sans-serif;font-weight:bold;" transform="matrix(1 0 0 1 776 1953)">Margins</text>
  <text style="stroke:none;fill:black;font-family:-apple-system,&quot;SF Pro Display&quot;,&quot;SF Pro Text&quot;,Helvetica,sans-serif;" transform="matrix(1 0 0 1 776 1971)">Leading and trailing margins on the left and right side of each symbol</text>
  <text style="stroke:none;fill:black;font-family:-apple-system,&quot;SF Pro Display&quot;,&quot;SF Pro Text&quot;,Helvetica,sans-serif;" transform="matrix(1 0 0 1 776 1989)">can be adjusted by modifying the x-location of the margin guidelines.</text>
  <text style="stroke:none;fill:black;font-family:-apple-system,&quot;SF Pro Display&quot;,&quot;SF Pro Text&quot;,Helvetica,sans-serif;" transform="matrix(1 0 0 1 776 2007)">Modifications are automatically applied proportionally to all</text>
  <text style="stroke:none;fill:black;font-family:-apple-system,&quot;SF Pro Display&quot;,&quot;SF Pro Text&quot;,Helvetica,sans-serif;" transform="matrix(1 0 0 1 776 2025)">scales and weights.</text>
  <g id="" transform="matrix(1 0 0 1 1289 1933)">
   <path d="M2.8418 1.86523L4.54102 3.57422C5.40039 4.44336 6.38672 4.38477 7.31445 3.35938L17.4902-7.85156C17.7539-7.76367 18.0273-7.7832 18.3398-7.8418L19.4043-8.03711L20.0684-7.36328L20.0293-6.80664C19.9902-6.30859 20.1172-5.92773 20.6055-5.44922L21.3672-4.70703C21.8457-4.22852 22.4609-4.19922 22.9297-4.66797L25.8398-7.58789C26.3086-8.05664 26.2891-8.65234 25.8105-9.13086L25.0391-9.89258C24.5605-10.3711 24.1895-10.5273 23.7109-10.4883L23.1348-10.4395L22.4902-11.0742L22.7344-12.1973C22.8613-12.7637 22.7051-13.2031 22.1191-13.7891L19.9219-15.9766C16.582-19.2969 12.1484-19.2188 9.25781-16.3281C8.83789-15.918 8.80859-15.3418 9.04297-14.9512C9.27734-14.5898 9.73633-14.3555 10.3809-14.5215C11.8457-14.8633 13.3691-14.9219 14.7949-13.9844L14.209-12.5293C14.0137-12.0508 13.9844-11.6504 14.1113-11.2891L3.04688-0.898438C2.06055 0.0195312 1.98242 0.996094 2.8418 1.86523ZM10.752-15.957C13.1836-17.7344 16.4746-17.4316 18.7012-15.2051L21.1328-12.793C21.3672-12.5586 21.4062-12.373 21.3379-12.0312L21.0156-10.5469L22.5195-9.0625L23.5059-9.12109C23.7598-9.13086 23.8379-9.11133 24.0332-8.91602L24.6094-8.33984L22.168-5.89844L21.5918-6.47461C21.3965-6.66992 21.3672-6.74805 21.377-7.01172L21.4453-7.98828L19.9512-9.47266L18.4277-9.21875C18.1055-9.15039 17.959-9.17969 17.7148-9.41406L15.7129-11.416C15.459-11.6504 15.4297-11.8164 15.5859-12.1875L16.4648-14.2773C14.9023-15.7324 12.8711-16.3574 10.8398-15.7617C10.6836-15.7227 10.625-15.8496 10.752-15.957ZM5.27344 2.30469L4.10156 1.14258C3.63281 0.683594 3.74023 0.341797 4.14062-0.0195312L14.9512-10.1953L16.416-8.71094L6.42578 2.27539C6.07422 2.67578 5.74219 2.77344 5.27344 2.30469Z"/>
  </g>
  <text style="stroke:none;fill:black;font-family:-apple-system,&quot;SF Pro Display&quot;,&quot;SF Pro Text&quot;,Helvetica,sans-serif;font-weight:bold;" transform="matrix(1 0 0 1 1289 1953)">Exporting</text>
  <text style="stroke:none;fill:black;font-family:-apple-system,&quot;SF Pro Display&quot;,&quot;SF Pro Text&quot;,Helvetica,sans-serif;" transform="matrix(1 0 0 1 1289 1971)">Symbols should be outlined when exporting to ensure the</text>
  <text style="stroke:none;fill:black;font-family:-apple-system,&quot;SF Pro Display&quot;,&quot;SF Pro Text&quot;,Helvetica,sans-serif;" transform="matrix(1 0 0 1 1289 1989)">design is preserved when submitting to Xcode.</text>
  <text id="template-version" style="stroke:none;fill:black;font-family:-apple-system,&quot;SF Pro Display&quot;,&quot;SF Pro Text&quot;,Helvetica,sans-serif;text-anchor:end;" transform="matrix(1 0 0 1 3036 1933)">Template v.2.0</text>
  <text style="stroke:none;fill:black;font-family:-apple-system,&quot;SF Pro Display&quot;,&quot;SF Pro Text&quot;,Helvetica,sans-serif;text-anchor:end;" transform="matrix(1 0 0 1 3036 1951)">Requires Xcode 12 or greater</text>
  <text style="stroke:none;fill:black;font-family:-apple-system,&quot;SF Pro Display&quot;,&quot;SF Pro Text&quot;,Helvetica,sans-serif;" transform="matrix(1 0 0 1 263 726)">Small</text>
  <text style="stroke:none;fill:black;font-family:-apple-system,&quot;SF Pro Display&quot;,&quot;SF Pro Text&quot;,Helvetica,sans-serif;" transform="matrix(1 0 0 1 263 1156)">Medium</text>
  <text style="stroke:none;fill:black;font-family:-apple-system,&quot;SF Pro Display&quot;,&quot;SF Pro Text&quot;,Helvetica,sans-serif;" transform="matrix(1 0 0 1 263 1586)">Large</text>
 </g>
 <g id="Guides">
  <g id="H-reference" style="fill:#27AAE1;stroke:none;" transform="matrix(1 0 0 1 339 696)">
   <path d="M0.976562 0L3.66211 0L12.9883-24.4629L45.752-24.4629L55.127 0L57.7637 0L30.6152-70.459L28.125-70.459ZM29.3457-67.1387L29.4434-67.1387L44.873-26.709L13.8672-26.709Z"/>
  </g>
  <line id="Baseline-S" style="fill:none;stroke:#27AAE1;opacity:1;stroke-width:0.5;" x1="263" x2="3036" y1="696" y2="696"/>
  <line id="Capline-S" style="fill:none;stroke:#27AAE1;opacity:1;stroke-width:0.5;" x1="263" x2="3036" y1="625.541" y2="625.541"/>
  <g id="H-reference" style="fill:#27AAE1;stroke:none;" transform="matrix(1 0 0 1 339 1126)">
   <path d="M0.976562 0L3.66211 0L12.9883-24.4629L45.752-24.4629L55.127 0L57.7637 0L30.6152-70.459L28.125-70.459ZM29.3457-67.1387L29.4434-67.1387L44.873-26.709L13.8672-26.709Z"/>
  </g>
  <line id="Baseline-M" style="fill:none;stroke:#27AAE1;opacity:1;stroke-width:0.5;" x1="263" x2="3036" y1="1126" y2="1126"/>
  <line id="Capline-M" style="fill:none;stroke:#27AAE1;opacity:1;stroke-width:0.5;" x1="263" x2="3036" y1="1055.54" y2="1055.54"/>
  <g id="H-reference" style="fill:#27AAE1;stroke:none;" transform="matrix(1 0 0 1 339 1556)">
   <path d="M0.976562 0L3.66211 0L12.9883-24.4629L45.752-24.4629L55.127 0L57.7637 0L30.6152-70.459L28.125-70.459ZM29.3457-67.1387L29.4434-67.1387L44.873-26.709L13.8672-26.709Z"/>
  </g>
  <line id="Baseline-L" style="fill:none;stroke:#27AAE1;opacity:1;stroke-width:0.5;" x1="263" x2="3036" y1="1556" y2="1556"/>
  <line id="Capline-L" style="fill:none;stroke:#27AAE1;opacity:1;stroke-width:0.5;" x1="263" x2="3036" y1="1485.54" y2="1485.54"/>
  <line id="left-margin" x1="1406.5892389787946" x2="1406.5892389787946" y1="1030.79" y2="1150.12" style="fill:none;stroke:#00AEEF;stroke-width:0.5;opacity:1.0;"/>
  <line id="right-margin" x1="1495.6707610212052" x2="1495.6707610212052" y1="1030.79" y2="1150.12" style="fill:none;stroke:#00AEEF;stroke-width:0.5;opacity:1.0;"/>
 </g>
 <g id="Symbols">
  <g id="Black-L" transform="matrix(1.0,0.0,0.0,1.0,2880.576815708705,1466.6668352399554)">  <path fill-opacity="1" stroke="none" stroke-linecap="butt" fill="#000000" stroke-width="1px" stroke-linejoin="miter" stroke-miterlimit="4" stroke-opacity="1" stroke-dasharray="none" fill-rule="nonzero" d="M36.069,47.647L43.283,47.647L43.283,31.704L36.069,31.704L36.069,47.647ZM64.924,47.647L72.138,47.647L72.138,31.704L64.924,31.704L64.924,47.647ZM26.085,62.493C40.094,81.172,68.112,81.172,82.121,62.493L69.367,52.927C61.735,63.104,46.471,63.104,38.839,52.927L26.085,62.493ZM2.849,94.398C2.849,104.434,10.986,112.571,21.022,112.571C25.842,112.571,30.464,110.656,33.873,107.248L34.492,106.629C35.306,105.815,36.411,105.357,37.563,105.357L38.182,105.357C39.333,105.357,40.438,105.815,41.253,106.629L42.31,107.686C45.437,110.813,49.679,112.571,54.103,112.571C58.527,112.571,62.769,110.813,65.897,107.685L66.952,106.63C67.768,105.815,68.873,105.357,70.025,105.357L70.644,105.357C71.795,105.357,72.901,105.815,73.715,106.629L74.334,107.248C77.742,110.656,82.364,112.571,87.184,112.571C97.22,112.571,105.357,104.434,105.357,94.398L105.357,46.889C105.357,18.583,82.41,-4.364,54.103,-4.364C25.797,-4.364,2.849,18.583,2.849,46.889L2.849,94.398ZM18.792,94.398L18.792,46.889C18.792,27.387,34.601,11.578,54.103,11.578C73.605,11.578,89.415,27.388,89.415,46.889L89.415,94.398C89.415,95.629,88.416,96.628,87.184,96.628C86.592,96.628,86.025,96.393,85.607,95.975L84.988,95.356C81.184,91.552,76.023,89.415,70.644,89.415L70.025,89.415C64.645,89.415,59.485,91.552,55.681,95.356L54.625,96.411C54.486,96.551,54.298,96.628,54.103,96.628C53.908,96.628,53.721,96.551,53.583,96.413L52.525,95.355C48.721,91.552,43.562,89.415,38.182,89.415L37.563,89.415C32.183,89.415,27.023,91.552,23.219,95.356L22.599,95.975C22.181,96.393,21.614,96.628,21.022,96.628C19.791,96.628,18.792,95.629,18.792,94.398Z"/>
</g>
  <g id="Heavy-L" transform="matrix(1.0,0.0,0.0,1.0,2583.866815708705,1466.6668352399554)">  <path stroke-miterlimit="4" stroke-width="1px" stroke-linejoin="miter" stroke-dasharray="none" stroke-linecap="butt" stroke-opacity="1" stroke="none" fill-rule="nonzero" fill-opacity="1" fill="#000000" d="M36.069,46.774L43.283,46.774L43.283,32.577L36.069,32.577L36.069,46.774ZM64.924,46.774L72.138,46.774L72.138,32.577L64.924,32.577L64.924,46.774ZM26.783,61.969C40.443,80.182,67.763,80.182,81.423,61.969L70.066,53.451C62.084,64.093,46.122,64.093,38.141,53.451L26.783,61.969ZM3.722,94.398C3.722,103.952,11.468,111.698,21.022,111.698C25.611,111.698,30.011,109.875,33.255,106.631L33.875,106.012C34.853,105.034,36.18,104.484,37.563,104.484L38.182,104.484C39.565,104.484,40.892,105.034,41.87,106.012L42.927,107.069C45.89,110.032,49.911,111.698,54.103,111.698C58.295,111.698,62.316,110.032,65.28,107.068L66.335,106.013C67.314,105.034,68.642,104.484,70.025,104.484L70.644,104.484C72.027,104.484,73.354,105.034,74.332,106.012L74.951,106.631C78.195,109.875,82.596,111.698,87.184,111.698C96.738,111.698,104.484,103.952,104.484,94.398L104.484,46.889C104.484,19.065,81.928,-3.491,54.103,-3.491C26.279,-3.491,3.722,19.065,3.722,46.889L3.722,94.398ZM17.919,94.398L17.919,46.889C17.919,26.905,34.119,10.705,54.103,10.705C74.087,10.705,90.287,26.905,90.287,46.889L90.287,94.398C90.287,96.111,88.898,97.501,87.184,97.501C86.361,97.501,85.572,97.174,84.99,96.592L84.371,95.973C80.73,92.333,75.792,90.287,70.644,90.287L70.025,90.287C64.876,90.287,59.939,92.333,56.298,95.973L55.242,97.029C54.939,97.332,54.53,97.501,54.103,97.501C53.677,97.501,53.267,97.332,52.965,97.03L51.908,95.972C48.268,92.333,43.33,90.287,38.182,90.287L37.563,90.287C32.414,90.287,27.477,92.333,23.836,95.973L23.217,96.593C22.635,97.174,21.846,97.501,21.022,97.501C19.309,97.501,17.919,96.112,17.919,94.398Z"/>
</g>
  <g id="Bold-L" transform="matrix(1.0,0.0,0.0,1.0,2287.156815708705,1466.6668352399554)">  <path stroke-opacity="1" fill-opacity="1" stroke-width="1px" stroke="none" fill-rule="nonzero" stroke-miterlimit="4" stroke-linejoin="miter" fill="#000000" stroke-dasharray="none" stroke-linecap="butt" d="M36.069,45.901L43.283,45.901L43.283,33.45L36.069,33.45L36.069,45.901ZM64.924,45.901L72.138,45.901L72.138,33.45L64.924,33.45L64.924,45.901ZM27.482,61.445C40.792,79.193,67.414,79.193,80.725,61.445L70.764,53.975C62.434,65.082,45.773,65.082,37.442,53.975L27.482,61.445ZM4.595,94.398C4.595,103.47,11.95,110.825,21.022,110.825C25.379,110.825,29.557,109.094,32.638,106.014L33.257,105.394C34.399,104.253,35.948,103.611,37.563,103.611L38.182,103.611C39.796,103.611,41.345,104.253,42.488,105.395L43.545,106.452C46.344,109.251,50.143,110.825,54.103,110.825C58.064,110.825,61.862,109.251,64.663,106.45L65.718,105.395C66.861,104.253,68.41,103.611,70.025,103.611L70.644,103.611C72.258,103.611,73.808,104.253,74.949,105.395L75.568,106.014C78.649,109.094,82.827,110.825,87.184,110.825C96.256,110.825,103.611,103.47,103.611,94.398L103.611,46.889C103.611,19.547,81.446,-2.619,54.103,-2.619C26.761,-2.619,4.595,19.547,4.595,46.889L4.595,94.398ZM17.046,94.398L17.046,46.889C17.046,26.423,33.637,9.832,54.103,9.832C74.569,9.832,91.16,26.423,91.16,46.889L91.16,94.398C91.16,96.594,89.38,98.374,87.184,98.374C86.129,98.374,85.118,97.955,84.372,97.209L83.753,96.591C80.277,93.114,75.56,91.16,70.644,91.16L70.025,91.16C65.108,91.16,60.392,93.114,56.915,96.59L55.859,97.646C55.393,98.112,54.761,98.374,54.103,98.374C53.445,98.374,52.814,98.112,52.348,97.647L51.291,96.59C47.814,93.114,43.099,91.16,38.182,91.16L37.563,91.16C32.646,91.16,27.93,93.114,24.453,96.59L23.834,97.21C23.088,97.955,22.077,98.374,21.022,98.374C18.827,98.374,17.046,96.594,17.046,94.398Z"/>
</g>
  <g id="Semibold-L" transform="matrix(1.0,0.0,0.0,1.0,1990.4468157087053,1466.6668352399554)">  <path stroke-width="1px" stroke-dasharray="none" stroke-linecap="butt" stroke="none" stroke-miterlimit="4" stroke-linejoin="miter" fill="#000000" fill-rule="nonzero" stroke-opacity="1" fill-opacity="1" d="M36.069,45.028L43.283,45.028L43.283,34.323L36.069,34.323L36.069,45.028ZM64.924,45.028L72.138,45.028L72.138,34.323L64.924,34.323L64.924,45.028ZM28.18,60.922C41.142,78.204,67.065,78.204,80.027,60.922L71.462,54.498C62.783,66.071,45.424,66.071,36.744,54.498L28.18,60.922ZM5.468,94.398C5.468,102.988,12.432,109.952,21.022,109.952C25.148,109.952,29.104,108.313,32.021,105.396L32.64,104.777C33.946,103.472,35.717,102.738,37.563,102.738L38.182,102.738C40.028,102.738,41.799,103.472,43.105,104.778L44.162,105.834C46.798,108.47,50.374,109.952,54.103,109.952C57.832,109.952,61.409,108.47,64.046,105.833L65.101,104.778C66.407,103.472,68.179,102.738,70.025,102.738L70.644,102.738C72.49,102.738,74.261,103.472,75.566,104.777L76.185,105.396C79.102,108.313,83.059,109.952,87.184,109.952C95.774,109.952,102.738,102.988,102.738,94.398L102.738,46.889C102.738,20.029,80.964,-1.746,54.103,-1.746C27.243,-1.746,5.468,20.029,5.468,46.889L5.468,94.398ZM16.173,94.398L16.173,46.889C16.173,25.941,33.155,8.959,54.103,8.959C75.051,8.959,92.033,25.941,92.033,46.889L92.033,94.398C92.033,97.076,89.862,99.247,87.184,99.247C85.898,99.247,84.664,98.736,83.755,97.827L83.136,97.208C79.823,93.895,75.329,92.033,70.644,92.033L70.025,92.033C65.339,92.033,60.846,93.895,57.532,97.208L56.476,98.263C55.846,98.893,54.993,99.247,54.103,99.247C53.214,99.247,52.36,98.893,51.731,98.264L50.674,97.207C47.361,93.895,42.867,92.033,38.182,92.033L37.563,92.033C32.877,92.033,28.384,93.895,25.07,97.208L24.451,97.827C23.542,98.736,22.309,99.247,21.022,99.247C18.344,99.247,16.173,97.076,16.173,94.398Z"/>
</g>
  <g id="Medium-L" transform="matrix(1.0,0.0,0.0,1.0,1693.7368157087053,1466.6668352399554)">  <path stroke-linejoin="miter" stroke-miterlimit="4" fill-rule="nonzero" fill="#000000" stroke="none" stroke-linecap="butt" stroke-width="1px" fill-opacity="1" stroke-dasharray="none" stroke-opacity="1" d="M36.069,44.155L43.283,44.155L43.283,35.196L36.069,35.196L36.069,44.155ZM64.924,44.155L72.138,44.155L72.138,35.196L64.924,35.196L64.924,44.155ZM28.878,60.398C41.491,77.215,66.716,77.215,79.328,60.398L72.161,55.022C63.132,67.061,45.074,67.061,36.046,55.022L28.878,60.398ZM6.341,94.398C6.341,102.506,12.914,109.079,21.022,109.079C24.916,109.079,28.65,107.532,31.404,104.779L32.023,104.16C33.492,102.691,35.485,101.865,37.563,101.865L38.182,101.865C40.259,101.865,42.252,102.691,43.722,104.16L44.779,105.217C47.251,107.69,50.606,109.079,54.103,109.079C57.601,109.079,60.955,107.69,63.428,105.216L64.484,104.161C65.954,102.691,67.947,101.865,70.025,101.865L70.644,101.865C72.721,101.865,74.715,102.691,76.184,104.16L76.803,104.779C79.556,107.532,83.29,109.079,87.184,109.079C95.292,109.079,101.865,102.506,101.865,94.398L101.865,46.889C101.865,20.511,80.482,-0.873,54.103,-0.873C27.725,-0.873,6.341,20.511,6.341,46.889L6.341,94.398ZM15.3,94.398L15.3,46.889C15.3,25.459,32.673,8.087,54.103,8.087C75.533,8.087,92.906,25.459,92.906,46.889L92.906,94.398C92.906,97.558,90.344,100.12,87.184,100.12C85.666,100.12,84.211,99.517,83.138,98.444L82.519,97.825C79.37,94.676,75.097,92.906,70.644,92.906L70.025,92.906C65.571,92.906,61.299,94.675,58.149,97.825L57.093,98.881C56.3,99.674,55.224,100.12,54.103,100.12C52.982,100.12,51.907,99.674,51.114,98.881L50.057,97.824C46.907,94.675,42.636,92.906,38.182,92.906L37.563,92.906C33.109,92.906,28.837,94.675,25.688,97.825L25.068,98.444C23.995,99.517,22.54,100.12,21.022,100.12C17.862,100.12,15.3,97.558,15.3,94.398Z"/>
</g>
  <g id="Regular-L" transform="matrix(1.0,0.0,0.0,1.0,1397.0268157087053,1466.6668352399554)">  <path stroke-dasharray="none" stroke-miterlimit="4" stroke-linecap="butt" stroke-opacity="1" fill-opacity="1" stroke-width="1px" fill="#000000" stroke-linejoin="miter" stroke="none" fill-rule="nonzero" d="M36.069,43.283L43.283,43.283L43.283,36.069L36.069,36.069L36.069,43.283ZM64.924,43.283L72.138,43.283L72.138,36.069L64.924,36.069L64.924,43.283ZM29.576,59.874C41.84,76.225,66.367,76.225,78.63,59.874L72.859,55.546C63.481,68.05,44.725,68.05,35.347,55.546L29.576,59.874ZM7.214,94.398C7.214,102.024,13.396,108.206,21.022,108.206C24.685,108.206,28.197,106.752,30.787,104.162L31.406,103.543C33.039,101.91,35.254,100.993,37.563,100.993L38.182,100.993C40.491,100.993,42.706,101.91,44.339,103.543L45.396,104.6C47.705,106.909,50.837,108.206,54.103,108.206C57.369,108.206,60.502,106.909,62.811,104.599L63.867,103.543C65.5,101.91,67.716,100.993,70.025,100.993L70.644,100.993C72.953,100.993,75.168,101.91,76.801,103.543L77.42,104.162C80.009,106.752,83.522,108.206,87.184,108.206C94.81,108.206,100.993,102.024,100.993,94.398L100.993,46.889C100.993,20.993,79.999,0,54.103,0C28.207,0,7.214,20.993,7.214,46.889L7.214,94.398ZM14.428,94.398L14.428,46.889C14.428,24.977,32.191,7.214,54.103,7.214C76.015,7.214,93.779,24.977,93.779,46.889L93.779,94.398C93.779,98.04,90.826,100.993,87.184,100.993C85.435,100.993,83.757,100.298,82.521,99.061L81.902,98.442C78.916,95.457,74.866,93.779,70.644,93.779L70.025,93.779C65.802,93.779,61.753,95.456,58.767,98.442L57.71,99.498C56.753,100.455,55.456,100.993,54.103,100.993C52.75,100.993,51.453,100.455,50.496,99.498L49.439,98.442C46.454,95.456,42.404,93.779,38.182,93.779L37.563,93.779C33.34,93.779,29.291,95.456,26.305,98.442L25.686,99.061C24.449,100.298,22.772,100.993,21.022,100.993C17.38,100.993,14.428,98.04,14.428,94.398Z"/>
</g>
  <g id="Light-L" transform="matrix(1.0,0.0,0.0,1.0,1100.3168157087055,1466.6668352399554)">  <path stroke-linecap="butt" stroke-miterlimit="4" fill="#000000" stroke-dasharray="none" fill-opacity="1" stroke-width="1px" stroke="none" stroke-opacity="1" stroke-linejoin="miter" fill-rule="nonzero" d="M36.069,42.681L43.283,42.681L43.283,36.67L36.069,36.67L36.069,42.681ZM64.924,42.681L72.138,42.681L72.138,36.67L64.924,36.67L64.924,42.681ZM30.057,59.514C42.08,75.544,66.126,75.544,78.149,59.514L73.34,55.907C63.722,68.731,44.485,68.731,34.866,55.907L30.057,59.514ZM7.815,94.398C7.815,101.692,13.728,107.605,21.022,107.605C24.525,107.605,27.885,106.214,30.361,103.737L30.981,103.118C32.726,101.372,35.094,100.391,37.563,100.391L38.182,100.391C40.65,100.391,43.018,101.372,44.764,103.118L45.821,104.174C48.017,106.371,50.997,107.605,54.103,107.605C57.21,107.605,60.189,106.371,62.386,104.174L63.442,103.118C65.188,101.372,67.556,100.391,70.025,100.391L70.644,100.391C73.112,100.391,75.48,101.373,77.226,103.118L77.845,103.737C80.322,106.214,83.681,107.605,87.184,107.605C94.478,107.605,100.391,101.692,100.391,94.398L100.391,46.889C100.391,21.325,79.667,0.601,54.103,0.601C28.539,0.601,7.815,21.325,7.815,46.889L7.815,94.398ZM13.826,94.398L13.826,46.889C13.826,24.645,31.859,6.613,54.103,6.613C76.347,6.613,94.38,24.645,94.38,46.889L94.38,94.398C94.38,98.372,91.158,101.594,87.184,101.594C85.275,101.594,83.445,100.836,82.096,99.486L81.477,98.867C78.604,95.994,74.706,94.38,70.644,94.38L70.025,94.38C65.962,94.38,62.065,95.994,59.192,98.867L58.135,99.923C57.066,100.993,55.615,101.594,54.103,101.594C52.591,101.594,51.141,100.993,50.071,99.923L49.014,98.867C46.141,95.994,42.245,94.38,38.182,94.38L37.563,94.38C33.5,94.38,29.603,95.994,26.73,98.867L26.111,99.486C24.761,100.836,22.931,101.594,21.022,101.594C17.048,101.594,13.826,98.372,13.826,94.398Z"/>
</g>
  <g id="Thin-L" transform="matrix(1.0,0.0,0.0,1.0,803.6068157087054,1466.6668352399554)">  <path stroke-opacity="1" stroke-linejoin="miter" stroke-miterlimit="4" stroke-linecap="butt" fill="#000000" stroke-dasharray="none" fill-rule="nonzero" stroke-width="1px" stroke="none" fill-opacity="1" d="M36.069,42.08L43.283,42.08L43.283,37.271L36.069,37.271L36.069,42.08ZM64.924,42.08L72.138,42.08L72.138,37.271L64.924,37.271L64.924,42.08ZM30.538,59.153C42.321,74.863,65.886,74.863,77.668,59.153L73.821,56.267C63.962,69.412,44.244,69.412,34.386,56.267L30.538,59.153ZM8.416,94.398C8.416,101.36,14.06,107.004,21.022,107.004C24.366,107.004,27.572,105.676,29.936,103.312L30.555,102.693C32.414,100.835,34.935,99.79,37.563,99.79L38.182,99.79C40.81,99.79,43.331,100.835,45.189,102.693L46.246,103.749C48.329,105.833,51.156,107.004,54.103,107.004C57.05,107.004,59.877,105.833,61.961,103.749L63.017,102.693C64.876,100.835,67.397,99.79,70.025,99.79L70.644,99.79C73.271,99.79,75.793,100.835,77.651,102.693L78.27,103.312C80.634,105.676,83.841,107.004,87.184,107.004C94.146,107.004,99.79,101.36,99.79,94.398L99.79,46.889C99.79,21.657,79.335,1.202,54.103,1.202C28.871,1.202,8.416,21.657,8.416,46.889L8.416,94.398ZM13.225,94.398L13.225,46.889C13.225,24.313,31.527,6.011,54.103,6.011C76.679,6.011,94.981,24.313,94.981,46.889L94.981,94.398C94.981,98.704,91.49,102.195,87.184,102.195C85.116,102.195,83.133,101.373,81.671,99.911L81.052,99.292C78.292,96.532,74.547,94.981,70.644,94.981L70.025,94.981C66.121,94.981,62.377,96.532,59.617,99.292L58.56,100.348C57.378,101.531,55.775,102.195,54.103,102.195C52.432,102.195,50.828,101.531,49.646,100.349L48.589,99.292C45.829,96.532,42.085,94.981,38.182,94.981L37.563,94.981C33.659,94.981,29.915,96.532,27.155,99.292L26.536,99.911C25.074,101.373,23.09,102.195,21.022,102.195C16.716,102.195,13.225,98.704,13.225,94.398Z"/>
</g>
  <g id="Ultralight-L" transform="matrix(1.0,0.0,0.0,1.0,506.89681570870533,1466.6668352399554)">  <path stroke-width="1px" stroke-linecap="butt" stroke-miterlimit="4" stroke-linejoin="miter" stroke-dasharray="none" fill="#000000" fill-rule="nonzero" fill-opacity="1" stroke-opacity="1" stroke="none" d="M36.069,41.479L43.283,41.479L43.283,37.872L36.069,37.872L36.069,41.479ZM64.924,41.479L72.138,41.479L72.138,37.872L64.924,37.872L64.924,41.479ZM31.019,58.792C42.561,74.181,65.645,74.181,77.187,58.792L74.302,56.628C64.202,70.094,44.004,70.094,33.905,56.628L31.019,58.792ZM9.017,94.398C9.017,101.028,14.392,106.403,21.022,106.403C24.206,106.403,27.26,105.138,29.511,102.887L30.13,102.268C32.102,100.297,34.775,99.189,37.563,99.189L38.182,99.189C40.969,99.189,43.643,100.297,45.614,102.268L46.671,103.324C48.642,105.295,51.315,106.403,54.103,106.403C56.891,106.403,59.565,105.295,61.536,103.324L62.592,102.268C64.564,100.297,67.237,99.189,70.025,99.189L70.644,99.189C73.431,99.189,76.105,100.297,78.076,102.268L78.695,102.887C80.946,105.138,84,106.403,87.184,106.403C93.814,106.403,99.189,101.028,99.189,94.398L99.189,46.889C99.189,21.989,79.003,1.803,54.103,1.803C29.203,1.803,9.017,21.989,9.017,46.889L9.017,94.398ZM12.624,94.398L12.624,46.889C12.624,23.981,31.195,5.41,54.103,5.41C77.011,5.41,95.582,23.981,95.582,46.889L95.582,94.398C95.582,99.036,91.822,102.796,87.184,102.796C84.957,102.796,82.82,101.911,81.246,100.336L80.627,99.717C77.979,97.07,74.388,95.582,70.644,95.582L70.025,95.582C66.281,95.582,62.69,97.07,60.042,99.717L58.985,100.773C57.69,102.069,55.934,102.796,54.103,102.796C52.272,102.796,50.516,102.069,49.221,100.774L48.164,99.717C45.517,97.07,41.926,95.582,38.182,95.582L37.563,95.582C33.819,95.582,30.228,97.07,27.58,99.717L26.961,100.336C25.386,101.911,23.25,102.796,21.022,102.796C16.384,102.796,12.624,99.036,12.624,94.398Z"/>
</g>
  <g id="Black-M" transform="matrix(1.0,0.0,0.0,1.0,2892.7395470610118,1048.829566592262)">  <path fill-opacity="1" stroke="none" stroke-linecap="butt" fill="#000000" stroke-width="1px" stroke-linejoin="miter" stroke-miterlimit="4" stroke-opacity="1" stroke-dasharray="none" fill-rule="nonzero" d="M27.96,36.936L33.552,36.936L33.552,24.577L27.96,24.577L27.96,36.936ZM50.329,36.936L55.921,36.936L55.921,24.577L50.329,24.577L50.329,36.936ZM20.221,48.444C31.081,62.924,52.8,62.924,63.66,48.444L53.773,41.029C47.857,48.917,36.024,48.917,30.108,41.029L20.221,48.444ZM2.209,73.177C2.209,80.957,8.516,87.264,16.296,87.264C20.033,87.264,23.616,85.78,26.258,83.138L26.738,82.658C27.369,82.027,28.226,81.672,29.118,81.672L29.598,81.672C30.491,81.672,31.348,82.027,31.979,82.658L32.799,83.478C35.222,85.902,38.511,87.264,41.94,87.264C45.37,87.264,48.659,85.902,51.083,83.477L51.901,82.659C52.533,82.027,53.39,81.672,54.283,81.672L54.762,81.672C55.655,81.672,56.512,82.027,57.143,82.658L57.623,83.138C60.265,85.78,63.848,87.264,67.585,87.264C75.365,87.264,81.672,80.957,81.672,73.177L81.672,36.348C81.672,14.405,63.884,-3.383,41.94,-3.383C19.997,-3.383,2.209,14.405,2.209,36.348L2.209,73.177ZM14.567,73.177L14.567,36.348C14.567,21.231,26.823,8.975,41.94,8.975C57.058,8.975,69.314,21.231,69.314,36.348L69.314,73.177C69.314,74.131,68.539,74.906,67.585,74.906C67.126,74.906,66.686,74.723,66.362,74.399L65.882,73.919C62.933,70.971,58.933,69.314,54.762,69.314L54.283,69.314C50.112,69.314,46.113,70.97,43.163,73.919L42.345,74.737C42.237,74.846,42.092,74.906,41.94,74.906C41.789,74.906,41.644,74.846,41.537,74.738L40.717,73.919C37.768,70.97,33.769,69.314,29.598,69.314L29.118,69.314C24.948,69.314,20.948,70.97,17.999,73.919L17.519,74.4C17.195,74.723,16.755,74.906,16.296,74.906C15.342,74.906,14.567,74.131,14.567,73.177Z"/>
</g>
  <g id="Heavy-M" transform="matrix(1.0,0.0,0.0,1.0,2596.0295470610117,1048.829566592262)">  <path stroke-miterlimit="4" stroke-width="1px" stroke-linejoin="miter" stroke-dasharray="none" stroke-linecap="butt" stroke-opacity="1" stroke="none" fill-rule="nonzero" fill-opacity="1" fill="#000000" d="M27.96,36.259L33.552,36.259L33.552,25.254L27.96,25.254L27.96,36.259ZM50.329,36.259L55.921,36.259L55.921,25.254L50.329,25.254L50.329,36.259ZM20.762,48.038C31.351,62.157,52.53,62.157,63.119,48.038L54.315,41.435C48.128,49.684,35.753,49.684,29.566,41.435L20.762,48.038ZM2.886,73.177C2.886,80.583,8.89,86.587,16.296,86.587C19.853,86.587,23.264,85.175,25.779,82.66L26.259,82.18C27.017,81.422,28.046,80.995,29.118,80.995L29.598,80.995C30.67,80.995,31.699,81.422,32.458,82.18L33.277,82.999C35.574,85.296,38.691,86.587,41.94,86.587C45.19,86.587,48.307,85.296,50.605,82.998L51.423,82.18C52.182,81.422,53.21,80.995,54.283,80.995L54.762,80.995C55.835,80.995,56.864,81.422,57.622,82.18L58.102,82.66C60.617,85.175,64.028,86.587,67.585,86.587C74.991,86.587,80.995,80.583,80.995,73.177L80.995,36.348C80.995,14.779,63.51,-2.707,41.94,-2.707C20.371,-2.707,2.886,14.779,2.886,36.348L2.886,73.177ZM13.891,73.177L13.891,36.348C13.891,20.857,26.449,8.299,41.94,8.299C57.432,8.299,69.99,20.857,69.99,36.348L69.99,73.177C69.99,74.505,68.913,75.582,67.585,75.582C66.946,75.582,66.334,75.329,65.883,74.878L65.404,74.398C62.582,71.576,58.753,69.99,54.762,69.99L54.283,69.99C50.292,69.99,46.464,71.576,43.642,74.398L42.823,75.216C42.588,75.451,42.271,75.582,41.94,75.582C41.61,75.582,41.292,75.451,41.059,75.217L40.239,74.397C37.417,71.576,33.589,69.99,29.598,69.99L29.118,69.99C25.127,69.99,21.3,71.576,18.478,74.398L17.997,74.878C17.546,75.329,16.935,75.582,16.296,75.582C14.968,75.582,13.891,74.505,13.891,73.177Z"/>
</g>
  <g id="Bold-M" transform="matrix(1.0,0.0,0.0,1.0,2299.3195470610117,1048.829566592262)">  <path stroke-opacity="1" fill-opacity="1" stroke-width="1px" stroke="none" fill-rule="nonzero" stroke-miterlimit="4" stroke-linejoin="miter" fill="#000000" stroke-dasharray="none" stroke-linecap="butt" d="M27.96,35.582L33.552,35.582L33.552,25.93L27.96,25.93L27.96,35.582ZM50.329,35.582L55.921,35.582L55.921,25.93L50.329,25.93L50.329,35.582ZM21.304,47.632C31.622,61.39,52.259,61.39,62.577,47.632L54.856,41.841C48.398,50.451,35.483,50.451,29.025,41.841L21.304,47.632ZM3.562,73.177C3.562,80.209,9.264,85.911,16.296,85.911C19.674,85.911,22.913,84.569,25.301,82.181L25.781,81.701C26.666,80.816,27.867,80.319,29.118,80.319L29.598,80.319C30.85,80.319,32.051,80.816,32.936,81.702L33.755,82.521C35.926,84.691,38.87,85.911,41.94,85.911C45.011,85.911,47.955,84.691,50.126,82.52L50.944,81.702C51.83,80.816,53.031,80.319,54.283,80.319L54.762,80.319C56.014,80.319,57.215,80.816,58.1,81.701L58.58,82.181C60.968,84.569,64.207,85.911,67.585,85.911C74.617,85.911,80.319,80.209,80.319,73.177L80.319,36.348C80.319,15.153,63.136,-2.03,41.94,-2.03C20.745,-2.03,3.562,15.153,3.562,36.348L3.562,73.177ZM13.214,73.177L13.214,36.348C13.214,20.483,26.075,7.622,41.94,7.622C57.806,7.622,70.667,20.483,70.667,36.348L70.667,73.177C70.667,74.879,69.287,76.259,67.585,76.259C66.767,76.259,65.983,75.934,65.405,75.356L64.925,74.876C62.23,72.181,58.574,70.667,54.762,70.667L54.283,70.667C50.471,70.667,46.816,72.181,44.12,74.876L43.302,75.694C42.94,76.056,42.451,76.259,41.94,76.259C41.43,76.259,40.941,76.056,40.58,75.695L39.76,74.876C37.065,72.181,33.41,70.667,29.598,70.667L29.118,70.667C25.307,70.667,21.651,72.181,18.956,74.876L18.476,75.356C17.898,75.934,17.114,76.259,16.296,76.259C14.594,76.259,13.214,74.879,13.214,73.177Z"/>
</g>
  <g id="Semibold-M" transform="matrix(1.0,0.0,0.0,1.0,2002.6095470610119,1048.829566592262)">  <path stroke-width="1px" stroke-dasharray="none" stroke-linecap="butt" stroke="none" stroke-miterlimit="4" stroke-linejoin="miter" fill="#000000" fill-rule="nonzero" stroke-opacity="1" fill-opacity="1" d="M27.96,34.906L33.552,34.906L33.552,26.607L27.96,26.607L27.96,34.906ZM50.329,34.906L55.921,34.906L55.921,26.607L50.329,26.607L50.329,34.906ZM21.845,47.226C31.893,60.623,51.988,60.623,62.036,47.226L55.397,42.247C48.669,51.218,35.212,51.218,28.484,42.247L21.845,47.226ZM4.239,73.177C4.239,79.836,9.637,85.234,16.296,85.234C19.494,85.234,22.561,83.964,24.822,81.703L25.302,81.223C26.314,80.211,27.687,79.642,29.118,79.642L29.598,79.642C31.029,79.642,32.402,80.211,33.415,81.223L34.234,82.042C36.277,84.086,39.05,85.234,41.94,85.234C44.831,85.234,47.604,84.086,49.648,82.041L50.466,81.223C51.479,80.211,52.852,79.642,54.283,79.642L54.762,79.642C56.194,79.642,57.567,80.211,58.579,81.223L59.058,81.703C61.32,83.964,64.387,85.234,67.585,85.234C74.244,85.234,79.642,79.836,79.642,73.177L79.642,36.348C79.642,15.526,62.762,-1.353,41.94,-1.353C21.118,-1.353,4.239,15.526,4.239,36.348L4.239,73.177ZM12.537,73.177L12.537,36.348C12.537,20.11,25.702,6.945,41.94,6.945C58.179,6.945,71.344,20.11,71.344,36.348L71.344,73.177C71.344,75.252,69.66,76.936,67.585,76.936C66.587,76.936,65.631,76.54,64.926,75.835L64.447,75.355C61.878,72.787,58.394,71.344,54.762,71.344L54.283,71.344C50.651,71.344,47.167,72.787,44.599,75.355L43.78,76.173C43.292,76.662,42.63,76.936,41.94,76.936C41.251,76.936,40.589,76.662,40.102,76.174L39.282,75.354C36.714,72.787,33.23,71.344,29.598,71.344L29.118,71.344C25.486,71.344,22.003,72.787,19.434,75.355L18.954,75.835C18.25,76.54,17.293,76.936,16.296,76.936C14.22,76.936,12.537,75.252,12.537,73.177Z"/>
</g>
  <g id="Medium-M" transform="matrix(1.0,0.0,0.0,1.0,1705.8995470610118,1048.829566592262)">  <path stroke-linejoin="miter" stroke-miterlimit="4" fill-rule="nonzero" fill="#000000" stroke="none" stroke-linecap="butt" stroke-width="1px" fill-opacity="1" stroke-dasharray="none" stroke-opacity="1" d="M27.96,34.229L33.552,34.229L33.552,27.284L27.96,27.284L27.96,34.229ZM50.329,34.229L55.921,34.229L55.921,27.284L50.329,27.284L50.329,34.229ZM22.386,46.82C32.163,59.856,51.718,59.856,61.495,46.82L55.938,42.653C48.939,51.985,34.941,51.985,27.942,42.653L22.386,46.82ZM4.915,73.177C4.915,79.462,10.011,84.558,16.296,84.558C19.315,84.558,22.21,83.359,24.344,81.224L24.824,80.744C25.963,79.605,27.508,78.965,29.118,78.965L29.598,78.965C31.209,78.965,32.754,79.605,33.893,80.745L34.712,81.563C36.629,83.48,39.229,84.558,41.94,84.558C44.652,84.558,47.252,83.48,49.169,81.563L49.988,80.745C51.127,79.605,52.672,78.965,54.283,78.965L54.762,78.965C56.373,78.965,57.918,79.606,59.057,80.744L59.537,81.224C61.671,83.359,64.566,84.558,67.585,84.558C73.87,84.558,78.965,79.462,78.965,73.177L78.965,36.348C78.965,15.9,62.389,-0.677,41.94,-0.677C21.492,-0.677,4.915,15.9,4.915,36.348L4.915,73.177ZM11.861,73.177L11.861,36.348C11.861,19.736,25.328,6.269,41.94,6.269C58.553,6.269,72.02,19.736,72.02,36.348L72.02,73.177C72.02,75.626,70.034,77.612,67.585,77.612C66.408,77.612,65.28,77.145,64.448,76.313L63.968,75.833C61.527,73.392,58.215,72.02,54.762,72.02L54.283,72.02C50.83,72.02,47.519,73.392,45.077,75.833L44.258,76.652C43.643,77.267,42.81,77.612,41.94,77.612C41.071,77.612,40.238,77.267,39.623,76.652L38.804,75.833C36.362,73.392,33.051,72.02,29.598,72.02L29.118,72.02C25.666,72.02,22.354,73.392,19.913,75.833L19.433,76.313C18.601,77.145,17.473,77.612,16.296,77.612C13.847,77.612,11.861,75.626,11.861,73.177Z"/>
</g>
  <g id="Regular-M" transform="matrix(1.0,0.0,0.0,1.0,1409.1895470610118,1048.829566592262)">  <path stroke-dasharray="none" stroke-miterlimit="4" stroke-linecap="butt" stroke-opacity="1" fill-opacity="1" stroke-width="1px" fill="#000000" stroke-linejoin="miter" stroke="none" fill-rule="nonzero" d="M27.96,33.552L33.552,33.552L33.552,27.96L27.96,27.96L27.96,33.552ZM50.329,33.552L55.921,33.552L55.921,27.96L50.329,27.96L50.329,33.552ZM22.927,46.414C32.434,59.089,51.447,59.089,60.953,46.414L56.48,43.059C49.21,52.752,34.671,52.752,27.401,43.059L22.927,46.414ZM5.592,73.177C5.592,79.088,10.385,83.881,16.296,83.881C19.135,83.881,21.858,82.753,23.866,80.746L24.345,80.266C25.611,79,27.328,78.289,29.118,78.289L29.598,78.289C31.388,78.289,33.105,79,34.371,80.266L35.191,81.085C36.98,82.875,39.409,83.881,41.94,83.881C44.472,83.881,46.901,82.875,48.691,81.084L49.509,80.266C50.776,79,52.493,78.289,54.283,78.289L54.762,78.289C56.552,78.289,58.27,79,59.536,80.266L60.015,80.746C62.023,82.753,64.745,83.881,67.585,83.881C73.496,83.881,78.289,79.088,78.289,73.177L78.289,36.348C78.289,16.274,62.015,0,41.94,0C21.866,0,5.592,16.274,5.592,36.348L5.592,73.177ZM11.184,73.177L11.184,36.348C11.184,19.362,24.954,5.592,41.94,5.592C58.927,5.592,72.697,19.362,72.697,36.348L72.697,73.177C72.697,76,70.408,78.289,67.585,78.289C66.229,78.289,64.928,77.75,63.97,76.792L63.49,76.312C61.175,73.997,58.036,72.697,54.762,72.697L54.283,72.697C51.01,72.697,47.87,73.997,45.556,76.312L44.737,77.13C43.995,77.872,42.989,78.289,41.94,78.289C40.892,78.289,39.886,77.872,39.145,77.131L38.325,76.311C36.011,73.997,32.871,72.697,29.598,72.697L29.118,72.697C25.845,72.697,22.706,73.997,20.391,76.312L19.911,76.792C18.953,77.75,17.652,78.289,16.296,78.289C13.473,78.289,11.184,76,11.184,73.177Z"/>
</g>
  <g id="Light-M" transform="matrix(1.0,0.0,0.0,1.0,1112.479547061012,1048.829566592262)">  <path stroke-linecap="butt" stroke-miterlimit="4" fill="#000000" stroke-dasharray="none" fill-opacity="1" stroke-width="1px" stroke="none" stroke-opacity="1" stroke-linejoin="miter" fill-rule="nonzero" d="M27.96,33.086L33.552,33.086L33.552,28.426L27.96,28.426L27.96,33.086ZM50.329,33.086L55.921,33.086L55.921,28.426L50.329,28.426L50.329,33.086ZM23.3,46.134C32.62,58.561,51.261,58.561,60.581,46.134L56.853,43.338C49.397,53.28,34.484,53.28,27.028,43.338L23.3,46.134ZM6.058,73.177C6.058,78.831,10.642,83.415,16.296,83.415C19.012,83.415,21.616,82.336,23.536,80.416L24.016,79.936C25.369,78.583,27.205,77.823,29.118,77.823L29.598,77.823C31.512,77.823,33.347,78.583,34.701,79.937L35.52,80.755C37.223,82.458,39.532,83.415,41.94,83.415C44.349,83.415,46.658,82.458,48.361,80.755L49.18,79.937C50.533,78.583,52.369,77.823,54.283,77.823L54.762,77.823C56.676,77.823,58.512,78.583,59.865,79.936L60.345,80.416C62.265,82.336,64.869,83.415,67.585,83.415C73.239,83.415,77.823,78.831,77.823,73.177L77.823,36.348C77.823,16.531,61.758,0.466,41.94,0.466C22.123,0.466,6.058,16.531,6.058,36.348L6.058,73.177ZM10.718,73.177L10.718,36.348C10.718,19.105,24.697,5.126,41.94,5.126C59.184,5.126,73.163,19.105,73.163,36.348L73.163,73.177C73.163,76.257,70.665,78.755,67.585,78.755C66.105,78.755,64.686,78.167,63.64,77.121L63.16,76.641C60.933,74.414,57.912,73.163,54.762,73.163L54.283,73.163C51.133,73.163,48.112,74.414,45.885,76.641L45.066,77.46C44.237,78.289,43.113,78.755,41.94,78.755C40.768,78.755,39.644,78.289,38.815,77.46L37.996,76.641C35.769,74.414,32.748,73.163,29.598,73.163L29.118,73.163C25.969,73.163,22.948,74.414,20.721,76.641L20.241,77.121C19.195,78.167,17.776,78.755,16.296,78.755C13.216,78.755,10.718,76.257,10.718,73.177Z"/>
</g>
  <g id="Thin-M" transform="matrix(1.0,0.0,0.0,1.0,815.769547061012,1048.829566592262)">  <path stroke-opacity="1" stroke-linejoin="miter" stroke-miterlimit="4" stroke-linecap="butt" fill="#000000" stroke-dasharray="none" fill-rule="nonzero" stroke-width="1px" stroke="none" fill-opacity="1" d="M27.96,32.62L33.552,32.62L33.552,28.892L27.96,28.892L27.96,32.62ZM50.329,32.62L55.921,32.62L55.921,28.892L50.329,28.892L50.329,32.62ZM23.673,45.855C32.807,58.033,51.074,58.033,60.208,45.855L57.225,43.618C49.583,53.808,34.298,53.808,26.655,43.618L23.673,45.855ZM6.524,73.177C6.524,78.574,10.899,82.949,16.296,82.949C18.888,82.949,21.374,81.919,23.207,80.087L23.686,79.607C25.127,78.166,27.081,77.357,29.118,77.357L29.598,77.357C31.635,77.357,33.59,78.166,35.03,79.607L35.85,80.426C37.465,82.041,39.656,82.949,41.94,82.949C44.225,82.949,46.416,82.041,48.032,80.426L48.85,79.607C50.291,78.166,52.245,77.357,54.283,77.357L54.762,77.357C56.8,77.357,58.754,78.166,60.195,79.607L60.674,80.087C62.507,81.919,64.993,82.949,67.585,82.949C72.981,82.949,77.357,78.573,77.357,73.177L77.357,36.348C77.357,16.788,61.5,0.932,41.94,0.932C22.381,0.932,6.524,16.788,6.524,36.348L6.524,73.177ZM10.252,73.177L10.252,36.348C10.252,18.847,24.439,4.66,41.94,4.66C59.441,4.66,73.629,18.847,73.629,36.348L73.629,73.177C73.629,76.515,70.922,79.221,67.585,79.221C65.981,79.221,64.444,78.584,63.311,77.451L62.831,76.971C60.691,74.831,57.788,73.629,54.762,73.629L54.283,73.629C51.257,73.629,48.354,74.831,46.215,76.971L45.396,77.789C44.479,78.706,43.236,79.221,41.94,79.221C40.645,79.221,39.402,78.706,38.485,77.79L37.666,76.971C35.526,74.831,32.624,73.629,29.598,73.629L29.118,73.629C26.092,73.629,23.19,74.831,21.05,76.971L20.57,77.451C19.437,78.584,17.9,79.221,16.296,79.221C12.958,79.221,10.252,76.515,10.252,73.177Z"/>
</g>
  <g id="Ultralight-M" transform="matrix(1.0,0.0,0.0,1.0,519.0595470610119,1048.829566592262)">  <path stroke-width="1px" stroke-linecap="butt" stroke-miterlimit="4" stroke-linejoin="miter" stroke-dasharray="none" fill="#000000" fill-rule="nonzero" fill-opacity="1" stroke-opacity="1" stroke="none" d="M27.96,32.154L33.552,32.154L33.552,29.358L27.96,29.358L27.96,32.154ZM50.329,32.154L55.921,32.154L55.921,29.358L50.329,29.358L50.329,32.154ZM24.046,45.575C32.993,57.505,50.888,57.505,59.835,45.575L57.598,43.898C49.769,54.336,34.112,54.336,26.283,43.898L24.046,45.575ZM6.99,73.177C6.99,78.316,11.157,82.483,16.296,82.483C18.765,82.483,21.132,81.502,22.877,79.757L23.357,79.277C24.885,77.749,26.958,76.891,29.118,76.891L29.598,76.891C31.759,76.891,33.832,77.749,35.36,79.277L36.179,80.096C37.707,81.624,39.779,82.483,41.94,82.483C44.101,82.483,46.174,81.624,47.702,80.096L48.521,79.278C50.049,77.749,52.122,76.891,54.283,76.891L54.762,76.891C56.923,76.891,58.996,77.75,60.524,79.277L61.004,79.757C62.749,81.502,65.116,82.483,67.585,82.483C72.724,82.483,76.891,78.316,76.891,73.177L76.891,36.348C76.891,17.046,61.243,1.398,41.94,1.398C22.638,1.398,6.99,17.046,6.99,36.348L6.99,73.177ZM9.786,73.177L9.786,36.348C9.786,18.59,24.182,4.194,41.94,4.194C59.699,4.194,74.095,18.59,74.095,36.348L74.095,73.177C74.095,76.772,71.18,79.687,67.585,79.687C65.858,79.687,64.202,79.001,62.981,77.78L62.501,77.3C60.449,75.248,57.665,74.095,54.762,74.095L54.283,74.095C51.38,74.095,48.597,75.248,46.544,77.3L45.725,78.119C44.721,79.123,43.36,79.687,41.94,79.687C40.521,79.687,39.16,79.123,38.156,78.119L37.337,77.3C35.284,75.248,32.501,74.095,29.598,74.095L29.118,74.095C26.216,74.095,23.432,75.248,21.38,77.3L20.9,77.78C19.679,79.001,18.023,79.687,16.296,79.687C12.701,79.687,9.786,76.772,9.786,73.177Z"/>
</g>
  <g id="Black-S" transform="matrix(1.0,0.0,0.0,1.0,2901.840625348772,627.9306448800223)">  <path fill-opacity="1" stroke="none" stroke-linecap="butt" fill="#000000" stroke-width="1px" stroke-linejoin="miter" stroke-miterlimit="4" stroke-opacity="1" stroke-dasharray="none" fill-rule="nonzero" d="M21.893,28.921L26.271,28.921L26.271,19.244L21.893,19.244L21.893,28.921ZM39.407,28.921L43.786,28.921L43.786,19.244L39.407,19.244L39.407,28.921ZM15.833,37.932C24.336,49.269,41.343,49.269,49.846,37.932L42.104,32.126C37.472,38.302,28.207,38.302,23.574,32.126L15.833,37.932ZM1.73,57.297C1.73,63.389,6.668,68.328,12.76,68.328C15.686,68.328,18.491,67.166,20.56,65.097L20.936,64.721C21.43,64.227,22.101,63.949,22.8,63.949L23.175,63.949C23.874,63.949,24.545,64.227,25.04,64.722L25.681,65.363C27.579,67.261,30.154,68.328,32.839,68.328C35.524,68.328,38.1,67.261,39.998,65.362L40.639,64.722C41.134,64.227,41.804,63.949,42.503,63.949L42.879,63.949C43.578,63.949,44.249,64.227,44.743,64.721L45.119,65.097C47.187,67.166,49.993,68.328,52.919,68.328C59.01,68.328,63.949,63.389,63.949,57.297L63.949,28.461C63.949,11.279,50.021,-2.649,32.839,-2.649C15.658,-2.649,1.73,11.279,1.73,28.461L1.73,57.297ZM11.406,57.297L11.406,28.461C11.406,16.624,21.002,7.028,32.839,7.028C44.677,7.028,54.273,16.624,54.273,28.461L54.273,57.297C54.273,58.045,53.666,58.651,52.919,58.651C52.56,58.651,52.215,58.508,51.961,58.255L51.586,57.879C49.277,55.57,46.144,54.273,42.879,54.273L42.503,54.273C39.238,54.273,36.106,55.57,33.797,57.879L33.156,58.519C33.071,58.604,32.958,58.651,32.839,58.651C32.721,58.651,32.607,58.604,32.523,58.52L31.881,57.878C29.573,55.57,26.441,54.273,23.175,54.273L22.8,54.273C19.534,54.273,16.402,55.57,14.093,57.879L13.717,58.255C13.464,58.508,13.119,58.651,12.76,58.651C12.012,58.651,11.406,58.045,11.406,57.297Z"/>
</g>
  <g id="Heavy-S" transform="matrix(1.0,0.0,0.0,1.0,2605.130625348772,627.9306448800223)">  <path stroke-miterlimit="4" stroke-width="1px" stroke-linejoin="miter" stroke-dasharray="none" stroke-linecap="butt" stroke-opacity="1" stroke="none" fill-rule="nonzero" fill-opacity="1" fill="#000000" d="M21.893,28.391L26.271,28.391L26.271,19.774L21.893,19.774L21.893,28.391ZM39.407,28.391L43.786,28.391L43.786,19.774L39.407,19.774L39.407,28.391ZM16.257,37.614C24.548,48.669,41.131,48.669,49.422,37.614L42.528,32.444C37.684,38.903,27.995,38.903,23.15,32.444L16.257,37.614ZM2.259,57.297C2.259,63.097,6.961,67.798,12.76,67.798C15.545,67.798,18.216,66.692,20.185,64.722L20.561,64.347C21.155,63.753,21.96,63.419,22.8,63.419L23.175,63.419C24.015,63.419,24.82,63.753,25.414,64.347L26.056,64.988C27.854,66.787,30.295,67.798,32.839,67.798C35.384,67.798,37.824,66.787,39.624,64.988L40.264,64.347C40.858,63.753,41.664,63.419,42.503,63.419L42.879,63.419C43.718,63.419,44.524,63.753,45.118,64.347L45.494,64.722C47.463,66.692,50.134,67.798,52.919,67.798C58.718,67.798,63.419,63.096,63.419,57.297L63.419,28.461C63.419,11.572,49.728,-2.119,32.839,-2.119C15.95,-2.119,2.259,11.572,2.259,28.461L2.259,57.297ZM10.876,57.297L10.876,28.461C10.876,16.331,20.71,6.498,32.839,6.498C44.969,6.498,54.802,16.331,54.802,28.461L54.802,57.297C54.802,58.337,53.959,59.181,52.919,59.181C52.419,59.181,51.94,58.982,51.587,58.629L51.211,58.254C49.001,56.044,46.004,54.802,42.879,54.802L42.503,54.802C39.378,54.802,36.381,56.044,34.172,58.253L33.531,58.894C33.347,59.078,33.098,59.181,32.839,59.181C32.58,59.181,32.332,59.078,32.149,58.895L31.507,58.253C29.297,56.044,26.3,54.802,23.175,54.802L22.8,54.802C19.675,54.802,16.678,56.044,14.468,58.253L14.092,58.629C13.739,58.982,13.26,59.181,12.76,59.181C11.72,59.181,10.876,58.337,10.876,57.297Z"/>
</g>
  <g id="Bold-S" transform="matrix(1.0,0.0,0.0,1.0,2308.420625348772,627.9306448800223)">  <path stroke-opacity="1" fill-opacity="1" stroke-width="1px" stroke="none" fill-rule="nonzero" stroke-miterlimit="4" stroke-linejoin="miter" fill="#000000" stroke-dasharray="none" stroke-linecap="butt" d="M21.893,27.861L26.271,27.861L26.271,20.303L21.893,20.303L21.893,27.861ZM39.407,27.861L43.786,27.861L43.786,20.303L39.407,20.303L39.407,27.861ZM16.681,37.296C24.76,48.068,40.919,48.068,48.998,37.296L42.952,32.761C37.896,39.503,27.783,39.503,22.727,32.761L16.681,37.296ZM2.789,57.297C2.789,62.804,7.253,67.268,12.76,67.268C15.405,67.268,17.941,66.218,19.811,64.348L20.186,63.972C20.879,63.279,21.82,62.89,22.8,62.89L23.175,62.89C24.155,62.89,25.096,63.279,25.789,63.972L26.431,64.614C28.13,66.313,30.435,67.268,32.839,67.268C35.243,67.268,37.549,66.313,39.249,64.613L39.889,63.973C40.583,63.279,41.523,62.89,42.503,62.89L42.879,62.89C43.859,62.89,44.799,63.279,45.492,63.972L45.868,64.348C47.738,66.218,50.274,67.268,52.919,67.268C58.425,67.268,62.89,62.804,62.89,57.297L62.89,28.461C62.89,11.865,49.436,-1.589,32.839,-1.589C16.243,-1.589,2.789,11.865,2.789,28.461L2.789,57.297ZM10.347,57.297L10.347,28.461C10.347,16.038,20.417,5.968,32.839,5.968C45.262,5.968,55.332,16.038,55.332,28.461L55.332,57.297C55.332,58.63,54.251,59.711,52.919,59.711C52.278,59.711,51.665,59.456,51.212,59.004L50.836,58.628C48.726,56.518,45.863,55.332,42.879,55.332L42.503,55.332C39.519,55.332,36.657,56.518,34.546,58.628L33.905,59.269C33.622,59.552,33.239,59.711,32.839,59.711C32.44,59.711,32.057,59.552,31.774,59.269L31.132,58.628C29.022,56.518,26.16,55.332,23.175,55.332L22.8,55.332C19.815,55.332,16.953,56.518,14.843,58.628L14.467,59.004C14.014,59.456,13.4,59.711,12.76,59.711C11.427,59.711,10.347,58.63,10.347,57.297Z"/>
</g>
  <g id="Semibold-S" transform="matrix(1.0,0.0,0.0,1.0,2011.7106253487723,627.9306448800223)">  <path stroke-width="1px" stroke-dasharray="none" stroke-linecap="butt" stroke="none" stroke-miterlimit="4" stroke-linejoin="miter" fill="#000000" fill-rule="nonzero" stroke-opacity="1" fill-opacity="1" d="M21.893,27.331L26.271,27.331L26.271,20.833L21.893,20.833L21.893,27.331ZM39.407,27.331L43.786,27.331L43.786,20.833L39.407,20.833L39.407,27.331ZM17.104,36.978C24.972,47.468,40.707,47.468,48.574,36.978L43.376,33.079C38.108,40.104,27.571,40.104,22.303,33.079L17.104,36.978ZM3.319,57.297C3.319,62.511,7.546,66.738,12.76,66.738C15.264,66.738,17.665,65.744,19.436,63.973L19.812,63.597C20.604,62.805,21.679,62.36,22.8,62.36L23.175,62.36C24.296,62.36,25.371,62.805,26.164,63.598L26.805,64.239C28.405,65.839,30.576,66.738,32.839,66.738C35.103,66.738,37.274,65.839,38.874,64.238L39.515,63.598C40.308,62.805,41.383,62.36,42.503,62.36L42.879,62.36C44,62.36,45.075,62.805,45.867,63.597L46.243,63.973C48.013,65.744,50.415,66.738,52.919,66.738C58.133,66.738,62.36,62.511,62.36,57.297L62.36,28.461C62.36,12.157,49.143,-1.06,32.839,-1.06C16.536,-1.06,3.319,12.157,3.319,28.461L3.319,57.297ZM9.817,57.297L9.817,28.461C9.817,15.746,20.124,5.438,32.839,5.438C45.554,5.438,55.862,15.746,55.862,28.461L55.862,57.297C55.862,58.923,54.544,60.241,52.919,60.241C52.138,60.241,51.389,59.93,50.837,59.379L50.462,59.003C48.451,56.992,45.723,55.862,42.879,55.862L42.503,55.862C39.659,55.862,36.932,56.992,34.921,59.003L34.28,59.643C33.897,60.026,33.379,60.241,32.839,60.241C32.299,60.241,31.781,60.026,31.4,59.644L30.758,59.002C28.747,56.992,26.019,55.862,23.175,55.862L22.8,55.862C19.956,55.862,17.228,56.992,15.217,59.003L14.841,59.379C14.289,59.93,13.541,60.241,12.76,60.241C11.135,60.241,9.817,58.923,9.817,57.297Z"/>
</g>
  <g id="Medium-S" transform="matrix(1.0,0.0,0.0,1.0,1715.0006253487722,627.9306448800223)">  <path stroke-linejoin="miter" stroke-miterlimit="4" fill-rule="nonzero" fill="#000000" stroke="none" stroke-linecap="butt" stroke-width="1px" fill-opacity="1" stroke-dasharray="none" stroke-opacity="1" d="M21.893,26.801L26.271,26.801L26.271,21.363L21.893,21.363L21.893,26.801ZM39.407,26.801L43.786,26.801L43.786,21.363L39.407,21.363L39.407,26.801ZM17.528,36.66C25.184,46.867,40.495,46.867,48.15,36.66L43.8,33.397C38.32,40.704,27.359,40.704,21.879,33.397L17.528,36.66ZM3.849,57.297C3.849,62.219,7.839,66.209,12.76,66.209C15.124,66.209,17.39,65.27,19.061,63.599L19.437,63.223C20.329,62.331,21.539,61.83,22.8,61.83L23.175,61.83C24.436,61.83,25.646,62.331,26.538,63.223L27.18,63.864C28.68,65.365,30.716,66.209,32.839,66.209C34.962,66.209,36.998,65.365,38.5,63.864L39.14,63.223C40.033,62.331,41.242,61.83,42.503,61.83L42.879,61.83C44.14,61.83,45.35,62.331,46.242,63.223L46.617,63.599C48.289,65.27,50.555,66.209,52.919,66.209C57.84,66.209,61.83,62.219,61.83,57.297L61.83,28.461C61.83,12.45,48.85,-0.53,32.839,-0.53C16.828,-0.53,3.849,12.45,3.849,28.461L3.849,57.297ZM9.287,57.297L9.287,28.461C9.287,15.453,19.832,4.908,32.839,4.908C45.847,4.908,56.392,15.453,56.392,28.461L56.392,57.297C56.392,59.215,54.837,60.77,52.919,60.77C51.997,60.77,51.114,60.404,50.463,59.753L50.087,59.377C48.176,57.466,45.582,56.392,42.879,56.392L42.503,56.392C39.8,56.392,37.207,57.466,35.295,59.377L34.654,60.018C34.173,60.5,33.52,60.77,32.839,60.77C32.159,60.77,31.506,60.5,31.025,60.019L30.383,59.377C28.472,57.466,25.879,56.392,23.175,56.392L22.8,56.392C20.096,56.392,17.504,57.466,15.592,59.377L15.216,59.753C14.565,60.404,13.681,60.77,12.76,60.77C10.842,60.77,9.287,59.215,9.287,57.297Z"/>
</g>
  <g id="Regular-S" transform="matrix(1.0,0.0,0.0,1.0,1418.2906253487722,627.9306448800223)">  <path stroke-dasharray="none" stroke-miterlimit="4" stroke-linecap="butt" stroke-opacity="1" fill-opacity="1" stroke-width="1px" fill="#000000" stroke-linejoin="miter" stroke="none" fill-rule="nonzero" d="M21.893,26.271L26.271,26.271L26.271,21.893L21.893,21.893L21.893,26.271ZM39.407,26.271L43.786,26.271L43.786,21.893L39.407,21.893L39.407,26.271ZM17.952,36.342C25.396,46.267,40.283,46.267,47.727,36.342L44.224,33.715C38.532,41.305,27.147,41.305,21.455,33.715L17.952,36.342ZM4.379,57.297C4.379,61.926,8.131,65.679,12.76,65.679C14.983,65.679,17.115,64.796,18.687,63.224L19.062,62.848C20.054,61.857,21.398,61.3,22.8,61.3L23.175,61.3C24.577,61.3,25.921,61.857,26.913,62.848L27.554,63.49C28.956,64.891,30.857,65.679,32.839,65.679C34.822,65.679,36.723,64.891,38.125,63.489L38.766,62.848C39.757,61.857,41.102,61.3,42.503,61.3L42.879,61.3C44.281,61.3,45.625,61.857,46.616,62.848L46.992,63.224C48.564,64.796,50.696,65.679,52.919,65.679C57.547,65.679,61.3,61.926,61.3,57.297L61.3,28.461C61.3,12.742,48.558,0,32.839,0C17.121,0,4.379,12.742,4.379,28.461L4.379,57.297ZM8.757,57.297L8.757,28.461C8.757,15.161,19.539,4.379,32.839,4.379C46.14,4.379,56.922,15.161,56.922,28.461L56.922,57.297C56.922,59.508,55.129,61.3,52.919,61.3C51.857,61.3,50.839,60.878,50.088,60.128L49.712,59.752C47.9,57.94,45.442,56.922,42.879,56.922L42.503,56.922C39.94,56.922,37.482,57.94,35.67,59.752L35.029,60.393C34.448,60.974,33.66,61.3,32.839,61.3C32.018,61.3,31.231,60.974,30.65,60.393L30.009,59.752C28.196,57.94,25.738,56.922,23.175,56.922L22.8,56.922C20.237,56.922,17.779,57.94,15.966,59.752L15.591,60.128C14.84,60.878,13.822,61.3,12.76,61.3C10.549,61.3,8.757,59.508,8.757,57.297Z"/>
</g>
  <g id="Light-S" transform="matrix(1.0,0.0,0.0,1.0,1121.5806253487724,627.9306448800223)">  <path stroke-linecap="butt" stroke-miterlimit="4" fill="#000000" stroke-dasharray="none" fill-opacity="1" stroke-width="1px" stroke="none" stroke-opacity="1" stroke-linejoin="miter" fill-rule="nonzero" d="M21.893,25.907L26.271,25.907L26.271,22.258L21.893,22.258L21.893,25.907ZM39.407,25.907L43.786,25.907L43.786,22.258L39.407,22.258L39.407,25.907ZM18.244,36.123C25.542,45.853,40.137,45.853,47.435,36.123L44.516,33.934C38.677,41.718,27.001,41.718,21.163,33.934L18.244,36.123ZM4.743,57.297C4.743,61.725,8.333,65.314,12.76,65.314C14.886,65.314,16.925,64.469,18.429,62.966L18.804,62.59C19.864,61.531,21.301,60.935,22.8,60.935L23.175,60.935C24.674,60.935,26.111,61.531,27.171,62.59L27.812,63.231C29.145,64.565,30.954,65.314,32.839,65.314C34.725,65.314,36.534,64.565,37.867,63.231L38.508,62.59C39.568,61.531,41.005,60.935,42.503,60.935L42.879,60.935C44.377,60.935,45.815,61.531,46.874,62.59L47.25,62.966C48.753,64.469,50.792,65.314,52.919,65.314C57.346,65.314,60.935,61.725,60.935,57.297L60.935,28.461C60.935,12.944,48.356,0.365,32.839,0.365C17.322,0.365,4.743,12.944,4.743,28.461L4.743,57.297ZM8.392,57.297L8.392,28.461C8.392,14.959,19.338,4.014,32.839,4.014C46.341,4.014,57.286,14.959,57.286,28.461L57.286,57.297C57.286,59.709,55.331,61.665,52.919,61.665C51.76,61.665,50.649,61.205,49.83,60.386L49.454,60.01C47.711,58.266,45.345,57.286,42.879,57.286L42.503,57.286C40.037,57.286,37.672,58.266,35.928,60.01L35.287,60.651C34.638,61.3,33.757,61.665,32.839,61.665C31.922,61.665,31.041,61.3,30.392,60.651L29.751,60.01C28.007,58.266,25.641,57.286,23.175,57.286L22.8,57.286C20.334,57.286,17.968,58.266,16.224,60.01L15.849,60.386C15.03,61.205,13.919,61.665,12.76,61.665C10.348,61.665,8.392,59.709,8.392,57.297Z"/>
</g>
  <g id="Thin-S" transform="matrix(1.0,0.0,0.0,1.0,824.8706253487724,627.9306448800223)">  <path stroke-opacity="1" stroke-linejoin="miter" stroke-miterlimit="4" stroke-linecap="butt" fill="#000000" stroke-dasharray="none" fill-rule="nonzero" stroke-width="1px" stroke="none" fill-opacity="1" d="M21.893,25.542L26.271,25.542L26.271,22.623L21.893,22.623L21.893,25.542ZM39.407,25.542L43.786,25.542L43.786,22.623L39.407,22.623L39.407,25.542ZM18.536,35.904C25.688,45.44,39.991,45.44,47.143,35.904L44.808,34.153C38.823,42.132,26.855,42.132,20.871,34.153L18.536,35.904ZM5.108,57.297C5.108,61.523,8.534,64.949,12.76,64.949C14.789,64.949,16.736,64.143,18.171,62.708L18.546,62.332C19.675,61.204,21.205,60.57,22.8,60.57L23.175,60.57C24.771,60.57,26.301,61.204,27.429,62.332L28.07,62.973C29.335,64.238,31.05,64.949,32.839,64.949C34.628,64.949,36.344,64.238,37.609,62.973L38.25,62.332C39.378,61.204,40.908,60.57,42.503,60.57L42.879,60.57C44.474,60.57,46.004,61.204,47.132,62.332L47.508,62.708C48.943,64.143,50.889,64.949,52.919,64.949C57.144,64.949,60.57,61.523,60.57,57.297L60.57,28.461C60.57,13.145,48.155,0.73,32.839,0.73C17.524,0.73,5.108,13.145,5.108,28.461L5.108,57.297ZM8.027,57.297L8.027,28.461C8.027,14.758,19.136,3.649,32.839,3.649C46.543,3.649,57.651,14.758,57.651,28.461L57.651,57.297C57.651,59.911,55.532,62.03,52.919,62.03C51.663,62.03,50.46,61.531,49.572,60.644L49.196,60.268C47.521,58.593,45.248,57.651,42.879,57.651L42.503,57.651C40.134,57.651,37.862,58.593,36.186,60.268L35.545,60.909C34.827,61.627,33.854,62.03,32.839,62.03C31.825,62.03,30.852,61.627,30.134,60.909L29.493,60.268C27.817,58.593,25.545,57.651,23.175,57.651L22.8,57.651C20.43,57.651,18.158,58.593,16.482,60.268L16.107,60.644C15.219,61.531,14.015,62.03,12.76,62.03C10.146,62.03,8.027,59.911,8.027,57.297Z"/>
</g>
  <g id="Ultralight-S" transform="matrix(1.0,0.0,0.0,1.0,528.1606253487723,627.9306448800223)">  <path stroke-width="1px" stroke-linecap="butt" stroke-miterlimit="4" stroke-linejoin="miter" stroke-dasharray="none" fill="#000000" fill-rule="nonzero" fill-opacity="1" stroke-opacity="1" stroke="none" d="M21.893,25.177L26.271,25.177L26.271,22.988L21.893,22.988L21.893,25.177ZM39.407,25.177L43.786,25.177L43.786,22.988L39.407,22.988L39.407,25.177ZM18.828,35.685C25.834,45.026,39.845,45.026,46.851,35.685L45.099,34.372C38.969,42.545,26.709,42.545,20.579,34.372L18.828,35.685ZM5.473,57.297C5.473,61.322,8.736,64.584,12.76,64.584C14.693,64.584,16.546,63.816,17.913,62.45L18.288,62.074C19.485,60.878,21.108,60.206,22.8,60.206L23.175,60.206C24.867,60.206,26.49,60.878,27.687,62.074L28.328,62.715C29.524,63.912,31.147,64.584,32.839,64.584C34.531,64.584,36.154,63.912,37.351,62.715L37.992,62.074C39.189,60.878,40.811,60.206,42.503,60.206L42.879,60.206C44.571,60.206,46.194,60.878,47.39,62.074L47.766,62.45C49.133,63.816,50.986,64.584,52.919,64.584C56.943,64.584,60.206,61.321,60.206,57.297L60.206,28.461C60.206,13.347,47.953,1.095,32.839,1.095C17.725,1.095,5.473,13.347,5.473,28.461L5.473,57.297ZM7.663,57.297L7.663,28.461C7.663,14.556,18.935,3.284,32.839,3.284C46.744,3.284,58.016,14.556,58.016,28.461L58.016,57.297C58.016,60.112,55.734,62.395,52.919,62.395C51.567,62.395,50.27,61.858,49.314,60.902L48.938,60.526C47.332,58.919,45.152,58.016,42.879,58.016L42.503,58.016C40.231,58.016,38.051,58.919,36.444,60.526L35.803,61.167C35.017,61.953,33.951,62.395,32.839,62.395C31.728,62.395,30.662,61.953,29.876,61.167L29.235,60.526C27.628,58.919,25.448,58.016,23.175,58.016L22.8,58.016C20.527,58.016,18.347,58.919,16.74,60.526L16.365,60.902C15.409,61.858,14.112,62.395,12.76,62.395C9.945,62.395,7.663,60.112,7.663,57.297Z"/>
</g>
 </g>
</svg>
