<?xml version="1.0" encoding="UTF-8"?>
<!-- Generator: CustomSymbols v2.6.2.41 by @serious_bret https://bretlester.com/app_content/CustomSymbols/ -->
<!-- Guides: Left/Right -0.031/-0.031 Cap/Base 0.08/0.08 -->
<!-- Settings: RefScale 1.0 Min/Max Stroke Scales 0.5/2.21 -->
<!DOCTYPE svg
PUBLIC "-//W3C//DTD SVG 1.1//EN"
       "http://www.w3.org/Graphics/SVG/1.1/DTD/svg11.dtd">
<svg version="1.1" xmlns="http://www.w3.org/2000/svg" xmlns:xlink="http://www.w3.org/1999/xlink" width="3300" height="2200">
<![CDATA[<svg width="15" height="15" viewBox="0 0 15 15" fill="none" xmlns="http://www.w3.org/2000/svg">
<path d="M0.5 9.5V0.5H14.5L12.5 5L14.5 9.5H0.5ZM0.5 9.5V15" stroke="#1D1929" stroke-linejoin="round"/>
</svg>
]]>
 <g id="Notes">
  <rect height="2200" id="artboard" style="fill:white;opacity:1" width="3300" x="0" y="0"/>
  <line id="" style="fill:none;stroke:black;opacity:1;stroke-width:0.5;" x1="263" x2="3036" y1="292" y2="292"/>
  <text id="reftext1" style="stroke:none;fill:black;font-family:-apple-system,&quot;SF Pro Display&quot;,&quot;SF Pro Text&quot;,Helvetica,sans-serif;font-weight:bold;" transform="matrix(1 0 0 1 263 322)">Weight/Scale Variations</text>
  <text id="reftext2" style="stroke:none;fill:black;font-family:-apple-system,&quot;SF Pro Display&quot;,&quot;SF Pro Text&quot;,Helvetica,sans-serif;text-anchor:middle;" transform="matrix(1 0 0 1 559.711 322)">Ultralight</text>
  <text style="stroke:none;fill:black;font-family:-apple-system,&quot;SF Pro Display&quot;,&quot;SF Pro Text&quot;,Helvetica,sans-serif;text-anchor:middle;" transform="matrix(1 0 0 1 856.422 322)">Thin</text>
  <text style="stroke:none;fill:black;font-family:-apple-system,&quot;SF Pro Display&quot;,&quot;SF Pro Text&quot;,Helvetica,sans-serif;text-anchor:middle;" transform="matrix(1 0 0 1 1153.13 322)">Light</text>
  <text style="stroke:none;fill:black;font-family:-apple-system,&quot;SF Pro Display&quot;,&quot;SF Pro Text&quot;,Helvetica,sans-serif;text-anchor:middle;" transform="matrix(1 0 0 1 1449.84 322)">Regular</text>
  <text style="stroke:none;fill:black;font-family:-apple-system,&quot;SF Pro Display&quot;,&quot;SF Pro Text&quot;,Helvetica,sans-serif;text-anchor:middle;" transform="matrix(1 0 0 1 1746.56 322)">Medium</text>
  <text style="stroke:none;fill:black;font-family:-apple-system,&quot;SF Pro Display&quot;,&quot;SF Pro Text&quot;,Helvetica,sans-serif;text-anchor:middle;" transform="matrix(1 0 0 1 2043.27 322)">Semibold</text>
  <text style="stroke:none;fill:black;font-family:-apple-system,&quot;SF Pro Display&quot;,&quot;SF Pro Text&quot;,Helvetica,sans-serif;text-anchor:middle;" transform="matrix(1 0 0 1 2339.98 322)">Bold</text>
  <text style="stroke:none;fill:black;font-family:-apple-system,&quot;SF Pro Display&quot;,&quot;SF Pro Text&quot;,Helvetica,sans-serif;text-anchor:middle;" transform="matrix(1 0 0 1 2636.69 322)">Heavy</text>
  <text style="stroke:none;fill:black;font-family:-apple-system,&quot;SF Pro Display&quot;,&quot;SF Pro Text&quot;,Helvetica,sans-serif;text-anchor:middle;" transform="matrix(1 0 0 1 2933.4 322)">Black</text>
  <line id="" style="fill:none;stroke:black;opacity:1;stroke-width:0.5;" x1="263" x2="3036" y1="1903" y2="1903"/>
  <g id="" transform="matrix(1 0 0 1 263 1933)">
   <path d="M9.24805 0.830078C13.5547 0.830078 17.1387-2.74414 17.1387-7.05078C17.1387-11.3574 13.5449-14.9316 9.23828-14.9316C4.94141-14.9316 1.36719-11.3574 1.36719-7.05078C1.36719-2.74414 4.95117 0.830078 9.24805 0.830078ZM9.24805-0.654297C5.70312-0.654297 2.87109-3.49609 2.87109-7.05078C2.87109-10.6055 5.69336-13.4473 9.23828-13.4473C12.793-13.4473 15.6348-10.6055 15.6445-7.05078C15.6543-3.49609 12.8027-0.654297 9.24805-0.654297ZM6.39648-6.31836L8.50586-6.31836L8.50586-4.19922C8.50586-3.75977 8.79883-3.45703 9.22852-3.45703C9.67773-3.45703 9.9707-3.75977 9.9707-4.19922L9.9707-6.31836L12.0996-6.31836C12.5391-6.31836 12.8418-6.61133 12.8418-7.04102C12.8418-7.48047 12.5391-7.7832 12.0996-7.7832L9.9707-7.7832L9.9707-9.89258C9.9707-10.3418 9.67773-10.6445 9.22852-10.6445C8.79883-10.6445 8.50586-10.3418 8.50586-9.89258L8.50586-7.7832L6.39648-7.7832C5.94727-7.7832 5.64453-7.48047 5.64453-7.04102C5.64453-6.61133 5.94727-6.31836 6.39648-6.31836Z"/>
  </g>
  <g id="" transform="matrix(1 0 0 1 281.506 1933)">
   <path d="M11.709 2.91016C17.1582 2.91016 21.6699-1.61133 21.6699-7.05078C21.6699-12.5 17.1484-17.0117 11.6992-17.0117C6.25977-17.0117 1.74805-12.5 1.74805-7.05078C1.74805-1.61133 6.26953 2.91016 11.709 2.91016ZM11.709 1.25C7.09961 1.25 3.41797-2.44141 3.41797-7.05078C3.41797-11.6602 7.08984-15.3516 11.6992-15.3516C16.3086-15.3516 20-11.6602 20.0098-7.05078C20.0195-2.44141 16.3184 1.25 11.709 1.25ZM7.98828-6.23047L10.8789-6.23047L10.8789-3.32031C10.8789-2.83203 11.2109-2.5 11.6895-2.5C12.1777-2.5 12.5195-2.83203 12.5195-3.32031L12.5195-6.23047L15.4297-6.23047C15.918-6.23047 16.25-6.5625 16.25-7.04102C16.25-7.5293 15.918-7.87109 15.4297-7.87109L12.5195-7.87109L12.5195-10.7617C12.5195-11.2695 12.1777-11.6016 11.6895-11.6016C11.2109-11.6016 10.8789-11.2598 10.8789-10.7617L10.8789-7.87109L7.98828-7.87109C7.48047-7.87109 7.14844-7.5293 7.14844-7.04102C7.14844-6.5625 7.49023-6.23047 7.98828-6.23047Z"/>
  </g>
  <g id="" transform="matrix(1 0 0 1 304.924 1933)">
   <path d="M14.9707 5.66406C21.9336 5.66406 27.6953-0.0976562 27.6953-7.05078C27.6953-14.0137 21.9238-19.7754 14.9609-19.7754C8.00781-19.7754 2.25586-14.0137 2.25586-7.05078C2.25586-0.0976562 8.01758 5.66406 14.9707 5.66406ZM14.9707 3.84766C8.93555 3.84766 4.08203-1.01562 4.08203-7.05078C4.08203-13.0957 8.92578-17.9492 14.9609-17.9492C21.0059-17.9492 25.8594-13.0957 25.8691-7.05078C25.8789-1.01562 21.0156 3.84766 14.9707 3.84766ZM10.0586-6.14258L14.0625-6.14258L14.0625-2.12891C14.0625-1.5918 14.4336-1.2207 14.9512-1.2207C15.4883-1.2207 15.8594-1.5918 15.8594-2.12891L15.8594-6.14258L19.8828-6.14258C20.4102-6.14258 20.791-6.51367 20.791-7.03125C20.791-7.56836 20.4199-7.94922 19.8828-7.94922L15.8594-7.94922L15.8594-11.9531C15.8594-12.5098 15.4883-12.8809 14.9512-12.8809C14.4336-12.8809 14.0625-12.5 14.0625-11.9531L14.0625-7.94922L10.0586-7.94922C9.50195-7.94922 9.13086-7.56836 9.13086-7.03125C9.13086-6.51367 9.51172-6.14258 10.0586-6.14258Z"/>
  </g>
  <text style="stroke:none;fill:black;font-family:-apple-system,&quot;SF Pro Display&quot;,&quot;SF Pro Text&quot;,Helvetica,sans-serif;font-weight:bold;" transform="matrix(1 0 0 1 263 1953)">Design Variations</text>
  <text style="stroke:none;fill:black;font-family:-apple-system,&quot;SF Pro Display&quot;,&quot;SF Pro Text&quot;,Helvetica,sans-serif;" transform="matrix(1 0 0 1 263 1971)">Symbols are supported in up to nine weights and three scales.</text>
  <text style="stroke:none;fill:black;font-family:-apple-system,&quot;SF Pro Display&quot;,&quot;SF Pro Text&quot;,Helvetica,sans-serif;" transform="matrix(1 0 0 1 263 1989)">For optimal layout with text and other symbols, vertically align</text>
  <text style="stroke:none;fill:black;font-family:-apple-system,&quot;SF Pro Display&quot;,&quot;SF Pro Text&quot;,Helvetica,sans-serif;" transform="matrix(1 0 0 1 263 2007)">symbols with the adjacent text.</text>
  <line id="" style="fill:none;stroke:#00AEEF;stroke-width:0.5;opacity:1.0;" x1="776" x2="776" y1="1919" y2="1933"/>
  <g id="" transform="matrix(1 0 0 1 776 1933)">
   <path d="M3.31055 0.126953C3.82812 0.126953 4.08203-0.0683594 4.26758-0.605469L5.52734-4.0625L11.2891-4.0625L12.5488-0.605469C12.7344-0.0683594 12.9883 0.126953 13.4961 0.126953C14.0137 0.126953 14.3457-0.185547 14.3457-0.673828C14.3457-0.839844 14.3164-0.986328 14.2383-1.20117L9.6582-13.3887C9.43359-13.9941 9.0332-14.2871 8.4082-14.2871C7.80273-14.2871 7.39258-13.9941 7.17773-13.3984L2.59766-1.19141C2.51953-0.976562 2.49023-0.830078 2.49023-0.664062C2.49023-0.175781 2.80273 0.126953 3.31055 0.126953ZM6.00586-5.53711L8.37891-12.1094L8.42773-12.1094L10.8008-5.53711Z"/>
  </g>
  <line id="" style="fill:none;stroke:#00AEEF;stroke-width:0.5;opacity:1.0;" x1="792.836" x2="792.836" y1="1919" y2="1933"/>
  <text style="stroke:none;fill:black;font-family:-apple-system,&quot;SF Pro Display&quot;,&quot;SF Pro Text&quot;,Helvetica,sans-serif;font-weight:bold;" transform="matrix(1 0 0 1 776 1953)">Margins</text>
  <text style="stroke:none;fill:black;font-family:-apple-system,&quot;SF Pro Display&quot;,&quot;SF Pro Text&quot;,Helvetica,sans-serif;" transform="matrix(1 0 0 1 776 1971)">Leading and trailing margins on the left and right side of each symbol</text>
  <text style="stroke:none;fill:black;font-family:-apple-system,&quot;SF Pro Display&quot;,&quot;SF Pro Text&quot;,Helvetica,sans-serif;" transform="matrix(1 0 0 1 776 1989)">can be adjusted by modifying the x-location of the margin guidelines.</text>
  <text style="stroke:none;fill:black;font-family:-apple-system,&quot;SF Pro Display&quot;,&quot;SF Pro Text&quot;,Helvetica,sans-serif;" transform="matrix(1 0 0 1 776 2007)">Modifications are automatically applied proportionally to all</text>
  <text style="stroke:none;fill:black;font-family:-apple-system,&quot;SF Pro Display&quot;,&quot;SF Pro Text&quot;,Helvetica,sans-serif;" transform="matrix(1 0 0 1 776 2025)">scales and weights.</text>
  <g id="" transform="matrix(1 0 0 1 1289 1933)">
   <path d="M2.8418 1.86523L4.54102 3.57422C5.40039 4.44336 6.38672 4.38477 7.31445 3.35938L17.4902-7.85156C17.7539-7.76367 18.0273-7.7832 18.3398-7.8418L19.4043-8.03711L20.0684-7.36328L20.0293-6.80664C19.9902-6.30859 20.1172-5.92773 20.6055-5.44922L21.3672-4.70703C21.8457-4.22852 22.4609-4.19922 22.9297-4.66797L25.8398-7.58789C26.3086-8.05664 26.2891-8.65234 25.8105-9.13086L25.0391-9.89258C24.5605-10.3711 24.1895-10.5273 23.7109-10.4883L23.1348-10.4395L22.4902-11.0742L22.7344-12.1973C22.8613-12.7637 22.7051-13.2031 22.1191-13.7891L19.9219-15.9766C16.582-19.2969 12.1484-19.2188 9.25781-16.3281C8.83789-15.918 8.80859-15.3418 9.04297-14.9512C9.27734-14.5898 9.73633-14.3555 10.3809-14.5215C11.8457-14.8633 13.3691-14.9219 14.7949-13.9844L14.209-12.5293C14.0137-12.0508 13.9844-11.6504 14.1113-11.2891L3.04688-0.898438C2.06055 0.0195312 1.98242 0.996094 2.8418 1.86523ZM10.752-15.957C13.1836-17.7344 16.4746-17.4316 18.7012-15.2051L21.1328-12.793C21.3672-12.5586 21.4062-12.373 21.3379-12.0312L21.0156-10.5469L22.5195-9.0625L23.5059-9.12109C23.7598-9.13086 23.8379-9.11133 24.0332-8.91602L24.6094-8.33984L22.168-5.89844L21.5918-6.47461C21.3965-6.66992 21.3672-6.74805 21.377-7.01172L21.4453-7.98828L19.9512-9.47266L18.4277-9.21875C18.1055-9.15039 17.959-9.17969 17.7148-9.41406L15.7129-11.416C15.459-11.6504 15.4297-11.8164 15.5859-12.1875L16.4648-14.2773C14.9023-15.7324 12.8711-16.3574 10.8398-15.7617C10.6836-15.7227 10.625-15.8496 10.752-15.957ZM5.27344 2.30469L4.10156 1.14258C3.63281 0.683594 3.74023 0.341797 4.14062-0.0195312L14.9512-10.1953L16.416-8.71094L6.42578 2.27539C6.07422 2.67578 5.74219 2.77344 5.27344 2.30469Z"/>
  </g>
  <text style="stroke:none;fill:black;font-family:-apple-system,&quot;SF Pro Display&quot;,&quot;SF Pro Text&quot;,Helvetica,sans-serif;font-weight:bold;" transform="matrix(1 0 0 1 1289 1953)">Exporting</text>
  <text style="stroke:none;fill:black;font-family:-apple-system,&quot;SF Pro Display&quot;,&quot;SF Pro Text&quot;,Helvetica,sans-serif;" transform="matrix(1 0 0 1 1289 1971)">Symbols should be outlined when exporting to ensure the</text>
  <text style="stroke:none;fill:black;font-family:-apple-system,&quot;SF Pro Display&quot;,&quot;SF Pro Text&quot;,Helvetica,sans-serif;" transform="matrix(1 0 0 1 1289 1989)">design is preserved when submitting to Xcode.</text>
  <text id="template-version" style="stroke:none;fill:black;font-family:-apple-system,&quot;SF Pro Display&quot;,&quot;SF Pro Text&quot;,Helvetica,sans-serif;text-anchor:end;" transform="matrix(1 0 0 1 3036 1933)">Template v.2.0</text>
  <text style="stroke:none;fill:black;font-family:-apple-system,&quot;SF Pro Display&quot;,&quot;SF Pro Text&quot;,Helvetica,sans-serif;text-anchor:end;" transform="matrix(1 0 0 1 3036 1951)">Requires Xcode 12 or greater</text>
  <text style="stroke:none;fill:black;font-family:-apple-system,&quot;SF Pro Display&quot;,&quot;SF Pro Text&quot;,Helvetica,sans-serif;" transform="matrix(1 0 0 1 263 726)">Small</text>
  <text style="stroke:none;fill:black;font-family:-apple-system,&quot;SF Pro Display&quot;,&quot;SF Pro Text&quot;,Helvetica,sans-serif;" transform="matrix(1 0 0 1 263 1156)">Medium</text>
  <text style="stroke:none;fill:black;font-family:-apple-system,&quot;SF Pro Display&quot;,&quot;SF Pro Text&quot;,Helvetica,sans-serif;" transform="matrix(1 0 0 1 263 1586)">Large</text>
 </g>
 <g id="Guides">
  <g id="H-reference" style="fill:#27AAE1;stroke:none;" transform="matrix(1 0 0 1 339 696)">
   <path d="M0.976562 0L3.66211 0L12.9883-24.4629L45.752-24.4629L55.127 0L57.7637 0L30.6152-70.459L28.125-70.459ZM29.3457-67.1387L29.4434-67.1387L44.873-26.709L13.8672-26.709Z"/>
  </g>
  <line id="Baseline-S" style="fill:none;stroke:#27AAE1;opacity:1;stroke-width:0.5;" x1="263" x2="3036" y1="696" y2="696"/>
  <line id="Capline-S" style="fill:none;stroke:#27AAE1;opacity:1;stroke-width:0.5;" x1="263" x2="3036" y1="625.541" y2="625.541"/>
  <g id="H-reference" style="fill:#27AAE1;stroke:none;" transform="matrix(1 0 0 1 339 1126)">
   <path d="M0.976562 0L3.66211 0L12.9883-24.4629L45.752-24.4629L55.127 0L57.7637 0L30.6152-70.459L28.125-70.459ZM29.3457-67.1387L29.4434-67.1387L44.873-26.709L13.8672-26.709Z"/>
  </g>
  <line id="Baseline-M" style="fill:none;stroke:#27AAE1;opacity:1;stroke-width:0.5;" x1="263" x2="3036" y1="1126" y2="1126"/>
  <line id="Capline-M" style="fill:none;stroke:#27AAE1;opacity:1;stroke-width:0.5;" x1="263" x2="3036" y1="1055.54" y2="1055.54"/>
  <g id="H-reference" style="fill:#27AAE1;stroke:none;" transform="matrix(1 0 0 1 339 1556)">
   <path d="M0.976562 0L3.66211 0L12.9883-24.4629L45.752-24.4629L55.127 0L57.7637 0L30.6152-70.459L28.125-70.459ZM29.3457-67.1387L29.4434-67.1387L44.873-26.709L13.8672-26.709Z"/>
  </g>
  <line id="Baseline-L" style="fill:none;stroke:#27AAE1;opacity:1;stroke-width:0.5;" x1="263" x2="3036" y1="1556" y2="1556"/>
  <line id="Capline-L" style="fill:none;stroke:#27AAE1;opacity:1;stroke-width:0.5;" x1="263" x2="3036" y1="1485.54" y2="1485.54"/>
  <line id="left-margin" x1="1406.5892389787946" x2="1406.5892389787946" y1="1030.79" y2="1150.12" style="fill:none;stroke:#00AEEF;stroke-width:0.5;opacity:1.0;"/>
  <line id="right-margin" x1="1495.6707610212052" x2="1495.6707610212052" y1="1030.79" y2="1150.12" style="fill:none;stroke:#00AEEF;stroke-width:0.5;opacity:1.0;"/>
 </g>
 <g id="Symbols">
  <g id="Black-L" transform="matrix(1.0,0.0,0.0,1.0,2880.576815708705,1466.6668352399554)">  <path fill-opacity="1" stroke-miterlimit="4" stroke-linecap="butt" fill-rule="nonzero" stroke-opacity="1" stroke-width="1px" stroke-linejoin="round" stroke="none" stroke-dasharray="none" fill="#000000" d="M11.578,68.531L11.578,3.607L3.607,11.578L104.599,11.578L97.315,0.369L82.888,32.831C81.972,34.892,81.972,37.245,82.888,39.306L97.315,71.768L104.599,60.559L3.607,60.559L11.578,68.531ZM-4.364,68.531C-4.364,72.933,-0.795,76.502,3.607,76.502L104.599,76.502C110.368,76.502,114.226,70.565,111.884,65.293L97.456,32.831L97.456,39.306L111.884,6.844C114.226,1.573,110.368,-4.364,104.599,-4.364L3.607,-4.364C-0.795,-4.364,-4.364,-0.795,-4.364,3.607L-4.364,68.531ZM-4.364,68.531L-4.364,108.206L11.578,108.206L11.578,68.531L-4.364,68.531Z"/>
</g>
  <g id="Heavy-L" transform="matrix(1.0,0.0,0.0,1.0,2583.866815708705,1466.6668352399554)">  <path stroke-linejoin="round" stroke-miterlimit="4" fill-rule="nonzero" stroke-dasharray="none" fill-opacity="1" stroke-width="1px" stroke="none" stroke-linecap="butt" fill="#000000" stroke-opacity="1" d="M10.705,68.531L10.705,3.607L3.607,10.705L104.599,10.705L98.113,0.724L83.685,33.186C82.87,35.021,82.87,37.116,83.685,38.952L98.113,71.414L104.599,61.432L3.607,61.432L10.705,68.531ZM-3.491,68.531C-3.491,72.451,-0.313,75.629,3.607,75.629L104.599,75.629C109.736,75.629,113.172,70.342,111.086,65.648L96.659,33.186L96.659,38.952L111.086,6.49C113.172,1.796,109.736,-3.491,104.599,-3.491L3.607,-3.491C-0.313,-3.491,-3.491,-0.313,-3.491,3.607L-3.491,68.531ZM-3.491,68.531L-3.491,108.206L10.705,108.206L10.705,68.531L-3.491,68.531Z"/>
</g>
  <g id="Bold-L" transform="matrix(1.0,0.0,0.0,1.0,2287.156815708705,1466.6668352399554)">  <path stroke-opacity="1" stroke-dasharray="none" fill-rule="nonzero" stroke-linejoin="round" stroke-miterlimit="4" fill="#000000" stroke-width="1px" stroke-linecap="butt" stroke="none" fill-opacity="1" d="M9.832,68.531L9.832,3.607L3.607,9.832L104.599,9.832L98.911,1.078L84.483,33.54C83.768,35.15,83.768,36.988,84.483,38.597L98.911,71.059L104.599,62.305L3.607,62.305L9.832,68.531ZM-2.619,68.531C-2.619,71.969,0.169,74.756,3.607,74.756L104.599,74.756C109.105,74.756,112.118,70.119,110.288,66.002L95.861,33.54L95.861,38.597L110.288,6.135C112.118,2.018,109.105,-2.619,104.599,-2.619L3.607,-2.619C0.169,-2.619,-2.619,0.169,-2.619,3.607L-2.619,68.531ZM-2.619,68.531L-2.619,108.206L9.832,108.206L9.832,68.531L-2.619,68.531Z"/>
</g>
  <g id="Semibold-L" transform="matrix(1.0,0.0,0.0,1.0,1990.4468157087053,1466.6668352399554)">  <path stroke-linejoin="round" stroke="none" stroke-dasharray="none" stroke-opacity="1" fill="#000000" stroke-miterlimit="4" stroke-width="1px" fill-opacity="1" fill-rule="nonzero" stroke-linecap="butt" d="M8.959,68.531L8.959,3.607L3.607,8.959L104.599,8.959L99.708,1.433L85.281,33.895C84.666,35.279,84.666,36.859,85.281,38.243L99.708,70.705L104.599,63.178L3.607,63.178L8.959,68.531ZM-1.746,68.531C-1.746,71.487,0.651,73.883,3.607,73.883L104.599,73.883C108.473,73.883,111.064,69.896,109.491,66.357L95.063,33.895L95.063,38.243L109.491,5.781C111.064,2.241,108.473,-1.746,104.599,-1.746L3.607,-1.746C0.651,-1.746,-1.746,0.651,-1.746,3.607L-1.746,68.531ZM-1.746,68.531L-1.746,108.206L8.959,108.206L8.959,68.531L-1.746,68.531Z"/>
</g>
  <g id="Medium-L" transform="matrix(1.0,0.0,0.0,1.0,1693.7368157087053,1466.6668352399554)">  <path stroke-width="1px" stroke-opacity="1" stroke="none" stroke-linejoin="round" stroke-dasharray="none" fill-rule="nonzero" fill="#000000" fill-opacity="1" stroke-linecap="butt" stroke-miterlimit="4" d="M8.087,68.531L8.087,3.607L3.607,8.087L104.599,8.087L100.506,1.787L86.078,34.249C85.564,35.408,85.564,36.73,86.078,37.888L100.506,70.35L104.599,64.051L3.607,64.051L8.087,68.531ZM-0.873,68.531C-0.873,71.005,1.133,73.01,3.607,73.01L104.599,73.01C107.841,73.01,110.01,69.674,108.693,66.711L94.266,34.249L94.266,37.888L108.693,5.426C110.01,2.464,107.841,-0.873,104.599,-0.873L3.607,-0.873C1.133,-0.873,-0.873,1.133,-0.873,3.607L-0.873,68.531ZM-0.873,68.531L-0.873,108.206L8.087,108.206L8.087,68.531L-0.873,68.531Z"/>
</g>
  <g id="Regular-L" transform="matrix(1.0,0.0,0.0,1.0,1397.0268157087053,1466.6668352399554)">  <path stroke-width="1px" fill-rule="nonzero" stroke-linecap="butt" stroke-miterlimit="4" fill="#000000" stroke-opacity="1" stroke="none" stroke-linejoin="round" stroke-dasharray="none" fill-opacity="1" d="M7.214,68.531L7.214,3.607L3.607,7.214L104.599,7.214L101.303,2.142L86.876,34.604C86.461,35.537,86.461,36.601,86.876,37.534L101.303,69.996L104.599,64.924L3.607,64.924L7.214,68.531ZM0,68.531C0,70.523,1.615,72.138,3.607,72.138L104.599,72.138C107.21,72.138,108.956,69.451,107.895,67.066L93.468,34.604L93.468,37.534L107.895,5.072C108.956,2.687,107.21,0,104.599,0L3.607,0C1.615,0,0,1.615,0,3.607L0,68.531ZM0,68.531L0,108.206L7.214,108.206L7.214,68.531L0,68.531Z"/>
</g>
  <g id="Light-L" transform="matrix(1.0,0.0,0.0,1.0,1100.3168157087055,1466.6668352399554)">  <path stroke-linecap="butt" fill="#000000" stroke-miterlimit="4" fill-opacity="1" stroke-width="1px" fill-rule="nonzero" stroke="none" stroke-dasharray="none" stroke-opacity="1" stroke-linejoin="round" d="M6.613,68.531L6.613,3.607L3.607,6.613L104.599,6.613L101.853,2.386L87.425,34.848C87.08,35.625,87.08,36.512,87.425,37.29L101.853,69.751L104.599,65.525L3.607,65.525L6.613,68.531ZM0.601,68.531C0.601,70.191,1.947,71.536,3.607,71.536L104.599,71.536C106.775,71.536,108.23,69.298,107.346,67.31L92.919,34.848L92.919,37.29L107.346,4.828C108.23,2.84,106.775,0.601,104.599,0.601L3.607,0.601C1.947,0.601,0.601,1.947,0.601,3.607L0.601,68.531ZM0.601,68.531L0.601,108.206L6.613,108.206L6.613,68.531L0.601,68.531Z"/>
</g>
  <g id="Thin-L" transform="matrix(1.0,0.0,0.0,1.0,803.6068157087054,1466.6668352399554)">  <path stroke-width="1px" fill="#000000" fill-rule="nonzero" stroke-opacity="1" stroke-linejoin="round" fill-opacity="1" stroke-dasharray="none" stroke="none" stroke-miterlimit="4" stroke-linecap="butt" d="M6.011,68.531L6.011,3.607L3.607,6.011L104.599,6.011L102.402,2.63L87.975,35.092C87.698,35.714,87.698,36.424,87.975,37.045L102.402,69.507L104.599,66.126L3.607,66.126L6.011,68.531ZM1.202,68.531C1.202,69.859,2.279,70.935,3.607,70.935L104.599,70.935C106.34,70.935,107.504,69.144,106.797,67.554L92.369,35.092L92.369,37.045L106.797,4.583C107.504,2.993,106.34,1.202,104.599,1.202L3.607,1.202C2.279,1.202,1.202,2.279,1.202,3.607L1.202,68.531ZM1.202,68.531L1.202,108.206L6.011,108.206L6.011,68.531L1.202,68.531Z"/>
</g>
  <g id="Ultralight-L" transform="matrix(1.0,0.0,0.0,1.0,506.89681570870533,1466.6668352399554)">  <path stroke-miterlimit="4" stroke-width="1px" fill-opacity="1" stroke-opacity="1" stroke-dasharray="none" fill="#000000" stroke-linejoin="round" stroke-linecap="butt" fill-rule="nonzero" stroke="none" d="M5.41,68.531L5.41,3.607L3.607,5.41L104.599,5.41L102.951,2.874L88.524,35.336C88.317,35.803,88.317,36.335,88.524,36.801L102.951,69.263L104.599,66.727L3.607,66.727L5.41,68.531ZM1.803,68.531C1.803,69.527,2.611,70.334,3.607,70.334L104.599,70.334C105.905,70.334,106.778,68.991,106.247,67.798L91.82,35.336L91.82,36.801L106.247,4.339C106.778,3.147,105.905,1.803,104.599,1.803L3.607,1.803C2.611,1.803,1.803,2.611,1.803,3.607L1.803,68.531ZM1.803,68.531L1.803,108.206L5.41,108.206L5.41,68.531L1.803,68.531Z"/>
</g>
  <g id="Black-M" transform="matrix(1.0,0.0,0.0,1.0,2892.7395470610118,1048.829566592262)">  <path fill-opacity="1" stroke-miterlimit="4" stroke-linecap="butt" fill-rule="nonzero" stroke-opacity="1" stroke-width="1px" stroke-linejoin="round" stroke="none" stroke-dasharray="none" fill="#000000" d="M8.975,53.125L8.975,2.796L2.796,8.975L81.085,8.975L75.438,0.286L64.254,25.451C63.544,27.048,63.544,28.872,64.254,30.47L75.438,55.634L81.085,46.945L2.796,46.945L8.975,53.125ZM-3.383,53.125C-3.383,56.537,-0.617,59.304,2.796,59.304L81.085,59.304C85.557,59.304,88.548,54.701,86.732,50.615L75.547,25.451L75.547,30.47L86.732,5.306C88.548,1.219,85.557,-3.383,81.085,-3.383L2.796,-3.383C-0.617,-3.383,-3.383,-0.617,-3.383,2.796L-3.383,53.125ZM-3.383,53.125L-3.383,83.881L8.975,83.881L8.975,53.125L-3.383,53.125Z"/>
</g>
  <g id="Heavy-M" transform="matrix(1.0,0.0,0.0,1.0,2596.0295470610117,1048.829566592262)">  <path stroke-linejoin="round" stroke-miterlimit="4" fill-rule="nonzero" stroke-dasharray="none" fill-opacity="1" stroke-width="1px" stroke="none" stroke-linecap="butt" fill="#000000" stroke-opacity="1" d="M8.299,53.125L8.299,2.796L2.796,8.299L81.085,8.299L76.057,0.561L64.872,25.725C64.24,27.148,64.24,28.772,64.872,30.195L76.057,55.359L81.085,47.622L2.796,47.622L8.299,53.125ZM-2.707,53.125C-2.707,56.164,-0.243,58.627,2.796,58.627L81.085,58.627C85.067,58.627,87.73,54.529,86.113,50.89L74.929,25.725L74.929,30.195L86.113,5.031C87.73,1.392,85.067,-2.707,81.085,-2.707L2.796,-2.707C-0.243,-2.707,-2.707,-0.243,-2.707,2.796L-2.707,53.125ZM-2.707,53.125L-2.707,83.881L8.299,83.881L8.299,53.125L-2.707,53.125Z"/>
</g>
  <g id="Bold-M" transform="matrix(1.0,0.0,0.0,1.0,2299.3195470610117,1048.829566592262)">  <path stroke-opacity="1" stroke-dasharray="none" fill-rule="nonzero" stroke-linejoin="round" stroke-miterlimit="4" fill="#000000" stroke-width="1px" stroke-linecap="butt" stroke="none" fill-opacity="1" d="M7.622,53.125L7.622,2.796L2.796,7.622L81.085,7.622L76.675,0.836L65.491,26C64.936,27.248,64.936,28.672,65.491,29.92L76.675,55.085L81.085,48.299L2.796,48.299L7.622,53.125ZM-2.03,53.125C-2.03,55.79,0.131,57.951,2.796,57.951L81.085,57.951C84.577,57.951,86.913,54.356,85.495,51.165L74.311,26L74.311,29.92L85.495,4.756C86.913,1.565,84.577,-2.03,81.085,-2.03L2.796,-2.03C0.131,-2.03,-2.03,0.131,-2.03,2.796L-2.03,53.125ZM-2.03,53.125L-2.03,83.881L7.622,83.881L7.622,53.125L-2.03,53.125Z"/>
</g>
  <g id="Semibold-M" transform="matrix(1.0,0.0,0.0,1.0,2002.6095470610119,1048.829566592262)">  <path stroke-linejoin="round" stroke="none" stroke-dasharray="none" stroke-opacity="1" fill="#000000" stroke-miterlimit="4" stroke-width="1px" fill-opacity="1" fill-rule="nonzero" stroke-linecap="butt" d="M6.945,53.125L6.945,2.796L2.796,6.945L81.085,6.945L77.293,1.111L66.109,26.275C65.632,27.348,65.632,28.573,66.109,29.645L77.293,54.81L81.085,48.975L2.796,48.975L6.945,53.125ZM-1.353,53.125C-1.353,55.416,0.504,57.274,2.796,57.274L81.085,57.274C84.088,57.274,86.096,54.183,84.877,51.439L73.692,26.275L73.692,29.645L84.877,4.481C86.096,1.737,84.088,-1.353,81.085,-1.353L2.796,-1.353C0.504,-1.353,-1.353,0.504,-1.353,2.796L-1.353,53.125ZM-1.353,53.125L-1.353,83.881L6.945,83.881L6.945,53.125L-1.353,53.125Z"/>
</g>
  <g id="Medium-M" transform="matrix(1.0,0.0,0.0,1.0,1705.8995470610118,1048.829566592262)">  <path stroke-width="1px" stroke-opacity="1" stroke="none" stroke-linejoin="round" stroke-dasharray="none" fill-rule="nonzero" fill="#000000" fill-opacity="1" stroke-linecap="butt" stroke-miterlimit="4" d="M6.269,53.125L6.269,2.796L2.796,6.269L81.085,6.269L77.912,1.386L66.727,26.55C66.328,27.448,66.328,28.473,66.727,29.371L77.912,54.535L81.085,49.652L2.796,49.652L6.269,53.125ZM-0.677,53.125C-0.677,55.042,0.878,56.597,2.796,56.597L81.085,56.597C83.598,56.597,85.279,54.011,84.258,51.714L73.074,26.55L73.074,29.371L84.258,4.206C85.279,1.91,83.598,-0.677,81.085,-0.677L2.796,-0.677C0.878,-0.677,-0.677,0.878,-0.677,2.796L-0.677,53.125ZM-0.677,53.125L-0.677,83.881L6.269,83.881L6.269,53.125L-0.677,53.125Z"/>
</g>
  <g id="Regular-M" transform="matrix(1.0,0.0,0.0,1.0,1409.1895470610118,1048.829566592262)">  <path stroke-width="1px" fill-rule="nonzero" stroke-linecap="butt" stroke-miterlimit="4" fill="#000000" stroke-opacity="1" stroke="none" stroke-linejoin="round" stroke-dasharray="none" fill-opacity="1" d="M5.592,53.125L5.592,2.796L2.796,5.592L81.085,5.592L78.53,1.66L67.346,26.825C67.024,27.548,67.024,28.373,67.346,29.096L78.53,54.26L81.085,50.329L2.796,50.329L5.592,53.125ZM0,53.125C0,54.669,1.252,55.921,2.796,55.921L81.085,55.921C83.108,55.921,84.462,53.838,83.64,51.989L72.456,26.825L72.456,29.096L83.64,3.932C84.462,2.083,83.108,0,81.085,0L2.796,0C1.252,0,0,1.252,0,2.796L0,53.125ZM0,53.125L0,83.881L5.592,83.881L5.592,53.125L0,53.125Z"/>
</g>
  <g id="Light-M" transform="matrix(1.0,0.0,0.0,1.0,1112.479547061012,1048.829566592262)">  <path stroke-linecap="butt" fill="#000000" stroke-miterlimit="4" fill-opacity="1" stroke-width="1px" fill-rule="nonzero" stroke="none" stroke-dasharray="none" stroke-opacity="1" stroke-linejoin="round" d="M5.126,53.125L5.126,2.796L2.796,5.126L81.085,5.126L78.956,1.85L67.772,27.014C67.504,27.616,67.504,28.304,67.772,28.907L78.956,54.071L81.085,50.795L2.796,50.795L5.126,53.125ZM0.466,53.125C0.466,54.411,1.509,55.455,2.796,55.455L81.085,55.455C82.771,55.455,83.899,53.719,83.214,52.178L72.03,27.014L72.03,28.907L83.214,3.742C83.899,2.202,82.771,0.466,81.085,0.466L2.796,0.466C1.509,0.466,0.466,1.509,0.466,2.796L0.466,53.125ZM0.466,53.125L0.466,83.881L5.126,83.881L5.126,53.125L0.466,53.125Z"/>
</g>
  <g id="Thin-M" transform="matrix(1.0,0.0,0.0,1.0,815.769547061012,1048.829566592262)">  <path stroke-width="1px" fill="#000000" fill-rule="nonzero" stroke-opacity="1" stroke-linejoin="round" fill-opacity="1" stroke-dasharray="none" stroke="none" stroke-miterlimit="4" stroke-linecap="butt" d="M4.66,53.125L4.66,2.796L2.796,4.66L81.085,4.66L79.382,2.039L68.197,27.203C67.983,27.685,67.983,28.235,68.197,28.717L79.382,53.882L81.085,51.261L2.796,51.261L4.66,53.125ZM0.932,53.125C0.932,54.154,1.767,54.989,2.796,54.989L81.085,54.989C82.434,54.989,83.336,53.6,82.788,52.368L71.604,27.203L71.604,28.717L82.788,3.553C83.336,2.32,82.434,0.932,81.085,0.932L2.796,0.932C1.767,0.932,0.932,1.767,0.932,2.796L0.932,53.125ZM0.932,53.125L0.932,83.881L4.66,83.881L4.66,53.125L0.932,53.125Z"/>
</g>
  <g id="Ultralight-M" transform="matrix(1.0,0.0,0.0,1.0,519.0595470610119,1048.829566592262)">  <path stroke-miterlimit="4" stroke-width="1px" fill-opacity="1" stroke-opacity="1" stroke-dasharray="none" fill="#000000" stroke-linejoin="round" stroke-linecap="butt" fill-rule="nonzero" stroke="none" d="M4.194,53.125L4.194,2.796L2.796,4.194L81.085,4.194L79.807,2.228L68.623,27.393C68.463,27.754,68.463,28.167,68.623,28.528L79.807,53.692L81.085,51.727L2.796,51.727L4.194,53.125ZM1.398,53.125C1.398,53.897,2.024,54.523,2.796,54.523L81.085,54.523C82.097,54.523,82.773,53.481,82.362,52.557L71.178,27.393L71.178,28.528L82.362,3.364C82.773,2.439,82.097,1.398,81.085,1.398L2.796,1.398C2.024,1.398,1.398,2.024,1.398,2.796L1.398,53.125ZM1.398,53.125L1.398,83.881L4.194,83.881L4.194,53.125L1.398,53.125Z"/>
</g>
  <g id="Black-S" transform="matrix(1.0,0.0,0.0,1.0,2901.840625348772,627.9306448800223)">  <path fill-opacity="1" stroke-miterlimit="4" stroke-linecap="butt" fill-rule="nonzero" stroke-opacity="1" stroke-width="1px" stroke-linejoin="round" stroke="none" stroke-dasharray="none" fill="#000000" d="M7.028,41.597L7.028,2.189L2.189,7.028L63.489,7.028L59.068,0.224L50.311,19.928C49.755,21.179,49.755,22.607,50.311,23.858L59.068,43.562L63.489,36.758L2.189,36.758L7.028,41.597ZM-2.649,41.597C-2.649,44.269,-0.483,46.435,2.189,46.435L63.489,46.435C66.991,46.435,69.333,42.831,67.911,39.632L59.154,19.928L59.154,23.858L67.911,4.154C69.333,0.955,66.991,-2.649,63.489,-2.649L2.189,-2.649C-0.483,-2.649,-2.649,-0.483,-2.649,2.189L-2.649,41.597ZM-2.649,41.597L-2.649,65.679L7.028,65.679L7.028,41.597L-2.649,41.597Z"/>
</g>
  <g id="Heavy-S" transform="matrix(1.0,0.0,0.0,1.0,2605.130625348772,627.9306448800223)">  <path stroke-linejoin="round" stroke-miterlimit="4" fill-rule="nonzero" stroke-dasharray="none" fill-opacity="1" stroke-width="1px" stroke="none" stroke-linecap="butt" fill="#000000" stroke-opacity="1" d="M6.498,41.597L6.498,2.189L2.189,6.498L63.489,6.498L59.552,0.439L50.795,20.143C50.3,21.257,50.3,22.529,50.795,23.643L59.552,43.346L63.489,37.288L2.189,37.288L6.498,41.597ZM-2.119,41.597C-2.119,43.976,-0.19,45.905,2.189,45.905L63.489,45.905C66.607,45.905,68.693,42.696,67.427,39.847L58.669,20.143L58.669,23.643L67.427,3.939C68.693,1.09,66.607,-2.119,63.489,-2.119L2.189,-2.119C-0.19,-2.119,-2.119,-0.19,-2.119,2.189L-2.119,41.597ZM-2.119,41.597L-2.119,65.679L6.498,65.679L6.498,41.597L-2.119,41.597Z"/>
</g>
  <g id="Bold-S" transform="matrix(1.0,0.0,0.0,1.0,2308.420625348772,627.9306448800223)">  <path stroke-opacity="1" stroke-dasharray="none" fill-rule="nonzero" stroke-linejoin="round" stroke-miterlimit="4" fill="#000000" stroke-width="1px" stroke-linecap="butt" stroke="none" fill-opacity="1" d="M5.968,41.597L5.968,2.189L2.189,5.968L63.489,5.968L60.036,0.655L51.279,20.358C50.845,21.335,50.845,22.451,51.279,23.428L60.036,43.131L63.489,37.818L2.189,37.818L5.968,41.597ZM-1.589,41.597C-1.589,43.683,0.102,45.375,2.189,45.375L63.489,45.375C66.224,45.375,68.053,42.561,66.942,40.062L58.185,20.358L58.185,23.428L66.942,3.724C68.053,1.225,66.224,-1.589,63.489,-1.589L2.189,-1.589C0.102,-1.589,-1.589,0.102,-1.589,2.189L-1.589,41.597ZM-1.589,41.597L-1.589,65.679L5.968,65.679L5.968,41.597L-1.589,41.597Z"/>
</g>
  <g id="Semibold-S" transform="matrix(1.0,0.0,0.0,1.0,2011.7106253487723,627.9306448800223)">  <path stroke-linejoin="round" stroke="none" stroke-dasharray="none" stroke-opacity="1" fill="#000000" stroke-miterlimit="4" stroke-width="1px" fill-opacity="1" fill-rule="nonzero" stroke-linecap="butt" d="M5.438,41.597L5.438,2.189L2.189,5.438L63.489,5.438L60.521,0.87L51.763,20.573C51.39,21.413,51.39,22.372,51.763,23.212L60.521,42.916L63.489,38.348L2.189,38.348L5.438,41.597ZM-1.06,41.597C-1.06,43.391,0.395,44.845,2.189,44.845L63.489,44.845C65.841,44.845,67.413,42.425,66.458,40.277L57.701,20.573L57.701,23.212L66.458,3.509C67.413,1.36,65.841,-1.06,63.489,-1.06L2.189,-1.06C0.395,-1.06,-1.06,0.395,-1.06,2.189L-1.06,41.597ZM-1.06,41.597L-1.06,65.679L5.438,65.679L5.438,41.597L-1.06,41.597Z"/>
</g>
  <g id="Medium-S" transform="matrix(1.0,0.0,0.0,1.0,1715.0006253487722,627.9306448800223)">  <path stroke-width="1px" stroke-opacity="1" stroke="none" stroke-linejoin="round" stroke-dasharray="none" fill-rule="nonzero" fill="#000000" fill-opacity="1" stroke-linecap="butt" stroke-miterlimit="4" d="M4.908,41.597L4.908,2.189L2.189,4.908L63.489,4.908L61.005,1.085L52.248,20.789C51.935,21.492,51.935,22.294,52.248,22.997L61.005,42.701L63.489,38.877L2.189,38.877L4.908,41.597ZM-0.53,41.597C-0.53,43.098,0.688,44.316,2.189,44.316L63.489,44.316C65.457,44.316,66.773,42.29,65.974,40.492L57.217,20.789L57.217,22.997L65.974,3.294C66.773,1.496,65.457,-0.53,63.489,-0.53L2.189,-0.53C0.688,-0.53,-0.53,0.688,-0.53,2.189L-0.53,41.597ZM-0.53,41.597L-0.53,65.679L4.908,65.679L4.908,41.597L-0.53,41.597Z"/>
</g>
  <g id="Regular-S" transform="matrix(1.0,0.0,0.0,1.0,1418.2906253487722,627.9306448800223)">  <path stroke-width="1px" fill-rule="nonzero" stroke-linecap="butt" stroke-miterlimit="4" fill="#000000" stroke-opacity="1" stroke="none" stroke-linejoin="round" stroke-dasharray="none" fill-opacity="1" d="M4.379,41.597L4.379,2.189L2.189,4.379L63.489,4.379L61.489,1.3L52.732,21.004C52.48,21.57,52.48,22.216,52.732,22.782L61.489,42.486L63.489,39.407L2.189,39.407L4.379,41.597ZM0,41.597C0,42.806,0.98,43.786,2.189,43.786L63.489,43.786C65.074,43.786,66.134,42.155,65.49,40.707L56.733,21.004L56.733,22.782L65.49,3.078C66.134,1.631,65.074,0,63.489,0L2.189,0C0.98,0,0,0.98,0,2.189L0,41.597ZM0,41.597L0,65.679L4.379,65.679L4.379,41.597L0,41.597Z"/>
</g>
  <g id="Light-S" transform="matrix(1.0,0.0,0.0,1.0,1121.5806253487724,627.9306448800223)">  <path stroke-linecap="butt" fill="#000000" stroke-miterlimit="4" fill-opacity="1" stroke-width="1px" fill-rule="nonzero" stroke="none" stroke-dasharray="none" stroke-opacity="1" stroke-linejoin="round" d="M4.014,41.597L4.014,2.189L2.189,4.014L63.489,4.014L61.822,1.448L53.065,21.152C52.855,21.624,52.855,22.162,53.065,22.634L61.822,42.338L63.489,39.772L2.189,39.772L4.014,41.597ZM0.365,41.597C0.365,42.604,1.182,43.421,2.189,43.421L63.489,43.421C64.81,43.421,65.693,42.062,65.157,40.856L56.399,21.152L56.399,22.634L65.157,2.93C65.693,1.724,64.81,0.365,63.489,0.365L2.189,0.365C1.182,0.365,0.365,1.182,0.365,2.189L0.365,41.597ZM0.365,41.597L0.365,65.679L4.014,65.679L4.014,41.597L0.365,41.597Z"/>
</g>
  <g id="Thin-S" transform="matrix(1.0,0.0,0.0,1.0,824.8706253487724,627.9306448800223)">  <path stroke-width="1px" fill="#000000" fill-rule="nonzero" stroke-opacity="1" stroke-linejoin="round" fill-opacity="1" stroke-dasharray="none" stroke="none" stroke-miterlimit="4" stroke-linecap="butt" d="M3.649,41.597L3.649,2.189L2.189,3.649L63.489,3.649L62.156,1.597L53.399,21.3C53.231,21.678,53.231,22.108,53.399,22.486L62.156,42.189L63.489,40.137L2.189,40.137L3.649,41.597ZM0.73,41.597C0.73,42.403,1.383,43.056,2.189,43.056L63.489,43.056C64.546,43.056,65.252,41.969,64.823,41.004L56.066,21.3L56.066,22.486L64.823,2.782C65.252,1.817,64.546,0.73,63.489,0.73L2.189,0.73C1.383,0.73,0.73,1.383,0.73,2.189L0.73,41.597ZM0.73,41.597L0.73,65.679L3.649,65.679L3.649,41.597L0.73,41.597Z"/>
</g>
  <g id="Ultralight-S" transform="matrix(1.0,0.0,0.0,1.0,528.1606253487723,627.9306448800223)">  <path stroke-miterlimit="4" stroke-width="1px" fill-opacity="1" stroke-opacity="1" stroke-dasharray="none" fill="#000000" stroke-linejoin="round" stroke-linecap="butt" fill-rule="nonzero" stroke="none" d="M3.284,41.597L3.284,2.189L2.189,3.284L63.489,3.284L62.489,1.745L53.732,21.448C53.606,21.731,53.606,22.054,53.732,22.337L62.489,42.041L63.489,40.502L2.189,40.502L3.284,41.597ZM1.095,41.597C1.095,42.201,1.585,42.691,2.189,42.691L63.489,42.691C64.282,42.691,64.811,41.876,64.49,41.152L55.733,21.448L55.733,22.337L64.49,2.634C64.811,1.91,64.282,1.095,63.489,1.095L2.189,1.095C1.585,1.095,1.095,1.585,1.095,2.189L1.095,41.597ZM1.095,41.597L1.095,65.679L3.284,65.679L3.284,41.597L1.095,41.597Z"/>
</g>
 </g>
</svg>
