<?xml version="1.0" encoding="UTF-8"?>
<!-- Generator: CustomSymbols v2.6.2.41 by @serious_bret https://bretlester.com/app_content/CustomSymbols/ -->
<!-- Guides: Left/Right -0.031/-0.031 Cap/Base 0.08/0.08 -->
<!-- Settings: RefScale 1.0 Min/Max Stroke Scales 0.5/2.21 -->
<!DOCTYPE svg
PUBLIC "-//W3C//DTD SVG 1.1//EN"
       "http://www.w3.org/Graphics/SVG/1.1/DTD/svg11.dtd">
<svg version="1.1" xmlns="http://www.w3.org/2000/svg" xmlns:xlink="http://www.w3.org/1999/xlink" width="3300" height="2200">
<![CDATA[<svg width="15" height="15" viewBox="0 0 15 15" fill="none" xmlns="http://www.w3.org/2000/svg">
<path d="M0 14.5H15M5.5 12V6M9.5 12V3M13.5 12V0M1.5 9V12" stroke="#1D1929"/>
</svg>
]]>
 <g id="Notes">
  <rect height="2200" id="artboard" style="fill:white;opacity:1" width="3300" x="0" y="0"/>
  <line id="" style="fill:none;stroke:black;opacity:1;stroke-width:0.5;" x1="263" x2="3036" y1="292" y2="292"/>
  <text id="reftext1" style="stroke:none;fill:black;font-family:-apple-system,&quot;SF Pro Display&quot;,&quot;SF Pro Text&quot;,Helvetica,sans-serif;font-weight:bold;" transform="matrix(1 0 0 1 263 322)">Weight/Scale Variations</text>
  <text id="reftext2" style="stroke:none;fill:black;font-family:-apple-system,&quot;SF Pro Display&quot;,&quot;SF Pro Text&quot;,Helvetica,sans-serif;text-anchor:middle;" transform="matrix(1 0 0 1 559.711 322)">Ultralight</text>
  <text style="stroke:none;fill:black;font-family:-apple-system,&quot;SF Pro Display&quot;,&quot;SF Pro Text&quot;,Helvetica,sans-serif;text-anchor:middle;" transform="matrix(1 0 0 1 856.422 322)">Thin</text>
  <text style="stroke:none;fill:black;font-family:-apple-system,&quot;SF Pro Display&quot;,&quot;SF Pro Text&quot;,Helvetica,sans-serif;text-anchor:middle;" transform="matrix(1 0 0 1 1153.13 322)">Light</text>
  <text style="stroke:none;fill:black;font-family:-apple-system,&quot;SF Pro Display&quot;,&quot;SF Pro Text&quot;,Helvetica,sans-serif;text-anchor:middle;" transform="matrix(1 0 0 1 1449.84 322)">Regular</text>
  <text style="stroke:none;fill:black;font-family:-apple-system,&quot;SF Pro Display&quot;,&quot;SF Pro Text&quot;,Helvetica,sans-serif;text-anchor:middle;" transform="matrix(1 0 0 1 1746.56 322)">Medium</text>
  <text style="stroke:none;fill:black;font-family:-apple-system,&quot;SF Pro Display&quot;,&quot;SF Pro Text&quot;,Helvetica,sans-serif;text-anchor:middle;" transform="matrix(1 0 0 1 2043.27 322)">Semibold</text>
  <text style="stroke:none;fill:black;font-family:-apple-system,&quot;SF Pro Display&quot;,&quot;SF Pro Text&quot;,Helvetica,sans-serif;text-anchor:middle;" transform="matrix(1 0 0 1 2339.98 322)">Bold</text>
  <text style="stroke:none;fill:black;font-family:-apple-system,&quot;SF Pro Display&quot;,&quot;SF Pro Text&quot;,Helvetica,sans-serif;text-anchor:middle;" transform="matrix(1 0 0 1 2636.69 322)">Heavy</text>
  <text style="stroke:none;fill:black;font-family:-apple-system,&quot;SF Pro Display&quot;,&quot;SF Pro Text&quot;,Helvetica,sans-serif;text-anchor:middle;" transform="matrix(1 0 0 1 2933.4 322)">Black</text>
  <line id="" style="fill:none;stroke:black;opacity:1;stroke-width:0.5;" x1="263" x2="3036" y1="1903" y2="1903"/>
  <g id="" transform="matrix(1 0 0 1 263 1933)">
   <path d="M9.24805 0.830078C13.5547 0.830078 17.1387-2.74414 17.1387-7.05078C17.1387-11.3574 13.5449-14.9316 9.23828-14.9316C4.94141-14.9316 1.36719-11.3574 1.36719-7.05078C1.36719-2.74414 4.95117 0.830078 9.24805 0.830078ZM9.24805-0.654297C5.70312-0.654297 2.87109-3.49609 2.87109-7.05078C2.87109-10.6055 5.69336-13.4473 9.23828-13.4473C12.793-13.4473 15.6348-10.6055 15.6445-7.05078C15.6543-3.49609 12.8027-0.654297 9.24805-0.654297ZM6.39648-6.31836L8.50586-6.31836L8.50586-4.19922C8.50586-3.75977 8.79883-3.45703 9.22852-3.45703C9.67773-3.45703 9.9707-3.75977 9.9707-4.19922L9.9707-6.31836L12.0996-6.31836C12.5391-6.31836 12.8418-6.61133 12.8418-7.04102C12.8418-7.48047 12.5391-7.7832 12.0996-7.7832L9.9707-7.7832L9.9707-9.89258C9.9707-10.3418 9.67773-10.6445 9.22852-10.6445C8.79883-10.6445 8.50586-10.3418 8.50586-9.89258L8.50586-7.7832L6.39648-7.7832C5.94727-7.7832 5.64453-7.48047 5.64453-7.04102C5.64453-6.61133 5.94727-6.31836 6.39648-6.31836Z"/>
  </g>
  <g id="" transform="matrix(1 0 0 1 281.506 1933)">
   <path d="M11.709 2.91016C17.1582 2.91016 21.6699-1.61133 21.6699-7.05078C21.6699-12.5 17.1484-17.0117 11.6992-17.0117C6.25977-17.0117 1.74805-12.5 1.74805-7.05078C1.74805-1.61133 6.26953 2.91016 11.709 2.91016ZM11.709 1.25C7.09961 1.25 3.41797-2.44141 3.41797-7.05078C3.41797-11.6602 7.08984-15.3516 11.6992-15.3516C16.3086-15.3516 20-11.6602 20.0098-7.05078C20.0195-2.44141 16.3184 1.25 11.709 1.25ZM7.98828-6.23047L10.8789-6.23047L10.8789-3.32031C10.8789-2.83203 11.2109-2.5 11.6895-2.5C12.1777-2.5 12.5195-2.83203 12.5195-3.32031L12.5195-6.23047L15.4297-6.23047C15.918-6.23047 16.25-6.5625 16.25-7.04102C16.25-7.5293 15.918-7.87109 15.4297-7.87109L12.5195-7.87109L12.5195-10.7617C12.5195-11.2695 12.1777-11.6016 11.6895-11.6016C11.2109-11.6016 10.8789-11.2598 10.8789-10.7617L10.8789-7.87109L7.98828-7.87109C7.48047-7.87109 7.14844-7.5293 7.14844-7.04102C7.14844-6.5625 7.49023-6.23047 7.98828-6.23047Z"/>
  </g>
  <g id="" transform="matrix(1 0 0 1 304.924 1933)">
   <path d="M14.9707 5.66406C21.9336 5.66406 27.6953-0.0976562 27.6953-7.05078C27.6953-14.0137 21.9238-19.7754 14.9609-19.7754C8.00781-19.7754 2.25586-14.0137 2.25586-7.05078C2.25586-0.0976562 8.01758 5.66406 14.9707 5.66406ZM14.9707 3.84766C8.93555 3.84766 4.08203-1.01562 4.08203-7.05078C4.08203-13.0957 8.92578-17.9492 14.9609-17.9492C21.0059-17.9492 25.8594-13.0957 25.8691-7.05078C25.8789-1.01562 21.0156 3.84766 14.9707 3.84766ZM10.0586-6.14258L14.0625-6.14258L14.0625-2.12891C14.0625-1.5918 14.4336-1.2207 14.9512-1.2207C15.4883-1.2207 15.8594-1.5918 15.8594-2.12891L15.8594-6.14258L19.8828-6.14258C20.4102-6.14258 20.791-6.51367 20.791-7.03125C20.791-7.56836 20.4199-7.94922 19.8828-7.94922L15.8594-7.94922L15.8594-11.9531C15.8594-12.5098 15.4883-12.8809 14.9512-12.8809C14.4336-12.8809 14.0625-12.5 14.0625-11.9531L14.0625-7.94922L10.0586-7.94922C9.50195-7.94922 9.13086-7.56836 9.13086-7.03125C9.13086-6.51367 9.51172-6.14258 10.0586-6.14258Z"/>
  </g>
  <text style="stroke:none;fill:black;font-family:-apple-system,&quot;SF Pro Display&quot;,&quot;SF Pro Text&quot;,Helvetica,sans-serif;font-weight:bold;" transform="matrix(1 0 0 1 263 1953)">Design Variations</text>
  <text style="stroke:none;fill:black;font-family:-apple-system,&quot;SF Pro Display&quot;,&quot;SF Pro Text&quot;,Helvetica,sans-serif;" transform="matrix(1 0 0 1 263 1971)">Symbols are supported in up to nine weights and three scales.</text>
  <text style="stroke:none;fill:black;font-family:-apple-system,&quot;SF Pro Display&quot;,&quot;SF Pro Text&quot;,Helvetica,sans-serif;" transform="matrix(1 0 0 1 263 1989)">For optimal layout with text and other symbols, vertically align</text>
  <text style="stroke:none;fill:black;font-family:-apple-system,&quot;SF Pro Display&quot;,&quot;SF Pro Text&quot;,Helvetica,sans-serif;" transform="matrix(1 0 0 1 263 2007)">symbols with the adjacent text.</text>
  <line id="" style="fill:none;stroke:#00AEEF;stroke-width:0.5;opacity:1.0;" x1="776" x2="776" y1="1919" y2="1933"/>
  <g id="" transform="matrix(1 0 0 1 776 1933)">
   <path d="M3.31055 0.126953C3.82812 0.126953 4.08203-0.0683594 4.26758-0.605469L5.52734-4.0625L11.2891-4.0625L12.5488-0.605469C12.7344-0.0683594 12.9883 0.126953 13.4961 0.126953C14.0137 0.126953 14.3457-0.185547 14.3457-0.673828C14.3457-0.839844 14.3164-0.986328 14.2383-1.20117L9.6582-13.3887C9.43359-13.9941 9.0332-14.2871 8.4082-14.2871C7.80273-14.2871 7.39258-13.9941 7.17773-13.3984L2.59766-1.19141C2.51953-0.976562 2.49023-0.830078 2.49023-0.664062C2.49023-0.175781 2.80273 0.126953 3.31055 0.126953ZM6.00586-5.53711L8.37891-12.1094L8.42773-12.1094L10.8008-5.53711Z"/>
  </g>
  <line id="" style="fill:none;stroke:#00AEEF;stroke-width:0.5;opacity:1.0;" x1="792.836" x2="792.836" y1="1919" y2="1933"/>
  <text style="stroke:none;fill:black;font-family:-apple-system,&quot;SF Pro Display&quot;,&quot;SF Pro Text&quot;,Helvetica,sans-serif;font-weight:bold;" transform="matrix(1 0 0 1 776 1953)">Margins</text>
  <text style="stroke:none;fill:black;font-family:-apple-system,&quot;SF Pro Display&quot;,&quot;SF Pro Text&quot;,Helvetica,sans-serif;" transform="matrix(1 0 0 1 776 1971)">Leading and trailing margins on the left and right side of each symbol</text>
  <text style="stroke:none;fill:black;font-family:-apple-system,&quot;SF Pro Display&quot;,&quot;SF Pro Text&quot;,Helvetica,sans-serif;" transform="matrix(1 0 0 1 776 1989)">can be adjusted by modifying the x-location of the margin guidelines.</text>
  <text style="stroke:none;fill:black;font-family:-apple-system,&quot;SF Pro Display&quot;,&quot;SF Pro Text&quot;,Helvetica,sans-serif;" transform="matrix(1 0 0 1 776 2007)">Modifications are automatically applied proportionally to all</text>
  <text style="stroke:none;fill:black;font-family:-apple-system,&quot;SF Pro Display&quot;,&quot;SF Pro Text&quot;,Helvetica,sans-serif;" transform="matrix(1 0 0 1 776 2025)">scales and weights.</text>
  <g id="" transform="matrix(1 0 0 1 1289 1933)">
   <path d="M2.8418 1.86523L4.54102 3.57422C5.40039 4.44336 6.38672 4.38477 7.31445 3.35938L17.4902-7.85156C17.7539-7.76367 18.0273-7.7832 18.3398-7.8418L19.4043-8.03711L20.0684-7.36328L20.0293-6.80664C19.9902-6.30859 20.1172-5.92773 20.6055-5.44922L21.3672-4.70703C21.8457-4.22852 22.4609-4.19922 22.9297-4.66797L25.8398-7.58789C26.3086-8.05664 26.2891-8.65234 25.8105-9.13086L25.0391-9.89258C24.5605-10.3711 24.1895-10.5273 23.7109-10.4883L23.1348-10.4395L22.4902-11.0742L22.7344-12.1973C22.8613-12.7637 22.7051-13.2031 22.1191-13.7891L19.9219-15.9766C16.582-19.2969 12.1484-19.2188 9.25781-16.3281C8.83789-15.918 8.80859-15.3418 9.04297-14.9512C9.27734-14.5898 9.73633-14.3555 10.3809-14.5215C11.8457-14.8633 13.3691-14.9219 14.7949-13.9844L14.209-12.5293C14.0137-12.0508 13.9844-11.6504 14.1113-11.2891L3.04688-0.898438C2.06055 0.0195312 1.98242 0.996094 2.8418 1.86523ZM10.752-15.957C13.1836-17.7344 16.4746-17.4316 18.7012-15.2051L21.1328-12.793C21.3672-12.5586 21.4062-12.373 21.3379-12.0312L21.0156-10.5469L22.5195-9.0625L23.5059-9.12109C23.7598-9.13086 23.8379-9.11133 24.0332-8.91602L24.6094-8.33984L22.168-5.89844L21.5918-6.47461C21.3965-6.66992 21.3672-6.74805 21.377-7.01172L21.4453-7.98828L19.9512-9.47266L18.4277-9.21875C18.1055-9.15039 17.959-9.17969 17.7148-9.41406L15.7129-11.416C15.459-11.6504 15.4297-11.8164 15.5859-12.1875L16.4648-14.2773C14.9023-15.7324 12.8711-16.3574 10.8398-15.7617C10.6836-15.7227 10.625-15.8496 10.752-15.957ZM5.27344 2.30469L4.10156 1.14258C3.63281 0.683594 3.74023 0.341797 4.14062-0.0195312L14.9512-10.1953L16.416-8.71094L6.42578 2.27539C6.07422 2.67578 5.74219 2.77344 5.27344 2.30469Z"/>
  </g>
  <text style="stroke:none;fill:black;font-family:-apple-system,&quot;SF Pro Display&quot;,&quot;SF Pro Text&quot;,Helvetica,sans-serif;font-weight:bold;" transform="matrix(1 0 0 1 1289 1953)">Exporting</text>
  <text style="stroke:none;fill:black;font-family:-apple-system,&quot;SF Pro Display&quot;,&quot;SF Pro Text&quot;,Helvetica,sans-serif;" transform="matrix(1 0 0 1 1289 1971)">Symbols should be outlined when exporting to ensure the</text>
  <text style="stroke:none;fill:black;font-family:-apple-system,&quot;SF Pro Display&quot;,&quot;SF Pro Text&quot;,Helvetica,sans-serif;" transform="matrix(1 0 0 1 1289 1989)">design is preserved when submitting to Xcode.</text>
  <text id="template-version" style="stroke:none;fill:black;font-family:-apple-system,&quot;SF Pro Display&quot;,&quot;SF Pro Text&quot;,Helvetica,sans-serif;text-anchor:end;" transform="matrix(1 0 0 1 3036 1933)">Template v.2.0</text>
  <text style="stroke:none;fill:black;font-family:-apple-system,&quot;SF Pro Display&quot;,&quot;SF Pro Text&quot;,Helvetica,sans-serif;text-anchor:end;" transform="matrix(1 0 0 1 3036 1951)">Requires Xcode 12 or greater</text>
  <text style="stroke:none;fill:black;font-family:-apple-system,&quot;SF Pro Display&quot;,&quot;SF Pro Text&quot;,Helvetica,sans-serif;" transform="matrix(1 0 0 1 263 726)">Small</text>
  <text style="stroke:none;fill:black;font-family:-apple-system,&quot;SF Pro Display&quot;,&quot;SF Pro Text&quot;,Helvetica,sans-serif;" transform="matrix(1 0 0 1 263 1156)">Medium</text>
  <text style="stroke:none;fill:black;font-family:-apple-system,&quot;SF Pro Display&quot;,&quot;SF Pro Text&quot;,Helvetica,sans-serif;" transform="matrix(1 0 0 1 263 1586)">Large</text>
 </g>
 <g id="Guides">
  <g id="H-reference" style="fill:#27AAE1;stroke:none;" transform="matrix(1 0 0 1 339 696)">
   <path d="M0.976562 0L3.66211 0L12.9883-24.4629L45.752-24.4629L55.127 0L57.7637 0L30.6152-70.459L28.125-70.459ZM29.3457-67.1387L29.4434-67.1387L44.873-26.709L13.8672-26.709Z"/>
  </g>
  <line id="Baseline-S" style="fill:none;stroke:#27AAE1;opacity:1;stroke-width:0.5;" x1="263" x2="3036" y1="696" y2="696"/>
  <line id="Capline-S" style="fill:none;stroke:#27AAE1;opacity:1;stroke-width:0.5;" x1="263" x2="3036" y1="625.541" y2="625.541"/>
  <g id="H-reference" style="fill:#27AAE1;stroke:none;" transform="matrix(1 0 0 1 339 1126)">
   <path d="M0.976562 0L3.66211 0L12.9883-24.4629L45.752-24.4629L55.127 0L57.7637 0L30.6152-70.459L28.125-70.459ZM29.3457-67.1387L29.4434-67.1387L44.873-26.709L13.8672-26.709Z"/>
  </g>
  <line id="Baseline-M" style="fill:none;stroke:#27AAE1;opacity:1;stroke-width:0.5;" x1="263" x2="3036" y1="1126" y2="1126"/>
  <line id="Capline-M" style="fill:none;stroke:#27AAE1;opacity:1;stroke-width:0.5;" x1="263" x2="3036" y1="1055.54" y2="1055.54"/>
  <g id="H-reference" style="fill:#27AAE1;stroke:none;" transform="matrix(1 0 0 1 339 1556)">
   <path d="M0.976562 0L3.66211 0L12.9883-24.4629L45.752-24.4629L55.127 0L57.7637 0L30.6152-70.459L28.125-70.459ZM29.3457-67.1387L29.4434-67.1387L44.873-26.709L13.8672-26.709Z"/>
  </g>
  <line id="Baseline-L" style="fill:none;stroke:#27AAE1;opacity:1;stroke-width:0.5;" x1="263" x2="3036" y1="1556" y2="1556"/>
  <line id="Capline-L" style="fill:none;stroke:#27AAE1;opacity:1;stroke-width:0.5;" x1="263" x2="3036" y1="1485.54" y2="1485.54"/>
  <line id="left-margin" x1="1406.5892389787946" x2="1406.5892389787946" y1="1030.79" y2="1150.12" style="fill:none;stroke:#00AEEF;stroke-width:0.5;opacity:1.0;"/>
  <line id="right-margin" x1="1495.6707610212052" x2="1495.6707610212052" y1="1030.79" y2="1150.12" style="fill:none;stroke:#00AEEF;stroke-width:0.5;opacity:1.0;"/>
 </g>
 <g id="Symbols">
  <g id="Black-L" transform="matrix(1.0,0.0,0.0,1.0,2880.576815708705,1466.6668352399554)">  <path stroke-opacity="1" fill-rule="nonzero" stroke-dasharray="none" fill="#000000" stroke-width="1px" fill-opacity="1" stroke="none" stroke-linejoin="miter" stroke-miterlimit="4" stroke-linecap="butt" d="M0,112.571L108.206,112.571L108.206,96.628L0,96.628L0,112.571ZM47.647,86.565L47.647,43.283L31.704,43.283L31.704,86.565L47.647,86.565ZM76.502,86.565L76.502,21.641L60.559,21.641L60.559,86.565L76.502,86.565ZM105.357,86.565L105.357,0L89.415,0L89.415,86.565L105.357,86.565ZM2.849,64.924L2.849,86.565L18.792,86.565L18.792,64.924L2.849,64.924Z"/>
</g>
  <g id="Heavy-L" transform="matrix(1.0,0.0,0.0,1.0,2583.866815708705,1466.6668352399554)">  <path stroke-dasharray="none" stroke="none" stroke-linecap="butt" stroke-miterlimit="4" fill-rule="nonzero" stroke-width="1px" stroke-opacity="1" fill="#000000" fill-opacity="1" stroke-linejoin="miter" d="M0,111.698L108.206,111.698L108.206,97.501L0,97.501L0,111.698ZM46.774,86.565L46.774,43.283L32.577,43.283L32.577,86.565L46.774,86.565ZM75.629,86.565L75.629,21.641L61.432,21.641L61.432,86.565L75.629,86.565ZM104.484,86.565L104.484,0L90.287,0L90.287,86.565L104.484,86.565ZM3.722,64.924L3.722,86.565L17.919,86.565L17.919,64.924L3.722,64.924Z"/>
</g>
  <g id="Bold-L" transform="matrix(1.0,0.0,0.0,1.0,2287.156815708705,1466.6668352399554)">  <path stroke-linecap="butt" stroke-opacity="1" fill-opacity="1" stroke-width="1px" fill="#000000" stroke-linejoin="miter" stroke-dasharray="none" stroke="none" fill-rule="nonzero" stroke-miterlimit="4" d="M0,110.825L108.206,110.825L108.206,98.374L0,98.374L0,110.825ZM45.901,86.565L45.901,43.283L33.45,43.283L33.45,86.565L45.901,86.565ZM74.756,86.565L74.756,21.641L62.305,21.641L62.305,86.565L74.756,86.565ZM103.611,86.565L103.611,0L91.16,0L91.16,86.565L103.611,86.565ZM4.595,64.924L4.595,86.565L17.046,86.565L17.046,64.924L4.595,64.924Z"/>
</g>
  <g id="Semibold-L" transform="matrix(1.0,0.0,0.0,1.0,1990.4468157087053,1466.6668352399554)">  <path stroke-dasharray="none" fill-opacity="1" stroke-width="1px" stroke-linecap="butt" fill-rule="nonzero" stroke-opacity="1" stroke="none" stroke-linejoin="miter" fill="#000000" stroke-miterlimit="4" d="M0,109.952L108.206,109.952L108.206,99.247L0,99.247L0,109.952ZM45.028,86.565L45.028,43.283L34.323,43.283L34.323,86.565L45.028,86.565ZM73.883,86.565L73.883,21.641L63.178,21.641L63.178,86.565L73.883,86.565ZM102.738,86.565L102.738,0L92.033,0L92.033,86.565L102.738,86.565ZM5.468,64.924L5.468,86.565L16.173,86.565L16.173,64.924L5.468,64.924Z"/>
</g>
  <g id="Medium-L" transform="matrix(1.0,0.0,0.0,1.0,1693.7368157087053,1466.6668352399554)">  <path stroke-width="1px" stroke-linejoin="miter" stroke-miterlimit="4" fill="#000000" stroke-linecap="butt" fill-rule="nonzero" stroke-opacity="1" stroke="none" fill-opacity="1" stroke-dasharray="none" d="M0,109.079L108.206,109.079L108.206,100.12L0,100.12L0,109.079ZM44.155,86.565L44.155,43.283L35.196,43.283L35.196,86.565L44.155,86.565ZM73.01,86.565L73.01,21.641L64.051,21.641L64.051,86.565L73.01,86.565ZM101.865,86.565L101.865,0L92.906,0L92.906,86.565L101.865,86.565ZM6.341,64.924L6.341,86.565L15.3,86.565L15.3,64.924L6.341,64.924Z"/>
</g>
  <g id="Regular-L" transform="matrix(1.0,0.0,0.0,1.0,1397.0268157087053,1466.6668352399554)">  <path stroke-width="1px" stroke="none" fill-rule="nonzero" stroke-linecap="butt" stroke-linejoin="miter" fill="#000000" stroke-miterlimit="4" stroke-opacity="1" fill-opacity="1" stroke-dasharray="none" d="M0,108.206L108.206,108.206L108.206,100.993L0,100.993L0,108.206ZM43.283,86.565L43.283,43.283L36.069,43.283L36.069,86.565L43.283,86.565ZM72.138,86.565L72.138,21.641L64.924,21.641L64.924,86.565L72.138,86.565ZM100.993,86.565L100.993,0L93.779,0L93.779,86.565L100.993,86.565ZM7.214,64.924L7.214,86.565L14.428,86.565L14.428,64.924L7.214,64.924Z"/>
</g>
  <g id="Light-L" transform="matrix(1.0,0.0,0.0,1.0,1100.3168157087055,1466.6668352399554)">  <path stroke-dasharray="none" fill-rule="nonzero" stroke="none" stroke-linecap="butt" fill-opacity="1" stroke-opacity="1" stroke-linejoin="miter" fill="#000000" stroke-miterlimit="4" stroke-width="1px" d="M0,107.605L108.206,107.605L108.206,101.594L0,101.594L0,107.605ZM42.681,86.565L42.681,43.283L36.67,43.283L36.67,86.565L42.681,86.565ZM71.536,86.565L71.536,21.641L65.525,21.641L65.525,86.565L71.536,86.565ZM100.391,86.565L100.391,0L94.38,0L94.38,86.565L100.391,86.565ZM7.815,64.924L7.815,86.565L13.826,86.565L13.826,64.924L7.815,64.924Z"/>
</g>
  <g id="Thin-L" transform="matrix(1.0,0.0,0.0,1.0,803.6068157087054,1466.6668352399554)">  <path stroke-linejoin="miter" stroke-linecap="butt" stroke-opacity="1" stroke-dasharray="none" stroke-miterlimit="4" fill-opacity="1" stroke="none" stroke-width="1px" fill-rule="nonzero" fill="#000000" d="M0,107.004L108.206,107.004L108.206,102.195L0,102.195L0,107.004ZM42.08,86.565L42.08,43.283L37.271,43.283L37.271,86.565L42.08,86.565ZM70.935,86.565L70.935,21.641L66.126,21.641L66.126,86.565L70.935,86.565ZM99.79,86.565L99.79,0L94.981,0L94.981,86.565L99.79,86.565ZM8.416,64.924L8.416,86.565L13.225,86.565L13.225,64.924L8.416,64.924Z"/>
</g>
  <g id="Ultralight-L" transform="matrix(1.0,0.0,0.0,1.0,506.89681570870533,1466.6668352399554)">  <path fill="#000000" stroke-dasharray="none" stroke-miterlimit="4" stroke-width="1px" stroke-linejoin="miter" fill-rule="nonzero" stroke-opacity="1" fill-opacity="1" stroke="none" stroke-linecap="butt" d="M0,106.403L108.206,106.403L108.206,102.796L0,102.796L0,106.403ZM41.479,86.565L41.479,43.283L37.872,43.283L37.872,86.565L41.479,86.565ZM70.334,86.565L70.334,21.641L66.727,21.641L66.727,86.565L70.334,86.565ZM99.189,86.565L99.189,0L95.582,0L95.582,86.565L99.189,86.565ZM9.017,64.924L9.017,86.565L12.624,86.565L12.624,64.924L9.017,64.924Z"/>
</g>
  <g id="Black-M" transform="matrix(1.0,0.0,0.0,1.0,2892.7395470610118,1048.829566592262)">  <path stroke-opacity="1" fill-rule="nonzero" stroke-dasharray="none" fill="#000000" stroke-width="1px" fill-opacity="1" stroke="none" stroke-linejoin="miter" stroke-miterlimit="4" stroke-linecap="butt" d="M0,87.264L83.881,87.264L83.881,74.906L0,74.906L0,87.264ZM36.936,67.105L36.936,33.552L24.577,33.552L24.577,67.105L36.936,67.105ZM59.304,67.105L59.304,16.776L46.945,16.776L46.945,67.105L59.304,67.105ZM81.672,67.105L81.672,0L69.314,0L69.314,67.105L81.672,67.105ZM2.209,50.329L2.209,67.105L14.567,67.105L14.567,50.329L2.209,50.329Z"/>
</g>
  <g id="Heavy-M" transform="matrix(1.0,0.0,0.0,1.0,2596.0295470610117,1048.829566592262)">  <path stroke-dasharray="none" stroke="none" stroke-linecap="butt" stroke-miterlimit="4" fill-rule="nonzero" stroke-width="1px" stroke-opacity="1" fill="#000000" fill-opacity="1" stroke-linejoin="miter" d="M0,86.587L83.881,86.587L83.881,75.582L0,75.582L0,86.587ZM36.259,67.105L36.259,33.552L25.254,33.552L25.254,67.105L36.259,67.105ZM58.627,67.105L58.627,16.776L47.622,16.776L47.622,67.105L58.627,67.105ZM80.995,67.105L80.995,0L69.99,0L69.99,67.105L80.995,67.105ZM2.886,50.329L2.886,67.105L13.891,67.105L13.891,50.329L2.886,50.329Z"/>
</g>
  <g id="Bold-M" transform="matrix(1.0,0.0,0.0,1.0,2299.3195470610117,1048.829566592262)">  <path stroke-linecap="butt" stroke-opacity="1" fill-opacity="1" stroke-width="1px" fill="#000000" stroke-linejoin="miter" stroke-dasharray="none" stroke="none" fill-rule="nonzero" stroke-miterlimit="4" d="M0,85.911L83.881,85.911L83.881,76.259L0,76.259L0,85.911ZM35.582,67.105L35.582,33.552L25.93,33.552L25.93,67.105L35.582,67.105ZM57.951,67.105L57.951,16.776L48.299,16.776L48.299,67.105L57.951,67.105ZM80.319,67.105L80.319,0L70.667,0L70.667,67.105L80.319,67.105ZM3.562,50.329L3.562,67.105L13.214,67.105L13.214,50.329L3.562,50.329Z"/>
</g>
  <g id="Semibold-M" transform="matrix(1.0,0.0,0.0,1.0,2002.6095470610119,1048.829566592262)">  <path stroke-dasharray="none" fill-opacity="1" stroke-width="1px" stroke-linecap="butt" fill-rule="nonzero" stroke-opacity="1" stroke="none" stroke-linejoin="miter" fill="#000000" stroke-miterlimit="4" d="M0,85.234L83.881,85.234L83.881,76.936L0,76.936L0,85.234ZM34.906,67.105L34.906,33.552L26.607,33.552L26.607,67.105L34.906,67.105ZM57.274,67.105L57.274,16.776L48.975,16.776L48.975,67.105L57.274,67.105ZM79.642,67.105L79.642,0L71.344,0L71.344,67.105L79.642,67.105ZM4.239,50.329L4.239,67.105L12.537,67.105L12.537,50.329L4.239,50.329Z"/>
</g>
  <g id="Medium-M" transform="matrix(1.0,0.0,0.0,1.0,1705.8995470610118,1048.829566592262)">  <path stroke-width="1px" stroke-linejoin="miter" stroke-miterlimit="4" fill="#000000" stroke-linecap="butt" fill-rule="nonzero" stroke-opacity="1" stroke="none" fill-opacity="1" stroke-dasharray="none" d="M0,84.558L83.881,84.558L83.881,77.612L0,77.612L0,84.558ZM34.229,67.105L34.229,33.552L27.284,33.552L27.284,67.105L34.229,67.105ZM56.597,67.105L56.597,16.776L49.652,16.776L49.652,67.105L56.597,67.105ZM78.965,67.105L78.965,0L72.02,0L72.02,67.105L78.965,67.105ZM4.915,50.329L4.915,67.105L11.861,67.105L11.861,50.329L4.915,50.329Z"/>
</g>
  <g id="Regular-M" transform="matrix(1.0,0.0,0.0,1.0,1409.1895470610118,1048.829566592262)">  <path stroke-width="1px" stroke="none" fill-rule="nonzero" stroke-linecap="butt" stroke-linejoin="miter" fill="#000000" stroke-miterlimit="4" stroke-opacity="1" fill-opacity="1" stroke-dasharray="none" d="M0,83.881L83.881,83.881L83.881,78.289L0,78.289L0,83.881ZM33.552,67.105L33.552,33.552L27.96,33.552L27.96,67.105L33.552,67.105ZM55.921,67.105L55.921,16.776L50.329,16.776L50.329,67.105L55.921,67.105ZM78.289,67.105L78.289,0L72.697,0L72.697,67.105L78.289,67.105ZM5.592,50.329L5.592,67.105L11.184,67.105L11.184,50.329L5.592,50.329Z"/>
</g>
  <g id="Light-M" transform="matrix(1.0,0.0,0.0,1.0,1112.479547061012,1048.829566592262)">  <path stroke-dasharray="none" fill-rule="nonzero" stroke="none" stroke-linecap="butt" fill-opacity="1" stroke-opacity="1" stroke-linejoin="miter" fill="#000000" stroke-miterlimit="4" stroke-width="1px" d="M0,83.415L83.881,83.415L83.881,78.755L0,78.755L0,83.415ZM33.086,67.105L33.086,33.552L28.426,33.552L28.426,67.105L33.086,67.105ZM55.455,67.105L55.455,16.776L50.795,16.776L50.795,67.105L55.455,67.105ZM77.823,67.105L77.823,0L73.163,0L73.163,67.105L77.823,67.105ZM6.058,50.329L6.058,67.105L10.718,67.105L10.718,50.329L6.058,50.329Z"/>
</g>
  <g id="Thin-M" transform="matrix(1.0,0.0,0.0,1.0,815.769547061012,1048.829566592262)">  <path stroke-linejoin="miter" stroke-linecap="butt" stroke-opacity="1" stroke-dasharray="none" stroke-miterlimit="4" fill-opacity="1" stroke="none" stroke-width="1px" fill-rule="nonzero" fill="#000000" d="M0,82.949L83.881,82.949L83.881,79.221L0,79.221L0,82.949ZM32.62,67.105L32.62,33.552L28.892,33.552L28.892,67.105L32.62,67.105ZM54.989,67.105L54.989,16.776L51.261,16.776L51.261,67.105L54.989,67.105ZM77.357,67.105L77.357,0L73.629,0L73.629,67.105L77.357,67.105ZM6.524,50.329L6.524,67.105L10.252,67.105L10.252,50.329L6.524,50.329Z"/>
</g>
  <g id="Ultralight-M" transform="matrix(1.0,0.0,0.0,1.0,519.0595470610119,1048.829566592262)">  <path fill="#000000" stroke-dasharray="none" stroke-miterlimit="4" stroke-width="1px" stroke-linejoin="miter" fill-rule="nonzero" stroke-opacity="1" fill-opacity="1" stroke="none" stroke-linecap="butt" d="M0,82.483L83.881,82.483L83.881,79.687L0,79.687L0,82.483ZM32.154,67.105L32.154,33.552L29.358,33.552L29.358,67.105L32.154,67.105ZM54.523,67.105L54.523,16.776L51.727,16.776L51.727,67.105L54.523,67.105ZM76.891,67.105L76.891,0L74.095,0L74.095,67.105L76.891,67.105ZM6.99,50.329L6.99,67.105L9.786,67.105L9.786,50.329L6.99,50.329Z"/>
</g>
  <g id="Black-S" transform="matrix(1.0,0.0,0.0,1.0,2901.840625348772,627.9306448800223)">  <path stroke-opacity="1" fill-rule="nonzero" stroke-dasharray="none" fill="#000000" stroke-width="1px" fill-opacity="1" stroke="none" stroke-linejoin="miter" stroke-miterlimit="4" stroke-linecap="butt" d="M0,68.328L65.679,68.328L65.679,58.651L0,58.651L0,68.328ZM28.921,52.543L28.921,26.271L19.244,26.271L19.244,52.543L28.921,52.543ZM46.435,52.543L46.435,13.136L36.758,13.136L36.758,52.543L46.435,52.543ZM63.949,52.543L63.949,0L54.273,0L54.273,52.543L63.949,52.543ZM1.73,39.407L1.73,52.543L11.406,52.543L11.406,39.407L1.73,39.407Z"/>
</g>
  <g id="Heavy-S" transform="matrix(1.0,0.0,0.0,1.0,2605.130625348772,627.9306448800223)">  <path stroke-dasharray="none" stroke="none" stroke-linecap="butt" stroke-miterlimit="4" fill-rule="nonzero" stroke-width="1px" stroke-opacity="1" fill="#000000" fill-opacity="1" stroke-linejoin="miter" d="M0,67.798L65.679,67.798L65.679,59.181L0,59.181L0,67.798ZM28.391,52.543L28.391,26.271L19.774,26.271L19.774,52.543L28.391,52.543ZM45.905,52.543L45.905,13.136L37.288,13.136L37.288,52.543L45.905,52.543ZM63.419,52.543L63.419,0L54.802,0L54.802,52.543L63.419,52.543ZM2.259,39.407L2.259,52.543L10.876,52.543L10.876,39.407L2.259,39.407Z"/>
</g>
  <g id="Bold-S" transform="matrix(1.0,0.0,0.0,1.0,2308.420625348772,627.9306448800223)">  <path stroke-linecap="butt" stroke-opacity="1" fill-opacity="1" stroke-width="1px" fill="#000000" stroke-linejoin="miter" stroke-dasharray="none" stroke="none" fill-rule="nonzero" stroke-miterlimit="4" d="M0,67.268L65.679,67.268L65.679,59.711L0,59.711L0,67.268ZM27.861,52.543L27.861,26.271L20.303,26.271L20.303,52.543L27.861,52.543ZM45.375,52.543L45.375,13.136L37.818,13.136L37.818,52.543L45.375,52.543ZM62.89,52.543L62.89,0L55.332,0L55.332,52.543L62.89,52.543ZM2.789,39.407L2.789,52.543L10.347,52.543L10.347,39.407L2.789,39.407Z"/>
</g>
  <g id="Semibold-S" transform="matrix(1.0,0.0,0.0,1.0,2011.7106253487723,627.9306448800223)">  <path stroke-dasharray="none" fill-opacity="1" stroke-width="1px" stroke-linecap="butt" fill-rule="nonzero" stroke-opacity="1" stroke="none" stroke-linejoin="miter" fill="#000000" stroke-miterlimit="4" d="M0,66.738L65.679,66.738L65.679,60.241L0,60.241L0,66.738ZM27.331,52.543L27.331,26.271L20.833,26.271L20.833,52.543L27.331,52.543ZM44.845,52.543L44.845,13.136L38.348,13.136L38.348,52.543L44.845,52.543ZM62.36,52.543L62.36,0L55.862,0L55.862,52.543L62.36,52.543ZM3.319,39.407L3.319,52.543L9.817,52.543L9.817,39.407L3.319,39.407Z"/>
</g>
  <g id="Medium-S" transform="matrix(1.0,0.0,0.0,1.0,1715.0006253487722,627.9306448800223)">  <path stroke-width="1px" stroke-linejoin="miter" stroke-miterlimit="4" fill="#000000" stroke-linecap="butt" fill-rule="nonzero" stroke-opacity="1" stroke="none" fill-opacity="1" stroke-dasharray="none" d="M0,66.209L65.679,66.209L65.679,60.77L0,60.77L0,66.209ZM26.801,52.543L26.801,26.271L21.363,26.271L21.363,52.543L26.801,52.543ZM44.316,52.543L44.316,13.136L38.877,13.136L38.877,52.543L44.316,52.543ZM61.83,52.543L61.83,0L56.392,0L56.392,52.543L61.83,52.543ZM3.849,39.407L3.849,52.543L9.287,52.543L9.287,39.407L3.849,39.407Z"/>
</g>
  <g id="Regular-S" transform="matrix(1.0,0.0,0.0,1.0,1418.2906253487722,627.9306448800223)">  <path stroke-width="1px" stroke="none" fill-rule="nonzero" stroke-linecap="butt" stroke-linejoin="miter" fill="#000000" stroke-miterlimit="4" stroke-opacity="1" fill-opacity="1" stroke-dasharray="none" d="M0,65.679L65.679,65.679L65.679,61.3L0,61.3L0,65.679ZM26.271,52.543L26.271,26.271L21.893,26.271L21.893,52.543L26.271,52.543ZM43.786,52.543L43.786,13.136L39.407,13.136L39.407,52.543L43.786,52.543ZM61.3,52.543L61.3,0L56.922,0L56.922,52.543L61.3,52.543ZM4.379,39.407L4.379,52.543L8.757,52.543L8.757,39.407L4.379,39.407Z"/>
</g>
  <g id="Light-S" transform="matrix(1.0,0.0,0.0,1.0,1121.5806253487724,627.9306448800223)">  <path stroke-dasharray="none" fill-rule="nonzero" stroke="none" stroke-linecap="butt" fill-opacity="1" stroke-opacity="1" stroke-linejoin="miter" fill="#000000" stroke-miterlimit="4" stroke-width="1px" d="M0,65.314L65.679,65.314L65.679,61.665L0,61.665L0,65.314ZM25.907,52.543L25.907,26.271L22.258,26.271L22.258,52.543L25.907,52.543ZM43.421,52.543L43.421,13.136L39.772,13.136L39.772,52.543L43.421,52.543ZM60.935,52.543L60.935,0L57.286,0L57.286,52.543L60.935,52.543ZM4.743,39.407L4.743,52.543L8.392,52.543L8.392,39.407L4.743,39.407Z"/>
</g>
  <g id="Thin-S" transform="matrix(1.0,0.0,0.0,1.0,824.8706253487724,627.9306448800223)">  <path stroke-linejoin="miter" stroke-linecap="butt" stroke-opacity="1" stroke-dasharray="none" stroke-miterlimit="4" fill-opacity="1" stroke="none" stroke-width="1px" fill-rule="nonzero" fill="#000000" d="M0,64.949L65.679,64.949L65.679,62.03L0,62.03L0,64.949ZM25.542,52.543L25.542,26.271L22.623,26.271L22.623,52.543L25.542,52.543ZM43.056,52.543L43.056,13.136L40.137,13.136L40.137,52.543L43.056,52.543ZM60.57,52.543L60.57,0L57.651,0L57.651,52.543L60.57,52.543ZM5.108,39.407L5.108,52.543L8.027,52.543L8.027,39.407L5.108,39.407Z"/>
</g>
  <g id="Ultralight-S" transform="matrix(1.0,0.0,0.0,1.0,528.1606253487723,627.9306448800223)">  <path fill="#000000" stroke-dasharray="none" stroke-miterlimit="4" stroke-width="1px" stroke-linejoin="miter" fill-rule="nonzero" stroke-opacity="1" fill-opacity="1" stroke="none" stroke-linecap="butt" d="M0,64.584L65.679,64.584L65.679,62.395L0,62.395L0,64.584ZM25.177,52.543L25.177,26.271L22.988,26.271L22.988,52.543L25.177,52.543ZM42.691,52.543L42.691,13.136L40.502,13.136L40.502,52.543L42.691,52.543ZM60.206,52.543L60.206,0L58.016,0L58.016,52.543L60.206,52.543ZM5.473,39.407L5.473,52.543L7.663,52.543L7.663,39.407L5.473,39.407Z"/>
</g>
 </g>
</svg>
