<?xml version="1.0" encoding="UTF-8"?>
<!-- Generator: CustomSymbols v2.6.2.41 by @serious_bret https://bretlester.com/app_content/CustomSymbols/ -->
<!-- Guides: Left/Right -0.031/-0.031 Cap/Base 0.08/0.08 -->
<!-- Settings: RefScale 1.0 Min/Max Stroke Scales 0.5/2.21 -->
<!DOCTYPE svg
PUBLIC "-//W3C//DTD SVG 1.1//EN"
       "http://www.w3.org/Graphics/SVG/1.1/DTD/svg11.dtd">
<svg version="1.1" xmlns="http://www.w3.org/2000/svg" xmlns:xlink="http://www.w3.org/1999/xlink" width="3300" height="2200">
<![CDATA[<svg width="15" height="15" viewBox="0 0 15 15" fill="none" xmlns="http://www.w3.org/2000/svg">
<path d="M7.5 0.5L7.8254 0.120372C7.63815 -0.0401239 7.36185 -0.0401239 7.1746 0.120372L7.5 0.5ZM0.5 6.5L0.174604 6.12037L0 6.27003V6.5H0.5ZM5.5 14.5V15C5.77614 15 6 14.7761 6 14.5H5.5ZM9.5 14.5H9C9 14.7761 9.22386 15 9.5 15V14.5ZM14.5 6.5H15V6.27003L14.8254 6.12037L14.5 6.5ZM1.5 15H5.5V14H1.5V15ZM14.8254 6.12037L7.8254 0.120372L7.1746 0.879628L14.1746 6.87963L14.8254 6.12037ZM7.1746 0.120372L0.174604 6.12037L0.825396 6.87963L7.8254 0.879628L7.1746 0.120372ZM6 14.5V11.5H5V14.5H6ZM9 11.5V14.5H10V11.5H9ZM9.5 15H13.5V14H9.5V15ZM15 13.5V6.5H14V13.5H15ZM0 6.5V13.5H1V6.5H0ZM7.5 10C8.32843 10 9 10.6716 9 11.5H10C10 10.1193 8.88071 9 7.5 9V10ZM7.5 9C6.11929 9 5 10.1193 5 11.5H6C6 10.6716 6.67157 10 7.5 10V9ZM13.5 15C14.3284 15 15 14.3284 15 13.5H14C14 13.7761 13.7761 14 13.5 14V15ZM1.5 14C1.22386 14 1 13.7761 1 13.5H0C0 14.3284 0.671573 15 1.5 15V14Z" fill="#1D1929"/>
</svg>
]]>
 <g id="Notes">
  <rect height="2200" id="artboard" style="fill:white;opacity:1" width="3300" x="0" y="0"/>
  <line id="" style="fill:none;stroke:black;opacity:1;stroke-width:0.5;" x1="263" x2="3036" y1="292" y2="292"/>
  <text id="reftext1" style="stroke:none;fill:black;font-family:-apple-system,&quot;SF Pro Display&quot;,&quot;SF Pro Text&quot;,Helvetica,sans-serif;font-weight:bold;" transform="matrix(1 0 0 1 263 322)">Weight/Scale Variations</text>
  <text id="reftext2" style="stroke:none;fill:black;font-family:-apple-system,&quot;SF Pro Display&quot;,&quot;SF Pro Text&quot;,Helvetica,sans-serif;text-anchor:middle;" transform="matrix(1 0 0 1 559.711 322)">Ultralight</text>
  <text style="stroke:none;fill:black;font-family:-apple-system,&quot;SF Pro Display&quot;,&quot;SF Pro Text&quot;,Helvetica,sans-serif;text-anchor:middle;" transform="matrix(1 0 0 1 856.422 322)">Thin</text>
  <text style="stroke:none;fill:black;font-family:-apple-system,&quot;SF Pro Display&quot;,&quot;SF Pro Text&quot;,Helvetica,sans-serif;text-anchor:middle;" transform="matrix(1 0 0 1 1153.13 322)">Light</text>
  <text style="stroke:none;fill:black;font-family:-apple-system,&quot;SF Pro Display&quot;,&quot;SF Pro Text&quot;,Helvetica,sans-serif;text-anchor:middle;" transform="matrix(1 0 0 1 1449.84 322)">Regular</text>
  <text style="stroke:none;fill:black;font-family:-apple-system,&quot;SF Pro Display&quot;,&quot;SF Pro Text&quot;,Helvetica,sans-serif;text-anchor:middle;" transform="matrix(1 0 0 1 1746.56 322)">Medium</text>
  <text style="stroke:none;fill:black;font-family:-apple-system,&quot;SF Pro Display&quot;,&quot;SF Pro Text&quot;,Helvetica,sans-serif;text-anchor:middle;" transform="matrix(1 0 0 1 2043.27 322)">Semibold</text>
  <text style="stroke:none;fill:black;font-family:-apple-system,&quot;SF Pro Display&quot;,&quot;SF Pro Text&quot;,Helvetica,sans-serif;text-anchor:middle;" transform="matrix(1 0 0 1 2339.98 322)">Bold</text>
  <text style="stroke:none;fill:black;font-family:-apple-system,&quot;SF Pro Display&quot;,&quot;SF Pro Text&quot;,Helvetica,sans-serif;text-anchor:middle;" transform="matrix(1 0 0 1 2636.69 322)">Heavy</text>
  <text style="stroke:none;fill:black;font-family:-apple-system,&quot;SF Pro Display&quot;,&quot;SF Pro Text&quot;,Helvetica,sans-serif;text-anchor:middle;" transform="matrix(1 0 0 1 2933.4 322)">Black</text>
  <line id="" style="fill:none;stroke:black;opacity:1;stroke-width:0.5;" x1="263" x2="3036" y1="1903" y2="1903"/>
  <g id="" transform="matrix(1 0 0 1 263 1933)">
   <path d="M9.24805 0.830078C13.5547 0.830078 17.1387-2.74414 17.1387-7.05078C17.1387-11.3574 13.5449-14.9316 9.23828-14.9316C4.94141-14.9316 1.36719-11.3574 1.36719-7.05078C1.36719-2.74414 4.95117 0.830078 9.24805 0.830078ZM9.24805-0.654297C5.70312-0.654297 2.87109-3.49609 2.87109-7.05078C2.87109-10.6055 5.69336-13.4473 9.23828-13.4473C12.793-13.4473 15.6348-10.6055 15.6445-7.05078C15.6543-3.49609 12.8027-0.654297 9.24805-0.654297ZM6.39648-6.31836L8.50586-6.31836L8.50586-4.19922C8.50586-3.75977 8.79883-3.45703 9.22852-3.45703C9.67773-3.45703 9.9707-3.75977 9.9707-4.19922L9.9707-6.31836L12.0996-6.31836C12.5391-6.31836 12.8418-6.61133 12.8418-7.04102C12.8418-7.48047 12.5391-7.7832 12.0996-7.7832L9.9707-7.7832L9.9707-9.89258C9.9707-10.3418 9.67773-10.6445 9.22852-10.6445C8.79883-10.6445 8.50586-10.3418 8.50586-9.89258L8.50586-7.7832L6.39648-7.7832C5.94727-7.7832 5.64453-7.48047 5.64453-7.04102C5.64453-6.61133 5.94727-6.31836 6.39648-6.31836Z"/>
  </g>
  <g id="" transform="matrix(1 0 0 1 281.506 1933)">
   <path d="M11.709 2.91016C17.1582 2.91016 21.6699-1.61133 21.6699-7.05078C21.6699-12.5 17.1484-17.0117 11.6992-17.0117C6.25977-17.0117 1.74805-12.5 1.74805-7.05078C1.74805-1.61133 6.26953 2.91016 11.709 2.91016ZM11.709 1.25C7.09961 1.25 3.41797-2.44141 3.41797-7.05078C3.41797-11.6602 7.08984-15.3516 11.6992-15.3516C16.3086-15.3516 20-11.6602 20.0098-7.05078C20.0195-2.44141 16.3184 1.25 11.709 1.25ZM7.98828-6.23047L10.8789-6.23047L10.8789-3.32031C10.8789-2.83203 11.2109-2.5 11.6895-2.5C12.1777-2.5 12.5195-2.83203 12.5195-3.32031L12.5195-6.23047L15.4297-6.23047C15.918-6.23047 16.25-6.5625 16.25-7.04102C16.25-7.5293 15.918-7.87109 15.4297-7.87109L12.5195-7.87109L12.5195-10.7617C12.5195-11.2695 12.1777-11.6016 11.6895-11.6016C11.2109-11.6016 10.8789-11.2598 10.8789-10.7617L10.8789-7.87109L7.98828-7.87109C7.48047-7.87109 7.14844-7.5293 7.14844-7.04102C7.14844-6.5625 7.49023-6.23047 7.98828-6.23047Z"/>
  </g>
  <g id="" transform="matrix(1 0 0 1 304.924 1933)">
   <path d="M14.9707 5.66406C21.9336 5.66406 27.6953-0.0976562 27.6953-7.05078C27.6953-14.0137 21.9238-19.7754 14.9609-19.7754C8.00781-19.7754 2.25586-14.0137 2.25586-7.05078C2.25586-0.0976562 8.01758 5.66406 14.9707 5.66406ZM14.9707 3.84766C8.93555 3.84766 4.08203-1.01562 4.08203-7.05078C4.08203-13.0957 8.92578-17.9492 14.9609-17.9492C21.0059-17.9492 25.8594-13.0957 25.8691-7.05078C25.8789-1.01562 21.0156 3.84766 14.9707 3.84766ZM10.0586-6.14258L14.0625-6.14258L14.0625-2.12891C14.0625-1.5918 14.4336-1.2207 14.9512-1.2207C15.4883-1.2207 15.8594-1.5918 15.8594-2.12891L15.8594-6.14258L19.8828-6.14258C20.4102-6.14258 20.791-6.51367 20.791-7.03125C20.791-7.56836 20.4199-7.94922 19.8828-7.94922L15.8594-7.94922L15.8594-11.9531C15.8594-12.5098 15.4883-12.8809 14.9512-12.8809C14.4336-12.8809 14.0625-12.5 14.0625-11.9531L14.0625-7.94922L10.0586-7.94922C9.50195-7.94922 9.13086-7.56836 9.13086-7.03125C9.13086-6.51367 9.51172-6.14258 10.0586-6.14258Z"/>
  </g>
  <text style="stroke:none;fill:black;font-family:-apple-system,&quot;SF Pro Display&quot;,&quot;SF Pro Text&quot;,Helvetica,sans-serif;font-weight:bold;" transform="matrix(1 0 0 1 263 1953)">Design Variations</text>
  <text style="stroke:none;fill:black;font-family:-apple-system,&quot;SF Pro Display&quot;,&quot;SF Pro Text&quot;,Helvetica,sans-serif;" transform="matrix(1 0 0 1 263 1971)">Symbols are supported in up to nine weights and three scales.</text>
  <text style="stroke:none;fill:black;font-family:-apple-system,&quot;SF Pro Display&quot;,&quot;SF Pro Text&quot;,Helvetica,sans-serif;" transform="matrix(1 0 0 1 263 1989)">For optimal layout with text and other symbols, vertically align</text>
  <text style="stroke:none;fill:black;font-family:-apple-system,&quot;SF Pro Display&quot;,&quot;SF Pro Text&quot;,Helvetica,sans-serif;" transform="matrix(1 0 0 1 263 2007)">symbols with the adjacent text.</text>
  <line id="" style="fill:none;stroke:#00AEEF;stroke-width:0.5;opacity:1.0;" x1="776" x2="776" y1="1919" y2="1933"/>
  <g id="" transform="matrix(1 0 0 1 776 1933)">
   <path d="M3.31055 0.126953C3.82812 0.126953 4.08203-0.0683594 4.26758-0.605469L5.52734-4.0625L11.2891-4.0625L12.5488-0.605469C12.7344-0.0683594 12.9883 0.126953 13.4961 0.126953C14.0137 0.126953 14.3457-0.185547 14.3457-0.673828C14.3457-0.839844 14.3164-0.986328 14.2383-1.20117L9.6582-13.3887C9.43359-13.9941 9.0332-14.2871 8.4082-14.2871C7.80273-14.2871 7.39258-13.9941 7.17773-13.3984L2.59766-1.19141C2.51953-0.976562 2.49023-0.830078 2.49023-0.664062C2.49023-0.175781 2.80273 0.126953 3.31055 0.126953ZM6.00586-5.53711L8.37891-12.1094L8.42773-12.1094L10.8008-5.53711Z"/>
  </g>
  <line id="" style="fill:none;stroke:#00AEEF;stroke-width:0.5;opacity:1.0;" x1="792.836" x2="792.836" y1="1919" y2="1933"/>
  <text style="stroke:none;fill:black;font-family:-apple-system,&quot;SF Pro Display&quot;,&quot;SF Pro Text&quot;,Helvetica,sans-serif;font-weight:bold;" transform="matrix(1 0 0 1 776 1953)">Margins</text>
  <text style="stroke:none;fill:black;font-family:-apple-system,&quot;SF Pro Display&quot;,&quot;SF Pro Text&quot;,Helvetica,sans-serif;" transform="matrix(1 0 0 1 776 1971)">Leading and trailing margins on the left and right side of each symbol</text>
  <text style="stroke:none;fill:black;font-family:-apple-system,&quot;SF Pro Display&quot;,&quot;SF Pro Text&quot;,Helvetica,sans-serif;" transform="matrix(1 0 0 1 776 1989)">can be adjusted by modifying the x-location of the margin guidelines.</text>
  <text style="stroke:none;fill:black;font-family:-apple-system,&quot;SF Pro Display&quot;,&quot;SF Pro Text&quot;,Helvetica,sans-serif;" transform="matrix(1 0 0 1 776 2007)">Modifications are automatically applied proportionally to all</text>
  <text style="stroke:none;fill:black;font-family:-apple-system,&quot;SF Pro Display&quot;,&quot;SF Pro Text&quot;,Helvetica,sans-serif;" transform="matrix(1 0 0 1 776 2025)">scales and weights.</text>
  <g id="" transform="matrix(1 0 0 1 1289 1933)">
   <path d="M2.8418 1.86523L4.54102 3.57422C5.40039 4.44336 6.38672 4.38477 7.31445 3.35938L17.4902-7.85156C17.7539-7.76367 18.0273-7.7832 18.3398-7.8418L19.4043-8.03711L20.0684-7.36328L20.0293-6.80664C19.9902-6.30859 20.1172-5.92773 20.6055-5.44922L21.3672-4.70703C21.8457-4.22852 22.4609-4.19922 22.9297-4.66797L25.8398-7.58789C26.3086-8.05664 26.2891-8.65234 25.8105-9.13086L25.0391-9.89258C24.5605-10.3711 24.1895-10.5273 23.7109-10.4883L23.1348-10.4395L22.4902-11.0742L22.7344-12.1973C22.8613-12.7637 22.7051-13.2031 22.1191-13.7891L19.9219-15.9766C16.582-19.2969 12.1484-19.2188 9.25781-16.3281C8.83789-15.918 8.80859-15.3418 9.04297-14.9512C9.27734-14.5898 9.73633-14.3555 10.3809-14.5215C11.8457-14.8633 13.3691-14.9219 14.7949-13.9844L14.209-12.5293C14.0137-12.0508 13.9844-11.6504 14.1113-11.2891L3.04688-0.898438C2.06055 0.0195312 1.98242 0.996094 2.8418 1.86523ZM10.752-15.957C13.1836-17.7344 16.4746-17.4316 18.7012-15.2051L21.1328-12.793C21.3672-12.5586 21.4062-12.373 21.3379-12.0312L21.0156-10.5469L22.5195-9.0625L23.5059-9.12109C23.7598-9.13086 23.8379-9.11133 24.0332-8.91602L24.6094-8.33984L22.168-5.89844L21.5918-6.47461C21.3965-6.66992 21.3672-6.74805 21.377-7.01172L21.4453-7.98828L19.9512-9.47266L18.4277-9.21875C18.1055-9.15039 17.959-9.17969 17.7148-9.41406L15.7129-11.416C15.459-11.6504 15.4297-11.8164 15.5859-12.1875L16.4648-14.2773C14.9023-15.7324 12.8711-16.3574 10.8398-15.7617C10.6836-15.7227 10.625-15.8496 10.752-15.957ZM5.27344 2.30469L4.10156 1.14258C3.63281 0.683594 3.74023 0.341797 4.14062-0.0195312L14.9512-10.1953L16.416-8.71094L6.42578 2.27539C6.07422 2.67578 5.74219 2.77344 5.27344 2.30469Z"/>
  </g>
  <text style="stroke:none;fill:black;font-family:-apple-system,&quot;SF Pro Display&quot;,&quot;SF Pro Text&quot;,Helvetica,sans-serif;font-weight:bold;" transform="matrix(1 0 0 1 1289 1953)">Exporting</text>
  <text style="stroke:none;fill:black;font-family:-apple-system,&quot;SF Pro Display&quot;,&quot;SF Pro Text&quot;,Helvetica,sans-serif;" transform="matrix(1 0 0 1 1289 1971)">Symbols should be outlined when exporting to ensure the</text>
  <text style="stroke:none;fill:black;font-family:-apple-system,&quot;SF Pro Display&quot;,&quot;SF Pro Text&quot;,Helvetica,sans-serif;" transform="matrix(1 0 0 1 1289 1989)">design is preserved when submitting to Xcode.</text>
  <text id="template-version" style="stroke:none;fill:black;font-family:-apple-system,&quot;SF Pro Display&quot;,&quot;SF Pro Text&quot;,Helvetica,sans-serif;text-anchor:end;" transform="matrix(1 0 0 1 3036 1933)">Template v.2.0</text>
  <text style="stroke:none;fill:black;font-family:-apple-system,&quot;SF Pro Display&quot;,&quot;SF Pro Text&quot;,Helvetica,sans-serif;text-anchor:end;" transform="matrix(1 0 0 1 3036 1951)">Requires Xcode 12 or greater</text>
  <text style="stroke:none;fill:black;font-family:-apple-system,&quot;SF Pro Display&quot;,&quot;SF Pro Text&quot;,Helvetica,sans-serif;" transform="matrix(1 0 0 1 263 726)">Small</text>
  <text style="stroke:none;fill:black;font-family:-apple-system,&quot;SF Pro Display&quot;,&quot;SF Pro Text&quot;,Helvetica,sans-serif;" transform="matrix(1 0 0 1 263 1156)">Medium</text>
  <text style="stroke:none;fill:black;font-family:-apple-system,&quot;SF Pro Display&quot;,&quot;SF Pro Text&quot;,Helvetica,sans-serif;" transform="matrix(1 0 0 1 263 1586)">Large</text>
 </g>
 <g id="Guides">
  <g id="H-reference" style="fill:#27AAE1;stroke:none;" transform="matrix(1 0 0 1 339 696)">
   <path d="M0.976562 0L3.66211 0L12.9883-24.4629L45.752-24.4629L55.127 0L57.7637 0L30.6152-70.459L28.125-70.459ZM29.3457-67.1387L29.4434-67.1387L44.873-26.709L13.8672-26.709Z"/>
  </g>
  <line id="Baseline-S" style="fill:none;stroke:#27AAE1;opacity:1;stroke-width:0.5;" x1="263" x2="3036" y1="696" y2="696"/>
  <line id="Capline-S" style="fill:none;stroke:#27AAE1;opacity:1;stroke-width:0.5;" x1="263" x2="3036" y1="625.541" y2="625.541"/>
  <g id="H-reference" style="fill:#27AAE1;stroke:none;" transform="matrix(1 0 0 1 339 1126)">
   <path d="M0.976562 0L3.66211 0L12.9883-24.4629L45.752-24.4629L55.127 0L57.7637 0L30.6152-70.459L28.125-70.459ZM29.3457-67.1387L29.4434-67.1387L44.873-26.709L13.8672-26.709Z"/>
  </g>
  <line id="Baseline-M" style="fill:none;stroke:#27AAE1;opacity:1;stroke-width:0.5;" x1="263" x2="3036" y1="1126" y2="1126"/>
  <line id="Capline-M" style="fill:none;stroke:#27AAE1;opacity:1;stroke-width:0.5;" x1="263" x2="3036" y1="1055.54" y2="1055.54"/>
  <g id="H-reference" style="fill:#27AAE1;stroke:none;" transform="matrix(1 0 0 1 339 1556)">
   <path d="M0.976562 0L3.66211 0L12.9883-24.4629L45.752-24.4629L55.127 0L57.7637 0L30.6152-70.459L28.125-70.459ZM29.3457-67.1387L29.4434-67.1387L44.873-26.709L13.8672-26.709Z"/>
  </g>
  <line id="Baseline-L" style="fill:none;stroke:#27AAE1;opacity:1;stroke-width:0.5;" x1="263" x2="3036" y1="1556" y2="1556"/>
  <line id="Capline-L" style="fill:none;stroke:#27AAE1;opacity:1;stroke-width:0.5;" x1="263" x2="3036" y1="1485.54" y2="1485.54"/>
  <line id="left-margin" x1="1406.5892389787946" x2="1406.5892389787946" y1="1030.79" y2="1150.12" style="fill:none;stroke:#00AEEF;stroke-width:0.5;opacity:1.0;"/>
  <line id="right-margin" x1="1495.6707610212052" x2="1495.6707610212052" y1="1030.79" y2="1150.12" style="fill:none;stroke:#00AEEF;stroke-width:0.5;opacity:1.0;"/>
 </g>
 <g id="Symbols">
  <g id="Black-L" transform="matrix(1.0,0.0,0.0,1.0,2880.576815708705,1466.6668352399554)">  <path stroke-dasharray="none" fill-rule="nonzero" stroke-width="1px" fill="#000000" stroke-linejoin="miter" stroke-opacity="1" stroke-linecap="butt" fill-opacity="1" stroke-miterlimit="4" stroke="none" d="M54.103,3.607L56.451,0.868C55.1,-0.289,53.107,-0.289,51.756,0.868L54.103,3.607ZM3.607,46.889L1.26,44.151L0,45.23L0,46.889L3.607,46.889ZM39.676,104.599L39.676,108.206C41.668,108.206,43.283,106.591,43.283,104.599L39.676,104.599ZM68.531,104.599L64.924,104.599C64.924,106.591,66.539,108.206,68.531,108.206L68.531,104.599ZM104.599,46.889L108.206,46.889L108.206,45.23L106.947,44.151L104.599,46.889ZM10.821,108.206L39.676,108.206L39.676,100.993L10.821,100.993L10.821,108.206ZM106.947,44.151L56.451,0.868L51.756,6.345L102.252,49.628L106.947,44.151ZM51.756,0.868L1.26,44.151L5.954,49.628L56.451,6.345L51.756,0.868ZM43.283,104.599L43.283,82.958L36.069,82.958L36.069,104.599L43.283,104.599ZM64.924,82.958L64.924,104.599L72.138,104.599L72.138,82.958L64.924,82.958ZM68.531,108.206L97.386,108.206L97.386,100.993L68.531,100.993L68.531,108.206ZM108.206,97.386L108.206,46.889L100.993,46.889L100.993,97.386L108.206,97.386ZM0,46.889L0,97.386L7.214,97.386L7.214,46.889L0,46.889ZM54.103,72.138C60.079,72.138,64.924,76.982,64.924,82.958L72.138,82.958C72.138,72.998,64.063,64.924,54.103,64.924L54.103,72.138ZM54.103,64.924C44.143,64.924,36.069,72.998,36.069,82.958L43.283,82.958C43.283,76.982,48.127,72.138,54.103,72.138L54.103,64.924ZM97.386,108.206C103.362,108.206,108.206,103.362,108.206,97.386L100.993,97.386C100.993,99.377,99.377,100.993,97.386,100.993L97.386,108.206ZM10.821,100.993C8.829,100.993,7.214,99.377,7.214,97.386L0,97.386C0,103.362,4.845,108.206,10.821,108.206L10.821,100.993ZM10.821,100.993"/>
</g>
  <g id="Heavy-L" transform="matrix(1.0,0.0,0.0,1.0,2583.866815708705,1466.6668352399554)">  <path stroke-opacity="1" stroke-width="1px" stroke-linecap="butt" stroke-dasharray="none" fill-rule="nonzero" fill="#000000" stroke="none" stroke-linejoin="miter" fill-opacity="1" stroke-miterlimit="4" d="M54.103,3.607L56.451,0.868C55.1,-0.289,53.107,-0.289,51.756,0.868L54.103,3.607ZM3.607,46.889L1.26,44.151L0,45.23L0,46.889L3.607,46.889ZM39.676,104.599L39.676,108.206C41.668,108.206,43.283,106.591,43.283,104.599L39.676,104.599ZM68.531,104.599L64.924,104.599C64.924,106.591,66.539,108.206,68.531,108.206L68.531,104.599ZM104.599,46.889L108.206,46.889L108.206,45.23L106.947,44.151L104.599,46.889ZM10.821,108.206L39.676,108.206L39.676,100.993L10.821,100.993L10.821,108.206ZM106.947,44.151L56.451,0.868L51.756,6.345L102.252,49.628L106.947,44.151ZM51.756,0.868L1.26,44.151L5.954,49.628L56.451,6.345L51.756,0.868ZM43.283,104.599L43.283,82.958L36.069,82.958L36.069,104.599L43.283,104.599ZM64.924,82.958L64.924,104.599L72.138,104.599L72.138,82.958L64.924,82.958ZM68.531,108.206L97.386,108.206L97.386,100.993L68.531,100.993L68.531,108.206ZM108.206,97.386L108.206,46.889L100.993,46.889L100.993,97.386L108.206,97.386ZM0,46.889L0,97.386L7.214,97.386L7.214,46.889L0,46.889ZM54.103,72.138C60.079,72.138,64.924,76.982,64.924,82.958L72.138,82.958C72.138,72.998,64.063,64.924,54.103,64.924L54.103,72.138ZM54.103,64.924C44.143,64.924,36.069,72.998,36.069,82.958L43.283,82.958C43.283,76.982,48.127,72.138,54.103,72.138L54.103,64.924ZM97.386,108.206C103.362,108.206,108.206,103.362,108.206,97.386L100.993,97.386C100.993,99.377,99.377,100.993,97.386,100.993L97.386,108.206ZM10.821,100.993C8.829,100.993,7.214,99.377,7.214,97.386L0,97.386C0,103.362,4.845,108.206,10.821,108.206L10.821,100.993ZM10.821,100.993"/>
</g>
  <g id="Bold-L" transform="matrix(1.0,0.0,0.0,1.0,2287.156815708705,1466.6668352399554)">  <path fill-opacity="1" stroke-opacity="1" fill="#000000" stroke-linecap="butt" stroke-width="1px" stroke-miterlimit="4" stroke="none" stroke-linejoin="miter" stroke-dasharray="none" fill-rule="nonzero" d="M54.103,3.607L56.451,0.868C55.1,-0.289,53.107,-0.289,51.756,0.868L54.103,3.607ZM3.607,46.889L1.26,44.151L0,45.23L0,46.889L3.607,46.889ZM39.676,104.599L39.676,108.206C41.668,108.206,43.283,106.591,43.283,104.599L39.676,104.599ZM68.531,104.599L64.924,104.599C64.924,106.591,66.539,108.206,68.531,108.206L68.531,104.599ZM104.599,46.889L108.206,46.889L108.206,45.23L106.947,44.151L104.599,46.889ZM10.821,108.206L39.676,108.206L39.676,100.993L10.821,100.993L10.821,108.206ZM106.947,44.151L56.451,0.868L51.756,6.345L102.252,49.628L106.947,44.151ZM51.756,0.868L1.26,44.151L5.954,49.628L56.451,6.345L51.756,0.868ZM43.283,104.599L43.283,82.958L36.069,82.958L36.069,104.599L43.283,104.599ZM64.924,82.958L64.924,104.599L72.138,104.599L72.138,82.958L64.924,82.958ZM68.531,108.206L97.386,108.206L97.386,100.993L68.531,100.993L68.531,108.206ZM108.206,97.386L108.206,46.889L100.993,46.889L100.993,97.386L108.206,97.386ZM0,46.889L0,97.386L7.214,97.386L7.214,46.889L0,46.889ZM54.103,72.138C60.079,72.138,64.924,76.982,64.924,82.958L72.138,82.958C72.138,72.998,64.063,64.924,54.103,64.924L54.103,72.138ZM54.103,64.924C44.143,64.924,36.069,72.998,36.069,82.958L43.283,82.958C43.283,76.982,48.127,72.138,54.103,72.138L54.103,64.924ZM97.386,108.206C103.362,108.206,108.206,103.362,108.206,97.386L100.993,97.386C100.993,99.377,99.377,100.993,97.386,100.993L97.386,108.206ZM10.821,100.993C8.829,100.993,7.214,99.377,7.214,97.386L0,97.386C0,103.362,4.845,108.206,10.821,108.206L10.821,100.993ZM10.821,100.993"/>
</g>
  <g id="Semibold-L" transform="matrix(1.0,0.0,0.0,1.0,1990.4468157087053,1466.6668352399554)">  <path stroke-miterlimit="4" fill="#000000" stroke-opacity="1" fill-rule="nonzero" stroke-linejoin="miter" stroke-width="1px" fill-opacity="1" stroke="none" stroke-linecap="butt" stroke-dasharray="none" d="M54.103,3.607L56.451,0.868C55.1,-0.289,53.107,-0.289,51.756,0.868L54.103,3.607ZM3.607,46.889L1.26,44.151L0,45.23L0,46.889L3.607,46.889ZM39.676,104.599L39.676,108.206C41.668,108.206,43.283,106.591,43.283,104.599L39.676,104.599ZM68.531,104.599L64.924,104.599C64.924,106.591,66.539,108.206,68.531,108.206L68.531,104.599ZM104.599,46.889L108.206,46.889L108.206,45.23L106.947,44.151L104.599,46.889ZM10.821,108.206L39.676,108.206L39.676,100.993L10.821,100.993L10.821,108.206ZM106.947,44.151L56.451,0.868L51.756,6.345L102.252,49.628L106.947,44.151ZM51.756,0.868L1.26,44.151L5.954,49.628L56.451,6.345L51.756,0.868ZM43.283,104.599L43.283,82.958L36.069,82.958L36.069,104.599L43.283,104.599ZM64.924,82.958L64.924,104.599L72.138,104.599L72.138,82.958L64.924,82.958ZM68.531,108.206L97.386,108.206L97.386,100.993L68.531,100.993L68.531,108.206ZM108.206,97.386L108.206,46.889L100.993,46.889L100.993,97.386L108.206,97.386ZM0,46.889L0,97.386L7.214,97.386L7.214,46.889L0,46.889ZM54.103,72.138C60.079,72.138,64.924,76.982,64.924,82.958L72.138,82.958C72.138,72.998,64.063,64.924,54.103,64.924L54.103,72.138ZM54.103,64.924C44.143,64.924,36.069,72.998,36.069,82.958L43.283,82.958C43.283,76.982,48.127,72.138,54.103,72.138L54.103,64.924ZM97.386,108.206C103.362,108.206,108.206,103.362,108.206,97.386L100.993,97.386C100.993,99.377,99.377,100.993,97.386,100.993L97.386,108.206ZM10.821,100.993C8.829,100.993,7.214,99.377,7.214,97.386L0,97.386C0,103.362,4.845,108.206,10.821,108.206L10.821,100.993ZM10.821,100.993"/>
</g>
  <g id="Medium-L" transform="matrix(1.0,0.0,0.0,1.0,1693.7368157087053,1466.6668352399554)">  <path fill-opacity="1" stroke-linecap="butt" stroke="none" stroke-miterlimit="4" stroke-opacity="1" stroke-width="1px" fill="#000000" stroke-dasharray="none" stroke-linejoin="miter" fill-rule="nonzero" d="M54.103,3.607L56.451,0.868C55.1,-0.289,53.107,-0.289,51.756,0.868L54.103,3.607ZM3.607,46.889L1.26,44.151L0,45.23L0,46.889L3.607,46.889ZM39.676,104.599L39.676,108.206C41.668,108.206,43.283,106.591,43.283,104.599L39.676,104.599ZM68.531,104.599L64.924,104.599C64.924,106.591,66.539,108.206,68.531,108.206L68.531,104.599ZM104.599,46.889L108.206,46.889L108.206,45.23L106.947,44.151L104.599,46.889ZM10.821,108.206L39.676,108.206L39.676,100.993L10.821,100.993L10.821,108.206ZM106.947,44.151L56.451,0.868L51.756,6.345L102.252,49.628L106.947,44.151ZM51.756,0.868L1.26,44.151L5.954,49.628L56.451,6.345L51.756,0.868ZM43.283,104.599L43.283,82.958L36.069,82.958L36.069,104.599L43.283,104.599ZM64.924,82.958L64.924,104.599L72.138,104.599L72.138,82.958L64.924,82.958ZM68.531,108.206L97.386,108.206L97.386,100.993L68.531,100.993L68.531,108.206ZM108.206,97.386L108.206,46.889L100.993,46.889L100.993,97.386L108.206,97.386ZM0,46.889L0,97.386L7.214,97.386L7.214,46.889L0,46.889ZM54.103,72.138C60.079,72.138,64.924,76.982,64.924,82.958L72.138,82.958C72.138,72.998,64.063,64.924,54.103,64.924L54.103,72.138ZM54.103,64.924C44.143,64.924,36.069,72.998,36.069,82.958L43.283,82.958C43.283,76.982,48.127,72.138,54.103,72.138L54.103,64.924ZM97.386,108.206C103.362,108.206,108.206,103.362,108.206,97.386L100.993,97.386C100.993,99.377,99.377,100.993,97.386,100.993L97.386,108.206ZM10.821,100.993C8.829,100.993,7.214,99.377,7.214,97.386L0,97.386C0,103.362,4.845,108.206,10.821,108.206L10.821,100.993ZM10.821,100.993"/>
</g>
  <g id="Regular-L" transform="matrix(1.0,0.0,0.0,1.0,1397.0268157087053,1466.6668352399554)">  <path fill-opacity="1" stroke-linejoin="miter" fill-rule="nonzero" fill="#000000" stroke-miterlimit="4" stroke="none" stroke-linecap="butt" stroke-opacity="1" stroke-width="1px" stroke-dasharray="none" d="M54.103,3.607L56.451,0.868C55.1,-0.289,53.107,-0.289,51.756,0.868L54.103,3.607ZM3.607,46.889L1.26,44.151L0,45.23L0,46.889L3.607,46.889ZM39.676,104.599L39.676,108.206C41.668,108.206,43.283,106.591,43.283,104.599L39.676,104.599ZM68.531,104.599L64.924,104.599C64.924,106.591,66.539,108.206,68.531,108.206L68.531,104.599ZM104.599,46.889L108.206,46.889L108.206,45.23L106.947,44.151L104.599,46.889ZM10.821,108.206L39.676,108.206L39.676,100.993L10.821,100.993L10.821,108.206ZM106.947,44.151L56.451,0.868L51.756,6.345L102.252,49.628L106.947,44.151ZM51.756,0.868L1.26,44.151L5.954,49.628L56.451,6.345L51.756,0.868ZM43.283,104.599L43.283,82.958L36.069,82.958L36.069,104.599L43.283,104.599ZM64.924,82.958L64.924,104.599L72.138,104.599L72.138,82.958L64.924,82.958ZM68.531,108.206L97.386,108.206L97.386,100.993L68.531,100.993L68.531,108.206ZM108.206,97.386L108.206,46.889L100.993,46.889L100.993,97.386L108.206,97.386ZM0,46.889L0,97.386L7.214,97.386L7.214,46.889L0,46.889ZM54.103,72.138C60.079,72.138,64.924,76.982,64.924,82.958L72.138,82.958C72.138,72.998,64.063,64.924,54.103,64.924L54.103,72.138ZM54.103,64.924C44.143,64.924,36.069,72.998,36.069,82.958L43.283,82.958C43.283,76.982,48.127,72.138,54.103,72.138L54.103,64.924ZM97.386,108.206C103.362,108.206,108.206,103.362,108.206,97.386L100.993,97.386C100.993,99.377,99.377,100.993,97.386,100.993L97.386,108.206ZM10.821,100.993C8.829,100.993,7.214,99.377,7.214,97.386L0,97.386C0,103.362,4.845,108.206,10.821,108.206L10.821,100.993ZM10.821,100.993"/>
</g>
  <g id="Light-L" transform="matrix(1.0,0.0,0.0,1.0,1100.3168157087055,1466.6668352399554)">  <path stroke="none" stroke-miterlimit="4" fill-rule="nonzero" stroke-linecap="butt" stroke-linejoin="miter" stroke-width="1px" stroke-opacity="1" stroke-dasharray="none" fill="#000000" fill-opacity="1" d="M54.103,3.607L56.451,0.868C55.1,-0.289,53.107,-0.289,51.756,0.868L54.103,3.607ZM3.607,46.889L1.26,44.151L0,45.23L0,46.889L3.607,46.889ZM39.676,104.599L39.676,108.206C41.668,108.206,43.283,106.591,43.283,104.599L39.676,104.599ZM68.531,104.599L64.924,104.599C64.924,106.591,66.539,108.206,68.531,108.206L68.531,104.599ZM104.599,46.889L108.206,46.889L108.206,45.23L106.947,44.151L104.599,46.889ZM10.821,108.206L39.676,108.206L39.676,100.993L10.821,100.993L10.821,108.206ZM106.947,44.151L56.451,0.868L51.756,6.345L102.252,49.628L106.947,44.151ZM51.756,0.868L1.26,44.151L5.954,49.628L56.451,6.345L51.756,0.868ZM43.283,104.599L43.283,82.958L36.069,82.958L36.069,104.599L43.283,104.599ZM64.924,82.958L64.924,104.599L72.138,104.599L72.138,82.958L64.924,82.958ZM68.531,108.206L97.386,108.206L97.386,100.993L68.531,100.993L68.531,108.206ZM108.206,97.386L108.206,46.889L100.993,46.889L100.993,97.386L108.206,97.386ZM0,46.889L0,97.386L7.214,97.386L7.214,46.889L0,46.889ZM54.103,72.138C60.079,72.138,64.924,76.982,64.924,82.958L72.138,82.958C72.138,72.998,64.063,64.924,54.103,64.924L54.103,72.138ZM54.103,64.924C44.143,64.924,36.069,72.998,36.069,82.958L43.283,82.958C43.283,76.982,48.127,72.138,54.103,72.138L54.103,64.924ZM97.386,108.206C103.362,108.206,108.206,103.362,108.206,97.386L100.993,97.386C100.993,99.377,99.377,100.993,97.386,100.993L97.386,108.206ZM10.821,100.993C8.829,100.993,7.214,99.377,7.214,97.386L0,97.386C0,103.362,4.845,108.206,10.821,108.206L10.821,100.993ZM10.821,100.993"/>
</g>
  <g id="Thin-L" transform="matrix(1.0,0.0,0.0,1.0,803.6068157087054,1466.6668352399554)">  <path fill="#000000" stroke-miterlimit="4" stroke-linejoin="miter" stroke="none" stroke-opacity="1" stroke-linecap="butt" fill-rule="nonzero" stroke-dasharray="none" fill-opacity="1" stroke-width="1px" d="M54.103,3.607L56.451,0.868C55.1,-0.289,53.107,-0.289,51.756,0.868L54.103,3.607ZM3.607,46.889L1.26,44.151L0,45.23L0,46.889L3.607,46.889ZM39.676,104.599L39.676,108.206C41.668,108.206,43.283,106.591,43.283,104.599L39.676,104.599ZM68.531,104.599L64.924,104.599C64.924,106.591,66.539,108.206,68.531,108.206L68.531,104.599ZM104.599,46.889L108.206,46.889L108.206,45.23L106.947,44.151L104.599,46.889ZM10.821,108.206L39.676,108.206L39.676,100.993L10.821,100.993L10.821,108.206ZM106.947,44.151L56.451,0.868L51.756,6.345L102.252,49.628L106.947,44.151ZM51.756,0.868L1.26,44.151L5.954,49.628L56.451,6.345L51.756,0.868ZM43.283,104.599L43.283,82.958L36.069,82.958L36.069,104.599L43.283,104.599ZM64.924,82.958L64.924,104.599L72.138,104.599L72.138,82.958L64.924,82.958ZM68.531,108.206L97.386,108.206L97.386,100.993L68.531,100.993L68.531,108.206ZM108.206,97.386L108.206,46.889L100.993,46.889L100.993,97.386L108.206,97.386ZM0,46.889L0,97.386L7.214,97.386L7.214,46.889L0,46.889ZM54.103,72.138C60.079,72.138,64.924,76.982,64.924,82.958L72.138,82.958C72.138,72.998,64.063,64.924,54.103,64.924L54.103,72.138ZM54.103,64.924C44.143,64.924,36.069,72.998,36.069,82.958L43.283,82.958C43.283,76.982,48.127,72.138,54.103,72.138L54.103,64.924ZM97.386,108.206C103.362,108.206,108.206,103.362,108.206,97.386L100.993,97.386C100.993,99.377,99.377,100.993,97.386,100.993L97.386,108.206ZM10.821,100.993C8.829,100.993,7.214,99.377,7.214,97.386L0,97.386C0,103.362,4.845,108.206,10.821,108.206L10.821,100.993ZM10.821,100.993"/>
</g>
  <g id="Ultralight-L" transform="matrix(1.0,0.0,0.0,1.0,506.89681570870533,1466.6668352399554)">  <path fill="#000000" fill-opacity="1" stroke-miterlimit="4" stroke-linecap="butt" stroke-dasharray="none" stroke-linejoin="miter" fill-rule="nonzero" stroke="none" stroke-width="1px" stroke-opacity="1" d="M54.103,3.607L56.451,0.868C55.1,-0.289,53.107,-0.289,51.756,0.868L54.103,3.607ZM3.607,46.889L1.26,44.151L0,45.23L0,46.889L3.607,46.889ZM39.676,104.599L39.676,108.206C41.668,108.206,43.283,106.591,43.283,104.599L39.676,104.599ZM68.531,104.599L64.924,104.599C64.924,106.591,66.539,108.206,68.531,108.206L68.531,104.599ZM104.599,46.889L108.206,46.889L108.206,45.23L106.947,44.151L104.599,46.889ZM10.821,108.206L39.676,108.206L39.676,100.993L10.821,100.993L10.821,108.206ZM106.947,44.151L56.451,0.868L51.756,6.345L102.252,49.628L106.947,44.151ZM51.756,0.868L1.26,44.151L5.954,49.628L56.451,6.345L51.756,0.868ZM43.283,104.599L43.283,82.958L36.069,82.958L36.069,104.599L43.283,104.599ZM64.924,82.958L64.924,104.599L72.138,104.599L72.138,82.958L64.924,82.958ZM68.531,108.206L97.386,108.206L97.386,100.993L68.531,100.993L68.531,108.206ZM108.206,97.386L108.206,46.889L100.993,46.889L100.993,97.386L108.206,97.386ZM0,46.889L0,97.386L7.214,97.386L7.214,46.889L0,46.889ZM54.103,72.138C60.079,72.138,64.924,76.982,64.924,82.958L72.138,82.958C72.138,72.998,64.063,64.924,54.103,64.924L54.103,72.138ZM54.103,64.924C44.143,64.924,36.069,72.998,36.069,82.958L43.283,82.958C43.283,76.982,48.127,72.138,54.103,72.138L54.103,64.924ZM97.386,108.206C103.362,108.206,108.206,103.362,108.206,97.386L100.993,97.386C100.993,99.377,99.377,100.993,97.386,100.993L97.386,108.206ZM10.821,100.993C8.829,100.993,7.214,99.377,7.214,97.386L0,97.386C0,103.362,4.845,108.206,10.821,108.206L10.821,100.993ZM10.821,100.993"/>
</g>
  <g id="Black-M" transform="matrix(1.0,0.0,0.0,1.0,2892.7395470610118,1048.829566592262)">  <path stroke-dasharray="none" fill-rule="nonzero" stroke-width="1px" fill="#000000" stroke-linejoin="miter" stroke-opacity="1" stroke-linecap="butt" fill-opacity="1" stroke-miterlimit="4" stroke="none" d="M41.94,2.796L43.76,0.673C42.713,-0.224,41.168,-0.224,40.121,0.673L41.94,2.796ZM2.796,36.348L0.976,34.225L0,35.062L0,36.348L2.796,36.348ZM30.756,81.085L30.756,83.881C32.301,83.881,33.552,82.629,33.552,81.085L30.756,81.085ZM53.125,81.085L50.329,81.085C50.329,82.629,51.58,83.881,53.125,83.881L53.125,81.085ZM81.085,36.348L83.881,36.348L83.881,35.062L82.905,34.225L81.085,36.348ZM8.388,83.881L30.756,83.881L30.756,78.289L8.388,78.289L8.388,83.881ZM82.905,34.225L43.76,0.673L40.121,4.919L79.265,38.471L82.905,34.225ZM40.121,0.673L0.976,34.225L4.616,38.471L43.76,4.919L40.121,0.673ZM33.552,81.085L33.552,64.309L27.96,64.309L27.96,81.085L33.552,81.085ZM50.329,64.309L50.329,81.085L55.921,81.085L55.921,64.309L50.329,64.309ZM53.125,83.881L75.493,83.881L75.493,78.289L53.125,78.289L53.125,83.881ZM83.881,75.493L83.881,36.348L78.289,36.348L78.289,75.493L83.881,75.493ZM0,36.348L0,75.493L5.592,75.493L5.592,36.348L0,36.348ZM41.94,55.921C46.573,55.921,50.329,59.676,50.329,64.309L55.921,64.309C55.921,56.588,49.661,50.329,41.94,50.329L41.94,55.921ZM41.94,50.329C34.219,50.329,27.96,56.588,27.96,64.309L33.552,64.309C33.552,59.676,37.308,55.921,41.94,55.921L41.94,50.329ZM75.493,83.881C80.125,83.881,83.881,80.125,83.881,75.493L78.289,75.493C78.289,77.037,77.037,78.289,75.493,78.289L75.493,83.881ZM8.388,78.289C6.844,78.289,5.592,77.037,5.592,75.493L0,75.493C0,80.125,3.755,83.881,8.388,83.881L8.388,78.289ZM8.388,78.289"/>
</g>
  <g id="Heavy-M" transform="matrix(1.0,0.0,0.0,1.0,2596.0295470610117,1048.829566592262)">  <path stroke-opacity="1" stroke-width="1px" stroke-linecap="butt" stroke-dasharray="none" fill-rule="nonzero" fill="#000000" stroke="none" stroke-linejoin="miter" fill-opacity="1" stroke-miterlimit="4" d="M41.94,2.796L43.76,0.673C42.713,-0.224,41.168,-0.224,40.121,0.673L41.94,2.796ZM2.796,36.348L0.976,34.225L0,35.062L0,36.348L2.796,36.348ZM30.756,81.085L30.756,83.881C32.301,83.881,33.552,82.629,33.552,81.085L30.756,81.085ZM53.125,81.085L50.329,81.085C50.329,82.629,51.58,83.881,53.125,83.881L53.125,81.085ZM81.085,36.348L83.881,36.348L83.881,35.062L82.905,34.225L81.085,36.348ZM8.388,83.881L30.756,83.881L30.756,78.289L8.388,78.289L8.388,83.881ZM82.905,34.225L43.76,0.673L40.121,4.919L79.265,38.471L82.905,34.225ZM40.121,0.673L0.976,34.225L4.616,38.471L43.76,4.919L40.121,0.673ZM33.552,81.085L33.552,64.309L27.96,64.309L27.96,81.085L33.552,81.085ZM50.329,64.309L50.329,81.085L55.921,81.085L55.921,64.309L50.329,64.309ZM53.125,83.881L75.493,83.881L75.493,78.289L53.125,78.289L53.125,83.881ZM83.881,75.493L83.881,36.348L78.289,36.348L78.289,75.493L83.881,75.493ZM0,36.348L0,75.493L5.592,75.493L5.592,36.348L0,36.348ZM41.94,55.921C46.573,55.921,50.329,59.676,50.329,64.309L55.921,64.309C55.921,56.588,49.661,50.329,41.94,50.329L41.94,55.921ZM41.94,50.329C34.219,50.329,27.96,56.588,27.96,64.309L33.552,64.309C33.552,59.676,37.308,55.921,41.94,55.921L41.94,50.329ZM75.493,83.881C80.125,83.881,83.881,80.125,83.881,75.493L78.289,75.493C78.289,77.037,77.037,78.289,75.493,78.289L75.493,83.881ZM8.388,78.289C6.844,78.289,5.592,77.037,5.592,75.493L0,75.493C0,80.125,3.755,83.881,8.388,83.881L8.388,78.289ZM8.388,78.289"/>
</g>
  <g id="Bold-M" transform="matrix(1.0,0.0,0.0,1.0,2299.3195470610117,1048.829566592262)">  <path fill-opacity="1" stroke-opacity="1" fill="#000000" stroke-linecap="butt" stroke-width="1px" stroke-miterlimit="4" stroke="none" stroke-linejoin="miter" stroke-dasharray="none" fill-rule="nonzero" d="M41.94,2.796L43.76,0.673C42.713,-0.224,41.168,-0.224,40.121,0.673L41.94,2.796ZM2.796,36.348L0.976,34.225L0,35.062L0,36.348L2.796,36.348ZM30.756,81.085L30.756,83.881C32.301,83.881,33.552,82.629,33.552,81.085L30.756,81.085ZM53.125,81.085L50.329,81.085C50.329,82.629,51.58,83.881,53.125,83.881L53.125,81.085ZM81.085,36.348L83.881,36.348L83.881,35.062L82.905,34.225L81.085,36.348ZM8.388,83.881L30.756,83.881L30.756,78.289L8.388,78.289L8.388,83.881ZM82.905,34.225L43.76,0.673L40.121,4.919L79.265,38.471L82.905,34.225ZM40.121,0.673L0.976,34.225L4.616,38.471L43.76,4.919L40.121,0.673ZM33.552,81.085L33.552,64.309L27.96,64.309L27.96,81.085L33.552,81.085ZM50.329,64.309L50.329,81.085L55.921,81.085L55.921,64.309L50.329,64.309ZM53.125,83.881L75.493,83.881L75.493,78.289L53.125,78.289L53.125,83.881ZM83.881,75.493L83.881,36.348L78.289,36.348L78.289,75.493L83.881,75.493ZM0,36.348L0,75.493L5.592,75.493L5.592,36.348L0,36.348ZM41.94,55.921C46.573,55.921,50.329,59.676,50.329,64.309L55.921,64.309C55.921,56.588,49.661,50.329,41.94,50.329L41.94,55.921ZM41.94,50.329C34.219,50.329,27.96,56.588,27.96,64.309L33.552,64.309C33.552,59.676,37.308,55.921,41.94,55.921L41.94,50.329ZM75.493,83.881C80.125,83.881,83.881,80.125,83.881,75.493L78.289,75.493C78.289,77.037,77.037,78.289,75.493,78.289L75.493,83.881ZM8.388,78.289C6.844,78.289,5.592,77.037,5.592,75.493L0,75.493C0,80.125,3.755,83.881,8.388,83.881L8.388,78.289ZM8.388,78.289"/>
</g>
  <g id="Semibold-M" transform="matrix(1.0,0.0,0.0,1.0,2002.6095470610119,1048.829566592262)">  <path stroke-miterlimit="4" fill="#000000" stroke-opacity="1" fill-rule="nonzero" stroke-linejoin="miter" stroke-width="1px" fill-opacity="1" stroke="none" stroke-linecap="butt" stroke-dasharray="none" d="M41.94,2.796L43.76,0.673C42.713,-0.224,41.168,-0.224,40.121,0.673L41.94,2.796ZM2.796,36.348L0.976,34.225L0,35.062L0,36.348L2.796,36.348ZM30.756,81.085L30.756,83.881C32.301,83.881,33.552,82.629,33.552,81.085L30.756,81.085ZM53.125,81.085L50.329,81.085C50.329,82.629,51.58,83.881,53.125,83.881L53.125,81.085ZM81.085,36.348L83.881,36.348L83.881,35.062L82.905,34.225L81.085,36.348ZM8.388,83.881L30.756,83.881L30.756,78.289L8.388,78.289L8.388,83.881ZM82.905,34.225L43.76,0.673L40.121,4.919L79.265,38.471L82.905,34.225ZM40.121,0.673L0.976,34.225L4.616,38.471L43.76,4.919L40.121,0.673ZM33.552,81.085L33.552,64.309L27.96,64.309L27.96,81.085L33.552,81.085ZM50.329,64.309L50.329,81.085L55.921,81.085L55.921,64.309L50.329,64.309ZM53.125,83.881L75.493,83.881L75.493,78.289L53.125,78.289L53.125,83.881ZM83.881,75.493L83.881,36.348L78.289,36.348L78.289,75.493L83.881,75.493ZM0,36.348L0,75.493L5.592,75.493L5.592,36.348L0,36.348ZM41.94,55.921C46.573,55.921,50.329,59.676,50.329,64.309L55.921,64.309C55.921,56.588,49.661,50.329,41.94,50.329L41.94,55.921ZM41.94,50.329C34.219,50.329,27.96,56.588,27.96,64.309L33.552,64.309C33.552,59.676,37.308,55.921,41.94,55.921L41.94,50.329ZM75.493,83.881C80.125,83.881,83.881,80.125,83.881,75.493L78.289,75.493C78.289,77.037,77.037,78.289,75.493,78.289L75.493,83.881ZM8.388,78.289C6.844,78.289,5.592,77.037,5.592,75.493L0,75.493C0,80.125,3.755,83.881,8.388,83.881L8.388,78.289ZM8.388,78.289"/>
</g>
  <g id="Medium-M" transform="matrix(1.0,0.0,0.0,1.0,1705.8995470610118,1048.829566592262)">  <path fill-opacity="1" stroke-linecap="butt" stroke="none" stroke-miterlimit="4" stroke-opacity="1" stroke-width="1px" fill="#000000" stroke-dasharray="none" stroke-linejoin="miter" fill-rule="nonzero" d="M41.94,2.796L43.76,0.673C42.713,-0.224,41.168,-0.224,40.121,0.673L41.94,2.796ZM2.796,36.348L0.976,34.225L0,35.062L0,36.348L2.796,36.348ZM30.756,81.085L30.756,83.881C32.301,83.881,33.552,82.629,33.552,81.085L30.756,81.085ZM53.125,81.085L50.329,81.085C50.329,82.629,51.58,83.881,53.125,83.881L53.125,81.085ZM81.085,36.348L83.881,36.348L83.881,35.062L82.905,34.225L81.085,36.348ZM8.388,83.881L30.756,83.881L30.756,78.289L8.388,78.289L8.388,83.881ZM82.905,34.225L43.76,0.673L40.121,4.919L79.265,38.471L82.905,34.225ZM40.121,0.673L0.976,34.225L4.616,38.471L43.76,4.919L40.121,0.673ZM33.552,81.085L33.552,64.309L27.96,64.309L27.96,81.085L33.552,81.085ZM50.329,64.309L50.329,81.085L55.921,81.085L55.921,64.309L50.329,64.309ZM53.125,83.881L75.493,83.881L75.493,78.289L53.125,78.289L53.125,83.881ZM83.881,75.493L83.881,36.348L78.289,36.348L78.289,75.493L83.881,75.493ZM0,36.348L0,75.493L5.592,75.493L5.592,36.348L0,36.348ZM41.94,55.921C46.573,55.921,50.329,59.676,50.329,64.309L55.921,64.309C55.921,56.588,49.661,50.329,41.94,50.329L41.94,55.921ZM41.94,50.329C34.219,50.329,27.96,56.588,27.96,64.309L33.552,64.309C33.552,59.676,37.308,55.921,41.94,55.921L41.94,50.329ZM75.493,83.881C80.125,83.881,83.881,80.125,83.881,75.493L78.289,75.493C78.289,77.037,77.037,78.289,75.493,78.289L75.493,83.881ZM8.388,78.289C6.844,78.289,5.592,77.037,5.592,75.493L0,75.493C0,80.125,3.755,83.881,8.388,83.881L8.388,78.289ZM8.388,78.289"/>
</g>
  <g id="Regular-M" transform="matrix(1.0,0.0,0.0,1.0,1409.1895470610118,1048.829566592262)">  <path fill-opacity="1" stroke-linejoin="miter" fill-rule="nonzero" fill="#000000" stroke-miterlimit="4" stroke="none" stroke-linecap="butt" stroke-opacity="1" stroke-width="1px" stroke-dasharray="none" d="M41.94,2.796L43.76,0.673C42.713,-0.224,41.168,-0.224,40.121,0.673L41.94,2.796ZM2.796,36.348L0.976,34.225L0,35.062L0,36.348L2.796,36.348ZM30.756,81.085L30.756,83.881C32.301,83.881,33.552,82.629,33.552,81.085L30.756,81.085ZM53.125,81.085L50.329,81.085C50.329,82.629,51.58,83.881,53.125,83.881L53.125,81.085ZM81.085,36.348L83.881,36.348L83.881,35.062L82.905,34.225L81.085,36.348ZM8.388,83.881L30.756,83.881L30.756,78.289L8.388,78.289L8.388,83.881ZM82.905,34.225L43.76,0.673L40.121,4.919L79.265,38.471L82.905,34.225ZM40.121,0.673L0.976,34.225L4.616,38.471L43.76,4.919L40.121,0.673ZM33.552,81.085L33.552,64.309L27.96,64.309L27.96,81.085L33.552,81.085ZM50.329,64.309L50.329,81.085L55.921,81.085L55.921,64.309L50.329,64.309ZM53.125,83.881L75.493,83.881L75.493,78.289L53.125,78.289L53.125,83.881ZM83.881,75.493L83.881,36.348L78.289,36.348L78.289,75.493L83.881,75.493ZM0,36.348L0,75.493L5.592,75.493L5.592,36.348L0,36.348ZM41.94,55.921C46.573,55.921,50.329,59.676,50.329,64.309L55.921,64.309C55.921,56.588,49.661,50.329,41.94,50.329L41.94,55.921ZM41.94,50.329C34.219,50.329,27.96,56.588,27.96,64.309L33.552,64.309C33.552,59.676,37.308,55.921,41.94,55.921L41.94,50.329ZM75.493,83.881C80.125,83.881,83.881,80.125,83.881,75.493L78.289,75.493C78.289,77.037,77.037,78.289,75.493,78.289L75.493,83.881ZM8.388,78.289C6.844,78.289,5.592,77.037,5.592,75.493L0,75.493C0,80.125,3.755,83.881,8.388,83.881L8.388,78.289ZM8.388,78.289"/>
</g>
  <g id="Light-M" transform="matrix(1.0,0.0,0.0,1.0,1112.479547061012,1048.829566592262)">  <path stroke="none" stroke-miterlimit="4" fill-rule="nonzero" stroke-linecap="butt" stroke-linejoin="miter" stroke-width="1px" stroke-opacity="1" stroke-dasharray="none" fill="#000000" fill-opacity="1" d="M41.94,2.796L43.76,0.673C42.713,-0.224,41.168,-0.224,40.121,0.673L41.94,2.796ZM2.796,36.348L0.976,34.225L0,35.062L0,36.348L2.796,36.348ZM30.756,81.085L30.756,83.881C32.301,83.881,33.552,82.629,33.552,81.085L30.756,81.085ZM53.125,81.085L50.329,81.085C50.329,82.629,51.58,83.881,53.125,83.881L53.125,81.085ZM81.085,36.348L83.881,36.348L83.881,35.062L82.905,34.225L81.085,36.348ZM8.388,83.881L30.756,83.881L30.756,78.289L8.388,78.289L8.388,83.881ZM82.905,34.225L43.76,0.673L40.121,4.919L79.265,38.471L82.905,34.225ZM40.121,0.673L0.976,34.225L4.616,38.471L43.76,4.919L40.121,0.673ZM33.552,81.085L33.552,64.309L27.96,64.309L27.96,81.085L33.552,81.085ZM50.329,64.309L50.329,81.085L55.921,81.085L55.921,64.309L50.329,64.309ZM53.125,83.881L75.493,83.881L75.493,78.289L53.125,78.289L53.125,83.881ZM83.881,75.493L83.881,36.348L78.289,36.348L78.289,75.493L83.881,75.493ZM0,36.348L0,75.493L5.592,75.493L5.592,36.348L0,36.348ZM41.94,55.921C46.573,55.921,50.329,59.676,50.329,64.309L55.921,64.309C55.921,56.588,49.661,50.329,41.94,50.329L41.94,55.921ZM41.94,50.329C34.219,50.329,27.96,56.588,27.96,64.309L33.552,64.309C33.552,59.676,37.308,55.921,41.94,55.921L41.94,50.329ZM75.493,83.881C80.125,83.881,83.881,80.125,83.881,75.493L78.289,75.493C78.289,77.037,77.037,78.289,75.493,78.289L75.493,83.881ZM8.388,78.289C6.844,78.289,5.592,77.037,5.592,75.493L0,75.493C0,80.125,3.755,83.881,8.388,83.881L8.388,78.289ZM8.388,78.289"/>
</g>
  <g id="Thin-M" transform="matrix(1.0,0.0,0.0,1.0,815.769547061012,1048.829566592262)">  <path fill="#000000" stroke-miterlimit="4" stroke-linejoin="miter" stroke="none" stroke-opacity="1" stroke-linecap="butt" fill-rule="nonzero" stroke-dasharray="none" fill-opacity="1" stroke-width="1px" d="M41.94,2.796L43.76,0.673C42.713,-0.224,41.168,-0.224,40.121,0.673L41.94,2.796ZM2.796,36.348L0.976,34.225L0,35.062L0,36.348L2.796,36.348ZM30.756,81.085L30.756,83.881C32.301,83.881,33.552,82.629,33.552,81.085L30.756,81.085ZM53.125,81.085L50.329,81.085C50.329,82.629,51.58,83.881,53.125,83.881L53.125,81.085ZM81.085,36.348L83.881,36.348L83.881,35.062L82.905,34.225L81.085,36.348ZM8.388,83.881L30.756,83.881L30.756,78.289L8.388,78.289L8.388,83.881ZM82.905,34.225L43.76,0.673L40.121,4.919L79.265,38.471L82.905,34.225ZM40.121,0.673L0.976,34.225L4.616,38.471L43.76,4.919L40.121,0.673ZM33.552,81.085L33.552,64.309L27.96,64.309L27.96,81.085L33.552,81.085ZM50.329,64.309L50.329,81.085L55.921,81.085L55.921,64.309L50.329,64.309ZM53.125,83.881L75.493,83.881L75.493,78.289L53.125,78.289L53.125,83.881ZM83.881,75.493L83.881,36.348L78.289,36.348L78.289,75.493L83.881,75.493ZM0,36.348L0,75.493L5.592,75.493L5.592,36.348L0,36.348ZM41.94,55.921C46.573,55.921,50.329,59.676,50.329,64.309L55.921,64.309C55.921,56.588,49.661,50.329,41.94,50.329L41.94,55.921ZM41.94,50.329C34.219,50.329,27.96,56.588,27.96,64.309L33.552,64.309C33.552,59.676,37.308,55.921,41.94,55.921L41.94,50.329ZM75.493,83.881C80.125,83.881,83.881,80.125,83.881,75.493L78.289,75.493C78.289,77.037,77.037,78.289,75.493,78.289L75.493,83.881ZM8.388,78.289C6.844,78.289,5.592,77.037,5.592,75.493L0,75.493C0,80.125,3.755,83.881,8.388,83.881L8.388,78.289ZM8.388,78.289"/>
</g>
  <g id="Ultralight-M" transform="matrix(1.0,0.0,0.0,1.0,519.0595470610119,1048.829566592262)">  <path fill="#000000" fill-opacity="1" stroke-miterlimit="4" stroke-linecap="butt" stroke-dasharray="none" stroke-linejoin="miter" fill-rule="nonzero" stroke="none" stroke-width="1px" stroke-opacity="1" d="M41.94,2.796L43.76,0.673C42.713,-0.224,41.168,-0.224,40.121,0.673L41.94,2.796ZM2.796,36.348L0.976,34.225L0,35.062L0,36.348L2.796,36.348ZM30.756,81.085L30.756,83.881C32.301,83.881,33.552,82.629,33.552,81.085L30.756,81.085ZM53.125,81.085L50.329,81.085C50.329,82.629,51.58,83.881,53.125,83.881L53.125,81.085ZM81.085,36.348L83.881,36.348L83.881,35.062L82.905,34.225L81.085,36.348ZM8.388,83.881L30.756,83.881L30.756,78.289L8.388,78.289L8.388,83.881ZM82.905,34.225L43.76,0.673L40.121,4.919L79.265,38.471L82.905,34.225ZM40.121,0.673L0.976,34.225L4.616,38.471L43.76,4.919L40.121,0.673ZM33.552,81.085L33.552,64.309L27.96,64.309L27.96,81.085L33.552,81.085ZM50.329,64.309L50.329,81.085L55.921,81.085L55.921,64.309L50.329,64.309ZM53.125,83.881L75.493,83.881L75.493,78.289L53.125,78.289L53.125,83.881ZM83.881,75.493L83.881,36.348L78.289,36.348L78.289,75.493L83.881,75.493ZM0,36.348L0,75.493L5.592,75.493L5.592,36.348L0,36.348ZM41.94,55.921C46.573,55.921,50.329,59.676,50.329,64.309L55.921,64.309C55.921,56.588,49.661,50.329,41.94,50.329L41.94,55.921ZM41.94,50.329C34.219,50.329,27.96,56.588,27.96,64.309L33.552,64.309C33.552,59.676,37.308,55.921,41.94,55.921L41.94,50.329ZM75.493,83.881C80.125,83.881,83.881,80.125,83.881,75.493L78.289,75.493C78.289,77.037,77.037,78.289,75.493,78.289L75.493,83.881ZM8.388,78.289C6.844,78.289,5.592,77.037,5.592,75.493L0,75.493C0,80.125,3.755,83.881,8.388,83.881L8.388,78.289ZM8.388,78.289"/>
</g>
  <g id="Black-S" transform="matrix(1.0,0.0,0.0,1.0,2901.840625348772,627.9306448800223)">  <path stroke-dasharray="none" fill-rule="nonzero" stroke-width="1px" fill="#000000" stroke-linejoin="miter" stroke-opacity="1" stroke-linecap="butt" fill-opacity="1" stroke-miterlimit="4" stroke="none" d="M32.839,2.189L34.264,0.527C33.444,-0.176,32.234,-0.176,31.415,0.527L32.839,2.189ZM2.189,28.461L0.765,26.799L0,27.454L0,28.461L2.189,28.461ZM24.082,63.489L24.082,65.679C25.291,65.679,26.271,64.698,26.271,63.489L24.082,63.489ZM41.597,63.489L39.407,63.489C39.407,64.698,40.387,65.679,41.597,65.679L41.597,63.489ZM63.489,28.461L65.679,28.461L65.679,27.454L64.914,26.799L63.489,28.461ZM6.568,65.679L24.082,65.679L24.082,61.3L6.568,61.3L6.568,65.679ZM64.914,26.799L34.264,0.527L31.415,3.852L62.065,30.123L64.914,26.799ZM31.415,0.527L0.765,26.799L3.614,30.123L34.264,3.852L31.415,0.527ZM26.271,63.489L26.271,50.354L21.893,50.354L21.893,63.489L26.271,63.489ZM39.407,50.354L39.407,63.489L43.786,63.489L43.786,50.354L39.407,50.354ZM41.597,65.679L59.111,65.679L59.111,61.3L41.597,61.3L41.597,65.679ZM65.679,59.111L65.679,28.461L61.3,28.461L61.3,59.111L65.679,59.111ZM0,28.461L0,59.111L4.379,59.111L4.379,28.461L0,28.461ZM32.839,43.786C36.467,43.786,39.407,46.726,39.407,50.354L43.786,50.354C43.786,44.308,38.885,39.407,32.839,39.407L32.839,43.786ZM32.839,39.407C26.794,39.407,21.893,44.308,21.893,50.354L26.271,50.354C26.271,46.726,29.212,43.786,32.839,43.786L32.839,39.407ZM59.111,65.679C62.738,65.679,65.679,62.738,65.679,59.111L61.3,59.111C61.3,60.32,60.32,61.3,59.111,61.3L59.111,65.679ZM6.568,61.3C5.359,61.3,4.379,60.32,4.379,59.111L0,59.111C0,62.738,2.941,65.679,6.568,65.679L6.568,61.3ZM6.568,61.3"/>
</g>
  <g id="Heavy-S" transform="matrix(1.0,0.0,0.0,1.0,2605.130625348772,627.9306448800223)">  <path stroke-opacity="1" stroke-width="1px" stroke-linecap="butt" stroke-dasharray="none" fill-rule="nonzero" fill="#000000" stroke="none" stroke-linejoin="miter" fill-opacity="1" stroke-miterlimit="4" d="M32.839,2.189L34.264,0.527C33.444,-0.176,32.234,-0.176,31.415,0.527L32.839,2.189ZM2.189,28.461L0.765,26.799L0,27.454L0,28.461L2.189,28.461ZM24.082,63.489L24.082,65.679C25.291,65.679,26.271,64.698,26.271,63.489L24.082,63.489ZM41.597,63.489L39.407,63.489C39.407,64.698,40.387,65.679,41.597,65.679L41.597,63.489ZM63.489,28.461L65.679,28.461L65.679,27.454L64.914,26.799L63.489,28.461ZM6.568,65.679L24.082,65.679L24.082,61.3L6.568,61.3L6.568,65.679ZM64.914,26.799L34.264,0.527L31.415,3.852L62.065,30.123L64.914,26.799ZM31.415,0.527L0.765,26.799L3.614,30.123L34.264,3.852L31.415,0.527ZM26.271,63.489L26.271,50.354L21.893,50.354L21.893,63.489L26.271,63.489ZM39.407,50.354L39.407,63.489L43.786,63.489L43.786,50.354L39.407,50.354ZM41.597,65.679L59.111,65.679L59.111,61.3L41.597,61.3L41.597,65.679ZM65.679,59.111L65.679,28.461L61.3,28.461L61.3,59.111L65.679,59.111ZM0,28.461L0,59.111L4.379,59.111L4.379,28.461L0,28.461ZM32.839,43.786C36.467,43.786,39.407,46.726,39.407,50.354L43.786,50.354C43.786,44.308,38.885,39.407,32.839,39.407L32.839,43.786ZM32.839,39.407C26.794,39.407,21.893,44.308,21.893,50.354L26.271,50.354C26.271,46.726,29.212,43.786,32.839,43.786L32.839,39.407ZM59.111,65.679C62.738,65.679,65.679,62.738,65.679,59.111L61.3,59.111C61.3,60.32,60.32,61.3,59.111,61.3L59.111,65.679ZM6.568,61.3C5.359,61.3,4.379,60.32,4.379,59.111L0,59.111C0,62.738,2.941,65.679,6.568,65.679L6.568,61.3ZM6.568,61.3"/>
</g>
  <g id="Bold-S" transform="matrix(1.0,0.0,0.0,1.0,2308.420625348772,627.9306448800223)">  <path fill-opacity="1" stroke-opacity="1" fill="#000000" stroke-linecap="butt" stroke-width="1px" stroke-miterlimit="4" stroke="none" stroke-linejoin="miter" stroke-dasharray="none" fill-rule="nonzero" d="M32.839,2.189L34.264,0.527C33.444,-0.176,32.234,-0.176,31.415,0.527L32.839,2.189ZM2.189,28.461L0.765,26.799L0,27.454L0,28.461L2.189,28.461ZM24.082,63.489L24.082,65.679C25.291,65.679,26.271,64.698,26.271,63.489L24.082,63.489ZM41.597,63.489L39.407,63.489C39.407,64.698,40.387,65.679,41.597,65.679L41.597,63.489ZM63.489,28.461L65.679,28.461L65.679,27.454L64.914,26.799L63.489,28.461ZM6.568,65.679L24.082,65.679L24.082,61.3L6.568,61.3L6.568,65.679ZM64.914,26.799L34.264,0.527L31.415,3.852L62.065,30.123L64.914,26.799ZM31.415,0.527L0.765,26.799L3.614,30.123L34.264,3.852L31.415,0.527ZM26.271,63.489L26.271,50.354L21.893,50.354L21.893,63.489L26.271,63.489ZM39.407,50.354L39.407,63.489L43.786,63.489L43.786,50.354L39.407,50.354ZM41.597,65.679L59.111,65.679L59.111,61.3L41.597,61.3L41.597,65.679ZM65.679,59.111L65.679,28.461L61.3,28.461L61.3,59.111L65.679,59.111ZM0,28.461L0,59.111L4.379,59.111L4.379,28.461L0,28.461ZM32.839,43.786C36.467,43.786,39.407,46.726,39.407,50.354L43.786,50.354C43.786,44.308,38.885,39.407,32.839,39.407L32.839,43.786ZM32.839,39.407C26.794,39.407,21.893,44.308,21.893,50.354L26.271,50.354C26.271,46.726,29.212,43.786,32.839,43.786L32.839,39.407ZM59.111,65.679C62.738,65.679,65.679,62.738,65.679,59.111L61.3,59.111C61.3,60.32,60.32,61.3,59.111,61.3L59.111,65.679ZM6.568,61.3C5.359,61.3,4.379,60.32,4.379,59.111L0,59.111C0,62.738,2.941,65.679,6.568,65.679L6.568,61.3ZM6.568,61.3"/>
</g>
  <g id="Semibold-S" transform="matrix(1.0,0.0,0.0,1.0,2011.7106253487723,627.9306448800223)">  <path stroke-miterlimit="4" fill="#000000" stroke-opacity="1" fill-rule="nonzero" stroke-linejoin="miter" stroke-width="1px" fill-opacity="1" stroke="none" stroke-linecap="butt" stroke-dasharray="none" d="M32.839,2.189L34.264,0.527C33.444,-0.176,32.234,-0.176,31.415,0.527L32.839,2.189ZM2.189,28.461L0.765,26.799L0,27.454L0,28.461L2.189,28.461ZM24.082,63.489L24.082,65.679C25.291,65.679,26.271,64.698,26.271,63.489L24.082,63.489ZM41.597,63.489L39.407,63.489C39.407,64.698,40.387,65.679,41.597,65.679L41.597,63.489ZM63.489,28.461L65.679,28.461L65.679,27.454L64.914,26.799L63.489,28.461ZM6.568,65.679L24.082,65.679L24.082,61.3L6.568,61.3L6.568,65.679ZM64.914,26.799L34.264,0.527L31.415,3.852L62.065,30.123L64.914,26.799ZM31.415,0.527L0.765,26.799L3.614,30.123L34.264,3.852L31.415,0.527ZM26.271,63.489L26.271,50.354L21.893,50.354L21.893,63.489L26.271,63.489ZM39.407,50.354L39.407,63.489L43.786,63.489L43.786,50.354L39.407,50.354ZM41.597,65.679L59.111,65.679L59.111,61.3L41.597,61.3L41.597,65.679ZM65.679,59.111L65.679,28.461L61.3,28.461L61.3,59.111L65.679,59.111ZM0,28.461L0,59.111L4.379,59.111L4.379,28.461L0,28.461ZM32.839,43.786C36.467,43.786,39.407,46.726,39.407,50.354L43.786,50.354C43.786,44.308,38.885,39.407,32.839,39.407L32.839,43.786ZM32.839,39.407C26.794,39.407,21.893,44.308,21.893,50.354L26.271,50.354C26.271,46.726,29.212,43.786,32.839,43.786L32.839,39.407ZM59.111,65.679C62.738,65.679,65.679,62.738,65.679,59.111L61.3,59.111C61.3,60.32,60.32,61.3,59.111,61.3L59.111,65.679ZM6.568,61.3C5.359,61.3,4.379,60.32,4.379,59.111L0,59.111C0,62.738,2.941,65.679,6.568,65.679L6.568,61.3ZM6.568,61.3"/>
</g>
  <g id="Medium-S" transform="matrix(1.0,0.0,0.0,1.0,1715.0006253487722,627.9306448800223)">  <path fill-opacity="1" stroke-linecap="butt" stroke="none" stroke-miterlimit="4" stroke-opacity="1" stroke-width="1px" fill="#000000" stroke-dasharray="none" stroke-linejoin="miter" fill-rule="nonzero" d="M32.839,2.189L34.264,0.527C33.444,-0.176,32.234,-0.176,31.415,0.527L32.839,2.189ZM2.189,28.461L0.765,26.799L0,27.454L0,28.461L2.189,28.461ZM24.082,63.489L24.082,65.679C25.291,65.679,26.271,64.698,26.271,63.489L24.082,63.489ZM41.597,63.489L39.407,63.489C39.407,64.698,40.387,65.679,41.597,65.679L41.597,63.489ZM63.489,28.461L65.679,28.461L65.679,27.454L64.914,26.799L63.489,28.461ZM6.568,65.679L24.082,65.679L24.082,61.3L6.568,61.3L6.568,65.679ZM64.914,26.799L34.264,0.527L31.415,3.852L62.065,30.123L64.914,26.799ZM31.415,0.527L0.765,26.799L3.614,30.123L34.264,3.852L31.415,0.527ZM26.271,63.489L26.271,50.354L21.893,50.354L21.893,63.489L26.271,63.489ZM39.407,50.354L39.407,63.489L43.786,63.489L43.786,50.354L39.407,50.354ZM41.597,65.679L59.111,65.679L59.111,61.3L41.597,61.3L41.597,65.679ZM65.679,59.111L65.679,28.461L61.3,28.461L61.3,59.111L65.679,59.111ZM0,28.461L0,59.111L4.379,59.111L4.379,28.461L0,28.461ZM32.839,43.786C36.467,43.786,39.407,46.726,39.407,50.354L43.786,50.354C43.786,44.308,38.885,39.407,32.839,39.407L32.839,43.786ZM32.839,39.407C26.794,39.407,21.893,44.308,21.893,50.354L26.271,50.354C26.271,46.726,29.212,43.786,32.839,43.786L32.839,39.407ZM59.111,65.679C62.738,65.679,65.679,62.738,65.679,59.111L61.3,59.111C61.3,60.32,60.32,61.3,59.111,61.3L59.111,65.679ZM6.568,61.3C5.359,61.3,4.379,60.32,4.379,59.111L0,59.111C0,62.738,2.941,65.679,6.568,65.679L6.568,61.3ZM6.568,61.3"/>
</g>
  <g id="Regular-S" transform="matrix(1.0,0.0,0.0,1.0,1418.2906253487722,627.9306448800223)">  <path fill-opacity="1" stroke-linejoin="miter" fill-rule="nonzero" fill="#000000" stroke-miterlimit="4" stroke="none" stroke-linecap="butt" stroke-opacity="1" stroke-width="1px" stroke-dasharray="none" d="M32.839,2.189L34.264,0.527C33.444,-0.176,32.234,-0.176,31.415,0.527L32.839,2.189ZM2.189,28.461L0.765,26.799L0,27.454L0,28.461L2.189,28.461ZM24.082,63.489L24.082,65.679C25.291,65.679,26.271,64.698,26.271,63.489L24.082,63.489ZM41.597,63.489L39.407,63.489C39.407,64.698,40.387,65.679,41.597,65.679L41.597,63.489ZM63.489,28.461L65.679,28.461L65.679,27.454L64.914,26.799L63.489,28.461ZM6.568,65.679L24.082,65.679L24.082,61.3L6.568,61.3L6.568,65.679ZM64.914,26.799L34.264,0.527L31.415,3.852L62.065,30.123L64.914,26.799ZM31.415,0.527L0.765,26.799L3.614,30.123L34.264,3.852L31.415,0.527ZM26.271,63.489L26.271,50.354L21.893,50.354L21.893,63.489L26.271,63.489ZM39.407,50.354L39.407,63.489L43.786,63.489L43.786,50.354L39.407,50.354ZM41.597,65.679L59.111,65.679L59.111,61.3L41.597,61.3L41.597,65.679ZM65.679,59.111L65.679,28.461L61.3,28.461L61.3,59.111L65.679,59.111ZM0,28.461L0,59.111L4.379,59.111L4.379,28.461L0,28.461ZM32.839,43.786C36.467,43.786,39.407,46.726,39.407,50.354L43.786,50.354C43.786,44.308,38.885,39.407,32.839,39.407L32.839,43.786ZM32.839,39.407C26.794,39.407,21.893,44.308,21.893,50.354L26.271,50.354C26.271,46.726,29.212,43.786,32.839,43.786L32.839,39.407ZM59.111,65.679C62.738,65.679,65.679,62.738,65.679,59.111L61.3,59.111C61.3,60.32,60.32,61.3,59.111,61.3L59.111,65.679ZM6.568,61.3C5.359,61.3,4.379,60.32,4.379,59.111L0,59.111C0,62.738,2.941,65.679,6.568,65.679L6.568,61.3ZM6.568,61.3"/>
</g>
  <g id="Light-S" transform="matrix(1.0,0.0,0.0,1.0,1121.5806253487724,627.9306448800223)">  <path stroke="none" stroke-miterlimit="4" fill-rule="nonzero" stroke-linecap="butt" stroke-linejoin="miter" stroke-width="1px" stroke-opacity="1" stroke-dasharray="none" fill="#000000" fill-opacity="1" d="M32.839,2.189L34.264,0.527C33.444,-0.176,32.234,-0.176,31.415,0.527L32.839,2.189ZM2.189,28.461L0.765,26.799L0,27.454L0,28.461L2.189,28.461ZM24.082,63.489L24.082,65.679C25.291,65.679,26.271,64.698,26.271,63.489L24.082,63.489ZM41.597,63.489L39.407,63.489C39.407,64.698,40.387,65.679,41.597,65.679L41.597,63.489ZM63.489,28.461L65.679,28.461L65.679,27.454L64.914,26.799L63.489,28.461ZM6.568,65.679L24.082,65.679L24.082,61.3L6.568,61.3L6.568,65.679ZM64.914,26.799L34.264,0.527L31.415,3.852L62.065,30.123L64.914,26.799ZM31.415,0.527L0.765,26.799L3.614,30.123L34.264,3.852L31.415,0.527ZM26.271,63.489L26.271,50.354L21.893,50.354L21.893,63.489L26.271,63.489ZM39.407,50.354L39.407,63.489L43.786,63.489L43.786,50.354L39.407,50.354ZM41.597,65.679L59.111,65.679L59.111,61.3L41.597,61.3L41.597,65.679ZM65.679,59.111L65.679,28.461L61.3,28.461L61.3,59.111L65.679,59.111ZM0,28.461L0,59.111L4.379,59.111L4.379,28.461L0,28.461ZM32.839,43.786C36.467,43.786,39.407,46.726,39.407,50.354L43.786,50.354C43.786,44.308,38.885,39.407,32.839,39.407L32.839,43.786ZM32.839,39.407C26.794,39.407,21.893,44.308,21.893,50.354L26.271,50.354C26.271,46.726,29.212,43.786,32.839,43.786L32.839,39.407ZM59.111,65.679C62.738,65.679,65.679,62.738,65.679,59.111L61.3,59.111C61.3,60.32,60.32,61.3,59.111,61.3L59.111,65.679ZM6.568,61.3C5.359,61.3,4.379,60.32,4.379,59.111L0,59.111C0,62.738,2.941,65.679,6.568,65.679L6.568,61.3ZM6.568,61.3"/>
</g>
  <g id="Thin-S" transform="matrix(1.0,0.0,0.0,1.0,824.8706253487724,627.9306448800223)">  <path fill="#000000" stroke-miterlimit="4" stroke-linejoin="miter" stroke="none" stroke-opacity="1" stroke-linecap="butt" fill-rule="nonzero" stroke-dasharray="none" fill-opacity="1" stroke-width="1px" d="M32.839,2.189L34.264,0.527C33.444,-0.176,32.234,-0.176,31.415,0.527L32.839,2.189ZM2.189,28.461L0.765,26.799L0,27.454L0,28.461L2.189,28.461ZM24.082,63.489L24.082,65.679C25.291,65.679,26.271,64.698,26.271,63.489L24.082,63.489ZM41.597,63.489L39.407,63.489C39.407,64.698,40.387,65.679,41.597,65.679L41.597,63.489ZM63.489,28.461L65.679,28.461L65.679,27.454L64.914,26.799L63.489,28.461ZM6.568,65.679L24.082,65.679L24.082,61.3L6.568,61.3L6.568,65.679ZM64.914,26.799L34.264,0.527L31.415,3.852L62.065,30.123L64.914,26.799ZM31.415,0.527L0.765,26.799L3.614,30.123L34.264,3.852L31.415,0.527ZM26.271,63.489L26.271,50.354L21.893,50.354L21.893,63.489L26.271,63.489ZM39.407,50.354L39.407,63.489L43.786,63.489L43.786,50.354L39.407,50.354ZM41.597,65.679L59.111,65.679L59.111,61.3L41.597,61.3L41.597,65.679ZM65.679,59.111L65.679,28.461L61.3,28.461L61.3,59.111L65.679,59.111ZM0,28.461L0,59.111L4.379,59.111L4.379,28.461L0,28.461ZM32.839,43.786C36.467,43.786,39.407,46.726,39.407,50.354L43.786,50.354C43.786,44.308,38.885,39.407,32.839,39.407L32.839,43.786ZM32.839,39.407C26.794,39.407,21.893,44.308,21.893,50.354L26.271,50.354C26.271,46.726,29.212,43.786,32.839,43.786L32.839,39.407ZM59.111,65.679C62.738,65.679,65.679,62.738,65.679,59.111L61.3,59.111C61.3,60.32,60.32,61.3,59.111,61.3L59.111,65.679ZM6.568,61.3C5.359,61.3,4.379,60.32,4.379,59.111L0,59.111C0,62.738,2.941,65.679,6.568,65.679L6.568,61.3ZM6.568,61.3"/>
</g>
  <g id="Ultralight-S" transform="matrix(1.0,0.0,0.0,1.0,528.1606253487723,627.9306448800223)">  <path fill="#000000" fill-opacity="1" stroke-miterlimit="4" stroke-linecap="butt" stroke-dasharray="none" stroke-linejoin="miter" fill-rule="nonzero" stroke="none" stroke-width="1px" stroke-opacity="1" d="M32.839,2.189L34.264,0.527C33.444,-0.176,32.234,-0.176,31.415,0.527L32.839,2.189ZM2.189,28.461L0.765,26.799L0,27.454L0,28.461L2.189,28.461ZM24.082,63.489L24.082,65.679C25.291,65.679,26.271,64.698,26.271,63.489L24.082,63.489ZM41.597,63.489L39.407,63.489C39.407,64.698,40.387,65.679,41.597,65.679L41.597,63.489ZM63.489,28.461L65.679,28.461L65.679,27.454L64.914,26.799L63.489,28.461ZM6.568,65.679L24.082,65.679L24.082,61.3L6.568,61.3L6.568,65.679ZM64.914,26.799L34.264,0.527L31.415,3.852L62.065,30.123L64.914,26.799ZM31.415,0.527L0.765,26.799L3.614,30.123L34.264,3.852L31.415,0.527ZM26.271,63.489L26.271,50.354L21.893,50.354L21.893,63.489L26.271,63.489ZM39.407,50.354L39.407,63.489L43.786,63.489L43.786,50.354L39.407,50.354ZM41.597,65.679L59.111,65.679L59.111,61.3L41.597,61.3L41.597,65.679ZM65.679,59.111L65.679,28.461L61.3,28.461L61.3,59.111L65.679,59.111ZM0,28.461L0,59.111L4.379,59.111L4.379,28.461L0,28.461ZM32.839,43.786C36.467,43.786,39.407,46.726,39.407,50.354L43.786,50.354C43.786,44.308,38.885,39.407,32.839,39.407L32.839,43.786ZM32.839,39.407C26.794,39.407,21.893,44.308,21.893,50.354L26.271,50.354C26.271,46.726,29.212,43.786,32.839,43.786L32.839,39.407ZM59.111,65.679C62.738,65.679,65.679,62.738,65.679,59.111L61.3,59.111C61.3,60.32,60.32,61.3,59.111,61.3L59.111,65.679ZM6.568,61.3C5.359,61.3,4.379,60.32,4.379,59.111L0,59.111C0,62.738,2.941,65.679,6.568,65.679L6.568,61.3ZM6.568,61.3"/>
</g>
 </g>
</svg>
