<?xml version="1.0" encoding="UTF-8"?>
<!--Generator: Apple Native CoreSVG 175.5-->
<!DOCTYPE svg
PUBLIC "-//W3C//DTD SVG 1.1//EN"
       "http://www.w3.org/Graphics/SVG/1.1/DTD/svg11.dtd">
<svg version="1.1" xmlns="http://www.w3.org/2000/svg" xmlns:xlink="http://www.w3.org/1999/xlink" width="3300" height="2200">
 <!--glyph: "", point size: 100.0, font version: "18.0d12e2", template writer version: "101"-->
 <g id="Notes">
  <rect height="2200" id="artboard" style="fill:white;opacity:1" width="3300" x="0" y="0"/>
  <line style="fill:none;stroke:black;opacity:1;stroke-width:0.5;" x1="263" x2="3036" y1="292" y2="292"/>
  <text style="stroke:none;fill:black;font-family:sans-serif;font-size:13;font-weight:bold;" transform="matrix(1 0 0 1 263 322)">Weight/Scale Variations</text>
  <text style="stroke:none;fill:black;font-family:sans-serif;font-size:13;text-anchor:middle;" transform="matrix(1 0 0 1 559.711 322)">Ultralight</text>
  <text style="stroke:none;fill:black;font-family:sans-serif;font-size:13;text-anchor:middle;" transform="matrix(1 0 0 1 856.422 322)">Thin</text>
  <text style="stroke:none;fill:black;font-family:sans-serif;font-size:13;text-anchor:middle;" transform="matrix(1 0 0 1 1153.13 322)">Light</text>
  <text style="stroke:none;fill:black;font-family:sans-serif;font-size:13;text-anchor:middle;" transform="matrix(1 0 0 1 1449.84 322)">Regular</text>
  <text style="stroke:none;fill:black;font-family:sans-serif;font-size:13;text-anchor:middle;" transform="matrix(1 0 0 1 1746.56 322)">Medium</text>
  <text style="stroke:none;fill:black;font-family:sans-serif;font-size:13;text-anchor:middle;" transform="matrix(1 0 0 1 2043.27 322)">Semibold</text>
  <text style="stroke:none;fill:black;font-family:sans-serif;font-size:13;text-anchor:middle;" transform="matrix(1 0 0 1 2339.98 322)">Bold</text>
  <text style="stroke:none;fill:black;font-family:sans-serif;font-size:13;text-anchor:middle;" transform="matrix(1 0 0 1 2636.69 322)">Heavy</text>
  <text style="stroke:none;fill:black;font-family:sans-serif;font-size:13;text-anchor:middle;" transform="matrix(1 0 0 1 2933.4 322)">Black</text>
  <line style="fill:none;stroke:black;opacity:1;stroke-width:0.5;" x1="263" x2="3036" y1="1903" y2="1903"/>
  <g transform="matrix(1 0 0 1 263 1933)">
   <path d="M9.24805 0.830078C13.5547 0.830078 17.1387-2.74414 17.1387-7.05078C17.1387-11.3574 13.5449-14.9316 9.23828-14.9316C4.94141-14.9316 1.36719-11.3574 1.36719-7.05078C1.36719-2.74414 4.95117 0.830078 9.24805 0.830078ZM9.24805-0.654297C5.70312-0.654297 2.87109-3.49609 2.87109-7.05078C2.87109-10.6055 5.69336-13.4473 9.23828-13.4473C12.793-13.4473 15.6445-10.6055 15.6445-7.05078C15.6445-3.49609 12.8027-0.654297 9.24805-0.654297ZM5.6543-7.05078C5.6543-6.62109 5.95703-6.32812 6.40625-6.32812L8.50586-6.32812L8.50586-4.20898C8.50586-3.76953 8.79883-3.4668 9.22852-3.4668C9.67773-3.4668 9.9707-3.76953 9.9707-4.20898L9.9707-6.32812L12.0898-6.32812C12.5293-6.32812 12.832-6.62109 12.832-7.05078C12.832-7.49023 12.5293-7.79297 12.0898-7.79297L9.9707-7.79297L9.9707-9.90234C9.9707-10.3516 9.67773-10.6543 9.22852-10.6543C8.79883-10.6543 8.50586-10.3516 8.50586-9.90234L8.50586-7.79297L6.40625-7.79297C5.95703-7.79297 5.6543-7.49023 5.6543-7.05078Z"/>
  </g>
  <g transform="matrix(1 0 0 1 281.867 1933)">
   <path d="M11.709 2.91016C17.1582 2.91016 21.6699-1.61133 21.6699-7.05078C21.6699-12.5 17.1484-17.0117 11.6992-17.0117C6.25977-17.0117 1.74805-12.5 1.74805-7.05078C1.74805-1.61133 6.26953 2.91016 11.709 2.91016ZM11.709 1.25C7.09961 1.25 3.41797-2.44141 3.41797-7.05078C3.41797-11.6602 7.08984-15.3516 11.6992-15.3516C16.3086-15.3516 20.0098-11.6602 20.0098-7.05078C20.0098-2.44141 16.3184 1.25 11.709 1.25ZM7.17773-7.05078C7.17773-6.57227 7.50977-6.25 8.00781-6.25L10.8789-6.25L10.8789-3.36914C10.8789-2.88086 11.2109-2.53906 11.6895-2.53906C12.1777-2.53906 12.5195-2.87109 12.5195-3.36914L12.5195-6.25L15.4004-6.25C15.8887-6.25 16.2305-6.57227 16.2305-7.05078C16.2305-7.53906 15.8887-7.88086 15.4004-7.88086L12.5195-7.88086L12.5195-10.752C12.5195-11.25 12.1777-11.5918 11.6895-11.5918C11.2109-11.5918 10.8789-11.25 10.8789-10.752L10.8789-7.88086L8.00781-7.88086C7.50977-7.88086 7.17773-7.53906 7.17773-7.05078Z"/>
  </g>
  <g transform="matrix(1 0 0 1 305.646 1933)">
   <path d="M14.9707 5.66406C21.9336 5.66406 27.6953-0.0976562 27.6953-7.05078C27.6953-14.0137 21.9238-19.7754 14.9609-19.7754C8.00781-19.7754 2.25586-14.0137 2.25586-7.05078C2.25586-0.0976562 8.01758 5.66406 14.9707 5.66406ZM14.9707 3.84766C8.93555 3.84766 4.08203-1.01562 4.08203-7.05078C4.08203-13.0957 8.92578-17.9492 14.9609-17.9492C21.0059-17.9492 25.8691-13.0957 25.8691-7.05078C25.8691-1.01562 21.0156 3.84766 14.9707 3.84766ZM9.19922-7.05078C9.19922-6.5332 9.57031-6.17188 10.1172-6.17188L14.0625-6.17188L14.0625-2.2168C14.0625-1.67969 14.4336-1.29883 14.9512-1.29883C15.4883-1.29883 15.8594-1.66992 15.8594-2.2168L15.8594-6.17188L19.8145-6.17188C20.3516-6.17188 20.7324-6.5332 20.7324-7.05078C20.7324-7.59766 20.3613-7.96875 19.8145-7.96875L15.8594-7.96875L15.8594-11.9141C15.8594-12.4609 15.4883-12.8418 14.9512-12.8418C14.4336-12.8418 14.0625-12.4609 14.0625-11.9141L14.0625-7.96875L10.1172-7.96875C9.57031-7.96875 9.19922-7.59766 9.19922-7.05078Z"/>
  </g>
  <text style="stroke:none;fill:black;font-family:sans-serif;font-size:13;font-weight:bold;" transform="matrix(1 0 0 1 263 1953)">Design Variations</text>
  <text style="stroke:none;fill:black;font-family:sans-serif;font-size:13;" transform="matrix(1 0 0 1 263 1971)">Symbols are supported in up to nine weights and three scales.</text>
  <text style="stroke:none;fill:black;font-family:sans-serif;font-size:13;" transform="matrix(1 0 0 1 263 1989)">For optimal layout with text and other symbols, vertically align</text>
  <text style="stroke:none;fill:black;font-family:sans-serif;font-size:13;" transform="matrix(1 0 0 1 263 2007)">symbols with the adjacent text.</text>
  <line style="fill:none;stroke:#00AEEF;stroke-width:0.5;opacity:1.0;" x1="776" x2="776" y1="1919" y2="1933"/>
  <g transform="matrix(1 0 0 1 776 1933)">
   <path d="M3.31055 0.15625C3.82812 0.15625 4.08203-0.0390625 4.26758-0.585938L5.52734-4.0332L11.2891-4.0332L12.5488-0.585938C12.7344-0.0390625 12.9883 0.15625 13.4961 0.15625C14.0137 0.15625 14.3457-0.15625 14.3457-0.644531C14.3457-0.810547 14.3164-0.966797 14.2383-1.17188L9.6582-13.3691C9.43359-13.9648 9.0332-14.2676 8.4082-14.2676C7.80273-14.2676 7.39258-13.9746 7.17773-13.3789L2.59766-1.16211C2.51953-0.957031 2.49023-0.800781 2.49023-0.634766C2.49023-0.146484 2.80273 0.15625 3.31055 0.15625ZM6.00586-5.51758L8.37891-12.0898L8.42773-12.0898L10.8008-5.51758Z"/>
  </g>
  <line style="fill:none;stroke:#00AEEF;stroke-width:0.5;opacity:1.0;" x1="793.197" x2="793.197" y1="1919" y2="1933"/>
  <text style="stroke:none;fill:black;font-family:sans-serif;font-size:13;font-weight:bold;" transform="matrix(1 0 0 1 776 1953)">Margins</text>
  <text style="stroke:none;fill:black;font-family:sans-serif;font-size:13;" transform="matrix(1 0 0 1 776 1971)">Leading and trailing margins on the left and right side of each symbol</text>
  <text style="stroke:none;fill:black;font-family:sans-serif;font-size:13;" transform="matrix(1 0 0 1 776 1989)">can be adjusted by modifying the x-location of the margin guidelines.</text>
  <text style="stroke:none;fill:black;font-family:sans-serif;font-size:13;" transform="matrix(1 0 0 1 776 2007)">Modifications are automatically applied proportionally to all</text>
  <text style="stroke:none;fill:black;font-family:sans-serif;font-size:13;" transform="matrix(1 0 0 1 776 2025)">scales and weights.</text>
  <g transform="matrix(1 0 0 1 1289 1933)">
   <path d="M2.8418 1.86523L4.54102 3.57422C5.40039 4.44336 6.38672 4.38477 7.31445 3.35938L18.0078-8.42773L17.041-9.4043L6.42578 2.27539C6.07422 2.67578 5.74219 2.77344 5.27344 2.30469L4.10156 1.14258C3.63281 0.683594 3.74023 0.341797 4.14062-0.0195312L15.6152-10.8203L14.6387-11.7871L3.04688-0.898438C2.06055 0.0195312 1.98242 0.996094 2.8418 1.86523ZM9.25781-16.3281C8.83789-15.918 8.80859-15.3418 9.04297-14.9512C9.27734-14.5898 9.73633-14.3555 10.3809-14.5215C11.8457-14.8633 13.3691-14.9219 14.7949-13.9844L14.209-12.5293C13.8672-11.6992 14.043-11.1133 14.5801-10.5664L16.875-8.25195C17.3633-7.76367 17.7734-7.74414 18.3398-7.8418L19.4043-8.03711L20.0684-7.36328L20.0293-6.80664C19.9902-6.30859 20.1172-5.92773 20.6055-5.44922L21.3672-4.70703C21.8457-4.22852 22.4609-4.19922 22.9297-4.66797L25.8398-7.58789C26.3086-8.05664 26.2891-8.65234 25.8105-9.13086L25.0391-9.89258C24.5605-10.3711 24.1895-10.5273 23.7109-10.4883L23.1348-10.4395L22.4902-11.0742L22.7344-12.1973C22.8613-12.7637 22.7051-13.2031 22.1191-13.7891L19.9219-15.9766C16.582-19.2969 12.1484-19.2188 9.25781-16.3281ZM10.752-15.957C13.1836-17.7344 16.4746-17.4316 18.7012-15.2051L21.1328-12.793C21.3672-12.5586 21.4062-12.373 21.3379-12.0312L21.0156-10.5469L22.5195-9.0625L23.5059-9.12109C23.7598-9.13086 23.8379-9.11133 24.0332-8.91602L24.6094-8.33984L22.168-5.89844L21.5918-6.47461C21.3965-6.66992 21.3672-6.74805 21.377-7.01172L21.4453-7.98828L19.9512-9.47266L18.4277-9.21875C18.1055-9.15039 17.959-9.17969 17.7148-9.41406L15.7129-11.416C15.459-11.6504 15.4297-11.8164 15.5859-12.1875L16.4648-14.2773C14.9023-15.7324 12.8711-16.3574 10.8398-15.7617C10.6836-15.7227 10.625-15.8496 10.752-15.957Z"/>
  </g>
  <text style="stroke:none;fill:black;font-family:sans-serif;font-size:13;font-weight:bold;" transform="matrix(1 0 0 1 1289 1953)">Exporting</text>
  <text style="stroke:none;fill:black;font-family:sans-serif;font-size:13;" transform="matrix(1 0 0 1 1289 1971)">Symbols should be outlined when exporting to ensure the</text>
  <text style="stroke:none;fill:black;font-family:sans-serif;font-size:13;" transform="matrix(1 0 0 1 1289 1989)">design is preserved when submitting to Xcode.</text>
  <text id="template-version" style="stroke:none;fill:black;font-family:sans-serif;font-size:13;text-anchor:end;" transform="matrix(1 0 0 1 3036 1933)">Template v.4.0</text>
  <text style="stroke:none;fill:black;font-family:sans-serif;font-size:13;text-anchor:end;" transform="matrix(1 0 0 1 3036 1951)">Requires Xcode 14 or greater</text>
  <text id="descriptive-name" style="stroke:none;fill:black;font-family:sans-serif;font-size:13;text-anchor:end;" transform="matrix(1 0 0 1 3036 1969)">Generated from court</text>
  <text style="stroke:none;fill:black;font-family:sans-serif;font-size:13;text-anchor:end;" transform="matrix(1 0 0 1 3036 1987)">Typeset at 100 points</text>
  <text style="stroke:none;fill:black;font-family:sans-serif;font-size:13;" transform="matrix(1 0 0 1 263 726)">Small</text>
  <text style="stroke:none;fill:black;font-family:sans-serif;font-size:13;" transform="matrix(1 0 0 1 263 1156)">Medium</text>
  <text style="stroke:none;fill:black;font-family:sans-serif;font-size:13;" transform="matrix(1 0 0 1 263 1586)">Large</text>
 </g>
 <g id="Guides">
  <g id="H-reference" style="fill:#27AAE1;stroke:none;" transform="matrix(1 0 0 1 339 696)">
   <path d="M0.993654 0L3.63775 0L29.3281-67.1323L30.0303-67.1323L30.0303-70.459L28.1226-70.459ZM11.6885-24.4799L46.9815-24.4799L46.2315-26.7285L12.4385-26.7285ZM55.1196 0L57.7637 0L30.6382-70.459L29.4326-70.459L29.4326-67.1323Z"/>
  </g>
  <line id="Baseline-S" style="fill:none;stroke:#27AAE1;opacity:1;stroke-width:0.5;" x1="263" x2="3036" y1="696" y2="696"/>
  <line id="Capline-S" style="fill:none;stroke:#27AAE1;opacity:1;stroke-width:0.5;" x1="263" x2="3036" y1="625.541" y2="625.541"/>
  <g id="H-reference" style="fill:#27AAE1;stroke:none;" transform="matrix(1 0 0 1 339 1126)">
   <path d="M0.993654 0L3.63775 0L29.3281-67.1323L30.0303-67.1323L30.0303-70.459L28.1226-70.459ZM11.6885-24.4799L46.9815-24.4799L46.2315-26.7285L12.4385-26.7285ZM55.1196 0L57.7637 0L30.6382-70.459L29.4326-70.459L29.4326-67.1323Z"/>
  </g>
  <line id="Baseline-M" style="fill:none;stroke:#27AAE1;opacity:1;stroke-width:0.5;" x1="263" x2="3036" y1="1126" y2="1126"/>
  <line id="Capline-M" style="fill:none;stroke:#27AAE1;opacity:1;stroke-width:0.5;" x1="263" x2="3036" y1="1055.54" y2="1055.54"/>
  <g id="H-reference" style="fill:#27AAE1;stroke:none;" transform="matrix(1 0 0 1 339 1556)">
   <path d="M0.993654 0L3.63775 0L29.3281-67.1323L30.0303-67.1323L30.0303-70.459L28.1226-70.459ZM11.6885-24.4799L46.9815-24.4799L46.2315-26.7285L12.4385-26.7285ZM55.1196 0L57.7637 0L30.6382-70.459L29.4326-70.459L29.4326-67.1323Z"/>
  </g>
  <line id="Baseline-L" style="fill:none;stroke:#27AAE1;opacity:1;stroke-width:0.5;" x1="263" x2="3036" y1="1556" y2="1556"/>
  <line id="Capline-L" style="fill:none;stroke:#27AAE1;opacity:1;stroke-width:0.5;" x1="263" x2="3036" y1="1485.54" y2="1485.54"/>
  <line id="left-margin-Ultralight-S" style="fill:none;stroke:#00AEEF;stroke-width:0.5;opacity:1.0;" x1="523.418" x2="523.418" y1="600.785" y2="720.121"/>
  <line id="right-margin-Ultralight-S" style="fill:none;stroke:#00AEEF;stroke-width:0.5;opacity:1.0;" x1="596.004" x2="596.004" y1="600.785" y2="720.121"/>
  <line id="left-margin-Regular-S" style="fill:none;stroke:#00AEEF;stroke-width:0.5;opacity:1.0;" x1="1413.55" x2="1413.55" y1="600.785" y2="720.121"/>
  <line id="right-margin-Regular-S" style="fill:none;stroke:#00AEEF;stroke-width:0.5;opacity:1.0;" x1="1486.14" x2="1486.14" y1="600.785" y2="720.121"/>
  <line id="left-margin-Black-S" style="fill:none;stroke:#00AEEF;stroke-width:0.5;opacity:1.0;" x1="2897.11" x2="2897.11" y1="600.785" y2="720.121"/>
  <line id="right-margin-Black-S" style="fill:none;stroke:#00AEEF;stroke-width:0.5;opacity:1.0;" x1="2969.69" x2="2969.69" y1="600.785" y2="720.121"/>
  <line id="left-margin-Regular-M" style="fill:none;stroke:#00AEEF;stroke-width:0.5;opacity:1.0;" x1="1405.3" x2="1405.3" y1="1030.79" y2="1150.12"/>
  <line id="right-margin-Regular-M" style="fill:none;stroke:#00AEEF;stroke-width:0.5;opacity:1.0;" x1="1494.39" x2="1494.39" y1="1030.79" y2="1150.12"/>
 </g>
 <g id="Symbols">
  <g id="Black-L" transform="matrix(1 0 0 1 2877.84 1556)">
   <path d="M7.06131-66.8252L6.53231-66.3182L6.53231-35.2302L6.53231-4.14216L7.06131-3.63416L7.56831-3.10616L55.5633-3.10616L103.559-3.10616L104.066-3.63416L104.594-4.14216L104.594-35.2302L104.594-66.3182L104.066-66.8252L103.559-67.3542L55.5633-67.3542L7.56831-67.3542L7.06131-66.8252ZM53.8723-61.4362L53.8723-58.9002L31.8933-58.9002L9.91431-58.9002L9.91431-61.4362L9.91431-63.9722L31.8933-63.9722L53.8723-63.9722L53.8723-61.4362ZM101.213-61.4362L101.213-58.9002L79.2333-58.9002L57.2543-58.9002L57.2543-61.4362L57.2543-63.9722L79.2333-63.9722L101.213-63.9722L101.213-61.4362ZM28.5123-35.2302L28.5123-14.9412L19.2133-14.9412L9.91431-14.9412L9.91431-35.2302L9.91431-55.5192L19.2133-55.5192L28.5123-55.5192L28.5123-35.2302ZM53.8723-46.2202L53.8723-36.9212L42.8833-36.9212L31.8933-36.9212L31.8933-46.2202L31.8933-55.5192L42.8833-55.5192L53.8723-55.5192L53.8723-46.2202ZM79.2333-46.2202L79.2333-36.9212L68.2443-36.9212L57.2543-36.9212L57.2543-46.2202L57.2543-55.5192L68.2443-55.5192L79.2333-55.5192L79.2333-46.2202ZM101.213-35.2302L101.213-14.9412L91.9143-14.9412L82.6153-14.9412L82.6153-35.2302L82.6153-55.5192L91.9143-55.5192L101.213-55.5192L101.213-35.2302ZM53.8723-24.2402L53.8723-14.9412L42.8833-14.9412L31.8933-14.9412L31.8933-24.2402L31.8933-33.5392L42.8833-33.5392L53.8723-33.5392L53.8723-24.2402ZM79.2333-24.2402L79.2333-14.9412L68.2443-14.9412L57.2543-14.9412L57.2543-24.2402L57.2543-33.5392L68.2443-33.5392L79.2333-33.5392L79.2333-24.2402ZM53.8723-9.02416L53.8723-6.48716L31.8933-6.48716L9.91431-6.48716L9.91431-9.02416L9.91431-11.5602L31.8933-11.5602L53.8723-11.5602L53.8723-9.02416ZM101.213-9.02416L101.213-6.48716L79.2333-6.48716L57.2543-6.48716L57.2543-9.02416L57.2543-11.5602L79.2333-11.5602L101.213-11.5602L101.213-9.02416Z"/>
  </g>
  <g id="Heavy-L" transform="matrix(1 0 0 1 2581.13 1556)">
   <path d="M7.06131-66.8252L6.53231-66.3182L6.53231-35.2302L6.53231-4.14216L7.06131-3.63416L7.56831-3.10616L55.5633-3.10616L103.559-3.10616L104.066-3.63416L104.594-4.14216L104.594-35.2302L104.594-66.3182L104.066-66.8252L103.559-67.3542L55.5633-67.3542L7.56831-67.3542L7.06131-66.8252ZM53.8723-61.4362L53.8723-58.9002L31.8933-58.9002L9.91431-58.9002L9.91431-61.4362L9.91431-63.9722L31.8933-63.9722L53.8723-63.9722L53.8723-61.4362ZM101.213-61.4362L101.213-58.9002L79.2333-58.9002L57.2543-58.9002L57.2543-61.4362L57.2543-63.9722L79.2333-63.9722L101.213-63.9722L101.213-61.4362ZM28.5123-35.2302L28.5123-14.9412L19.2133-14.9412L9.91431-14.9412L9.91431-35.2302L9.91431-55.5192L19.2133-55.5192L28.5123-55.5192L28.5123-35.2302ZM53.8723-46.2202L53.8723-36.9212L42.8833-36.9212L31.8933-36.9212L31.8933-46.2202L31.8933-55.5192L42.8833-55.5192L53.8723-55.5192L53.8723-46.2202ZM79.2333-46.2202L79.2333-36.9212L68.2443-36.9212L57.2543-36.9212L57.2543-46.2202L57.2543-55.5192L68.2443-55.5192L79.2333-55.5192L79.2333-46.2202ZM101.213-35.2302L101.213-14.9412L91.9143-14.9412L82.6153-14.9412L82.6153-35.2302L82.6153-55.5192L91.9143-55.5192L101.213-55.5192L101.213-35.2302ZM53.8723-24.2402L53.8723-14.9412L42.8833-14.9412L31.8933-14.9412L31.8933-24.2402L31.8933-33.5392L42.8833-33.5392L53.8723-33.5392L53.8723-24.2402ZM79.2333-24.2402L79.2333-14.9412L68.2443-14.9412L57.2543-14.9412L57.2543-24.2402L57.2543-33.5392L68.2443-33.5392L79.2333-33.5392L79.2333-24.2402ZM53.8723-9.02416L53.8723-6.48716L31.8933-6.48716L9.91431-6.48716L9.91431-9.02416L9.91431-11.5602L31.8933-11.5602L53.8723-11.5602L53.8723-9.02416ZM101.213-9.02416L101.213-6.48716L79.2333-6.48716L57.2543-6.48716L57.2543-9.02416L57.2543-11.5602L79.2333-11.5602L101.213-11.5602L101.213-9.02416Z"/>
  </g>
  <g id="Bold-L" transform="matrix(1 0 0 1 2284.41 1556)">
   <path d="M7.06131-66.8252L6.53231-66.3182L6.53231-35.2302L6.53231-4.14216L7.06131-3.63416L7.56831-3.10616L55.5633-3.10616L103.559-3.10616L104.066-3.63416L104.594-4.14216L104.594-35.2302L104.594-66.3182L104.066-66.8252L103.559-67.3542L55.5633-67.3542L7.56831-67.3542L7.06131-66.8252ZM53.8723-61.4362L53.8723-58.9002L31.8933-58.9002L9.91431-58.9002L9.91431-61.4362L9.91431-63.9722L31.8933-63.9722L53.8723-63.9722L53.8723-61.4362ZM101.213-61.4362L101.213-58.9002L79.2333-58.9002L57.2543-58.9002L57.2543-61.4362L57.2543-63.9722L79.2333-63.9722L101.213-63.9722L101.213-61.4362ZM28.5123-35.2302L28.5123-14.9412L19.2133-14.9412L9.91431-14.9412L9.91431-35.2302L9.91431-55.5192L19.2133-55.5192L28.5123-55.5192L28.5123-35.2302ZM53.8723-46.2202L53.8723-36.9212L42.8833-36.9212L31.8933-36.9212L31.8933-46.2202L31.8933-55.5192L42.8833-55.5192L53.8723-55.5192L53.8723-46.2202ZM79.2333-46.2202L79.2333-36.9212L68.2443-36.9212L57.2543-36.9212L57.2543-46.2202L57.2543-55.5192L68.2443-55.5192L79.2333-55.5192L79.2333-46.2202ZM101.213-35.2302L101.213-14.9412L91.9143-14.9412L82.6153-14.9412L82.6153-35.2302L82.6153-55.5192L91.9143-55.5192L101.213-55.5192L101.213-35.2302ZM53.8723-24.2402L53.8723-14.9412L42.8833-14.9412L31.8933-14.9412L31.8933-24.2402L31.8933-33.5392L42.8833-33.5392L53.8723-33.5392L53.8723-24.2402ZM79.2333-24.2402L79.2333-14.9412L68.2443-14.9412L57.2543-14.9412L57.2543-24.2402L57.2543-33.5392L68.2443-33.5392L79.2333-33.5392L79.2333-24.2402ZM53.8723-9.02416L53.8723-6.48716L31.8933-6.48716L9.91431-6.48716L9.91431-9.02416L9.91431-11.5602L31.8933-11.5602L53.8723-11.5602L53.8723-9.02416ZM101.213-9.02416L101.213-6.48716L79.2333-6.48716L57.2543-6.48716L57.2543-9.02416L57.2543-11.5602L79.2333-11.5602L101.213-11.5602L101.213-9.02416Z"/>
  </g>
  <g id="Semibold-L" transform="matrix(1 0 0 1 1987.7 1556)">
   <path d="M7.06131-66.8252L6.53231-66.3182L6.53231-35.2302L6.53231-4.14216L7.06131-3.63416L7.56831-3.10616L55.5633-3.10616L103.559-3.10616L104.066-3.63416L104.594-4.14216L104.594-35.2302L104.594-66.3182L104.066-66.8252L103.559-67.3542L55.5633-67.3542L7.56831-67.3542L7.06131-66.8252ZM53.8723-61.4362L53.8723-58.9002L31.8933-58.9002L9.91431-58.9002L9.91431-61.4362L9.91431-63.9722L31.8933-63.9722L53.8723-63.9722L53.8723-61.4362ZM101.213-61.4362L101.213-58.9002L79.2333-58.9002L57.2543-58.9002L57.2543-61.4362L57.2543-63.9722L79.2333-63.9722L101.213-63.9722L101.213-61.4362ZM28.5123-35.2302L28.5123-14.9412L19.2133-14.9412L9.91431-14.9412L9.91431-35.2302L9.91431-55.5192L19.2133-55.5192L28.5123-55.5192L28.5123-35.2302ZM53.8723-46.2202L53.8723-36.9212L42.8833-36.9212L31.8933-36.9212L31.8933-46.2202L31.8933-55.5192L42.8833-55.5192L53.8723-55.5192L53.8723-46.2202ZM79.2333-46.2202L79.2333-36.9212L68.2443-36.9212L57.2543-36.9212L57.2543-46.2202L57.2543-55.5192L68.2443-55.5192L79.2333-55.5192L79.2333-46.2202ZM101.213-35.2302L101.213-14.9412L91.9143-14.9412L82.6153-14.9412L82.6153-35.2302L82.6153-55.5192L91.9143-55.5192L101.213-55.5192L101.213-35.2302ZM53.8723-24.2402L53.8723-14.9412L42.8833-14.9412L31.8933-14.9412L31.8933-24.2402L31.8933-33.5392L42.8833-33.5392L53.8723-33.5392L53.8723-24.2402ZM79.2333-24.2402L79.2333-14.9412L68.2443-14.9412L57.2543-14.9412L57.2543-24.2402L57.2543-33.5392L68.2443-33.5392L79.2333-33.5392L79.2333-24.2402ZM53.8723-9.02416L53.8723-6.48716L31.8933-6.48716L9.91431-6.48716L9.91431-9.02416L9.91431-11.5602L31.8933-11.5602L53.8723-11.5602L53.8723-9.02416ZM101.213-9.02416L101.213-6.48716L79.2333-6.48716L57.2543-6.48716L57.2543-9.02416L57.2543-11.5602L79.2333-11.5602L101.213-11.5602L101.213-9.02416Z"/>
  </g>
  <g id="Medium-L" transform="matrix(1 0 0 1 1690.99 1556)">
   <path d="M7.06131-66.8252L6.53231-66.3182L6.53231-35.2302L6.53231-4.14216L7.06131-3.63416L7.56831-3.10616L55.5633-3.10616L103.559-3.10616L104.066-3.63416L104.594-4.14216L104.594-35.2302L104.594-66.3182L104.066-66.8252L103.559-67.3542L55.5633-67.3542L7.56831-67.3542L7.06131-66.8252ZM53.8723-61.4362L53.8723-58.9002L31.8933-58.9002L9.91431-58.9002L9.91431-61.4362L9.91431-63.9722L31.8933-63.9722L53.8723-63.9722L53.8723-61.4362ZM101.213-61.4362L101.213-58.9002L79.2333-58.9002L57.2543-58.9002L57.2543-61.4362L57.2543-63.9722L79.2333-63.9722L101.213-63.9722L101.213-61.4362ZM28.5123-35.2302L28.5123-14.9412L19.2133-14.9412L9.91431-14.9412L9.91431-35.2302L9.91431-55.5192L19.2133-55.5192L28.5123-55.5192L28.5123-35.2302ZM53.8723-46.2202L53.8723-36.9212L42.8833-36.9212L31.8933-36.9212L31.8933-46.2202L31.8933-55.5192L42.8833-55.5192L53.8723-55.5192L53.8723-46.2202ZM79.2333-46.2202L79.2333-36.9212L68.2443-36.9212L57.2543-36.9212L57.2543-46.2202L57.2543-55.5192L68.2443-55.5192L79.2333-55.5192L79.2333-46.2202ZM101.213-35.2302L101.213-14.9412L91.9143-14.9412L82.6153-14.9412L82.6153-35.2302L82.6153-55.5192L91.9143-55.5192L101.213-55.5192L101.213-35.2302ZM53.8723-24.2402L53.8723-14.9412L42.8833-14.9412L31.8933-14.9412L31.8933-24.2402L31.8933-33.5392L42.8833-33.5392L53.8723-33.5392L53.8723-24.2402ZM79.2333-24.2402L79.2333-14.9412L68.2443-14.9412L57.2543-14.9412L57.2543-24.2402L57.2543-33.5392L68.2443-33.5392L79.2333-33.5392L79.2333-24.2402ZM53.8723-9.02416L53.8723-6.48716L31.8933-6.48716L9.91431-6.48716L9.91431-9.02416L9.91431-11.5602L31.8933-11.5602L53.8723-11.5602L53.8723-9.02416ZM101.213-9.02416L101.213-6.48716L79.2333-6.48716L57.2543-6.48716L57.2543-9.02416L57.2543-11.5602L79.2333-11.5602L101.213-11.5602L101.213-9.02416Z"/>
  </g>
  <g id="Regular-L" transform="matrix(1 0 0 1 1394.28 1556)">
   <path d="M7.06131-66.8252L6.53231-66.3182L6.53231-35.2302L6.53231-4.14216L7.06131-3.63416L7.56831-3.10616L55.5633-3.10616L103.559-3.10616L104.066-3.63416L104.594-4.14216L104.594-35.2302L104.594-66.3182L104.066-66.8252L103.559-67.3542L55.5633-67.3542L7.56831-67.3542L7.06131-66.8252ZM53.8723-61.4362L53.8723-58.9002L31.8933-58.9002L9.91431-58.9002L9.91431-61.4362L9.91431-63.9722L31.8933-63.9722L53.8723-63.9722L53.8723-61.4362ZM101.213-61.4362L101.213-58.9002L79.2333-58.9002L57.2543-58.9002L57.2543-61.4362L57.2543-63.9722L79.2333-63.9722L101.213-63.9722L101.213-61.4362ZM28.5123-35.2302L28.5123-14.9412L19.2133-14.9412L9.91431-14.9412L9.91431-35.2302L9.91431-55.5192L19.2133-55.5192L28.5123-55.5192L28.5123-35.2302ZM53.8723-46.2202L53.8723-36.9212L42.8833-36.9212L31.8933-36.9212L31.8933-46.2202L31.8933-55.5192L42.8833-55.5192L53.8723-55.5192L53.8723-46.2202ZM79.2333-46.2202L79.2333-36.9212L68.2443-36.9212L57.2543-36.9212L57.2543-46.2202L57.2543-55.5192L68.2443-55.5192L79.2333-55.5192L79.2333-46.2202ZM101.213-35.2302L101.213-14.9412L91.9143-14.9412L82.6153-14.9412L82.6153-35.2302L82.6153-55.5192L91.9143-55.5192L101.213-55.5192L101.213-35.2302ZM53.8723-24.2402L53.8723-14.9412L42.8833-14.9412L31.8933-14.9412L31.8933-24.2402L31.8933-33.5392L42.8833-33.5392L53.8723-33.5392L53.8723-24.2402ZM79.2333-24.2402L79.2333-14.9412L68.2443-14.9412L57.2543-14.9412L57.2543-24.2402L57.2543-33.5392L68.2443-33.5392L79.2333-33.5392L79.2333-24.2402ZM53.8723-9.02416L53.8723-6.48716L31.8933-6.48716L9.91431-6.48716L9.91431-9.02416L9.91431-11.5602L31.8933-11.5602L53.8723-11.5602L53.8723-9.02416ZM101.213-9.02416L101.213-6.48716L79.2333-6.48716L57.2543-6.48716L57.2543-9.02416L57.2543-11.5602L79.2333-11.5602L101.213-11.5602L101.213-9.02416Z"/>
  </g>
  <g id="Light-L" transform="matrix(1 0 0 1 1097.57 1556)">
   <path d="M7.06131-66.8252L6.53231-66.3182L6.53231-35.2302L6.53231-4.14216L7.06131-3.63416L7.56831-3.10616L55.5633-3.10616L103.559-3.10616L104.066-3.63416L104.594-4.14216L104.594-35.2302L104.594-66.3182L104.066-66.8252L103.559-67.3542L55.5633-67.3542L7.56831-67.3542L7.06131-66.8252ZM53.8723-61.4362L53.8723-58.9002L31.8933-58.9002L9.91431-58.9002L9.91431-61.4362L9.91431-63.9722L31.8933-63.9722L53.8723-63.9722L53.8723-61.4362ZM101.213-61.4362L101.213-58.9002L79.2333-58.9002L57.2543-58.9002L57.2543-61.4362L57.2543-63.9722L79.2333-63.9722L101.213-63.9722L101.213-61.4362ZM28.5123-35.2302L28.5123-14.9412L19.2133-14.9412L9.91431-14.9412L9.91431-35.2302L9.91431-55.5192L19.2133-55.5192L28.5123-55.5192L28.5123-35.2302ZM53.8723-46.2202L53.8723-36.9212L42.8833-36.9212L31.8933-36.9212L31.8933-46.2202L31.8933-55.5192L42.8833-55.5192L53.8723-55.5192L53.8723-46.2202ZM79.2333-46.2202L79.2333-36.9212L68.2443-36.9212L57.2543-36.9212L57.2543-46.2202L57.2543-55.5192L68.2443-55.5192L79.2333-55.5192L79.2333-46.2202ZM101.213-35.2302L101.213-14.9412L91.9143-14.9412L82.6153-14.9412L82.6153-35.2302L82.6153-55.5192L91.9143-55.5192L101.213-55.5192L101.213-35.2302ZM53.8723-24.2402L53.8723-14.9412L42.8833-14.9412L31.8933-14.9412L31.8933-24.2402L31.8933-33.5392L42.8833-33.5392L53.8723-33.5392L53.8723-24.2402ZM79.2333-24.2402L79.2333-14.9412L68.2443-14.9412L57.2543-14.9412L57.2543-24.2402L57.2543-33.5392L68.2443-33.5392L79.2333-33.5392L79.2333-24.2402ZM53.8723-9.02416L53.8723-6.48716L31.8933-6.48716L9.91431-6.48716L9.91431-9.02416L9.91431-11.5602L31.8933-11.5602L53.8723-11.5602L53.8723-9.02416ZM101.213-9.02416L101.213-6.48716L79.2333-6.48716L57.2543-6.48716L57.2543-9.02416L57.2543-11.5602L79.2333-11.5602L101.213-11.5602L101.213-9.02416Z"/>
  </g>
  <g id="Thin-L" transform="matrix(1 0 0 1 800.859 1556)">
   <path d="M7.06131-66.8252L6.53231-66.3182L6.53231-35.2302L6.53231-4.14216L7.06131-3.63416L7.56831-3.10616L55.5633-3.10616L103.559-3.10616L104.066-3.63416L104.594-4.14216L104.594-35.2302L104.594-66.3182L104.066-66.8252L103.559-67.3542L55.5633-67.3542L7.56831-67.3542L7.06131-66.8252ZM53.8723-61.4362L53.8723-58.9002L31.8933-58.9002L9.91431-58.9002L9.91431-61.4362L9.91431-63.9722L31.8933-63.9722L53.8723-63.9722L53.8723-61.4362ZM101.213-61.4362L101.213-58.9002L79.2333-58.9002L57.2543-58.9002L57.2543-61.4362L57.2543-63.9722L79.2333-63.9722L101.213-63.9722L101.213-61.4362ZM28.5123-35.2302L28.5123-14.9412L19.2133-14.9412L9.91431-14.9412L9.91431-35.2302L9.91431-55.5192L19.2133-55.5192L28.5123-55.5192L28.5123-35.2302ZM53.8723-46.2202L53.8723-36.9212L42.8833-36.9212L31.8933-36.9212L31.8933-46.2202L31.8933-55.5192L42.8833-55.5192L53.8723-55.5192L53.8723-46.2202ZM79.2333-46.2202L79.2333-36.9212L68.2443-36.9212L57.2543-36.9212L57.2543-46.2202L57.2543-55.5192L68.2443-55.5192L79.2333-55.5192L79.2333-46.2202ZM101.213-35.2302L101.213-14.9412L91.9143-14.9412L82.6153-14.9412L82.6153-35.2302L82.6153-55.5192L91.9143-55.5192L101.213-55.5192L101.213-35.2302ZM53.8723-24.2402L53.8723-14.9412L42.8833-14.9412L31.8933-14.9412L31.8933-24.2402L31.8933-33.5392L42.8833-33.5392L53.8723-33.5392L53.8723-24.2402ZM79.2333-24.2402L79.2333-14.9412L68.2443-14.9412L57.2543-14.9412L57.2543-24.2402L57.2543-33.5392L68.2443-33.5392L79.2333-33.5392L79.2333-24.2402ZM53.8723-9.02416L53.8723-6.48716L31.8933-6.48716L9.91431-6.48716L9.91431-9.02416L9.91431-11.5602L31.8933-11.5602L53.8723-11.5602L53.8723-9.02416ZM101.213-9.02416L101.213-6.48716L79.2333-6.48716L57.2543-6.48716L57.2543-9.02416L57.2543-11.5602L79.2333-11.5602L101.213-11.5602L101.213-9.02416Z"/>
  </g>
  <g id="Ultralight-L" transform="matrix(1 0 0 1 504.148 1556)">
   <path d="M7.06131-66.8252L6.53231-66.3182L6.53231-35.2302L6.53231-4.14216L7.06131-3.63416L7.56831-3.10616L55.5633-3.10616L103.559-3.10616L104.066-3.63416L104.594-4.14216L104.594-35.2302L104.594-66.3182L104.066-66.8252L103.559-67.3542L55.5633-67.3542L7.56831-67.3542L7.06131-66.8252ZM53.8723-61.4362L53.8723-58.9002L31.8933-58.9002L9.91431-58.9002L9.91431-61.4362L9.91431-63.9722L31.8933-63.9722L53.8723-63.9722L53.8723-61.4362ZM101.213-61.4362L101.213-58.9002L79.2333-58.9002L57.2543-58.9002L57.2543-61.4362L57.2543-63.9722L79.2333-63.9722L101.213-63.9722L101.213-61.4362ZM28.5123-35.2302L28.5123-14.9412L19.2133-14.9412L9.91431-14.9412L9.91431-35.2302L9.91431-55.5192L19.2133-55.5192L28.5123-55.5192L28.5123-35.2302ZM53.8723-46.2202L53.8723-36.9212L42.8833-36.9212L31.8933-36.9212L31.8933-46.2202L31.8933-55.5192L42.8833-55.5192L53.8723-55.5192L53.8723-46.2202ZM79.2333-46.2202L79.2333-36.9212L68.2443-36.9212L57.2543-36.9212L57.2543-46.2202L57.2543-55.5192L68.2443-55.5192L79.2333-55.5192L79.2333-46.2202ZM101.213-35.2302L101.213-14.9412L91.9143-14.9412L82.6153-14.9412L82.6153-35.2302L82.6153-55.5192L91.9143-55.5192L101.213-55.5192L101.213-35.2302ZM53.8723-24.2402L53.8723-14.9412L42.8833-14.9412L31.8933-14.9412L31.8933-24.2402L31.8933-33.5392L42.8833-33.5392L53.8723-33.5392L53.8723-24.2402ZM79.2333-24.2402L79.2333-14.9412L68.2443-14.9412L57.2543-14.9412L57.2543-24.2402L57.2543-33.5392L68.2443-33.5392L79.2333-33.5392L79.2333-24.2402ZM53.8723-9.02416L53.8723-6.48716L31.8933-6.48716L9.91431-6.48716L9.91431-9.02416L9.91431-11.5602L31.8933-11.5602L53.8723-11.5602L53.8723-9.02416ZM101.213-9.02416L101.213-6.48716L79.2333-6.48716L57.2543-6.48716L57.2543-9.02416L57.2543-11.5602L79.2333-11.5602L101.213-11.5602L101.213-9.02416Z"/>
  </g>
  <g id="Black-M" transform="matrix(1 0 0 1 2888.86 1126)">
   <path d="M6.94131-59.7224L6.53231-59.3294L6.53231-35.2304L6.53231-11.1304L6.94131-10.7374L7.33531-10.3274L44.5403-10.3274L81.7463-10.3274L82.1393-10.7374L82.5493-11.1304L82.5493-35.2304L82.5493-59.3294L82.1393-59.7224L81.7463-60.1324L44.5403-60.1324L7.33531-60.1324L6.94131-59.7224ZM43.2303-55.5444L43.2303-53.5784L26.1923-53.5784L9.15331-53.5784L9.15331-55.5444L9.15331-57.5104L26.1923-57.5104L43.2303-57.5104L43.2303-55.5444ZM79.9283-55.5444L79.9283-53.5784L62.8893-53.5784L45.8513-53.5784L45.8513-55.5444L45.8513-57.5104L62.8893-57.5104L79.9283-57.5104L79.9283-55.5444ZM23.5703-35.2304L23.5703-19.5024L16.3623-19.5024L9.15331-19.5024L9.15331-35.2304L9.15331-50.9574L16.3623-50.9574L23.5703-50.9574L23.5703-35.2304ZM43.2303-43.7494L43.2303-36.5404L34.7113-36.5404L26.1923-36.5404L26.1923-43.7494L26.1923-50.9574L34.7113-50.9574L43.2303-50.9574L43.2303-43.7494ZM62.8893-43.7494L62.8893-36.5404L54.3703-36.5404L45.8513-36.5404L45.8513-43.7494L45.8513-50.9574L54.3703-50.9574L62.8893-50.9574L62.8893-43.7494ZM79.9283-35.2304L79.9283-19.5024L72.7193-19.5024L65.5113-19.5024L65.5113-35.2304L65.5113-50.9574L72.7193-50.9574L79.9283-50.9574L79.9283-35.2304ZM43.2303-26.7104L43.2303-19.5024L34.7113-19.5024L26.1923-19.5024L26.1923-26.7104L26.1923-33.9194L34.7113-33.9194L43.2303-33.9194L43.2303-26.7104ZM62.8893-26.7104L62.8893-19.5024L54.3703-19.5024L45.8513-19.5024L45.8513-26.7104L45.8513-33.9194L54.3703-33.9194L62.8893-33.9194L62.8893-26.7104ZM43.2303-14.9154L43.2303-12.9494L26.1923-12.9494L9.15331-12.9494L9.15331-14.9154L9.15331-16.8814L26.1923-16.8814L43.2303-16.8814L43.2303-14.9154ZM79.9283-14.9154L79.9283-12.9494L62.8893-12.9494L45.8513-12.9494L45.8513-14.9154L45.8513-16.8814L62.8893-16.8814L79.9283-16.8814L79.9283-14.9154Z"/>
  </g>
  <g id="Heavy-M" transform="matrix(1 0 0 1 2592.15 1126)">
   <path d="M6.94131-59.7224L6.53231-59.3294L6.53231-35.2304L6.53231-11.1304L6.94131-10.7374L7.33531-10.3274L44.5403-10.3274L81.7463-10.3274L82.1393-10.7374L82.5493-11.1304L82.5493-35.2304L82.5493-59.3294L82.1393-59.7224L81.7463-60.1324L44.5403-60.1324L7.33531-60.1324L6.94131-59.7224ZM43.2303-55.5444L43.2303-53.5784L26.1923-53.5784L9.15331-53.5784L9.15331-55.5444L9.15331-57.5104L26.1923-57.5104L43.2303-57.5104L43.2303-55.5444ZM79.9283-55.5444L79.9283-53.5784L62.8893-53.5784L45.8513-53.5784L45.8513-55.5444L45.8513-57.5104L62.8893-57.5104L79.9283-57.5104L79.9283-55.5444ZM23.5703-35.2304L23.5703-19.5024L16.3623-19.5024L9.15331-19.5024L9.15331-35.2304L9.15331-50.9574L16.3623-50.9574L23.5703-50.9574L23.5703-35.2304ZM43.2303-43.7494L43.2303-36.5404L34.7113-36.5404L26.1923-36.5404L26.1923-43.7494L26.1923-50.9574L34.7113-50.9574L43.2303-50.9574L43.2303-43.7494ZM62.8893-43.7494L62.8893-36.5404L54.3703-36.5404L45.8513-36.5404L45.8513-43.7494L45.8513-50.9574L54.3703-50.9574L62.8893-50.9574L62.8893-43.7494ZM79.9283-35.2304L79.9283-19.5024L72.7193-19.5024L65.5113-19.5024L65.5113-35.2304L65.5113-50.9574L72.7193-50.9574L79.9283-50.9574L79.9283-35.2304ZM43.2303-26.7104L43.2303-19.5024L34.7113-19.5024L26.1923-19.5024L26.1923-26.7104L26.1923-33.9194L34.7113-33.9194L43.2303-33.9194L43.2303-26.7104ZM62.8893-26.7104L62.8893-19.5024L54.3703-19.5024L45.8513-19.5024L45.8513-26.7104L45.8513-33.9194L54.3703-33.9194L62.8893-33.9194L62.8893-26.7104ZM43.2303-14.9154L43.2303-12.9494L26.1923-12.9494L9.15331-12.9494L9.15331-14.9154L9.15331-16.8814L26.1923-16.8814L43.2303-16.8814L43.2303-14.9154ZM79.9283-14.9154L79.9283-12.9494L62.8893-12.9494L45.8513-12.9494L45.8513-14.9154L45.8513-16.8814L62.8893-16.8814L79.9283-16.8814L79.9283-14.9154Z"/>
  </g>
  <g id="Bold-M" transform="matrix(1 0 0 1 2295.44 1126)">
   <path d="M6.94131-59.7224L6.53231-59.3294L6.53231-35.2304L6.53231-11.1304L6.94131-10.7374L7.33531-10.3274L44.5403-10.3274L81.7463-10.3274L82.1393-10.7374L82.5493-11.1304L82.5493-35.2304L82.5493-59.3294L82.1393-59.7224L81.7463-60.1324L44.5403-60.1324L7.33531-60.1324L6.94131-59.7224ZM43.2303-55.5444L43.2303-53.5784L26.1923-53.5784L9.15331-53.5784L9.15331-55.5444L9.15331-57.5104L26.1923-57.5104L43.2303-57.5104L43.2303-55.5444ZM79.9283-55.5444L79.9283-53.5784L62.8893-53.5784L45.8513-53.5784L45.8513-55.5444L45.8513-57.5104L62.8893-57.5104L79.9283-57.5104L79.9283-55.5444ZM23.5703-35.2304L23.5703-19.5024L16.3623-19.5024L9.15331-19.5024L9.15331-35.2304L9.15331-50.9574L16.3623-50.9574L23.5703-50.9574L23.5703-35.2304ZM43.2303-43.7494L43.2303-36.5404L34.7113-36.5404L26.1923-36.5404L26.1923-43.7494L26.1923-50.9574L34.7113-50.9574L43.2303-50.9574L43.2303-43.7494ZM62.8893-43.7494L62.8893-36.5404L54.3703-36.5404L45.8513-36.5404L45.8513-43.7494L45.8513-50.9574L54.3703-50.9574L62.8893-50.9574L62.8893-43.7494ZM79.9283-35.2304L79.9283-19.5024L72.7193-19.5024L65.5113-19.5024L65.5113-35.2304L65.5113-50.9574L72.7193-50.9574L79.9283-50.9574L79.9283-35.2304ZM43.2303-26.7104L43.2303-19.5024L34.7113-19.5024L26.1923-19.5024L26.1923-26.7104L26.1923-33.9194L34.7113-33.9194L43.2303-33.9194L43.2303-26.7104ZM62.8893-26.7104L62.8893-19.5024L54.3703-19.5024L45.8513-19.5024L45.8513-26.7104L45.8513-33.9194L54.3703-33.9194L62.8893-33.9194L62.8893-26.7104ZM43.2303-14.9154L43.2303-12.9494L26.1923-12.9494L9.15331-12.9494L9.15331-14.9154L9.15331-16.8814L26.1923-16.8814L43.2303-16.8814L43.2303-14.9154ZM79.9283-14.9154L79.9283-12.9494L62.8893-12.9494L45.8513-12.9494L45.8513-14.9154L45.8513-16.8814L62.8893-16.8814L79.9283-16.8814L79.9283-14.9154Z"/>
  </g>
  <g id="Semibold-M" transform="matrix(1 0 0 1 1998.73 1126)">
   <path d="M6.94131-59.7224L6.53231-59.3294L6.53231-35.2304L6.53231-11.1304L6.94131-10.7374L7.33531-10.3274L44.5403-10.3274L81.7463-10.3274L82.1393-10.7374L82.5493-11.1304L82.5493-35.2304L82.5493-59.3294L82.1393-59.7224L81.7463-60.1324L44.5403-60.1324L7.33531-60.1324L6.94131-59.7224ZM43.2303-55.5444L43.2303-53.5784L26.1923-53.5784L9.15331-53.5784L9.15331-55.5444L9.15331-57.5104L26.1923-57.5104L43.2303-57.5104L43.2303-55.5444ZM79.9283-55.5444L79.9283-53.5784L62.8893-53.5784L45.8513-53.5784L45.8513-55.5444L45.8513-57.5104L62.8893-57.5104L79.9283-57.5104L79.9283-55.5444ZM23.5703-35.2304L23.5703-19.5024L16.3623-19.5024L9.15331-19.5024L9.15331-35.2304L9.15331-50.9574L16.3623-50.9574L23.5703-50.9574L23.5703-35.2304ZM43.2303-43.7494L43.2303-36.5404L34.7113-36.5404L26.1923-36.5404L26.1923-43.7494L26.1923-50.9574L34.7113-50.9574L43.2303-50.9574L43.2303-43.7494ZM62.8893-43.7494L62.8893-36.5404L54.3703-36.5404L45.8513-36.5404L45.8513-43.7494L45.8513-50.9574L54.3703-50.9574L62.8893-50.9574L62.8893-43.7494ZM79.9283-35.2304L79.9283-19.5024L72.7193-19.5024L65.5113-19.5024L65.5113-35.2304L65.5113-50.9574L72.7193-50.9574L79.9283-50.9574L79.9283-35.2304ZM43.2303-26.7104L43.2303-19.5024L34.7113-19.5024L26.1923-19.5024L26.1923-26.7104L26.1923-33.9194L34.7113-33.9194L43.2303-33.9194L43.2303-26.7104ZM62.8893-26.7104L62.8893-19.5024L54.3703-19.5024L45.8513-19.5024L45.8513-26.7104L45.8513-33.9194L54.3703-33.9194L62.8893-33.9194L62.8893-26.7104ZM43.2303-14.9154L43.2303-12.9494L26.1923-12.9494L9.15331-12.9494L9.15331-14.9154L9.15331-16.8814L26.1923-16.8814L43.2303-16.8814L43.2303-14.9154ZM79.9283-14.9154L79.9283-12.9494L62.8893-12.9494L45.8513-12.9494L45.8513-14.9154L45.8513-16.8814L62.8893-16.8814L79.9283-16.8814L79.9283-14.9154Z"/>
  </g>
  <g id="Medium-M" transform="matrix(1 0 0 1 1702.01 1126)">
   <path d="M6.94131-59.7224L6.53231-59.3294L6.53231-35.2304L6.53231-11.1304L6.94131-10.7374L7.33531-10.3274L44.5403-10.3274L81.7463-10.3274L82.1393-10.7374L82.5493-11.1304L82.5493-35.2304L82.5493-59.3294L82.1393-59.7224L81.7463-60.1324L44.5403-60.1324L7.33531-60.1324L6.94131-59.7224ZM43.2303-55.5444L43.2303-53.5784L26.1923-53.5784L9.15331-53.5784L9.15331-55.5444L9.15331-57.5104L26.1923-57.5104L43.2303-57.5104L43.2303-55.5444ZM79.9283-55.5444L79.9283-53.5784L62.8893-53.5784L45.8513-53.5784L45.8513-55.5444L45.8513-57.5104L62.8893-57.5104L79.9283-57.5104L79.9283-55.5444ZM23.5703-35.2304L23.5703-19.5024L16.3623-19.5024L9.15331-19.5024L9.15331-35.2304L9.15331-50.9574L16.3623-50.9574L23.5703-50.9574L23.5703-35.2304ZM43.2303-43.7494L43.2303-36.5404L34.7113-36.5404L26.1923-36.5404L26.1923-43.7494L26.1923-50.9574L34.7113-50.9574L43.2303-50.9574L43.2303-43.7494ZM62.8893-43.7494L62.8893-36.5404L54.3703-36.5404L45.8513-36.5404L45.8513-43.7494L45.8513-50.9574L54.3703-50.9574L62.8893-50.9574L62.8893-43.7494ZM79.9283-35.2304L79.9283-19.5024L72.7193-19.5024L65.5113-19.5024L65.5113-35.2304L65.5113-50.9574L72.7193-50.9574L79.9283-50.9574L79.9283-35.2304ZM43.2303-26.7104L43.2303-19.5024L34.7113-19.5024L26.1923-19.5024L26.1923-26.7104L26.1923-33.9194L34.7113-33.9194L43.2303-33.9194L43.2303-26.7104ZM62.8893-26.7104L62.8893-19.5024L54.3703-19.5024L45.8513-19.5024L45.8513-26.7104L45.8513-33.9194L54.3703-33.9194L62.8893-33.9194L62.8893-26.7104ZM43.2303-14.9154L43.2303-12.9494L26.1923-12.9494L9.15331-12.9494L9.15331-14.9154L9.15331-16.8814L26.1923-16.8814L43.2303-16.8814L43.2303-14.9154ZM79.9283-14.9154L79.9283-12.9494L62.8893-12.9494L45.8513-12.9494L45.8513-14.9154L45.8513-16.8814L62.8893-16.8814L79.9283-16.8814L79.9283-14.9154Z"/>
  </g>
  <g id="Regular-M" transform="matrix(1 0 0 1 1405.3 1126)">
   <path d="M6.94131-59.7224L6.53231-59.3294L6.53231-35.2304L6.53231-11.1304L6.94131-10.7374L7.33531-10.3274L44.5403-10.3274L81.7463-10.3274L82.1393-10.7374L82.5493-11.1304L82.5493-35.2304L82.5493-59.3294L82.1393-59.7224L81.7463-60.1324L44.5403-60.1324L7.33531-60.1324L6.94131-59.7224ZM43.2303-55.5444L43.2303-53.5784L26.1923-53.5784L9.15331-53.5784L9.15331-55.5444L9.15331-57.5104L26.1923-57.5104L43.2303-57.5104L43.2303-55.5444ZM79.9283-55.5444L79.9283-53.5784L62.8893-53.5784L45.8513-53.5784L45.8513-55.5444L45.8513-57.5104L62.8893-57.5104L79.9283-57.5104L79.9283-55.5444ZM23.5703-35.2304L23.5703-19.5024L16.3623-19.5024L9.15331-19.5024L9.15331-35.2304L9.15331-50.9574L16.3623-50.9574L23.5703-50.9574L23.5703-35.2304ZM43.2303-43.7494L43.2303-36.5404L34.7113-36.5404L26.1923-36.5404L26.1923-43.7494L26.1923-50.9574L34.7113-50.9574L43.2303-50.9574L43.2303-43.7494ZM62.8893-43.7494L62.8893-36.5404L54.3703-36.5404L45.8513-36.5404L45.8513-43.7494L45.8513-50.9574L54.3703-50.9574L62.8893-50.9574L62.8893-43.7494ZM79.9283-35.2304L79.9283-19.5024L72.7193-19.5024L65.5113-19.5024L65.5113-35.2304L65.5113-50.9574L72.7193-50.9574L79.9283-50.9574L79.9283-35.2304ZM43.2303-26.7104L43.2303-19.5024L34.7113-19.5024L26.1923-19.5024L26.1923-26.7104L26.1923-33.9194L34.7113-33.9194L43.2303-33.9194L43.2303-26.7104ZM62.8893-26.7104L62.8893-19.5024L54.3703-19.5024L45.8513-19.5024L45.8513-26.7104L45.8513-33.9194L54.3703-33.9194L62.8893-33.9194L62.8893-26.7104ZM43.2303-14.9154L43.2303-12.9494L26.1923-12.9494L9.15331-12.9494L9.15331-14.9154L9.15331-16.8814L26.1923-16.8814L43.2303-16.8814L43.2303-14.9154ZM79.9283-14.9154L79.9283-12.9494L62.8893-12.9494L45.8513-12.9494L45.8513-14.9154L45.8513-16.8814L62.8893-16.8814L79.9283-16.8814L79.9283-14.9154Z"/>
  </g>
  <g id="Light-M" transform="matrix(1 0 0 1 1108.59 1126)">
   <path d="M6.94131-59.7224L6.53231-59.3294L6.53231-35.2304L6.53231-11.1304L6.94131-10.7374L7.33531-10.3274L44.5403-10.3274L81.7463-10.3274L82.1393-10.7374L82.5493-11.1304L82.5493-35.2304L82.5493-59.3294L82.1393-59.7224L81.7463-60.1324L44.5403-60.1324L7.33531-60.1324L6.94131-59.7224ZM43.2303-55.5444L43.2303-53.5784L26.1923-53.5784L9.15331-53.5784L9.15331-55.5444L9.15331-57.5104L26.1923-57.5104L43.2303-57.5104L43.2303-55.5444ZM79.9283-55.5444L79.9283-53.5784L62.8893-53.5784L45.8513-53.5784L45.8513-55.5444L45.8513-57.5104L62.8893-57.5104L79.9283-57.5104L79.9283-55.5444ZM23.5703-35.2304L23.5703-19.5024L16.3623-19.5024L9.15331-19.5024L9.15331-35.2304L9.15331-50.9574L16.3623-50.9574L23.5703-50.9574L23.5703-35.2304ZM43.2303-43.7494L43.2303-36.5404L34.7113-36.5404L26.1923-36.5404L26.1923-43.7494L26.1923-50.9574L34.7113-50.9574L43.2303-50.9574L43.2303-43.7494ZM62.8893-43.7494L62.8893-36.5404L54.3703-36.5404L45.8513-36.5404L45.8513-43.7494L45.8513-50.9574L54.3703-50.9574L62.8893-50.9574L62.8893-43.7494ZM79.9283-35.2304L79.9283-19.5024L72.7193-19.5024L65.5113-19.5024L65.5113-35.2304L65.5113-50.9574L72.7193-50.9574L79.9283-50.9574L79.9283-35.2304ZM43.2303-26.7104L43.2303-19.5024L34.7113-19.5024L26.1923-19.5024L26.1923-26.7104L26.1923-33.9194L34.7113-33.9194L43.2303-33.9194L43.2303-26.7104ZM62.8893-26.7104L62.8893-19.5024L54.3703-19.5024L45.8513-19.5024L45.8513-26.7104L45.8513-33.9194L54.3703-33.9194L62.8893-33.9194L62.8893-26.7104ZM43.2303-14.9154L43.2303-12.9494L26.1923-12.9494L9.15331-12.9494L9.15331-14.9154L9.15331-16.8814L26.1923-16.8814L43.2303-16.8814L43.2303-14.9154ZM79.9283-14.9154L79.9283-12.9494L62.8893-12.9494L45.8513-12.9494L45.8513-14.9154L45.8513-16.8814L62.8893-16.8814L79.9283-16.8814L79.9283-14.9154Z"/>
  </g>
  <g id="Thin-M" transform="matrix(1 0 0 1 811.881 1126)">
   <path d="M6.94131-59.7224L6.53231-59.3294L6.53231-35.2304L6.53231-11.1304L6.94131-10.7374L7.33531-10.3274L44.5403-10.3274L81.7463-10.3274L82.1393-10.7374L82.5493-11.1304L82.5493-35.2304L82.5493-59.3294L82.1393-59.7224L81.7463-60.1324L44.5403-60.1324L7.33531-60.1324L6.94131-59.7224ZM43.2303-55.5444L43.2303-53.5784L26.1923-53.5784L9.15331-53.5784L9.15331-55.5444L9.15331-57.5104L26.1923-57.5104L43.2303-57.5104L43.2303-55.5444ZM79.9283-55.5444L79.9283-53.5784L62.8893-53.5784L45.8513-53.5784L45.8513-55.5444L45.8513-57.5104L62.8893-57.5104L79.9283-57.5104L79.9283-55.5444ZM23.5703-35.2304L23.5703-19.5024L16.3623-19.5024L9.15331-19.5024L9.15331-35.2304L9.15331-50.9574L16.3623-50.9574L23.5703-50.9574L23.5703-35.2304ZM43.2303-43.7494L43.2303-36.5404L34.7113-36.5404L26.1923-36.5404L26.1923-43.7494L26.1923-50.9574L34.7113-50.9574L43.2303-50.9574L43.2303-43.7494ZM62.8893-43.7494L62.8893-36.5404L54.3703-36.5404L45.8513-36.5404L45.8513-43.7494L45.8513-50.9574L54.3703-50.9574L62.8893-50.9574L62.8893-43.7494ZM79.9283-35.2304L79.9283-19.5024L72.7193-19.5024L65.5113-19.5024L65.5113-35.2304L65.5113-50.9574L72.7193-50.9574L79.9283-50.9574L79.9283-35.2304ZM43.2303-26.7104L43.2303-19.5024L34.7113-19.5024L26.1923-19.5024L26.1923-26.7104L26.1923-33.9194L34.7113-33.9194L43.2303-33.9194L43.2303-26.7104ZM62.8893-26.7104L62.8893-19.5024L54.3703-19.5024L45.8513-19.5024L45.8513-26.7104L45.8513-33.9194L54.3703-33.9194L62.8893-33.9194L62.8893-26.7104ZM43.2303-14.9154L43.2303-12.9494L26.1923-12.9494L9.15331-12.9494L9.15331-14.9154L9.15331-16.8814L26.1923-16.8814L43.2303-16.8814L43.2303-14.9154ZM79.9283-14.9154L79.9283-12.9494L62.8893-12.9494L45.8513-12.9494L45.8513-14.9154L45.8513-16.8814L62.8893-16.8814L79.9283-16.8814L79.9283-14.9154Z"/>
  </g>
  <g id="Ultralight-M" transform="matrix(1 0 0 1 515.17 1126)">
   <path d="M6.94131-59.7224L6.53231-59.3294L6.53231-35.2304L6.53231-11.1304L6.94131-10.7374L7.33531-10.3274L44.5403-10.3274L81.7463-10.3274L82.1393-10.7374L82.5493-11.1304L82.5493-35.2304L82.5493-59.3294L82.1393-59.7224L81.7463-60.1324L44.5403-60.1324L7.33531-60.1324L6.94131-59.7224ZM43.2303-55.5444L43.2303-53.5784L26.1923-53.5784L9.15331-53.5784L9.15331-55.5444L9.15331-57.5104L26.1923-57.5104L43.2303-57.5104L43.2303-55.5444ZM79.9283-55.5444L79.9283-53.5784L62.8893-53.5784L45.8513-53.5784L45.8513-55.5444L45.8513-57.5104L62.8893-57.5104L79.9283-57.5104L79.9283-55.5444ZM23.5703-35.2304L23.5703-19.5024L16.3623-19.5024L9.15331-19.5024L9.15331-35.2304L9.15331-50.9574L16.3623-50.9574L23.5703-50.9574L23.5703-35.2304ZM43.2303-43.7494L43.2303-36.5404L34.7113-36.5404L26.1923-36.5404L26.1923-43.7494L26.1923-50.9574L34.7113-50.9574L43.2303-50.9574L43.2303-43.7494ZM62.8893-43.7494L62.8893-36.5404L54.3703-36.5404L45.8513-36.5404L45.8513-43.7494L45.8513-50.9574L54.3703-50.9574L62.8893-50.9574L62.8893-43.7494ZM79.9283-35.2304L79.9283-19.5024L72.7193-19.5024L65.5113-19.5024L65.5113-35.2304L65.5113-50.9574L72.7193-50.9574L79.9283-50.9574L79.9283-35.2304ZM43.2303-26.7104L43.2303-19.5024L34.7113-19.5024L26.1923-19.5024L26.1923-26.7104L26.1923-33.9194L34.7113-33.9194L43.2303-33.9194L43.2303-26.7104ZM62.8893-26.7104L62.8893-19.5024L54.3703-19.5024L45.8513-19.5024L45.8513-26.7104L45.8513-33.9194L54.3703-33.9194L62.8893-33.9194L62.8893-26.7104ZM43.2303-14.9154L43.2303-12.9494L26.1923-12.9494L9.15331-12.9494L9.15331-14.9154L9.15331-16.8814L26.1923-16.8814L43.2303-16.8814L43.2303-14.9154ZM79.9283-14.9154L79.9283-12.9494L62.8893-12.9494L45.8513-12.9494L45.8513-14.9154L45.8513-16.8814L62.8893-16.8814L79.9283-16.8814L79.9283-14.9154Z"/>
  </g>
  <g id="Black-S" transform="matrix(1 0 0 1 2897.11 696)">
   <path d="M6.85231-54.4074L6.53231-54.0994L6.53231-35.2304L6.53231-16.3604L6.85231-16.0524L7.16031-15.7314L36.2923-15.7314L65.4243-15.7314L65.7323-16.0524L66.0533-16.3604L66.0533-35.2304L66.0533-54.0994L65.7323-54.4074L65.4243-54.7284L36.2923-54.7284L7.16031-54.7284L6.85231-54.4074ZM35.2663-51.1364L35.2663-49.5974L21.9253-49.5974L8.58431-49.5974L8.58431-51.1364L8.58431-52.6764L21.9253-52.6764L35.2663-52.6764L35.2663-51.1364ZM64.0013-51.1364L64.0013-49.5974L50.6603-49.5974L37.3193-49.5974L37.3193-51.1364L37.3193-52.6764L50.6603-52.6764L64.0013-52.6764L64.0013-51.1364ZM19.8733-35.2304L19.8733-22.9154L14.2283-22.9154L8.58431-22.9154L8.58431-35.2304L8.58431-47.5444L14.2283-47.5444L19.8733-47.5444L19.8733-35.2304ZM35.2663-41.9004L35.2663-36.2564L28.5963-36.2564L21.9253-36.2564L21.9253-41.9004L21.9253-47.5444L28.5963-47.5444L35.2663-47.5444L35.2663-41.9004ZM50.6603-41.9004L50.6603-36.2564L43.9893-36.2564L37.3193-36.2564L37.3193-41.9004L37.3193-47.5444L43.9893-47.5444L50.6603-47.5444L50.6603-41.9004ZM64.0013-35.2304L64.0013-22.9154L58.3563-22.9154L52.7123-22.9154L52.7123-35.2304L52.7123-47.5444L58.3563-47.5444L64.0013-47.5444L64.0013-35.2304ZM35.2663-28.5594L35.2663-22.9154L28.5963-22.9154L21.9253-22.9154L21.9253-28.5594L21.9253-34.2034L28.5963-34.2034L35.2663-34.2034L35.2663-28.5594ZM50.6603-28.5594L50.6603-22.9154L43.9893-22.9154L37.3193-22.9154L37.3193-28.5594L37.3193-34.2034L43.9893-34.2034L50.6603-34.2034L50.6603-28.5594ZM35.2663-19.3234L35.2663-17.7844L21.9253-17.7844L8.58431-17.7844L8.58431-19.3234L8.58431-20.8624L21.9253-20.8624L35.2663-20.8624L35.2663-19.3234ZM64.0013-19.3234L64.0013-17.7844L50.6603-17.7844L37.3193-17.7844L37.3193-19.3234L37.3193-20.8624L50.6603-20.8624L64.0013-20.8624L64.0013-19.3234Z"/>
  </g>
  <g id="Heavy-S" transform="matrix(1 0 0 1 2600.4 696)">
   <path d="M6.85231-54.4074L6.53231-54.0994L6.53231-35.2304L6.53231-16.3604L6.85231-16.0524L7.16031-15.7314L36.2923-15.7314L65.4243-15.7314L65.7323-16.0524L66.0533-16.3604L66.0533-35.2304L66.0533-54.0994L65.7323-54.4074L65.4243-54.7284L36.2923-54.7284L7.16031-54.7284L6.85231-54.4074ZM35.2663-51.1364L35.2663-49.5974L21.9253-49.5974L8.58431-49.5974L8.58431-51.1364L8.58431-52.6764L21.9253-52.6764L35.2663-52.6764L35.2663-51.1364ZM64.0013-51.1364L64.0013-49.5974L50.6603-49.5974L37.3193-49.5974L37.3193-51.1364L37.3193-52.6764L50.6603-52.6764L64.0013-52.6764L64.0013-51.1364ZM19.8733-35.2304L19.8733-22.9154L14.2283-22.9154L8.58431-22.9154L8.58431-35.2304L8.58431-47.5444L14.2283-47.5444L19.8733-47.5444L19.8733-35.2304ZM35.2663-41.9004L35.2663-36.2564L28.5963-36.2564L21.9253-36.2564L21.9253-41.9004L21.9253-47.5444L28.5963-47.5444L35.2663-47.5444L35.2663-41.9004ZM50.6603-41.9004L50.6603-36.2564L43.9893-36.2564L37.3193-36.2564L37.3193-41.9004L37.3193-47.5444L43.9893-47.5444L50.6603-47.5444L50.6603-41.9004ZM64.0013-35.2304L64.0013-22.9154L58.3563-22.9154L52.7123-22.9154L52.7123-35.2304L52.7123-47.5444L58.3563-47.5444L64.0013-47.5444L64.0013-35.2304ZM35.2663-28.5594L35.2663-22.9154L28.5963-22.9154L21.9253-22.9154L21.9253-28.5594L21.9253-34.2034L28.5963-34.2034L35.2663-34.2034L35.2663-28.5594ZM50.6603-28.5594L50.6603-22.9154L43.9893-22.9154L37.3193-22.9154L37.3193-28.5594L37.3193-34.2034L43.9893-34.2034L50.6603-34.2034L50.6603-28.5594ZM35.2663-19.3234L35.2663-17.7844L21.9253-17.7844L8.58431-17.7844L8.58431-19.3234L8.58431-20.8624L21.9253-20.8624L35.2663-20.8624L35.2663-19.3234ZM64.0013-19.3234L64.0013-17.7844L50.6603-17.7844L37.3193-17.7844L37.3193-19.3234L37.3193-20.8624L50.6603-20.8624L64.0013-20.8624L64.0013-19.3234Z"/>
  </g>
  <g id="Bold-S" transform="matrix(1 0 0 1 2303.69 696)">
   <path d="M6.85231-54.4074L6.53231-54.0994L6.53231-35.2304L6.53231-16.3604L6.85231-16.0524L7.16031-15.7314L36.2923-15.7314L65.4243-15.7314L65.7323-16.0524L66.0533-16.3604L66.0533-35.2304L66.0533-54.0994L65.7323-54.4074L65.4243-54.7284L36.2923-54.7284L7.16031-54.7284L6.85231-54.4074ZM35.2663-51.1364L35.2663-49.5974L21.9253-49.5974L8.58431-49.5974L8.58431-51.1364L8.58431-52.6764L21.9253-52.6764L35.2663-52.6764L35.2663-51.1364ZM64.0013-51.1364L64.0013-49.5974L50.6603-49.5974L37.3193-49.5974L37.3193-51.1364L37.3193-52.6764L50.6603-52.6764L64.0013-52.6764L64.0013-51.1364ZM19.8733-35.2304L19.8733-22.9154L14.2283-22.9154L8.58431-22.9154L8.58431-35.2304L8.58431-47.5444L14.2283-47.5444L19.8733-47.5444L19.8733-35.2304ZM35.2663-41.9004L35.2663-36.2564L28.5963-36.2564L21.9253-36.2564L21.9253-41.9004L21.9253-47.5444L28.5963-47.5444L35.2663-47.5444L35.2663-41.9004ZM50.6603-41.9004L50.6603-36.2564L43.9893-36.2564L37.3193-36.2564L37.3193-41.9004L37.3193-47.5444L43.9893-47.5444L50.6603-47.5444L50.6603-41.9004ZM64.0013-35.2304L64.0013-22.9154L58.3563-22.9154L52.7123-22.9154L52.7123-35.2304L52.7123-47.5444L58.3563-47.5444L64.0013-47.5444L64.0013-35.2304ZM35.2663-28.5594L35.2663-22.9154L28.5963-22.9154L21.9253-22.9154L21.9253-28.5594L21.9253-34.2034L28.5963-34.2034L35.2663-34.2034L35.2663-28.5594ZM50.6603-28.5594L50.6603-22.9154L43.9893-22.9154L37.3193-22.9154L37.3193-28.5594L37.3193-34.2034L43.9893-34.2034L50.6603-34.2034L50.6603-28.5594ZM35.2663-19.3234L35.2663-17.7844L21.9253-17.7844L8.58431-17.7844L8.58431-19.3234L8.58431-20.8624L21.9253-20.8624L35.2663-20.8624L35.2663-19.3234ZM64.0013-19.3234L64.0013-17.7844L50.6603-17.7844L37.3193-17.7844L37.3193-19.3234L37.3193-20.8624L50.6603-20.8624L64.0013-20.8624L64.0013-19.3234Z"/>
  </g>
  <g id="Semibold-S" transform="matrix(1 0 0 1 2006.97 696)">
   <path d="M6.85231-54.4074L6.53231-54.0994L6.53231-35.2304L6.53231-16.3604L6.85231-16.0524L7.16031-15.7314L36.2923-15.7314L65.4243-15.7314L65.7323-16.0524L66.0533-16.3604L66.0533-35.2304L66.0533-54.0994L65.7323-54.4074L65.4243-54.7284L36.2923-54.7284L7.16031-54.7284L6.85231-54.4074ZM35.2663-51.1364L35.2663-49.5974L21.9253-49.5974L8.58431-49.5974L8.58431-51.1364L8.58431-52.6764L21.9253-52.6764L35.2663-52.6764L35.2663-51.1364ZM64.0013-51.1364L64.0013-49.5974L50.6603-49.5974L37.3193-49.5974L37.3193-51.1364L37.3193-52.6764L50.6603-52.6764L64.0013-52.6764L64.0013-51.1364ZM19.8733-35.2304L19.8733-22.9154L14.2283-22.9154L8.58431-22.9154L8.58431-35.2304L8.58431-47.5444L14.2283-47.5444L19.8733-47.5444L19.8733-35.2304ZM35.2663-41.9004L35.2663-36.2564L28.5963-36.2564L21.9253-36.2564L21.9253-41.9004L21.9253-47.5444L28.5963-47.5444L35.2663-47.5444L35.2663-41.9004ZM50.6603-41.9004L50.6603-36.2564L43.9893-36.2564L37.3193-36.2564L37.3193-41.9004L37.3193-47.5444L43.9893-47.5444L50.6603-47.5444L50.6603-41.9004ZM64.0013-35.2304L64.0013-22.9154L58.3563-22.9154L52.7123-22.9154L52.7123-35.2304L52.7123-47.5444L58.3563-47.5444L64.0013-47.5444L64.0013-35.2304ZM35.2663-28.5594L35.2663-22.9154L28.5963-22.9154L21.9253-22.9154L21.9253-28.5594L21.9253-34.2034L28.5963-34.2034L35.2663-34.2034L35.2663-28.5594ZM50.6603-28.5594L50.6603-22.9154L43.9893-22.9154L37.3193-22.9154L37.3193-28.5594L37.3193-34.2034L43.9893-34.2034L50.6603-34.2034L50.6603-28.5594ZM35.2663-19.3234L35.2663-17.7844L21.9253-17.7844L8.58431-17.7844L8.58431-19.3234L8.58431-20.8624L21.9253-20.8624L35.2663-20.8624L35.2663-19.3234ZM64.0013-19.3234L64.0013-17.7844L50.6603-17.7844L37.3193-17.7844L37.3193-19.3234L37.3193-20.8624L50.6603-20.8624L64.0013-20.8624L64.0013-19.3234Z"/>
  </g>
  <g id="Medium-S" transform="matrix(1 0 0 1 1710.26 696)">
   <path d="M6.85231-54.4074L6.53231-54.0994L6.53231-35.2304L6.53231-16.3604L6.85231-16.0524L7.16031-15.7314L36.2923-15.7314L65.4243-15.7314L65.7323-16.0524L66.0533-16.3604L66.0533-35.2304L66.0533-54.0994L65.7323-54.4074L65.4243-54.7284L36.2923-54.7284L7.16031-54.7284L6.85231-54.4074ZM35.2663-51.1364L35.2663-49.5974L21.9253-49.5974L8.58431-49.5974L8.58431-51.1364L8.58431-52.6764L21.9253-52.6764L35.2663-52.6764L35.2663-51.1364ZM64.0013-51.1364L64.0013-49.5974L50.6603-49.5974L37.3193-49.5974L37.3193-51.1364L37.3193-52.6764L50.6603-52.6764L64.0013-52.6764L64.0013-51.1364ZM19.8733-35.2304L19.8733-22.9154L14.2283-22.9154L8.58431-22.9154L8.58431-35.2304L8.58431-47.5444L14.2283-47.5444L19.8733-47.5444L19.8733-35.2304ZM35.2663-41.9004L35.2663-36.2564L28.5963-36.2564L21.9253-36.2564L21.9253-41.9004L21.9253-47.5444L28.5963-47.5444L35.2663-47.5444L35.2663-41.9004ZM50.6603-41.9004L50.6603-36.2564L43.9893-36.2564L37.3193-36.2564L37.3193-41.9004L37.3193-47.5444L43.9893-47.5444L50.6603-47.5444L50.6603-41.9004ZM64.0013-35.2304L64.0013-22.9154L58.3563-22.9154L52.7123-22.9154L52.7123-35.2304L52.7123-47.5444L58.3563-47.5444L64.0013-47.5444L64.0013-35.2304ZM35.2663-28.5594L35.2663-22.9154L28.5963-22.9154L21.9253-22.9154L21.9253-28.5594L21.9253-34.2034L28.5963-34.2034L35.2663-34.2034L35.2663-28.5594ZM50.6603-28.5594L50.6603-22.9154L43.9893-22.9154L37.3193-22.9154L37.3193-28.5594L37.3193-34.2034L43.9893-34.2034L50.6603-34.2034L50.6603-28.5594ZM35.2663-19.3234L35.2663-17.7844L21.9253-17.7844L8.58431-17.7844L8.58431-19.3234L8.58431-20.8624L21.9253-20.8624L35.2663-20.8624L35.2663-19.3234ZM64.0013-19.3234L64.0013-17.7844L50.6603-17.7844L37.3193-17.7844L37.3193-19.3234L37.3193-20.8624L50.6603-20.8624L64.0013-20.8624L64.0013-19.3234Z"/>
  </g>
  <g id="Regular-S" transform="matrix(1 0 0 1 1413.55 696)">
   <path d="M6.85231-54.4074L6.53231-54.0994L6.53231-35.2304L6.53231-16.3604L6.85231-16.0524L7.16031-15.7314L36.2923-15.7314L65.4243-15.7314L65.7323-16.0524L66.0533-16.3604L66.0533-35.2304L66.0533-54.0994L65.7323-54.4074L65.4243-54.7284L36.2923-54.7284L7.16031-54.7284L6.85231-54.4074ZM35.2663-51.1364L35.2663-49.5974L21.9253-49.5974L8.58431-49.5974L8.58431-51.1364L8.58431-52.6764L21.9253-52.6764L35.2663-52.6764L35.2663-51.1364ZM64.0013-51.1364L64.0013-49.5974L50.6603-49.5974L37.3193-49.5974L37.3193-51.1364L37.3193-52.6764L50.6603-52.6764L64.0013-52.6764L64.0013-51.1364ZM19.8733-35.2304L19.8733-22.9154L14.2283-22.9154L8.58431-22.9154L8.58431-35.2304L8.58431-47.5444L14.2283-47.5444L19.8733-47.5444L19.8733-35.2304ZM35.2663-41.9004L35.2663-36.2564L28.5963-36.2564L21.9253-36.2564L21.9253-41.9004L21.9253-47.5444L28.5963-47.5444L35.2663-47.5444L35.2663-41.9004ZM50.6603-41.9004L50.6603-36.2564L43.9893-36.2564L37.3193-36.2564L37.3193-41.9004L37.3193-47.5444L43.9893-47.5444L50.6603-47.5444L50.6603-41.9004ZM64.0013-35.2304L64.0013-22.9154L58.3563-22.9154L52.7123-22.9154L52.7123-35.2304L52.7123-47.5444L58.3563-47.5444L64.0013-47.5444L64.0013-35.2304ZM35.2663-28.5594L35.2663-22.9154L28.5963-22.9154L21.9253-22.9154L21.9253-28.5594L21.9253-34.2034L28.5963-34.2034L35.2663-34.2034L35.2663-28.5594ZM50.6603-28.5594L50.6603-22.9154L43.9893-22.9154L37.3193-22.9154L37.3193-28.5594L37.3193-34.2034L43.9893-34.2034L50.6603-34.2034L50.6603-28.5594ZM35.2663-19.3234L35.2663-17.7844L21.9253-17.7844L8.58431-17.7844L8.58431-19.3234L8.58431-20.8624L21.9253-20.8624L35.2663-20.8624L35.2663-19.3234ZM64.0013-19.3234L64.0013-17.7844L50.6603-17.7844L37.3193-17.7844L37.3193-19.3234L37.3193-20.8624L50.6603-20.8624L64.0013-20.8624L64.0013-19.3234Z"/>
  </g>
  <g id="Light-S" transform="matrix(1 0 0 1 1116.84 696)">
   <path d="M6.85231-54.4074L6.53231-54.0994L6.53231-35.2304L6.53231-16.3604L6.85231-16.0524L7.16031-15.7314L36.2923-15.7314L65.4243-15.7314L65.7323-16.0524L66.0533-16.3604L66.0533-35.2304L66.0533-54.0994L65.7323-54.4074L65.4243-54.7284L36.2923-54.7284L7.16031-54.7284L6.85231-54.4074ZM35.2663-51.1364L35.2663-49.5974L21.9253-49.5974L8.58431-49.5974L8.58431-51.1364L8.58431-52.6764L21.9253-52.6764L35.2663-52.6764L35.2663-51.1364ZM64.0013-51.1364L64.0013-49.5974L50.6603-49.5974L37.3193-49.5974L37.3193-51.1364L37.3193-52.6764L50.6603-52.6764L64.0013-52.6764L64.0013-51.1364ZM19.8733-35.2304L19.8733-22.9154L14.2283-22.9154L8.58431-22.9154L8.58431-35.2304L8.58431-47.5444L14.2283-47.5444L19.8733-47.5444L19.8733-35.2304ZM35.2663-41.9004L35.2663-36.2564L28.5963-36.2564L21.9253-36.2564L21.9253-41.9004L21.9253-47.5444L28.5963-47.5444L35.2663-47.5444L35.2663-41.9004ZM50.6603-41.9004L50.6603-36.2564L43.9893-36.2564L37.3193-36.2564L37.3193-41.9004L37.3193-47.5444L43.9893-47.5444L50.6603-47.5444L50.6603-41.9004ZM64.0013-35.2304L64.0013-22.9154L58.3563-22.9154L52.7123-22.9154L52.7123-35.2304L52.7123-47.5444L58.3563-47.5444L64.0013-47.5444L64.0013-35.2304ZM35.2663-28.5594L35.2663-22.9154L28.5963-22.9154L21.9253-22.9154L21.9253-28.5594L21.9253-34.2034L28.5963-34.2034L35.2663-34.2034L35.2663-28.5594ZM50.6603-28.5594L50.6603-22.9154L43.9893-22.9154L37.3193-22.9154L37.3193-28.5594L37.3193-34.2034L43.9893-34.2034L50.6603-34.2034L50.6603-28.5594ZM35.2663-19.3234L35.2663-17.7844L21.9253-17.7844L8.58431-17.7844L8.58431-19.3234L8.58431-20.8624L21.9253-20.8624L35.2663-20.8624L35.2663-19.3234ZM64.0013-19.3234L64.0013-17.7844L50.6603-17.7844L37.3193-17.7844L37.3193-19.3234L37.3193-20.8624L50.6603-20.8624L64.0013-20.8624L64.0013-19.3234Z"/>
  </g>
  <g id="Thin-S" transform="matrix(1 0 0 1 820.129 696)">
   <path d="M6.85231-54.4074L6.53231-54.0994L6.53231-35.2304L6.53231-16.3604L6.85231-16.0524L7.16031-15.7314L36.2923-15.7314L65.4243-15.7314L65.7323-16.0524L66.0533-16.3604L66.0533-35.2304L66.0533-54.0994L65.7323-54.4074L65.4243-54.7284L36.2923-54.7284L7.16031-54.7284L6.85231-54.4074ZM35.2663-51.1364L35.2663-49.5974L21.9253-49.5974L8.58431-49.5974L8.58431-51.1364L8.58431-52.6764L21.9253-52.6764L35.2663-52.6764L35.2663-51.1364ZM64.0013-51.1364L64.0013-49.5974L50.6603-49.5974L37.3193-49.5974L37.3193-51.1364L37.3193-52.6764L50.6603-52.6764L64.0013-52.6764L64.0013-51.1364ZM19.8733-35.2304L19.8733-22.9154L14.2283-22.9154L8.58431-22.9154L8.58431-35.2304L8.58431-47.5444L14.2283-47.5444L19.8733-47.5444L19.8733-35.2304ZM35.2663-41.9004L35.2663-36.2564L28.5963-36.2564L21.9253-36.2564L21.9253-41.9004L21.9253-47.5444L28.5963-47.5444L35.2663-47.5444L35.2663-41.9004ZM50.6603-41.9004L50.6603-36.2564L43.9893-36.2564L37.3193-36.2564L37.3193-41.9004L37.3193-47.5444L43.9893-47.5444L50.6603-47.5444L50.6603-41.9004ZM64.0013-35.2304L64.0013-22.9154L58.3563-22.9154L52.7123-22.9154L52.7123-35.2304L52.7123-47.5444L58.3563-47.5444L64.0013-47.5444L64.0013-35.2304ZM35.2663-28.5594L35.2663-22.9154L28.5963-22.9154L21.9253-22.9154L21.9253-28.5594L21.9253-34.2034L28.5963-34.2034L35.2663-34.2034L35.2663-28.5594ZM50.6603-28.5594L50.6603-22.9154L43.9893-22.9154L37.3193-22.9154L37.3193-28.5594L37.3193-34.2034L43.9893-34.2034L50.6603-34.2034L50.6603-28.5594ZM35.2663-19.3234L35.2663-17.7844L21.9253-17.7844L8.58431-17.7844L8.58431-19.3234L8.58431-20.8624L21.9253-20.8624L35.2663-20.8624L35.2663-19.3234ZM64.0013-19.3234L64.0013-17.7844L50.6603-17.7844L37.3193-17.7844L37.3193-19.3234L37.3193-20.8624L50.6603-20.8624L64.0013-20.8624L64.0013-19.3234Z"/>
  </g>
  <g id="Ultralight-S" transform="matrix(1 0 0 1 523.418 696)">
   <path d="M6.85231-54.4074L6.53231-54.0994L6.53231-35.2304L6.53231-16.3604L6.85231-16.0524L7.16031-15.7314L36.2923-15.7314L65.4243-15.7314L65.7323-16.0524L66.0533-16.3604L66.0533-35.2304L66.0533-54.0994L65.7323-54.4074L65.4243-54.7284L36.2923-54.7284L7.16031-54.7284L6.85231-54.4074ZM35.2663-51.1364L35.2663-49.5974L21.9253-49.5974L8.58431-49.5974L8.58431-51.1364L8.58431-52.6764L21.9253-52.6764L35.2663-52.6764L35.2663-51.1364ZM64.0013-51.1364L64.0013-49.5974L50.6603-49.5974L37.3193-49.5974L37.3193-51.1364L37.3193-52.6764L50.6603-52.6764L64.0013-52.6764L64.0013-51.1364ZM19.8733-35.2304L19.8733-22.9154L14.2283-22.9154L8.58431-22.9154L8.58431-35.2304L8.58431-47.5444L14.2283-47.5444L19.8733-47.5444L19.8733-35.2304ZM35.2663-41.9004L35.2663-36.2564L28.5963-36.2564L21.9253-36.2564L21.9253-41.9004L21.9253-47.5444L28.5963-47.5444L35.2663-47.5444L35.2663-41.9004ZM50.6603-41.9004L50.6603-36.2564L43.9893-36.2564L37.3193-36.2564L37.3193-41.9004L37.3193-47.5444L43.9893-47.5444L50.6603-47.5444L50.6603-41.9004ZM64.0013-35.2304L64.0013-22.9154L58.3563-22.9154L52.7123-22.9154L52.7123-35.2304L52.7123-47.5444L58.3563-47.5444L64.0013-47.5444L64.0013-35.2304ZM35.2663-28.5594L35.2663-22.9154L28.5963-22.9154L21.9253-22.9154L21.9253-28.5594L21.9253-34.2034L28.5963-34.2034L35.2663-34.2034L35.2663-28.5594ZM50.6603-28.5594L50.6603-22.9154L43.9893-22.9154L37.3193-22.9154L37.3193-28.5594L37.3193-34.2034L43.9893-34.2034L50.6603-34.2034L50.6603-28.5594ZM35.2663-19.3234L35.2663-17.7844L21.9253-17.7844L8.58431-17.7844L8.58431-19.3234L8.58431-20.8624L21.9253-20.8624L35.2663-20.8624L35.2663-19.3234ZM64.0013-19.3234L64.0013-17.7844L50.6603-17.7844L37.3193-17.7844L37.3193-19.3234L37.3193-20.8624L50.6603-20.8624L64.0013-20.8624L64.0013-19.3234Z"/>
  </g>
 </g>
</svg>
