<?xml version="1.0" encoding="UTF-8"?>
<!-- Generator: CustomSymbols v2.6.2.41 by @serious_bret https://bretlester.com/app_content/CustomSymbols/ -->
<!-- Guides: Left/Right -0.031/-0.031 Cap/Base 0.08/0.08 -->
<!-- Settings: RefScale 1.0 Min/Max Stroke Scales 0.5/2.21 -->
<!DOCTYPE svg
PUBLIC "-//W3C//DTD SVG 1.1//EN"
       "http://www.w3.org/Graphics/SVG/1.1/DTD/svg11.dtd">
<svg version="1.1" xmlns="http://www.w3.org/2000/svg" xmlns:xlink="http://www.w3.org/1999/xlink" width="3300" height="2200">
<![CDATA[<svg width="15" height="15" viewBox="0 0 15 15" fill="none" xmlns="http://www.w3.org/2000/svg">
<path d="M12.5 8.5V7.5C12.5 6.94772 12.0523 6.5 11.5 6.5H1.5C0.947715 6.5 0.5 6.94772 0.5 7.5V13.5C0.5 14.0523 0.947715 14.5 1.5 14.5H11.5C12.0523 14.5 12.5 14.0523 12.5 13.5V12.5M12.5 8.5H8.5C7.39543 8.5 6.5 9.39543 6.5 10.5C6.5 11.6046 7.39543 12.5 8.5 12.5H12.5M12.5 8.5C13.6046 8.5 14.5 9.39543 14.5 10.5C14.5 11.6046 13.6046 12.5 12.5 12.5M3.5 6.5V3.5C3.5 1.84315 4.84315 0.5 6.5 0.5C8.15685 0.5 9.5 1.84315 9.5 3.5V6.5M12 10.5H13M10 10.5H11M8 10.5H9" stroke="#1D1929"/>
</svg>
]]>
 <g id="Notes">
  <rect height="2200" id="artboard" style="fill:white;opacity:1" width="3300" x="0" y="0"/>
  <line id="" style="fill:none;stroke:black;opacity:1;stroke-width:0.5;" x1="263" x2="3036" y1="292" y2="292"/>
  <text id="reftext1" style="stroke:none;fill:black;font-family:-apple-system,&quot;SF Pro Display&quot;,&quot;SF Pro Text&quot;,Helvetica,sans-serif;font-weight:bold;" transform="matrix(1 0 0 1 263 322)">Weight/Scale Variations</text>
  <text id="reftext2" style="stroke:none;fill:black;font-family:-apple-system,&quot;SF Pro Display&quot;,&quot;SF Pro Text&quot;,Helvetica,sans-serif;text-anchor:middle;" transform="matrix(1 0 0 1 559.711 322)">Ultralight</text>
  <text style="stroke:none;fill:black;font-family:-apple-system,&quot;SF Pro Display&quot;,&quot;SF Pro Text&quot;,Helvetica,sans-serif;text-anchor:middle;" transform="matrix(1 0 0 1 856.422 322)">Thin</text>
  <text style="stroke:none;fill:black;font-family:-apple-system,&quot;SF Pro Display&quot;,&quot;SF Pro Text&quot;,Helvetica,sans-serif;text-anchor:middle;" transform="matrix(1 0 0 1 1153.13 322)">Light</text>
  <text style="stroke:none;fill:black;font-family:-apple-system,&quot;SF Pro Display&quot;,&quot;SF Pro Text&quot;,Helvetica,sans-serif;text-anchor:middle;" transform="matrix(1 0 0 1 1449.84 322)">Regular</text>
  <text style="stroke:none;fill:black;font-family:-apple-system,&quot;SF Pro Display&quot;,&quot;SF Pro Text&quot;,Helvetica,sans-serif;text-anchor:middle;" transform="matrix(1 0 0 1 1746.56 322)">Medium</text>
  <text style="stroke:none;fill:black;font-family:-apple-system,&quot;SF Pro Display&quot;,&quot;SF Pro Text&quot;,Helvetica,sans-serif;text-anchor:middle;" transform="matrix(1 0 0 1 2043.27 322)">Semibold</text>
  <text style="stroke:none;fill:black;font-family:-apple-system,&quot;SF Pro Display&quot;,&quot;SF Pro Text&quot;,Helvetica,sans-serif;text-anchor:middle;" transform="matrix(1 0 0 1 2339.98 322)">Bold</text>
  <text style="stroke:none;fill:black;font-family:-apple-system,&quot;SF Pro Display&quot;,&quot;SF Pro Text&quot;,Helvetica,sans-serif;text-anchor:middle;" transform="matrix(1 0 0 1 2636.69 322)">Heavy</text>
  <text style="stroke:none;fill:black;font-family:-apple-system,&quot;SF Pro Display&quot;,&quot;SF Pro Text&quot;,Helvetica,sans-serif;text-anchor:middle;" transform="matrix(1 0 0 1 2933.4 322)">Black</text>
  <line id="" style="fill:none;stroke:black;opacity:1;stroke-width:0.5;" x1="263" x2="3036" y1="1903" y2="1903"/>
  <g id="" transform="matrix(1 0 0 1 263 1933)">
   <path d="M9.24805 0.830078C13.5547 0.830078 17.1387-2.74414 17.1387-7.05078C17.1387-11.3574 13.5449-14.9316 9.23828-14.9316C4.94141-14.9316 1.36719-11.3574 1.36719-7.05078C1.36719-2.74414 4.95117 0.830078 9.24805 0.830078ZM9.24805-0.654297C5.70312-0.654297 2.87109-3.49609 2.87109-7.05078C2.87109-10.6055 5.69336-13.4473 9.23828-13.4473C12.793-13.4473 15.6348-10.6055 15.6445-7.05078C15.6543-3.49609 12.8027-0.654297 9.24805-0.654297ZM6.39648-6.31836L8.50586-6.31836L8.50586-4.19922C8.50586-3.75977 8.79883-3.45703 9.22852-3.45703C9.67773-3.45703 9.9707-3.75977 9.9707-4.19922L9.9707-6.31836L12.0996-6.31836C12.5391-6.31836 12.8418-6.61133 12.8418-7.04102C12.8418-7.48047 12.5391-7.7832 12.0996-7.7832L9.9707-7.7832L9.9707-9.89258C9.9707-10.3418 9.67773-10.6445 9.22852-10.6445C8.79883-10.6445 8.50586-10.3418 8.50586-9.89258L8.50586-7.7832L6.39648-7.7832C5.94727-7.7832 5.64453-7.48047 5.64453-7.04102C5.64453-6.61133 5.94727-6.31836 6.39648-6.31836Z"/>
  </g>
  <g id="" transform="matrix(1 0 0 1 281.506 1933)">
   <path d="M11.709 2.91016C17.1582 2.91016 21.6699-1.61133 21.6699-7.05078C21.6699-12.5 17.1484-17.0117 11.6992-17.0117C6.25977-17.0117 1.74805-12.5 1.74805-7.05078C1.74805-1.61133 6.26953 2.91016 11.709 2.91016ZM11.709 1.25C7.09961 1.25 3.41797-2.44141 3.41797-7.05078C3.41797-11.6602 7.08984-15.3516 11.6992-15.3516C16.3086-15.3516 20-11.6602 20.0098-7.05078C20.0195-2.44141 16.3184 1.25 11.709 1.25ZM7.98828-6.23047L10.8789-6.23047L10.8789-3.32031C10.8789-2.83203 11.2109-2.5 11.6895-2.5C12.1777-2.5 12.5195-2.83203 12.5195-3.32031L12.5195-6.23047L15.4297-6.23047C15.918-6.23047 16.25-6.5625 16.25-7.04102C16.25-7.5293 15.918-7.87109 15.4297-7.87109L12.5195-7.87109L12.5195-10.7617C12.5195-11.2695 12.1777-11.6016 11.6895-11.6016C11.2109-11.6016 10.8789-11.2598 10.8789-10.7617L10.8789-7.87109L7.98828-7.87109C7.48047-7.87109 7.14844-7.5293 7.14844-7.04102C7.14844-6.5625 7.49023-6.23047 7.98828-6.23047Z"/>
  </g>
  <g id="" transform="matrix(1 0 0 1 304.924 1933)">
   <path d="M14.9707 5.66406C21.9336 5.66406 27.6953-0.0976562 27.6953-7.05078C27.6953-14.0137 21.9238-19.7754 14.9609-19.7754C8.00781-19.7754 2.25586-14.0137 2.25586-7.05078C2.25586-0.0976562 8.01758 5.66406 14.9707 5.66406ZM14.9707 3.84766C8.93555 3.84766 4.08203-1.01562 4.08203-7.05078C4.08203-13.0957 8.92578-17.9492 14.9609-17.9492C21.0059-17.9492 25.8594-13.0957 25.8691-7.05078C25.8789-1.01562 21.0156 3.84766 14.9707 3.84766ZM10.0586-6.14258L14.0625-6.14258L14.0625-2.12891C14.0625-1.5918 14.4336-1.2207 14.9512-1.2207C15.4883-1.2207 15.8594-1.5918 15.8594-2.12891L15.8594-6.14258L19.8828-6.14258C20.4102-6.14258 20.791-6.51367 20.791-7.03125C20.791-7.56836 20.4199-7.94922 19.8828-7.94922L15.8594-7.94922L15.8594-11.9531C15.8594-12.5098 15.4883-12.8809 14.9512-12.8809C14.4336-12.8809 14.0625-12.5 14.0625-11.9531L14.0625-7.94922L10.0586-7.94922C9.50195-7.94922 9.13086-7.56836 9.13086-7.03125C9.13086-6.51367 9.51172-6.14258 10.0586-6.14258Z"/>
  </g>
  <text style="stroke:none;fill:black;font-family:-apple-system,&quot;SF Pro Display&quot;,&quot;SF Pro Text&quot;,Helvetica,sans-serif;font-weight:bold;" transform="matrix(1 0 0 1 263 1953)">Design Variations</text>
  <text style="stroke:none;fill:black;font-family:-apple-system,&quot;SF Pro Display&quot;,&quot;SF Pro Text&quot;,Helvetica,sans-serif;" transform="matrix(1 0 0 1 263 1971)">Symbols are supported in up to nine weights and three scales.</text>
  <text style="stroke:none;fill:black;font-family:-apple-system,&quot;SF Pro Display&quot;,&quot;SF Pro Text&quot;,Helvetica,sans-serif;" transform="matrix(1 0 0 1 263 1989)">For optimal layout with text and other symbols, vertically align</text>
  <text style="stroke:none;fill:black;font-family:-apple-system,&quot;SF Pro Display&quot;,&quot;SF Pro Text&quot;,Helvetica,sans-serif;" transform="matrix(1 0 0 1 263 2007)">symbols with the adjacent text.</text>
  <line id="" style="fill:none;stroke:#00AEEF;stroke-width:0.5;opacity:1.0;" x1="776" x2="776" y1="1919" y2="1933"/>
  <g id="" transform="matrix(1 0 0 1 776 1933)">
   <path d="M3.31055 0.126953C3.82812 0.126953 4.08203-0.0683594 4.26758-0.605469L5.52734-4.0625L11.2891-4.0625L12.5488-0.605469C12.7344-0.0683594 12.9883 0.126953 13.4961 0.126953C14.0137 0.126953 14.3457-0.185547 14.3457-0.673828C14.3457-0.839844 14.3164-0.986328 14.2383-1.20117L9.6582-13.3887C9.43359-13.9941 9.0332-14.2871 8.4082-14.2871C7.80273-14.2871 7.39258-13.9941 7.17773-13.3984L2.59766-1.19141C2.51953-0.976562 2.49023-0.830078 2.49023-0.664062C2.49023-0.175781 2.80273 0.126953 3.31055 0.126953ZM6.00586-5.53711L8.37891-12.1094L8.42773-12.1094L10.8008-5.53711Z"/>
  </g>
  <line id="" style="fill:none;stroke:#00AEEF;stroke-width:0.5;opacity:1.0;" x1="792.836" x2="792.836" y1="1919" y2="1933"/>
  <text style="stroke:none;fill:black;font-family:-apple-system,&quot;SF Pro Display&quot;,&quot;SF Pro Text&quot;,Helvetica,sans-serif;font-weight:bold;" transform="matrix(1 0 0 1 776 1953)">Margins</text>
  <text style="stroke:none;fill:black;font-family:-apple-system,&quot;SF Pro Display&quot;,&quot;SF Pro Text&quot;,Helvetica,sans-serif;" transform="matrix(1 0 0 1 776 1971)">Leading and trailing margins on the left and right side of each symbol</text>
  <text style="stroke:none;fill:black;font-family:-apple-system,&quot;SF Pro Display&quot;,&quot;SF Pro Text&quot;,Helvetica,sans-serif;" transform="matrix(1 0 0 1 776 1989)">can be adjusted by modifying the x-location of the margin guidelines.</text>
  <text style="stroke:none;fill:black;font-family:-apple-system,&quot;SF Pro Display&quot;,&quot;SF Pro Text&quot;,Helvetica,sans-serif;" transform="matrix(1 0 0 1 776 2007)">Modifications are automatically applied proportionally to all</text>
  <text style="stroke:none;fill:black;font-family:-apple-system,&quot;SF Pro Display&quot;,&quot;SF Pro Text&quot;,Helvetica,sans-serif;" transform="matrix(1 0 0 1 776 2025)">scales and weights.</text>
  <g id="" transform="matrix(1 0 0 1 1289 1933)">
   <path d="M2.8418 1.86523L4.54102 3.57422C5.40039 4.44336 6.38672 4.38477 7.31445 3.35938L17.4902-7.85156C17.7539-7.76367 18.0273-7.7832 18.3398-7.8418L19.4043-8.03711L20.0684-7.36328L20.0293-6.80664C19.9902-6.30859 20.1172-5.92773 20.6055-5.44922L21.3672-4.70703C21.8457-4.22852 22.4609-4.19922 22.9297-4.66797L25.8398-7.58789C26.3086-8.05664 26.2891-8.65234 25.8105-9.13086L25.0391-9.89258C24.5605-10.3711 24.1895-10.5273 23.7109-10.4883L23.1348-10.4395L22.4902-11.0742L22.7344-12.1973C22.8613-12.7637 22.7051-13.2031 22.1191-13.7891L19.9219-15.9766C16.582-19.2969 12.1484-19.2188 9.25781-16.3281C8.83789-15.918 8.80859-15.3418 9.04297-14.9512C9.27734-14.5898 9.73633-14.3555 10.3809-14.5215C11.8457-14.8633 13.3691-14.9219 14.7949-13.9844L14.209-12.5293C14.0137-12.0508 13.9844-11.6504 14.1113-11.2891L3.04688-0.898438C2.06055 0.0195312 1.98242 0.996094 2.8418 1.86523ZM10.752-15.957C13.1836-17.7344 16.4746-17.4316 18.7012-15.2051L21.1328-12.793C21.3672-12.5586 21.4062-12.373 21.3379-12.0312L21.0156-10.5469L22.5195-9.0625L23.5059-9.12109C23.7598-9.13086 23.8379-9.11133 24.0332-8.91602L24.6094-8.33984L22.168-5.89844L21.5918-6.47461C21.3965-6.66992 21.3672-6.74805 21.377-7.01172L21.4453-7.98828L19.9512-9.47266L18.4277-9.21875C18.1055-9.15039 17.959-9.17969 17.7148-9.41406L15.7129-11.416C15.459-11.6504 15.4297-11.8164 15.5859-12.1875L16.4648-14.2773C14.9023-15.7324 12.8711-16.3574 10.8398-15.7617C10.6836-15.7227 10.625-15.8496 10.752-15.957ZM5.27344 2.30469L4.10156 1.14258C3.63281 0.683594 3.74023 0.341797 4.14062-0.0195312L14.9512-10.1953L16.416-8.71094L6.42578 2.27539C6.07422 2.67578 5.74219 2.77344 5.27344 2.30469Z"/>
  </g>
  <text style="stroke:none;fill:black;font-family:-apple-system,&quot;SF Pro Display&quot;,&quot;SF Pro Text&quot;,Helvetica,sans-serif;font-weight:bold;" transform="matrix(1 0 0 1 1289 1953)">Exporting</text>
  <text style="stroke:none;fill:black;font-family:-apple-system,&quot;SF Pro Display&quot;,&quot;SF Pro Text&quot;,Helvetica,sans-serif;" transform="matrix(1 0 0 1 1289 1971)">Symbols should be outlined when exporting to ensure the</text>
  <text style="stroke:none;fill:black;font-family:-apple-system,&quot;SF Pro Display&quot;,&quot;SF Pro Text&quot;,Helvetica,sans-serif;" transform="matrix(1 0 0 1 1289 1989)">design is preserved when submitting to Xcode.</text>
  <text id="template-version" style="stroke:none;fill:black;font-family:-apple-system,&quot;SF Pro Display&quot;,&quot;SF Pro Text&quot;,Helvetica,sans-serif;text-anchor:end;" transform="matrix(1 0 0 1 3036 1933)">Template v.2.0</text>
  <text style="stroke:none;fill:black;font-family:-apple-system,&quot;SF Pro Display&quot;,&quot;SF Pro Text&quot;,Helvetica,sans-serif;text-anchor:end;" transform="matrix(1 0 0 1 3036 1951)">Requires Xcode 12 or greater</text>
  <text style="stroke:none;fill:black;font-family:-apple-system,&quot;SF Pro Display&quot;,&quot;SF Pro Text&quot;,Helvetica,sans-serif;" transform="matrix(1 0 0 1 263 726)">Small</text>
  <text style="stroke:none;fill:black;font-family:-apple-system,&quot;SF Pro Display&quot;,&quot;SF Pro Text&quot;,Helvetica,sans-serif;" transform="matrix(1 0 0 1 263 1156)">Medium</text>
  <text style="stroke:none;fill:black;font-family:-apple-system,&quot;SF Pro Display&quot;,&quot;SF Pro Text&quot;,Helvetica,sans-serif;" transform="matrix(1 0 0 1 263 1586)">Large</text>
 </g>
 <g id="Guides">
  <g id="H-reference" style="fill:#27AAE1;stroke:none;" transform="matrix(1 0 0 1 339 696)">
   <path d="M0.976562 0L3.66211 0L12.9883-24.4629L45.752-24.4629L55.127 0L57.7637 0L30.6152-70.459L28.125-70.459ZM29.3457-67.1387L29.4434-67.1387L44.873-26.709L13.8672-26.709Z"/>
  </g>
  <line id="Baseline-S" style="fill:none;stroke:#27AAE1;opacity:1;stroke-width:0.5;" x1="263" x2="3036" y1="696" y2="696"/>
  <line id="Capline-S" style="fill:none;stroke:#27AAE1;opacity:1;stroke-width:0.5;" x1="263" x2="3036" y1="625.541" y2="625.541"/>
  <g id="H-reference" style="fill:#27AAE1;stroke:none;" transform="matrix(1 0 0 1 339 1126)">
   <path d="M0.976562 0L3.66211 0L12.9883-24.4629L45.752-24.4629L55.127 0L57.7637 0L30.6152-70.459L28.125-70.459ZM29.3457-67.1387L29.4434-67.1387L44.873-26.709L13.8672-26.709Z"/>
  </g>
  <line id="Baseline-M" style="fill:none;stroke:#27AAE1;opacity:1;stroke-width:0.5;" x1="263" x2="3036" y1="1126" y2="1126"/>
  <line id="Capline-M" style="fill:none;stroke:#27AAE1;opacity:1;stroke-width:0.5;" x1="263" x2="3036" y1="1055.54" y2="1055.54"/>
  <g id="H-reference" style="fill:#27AAE1;stroke:none;" transform="matrix(1 0 0 1 339 1556)">
   <path d="M0.976562 0L3.66211 0L12.9883-24.4629L45.752-24.4629L55.127 0L57.7637 0L30.6152-70.459L28.125-70.459ZM29.3457-67.1387L29.4434-67.1387L44.873-26.709L13.8672-26.709Z"/>
  </g>
  <line id="Baseline-L" style="fill:none;stroke:#27AAE1;opacity:1;stroke-width:0.5;" x1="263" x2="3036" y1="1556" y2="1556"/>
  <line id="Capline-L" style="fill:none;stroke:#27AAE1;opacity:1;stroke-width:0.5;" x1="263" x2="3036" y1="1485.54" y2="1485.54"/>
  <line id="left-margin" x1="1406.5892389787946" x2="1406.5892389787946" y1="1030.79" y2="1150.12" style="fill:none;stroke:#00AEEF;stroke-width:0.5;opacity:1.0;"/>
  <line id="right-margin" x1="1495.6707610212052" x2="1495.6707610212052" y1="1030.79" y2="1150.12" style="fill:none;stroke:#00AEEF;stroke-width:0.5;opacity:1.0;"/>
 </g>
 <g id="Symbols">
  <g id="Black-L" transform="matrix(1.0,0.0,0.0,1.0,2880.576815708705,1466.6668352399554)">  <path fill-rule="nonzero" stroke-miterlimit="4" fill-opacity="1" stroke-opacity="1" fill="#000000" stroke-linejoin="miter" stroke-width="1px" stroke="none" stroke-linecap="butt" stroke-dasharray="none" d="M98.143,61.317L98.143,54.103C98.143,45.717,91.345,38.918,82.958,38.918L10.821,38.918C2.434,38.918,-4.364,45.717,-4.364,54.103L-4.364,97.386C-4.364,105.772,2.434,112.571,10.821,112.571L82.958,112.571C91.345,112.571,98.143,105.772,98.143,97.386L98.143,90.172L82.201,90.172L82.201,97.386C82.201,96.968,82.54,96.628,82.958,96.628L10.821,96.628C11.239,96.628,11.578,96.967,11.578,97.386L11.578,54.103C11.578,54.522,11.239,54.861,10.821,54.861L82.958,54.861C82.54,54.861,82.201,54.521,82.201,54.103L82.201,61.317L98.143,61.317ZM90.172,53.346L61.317,53.346C48.946,53.346,38.918,63.374,38.918,75.744C38.918,88.115,48.946,98.143,61.317,98.143L90.172,98.143L90.172,82.201L61.317,82.201C57.751,82.201,54.861,79.31,54.861,75.744C54.861,72.179,57.751,69.288,61.317,69.288L90.172,69.288L90.172,53.346ZM90.172,69.288C93.738,69.288,96.628,72.179,96.628,75.744C96.628,79.31,93.738,82.201,90.172,82.201L90.172,98.143C102.543,98.143,112.571,88.115,112.571,75.744C112.571,63.374,102.543,53.346,90.172,53.346L90.172,69.288ZM33.219,46.889L33.219,25.248C33.219,17.698,39.34,11.578,46.889,11.578C54.439,11.578,60.559,17.698,60.559,25.248L60.559,46.889L76.502,46.889L76.502,25.248C76.502,8.894,63.244,-4.364,46.889,-4.364C30.535,-4.364,17.277,8.894,17.277,25.248L17.277,46.889L33.219,46.889ZM86.565,83.716L93.779,83.716L93.779,67.773L86.565,67.773L86.565,83.716ZM72.138,83.716L79.351,83.716L79.351,67.773L72.138,67.773L72.138,83.716ZM57.71,83.716L64.924,83.716L64.924,67.773L57.71,67.773L57.71,83.716Z"/>
</g>
  <g id="Heavy-L" transform="matrix(1.0,0.0,0.0,1.0,2583.866815708705,1466.6668352399554)">  <path stroke-linecap="butt" stroke="none" stroke-dasharray="none" stroke-miterlimit="4" fill-rule="nonzero" stroke-linejoin="miter" fill="#000000" stroke-opacity="1" fill-opacity="1" stroke-width="1px" d="M97.27,61.317L97.27,54.103C97.27,46.199,90.863,39.791,82.958,39.791L10.821,39.791C2.916,39.791,-3.491,46.199,-3.491,54.103L-3.491,97.386C-3.491,105.29,2.916,111.698,10.821,111.698L82.958,111.698C90.863,111.698,97.27,105.29,97.27,97.386L97.27,90.172L83.074,90.172L83.074,97.386C83.074,97.45,83.022,97.501,82.958,97.501L10.821,97.501C10.757,97.501,10.705,97.45,10.705,97.386L10.705,54.103C10.705,54.039,10.757,53.988,10.821,53.988L82.958,53.988C83.022,53.988,83.074,54.039,83.074,54.103L83.074,61.317L97.27,61.317ZM90.172,54.219L61.317,54.219C49.429,54.219,39.791,63.856,39.791,75.744C39.791,87.633,49.428,97.27,61.317,97.27L90.172,97.27L90.172,83.074L61.317,83.074C57.269,83.074,53.988,79.792,53.988,75.744C53.988,71.697,57.269,68.415,61.317,68.415L90.172,68.415L90.172,54.219ZM90.172,68.415C94.22,68.415,97.501,71.697,97.501,75.744C97.501,79.792,94.22,83.074,90.172,83.074L90.172,97.27C102.061,97.27,111.698,87.633,111.698,75.744C111.698,63.856,102.061,54.219,90.172,54.219L90.172,68.415ZM32.346,46.889L32.346,25.248C32.346,17.216,38.858,10.705,46.889,10.705C54.921,10.705,61.432,17.216,61.432,25.248L61.432,46.889L75.629,46.889L75.629,25.248C75.629,9.376,62.762,-3.491,46.889,-3.491C31.017,-3.491,18.15,9.376,18.15,25.248L18.15,46.889L32.346,46.889ZM86.565,82.843L93.779,82.843L93.779,68.646L86.565,68.646L86.565,82.843ZM72.138,82.843L79.351,82.843L79.351,68.646L72.138,68.646L72.138,82.843ZM57.71,82.843L64.924,82.843L64.924,68.646L57.71,68.646L57.71,82.843Z"/>
</g>
  <g id="Bold-L" transform="matrix(1.0,0.0,0.0,1.0,2287.156815708705,1466.6668352399554)">  <path fill="#000000" stroke-opacity="1" fill-rule="nonzero" fill-opacity="1" stroke-linejoin="miter" stroke="none" stroke-miterlimit="4" stroke-linecap="butt" stroke-dasharray="none" stroke-width="1px" d="M96.397,61.317L96.397,54.103C96.397,46.681,90.381,40.664,82.958,40.664L10.821,40.664C3.398,40.664,-2.619,46.681,-2.619,54.103L-2.619,97.386C-2.619,104.808,3.398,110.825,10.821,110.825L82.958,110.825C90.381,110.825,96.397,104.808,96.397,97.386L96.397,90.172L83.947,90.172L83.947,97.386C83.947,97.932,83.504,98.374,82.958,98.374L10.821,98.374C10.275,98.374,9.832,97.932,9.832,97.386L9.832,54.103C9.832,53.557,10.275,53.115,10.821,53.115L82.958,53.115C83.504,53.115,83.947,53.557,83.947,54.103L83.947,61.317L96.397,61.317ZM90.172,55.091L61.317,55.091C49.911,55.091,40.664,64.338,40.664,75.744C40.664,87.151,49.911,96.397,61.317,96.397L90.172,96.397L90.172,83.947L61.317,83.947C56.787,83.947,53.115,80.274,53.115,75.744C53.115,71.215,56.787,67.542,61.317,67.542L90.172,67.542L90.172,55.091ZM90.172,67.542C94.702,67.542,98.374,71.215,98.374,75.744C98.374,80.275,94.702,83.947,90.172,83.947L90.172,96.397C101.579,96.397,110.825,87.151,110.825,75.744C110.825,64.338,101.578,55.091,90.172,55.091L90.172,67.542ZM31.474,46.889L31.474,25.248C31.474,16.734,38.376,9.832,46.889,9.832C55.403,9.832,62.305,16.734,62.305,25.248L62.305,46.889L74.756,46.889L74.756,25.248C74.756,9.858,62.28,-2.619,46.889,-2.619C31.499,-2.619,19.023,9.858,19.023,25.248L19.023,46.889L31.474,46.889ZM86.565,81.97L93.779,81.97L93.779,69.519L86.565,69.519L86.565,81.97ZM72.138,81.97L79.351,81.97L79.351,69.519L72.138,69.519L72.138,81.97ZM57.71,81.97L64.924,81.97L64.924,69.519L57.71,69.519L57.71,81.97Z"/>
</g>
  <g id="Semibold-L" transform="matrix(1.0,0.0,0.0,1.0,1990.4468157087053,1466.6668352399554)">  <path stroke-dasharray="none" stroke="none" fill-opacity="1" stroke-opacity="1" fill="#000000" fill-rule="nonzero" stroke-width="1px" stroke-miterlimit="4" stroke-linecap="butt" stroke-linejoin="miter" d="M95.525,61.317L95.525,54.103C95.525,47.163,89.899,41.537,82.958,41.537L10.821,41.537C3.88,41.537,-1.746,47.163,-1.746,54.103L-1.746,97.386C-1.746,104.326,3.88,109.952,10.821,109.952L82.958,109.952C89.899,109.952,95.525,104.326,95.525,97.386L95.525,90.172L84.819,90.172L84.819,97.386C84.819,98.414,83.986,99.247,82.958,99.247L10.821,99.247C9.793,99.247,8.959,98.414,8.959,97.386L8.959,54.103C8.959,53.075,9.793,52.242,10.821,52.242L82.958,52.242C83.986,52.242,84.819,53.075,84.819,54.103L84.819,61.317L95.525,61.317ZM90.172,55.964L61.317,55.964C50.393,55.964,41.537,64.82,41.537,75.744C41.537,86.669,50.393,95.525,61.317,95.525L90.172,95.525L90.172,84.819L61.317,84.819C56.305,84.819,52.242,80.757,52.242,75.744C52.242,70.733,56.305,66.67,61.317,66.67L90.172,66.67L90.172,55.964ZM90.172,66.67C95.184,66.67,99.247,70.732,99.247,75.744C99.247,80.757,95.184,84.819,90.172,84.819L90.172,95.525C101.096,95.525,109.952,86.669,109.952,75.744C109.952,64.82,101.096,55.964,90.172,55.964L90.172,66.67ZM30.601,46.889L30.601,25.248C30.601,16.252,37.893,8.959,46.889,8.959C55.885,8.959,63.178,16.252,63.178,25.248L63.178,46.889L73.883,46.889L73.883,25.248C73.883,10.34,61.798,-1.746,46.889,-1.746C31.981,-1.746,19.896,10.34,19.896,25.248L19.896,46.889L30.601,46.889ZM86.565,81.097L93.779,81.097L93.779,70.392L86.565,70.392L86.565,81.097ZM72.138,81.097L79.351,81.097L79.351,70.392L72.138,70.392L72.138,81.097ZM57.71,81.097L64.924,81.097L64.924,70.392L57.71,70.392L57.71,81.097Z"/>
</g>
  <g id="Medium-L" transform="matrix(1.0,0.0,0.0,1.0,1693.7368157087053,1466.6668352399554)">  <path stroke-opacity="1" fill-opacity="1" stroke="none" fill="#000000" stroke-dasharray="none" fill-rule="nonzero" stroke-linejoin="miter" stroke-linecap="butt" stroke-width="1px" stroke-miterlimit="4" d="M94.652,61.317L94.652,54.103C94.652,47.645,89.416,42.41,82.958,42.41L10.821,42.41C4.363,42.41,-0.873,47.645,-0.873,54.103L-0.873,97.386C-0.873,103.844,4.362,109.079,10.821,109.079L82.958,109.079C89.416,109.079,94.652,103.844,94.652,97.386L94.652,90.172L85.692,90.172L85.692,97.386C85.692,98.896,84.468,100.12,82.958,100.12L10.821,100.12C9.311,100.12,8.087,98.896,8.087,97.386L8.087,54.103C8.087,52.593,9.311,51.369,10.821,51.369L82.958,51.369C84.468,51.369,85.692,52.593,85.692,54.103L85.692,61.317L94.652,61.317ZM90.172,56.837L61.317,56.837C50.875,56.837,42.41,65.302,42.41,75.744C42.41,86.187,50.875,94.652,61.317,94.652L90.172,94.652L90.172,85.692L61.317,85.692C55.823,85.692,51.369,81.239,51.369,75.744C51.369,70.25,55.823,65.797,61.317,65.797L90.172,65.797L90.172,56.837ZM90.172,65.797C95.666,65.797,100.12,70.25,100.12,75.744C100.12,81.239,95.666,85.692,90.172,85.692L90.172,94.652C100.614,94.652,109.079,86.187,109.079,75.744C109.079,65.302,100.614,56.837,90.172,56.837L90.172,65.797ZM29.728,46.889L29.728,25.248C29.728,15.77,37.411,8.087,46.889,8.087C56.367,8.087,64.051,15.77,64.051,25.248L64.051,46.889L73.01,46.889L73.01,25.248C73.01,10.822,61.316,-0.873,46.889,-0.873C32.463,-0.873,20.768,10.822,20.768,25.248L20.768,46.889L29.728,46.889ZM86.565,80.224L93.779,80.224L93.779,71.265L86.565,71.265L86.565,80.224ZM72.138,80.224L79.351,80.224L79.351,71.265L72.138,71.265L72.138,80.224ZM57.71,80.224L64.924,80.224L64.924,71.265L57.71,71.265L57.71,80.224Z"/>
</g>
  <g id="Regular-L" transform="matrix(1.0,0.0,0.0,1.0,1397.0268157087053,1466.6668352399554)">  <path stroke-width="1px" stroke-miterlimit="4" fill="#000000" stroke-linejoin="miter" stroke="none" fill-rule="nonzero" stroke-opacity="1" stroke-dasharray="none" fill-opacity="1" stroke-linecap="butt" d="M93.779,61.317L93.779,54.103C93.779,48.127,88.934,43.283,82.958,43.283L10.821,43.283C4.845,43.283,0,48.127,0,54.103L0,97.386C0,103.362,4.845,108.206,10.821,108.206L82.958,108.206C88.934,108.206,93.779,103.362,93.779,97.386L93.779,90.172L86.565,90.172L86.565,97.386C86.565,99.378,84.95,100.993,82.958,100.993L10.821,100.993C8.829,100.993,7.214,99.378,7.214,97.386L7.214,54.103C7.214,52.111,8.829,50.496,10.821,50.496L82.958,50.496C84.95,50.496,86.565,52.111,86.565,54.103L86.565,61.317L93.779,61.317ZM90.172,57.71L61.317,57.71C51.357,57.71,43.283,65.784,43.283,75.744C43.283,85.705,51.357,93.779,61.317,93.779L90.172,93.779L90.172,86.565L61.317,86.565C55.341,86.565,50.496,81.721,50.496,75.744C50.496,69.768,55.341,64.924,61.317,64.924L90.172,64.924L90.172,57.71ZM90.172,64.924C96.148,64.924,100.993,69.768,100.993,75.744C100.993,81.721,96.148,86.565,90.172,86.565L90.172,93.779C100.132,93.779,108.206,85.705,108.206,75.744C108.206,65.784,100.132,57.71,90.172,57.71L90.172,64.924ZM28.855,46.889L28.855,25.248C28.855,15.288,36.929,7.214,46.889,7.214C56.85,7.214,64.924,15.288,64.924,25.248L64.924,46.889L72.138,46.889L72.138,25.248C72.138,11.304,60.834,0,46.889,0C32.945,0,21.641,11.304,21.641,25.248L21.641,46.889L28.855,46.889ZM86.565,79.351L93.779,79.351L93.779,72.138L86.565,72.138L86.565,79.351ZM72.138,79.351L79.351,79.351L79.351,72.138L72.138,72.138L72.138,79.351ZM57.71,79.351L64.924,79.351L64.924,72.138L57.71,72.138L57.71,79.351Z"/>
</g>
  <g id="Light-L" transform="matrix(1.0,0.0,0.0,1.0,1100.3168157087055,1466.6668352399554)">  <path stroke="none" fill-opacity="1" stroke-miterlimit="4" stroke-opacity="1" fill-rule="nonzero" fill="#000000" stroke-dasharray="none" stroke-linejoin="miter" stroke-linecap="butt" stroke-width="1px" d="M93.178,61.317L93.178,54.103C93.178,48.459,88.602,43.884,82.958,43.884L10.821,43.884C5.177,43.884,0.601,48.459,0.601,54.103L0.601,97.386C0.601,103.03,5.177,107.605,10.821,107.605L82.958,107.605C88.602,107.605,93.178,103.03,93.178,97.386L93.178,90.172L87.166,90.172L87.166,97.386C87.166,99.71,85.282,101.594,82.958,101.594L10.821,101.594C8.497,101.594,6.613,99.71,6.613,97.386L6.613,54.103C6.613,51.779,8.497,49.895,10.821,49.895L82.958,49.895C85.282,49.895,87.166,51.779,87.166,54.103L87.166,61.317L93.178,61.317ZM90.172,58.311L61.317,58.311C51.689,58.311,43.884,66.116,43.884,75.744C43.884,85.373,51.689,93.178,61.317,93.178L90.172,93.178L90.172,87.166L61.317,87.166C55.009,87.166,49.895,82.053,49.895,75.744C49.895,69.436,55.009,64.323,61.317,64.323L90.172,64.323L90.172,58.311ZM90.172,64.323C96.48,64.323,101.594,69.436,101.594,75.744C101.594,82.053,96.48,87.166,90.172,87.166L90.172,93.178C99.8,93.178,107.605,85.373,107.605,75.744C107.605,66.116,99.8,58.311,90.172,58.311L90.172,64.323ZM28.254,46.889L28.254,25.248C28.254,14.956,36.597,6.613,46.889,6.613C57.182,6.613,65.525,14.956,65.525,25.248L65.525,46.889L71.536,46.889L71.536,25.248C71.536,11.636,60.502,0.601,46.889,0.601C33.277,0.601,22.242,11.636,22.242,25.248L22.242,46.889L28.254,46.889ZM86.565,78.75L93.779,78.75L93.779,72.739L86.565,72.739L86.565,78.75ZM72.138,78.75L79.351,78.75L79.351,72.739L72.138,72.739L72.138,78.75ZM57.71,78.75L64.924,78.75L64.924,72.739L57.71,72.739L57.71,78.75Z"/>
</g>
  <g id="Thin-L" transform="matrix(1.0,0.0,0.0,1.0,803.6068157087054,1466.6668352399554)">  <path stroke-linejoin="miter" fill-opacity="1" stroke-linecap="butt" stroke="none" stroke-dasharray="none" stroke-opacity="1" fill-rule="nonzero" stroke-width="1px" fill="#000000" stroke-miterlimit="4" d="M92.577,61.317L92.577,54.103C92.577,48.791,88.27,44.485,82.958,44.485L10.821,44.485C5.509,44.485,1.202,48.791,1.202,54.103L1.202,97.386C1.202,102.698,5.509,107.004,10.821,107.004L82.958,107.004C88.27,107.004,92.577,102.698,92.577,97.386L92.577,90.172L87.767,90.172L87.767,97.386C87.767,100.042,85.614,102.195,82.958,102.195L10.821,102.195C8.165,102.195,6.011,100.042,6.011,97.386L6.011,54.103C6.011,51.447,8.165,49.294,10.821,49.294L82.958,49.294C85.614,49.294,87.767,51.447,87.767,54.103L87.767,61.317L92.577,61.317ZM90.172,58.912L61.317,58.912C52.021,58.912,44.485,66.448,44.485,75.744C44.485,85.041,52.021,92.577,61.317,92.577L90.172,92.577L90.172,87.767L61.317,87.767C54.677,87.767,49.294,82.385,49.294,75.744C49.294,69.104,54.677,63.722,61.317,63.722L90.172,63.722L90.172,58.912ZM90.172,63.722C96.812,63.722,102.195,69.104,102.195,75.744C102.195,82.385,96.812,87.767,90.172,87.767L90.172,92.577C99.468,92.577,107.004,85.041,107.004,75.744C107.004,66.448,99.468,58.912,90.172,58.912L90.172,63.722ZM27.653,46.889L27.653,25.248C27.653,14.624,36.265,6.011,46.889,6.011C57.514,6.011,66.126,14.624,66.126,25.248L66.126,46.889L70.935,46.889L70.935,25.248C70.935,11.968,60.17,1.202,46.889,1.202C33.609,1.202,22.844,11.968,22.844,25.248L22.844,46.889L27.653,46.889ZM86.565,78.149L93.779,78.149L93.779,73.34L86.565,73.34L86.565,78.149ZM72.138,78.149L79.351,78.149L79.351,73.34L72.138,73.34L72.138,78.149ZM57.71,78.149L64.924,78.149L64.924,73.34L57.71,73.34L57.71,78.149Z"/>
</g>
  <g id="Ultralight-L" transform="matrix(1.0,0.0,0.0,1.0,506.89681570870533,1466.6668352399554)">  <path stroke-width="1px" fill-opacity="1" fill-rule="nonzero" fill="#000000" stroke-miterlimit="4" stroke-dasharray="none" stroke="none" stroke-linecap="butt" stroke-opacity="1" stroke-linejoin="miter" d="M91.975,61.317L91.975,54.103C91.975,49.123,87.938,45.086,82.958,45.086L10.821,45.086C5.841,45.086,1.803,49.123,1.803,54.103L1.803,97.386C1.803,102.366,5.841,106.403,10.821,106.403L82.958,106.403C87.938,106.403,91.975,102.366,91.975,97.386L91.975,90.172L88.369,90.172L88.369,97.386C88.369,100.374,85.946,102.796,82.958,102.796L10.821,102.796C7.833,102.796,5.41,100.374,5.41,97.386L5.41,54.103C5.41,51.115,7.833,48.693,10.821,48.693L82.958,48.693C85.946,48.693,88.369,51.115,88.369,54.103L88.369,61.317L91.975,61.317ZM90.172,59.514L61.317,59.514C52.353,59.514,45.086,66.78,45.086,75.744C45.086,84.709,52.353,91.975,61.317,91.975L90.172,91.975L90.172,88.369L61.317,88.369C54.345,88.369,48.693,82.717,48.693,75.744C48.693,68.772,54.345,63.12,61.317,63.12L90.172,63.12L90.172,59.514ZM90.172,63.12C97.144,63.12,102.796,68.772,102.796,75.744C102.796,82.717,97.144,88.369,90.172,88.369L90.172,91.975C99.136,91.975,106.403,84.709,106.403,75.744C106.403,66.78,99.136,59.514,90.172,59.514L90.172,63.12ZM27.052,46.889L27.052,25.248C27.052,14.292,35.933,5.41,46.889,5.41C57.846,5.41,66.727,14.292,66.727,25.248L66.727,46.889L70.334,46.889L70.334,25.248C70.334,12.3,59.838,1.803,46.889,1.803C33.941,1.803,23.445,12.3,23.445,25.248L23.445,46.889L27.052,46.889ZM86.565,77.548L93.779,77.548L93.779,73.941L86.565,73.941L86.565,77.548ZM72.138,77.548L79.351,77.548L79.351,73.941L72.138,73.941L72.138,77.548ZM57.71,77.548L64.924,77.548L64.924,73.941L57.71,73.941L57.71,77.548Z"/>
</g>
  <g id="Black-M" transform="matrix(1.0,0.0,0.0,1.0,2892.7395470610118,1048.829566592262)">  <path fill-rule="nonzero" stroke-miterlimit="4" fill-opacity="1" stroke-opacity="1" fill="#000000" stroke-linejoin="miter" stroke-width="1px" stroke="none" stroke-linecap="butt" stroke-dasharray="none" d="M76.08,47.533L76.08,41.94C76.08,35.439,70.81,30.169,64.309,30.169L8.388,30.169C1.887,30.169,-3.383,35.439,-3.383,41.94L-3.383,75.493C-3.383,81.994,1.887,87.264,8.388,87.264L64.309,87.264C70.81,87.264,76.08,81.994,76.08,75.493L76.08,69.901L63.722,69.901L63.722,75.493C63.722,75.169,63.984,74.906,64.309,74.906L8.388,74.906C8.712,74.906,8.975,75.169,8.975,75.493L8.975,41.94C8.975,42.265,8.712,42.528,8.388,42.528L64.309,42.528C63.984,42.528,63.722,42.265,63.722,41.94L63.722,47.533L76.08,47.533ZM69.901,41.353L47.533,41.353C37.943,41.353,30.169,49.127,30.169,58.717C30.169,68.306,37.943,76.08,47.533,76.08L69.901,76.08L69.901,63.722L47.533,63.722C44.768,63.722,42.528,61.481,42.528,58.717C42.528,55.953,44.768,53.712,47.533,53.712L69.901,53.712L69.901,41.353ZM69.901,53.712C72.665,53.712,74.906,55.952,74.906,58.717C74.906,61.481,72.665,63.722,69.901,63.722L69.901,76.08C79.49,76.08,87.264,68.306,87.264,58.717C87.264,49.127,79.49,41.353,69.901,41.353L69.901,53.712ZM25.751,36.348L25.751,19.572C25.751,13.72,30.496,8.975,36.348,8.975C42.201,8.975,46.945,13.72,46.945,19.572L46.945,36.348L59.304,36.348L59.304,19.572C59.304,6.894,49.026,-3.383,36.348,-3.383C23.67,-3.383,13.393,6.894,13.393,19.572L13.393,36.348L25.751,36.348ZM67.105,64.896L72.697,64.896L72.697,52.537L67.105,52.537L67.105,64.896ZM55.921,64.896L61.513,64.896L61.513,52.537L55.921,52.537L55.921,64.896ZM44.736,64.896L50.329,64.896L50.329,52.537L44.736,52.537L44.736,64.896Z"/>
</g>
  <g id="Heavy-M" transform="matrix(1.0,0.0,0.0,1.0,2596.0295470610117,1048.829566592262)">  <path stroke-linecap="butt" stroke="none" stroke-dasharray="none" stroke-miterlimit="4" fill-rule="nonzero" stroke-linejoin="miter" fill="#000000" stroke-opacity="1" fill-opacity="1" stroke-width="1px" d="M75.403,47.533L75.403,41.94C75.403,35.813,70.436,30.846,64.309,30.846L8.388,30.846C2.261,30.846,-2.707,35.813,-2.707,41.94L-2.707,75.493C-2.707,81.62,2.261,86.587,8.388,86.587L64.309,86.587C70.436,86.587,75.403,81.62,75.403,75.493L75.403,69.901L64.398,69.901L64.398,75.493C64.398,75.542,64.358,75.582,64.309,75.582L8.388,75.582C8.339,75.582,8.299,75.542,8.299,75.493L8.299,41.94C8.299,41.891,8.339,41.851,8.388,41.851L64.309,41.851C64.358,41.851,64.398,41.891,64.398,41.94L64.398,47.533L75.403,47.533ZM69.901,42.03L47.533,42.03C38.317,42.03,30.846,49.501,30.846,58.717C30.846,67.933,38.317,75.403,47.533,75.403L69.901,75.403L69.901,64.398L47.533,64.398C44.395,64.398,41.851,61.855,41.851,58.717C41.851,55.579,44.395,53.035,47.533,53.035L69.901,53.035L69.901,42.03ZM69.901,53.035C73.039,53.035,75.582,55.579,75.582,58.717C75.582,61.855,73.039,64.398,69.901,64.398L69.901,75.403C79.117,75.403,86.587,67.933,86.587,58.717C86.587,49.501,79.117,42.03,69.901,42.03L69.901,53.035ZM25.075,36.348L25.075,19.572C25.075,13.346,30.122,8.299,36.348,8.299C42.575,8.299,47.622,13.346,47.622,19.572L47.622,36.348L58.627,36.348L58.627,19.572C58.627,7.268,48.653,-2.707,36.348,-2.707C24.044,-2.707,14.07,7.268,14.07,19.572L14.07,36.348L25.075,36.348ZM67.105,64.219L72.697,64.219L72.697,53.214L67.105,53.214L67.105,64.219ZM55.921,64.219L61.513,64.219L61.513,53.214L55.921,53.214L55.921,64.219ZM44.736,64.219L50.329,64.219L50.329,53.214L44.736,53.214L44.736,64.219Z"/>
</g>
  <g id="Bold-M" transform="matrix(1.0,0.0,0.0,1.0,2299.3195470610117,1048.829566592262)">  <path fill="#000000" stroke-opacity="1" fill-rule="nonzero" fill-opacity="1" stroke-linejoin="miter" stroke="none" stroke-miterlimit="4" stroke-linecap="butt" stroke-dasharray="none" stroke-width="1px" d="M74.727,47.533L74.727,41.94C74.727,36.187,70.062,31.522,64.309,31.522L8.388,31.522C2.634,31.522,-2.03,36.187,-2.03,41.94L-2.03,75.493C-2.03,81.247,2.634,85.911,8.388,85.911L64.309,85.911C70.062,85.911,74.727,81.247,74.727,75.493L74.727,69.901L65.075,69.901L65.075,75.493C65.075,75.916,64.732,76.259,64.309,76.259L8.388,76.259C7.965,76.259,7.622,75.916,7.622,75.493L7.622,41.94C7.622,41.517,7.965,41.174,8.388,41.174L64.309,41.174C64.732,41.174,65.075,41.517,65.075,41.94L65.075,47.533L74.727,47.533ZM69.901,42.707L47.533,42.707C38.69,42.707,31.522,49.875,31.522,58.717C31.522,67.559,38.69,74.727,47.533,74.727L69.901,74.727L69.901,65.075L47.533,65.075C44.021,65.075,41.174,62.228,41.174,58.717C41.174,55.205,44.021,52.358,47.533,52.358L69.901,52.358L69.901,42.707ZM69.901,52.358C73.412,52.358,76.259,55.205,76.259,58.717C76.259,62.228,73.412,65.075,69.901,65.075L69.901,74.727C78.743,74.727,85.911,67.559,85.911,58.717C85.911,49.874,78.743,42.707,69.901,42.707L69.901,52.358ZM24.398,36.348L24.398,19.572C24.398,12.972,29.748,7.622,36.348,7.622C42.948,7.622,48.299,12.972,48.299,19.572L48.299,36.348L57.951,36.348L57.951,19.572C57.951,7.642,48.279,-2.03,36.348,-2.03C24.418,-2.03,14.746,7.642,14.746,19.572L14.746,36.348L24.398,36.348ZM67.105,63.543L72.697,63.543L72.697,53.891L67.105,53.891L67.105,63.543ZM55.921,63.543L61.513,63.543L61.513,53.891L55.921,53.891L55.921,63.543ZM44.736,63.543L50.329,63.543L50.329,53.891L44.736,53.891L44.736,63.543Z"/>
</g>
  <g id="Semibold-M" transform="matrix(1.0,0.0,0.0,1.0,2002.6095470610119,1048.829566592262)">  <path stroke-dasharray="none" stroke="none" fill-opacity="1" stroke-opacity="1" fill="#000000" fill-rule="nonzero" stroke-width="1px" stroke-miterlimit="4" stroke-linecap="butt" stroke-linejoin="miter" d="M74.05,47.533L74.05,41.94C74.05,36.56,69.689,32.199,64.309,32.199L8.388,32.199C3.008,32.199,-1.353,36.56,-1.353,41.94L-1.353,75.493C-1.353,80.873,3.008,85.234,8.388,85.234L64.309,85.234C69.689,85.234,74.05,80.873,74.05,75.493L74.05,69.901L65.751,69.901L65.751,75.493C65.751,76.29,65.106,76.936,64.309,76.936L8.388,76.936C7.591,76.936,6.945,76.29,6.945,75.493L6.945,41.94C6.945,41.144,7.591,40.498,8.388,40.498L64.309,40.498C65.106,40.498,65.751,41.144,65.751,41.94L65.751,47.533L74.05,47.533ZM69.901,43.383L47.533,43.383C39.064,43.383,32.199,50.248,32.199,58.717C32.199,67.185,39.064,74.05,47.533,74.05L69.901,74.05L69.901,65.751L47.533,65.751C43.647,65.751,40.498,62.602,40.498,58.717C40.498,54.831,43.647,51.682,47.533,51.682L69.901,51.682L69.901,43.383ZM69.901,51.682C73.786,51.682,76.936,54.831,76.936,58.717C76.936,62.602,73.786,65.751,69.901,65.751L69.901,74.05C78.369,74.05,85.234,67.185,85.234,58.717C85.234,50.248,78.369,43.383,69.901,43.383L69.901,51.682ZM23.722,36.348L23.722,19.572C23.722,12.599,29.375,6.945,36.348,6.945C43.322,6.945,48.975,12.599,48.975,19.572L48.975,36.348L57.274,36.348L57.274,19.572C57.274,8.015,47.905,-1.353,36.348,-1.353C24.792,-1.353,15.423,8.015,15.423,19.572L15.423,36.348L23.722,36.348ZM67.105,62.866L72.697,62.866L72.697,54.567L67.105,54.567L67.105,62.866ZM55.921,62.866L61.513,62.866L61.513,54.567L55.921,54.567L55.921,62.866ZM44.736,62.866L50.329,62.866L50.329,54.567L44.736,54.567L44.736,62.866Z"/>
</g>
  <g id="Medium-M" transform="matrix(1.0,0.0,0.0,1.0,1705.8995470610118,1048.829566592262)">  <path stroke-opacity="1" fill-opacity="1" stroke="none" fill="#000000" stroke-dasharray="none" fill-rule="nonzero" stroke-linejoin="miter" stroke-linecap="butt" stroke-width="1px" stroke-miterlimit="4" d="M73.373,47.533L73.373,41.94C73.373,36.934,69.315,32.876,64.309,32.876L8.388,32.876C3.382,32.876,-0.677,36.934,-0.677,41.94L-0.677,75.493C-0.677,80.499,3.382,84.558,8.388,84.558L64.309,84.558C69.315,84.558,73.373,80.499,73.373,75.493L73.373,69.901L66.428,69.901L66.428,75.493C66.428,76.663,65.479,77.612,64.309,77.612L8.388,77.612C7.218,77.612,6.269,76.663,6.269,75.493L6.269,41.94C6.269,40.77,7.218,39.821,8.388,39.821L64.309,39.821C65.479,39.821,66.428,40.77,66.428,41.94L66.428,47.533L73.373,47.533ZM69.901,44.06L47.533,44.06C39.438,44.06,32.876,50.622,32.876,58.717C32.876,66.811,39.438,73.373,47.533,73.373L69.901,73.373L69.901,66.428L47.533,66.428C43.274,66.428,39.821,62.976,39.821,58.717C39.821,54.458,43.274,51.005,47.533,51.005L69.901,51.005L69.901,44.06ZM69.901,51.005C74.16,51.005,77.612,54.458,77.612,58.717C77.612,62.976,74.16,66.428,69.901,66.428L69.901,73.373C77.996,73.373,84.558,66.812,84.558,58.717C84.558,50.622,77.996,44.06,69.901,44.06L69.901,51.005ZM23.045,36.348L23.045,19.572C23.045,12.225,29.001,6.269,36.348,6.269C43.696,6.269,49.652,12.225,49.652,19.572L49.652,36.348L56.597,36.348L56.597,19.572C56.597,8.389,47.531,-0.677,36.348,-0.677C25.165,-0.677,16.1,8.389,16.1,19.572L16.1,36.348L23.045,36.348ZM67.105,62.189L72.697,62.189L72.697,55.244L67.105,55.244L67.105,62.189ZM55.921,62.189L61.513,62.189L61.513,55.244L55.921,55.244L55.921,62.189ZM44.736,62.189L50.329,62.189L50.329,55.244L44.736,55.244L44.736,62.189Z"/>
</g>
  <g id="Regular-M" transform="matrix(1.0,0.0,0.0,1.0,1409.1895470610118,1048.829566592262)">  <path stroke-width="1px" stroke-miterlimit="4" fill="#000000" stroke-linejoin="miter" stroke="none" fill-rule="nonzero" stroke-opacity="1" stroke-dasharray="none" fill-opacity="1" stroke-linecap="butt" d="M72.697,47.533L72.697,41.94C72.697,37.308,68.941,33.552,64.309,33.552L8.388,33.552C3.755,33.552,0,37.308,0,41.94L0,75.493C0,80.125,3.755,83.881,8.388,83.881L64.309,83.881C68.941,83.881,72.697,80.126,72.697,75.493L72.697,69.901L67.105,69.901L67.105,75.493C67.105,77.037,65.853,78.289,64.309,78.289L8.388,78.289C6.844,78.289,5.592,77.037,5.592,75.493L5.592,41.94C5.592,40.396,6.844,39.144,8.388,39.144L64.309,39.144C65.853,39.144,67.105,40.396,67.105,41.94L67.105,47.533L72.697,47.533ZM69.901,44.736L47.533,44.736C39.811,44.736,33.552,50.996,33.552,58.717C33.552,66.438,39.811,72.697,47.533,72.697L69.901,72.697L69.901,67.105L47.533,67.105C42.9,67.105,39.144,63.349,39.144,58.717C39.144,54.084,42.9,50.329,47.533,50.329L69.901,50.329L69.901,44.736ZM69.901,50.329C74.533,50.329,78.289,54.084,78.289,58.717C78.289,63.349,74.534,67.105,69.901,67.105L69.901,72.697C77.622,72.697,83.881,66.438,83.881,58.717C83.881,50.996,77.622,44.736,69.901,44.736L69.901,50.329ZM22.368,36.348L22.368,19.572C22.368,11.851,28.627,5.592,36.348,5.592C44.069,5.592,50.329,11.851,50.329,19.572L50.329,36.348L55.921,36.348L55.921,19.572C55.921,8.763,47.158,0,36.348,0C25.539,0,16.776,8.763,16.776,19.572L16.776,36.348L22.368,36.348ZM67.105,61.513L72.697,61.513L72.697,55.921L67.105,55.921L67.105,61.513ZM55.921,61.513L61.513,61.513L61.513,55.921L55.921,55.921L55.921,61.513ZM44.736,61.513L50.329,61.513L50.329,55.921L44.736,55.921L44.736,61.513Z"/>
</g>
  <g id="Light-M" transform="matrix(1.0,0.0,0.0,1.0,1112.479547061012,1048.829566592262)">  <path stroke="none" fill-opacity="1" stroke-miterlimit="4" stroke-opacity="1" fill-rule="nonzero" fill="#000000" stroke-dasharray="none" stroke-linejoin="miter" stroke-linecap="butt" stroke-width="1px" d="M72.231,47.533L72.231,41.94C72.231,37.565,68.684,34.018,64.309,34.018L8.388,34.018C4.013,34.018,0.466,37.565,0.466,41.94L0.466,75.493C0.466,79.868,4.013,83.415,8.388,83.415L64.309,83.415C68.684,83.415,72.231,79.868,72.231,75.493L72.231,69.901L67.571,69.901L67.571,75.493C67.571,77.294,66.11,78.755,64.309,78.755L8.388,78.755C6.586,78.755,5.126,77.294,5.126,75.493L5.126,41.94C5.126,40.139,6.587,38.678,8.388,38.678L64.309,38.678C66.11,38.678,67.571,40.139,67.571,41.94L67.571,47.533L72.231,47.533ZM69.901,45.202L47.533,45.202C40.069,45.202,34.018,51.253,34.018,58.717C34.018,66.18,40.069,72.231,47.533,72.231L69.901,72.231L69.901,67.571L47.533,67.571C42.642,67.571,38.678,63.607,38.678,58.717C38.678,53.827,42.643,49.863,47.533,49.863L69.901,49.863L69.901,45.202ZM69.901,49.863C74.791,49.863,78.755,53.827,78.755,58.717C78.755,63.607,74.791,67.571,69.901,67.571L69.901,72.231C77.365,72.231,83.415,66.18,83.415,58.717C83.415,51.253,77.365,45.202,69.901,45.202L69.901,49.863ZM21.902,36.348L21.902,19.572C21.902,11.594,28.37,5.126,36.348,5.126C44.327,5.126,50.795,11.594,50.795,19.572L50.795,36.348L55.455,36.348L55.455,19.572C55.455,9.02,46.9,0.466,36.348,0.466C25.796,0.466,17.242,9.02,17.242,19.572L17.242,36.348L21.902,36.348ZM67.105,61.047L72.697,61.047L72.697,56.387L67.105,56.387L67.105,61.047ZM55.921,61.047L61.513,61.047L61.513,56.387L55.921,56.387L55.921,61.047ZM44.736,61.047L50.329,61.047L50.329,56.387L44.736,56.387L44.736,61.047Z"/>
</g>
  <g id="Thin-M" transform="matrix(1.0,0.0,0.0,1.0,815.769547061012,1048.829566592262)">  <path stroke-linejoin="miter" fill-opacity="1" stroke-linecap="butt" stroke="none" stroke-dasharray="none" stroke-opacity="1" fill-rule="nonzero" stroke-width="1px" fill="#000000" stroke-miterlimit="4" d="M71.765,47.533L71.765,41.94C71.765,37.823,68.427,34.484,64.309,34.484L8.388,34.484C4.27,34.484,0.932,37.823,0.932,41.94L0.932,75.493C0.932,79.611,4.27,82.949,8.388,82.949L64.309,82.949C68.427,82.949,71.765,79.611,71.765,75.493L71.765,69.901L68.037,69.901L68.037,75.493C68.037,77.552,66.368,79.221,64.309,79.221L8.388,79.221C6.329,79.221,4.66,77.552,4.66,75.493L4.66,41.94C4.66,39.882,6.329,38.212,8.388,38.212L64.309,38.212C66.368,38.212,68.037,39.881,68.037,41.94L68.037,47.533L71.765,47.533ZM69.901,45.668L47.533,45.668C40.326,45.668,34.484,51.51,34.484,58.717C34.484,65.923,40.326,71.765,47.533,71.765L69.901,71.765L69.901,68.037L47.533,68.037C42.385,68.037,38.212,63.864,38.212,58.717C38.212,53.569,42.385,49.397,47.533,49.397L69.901,49.397L69.901,45.668ZM69.901,49.397C75.048,49.397,79.221,53.569,79.221,58.717C79.221,63.864,75.048,68.037,69.901,68.037L69.901,71.765C77.107,71.765,82.949,65.923,82.949,58.717C82.949,51.51,77.107,45.668,69.901,45.668L69.901,49.397ZM21.436,36.348L21.436,19.572C21.436,11.336,28.113,4.66,36.348,4.66C44.584,4.66,51.261,11.336,51.261,19.572L51.261,36.348L54.989,36.348L54.989,19.572C54.989,9.278,46.643,0.932,36.348,0.932C26.054,0.932,17.708,9.278,17.708,19.572L17.708,36.348L21.436,36.348ZM67.105,60.581L72.697,60.581L72.697,56.853L67.105,56.853L67.105,60.581ZM55.921,60.581L61.513,60.581L61.513,56.853L55.921,56.853L55.921,60.581ZM44.736,60.581L50.329,60.581L50.329,56.853L44.736,56.853L44.736,60.581Z"/>
</g>
  <g id="Ultralight-M" transform="matrix(1.0,0.0,0.0,1.0,519.0595470610119,1048.829566592262)">  <path stroke-width="1px" fill-opacity="1" fill-rule="nonzero" fill="#000000" stroke-miterlimit="4" stroke-dasharray="none" stroke="none" stroke-linecap="butt" stroke-opacity="1" stroke-linejoin="miter" d="M71.299,47.533L71.299,41.94C71.299,38.08,68.169,34.95,64.309,34.95L8.388,34.95C4.528,34.95,1.398,38.08,1.398,41.94L1.398,75.493C1.398,79.353,4.528,82.483,8.388,82.483L64.309,82.483C68.169,82.483,71.299,79.353,71.299,75.493L71.299,69.901L68.503,69.901L68.503,75.493C68.503,77.809,66.625,79.687,64.309,79.687L8.388,79.687C6.072,79.687,4.194,77.809,4.194,75.493L4.194,41.94C4.194,39.624,6.072,37.746,8.388,37.746L64.309,37.746C66.625,37.746,68.503,39.624,68.503,41.94L68.503,47.533L71.299,47.533ZM69.901,46.134L47.533,46.134C40.584,46.134,34.95,51.768,34.95,58.717C34.95,65.666,40.584,71.299,47.533,71.299L69.901,71.299L69.901,68.503L47.533,68.503C42.128,68.503,37.746,64.121,37.746,58.717C37.746,53.312,42.128,48.931,47.533,48.931L69.901,48.931L69.901,46.134ZM69.901,48.931C75.306,48.931,79.687,53.312,79.687,58.717C79.687,64.122,75.306,68.503,69.901,68.503L69.901,71.299C76.85,71.299,82.483,65.666,82.483,58.717C82.483,51.768,76.85,46.134,69.901,46.134L69.901,48.931ZM20.97,36.348L20.97,19.572C20.97,11.079,27.855,4.194,36.348,4.194C44.841,4.194,51.727,11.079,51.727,19.572L51.727,36.348L54.523,36.348L54.523,19.572C54.523,9.535,46.386,1.398,36.348,1.398C26.311,1.398,18.174,9.535,18.174,19.572L18.174,36.348L20.97,36.348ZM67.105,60.115L72.697,60.115L72.697,57.319L67.105,57.319L67.105,60.115ZM55.921,60.115L61.513,60.115L61.513,57.319L55.921,57.319L55.921,60.115ZM44.736,60.115L50.329,60.115L50.329,57.319L44.736,57.319L44.736,60.115Z"/>
</g>
  <g id="Black-S" transform="matrix(1.0,0.0,0.0,1.0,2901.840625348772,627.9306448800223)">  <path fill-rule="nonzero" stroke-miterlimit="4" fill-opacity="1" stroke-opacity="1" fill="#000000" stroke-linejoin="miter" stroke-width="1px" stroke="none" stroke-linecap="butt" stroke-dasharray="none" d="M59.571,37.218L59.571,32.839C59.571,27.749,55.444,23.622,50.354,23.622L6.568,23.622C1.478,23.622,-2.649,27.749,-2.649,32.839L-2.649,59.111C-2.649,64.201,1.477,68.328,6.568,68.328L50.354,68.328C55.444,68.328,59.571,64.201,59.571,59.111L59.571,54.732L49.894,54.732L49.894,59.111C49.894,58.857,50.1,58.651,50.354,58.651L6.568,58.651C6.822,58.651,7.028,58.857,7.028,59.111L7.028,32.839C7.028,33.093,6.822,33.299,6.568,33.299L50.354,33.299C50.1,33.299,49.894,33.093,49.894,32.839L49.894,37.218L59.571,37.218ZM54.732,32.38L37.218,32.38C29.709,32.38,23.622,38.467,23.622,45.975C23.622,53.484,29.709,59.571,37.218,59.571L54.732,59.571L54.732,49.894L37.218,49.894C35.054,49.894,33.299,48.14,33.299,45.975C33.299,43.811,35.054,42.056,37.218,42.056L54.732,42.056L54.732,32.38ZM54.732,42.056C56.897,42.056,58.651,43.811,58.651,45.975C58.651,48.14,56.897,49.894,54.732,49.894L54.732,59.571C62.241,59.571,68.328,53.484,68.328,45.975C68.328,38.466,62.241,32.38,54.732,32.38L54.732,42.056ZM20.163,28.461L20.163,15.325C20.163,10.743,23.878,7.028,28.461,7.028C33.043,7.028,36.758,10.743,36.758,15.325L36.758,28.461L46.435,28.461L46.435,15.325C46.435,5.398,38.388,-2.649,28.461,-2.649C18.534,-2.649,10.487,5.398,10.487,15.325L10.487,28.461L20.163,28.461ZM52.543,50.813L56.922,50.813L56.922,41.137L52.543,41.137L52.543,50.813ZM43.786,50.813L48.164,50.813L48.164,41.137L43.786,41.137L43.786,50.813ZM35.029,50.813L39.407,50.813L39.407,41.137L35.029,41.137L35.029,50.813Z"/>
</g>
  <g id="Heavy-S" transform="matrix(1.0,0.0,0.0,1.0,2605.130625348772,627.9306448800223)">  <path stroke-linecap="butt" stroke="none" stroke-dasharray="none" stroke-miterlimit="4" fill-rule="nonzero" stroke-linejoin="miter" fill="#000000" stroke-opacity="1" fill-opacity="1" stroke-width="1px" d="M59.041,37.218L59.041,32.839C59.041,28.042,55.152,24.152,50.354,24.152L6.568,24.152C1.77,24.152,-2.119,28.042,-2.119,32.839L-2.119,59.111C-2.119,63.909,1.77,67.798,6.568,67.798L50.354,67.798C55.152,67.798,59.041,63.909,59.041,59.111L59.041,54.732L50.424,54.732L50.424,59.111C50.424,59.15,50.392,59.181,50.354,59.181L6.568,59.181C6.529,59.181,6.498,59.15,6.498,59.111L6.498,32.839C6.498,32.801,6.529,32.769,6.568,32.769L50.354,32.769C50.392,32.769,50.424,32.801,50.424,32.839L50.424,37.218L59.041,37.218ZM54.732,32.909L37.218,32.909C30.002,32.909,24.152,38.759,24.152,45.975C24.152,53.191,30.002,59.041,37.218,59.041L54.732,59.041L54.732,50.424L37.218,50.424C34.761,50.424,32.769,48.432,32.769,45.975C32.769,43.518,34.761,41.526,37.218,41.526L54.732,41.526L54.732,32.909ZM54.732,41.526C57.189,41.526,59.181,43.518,59.181,45.975C59.181,48.432,57.189,50.424,54.732,50.424L54.732,59.041C61.948,59.041,67.798,53.191,67.798,45.975C67.798,38.759,61.948,32.909,54.732,32.909L54.732,41.526ZM19.634,28.461L19.634,15.325C19.634,10.45,23.586,6.498,28.461,6.498C33.336,6.498,37.288,10.45,37.288,15.325L37.288,28.461L45.905,28.461L45.905,15.325C45.905,5.691,38.095,-2.119,28.461,-2.119C18.827,-2.119,11.017,5.691,11.017,15.325L11.017,28.461L19.634,28.461ZM52.543,50.284L56.922,50.284L56.922,41.667L52.543,41.667L52.543,50.284ZM43.786,50.284L48.164,50.284L48.164,41.667L43.786,41.667L43.786,50.284ZM35.029,50.284L39.407,50.284L39.407,41.667L35.029,41.667L35.029,50.284Z"/>
</g>
  <g id="Bold-S" transform="matrix(1.0,0.0,0.0,1.0,2308.420625348772,627.9306448800223)">  <path fill="#000000" stroke-opacity="1" fill-rule="nonzero" fill-opacity="1" stroke-linejoin="miter" stroke="none" stroke-miterlimit="4" stroke-linecap="butt" stroke-dasharray="none" stroke-width="1px" d="M58.511,37.218L58.511,32.839C58.511,28.334,54.859,24.682,50.354,24.682L6.568,24.682C2.063,24.682,-1.589,28.334,-1.589,32.839L-1.589,59.111C-1.589,63.616,2.063,67.268,6.568,67.268L50.354,67.268C54.859,67.268,58.511,63.616,58.511,59.111L58.511,54.732L50.954,54.732L50.954,59.111C50.954,59.442,50.685,59.711,50.354,59.711L6.568,59.711C6.237,59.711,5.968,59.442,5.968,59.111L5.968,32.839C5.968,32.508,6.237,32.24,6.568,32.24L50.354,32.24C50.685,32.24,50.954,32.508,50.954,32.839L50.954,37.218L58.511,37.218ZM54.732,33.439L37.218,33.439C30.295,33.439,24.682,39.052,24.682,45.975C24.682,52.899,30.295,58.511,37.218,58.511L54.732,58.511L54.732,50.954L37.218,50.954C34.468,50.954,32.24,48.725,32.24,45.975C32.24,43.226,34.468,40.997,37.218,40.997L54.732,40.997L54.732,33.439ZM54.732,40.997C57.482,40.997,59.711,43.226,59.711,45.975C59.711,48.725,57.482,50.954,54.732,50.954L54.732,58.511C61.656,58.511,67.268,52.899,67.268,45.975C67.268,39.052,61.656,33.439,54.732,33.439L54.732,40.997ZM19.104,28.461L19.104,15.325C19.104,10.157,23.293,5.968,28.461,5.968C33.629,5.968,37.818,10.157,37.818,15.325L37.818,28.461L45.375,28.461L45.375,15.325C45.375,5.983,37.802,-1.589,28.461,-1.589C19.119,-1.589,11.546,5.983,11.546,15.325L11.546,28.461L19.104,28.461ZM52.543,49.754L56.922,49.754L56.922,42.196L52.543,42.196L52.543,49.754ZM43.786,49.754L48.164,49.754L48.164,42.196L43.786,42.196L43.786,49.754ZM35.029,49.754L39.407,49.754L39.407,42.196L35.029,42.196L35.029,49.754Z"/>
</g>
  <g id="Semibold-S" transform="matrix(1.0,0.0,0.0,1.0,2011.7106253487723,627.9306448800223)">  <path stroke-dasharray="none" stroke="none" fill-opacity="1" stroke-opacity="1" fill="#000000" fill-rule="nonzero" stroke-width="1px" stroke-miterlimit="4" stroke-linecap="butt" stroke-linejoin="miter" d="M57.981,37.218L57.981,32.839C57.981,28.627,54.566,25.212,50.354,25.212L6.568,25.212C2.355,25.212,-1.06,28.627,-1.06,32.839L-1.06,59.111C-1.06,63.323,2.355,66.738,6.568,66.738L50.354,66.738C54.566,66.738,57.981,63.323,57.981,59.111L57.981,54.732L51.483,54.732L51.483,59.111C51.483,59.735,50.978,60.241,50.354,60.241L6.568,60.241C5.944,60.241,5.438,59.735,5.438,59.111L5.438,32.839C5.438,32.215,5.944,31.71,6.568,31.71L50.354,31.71C50.978,31.71,51.483,32.215,51.483,32.839L51.483,37.218L57.981,37.218ZM54.732,33.969L37.218,33.969C30.587,33.969,25.212,39.344,25.212,45.975C25.212,52.606,30.587,57.981,37.218,57.981L54.732,57.981L54.732,51.483L37.218,51.483C34.176,51.483,31.71,49.017,31.71,45.975C31.71,42.933,34.176,40.467,37.218,40.467L54.732,40.467L54.732,33.969ZM54.732,40.467C57.774,40.467,60.241,42.933,60.241,45.975C60.241,49.017,57.775,51.483,54.732,51.483L54.732,57.981C61.363,57.981,66.738,52.606,66.738,45.975C66.738,39.344,61.363,33.969,54.732,33.969L54.732,40.467ZM18.574,28.461L18.574,15.325C18.574,9.865,23,5.438,28.461,5.438C33.921,5.438,38.348,9.865,38.348,15.325L38.348,28.461L44.845,28.461L44.845,15.325C44.845,6.276,37.51,-1.06,28.461,-1.06C19.412,-1.06,12.076,6.276,12.076,15.325L12.076,28.461L18.574,28.461ZM52.543,49.224L56.922,49.224L56.922,42.726L52.543,42.726L52.543,49.224ZM43.786,49.224L48.164,49.224L48.164,42.726L43.786,42.726L43.786,49.224ZM35.029,49.224L39.407,49.224L39.407,42.726L35.029,42.726L35.029,49.224Z"/>
</g>
  <g id="Medium-S" transform="matrix(1.0,0.0,0.0,1.0,1715.0006253487722,627.9306448800223)">  <path stroke-opacity="1" fill-opacity="1" stroke="none" fill="#000000" stroke-dasharray="none" fill-rule="nonzero" stroke-linejoin="miter" stroke-linecap="butt" stroke-width="1px" stroke-miterlimit="4" d="M57.451,37.218L57.451,32.839C57.451,28.919,54.274,25.742,50.354,25.742L6.568,25.742C2.648,25.742,-0.53,28.919,-0.53,32.839L-0.53,59.111C-0.53,63.031,2.648,66.209,6.568,66.209L50.354,66.209C54.274,66.209,57.451,63.031,57.451,59.111L57.451,54.732L52.013,54.732L52.013,59.111C52.013,60.027,51.27,60.77,50.354,60.77L6.568,60.77C5.651,60.77,4.908,60.027,4.908,59.111L4.908,32.839C4.908,31.923,5.651,31.18,6.568,31.18L50.354,31.18C51.27,31.18,52.013,31.923,52.013,32.839L52.013,37.218L57.451,37.218ZM54.732,34.499L37.218,34.499C30.88,34.499,25.742,39.637,25.742,45.975C25.742,52.313,30.88,57.451,37.218,57.451L54.732,57.451L54.732,52.013L37.218,52.013C33.883,52.013,31.18,49.31,31.18,45.975C31.18,42.64,33.883,39.937,37.218,39.937L54.732,39.937L54.732,34.499ZM54.732,39.937C58.067,39.937,60.77,42.64,60.77,45.975C60.77,49.31,58.067,52.013,54.732,52.013L54.732,57.451C61.071,57.451,66.209,52.313,66.209,45.975C66.209,39.637,61.071,34.499,54.732,34.499L54.732,39.937ZM18.044,28.461L18.044,15.325C18.044,9.572,22.708,4.908,28.461,4.908C34.214,4.908,38.877,9.572,38.877,15.325L38.877,28.461L44.316,28.461L44.316,15.325C44.316,6.569,37.217,-0.53,28.461,-0.53C19.704,-0.53,12.606,6.569,12.606,15.325L12.606,28.461L18.044,28.461ZM52.543,48.694L56.922,48.694L56.922,43.256L52.543,43.256L52.543,48.694ZM43.786,48.694L48.164,48.694L48.164,43.256L43.786,43.256L43.786,48.694ZM35.029,48.694L39.407,48.694L39.407,43.256L35.029,43.256L35.029,48.694Z"/>
</g>
  <g id="Regular-S" transform="matrix(1.0,0.0,0.0,1.0,1418.2906253487722,627.9306448800223)">  <path stroke-width="1px" stroke-miterlimit="4" fill="#000000" stroke-linejoin="miter" stroke="none" fill-rule="nonzero" stroke-opacity="1" stroke-dasharray="none" fill-opacity="1" stroke-linecap="butt" d="M56.922,37.218L56.922,32.839C56.922,29.212,53.981,26.271,50.354,26.271L6.568,26.271C2.941,26.271,0,29.212,0,32.839L0,59.111C0,62.738,2.941,65.679,6.568,65.679L50.354,65.679C53.981,65.679,56.922,62.738,56.922,59.111L56.922,54.732L52.543,54.732L52.543,59.111C52.543,60.32,51.563,61.3,50.354,61.3L6.568,61.3C5.359,61.3,4.379,60.32,4.379,59.111L4.379,32.839C4.379,31.63,5.359,30.65,6.568,30.65L50.354,30.65C51.563,30.65,52.543,31.63,52.543,32.839L52.543,37.218L56.922,37.218ZM54.732,35.029L37.218,35.029C31.172,35.029,26.271,39.93,26.271,45.975C26.271,52.021,31.172,56.922,37.218,56.922L54.732,56.922L54.732,52.543L37.218,52.543C33.591,52.543,30.65,49.603,30.65,45.975C30.65,42.348,33.591,39.407,37.218,39.407L54.732,39.407L54.732,35.029ZM54.732,39.407C58.36,39.407,61.3,42.348,61.3,45.975C61.3,49.603,58.36,52.543,54.732,52.543L54.732,56.922C60.778,56.922,65.679,52.021,65.679,45.975C65.679,39.93,60.778,35.029,54.732,35.029L54.732,39.407ZM17.514,28.461L17.514,15.325C17.514,9.279,22.415,4.379,28.461,4.379C34.506,4.379,39.407,9.279,39.407,15.325L39.407,28.461L43.786,28.461L43.786,15.325C43.786,6.861,36.925,0,28.461,0C19.997,0,13.136,6.861,13.136,15.325L13.136,28.461L17.514,28.461ZM52.543,48.164L56.922,48.164L56.922,43.786L52.543,43.786L52.543,48.164ZM43.786,48.164L48.164,48.164L48.164,43.786L43.786,43.786L43.786,48.164ZM35.029,48.164L39.407,48.164L39.407,43.786L35.029,43.786L35.029,48.164Z"/>
</g>
  <g id="Light-S" transform="matrix(1.0,0.0,0.0,1.0,1121.5806253487724,627.9306448800223)">  <path stroke="none" fill-opacity="1" stroke-miterlimit="4" stroke-opacity="1" fill-rule="nonzero" fill="#000000" stroke-dasharray="none" stroke-linejoin="miter" stroke-linecap="butt" stroke-width="1px" d="M56.557,37.218L56.557,32.839C56.557,29.414,53.78,26.636,50.354,26.636L6.568,26.636C3.142,26.636,0.365,29.414,0.365,32.839L0.365,59.111C0.365,62.537,3.142,65.314,6.568,65.314L50.354,65.314C53.78,65.314,56.557,62.537,56.557,59.111L56.557,54.732L52.908,54.732L52.908,59.111C52.908,60.522,51.764,61.665,50.354,61.665L6.568,61.665C5.157,61.665,4.014,60.522,4.014,59.111L4.014,32.839C4.014,31.429,5.157,30.285,6.568,30.285L50.354,30.285C51.764,30.285,52.908,31.429,52.908,32.839L52.908,37.218L56.557,37.218ZM54.732,35.394L37.218,35.394C31.374,35.394,26.636,40.131,26.636,45.975C26.636,51.819,31.374,56.557,37.218,56.557L54.732,56.557L54.732,52.908L37.218,52.908C33.389,52.908,30.285,49.804,30.285,45.975C30.285,42.146,33.389,39.042,37.218,39.042L54.732,39.042L54.732,35.394ZM54.732,39.042C58.561,39.042,61.665,42.146,61.665,45.975C61.665,49.804,58.561,52.908,54.732,52.908L54.732,56.557C60.576,56.557,65.314,51.819,65.314,45.975C65.314,40.131,60.576,35.394,54.732,35.394L54.732,39.042ZM17.149,28.461L17.149,15.325C17.149,9.078,22.214,4.014,28.461,4.014C34.708,4.014,39.772,9.078,39.772,15.325L39.772,28.461L43.421,28.461L43.421,15.325C43.421,7.063,36.723,0.365,28.461,0.365C20.199,0.365,13.501,7.063,13.501,15.325L13.501,28.461L17.149,28.461ZM52.543,47.8L56.922,47.8L56.922,44.151L52.543,44.151L52.543,47.8ZM43.786,47.8L48.164,47.8L48.164,44.151L43.786,44.151L43.786,47.8ZM35.029,47.8L39.407,47.8L39.407,44.151L35.029,44.151L35.029,47.8Z"/>
</g>
  <g id="Thin-S" transform="matrix(1.0,0.0,0.0,1.0,824.8706253487724,627.9306448800223)">  <path stroke-linejoin="miter" fill-opacity="1" stroke-linecap="butt" stroke="none" stroke-dasharray="none" stroke-opacity="1" fill-rule="nonzero" stroke-width="1px" fill="#000000" stroke-miterlimit="4" d="M56.192,37.218L56.192,32.839C56.192,29.615,53.578,27.001,50.354,27.001L6.568,27.001C3.344,27.001,0.73,29.615,0.73,32.839L0.73,59.111C0.73,62.335,3.344,64.949,6.568,64.949L50.354,64.949C53.578,64.949,56.192,62.335,56.192,59.111L56.192,54.732L53.273,54.732L53.273,59.111C53.273,60.723,51.966,62.03,50.354,62.03L6.568,62.03C4.956,62.03,3.649,60.723,3.649,59.111L3.649,32.839C3.649,31.227,4.956,29.92,6.568,29.92L50.354,29.92C51.966,29.92,53.273,31.227,53.273,32.839L53.273,37.218L56.192,37.218ZM54.732,35.758L37.218,35.758C31.575,35.758,27.001,40.333,27.001,45.975C27.001,51.618,31.575,56.192,37.218,56.192L54.732,56.192L54.732,53.273L37.218,53.273C33.188,53.273,29.92,50.006,29.92,45.975C29.92,41.945,33.188,38.677,37.218,38.677L54.732,38.677L54.732,35.758ZM54.732,38.677C58.763,38.677,62.03,41.945,62.03,45.975C62.03,50.006,58.763,53.273,54.732,53.273L54.732,56.192C60.375,56.192,64.949,51.618,64.949,45.975C64.949,40.333,60.375,35.758,54.732,35.758L54.732,38.677ZM16.785,28.461L16.785,15.325C16.785,8.876,22.012,3.649,28.461,3.649C34.909,3.649,40.137,8.876,40.137,15.325L40.137,28.461L43.056,28.461L43.056,15.325C43.056,7.264,36.522,0.73,28.461,0.73C20.4,0.73,13.866,7.264,13.866,15.325L13.866,28.461L16.785,28.461ZM52.543,47.435L56.922,47.435L56.922,44.516L52.543,44.516L52.543,47.435ZM43.786,47.435L48.164,47.435L48.164,44.516L43.786,44.516L43.786,47.435ZM35.029,47.435L39.407,47.435L39.407,44.516L35.029,44.516L35.029,47.435Z"/>
</g>
  <g id="Ultralight-S" transform="matrix(1.0,0.0,0.0,1.0,528.1606253487723,627.9306448800223)">  <path stroke-width="1px" fill-opacity="1" fill-rule="nonzero" fill="#000000" stroke-miterlimit="4" stroke-dasharray="none" stroke="none" stroke-linecap="butt" stroke-opacity="1" stroke-linejoin="miter" d="M55.827,37.218L55.827,32.839C55.827,29.817,53.377,27.366,50.354,27.366L6.568,27.366C3.545,27.366,1.095,29.817,1.095,32.839L1.095,59.111C1.095,62.134,3.545,64.584,6.568,64.584L50.354,64.584C53.377,64.584,55.827,62.134,55.827,59.111L55.827,54.732L53.638,54.732L53.638,59.111C53.638,60.925,52.167,62.395,50.354,62.395L6.568,62.395C4.754,62.395,3.284,60.925,3.284,59.111L3.284,32.839C3.284,31.026,4.754,29.555,6.568,29.555L50.354,29.555C52.167,29.555,53.638,31.026,53.638,32.839L53.638,37.218L55.827,37.218ZM54.732,36.123L37.218,36.123C31.777,36.123,27.366,40.534,27.366,45.975C27.366,51.416,31.777,55.827,37.218,55.827L54.732,55.827L54.732,53.638L37.218,53.638C32.986,53.638,29.555,50.207,29.555,45.975C29.555,41.743,32.986,38.313,37.218,38.313L54.732,38.313L54.732,36.123ZM54.732,38.313C58.964,38.313,62.395,41.743,62.395,45.975C62.395,50.207,58.964,53.638,54.732,53.638L54.732,55.827C60.173,55.827,64.584,51.416,64.584,45.975C64.584,40.534,60.173,36.123,54.732,36.123L54.732,38.313ZM16.42,28.461L16.42,15.325C16.42,8.675,21.811,3.284,28.461,3.284C35.111,3.284,40.502,8.675,40.502,15.325L40.502,28.461L42.691,28.461L42.691,15.325C42.691,7.466,36.32,1.095,28.461,1.095C20.602,1.095,14.23,7.466,14.23,15.325L14.23,28.461L16.42,28.461ZM52.543,47.07L56.922,47.07L56.922,44.88L52.543,44.88L52.543,47.07ZM43.786,47.07L48.164,47.07L48.164,44.88L43.786,44.88L43.786,47.07ZM35.029,47.07L39.407,47.07L39.407,44.88L35.029,44.88L35.029,47.07Z"/>
</g>
 </g>
</svg>
