<?xml version="1.0" encoding="UTF-8"?>
<!-- Generator: CustomSymbols v2.6.2.41 by @serious_bret https://bretlester.com/app_content/CustomSymbols/ -->
<!-- Guides: Left/Right -0.031/-0.031 Cap/Base 0.08/0.08 -->
<!-- Settings: RefScale 1.0 Min/Max Stroke Scales 0.5/2.21 -->
<!DOCTYPE svg
PUBLIC "-//W3C//DTD SVG 1.1//EN"
       "http://www.w3.org/Graphics/SVG/1.1/DTD/svg11.dtd">
<svg version="1.1" xmlns="http://www.w3.org/2000/svg" xmlns:xlink="http://www.w3.org/1999/xlink" width="3300" height="2200">
<![CDATA[<svg width="15" height="15" viewBox="0 0 15 15" fill="none" xmlns="http://www.w3.org/2000/svg">
<path d="M3.5 0L3.5 8.5M3.5 8.5C2.39543 8.5 1.5 9.39543 1.5 10.5C1.5 11.6046 2.39543 12.5 3.5 12.5M3.5 8.5C4.60457 8.5 5.5 9.39543 5.5 10.5C5.5 11.6046 4.60457 12.5 3.5 12.5M3.5 12.5V15M11.5 0L11.5 2.5M11.5 2.5C10.3954 2.5 9.5 3.39543 9.5 4.5C9.5 5.60457 10.3954 6.5 11.5 6.5M11.5 2.5C12.6046 2.5 13.5 3.39543 13.5 4.5C13.5 5.60457 12.6046 6.5 11.5 6.5M11.5 6.5V15" stroke="#1D1929"/>
</svg>
]]>
 <g id="Notes">
  <rect height="2200" id="artboard" style="fill:white;opacity:1" width="3300" x="0" y="0"/>
  <line id="" style="fill:none;stroke:black;opacity:1;stroke-width:0.5;" x1="263" x2="3036" y1="292" y2="292"/>
  <text id="reftext1" style="stroke:none;fill:black;font-family:-apple-system,&quot;SF Pro Display&quot;,&quot;SF Pro Text&quot;,Helvetica,sans-serif;font-weight:bold;" transform="matrix(1 0 0 1 263 322)">Weight/Scale Variations</text>
  <text id="reftext2" style="stroke:none;fill:black;font-family:-apple-system,&quot;SF Pro Display&quot;,&quot;SF Pro Text&quot;,Helvetica,sans-serif;text-anchor:middle;" transform="matrix(1 0 0 1 559.711 322)">Ultralight</text>
  <text style="stroke:none;fill:black;font-family:-apple-system,&quot;SF Pro Display&quot;,&quot;SF Pro Text&quot;,Helvetica,sans-serif;text-anchor:middle;" transform="matrix(1 0 0 1 856.422 322)">Thin</text>
  <text style="stroke:none;fill:black;font-family:-apple-system,&quot;SF Pro Display&quot;,&quot;SF Pro Text&quot;,Helvetica,sans-serif;text-anchor:middle;" transform="matrix(1 0 0 1 1153.13 322)">Light</text>
  <text style="stroke:none;fill:black;font-family:-apple-system,&quot;SF Pro Display&quot;,&quot;SF Pro Text&quot;,Helvetica,sans-serif;text-anchor:middle;" transform="matrix(1 0 0 1 1449.84 322)">Regular</text>
  <text style="stroke:none;fill:black;font-family:-apple-system,&quot;SF Pro Display&quot;,&quot;SF Pro Text&quot;,Helvetica,sans-serif;text-anchor:middle;" transform="matrix(1 0 0 1 1746.56 322)">Medium</text>
  <text style="stroke:none;fill:black;font-family:-apple-system,&quot;SF Pro Display&quot;,&quot;SF Pro Text&quot;,Helvetica,sans-serif;text-anchor:middle;" transform="matrix(1 0 0 1 2043.27 322)">Semibold</text>
  <text style="stroke:none;fill:black;font-family:-apple-system,&quot;SF Pro Display&quot;,&quot;SF Pro Text&quot;,Helvetica,sans-serif;text-anchor:middle;" transform="matrix(1 0 0 1 2339.98 322)">Bold</text>
  <text style="stroke:none;fill:black;font-family:-apple-system,&quot;SF Pro Display&quot;,&quot;SF Pro Text&quot;,Helvetica,sans-serif;text-anchor:middle;" transform="matrix(1 0 0 1 2636.69 322)">Heavy</text>
  <text style="stroke:none;fill:black;font-family:-apple-system,&quot;SF Pro Display&quot;,&quot;SF Pro Text&quot;,Helvetica,sans-serif;text-anchor:middle;" transform="matrix(1 0 0 1 2933.4 322)">Black</text>
  <line id="" style="fill:none;stroke:black;opacity:1;stroke-width:0.5;" x1="263" x2="3036" y1="1903" y2="1903"/>
  <g id="" transform="matrix(1 0 0 1 263 1933)">
   <path d="M9.24805 0.830078C13.5547 0.830078 17.1387-2.74414 17.1387-7.05078C17.1387-11.3574 13.5449-14.9316 9.23828-14.9316C4.94141-14.9316 1.36719-11.3574 1.36719-7.05078C1.36719-2.74414 4.95117 0.830078 9.24805 0.830078ZM9.24805-0.654297C5.70312-0.654297 2.87109-3.49609 2.87109-7.05078C2.87109-10.6055 5.69336-13.4473 9.23828-13.4473C12.793-13.4473 15.6348-10.6055 15.6445-7.05078C15.6543-3.49609 12.8027-0.654297 9.24805-0.654297ZM6.39648-6.31836L8.50586-6.31836L8.50586-4.19922C8.50586-3.75977 8.79883-3.45703 9.22852-3.45703C9.67773-3.45703 9.9707-3.75977 9.9707-4.19922L9.9707-6.31836L12.0996-6.31836C12.5391-6.31836 12.8418-6.61133 12.8418-7.04102C12.8418-7.48047 12.5391-7.7832 12.0996-7.7832L9.9707-7.7832L9.9707-9.89258C9.9707-10.3418 9.67773-10.6445 9.22852-10.6445C8.79883-10.6445 8.50586-10.3418 8.50586-9.89258L8.50586-7.7832L6.39648-7.7832C5.94727-7.7832 5.64453-7.48047 5.64453-7.04102C5.64453-6.61133 5.94727-6.31836 6.39648-6.31836Z"/>
  </g>
  <g id="" transform="matrix(1 0 0 1 281.506 1933)">
   <path d="M11.709 2.91016C17.1582 2.91016 21.6699-1.61133 21.6699-7.05078C21.6699-12.5 17.1484-17.0117 11.6992-17.0117C6.25977-17.0117 1.74805-12.5 1.74805-7.05078C1.74805-1.61133 6.26953 2.91016 11.709 2.91016ZM11.709 1.25C7.09961 1.25 3.41797-2.44141 3.41797-7.05078C3.41797-11.6602 7.08984-15.3516 11.6992-15.3516C16.3086-15.3516 20-11.6602 20.0098-7.05078C20.0195-2.44141 16.3184 1.25 11.709 1.25ZM7.98828-6.23047L10.8789-6.23047L10.8789-3.32031C10.8789-2.83203 11.2109-2.5 11.6895-2.5C12.1777-2.5 12.5195-2.83203 12.5195-3.32031L12.5195-6.23047L15.4297-6.23047C15.918-6.23047 16.25-6.5625 16.25-7.04102C16.25-7.5293 15.918-7.87109 15.4297-7.87109L12.5195-7.87109L12.5195-10.7617C12.5195-11.2695 12.1777-11.6016 11.6895-11.6016C11.2109-11.6016 10.8789-11.2598 10.8789-10.7617L10.8789-7.87109L7.98828-7.87109C7.48047-7.87109 7.14844-7.5293 7.14844-7.04102C7.14844-6.5625 7.49023-6.23047 7.98828-6.23047Z"/>
  </g>
  <g id="" transform="matrix(1 0 0 1 304.924 1933)">
   <path d="M14.9707 5.66406C21.9336 5.66406 27.6953-0.0976562 27.6953-7.05078C27.6953-14.0137 21.9238-19.7754 14.9609-19.7754C8.00781-19.7754 2.25586-14.0137 2.25586-7.05078C2.25586-0.0976562 8.01758 5.66406 14.9707 5.66406ZM14.9707 3.84766C8.93555 3.84766 4.08203-1.01562 4.08203-7.05078C4.08203-13.0957 8.92578-17.9492 14.9609-17.9492C21.0059-17.9492 25.8594-13.0957 25.8691-7.05078C25.8789-1.01562 21.0156 3.84766 14.9707 3.84766ZM10.0586-6.14258L14.0625-6.14258L14.0625-2.12891C14.0625-1.5918 14.4336-1.2207 14.9512-1.2207C15.4883-1.2207 15.8594-1.5918 15.8594-2.12891L15.8594-6.14258L19.8828-6.14258C20.4102-6.14258 20.791-6.51367 20.791-7.03125C20.791-7.56836 20.4199-7.94922 19.8828-7.94922L15.8594-7.94922L15.8594-11.9531C15.8594-12.5098 15.4883-12.8809 14.9512-12.8809C14.4336-12.8809 14.0625-12.5 14.0625-11.9531L14.0625-7.94922L10.0586-7.94922C9.50195-7.94922 9.13086-7.56836 9.13086-7.03125C9.13086-6.51367 9.51172-6.14258 10.0586-6.14258Z"/>
  </g>
  <text style="stroke:none;fill:black;font-family:-apple-system,&quot;SF Pro Display&quot;,&quot;SF Pro Text&quot;,Helvetica,sans-serif;font-weight:bold;" transform="matrix(1 0 0 1 263 1953)">Design Variations</text>
  <text style="stroke:none;fill:black;font-family:-apple-system,&quot;SF Pro Display&quot;,&quot;SF Pro Text&quot;,Helvetica,sans-serif;" transform="matrix(1 0 0 1 263 1971)">Symbols are supported in up to nine weights and three scales.</text>
  <text style="stroke:none;fill:black;font-family:-apple-system,&quot;SF Pro Display&quot;,&quot;SF Pro Text&quot;,Helvetica,sans-serif;" transform="matrix(1 0 0 1 263 1989)">For optimal layout with text and other symbols, vertically align</text>
  <text style="stroke:none;fill:black;font-family:-apple-system,&quot;SF Pro Display&quot;,&quot;SF Pro Text&quot;,Helvetica,sans-serif;" transform="matrix(1 0 0 1 263 2007)">symbols with the adjacent text.</text>
  <line id="" style="fill:none;stroke:#00AEEF;stroke-width:0.5;opacity:1.0;" x1="776" x2="776" y1="1919" y2="1933"/>
  <g id="" transform="matrix(1 0 0 1 776 1933)">
   <path d="M3.31055 0.126953C3.82812 0.126953 4.08203-0.0683594 4.26758-0.605469L5.52734-4.0625L11.2891-4.0625L12.5488-0.605469C12.7344-0.0683594 12.9883 0.126953 13.4961 0.126953C14.0137 0.126953 14.3457-0.185547 14.3457-0.673828C14.3457-0.839844 14.3164-0.986328 14.2383-1.20117L9.6582-13.3887C9.43359-13.9941 9.0332-14.2871 8.4082-14.2871C7.80273-14.2871 7.39258-13.9941 7.17773-13.3984L2.59766-1.19141C2.51953-0.976562 2.49023-0.830078 2.49023-0.664062C2.49023-0.175781 2.80273 0.126953 3.31055 0.126953ZM6.00586-5.53711L8.37891-12.1094L8.42773-12.1094L10.8008-5.53711Z"/>
  </g>
  <line id="" style="fill:none;stroke:#00AEEF;stroke-width:0.5;opacity:1.0;" x1="792.836" x2="792.836" y1="1919" y2="1933"/>
  <text style="stroke:none;fill:black;font-family:-apple-system,&quot;SF Pro Display&quot;,&quot;SF Pro Text&quot;,Helvetica,sans-serif;font-weight:bold;" transform="matrix(1 0 0 1 776 1953)">Margins</text>
  <text style="stroke:none;fill:black;font-family:-apple-system,&quot;SF Pro Display&quot;,&quot;SF Pro Text&quot;,Helvetica,sans-serif;" transform="matrix(1 0 0 1 776 1971)">Leading and trailing margins on the left and right side of each symbol</text>
  <text style="stroke:none;fill:black;font-family:-apple-system,&quot;SF Pro Display&quot;,&quot;SF Pro Text&quot;,Helvetica,sans-serif;" transform="matrix(1 0 0 1 776 1989)">can be adjusted by modifying the x-location of the margin guidelines.</text>
  <text style="stroke:none;fill:black;font-family:-apple-system,&quot;SF Pro Display&quot;,&quot;SF Pro Text&quot;,Helvetica,sans-serif;" transform="matrix(1 0 0 1 776 2007)">Modifications are automatically applied proportionally to all</text>
  <text style="stroke:none;fill:black;font-family:-apple-system,&quot;SF Pro Display&quot;,&quot;SF Pro Text&quot;,Helvetica,sans-serif;" transform="matrix(1 0 0 1 776 2025)">scales and weights.</text>
  <g id="" transform="matrix(1 0 0 1 1289 1933)">
   <path d="M2.8418 1.86523L4.54102 3.57422C5.40039 4.44336 6.38672 4.38477 7.31445 3.35938L17.4902-7.85156C17.7539-7.76367 18.0273-7.7832 18.3398-7.8418L19.4043-8.03711L20.0684-7.36328L20.0293-6.80664C19.9902-6.30859 20.1172-5.92773 20.6055-5.44922L21.3672-4.70703C21.8457-4.22852 22.4609-4.19922 22.9297-4.66797L25.8398-7.58789C26.3086-8.05664 26.2891-8.65234 25.8105-9.13086L25.0391-9.89258C24.5605-10.3711 24.1895-10.5273 23.7109-10.4883L23.1348-10.4395L22.4902-11.0742L22.7344-12.1973C22.8613-12.7637 22.7051-13.2031 22.1191-13.7891L19.9219-15.9766C16.582-19.2969 12.1484-19.2188 9.25781-16.3281C8.83789-15.918 8.80859-15.3418 9.04297-14.9512C9.27734-14.5898 9.73633-14.3555 10.3809-14.5215C11.8457-14.8633 13.3691-14.9219 14.7949-13.9844L14.209-12.5293C14.0137-12.0508 13.9844-11.6504 14.1113-11.2891L3.04688-0.898438C2.06055 0.0195312 1.98242 0.996094 2.8418 1.86523ZM10.752-15.957C13.1836-17.7344 16.4746-17.4316 18.7012-15.2051L21.1328-12.793C21.3672-12.5586 21.4062-12.373 21.3379-12.0312L21.0156-10.5469L22.5195-9.0625L23.5059-9.12109C23.7598-9.13086 23.8379-9.11133 24.0332-8.91602L24.6094-8.33984L22.168-5.89844L21.5918-6.47461C21.3965-6.66992 21.3672-6.74805 21.377-7.01172L21.4453-7.98828L19.9512-9.47266L18.4277-9.21875C18.1055-9.15039 17.959-9.17969 17.7148-9.41406L15.7129-11.416C15.459-11.6504 15.4297-11.8164 15.5859-12.1875L16.4648-14.2773C14.9023-15.7324 12.8711-16.3574 10.8398-15.7617C10.6836-15.7227 10.625-15.8496 10.752-15.957ZM5.27344 2.30469L4.10156 1.14258C3.63281 0.683594 3.74023 0.341797 4.14062-0.0195312L14.9512-10.1953L16.416-8.71094L6.42578 2.27539C6.07422 2.67578 5.74219 2.77344 5.27344 2.30469Z"/>
  </g>
  <text style="stroke:none;fill:black;font-family:-apple-system,&quot;SF Pro Display&quot;,&quot;SF Pro Text&quot;,Helvetica,sans-serif;font-weight:bold;" transform="matrix(1 0 0 1 1289 1953)">Exporting</text>
  <text style="stroke:none;fill:black;font-family:-apple-system,&quot;SF Pro Display&quot;,&quot;SF Pro Text&quot;,Helvetica,sans-serif;" transform="matrix(1 0 0 1 1289 1971)">Symbols should be outlined when exporting to ensure the</text>
  <text style="stroke:none;fill:black;font-family:-apple-system,&quot;SF Pro Display&quot;,&quot;SF Pro Text&quot;,Helvetica,sans-serif;" transform="matrix(1 0 0 1 1289 1989)">design is preserved when submitting to Xcode.</text>
  <text id="template-version" style="stroke:none;fill:black;font-family:-apple-system,&quot;SF Pro Display&quot;,&quot;SF Pro Text&quot;,Helvetica,sans-serif;text-anchor:end;" transform="matrix(1 0 0 1 3036 1933)">Template v.2.0</text>
  <text style="stroke:none;fill:black;font-family:-apple-system,&quot;SF Pro Display&quot;,&quot;SF Pro Text&quot;,Helvetica,sans-serif;text-anchor:end;" transform="matrix(1 0 0 1 3036 1951)">Requires Xcode 12 or greater</text>
  <text style="stroke:none;fill:black;font-family:-apple-system,&quot;SF Pro Display&quot;,&quot;SF Pro Text&quot;,Helvetica,sans-serif;" transform="matrix(1 0 0 1 263 726)">Small</text>
  <text style="stroke:none;fill:black;font-family:-apple-system,&quot;SF Pro Display&quot;,&quot;SF Pro Text&quot;,Helvetica,sans-serif;" transform="matrix(1 0 0 1 263 1156)">Medium</text>
  <text style="stroke:none;fill:black;font-family:-apple-system,&quot;SF Pro Display&quot;,&quot;SF Pro Text&quot;,Helvetica,sans-serif;" transform="matrix(1 0 0 1 263 1586)">Large</text>
 </g>
 <g id="Guides">
  <g id="H-reference" style="fill:#27AAE1;stroke:none;" transform="matrix(1 0 0 1 339 696)">
   <path d="M0.976562 0L3.66211 0L12.9883-24.4629L45.752-24.4629L55.127 0L57.7637 0L30.6152-70.459L28.125-70.459ZM29.3457-67.1387L29.4434-67.1387L44.873-26.709L13.8672-26.709Z"/>
  </g>
  <line id="Baseline-S" style="fill:none;stroke:#27AAE1;opacity:1;stroke-width:0.5;" x1="263" x2="3036" y1="696" y2="696"/>
  <line id="Capline-S" style="fill:none;stroke:#27AAE1;opacity:1;stroke-width:0.5;" x1="263" x2="3036" y1="625.541" y2="625.541"/>
  <g id="H-reference" style="fill:#27AAE1;stroke:none;" transform="matrix(1 0 0 1 339 1126)">
   <path d="M0.976562 0L3.66211 0L12.9883-24.4629L45.752-24.4629L55.127 0L57.7637 0L30.6152-70.459L28.125-70.459ZM29.3457-67.1387L29.4434-67.1387L44.873-26.709L13.8672-26.709Z"/>
  </g>
  <line id="Baseline-M" style="fill:none;stroke:#27AAE1;opacity:1;stroke-width:0.5;" x1="263" x2="3036" y1="1126" y2="1126"/>
  <line id="Capline-M" style="fill:none;stroke:#27AAE1;opacity:1;stroke-width:0.5;" x1="263" x2="3036" y1="1055.54" y2="1055.54"/>
  <g id="H-reference" style="fill:#27AAE1;stroke:none;" transform="matrix(1 0 0 1 339 1556)">
   <path d="M0.976562 0L3.66211 0L12.9883-24.4629L45.752-24.4629L55.127 0L57.7637 0L30.6152-70.459L28.125-70.459ZM29.3457-67.1387L29.4434-67.1387L44.873-26.709L13.8672-26.709Z"/>
  </g>
  <line id="Baseline-L" style="fill:none;stroke:#27AAE1;opacity:1;stroke-width:0.5;" x1="263" x2="3036" y1="1556" y2="1556"/>
  <line id="Capline-L" style="fill:none;stroke:#27AAE1;opacity:1;stroke-width:0.5;" x1="263" x2="3036" y1="1485.54" y2="1485.54"/>
  <line id="left-margin" x1="1406.5892389787946" x2="1406.5892389787946" y1="1030.79" y2="1150.12" style="fill:none;stroke:#00AEEF;stroke-width:0.5;opacity:1.0;"/>
  <line id="right-margin" x1="1495.6707610212052" x2="1495.6707610212052" y1="1030.79" y2="1150.12" style="fill:none;stroke:#00AEEF;stroke-width:0.5;opacity:1.0;"/>
 </g>
 <g id="Symbols">
  <g id="Black-L" transform="matrix(1.0,0.0,0.0,1.0,2880.576815708705,1466.6668352399554)">  <path stroke-width="1px" stroke-dasharray="none" fill-opacity="1" stroke-opacity="1" stroke-linecap="butt" fill-rule="nonzero" stroke="none" stroke-miterlimit="4" fill="#000000" stroke-linejoin="miter" d="M17.277,0L17.277,61.317L33.219,61.317L33.219,0L17.277,0ZM25.248,53.346C12.878,53.346,2.849,63.374,2.849,75.744C2.849,88.115,12.878,98.143,25.248,98.143L25.248,82.201C21.682,82.201,18.792,79.31,18.792,75.744C18.792,72.179,21.682,69.288,25.248,69.288L25.248,53.346ZM25.248,69.288C28.814,69.288,31.704,72.179,31.704,75.744C31.704,79.31,28.814,82.201,25.248,82.201L25.248,98.143C37.619,98.143,47.647,88.115,47.647,75.744C47.647,63.374,37.619,53.346,25.248,53.346L25.248,69.288ZM17.277,90.172L17.277,108.206L33.219,108.206L33.219,90.172L17.277,90.172ZM74.987,0L74.987,18.034L90.929,18.034L90.929,0L74.987,0ZM82.958,10.063C70.588,10.063,60.559,20.091,60.559,32.462C60.559,44.832,70.588,54.861,82.958,54.861L82.958,38.918C79.392,38.918,76.502,36.028,76.502,32.462C76.502,28.896,79.392,26.006,82.958,26.006L82.958,10.063ZM82.958,26.006C86.524,26.006,89.415,28.896,89.415,32.462C89.415,36.028,86.524,38.918,82.958,38.918L82.958,54.861C95.329,54.861,105.357,44.832,105.357,32.462C105.357,20.091,95.329,10.063,82.958,10.063L82.958,26.006ZM74.987,46.889L74.987,108.206L90.929,108.206L90.929,46.889L74.987,46.889Z"/>
</g>
  <g id="Heavy-L" transform="matrix(1.0,0.0,0.0,1.0,2583.866815708705,1466.6668352399554)">  <path stroke-width="1px" stroke="none" fill="#000000" stroke-dasharray="none" stroke-linecap="butt" stroke-miterlimit="4" stroke-opacity="1" stroke-linejoin="miter" fill-opacity="1" fill-rule="nonzero" d="M18.15,0L18.15,61.317L32.346,61.317L32.346,0L18.15,0ZM25.248,54.219C13.36,54.219,3.722,63.856,3.722,75.744C3.722,87.633,13.36,97.27,25.248,97.27L25.248,83.074C21.2,83.074,17.919,79.792,17.919,75.744C17.919,71.697,21.2,68.415,25.248,68.415L25.248,54.219ZM25.248,68.415C29.296,68.415,32.577,71.697,32.577,75.744C32.577,79.792,29.296,83.074,25.248,83.074L25.248,97.27C37.137,97.27,46.774,87.633,46.774,75.744C46.774,63.856,37.137,54.219,25.248,54.219L25.248,68.415ZM18.15,90.172L18.15,108.206L32.346,108.206L32.346,90.172L18.15,90.172ZM75.86,0L75.86,18.034L90.057,18.034L90.057,0L75.86,0ZM82.958,10.936C71.07,10.936,61.432,20.573,61.432,32.462C61.432,44.35,71.07,53.988,82.958,53.988L82.958,39.791C78.91,39.791,75.629,36.51,75.629,32.462C75.629,28.414,78.91,25.133,82.958,25.133L82.958,10.936ZM82.958,25.133C87.006,25.133,90.287,28.414,90.287,32.462C90.287,36.51,87.006,39.791,82.958,39.791L82.958,53.988C94.847,53.988,104.484,44.35,104.484,32.462C104.484,20.573,94.847,10.936,82.958,10.936L82.958,25.133ZM75.86,46.889L75.86,108.206L90.057,108.206L90.057,46.889L75.86,46.889Z"/>
</g>
  <g id="Bold-L" transform="matrix(1.0,0.0,0.0,1.0,2287.156815708705,1466.6668352399554)">  <path fill="#000000" stroke-dasharray="none" stroke-linejoin="miter" fill-opacity="1" stroke="none" stroke-width="1px" stroke-opacity="1" stroke-linecap="butt" fill-rule="nonzero" stroke-miterlimit="4" d="M19.023,0L19.023,61.317L31.474,61.317L31.474,0L19.023,0ZM25.248,55.091C13.842,55.091,4.595,64.338,4.595,75.744C4.595,87.151,13.842,96.397,25.248,96.397L25.248,83.947C20.718,83.947,17.046,80.274,17.046,75.744C17.046,71.215,20.718,67.542,25.248,67.542L25.248,55.091ZM25.248,67.542C29.778,67.542,33.45,71.215,33.45,75.744C33.45,80.274,29.778,83.947,25.248,83.947L25.248,96.397C36.655,96.397,45.901,87.151,45.901,75.744C45.901,64.338,36.654,55.091,25.248,55.091L25.248,67.542ZM19.023,90.172L19.023,108.206L31.474,108.206L31.474,90.172L19.023,90.172ZM76.733,0L76.733,18.034L89.184,18.034L89.184,0L76.733,0ZM82.958,11.809C71.552,11.809,62.305,21.056,62.305,32.462C62.305,43.868,71.552,53.115,82.958,53.115L82.958,40.664C78.428,40.664,74.756,36.992,74.756,32.462C74.756,27.932,78.428,24.26,82.958,24.26L82.958,11.809ZM82.958,24.26C87.488,24.26,91.16,27.932,91.16,32.462C91.16,36.992,87.488,40.664,82.958,40.664L82.958,53.115C94.365,53.115,103.611,43.868,103.611,32.462C103.611,21.056,94.365,11.809,82.958,11.809L82.958,24.26ZM76.733,46.889L76.733,108.206L89.184,108.206L89.184,46.889L76.733,46.889Z"/>
</g>
  <g id="Semibold-L" transform="matrix(1.0,0.0,0.0,1.0,1990.4468157087053,1466.6668352399554)">  <path stroke-miterlimit="4" stroke-width="1px" stroke-linejoin="miter" stroke-dasharray="none" stroke-linecap="butt" stroke-opacity="1" stroke="none" fill-rule="nonzero" fill-opacity="1" fill="#000000" d="M19.896,0L19.896,61.317L30.601,61.317L30.601,0L19.896,0ZM25.248,55.964C14.324,55.964,5.468,64.82,5.468,75.744C5.468,86.669,14.324,95.525,25.248,95.525L25.248,84.819C20.236,84.819,16.173,80.757,16.173,75.744C16.173,70.733,20.236,66.67,25.248,66.67L25.248,55.964ZM25.248,66.67C30.26,66.67,34.323,70.733,34.323,75.744C34.323,80.757,30.26,84.819,25.248,84.819L25.248,95.525C36.172,95.525,45.028,86.669,45.028,75.744C45.028,64.82,36.172,55.964,25.248,55.964L25.248,66.67ZM19.896,90.172L19.896,108.206L30.601,108.206L30.601,90.172L19.896,90.172ZM77.606,0L77.606,18.034L88.311,18.034L88.311,0L77.606,0ZM82.958,12.682C72.034,12.682,63.178,21.538,63.178,32.462C63.178,43.386,72.034,52.242,82.958,52.242L82.958,41.537C77.946,41.537,73.883,37.474,73.883,32.462C73.883,27.45,77.946,23.387,82.958,23.387L82.958,12.682ZM82.958,23.387C87.97,23.387,92.033,27.45,92.033,32.462C92.033,37.474,87.97,41.537,82.958,41.537L82.958,52.242C93.883,52.242,102.738,43.386,102.738,32.462C102.738,21.538,93.883,12.682,82.958,12.682L82.958,23.387ZM77.606,46.889L77.606,108.206L88.311,108.206L88.311,46.889L77.606,46.889Z"/>
</g>
  <g id="Medium-L" transform="matrix(1.0,0.0,0.0,1.0,1693.7368157087053,1466.6668352399554)">  <path fill-opacity="1" fill="#000000" stroke="none" stroke-miterlimit="4" stroke-opacity="1" stroke-linecap="butt" stroke-dasharray="none" stroke-linejoin="miter" fill-rule="nonzero" stroke-width="1px" d="M20.768,0L20.768,61.317L29.728,61.317L29.728,0L20.768,0ZM25.248,56.837C14.806,56.837,6.341,65.302,6.341,75.744C6.341,86.187,14.806,94.652,25.248,94.652L25.248,85.692C19.754,85.692,15.3,81.239,15.3,75.744C15.3,70.25,19.754,65.797,25.248,65.797L25.248,56.837ZM25.248,65.797C30.742,65.797,35.196,70.25,35.196,75.744C35.196,81.239,30.742,85.692,25.248,85.692L25.248,94.652C35.69,94.652,44.155,86.187,44.155,75.744C44.155,65.302,35.69,56.837,25.248,56.837L25.248,65.797ZM20.768,90.172L20.768,108.206L29.728,108.206L29.728,90.172L20.768,90.172ZM78.478,0L78.478,18.034L87.438,18.034L87.438,0L78.478,0ZM82.958,13.555C72.516,13.555,64.051,22.02,64.051,32.462C64.051,42.904,72.516,51.369,82.958,51.369L82.958,42.41C77.464,42.41,73.01,37.956,73.01,32.462C73.01,26.968,77.464,22.514,82.958,22.514L82.958,13.555ZM82.958,22.514C88.452,22.514,92.906,26.968,92.906,32.462C92.906,37.956,88.452,42.41,82.958,42.41L82.958,51.369C93.401,51.369,101.865,42.904,101.865,32.462C101.865,22.02,93.401,13.555,82.958,13.555L82.958,22.514ZM78.478,46.889L78.478,108.206L87.438,108.206L87.438,46.889L78.478,46.889Z"/>
</g>
  <g id="Regular-L" transform="matrix(1.0,0.0,0.0,1.0,1397.0268157087053,1466.6668352399554)">  <path stroke-dasharray="none" stroke-width="1px" fill-rule="nonzero" stroke-opacity="1" stroke="none" stroke-linejoin="miter" stroke-linecap="butt" fill-opacity="1" stroke-miterlimit="4" fill="#000000" d="M21.641,0L21.641,61.317L28.855,61.317L28.855,0L21.641,0ZM25.248,57.71C15.288,57.71,7.214,65.784,7.214,75.744C7.214,85.705,15.288,93.779,25.248,93.779L25.248,86.565C19.272,86.565,14.428,81.721,14.428,75.744C14.428,69.768,19.272,64.924,25.248,64.924L25.248,57.71ZM25.248,64.924C31.224,64.924,36.069,69.768,36.069,75.744C36.069,81.721,31.224,86.565,25.248,86.565L25.248,93.779C35.208,93.779,43.283,85.705,43.283,75.744C43.283,65.784,35.208,57.71,25.248,57.71L25.248,64.924ZM21.641,90.172L21.641,108.206L28.855,108.206L28.855,90.172L21.641,90.172ZM79.351,0L79.351,18.034L86.565,18.034L86.565,0L79.351,0ZM82.958,14.428C72.998,14.428,64.924,22.502,64.924,32.462C64.924,42.422,72.998,50.496,82.958,50.496L82.958,43.283C76.982,43.283,72.138,38.438,72.138,32.462C72.138,26.486,76.982,21.641,82.958,21.641L82.958,14.428ZM82.958,21.641C88.934,21.641,93.779,26.486,93.779,32.462C93.779,38.438,88.934,43.283,82.958,43.283L82.958,50.496C92.918,50.496,100.993,42.422,100.993,32.462C100.993,22.502,92.918,14.428,82.958,14.428L82.958,21.641ZM79.351,46.889L79.351,108.206L86.565,108.206L86.565,46.889L79.351,46.889Z"/>
</g>
  <g id="Light-L" transform="matrix(1.0,0.0,0.0,1.0,1100.3168157087055,1466.6668352399554)">  <path stroke-linecap="butt" stroke-linejoin="miter" stroke-width="1px" stroke-miterlimit="4" stroke-dasharray="none" stroke="none" fill-rule="nonzero" fill-opacity="1" fill="#000000" stroke-opacity="1" d="M22.242,0L22.242,61.317L28.254,61.317L28.254,0L22.242,0ZM25.248,58.311C15.62,58.311,7.815,66.116,7.815,75.744C7.815,85.373,15.62,93.178,25.248,93.178L25.248,87.166C18.94,87.166,13.826,82.053,13.826,75.744C13.826,69.436,18.94,64.323,25.248,64.323L25.248,58.311ZM25.248,64.323C31.556,64.323,36.67,69.436,36.67,75.744C36.67,82.053,31.556,87.166,25.248,87.166L25.248,93.178C34.876,93.178,42.681,85.373,42.681,75.744C42.681,66.116,34.876,58.311,25.248,58.311L25.248,64.323ZM22.242,90.172L22.242,108.206L28.254,108.206L28.254,90.172L22.242,90.172ZM79.952,0L79.952,18.034L85.964,18.034L85.964,0L79.952,0ZM82.958,15.029C73.33,15.029,65.525,22.834,65.525,32.462C65.525,42.09,73.33,49.895,82.958,49.895L82.958,43.884C76.65,43.884,71.536,38.77,71.536,32.462C71.536,26.154,76.65,21.04,82.958,21.04L82.958,15.029ZM82.958,21.04C89.266,21.04,94.38,26.154,94.38,32.462C94.38,38.77,89.266,43.884,82.958,43.884L82.958,49.895C92.586,49.895,100.391,42.09,100.391,32.462C100.391,22.834,92.586,15.029,82.958,15.029L82.958,21.04ZM79.952,46.889L79.952,108.206L85.964,108.206L85.964,46.889L79.952,46.889Z"/>
</g>
  <g id="Thin-L" transform="matrix(1.0,0.0,0.0,1.0,803.6068157087054,1466.6668352399554)">  <path fill="#000000" fill-opacity="1" stroke-width="1px" fill-rule="nonzero" stroke="none" stroke-linecap="butt" stroke-miterlimit="4" stroke-dasharray="none" stroke-linejoin="miter" stroke-opacity="1" d="M22.844,0L22.844,61.317L27.653,61.317L27.653,0L22.844,0ZM25.248,58.912C15.952,58.912,8.416,66.448,8.416,75.744C8.416,85.041,15.952,92.577,25.248,92.577L25.248,87.767C18.608,87.767,13.225,82.385,13.225,75.744C13.225,69.104,18.608,63.722,25.248,63.722L25.248,58.912ZM25.248,63.722C31.888,63.722,37.271,69.104,37.271,75.744C37.271,82.385,31.888,87.767,25.248,87.767L25.248,92.577C34.544,92.577,42.08,85.041,42.08,75.744C42.08,66.448,34.544,58.912,25.248,58.912L25.248,63.722ZM22.844,90.172L22.844,108.206L27.653,108.206L27.653,90.172L22.844,90.172ZM80.554,0L80.554,18.034L85.363,18.034L85.363,0L80.554,0ZM82.958,15.63C73.662,15.63,66.126,23.166,66.126,32.462C66.126,41.758,73.662,49.294,82.958,49.294L82.958,44.485C76.318,44.485,70.935,39.102,70.935,32.462C70.935,25.822,76.318,20.439,82.958,20.439L82.958,15.63ZM82.958,20.439C89.598,20.439,94.981,25.822,94.981,32.462C94.981,39.102,89.598,44.485,82.958,44.485L82.958,49.294C92.254,49.294,99.79,41.758,99.79,32.462C99.79,23.166,92.254,15.63,82.958,15.63L82.958,20.439ZM80.554,46.889L80.554,108.206L85.363,108.206L85.363,46.889L80.554,46.889Z"/>
</g>
  <g id="Ultralight-L" transform="matrix(1.0,0.0,0.0,1.0,506.89681570870533,1466.6668352399554)">  <path stroke-linecap="butt" stroke-dasharray="none" fill-opacity="1" stroke-miterlimit="4" fill="#000000" stroke="none" fill-rule="nonzero" stroke-width="1px" stroke-linejoin="miter" stroke-opacity="1" d="M23.445,0L23.445,61.317L27.052,61.317L27.052,0L23.445,0ZM25.248,59.514C16.284,59.514,9.017,66.78,9.017,75.744C9.017,84.709,16.284,91.975,25.248,91.975L25.248,88.369C18.276,88.369,12.624,82.717,12.624,75.744C12.624,68.772,18.276,63.12,25.248,63.12L25.248,59.514ZM25.248,63.12C32.22,63.12,37.872,68.772,37.872,75.744C37.872,82.717,32.22,88.369,25.248,88.369L25.248,91.975C34.212,91.975,41.479,84.709,41.479,75.744C41.479,66.78,34.212,59.514,25.248,59.514L25.248,63.12ZM23.445,90.172L23.445,108.206L27.052,108.206L27.052,90.172L23.445,90.172ZM81.155,0L81.155,18.034L84.762,18.034L84.762,0L81.155,0ZM82.958,16.231C73.994,16.231,66.727,23.498,66.727,32.462C66.727,41.426,73.994,48.693,82.958,48.693L82.958,45.086C75.986,45.086,70.334,39.434,70.334,32.462C70.334,25.49,75.986,19.838,82.958,19.838L82.958,16.231ZM82.958,19.838C89.93,19.838,95.582,25.49,95.582,32.462C95.582,39.434,89.93,45.086,82.958,45.086L82.958,48.693C91.922,48.693,99.189,41.426,99.189,32.462C99.189,23.498,91.922,16.231,82.958,16.231L82.958,19.838ZM81.155,46.889L81.155,108.206L84.762,108.206L84.762,46.889L81.155,46.889Z"/>
</g>
  <g id="Black-M" transform="matrix(1.0,0.0,0.0,1.0,2892.7395470610118,1048.829566592262)">  <path stroke-width="1px" stroke-dasharray="none" fill-opacity="1" stroke-opacity="1" stroke-linecap="butt" fill-rule="nonzero" stroke="none" stroke-miterlimit="4" fill="#000000" stroke-linejoin="miter" d="M13.393,0L13.393,47.533L25.751,47.533L25.751,0L13.393,0ZM19.572,41.353C9.983,41.353,2.209,49.127,2.209,58.717C2.209,68.306,9.983,76.08,19.572,76.08L19.572,63.722C16.808,63.722,14.567,61.481,14.567,58.717C14.567,55.953,16.808,53.712,19.572,53.712L19.572,41.353ZM19.572,53.712C22.336,53.712,24.577,55.953,24.577,58.717C24.577,61.481,22.336,63.722,19.572,63.722L19.572,76.08C29.162,76.08,36.936,68.306,36.936,58.717C36.936,49.127,29.162,41.353,19.572,41.353L19.572,53.712ZM13.393,69.901L13.393,83.881L25.751,83.881L25.751,69.901L13.393,69.901ZM58.129,0L58.129,13.98L70.488,13.98L70.488,0L58.129,0ZM64.309,7.801C54.719,7.801,46.945,15.575,46.945,25.164C46.945,34.754,54.719,42.528,64.309,42.528L64.309,30.169C61.544,30.169,59.304,27.928,59.304,25.164C59.304,22.4,61.544,20.159,64.309,20.159L64.309,7.801ZM64.309,20.159C67.073,20.159,69.314,22.4,69.314,25.164C69.314,27.928,67.073,30.169,64.309,30.169L64.309,42.528C73.898,42.528,81.672,34.754,81.672,25.164C81.672,15.575,73.898,7.801,64.309,7.801L64.309,20.159ZM58.129,36.348L58.129,83.881L70.488,83.881L70.488,36.348L58.129,36.348Z"/>
</g>
  <g id="Heavy-M" transform="matrix(1.0,0.0,0.0,1.0,2596.0295470610117,1048.829566592262)">  <path stroke-width="1px" stroke="none" fill="#000000" stroke-dasharray="none" stroke-linecap="butt" stroke-miterlimit="4" stroke-opacity="1" stroke-linejoin="miter" fill-opacity="1" fill-rule="nonzero" d="M14.07,0L14.07,47.533L25.075,47.533L25.075,0L14.07,0ZM19.572,42.03C10.356,42.03,2.886,49.501,2.886,58.717C2.886,67.933,10.356,75.403,19.572,75.403L19.572,64.398C16.434,64.398,13.891,61.855,13.891,58.717C13.891,55.579,16.434,53.035,19.572,53.035L19.572,42.03ZM19.572,53.035C22.71,53.035,25.254,55.579,25.254,58.717C25.254,61.855,22.71,64.398,19.572,64.398L19.572,75.403C28.788,75.403,36.259,67.933,36.259,58.717C36.259,49.501,28.788,42.03,19.572,42.03L19.572,53.035ZM14.07,69.901L14.07,83.881L25.075,83.881L25.075,69.901L14.07,69.901ZM58.806,0L58.806,13.98L69.811,13.98L69.811,0L58.806,0ZM64.309,8.478C55.093,8.478,47.622,15.948,47.622,25.164C47.622,34.38,55.093,41.851,64.309,41.851L64.309,30.846C61.171,30.846,58.627,28.302,58.627,25.164C58.627,22.026,61.171,19.483,64.309,19.483L64.309,8.478ZM64.309,19.483C67.447,19.483,69.99,22.026,69.99,25.164C69.99,28.302,67.447,30.846,64.309,30.846L64.309,41.851C73.525,41.851,80.995,34.38,80.995,25.164C80.995,15.948,73.525,8.478,64.309,8.478L64.309,19.483ZM58.806,36.348L58.806,83.881L69.811,83.881L69.811,36.348L58.806,36.348Z"/>
</g>
  <g id="Bold-M" transform="matrix(1.0,0.0,0.0,1.0,2299.3195470610117,1048.829566592262)">  <path fill="#000000" stroke-dasharray="none" stroke-linejoin="miter" fill-opacity="1" stroke="none" stroke-width="1px" stroke-opacity="1" stroke-linecap="butt" fill-rule="nonzero" stroke-miterlimit="4" d="M14.746,0L14.746,47.533L24.398,47.533L24.398,0L14.746,0ZM19.572,42.707C10.73,42.707,3.562,49.875,3.562,58.717C3.562,67.559,10.73,74.727,19.572,74.727L19.572,65.075C16.061,65.075,13.214,62.228,13.214,58.717C13.214,55.205,16.061,52.358,19.572,52.358L19.572,42.707ZM19.572,52.358C23.084,52.358,25.93,55.205,25.93,58.717C25.93,62.228,23.084,65.075,19.572,65.075L19.572,74.727C28.414,74.727,35.582,67.559,35.582,58.717C35.582,49.875,28.414,42.707,19.572,42.707L19.572,52.358ZM14.746,69.901L14.746,83.881L24.398,83.881L24.398,69.901L14.746,69.901ZM59.483,0L59.483,13.98L69.135,13.98L69.135,0L59.483,0ZM64.309,9.154C55.466,9.154,48.299,16.322,48.299,25.164C48.299,34.006,55.466,41.174,64.309,41.174L64.309,31.522C60.797,31.522,57.951,28.676,57.951,25.164C57.951,21.653,60.797,18.806,64.309,18.806L64.309,9.154ZM64.309,18.806C67.82,18.806,70.667,21.653,70.667,25.164C70.667,28.676,67.82,31.522,64.309,31.522L64.309,41.174C73.151,41.174,80.319,34.006,80.319,25.164C80.319,16.322,73.151,9.154,64.309,9.154L64.309,18.806ZM59.483,36.348L59.483,83.881L69.135,83.881L69.135,36.348L59.483,36.348Z"/>
</g>
  <g id="Semibold-M" transform="matrix(1.0,0.0,0.0,1.0,2002.6095470610119,1048.829566592262)">  <path stroke-miterlimit="4" stroke-width="1px" stroke-linejoin="miter" stroke-dasharray="none" stroke-linecap="butt" stroke-opacity="1" stroke="none" fill-rule="nonzero" fill-opacity="1" fill="#000000" d="M15.423,0L15.423,47.533L23.722,47.533L23.722,0L15.423,0ZM19.572,43.383C11.104,43.383,4.239,50.248,4.239,58.717C4.239,67.185,11.104,74.05,19.572,74.05L19.572,65.751C15.687,65.751,12.537,62.602,12.537,58.717C12.537,54.831,15.687,51.682,19.572,51.682L19.572,43.383ZM19.572,51.682C23.457,51.682,26.607,54.831,26.607,58.717C26.607,62.602,23.458,65.751,19.572,65.751L19.572,74.05C28.041,74.05,34.906,67.185,34.906,58.717C34.906,50.248,28.041,43.383,19.572,43.383L19.572,51.682ZM15.423,69.901L15.423,83.881L23.722,83.881L23.722,69.901L15.423,69.901ZM60.159,0L60.159,13.98L68.458,13.98L68.458,0L60.159,0ZM64.309,9.831C55.84,9.831,48.975,16.696,48.975,25.164C48.975,33.633,55.84,40.498,64.309,40.498L64.309,32.199C60.423,32.199,57.274,29.05,57.274,25.164C57.274,21.279,60.423,18.129,64.309,18.129L64.309,9.831ZM64.309,18.129C68.194,18.129,71.344,21.279,71.344,25.164C71.344,29.05,68.194,32.199,64.309,32.199L64.309,40.498C72.777,40.498,79.642,33.633,79.642,25.164C79.642,16.696,72.777,9.831,64.309,9.831L64.309,18.129ZM60.159,36.348L60.159,83.881L68.458,83.881L68.458,36.348L60.159,36.348Z"/>
</g>
  <g id="Medium-M" transform="matrix(1.0,0.0,0.0,1.0,1705.8995470610118,1048.829566592262)">  <path fill-opacity="1" fill="#000000" stroke="none" stroke-miterlimit="4" stroke-opacity="1" stroke-linecap="butt" stroke-dasharray="none" stroke-linejoin="miter" fill-rule="nonzero" stroke-width="1px" d="M16.1,0L16.1,47.533L23.045,47.533L23.045,0L16.1,0ZM19.572,44.06C11.477,44.06,4.915,50.622,4.915,58.717C4.915,66.811,11.477,73.373,19.572,73.373L19.572,66.428C15.313,66.428,11.861,62.976,11.861,58.717C11.861,54.458,15.313,51.005,19.572,51.005L19.572,44.06ZM19.572,51.005C23.831,51.005,27.284,54.458,27.284,58.717C27.284,62.976,23.831,66.428,19.572,66.428L19.572,73.373C27.667,73.373,34.229,66.811,34.229,58.717C34.229,50.622,27.667,44.06,19.572,44.06L19.572,51.005ZM16.1,69.901L16.1,83.881L23.045,83.881L23.045,69.901L16.1,69.901ZM60.836,0L60.836,13.98L67.781,13.98L67.781,0L60.836,0ZM64.309,10.507C56.214,10.507,49.652,17.069,49.652,25.164C49.652,33.259,56.214,39.821,64.309,39.821L64.309,32.876C60.05,32.876,56.597,29.423,56.597,25.164C56.597,20.905,60.05,17.453,64.309,17.453L64.309,10.507ZM64.309,17.453C68.568,17.453,72.02,20.905,72.02,25.164C72.02,29.423,68.568,32.876,64.309,32.876L64.309,39.821C72.404,39.821,78.965,33.259,78.965,25.164C78.965,17.069,72.404,10.507,64.309,10.507L64.309,17.453ZM60.836,36.348L60.836,83.881L67.781,83.881L67.781,36.348L60.836,36.348Z"/>
</g>
  <g id="Regular-M" transform="matrix(1.0,0.0,0.0,1.0,1409.1895470610118,1048.829566592262)">  <path stroke-dasharray="none" stroke-width="1px" fill-rule="nonzero" stroke-opacity="1" stroke="none" stroke-linejoin="miter" stroke-linecap="butt" fill-opacity="1" stroke-miterlimit="4" fill="#000000" d="M16.776,0L16.776,47.533L22.368,47.533L22.368,0L16.776,0ZM19.572,44.736C11.851,44.736,5.592,50.996,5.592,58.717C5.592,66.438,11.851,72.697,19.572,72.697L19.572,67.105C14.94,67.105,11.184,63.349,11.184,58.717C11.184,54.084,14.94,50.329,19.572,50.329L19.572,44.736ZM19.572,50.329C24.205,50.329,27.96,54.084,27.96,58.717C27.96,63.349,24.205,67.105,19.572,67.105L19.572,72.697C27.293,72.697,33.552,66.438,33.552,58.717C33.552,50.996,27.293,44.736,19.572,44.736L19.572,50.329ZM16.776,69.901L16.776,83.881L22.368,83.881L22.368,69.901L16.776,69.901ZM61.513,0L61.513,13.98L67.105,13.98L67.105,0L61.513,0ZM64.309,11.184C56.588,11.184,50.329,17.443,50.329,25.164C50.329,32.885,56.588,39.144,64.309,39.144L64.309,33.552C59.676,33.552,55.921,29.797,55.921,25.164C55.921,20.532,59.676,16.776,64.309,16.776L64.309,11.184ZM64.309,16.776C68.941,16.776,72.697,20.532,72.697,25.164C72.697,29.797,68.941,33.552,64.309,33.552L64.309,39.144C72.03,39.144,78.289,32.885,78.289,25.164C78.289,17.443,72.03,11.184,64.309,11.184L64.309,16.776ZM61.513,36.348L61.513,83.881L67.105,83.881L67.105,36.348L61.513,36.348Z"/>
</g>
  <g id="Light-M" transform="matrix(1.0,0.0,0.0,1.0,1112.479547061012,1048.829566592262)">  <path stroke-linecap="butt" stroke-linejoin="miter" stroke-width="1px" stroke-miterlimit="4" stroke-dasharray="none" stroke="none" fill-rule="nonzero" fill-opacity="1" fill="#000000" stroke-opacity="1" d="M17.242,0L17.242,47.533L21.902,47.533L21.902,0L17.242,0ZM19.572,45.202C12.109,45.202,6.058,51.253,6.058,58.717C6.058,66.18,12.108,72.231,19.572,72.231L19.572,67.571C14.682,67.571,10.718,63.607,10.718,58.717C10.718,53.827,14.682,49.863,19.572,49.863L19.572,45.202ZM19.572,49.863C24.462,49.863,28.426,53.827,28.426,58.717C28.426,63.607,24.462,67.571,19.572,67.571L19.572,72.231C27.036,72.231,33.086,66.18,33.086,58.717C33.086,51.253,27.036,45.202,19.572,45.202L19.572,49.863ZM17.242,69.901L17.242,83.881L21.902,83.881L21.902,69.901L17.242,69.901ZM61.979,0L61.979,13.98L66.639,13.98L66.639,0L61.979,0ZM64.309,11.65C56.845,11.65,50.795,17.701,50.795,25.164C50.795,32.628,56.845,38.678,64.309,38.678L64.309,34.018C59.419,34.018,55.455,30.054,55.455,25.164C55.455,20.274,59.419,16.31,64.309,16.31L64.309,11.65ZM64.309,16.31C69.199,16.31,73.163,20.274,73.163,25.164C73.163,30.054,69.199,34.018,64.309,34.018L64.309,38.678C71.772,38.678,77.823,32.628,77.823,25.164C77.823,17.701,71.772,11.65,64.309,11.65L64.309,16.31ZM61.979,36.348L61.979,83.881L66.639,83.881L66.639,36.348L61.979,36.348Z"/>
</g>
  <g id="Thin-M" transform="matrix(1.0,0.0,0.0,1.0,815.769547061012,1048.829566592262)">  <path fill="#000000" fill-opacity="1" stroke-width="1px" fill-rule="nonzero" stroke="none" stroke-linecap="butt" stroke-miterlimit="4" stroke-dasharray="none" stroke-linejoin="miter" stroke-opacity="1" d="M17.708,0L17.708,47.533L21.436,47.533L21.436,0L17.708,0ZM19.572,45.668C12.366,45.668,6.524,51.51,6.524,58.717C6.524,65.923,12.366,71.765,19.572,71.765L19.572,68.037C14.425,68.037,10.252,63.864,10.252,58.717C10.252,53.569,14.425,49.397,19.572,49.397L19.572,45.668ZM19.572,49.397C24.72,49.397,28.892,53.569,28.892,58.717C28.892,63.864,24.72,68.037,19.572,68.037L19.572,71.765C26.779,71.765,32.62,65.923,32.62,58.717C32.62,51.51,26.779,45.668,19.572,45.668L19.572,49.397ZM17.708,69.901L17.708,83.881L21.436,83.881L21.436,69.901L17.708,69.901ZM62.445,0L62.445,13.98L66.173,13.98L66.173,0L62.445,0ZM64.309,12.116C57.102,12.116,51.261,17.958,51.261,25.164C51.261,32.371,57.102,38.212,64.309,38.212L64.309,34.484C59.161,34.484,54.989,30.312,54.989,25.164C54.989,20.017,59.161,15.844,64.309,15.844L64.309,12.116ZM64.309,15.844C69.456,15.844,73.629,20.017,73.629,25.164C73.629,30.312,69.456,34.484,64.309,34.484L64.309,38.212C71.515,38.212,77.357,32.371,77.357,25.164C77.357,17.958,71.515,12.116,64.309,12.116L64.309,15.844ZM62.445,36.348L62.445,83.881L66.173,83.881L66.173,36.348L62.445,36.348Z"/>
</g>
  <g id="Ultralight-M" transform="matrix(1.0,0.0,0.0,1.0,519.0595470610119,1048.829566592262)">  <path stroke-linecap="butt" stroke-dasharray="none" fill-opacity="1" stroke-miterlimit="4" fill="#000000" stroke="none" fill-rule="nonzero" stroke-width="1px" stroke-linejoin="miter" stroke-opacity="1" d="M18.174,0L18.174,47.533L20.97,47.533L20.97,0L18.174,0ZM19.572,46.134C12.623,46.134,6.99,51.768,6.99,58.717C6.99,65.666,12.623,71.299,19.572,71.299L19.572,68.503C14.167,68.503,9.786,64.121,9.786,58.717C9.786,53.312,14.167,48.931,19.572,48.931L19.572,46.134ZM19.572,48.931C24.977,48.931,29.358,53.312,29.358,58.717C29.358,64.121,24.977,68.503,19.572,68.503L19.572,71.299C26.521,71.299,32.154,65.666,32.154,58.717C32.154,51.768,26.521,46.134,19.572,46.134L19.572,48.931ZM18.174,69.901L18.174,83.881L20.97,83.881L20.97,69.901L18.174,69.901ZM62.911,0L62.911,13.98L65.707,13.98L65.707,0L62.911,0ZM64.309,12.582C57.36,12.582,51.727,18.215,51.727,25.164C51.727,32.113,57.36,37.746,64.309,37.746L64.309,34.95C58.904,34.95,54.523,30.569,54.523,25.164C54.523,19.759,58.904,15.378,64.309,15.378L64.309,12.582ZM64.309,15.378C69.714,15.378,74.095,19.759,74.095,25.164C74.095,30.569,69.714,34.95,64.309,34.95L64.309,37.746C71.258,37.746,76.891,32.113,76.891,25.164C76.891,18.215,71.258,12.582,64.309,12.582L64.309,15.378ZM62.911,36.348L62.911,83.881L65.707,83.881L65.707,36.348L62.911,36.348Z"/>
</g>
  <g id="Black-S" transform="matrix(1.0,0.0,0.0,1.0,2901.840625348772,627.9306448800223)">  <path stroke-width="1px" stroke-dasharray="none" fill-opacity="1" stroke-opacity="1" stroke-linecap="butt" fill-rule="nonzero" stroke="none" stroke-miterlimit="4" fill="#000000" stroke-linejoin="miter" d="M10.487,0L10.487,37.218L20.163,37.218L20.163,0L10.487,0ZM15.325,32.38C7.816,32.38,1.73,38.467,1.73,45.975C1.73,53.484,7.816,59.571,15.325,59.571L15.325,49.894C13.161,49.894,11.406,48.14,11.406,45.975C11.406,43.811,13.161,42.056,15.325,42.056L15.325,32.38ZM15.325,42.056C17.489,42.056,19.244,43.811,19.244,45.975C19.244,48.14,17.489,49.894,15.325,49.894L15.325,59.571C22.834,59.571,28.921,53.484,28.921,45.975C28.921,38.467,22.834,32.38,15.325,32.38L15.325,42.056ZM10.487,54.732L10.487,65.679L20.163,65.679L20.163,54.732L10.487,54.732ZM45.515,0L45.515,10.946L55.192,10.946L55.192,0L45.515,0ZM50.354,6.108C42.845,6.108,36.758,12.195,36.758,19.704C36.758,27.212,42.845,33.299,50.354,33.299L50.354,23.622C48.189,23.622,46.435,21.868,46.435,19.704C46.435,17.539,48.189,15.785,50.354,15.785L50.354,6.108ZM50.354,15.785C52.518,15.785,54.273,17.539,54.273,19.704C54.273,21.868,52.518,23.622,50.354,23.622L50.354,33.299C57.862,33.299,63.949,27.212,63.949,19.704C63.949,12.195,57.862,6.108,50.354,6.108L50.354,15.785ZM45.515,28.461L45.515,65.679L55.192,65.679L55.192,28.461L45.515,28.461Z"/>
</g>
  <g id="Heavy-S" transform="matrix(1.0,0.0,0.0,1.0,2605.130625348772,627.9306448800223)">  <path stroke-width="1px" stroke="none" fill="#000000" stroke-dasharray="none" stroke-linecap="butt" stroke-miterlimit="4" stroke-opacity="1" stroke-linejoin="miter" fill-opacity="1" fill-rule="nonzero" d="M11.017,0L11.017,37.218L19.634,37.218L19.634,0L11.017,0ZM15.325,32.909C8.109,32.909,2.259,38.759,2.259,45.975C2.259,53.191,8.109,59.041,15.325,59.041L15.325,50.424C12.868,50.424,10.876,48.432,10.876,45.975C10.876,43.518,12.868,41.526,15.325,41.526L15.325,32.909ZM15.325,41.526C17.782,41.526,19.774,43.518,19.774,45.975C19.774,48.432,17.782,50.424,15.325,50.424L15.325,59.041C22.541,59.041,28.391,53.191,28.391,45.975C28.391,38.759,22.541,32.909,15.325,32.909L15.325,41.526ZM11.017,54.732L11.017,65.679L19.634,65.679L19.634,54.732L11.017,54.732ZM46.045,0L46.045,10.946L54.662,10.946L54.662,0L46.045,0ZM50.354,6.638C43.138,6.638,37.288,12.488,37.288,19.704C37.288,26.92,43.138,32.769,50.354,32.769L50.354,24.152C47.897,24.152,45.905,22.161,45.905,19.704C45.905,17.247,47.897,15.255,50.354,15.255L50.354,6.638ZM50.354,15.255C52.811,15.255,54.802,17.247,54.802,19.704C54.802,22.161,52.811,24.152,50.354,24.152L50.354,32.769C57.57,32.769,63.419,26.92,63.419,19.704C63.419,12.488,57.57,6.638,50.354,6.638L50.354,15.255ZM46.045,28.461L46.045,65.679L54.662,65.679L54.662,28.461L46.045,28.461Z"/>
</g>
  <g id="Bold-S" transform="matrix(1.0,0.0,0.0,1.0,2308.420625348772,627.9306448800223)">  <path fill="#000000" stroke-dasharray="none" stroke-linejoin="miter" fill-opacity="1" stroke="none" stroke-width="1px" stroke-opacity="1" stroke-linecap="butt" fill-rule="nonzero" stroke-miterlimit="4" d="M11.546,0L11.546,37.218L19.104,37.218L19.104,0L11.546,0ZM15.325,33.439C8.402,33.439,2.789,39.052,2.789,45.975C2.789,52.899,8.402,58.511,15.325,58.511L15.325,50.954C12.575,50.954,10.347,48.725,10.347,45.975C10.347,43.226,12.576,40.997,15.325,40.997L15.325,33.439ZM15.325,40.997C18.075,40.997,20.303,43.226,20.303,45.975C20.303,48.725,18.075,50.954,15.325,50.954L15.325,58.511C22.248,58.511,27.861,52.899,27.861,45.975C27.861,39.052,22.248,33.439,15.325,33.439L15.325,40.997ZM11.546,54.732L11.546,65.679L19.104,65.679L19.104,54.732L11.546,54.732ZM46.575,0L46.575,10.946L54.132,10.946L54.132,0L46.575,0ZM50.354,7.168C43.43,7.168,37.818,12.78,37.818,19.704C37.818,26.627,43.43,32.24,50.354,32.24L50.354,24.682C47.604,24.682,45.375,22.453,45.375,19.704C45.375,16.954,47.604,14.725,50.354,14.725L50.354,7.168ZM50.354,14.725C53.103,14.725,55.332,16.954,55.332,19.704C55.332,22.453,53.103,24.682,50.354,24.682L50.354,32.24C57.277,32.24,62.89,26.627,62.89,19.704C62.89,12.78,57.277,7.168,50.354,7.168L50.354,14.725ZM46.575,28.461L46.575,65.679L54.132,65.679L54.132,28.461L46.575,28.461Z"/>
</g>
  <g id="Semibold-S" transform="matrix(1.0,0.0,0.0,1.0,2011.7106253487723,627.9306448800223)">  <path stroke-miterlimit="4" stroke-width="1px" stroke-linejoin="miter" stroke-dasharray="none" stroke-linecap="butt" stroke-opacity="1" stroke="none" fill-rule="nonzero" fill-opacity="1" fill="#000000" d="M12.076,0L12.076,37.218L18.574,37.218L18.574,0L12.076,0ZM15.325,33.969C8.694,33.969,3.319,39.344,3.319,45.975C3.319,52.606,8.694,57.981,15.325,57.981L15.325,51.483C12.283,51.483,9.817,49.017,9.817,45.975C9.817,42.933,12.283,40.467,15.325,40.467L15.325,33.969ZM15.325,40.467C18.367,40.467,20.833,42.933,20.833,45.975C20.833,49.017,18.367,51.483,15.325,51.483L15.325,57.981C21.956,57.981,27.331,52.606,27.331,45.975C27.331,39.344,21.956,33.969,15.325,33.969L15.325,40.467ZM12.076,54.732L12.076,65.679L18.574,65.679L18.574,54.732L12.076,54.732ZM47.105,0L47.105,10.946L53.603,10.946L53.603,0L47.105,0ZM50.354,7.698C43.723,7.698,38.348,13.073,38.348,19.704C38.348,26.334,43.723,31.71,50.354,31.71L50.354,25.212C47.312,25.212,44.845,22.746,44.845,19.704C44.845,16.661,47.312,14.195,50.354,14.195L50.354,7.698ZM50.354,14.195C53.396,14.195,55.862,16.661,55.862,19.704C55.862,22.746,53.396,25.212,50.354,25.212L50.354,31.71C56.985,31.71,62.36,26.334,62.36,19.704C62.36,13.073,56.985,7.698,50.354,7.698L50.354,14.195ZM47.105,28.461L47.105,65.679L53.603,65.679L53.603,28.461L47.105,28.461Z"/>
</g>
  <g id="Medium-S" transform="matrix(1.0,0.0,0.0,1.0,1715.0006253487722,627.9306448800223)">  <path fill-opacity="1" fill="#000000" stroke="none" stroke-miterlimit="4" stroke-opacity="1" stroke-linecap="butt" stroke-dasharray="none" stroke-linejoin="miter" fill-rule="nonzero" stroke-width="1px" d="M12.606,0L12.606,37.218L18.044,37.218L18.044,0L12.606,0ZM15.325,34.499C8.987,34.499,3.849,39.637,3.849,45.975C3.849,52.313,8.987,57.451,15.325,57.451L15.325,52.013C11.99,52.013,9.287,49.31,9.287,45.975C9.287,42.64,11.99,39.937,15.325,39.937L15.325,34.499ZM15.325,39.937C18.66,39.937,21.363,42.64,21.363,45.975C21.363,49.31,18.66,52.013,15.325,52.013L15.325,57.451C21.663,57.451,26.801,52.313,26.801,45.975C26.801,39.637,21.663,34.499,15.325,34.499L15.325,39.937ZM12.606,54.732L12.606,65.679L18.044,65.679L18.044,54.732L12.606,54.732ZM47.635,0L47.635,10.946L53.073,10.946L53.073,0L47.635,0ZM50.354,8.227C44.015,8.227,38.877,13.365,38.877,19.704C38.877,26.042,44.015,31.18,50.354,31.18L50.354,25.742C47.019,25.742,44.316,23.038,44.316,19.704C44.316,16.369,47.019,13.666,50.354,13.666L50.354,8.227ZM50.354,13.666C53.689,13.666,56.392,16.369,56.392,19.704C56.392,23.038,53.689,25.742,50.354,25.742L50.354,31.18C56.692,31.18,61.83,26.042,61.83,19.704C61.83,13.365,56.692,8.227,50.354,8.227L50.354,13.666ZM47.635,28.461L47.635,65.679L53.073,65.679L53.073,28.461L47.635,28.461Z"/>
</g>
  <g id="Regular-S" transform="matrix(1.0,0.0,0.0,1.0,1418.2906253487722,627.9306448800223)">  <path stroke-dasharray="none" stroke-width="1px" fill-rule="nonzero" stroke-opacity="1" stroke="none" stroke-linejoin="miter" stroke-linecap="butt" fill-opacity="1" stroke-miterlimit="4" fill="#000000" d="M13.136,0L13.136,37.218L17.514,37.218L17.514,0L13.136,0ZM15.325,35.029C9.279,35.029,4.379,39.93,4.379,45.975C4.379,52.021,9.279,56.922,15.325,56.922L15.325,52.543C11.698,52.543,8.757,49.603,8.757,45.975C8.757,42.348,11.698,39.407,15.325,39.407L15.325,35.029ZM15.325,39.407C18.952,39.407,21.893,42.348,21.893,45.975C21.893,49.603,18.952,52.543,15.325,52.543L15.325,56.922C21.371,56.922,26.271,52.021,26.271,45.975C26.271,39.93,21.371,35.029,15.325,35.029L15.325,39.407ZM13.136,54.732L13.136,65.679L17.514,65.679L17.514,54.732L13.136,54.732ZM48.164,0L48.164,10.946L52.543,10.946L52.543,0L48.164,0ZM50.354,8.757C44.308,8.757,39.407,13.658,39.407,19.704C39.407,25.749,44.308,30.65,50.354,30.65L50.354,26.271C46.726,26.271,43.786,23.331,43.786,19.704C43.786,16.076,46.726,13.136,50.354,13.136L50.354,8.757ZM50.354,13.136C53.981,13.136,56.922,16.076,56.922,19.704C56.922,23.331,53.981,26.271,50.354,26.271L50.354,30.65C56.399,30.65,61.3,25.749,61.3,19.704C61.3,13.658,56.399,8.757,50.354,8.757L50.354,13.136ZM48.164,28.461L48.164,65.679L52.543,65.679L52.543,28.461L48.164,28.461Z"/>
</g>
  <g id="Light-S" transform="matrix(1.0,0.0,0.0,1.0,1121.5806253487724,627.9306448800223)">  <path stroke-linecap="butt" stroke-linejoin="miter" stroke-width="1px" stroke-miterlimit="4" stroke-dasharray="none" stroke="none" fill-rule="nonzero" fill-opacity="1" fill="#000000" stroke-opacity="1" d="M13.501,0L13.501,37.218L17.149,37.218L17.149,0L13.501,0ZM15.325,35.394C9.481,35.394,4.743,40.131,4.743,45.975C4.743,51.819,9.481,56.557,15.325,56.557L15.325,52.908C11.496,52.908,8.392,49.804,8.392,45.975C8.392,42.146,11.496,39.042,15.325,39.042L15.325,35.394ZM15.325,39.042C19.154,39.042,22.258,42.146,22.258,45.975C22.258,49.804,19.154,52.908,15.325,52.908L15.325,56.557C21.169,56.557,25.907,51.819,25.907,45.975C25.907,40.131,21.169,35.394,15.325,35.394L15.325,39.042ZM13.501,54.732L13.501,65.679L17.149,65.679L17.149,54.732L13.501,54.732ZM48.529,0L48.529,10.946L52.178,10.946L52.178,0L48.529,0ZM50.354,9.122C44.51,9.122,39.772,13.86,39.772,19.704C39.772,25.548,44.51,30.285,50.354,30.285L50.354,26.636C46.525,26.636,43.421,23.533,43.421,19.704C43.421,15.875,46.525,12.771,50.354,12.771L50.354,9.122ZM50.354,12.771C54.183,12.771,57.286,15.875,57.286,19.704C57.286,23.533,54.183,26.636,50.354,26.636L50.354,30.285C56.198,30.285,60.935,25.548,60.935,19.704C60.935,13.86,56.198,9.122,50.354,9.122L50.354,12.771ZM48.529,28.461L48.529,65.679L52.178,65.679L52.178,28.461L48.529,28.461Z"/>
</g>
  <g id="Thin-S" transform="matrix(1.0,0.0,0.0,1.0,824.8706253487724,627.9306448800223)">  <path fill="#000000" fill-opacity="1" stroke-width="1px" fill-rule="nonzero" stroke="none" stroke-linecap="butt" stroke-miterlimit="4" stroke-dasharray="none" stroke-linejoin="miter" stroke-opacity="1" d="M13.866,0L13.866,37.218L16.785,37.218L16.785,0L13.866,0ZM15.325,35.758C9.683,35.758,5.108,40.333,5.108,45.975C5.108,51.618,9.682,56.192,15.325,56.192L15.325,53.273C11.295,53.273,8.027,50.006,8.027,45.975C8.027,41.945,11.295,38.677,15.325,38.677L15.325,35.758ZM15.325,38.677C19.355,38.677,22.623,41.945,22.623,45.975C22.623,50.006,19.355,53.273,15.325,53.273L15.325,56.192C20.968,56.192,25.542,51.618,25.542,45.975C25.542,40.333,20.968,35.758,15.325,35.758L15.325,38.677ZM13.866,54.732L13.866,65.679L16.785,65.679L16.785,54.732L13.866,54.732ZM48.894,0L48.894,10.946L51.813,10.946L51.813,0L48.894,0ZM50.354,9.487C44.711,9.487,40.137,14.061,40.137,19.704C40.137,25.346,44.711,29.92,50.354,29.92L50.354,27.001C46.323,27.001,43.056,23.734,43.056,19.704C43.056,15.673,46.323,12.406,50.354,12.406L50.354,9.487ZM50.354,12.406C54.384,12.406,57.651,15.673,57.651,19.704C57.651,23.734,54.384,27.001,50.354,27.001L50.354,29.92C55.996,29.92,60.57,25.346,60.57,19.704C60.57,14.061,55.996,9.487,50.354,9.487L50.354,12.406ZM48.894,28.461L48.894,65.679L51.813,65.679L51.813,28.461L48.894,28.461Z"/>
</g>
  <g id="Ultralight-S" transform="matrix(1.0,0.0,0.0,1.0,528.1606253487723,627.9306448800223)">  <path stroke-linecap="butt" stroke-dasharray="none" fill-opacity="1" stroke-miterlimit="4" fill="#000000" stroke="none" fill-rule="nonzero" stroke-width="1px" stroke-linejoin="miter" stroke-opacity="1" d="M14.23,0L14.23,37.218L16.42,37.218L16.42,0L14.23,0ZM15.325,36.123C9.884,36.123,5.473,40.534,5.473,45.975C5.473,51.416,9.884,55.827,15.325,55.827L15.325,53.638C11.093,53.638,7.663,50.207,7.663,45.975C7.663,41.743,11.093,38.313,15.325,38.313L15.325,36.123ZM15.325,38.313C19.557,38.313,22.988,41.743,22.988,45.975C22.988,50.207,19.557,53.638,15.325,53.638L15.325,55.827C20.766,55.827,25.177,51.416,25.177,45.975C25.177,40.534,20.766,36.123,15.325,36.123L15.325,38.313ZM14.23,54.732L14.23,65.679L16.42,65.679L16.42,54.732L14.23,54.732ZM49.259,0L49.259,10.946L51.448,10.946L51.448,0L49.259,0ZM50.354,9.852C44.913,9.852,40.502,14.263,40.502,19.704C40.502,25.145,44.913,29.555,50.354,29.555L50.354,27.366C46.122,27.366,42.691,23.936,42.691,19.704C42.691,15.472,46.122,12.041,50.354,12.041L50.354,9.852ZM50.354,12.041C54.586,12.041,58.016,15.472,58.016,19.704C58.016,23.936,54.586,27.366,50.354,27.366L50.354,29.555C55.795,29.555,60.206,25.145,60.206,19.704C60.206,14.263,55.795,9.852,50.354,9.852L50.354,12.041ZM49.259,28.461L49.259,65.679L51.448,65.679L51.448,28.461L49.259,28.461Z"/>
</g>
 </g>
</svg>
