<?xml version="1.0" encoding="UTF-8"?>
<!-- Generator: CustomSymbols v2.6.2.41 by @serious_bret https://bretlester.com/app_content/CustomSymbols/ -->
<!-- Guides: Left/Right -0.031/-0.031 Cap/Base 0.08/0.08 -->
<!-- Settings: RefScale 1.0 Min/Max Stroke Scales 0.5/2.21 -->
<!DOCTYPE svg
PUBLIC "-//W3C//DTD SVG 1.1//EN"
       "http://www.w3.org/Graphics/SVG/1.1/DTD/svg11.dtd">
<svg version="1.1" xmlns="http://www.w3.org/2000/svg" xmlns:xlink="http://www.w3.org/1999/xlink" width="3300" height="2200">
<![CDATA[<svg width="15" height="15" viewBox="0 0 15 15" fill="none" xmlns="http://www.w3.org/2000/svg">
<path d="M4.5 6.5V3.5C4.5 1.84315 5.84315 0.5 7.5 0.5C9.15685 0.5 10.5 1.84315 10.5 3.5V6.5M2.5 6.5H12.5C13.0523 6.5 13.5 6.94772 13.5 7.5V13.5C13.5 14.0523 13.0523 14.5 12.5 14.5H2.5C1.94772 14.5 1.5 14.0523 1.5 13.5V7.5C1.5 6.94772 1.94772 6.5 2.5 6.5Z" stroke="#1D1929"/>
</svg>
]]>
 <g id="Notes">
  <rect height="2200" id="artboard" style="fill:white;opacity:1" width="3300" x="0" y="0"/>
  <line id="" style="fill:none;stroke:black;opacity:1;stroke-width:0.5;" x1="263" x2="3036" y1="292" y2="292"/>
  <text id="reftext1" style="stroke:none;fill:black;font-family:-apple-system,&quot;SF Pro Display&quot;,&quot;SF Pro Text&quot;,Helvetica,sans-serif;font-weight:bold;" transform="matrix(1 0 0 1 263 322)">Weight/Scale Variations</text>
  <text id="reftext2" style="stroke:none;fill:black;font-family:-apple-system,&quot;SF Pro Display&quot;,&quot;SF Pro Text&quot;,Helvetica,sans-serif;text-anchor:middle;" transform="matrix(1 0 0 1 559.711 322)">Ultralight</text>
  <text style="stroke:none;fill:black;font-family:-apple-system,&quot;SF Pro Display&quot;,&quot;SF Pro Text&quot;,Helvetica,sans-serif;text-anchor:middle;" transform="matrix(1 0 0 1 856.422 322)">Thin</text>
  <text style="stroke:none;fill:black;font-family:-apple-system,&quot;SF Pro Display&quot;,&quot;SF Pro Text&quot;,Helvetica,sans-serif;text-anchor:middle;" transform="matrix(1 0 0 1 1153.13 322)">Light</text>
  <text style="stroke:none;fill:black;font-family:-apple-system,&quot;SF Pro Display&quot;,&quot;SF Pro Text&quot;,Helvetica,sans-serif;text-anchor:middle;" transform="matrix(1 0 0 1 1449.84 322)">Regular</text>
  <text style="stroke:none;fill:black;font-family:-apple-system,&quot;SF Pro Display&quot;,&quot;SF Pro Text&quot;,Helvetica,sans-serif;text-anchor:middle;" transform="matrix(1 0 0 1 1746.56 322)">Medium</text>
  <text style="stroke:none;fill:black;font-family:-apple-system,&quot;SF Pro Display&quot;,&quot;SF Pro Text&quot;,Helvetica,sans-serif;text-anchor:middle;" transform="matrix(1 0 0 1 2043.27 322)">Semibold</text>
  <text style="stroke:none;fill:black;font-family:-apple-system,&quot;SF Pro Display&quot;,&quot;SF Pro Text&quot;,Helvetica,sans-serif;text-anchor:middle;" transform="matrix(1 0 0 1 2339.98 322)">Bold</text>
  <text style="stroke:none;fill:black;font-family:-apple-system,&quot;SF Pro Display&quot;,&quot;SF Pro Text&quot;,Helvetica,sans-serif;text-anchor:middle;" transform="matrix(1 0 0 1 2636.69 322)">Heavy</text>
  <text style="stroke:none;fill:black;font-family:-apple-system,&quot;SF Pro Display&quot;,&quot;SF Pro Text&quot;,Helvetica,sans-serif;text-anchor:middle;" transform="matrix(1 0 0 1 2933.4 322)">Black</text>
  <line id="" style="fill:none;stroke:black;opacity:1;stroke-width:0.5;" x1="263" x2="3036" y1="1903" y2="1903"/>
  <g id="" transform="matrix(1 0 0 1 263 1933)">
   <path d="M9.24805 0.830078C13.5547 0.830078 17.1387-2.74414 17.1387-7.05078C17.1387-11.3574 13.5449-14.9316 9.23828-14.9316C4.94141-14.9316 1.36719-11.3574 1.36719-7.05078C1.36719-2.74414 4.95117 0.830078 9.24805 0.830078ZM9.24805-0.654297C5.70312-0.654297 2.87109-3.49609 2.87109-7.05078C2.87109-10.6055 5.69336-13.4473 9.23828-13.4473C12.793-13.4473 15.6348-10.6055 15.6445-7.05078C15.6543-3.49609 12.8027-0.654297 9.24805-0.654297ZM6.39648-6.31836L8.50586-6.31836L8.50586-4.19922C8.50586-3.75977 8.79883-3.45703 9.22852-3.45703C9.67773-3.45703 9.9707-3.75977 9.9707-4.19922L9.9707-6.31836L12.0996-6.31836C12.5391-6.31836 12.8418-6.61133 12.8418-7.04102C12.8418-7.48047 12.5391-7.7832 12.0996-7.7832L9.9707-7.7832L9.9707-9.89258C9.9707-10.3418 9.67773-10.6445 9.22852-10.6445C8.79883-10.6445 8.50586-10.3418 8.50586-9.89258L8.50586-7.7832L6.39648-7.7832C5.94727-7.7832 5.64453-7.48047 5.64453-7.04102C5.64453-6.61133 5.94727-6.31836 6.39648-6.31836Z"/>
  </g>
  <g id="" transform="matrix(1 0 0 1 281.506 1933)">
   <path d="M11.709 2.91016C17.1582 2.91016 21.6699-1.61133 21.6699-7.05078C21.6699-12.5 17.1484-17.0117 11.6992-17.0117C6.25977-17.0117 1.74805-12.5 1.74805-7.05078C1.74805-1.61133 6.26953 2.91016 11.709 2.91016ZM11.709 1.25C7.09961 1.25 3.41797-2.44141 3.41797-7.05078C3.41797-11.6602 7.08984-15.3516 11.6992-15.3516C16.3086-15.3516 20-11.6602 20.0098-7.05078C20.0195-2.44141 16.3184 1.25 11.709 1.25ZM7.98828-6.23047L10.8789-6.23047L10.8789-3.32031C10.8789-2.83203 11.2109-2.5 11.6895-2.5C12.1777-2.5 12.5195-2.83203 12.5195-3.32031L12.5195-6.23047L15.4297-6.23047C15.918-6.23047 16.25-6.5625 16.25-7.04102C16.25-7.5293 15.918-7.87109 15.4297-7.87109L12.5195-7.87109L12.5195-10.7617C12.5195-11.2695 12.1777-11.6016 11.6895-11.6016C11.2109-11.6016 10.8789-11.2598 10.8789-10.7617L10.8789-7.87109L7.98828-7.87109C7.48047-7.87109 7.14844-7.5293 7.14844-7.04102C7.14844-6.5625 7.49023-6.23047 7.98828-6.23047Z"/>
  </g>
  <g id="" transform="matrix(1 0 0 1 304.924 1933)">
   <path d="M14.9707 5.66406C21.9336 5.66406 27.6953-0.0976562 27.6953-7.05078C27.6953-14.0137 21.9238-19.7754 14.9609-19.7754C8.00781-19.7754 2.25586-14.0137 2.25586-7.05078C2.25586-0.0976562 8.01758 5.66406 14.9707 5.66406ZM14.9707 3.84766C8.93555 3.84766 4.08203-1.01562 4.08203-7.05078C4.08203-13.0957 8.92578-17.9492 14.9609-17.9492C21.0059-17.9492 25.8594-13.0957 25.8691-7.05078C25.8789-1.01562 21.0156 3.84766 14.9707 3.84766ZM10.0586-6.14258L14.0625-6.14258L14.0625-2.12891C14.0625-1.5918 14.4336-1.2207 14.9512-1.2207C15.4883-1.2207 15.8594-1.5918 15.8594-2.12891L15.8594-6.14258L19.8828-6.14258C20.4102-6.14258 20.791-6.51367 20.791-7.03125C20.791-7.56836 20.4199-7.94922 19.8828-7.94922L15.8594-7.94922L15.8594-11.9531C15.8594-12.5098 15.4883-12.8809 14.9512-12.8809C14.4336-12.8809 14.0625-12.5 14.0625-11.9531L14.0625-7.94922L10.0586-7.94922C9.50195-7.94922 9.13086-7.56836 9.13086-7.03125C9.13086-6.51367 9.51172-6.14258 10.0586-6.14258Z"/>
  </g>
  <text style="stroke:none;fill:black;font-family:-apple-system,&quot;SF Pro Display&quot;,&quot;SF Pro Text&quot;,Helvetica,sans-serif;font-weight:bold;" transform="matrix(1 0 0 1 263 1953)">Design Variations</text>
  <text style="stroke:none;fill:black;font-family:-apple-system,&quot;SF Pro Display&quot;,&quot;SF Pro Text&quot;,Helvetica,sans-serif;" transform="matrix(1 0 0 1 263 1971)">Symbols are supported in up to nine weights and three scales.</text>
  <text style="stroke:none;fill:black;font-family:-apple-system,&quot;SF Pro Display&quot;,&quot;SF Pro Text&quot;,Helvetica,sans-serif;" transform="matrix(1 0 0 1 263 1989)">For optimal layout with text and other symbols, vertically align</text>
  <text style="stroke:none;fill:black;font-family:-apple-system,&quot;SF Pro Display&quot;,&quot;SF Pro Text&quot;,Helvetica,sans-serif;" transform="matrix(1 0 0 1 263 2007)">symbols with the adjacent text.</text>
  <line id="" style="fill:none;stroke:#00AEEF;stroke-width:0.5;opacity:1.0;" x1="776" x2="776" y1="1919" y2="1933"/>
  <g id="" transform="matrix(1 0 0 1 776 1933)">
   <path d="M3.31055 0.126953C3.82812 0.126953 4.08203-0.0683594 4.26758-0.605469L5.52734-4.0625L11.2891-4.0625L12.5488-0.605469C12.7344-0.0683594 12.9883 0.126953 13.4961 0.126953C14.0137 0.126953 14.3457-0.185547 14.3457-0.673828C14.3457-0.839844 14.3164-0.986328 14.2383-1.20117L9.6582-13.3887C9.43359-13.9941 9.0332-14.2871 8.4082-14.2871C7.80273-14.2871 7.39258-13.9941 7.17773-13.3984L2.59766-1.19141C2.51953-0.976562 2.49023-0.830078 2.49023-0.664062C2.49023-0.175781 2.80273 0.126953 3.31055 0.126953ZM6.00586-5.53711L8.37891-12.1094L8.42773-12.1094L10.8008-5.53711Z"/>
  </g>
  <line id="" style="fill:none;stroke:#00AEEF;stroke-width:0.5;opacity:1.0;" x1="792.836" x2="792.836" y1="1919" y2="1933"/>
  <text style="stroke:none;fill:black;font-family:-apple-system,&quot;SF Pro Display&quot;,&quot;SF Pro Text&quot;,Helvetica,sans-serif;font-weight:bold;" transform="matrix(1 0 0 1 776 1953)">Margins</text>
  <text style="stroke:none;fill:black;font-family:-apple-system,&quot;SF Pro Display&quot;,&quot;SF Pro Text&quot;,Helvetica,sans-serif;" transform="matrix(1 0 0 1 776 1971)">Leading and trailing margins on the left and right side of each symbol</text>
  <text style="stroke:none;fill:black;font-family:-apple-system,&quot;SF Pro Display&quot;,&quot;SF Pro Text&quot;,Helvetica,sans-serif;" transform="matrix(1 0 0 1 776 1989)">can be adjusted by modifying the x-location of the margin guidelines.</text>
  <text style="stroke:none;fill:black;font-family:-apple-system,&quot;SF Pro Display&quot;,&quot;SF Pro Text&quot;,Helvetica,sans-serif;" transform="matrix(1 0 0 1 776 2007)">Modifications are automatically applied proportionally to all</text>
  <text style="stroke:none;fill:black;font-family:-apple-system,&quot;SF Pro Display&quot;,&quot;SF Pro Text&quot;,Helvetica,sans-serif;" transform="matrix(1 0 0 1 776 2025)">scales and weights.</text>
  <g id="" transform="matrix(1 0 0 1 1289 1933)">
   <path d="M2.8418 1.86523L4.54102 3.57422C5.40039 4.44336 6.38672 4.38477 7.31445 3.35938L17.4902-7.85156C17.7539-7.76367 18.0273-7.7832 18.3398-7.8418L19.4043-8.03711L20.0684-7.36328L20.0293-6.80664C19.9902-6.30859 20.1172-5.92773 20.6055-5.44922L21.3672-4.70703C21.8457-4.22852 22.4609-4.19922 22.9297-4.66797L25.8398-7.58789C26.3086-8.05664 26.2891-8.65234 25.8105-9.13086L25.0391-9.89258C24.5605-10.3711 24.1895-10.5273 23.7109-10.4883L23.1348-10.4395L22.4902-11.0742L22.7344-12.1973C22.8613-12.7637 22.7051-13.2031 22.1191-13.7891L19.9219-15.9766C16.582-19.2969 12.1484-19.2188 9.25781-16.3281C8.83789-15.918 8.80859-15.3418 9.04297-14.9512C9.27734-14.5898 9.73633-14.3555 10.3809-14.5215C11.8457-14.8633 13.3691-14.9219 14.7949-13.9844L14.209-12.5293C14.0137-12.0508 13.9844-11.6504 14.1113-11.2891L3.04688-0.898438C2.06055 0.0195312 1.98242 0.996094 2.8418 1.86523ZM10.752-15.957C13.1836-17.7344 16.4746-17.4316 18.7012-15.2051L21.1328-12.793C21.3672-12.5586 21.4062-12.373 21.3379-12.0312L21.0156-10.5469L22.5195-9.0625L23.5059-9.12109C23.7598-9.13086 23.8379-9.11133 24.0332-8.91602L24.6094-8.33984L22.168-5.89844L21.5918-6.47461C21.3965-6.66992 21.3672-6.74805 21.377-7.01172L21.4453-7.98828L19.9512-9.47266L18.4277-9.21875C18.1055-9.15039 17.959-9.17969 17.7148-9.41406L15.7129-11.416C15.459-11.6504 15.4297-11.8164 15.5859-12.1875L16.4648-14.2773C14.9023-15.7324 12.8711-16.3574 10.8398-15.7617C10.6836-15.7227 10.625-15.8496 10.752-15.957ZM5.27344 2.30469L4.10156 1.14258C3.63281 0.683594 3.74023 0.341797 4.14062-0.0195312L14.9512-10.1953L16.416-8.71094L6.42578 2.27539C6.07422 2.67578 5.74219 2.77344 5.27344 2.30469Z"/>
  </g>
  <text style="stroke:none;fill:black;font-family:-apple-system,&quot;SF Pro Display&quot;,&quot;SF Pro Text&quot;,Helvetica,sans-serif;font-weight:bold;" transform="matrix(1 0 0 1 1289 1953)">Exporting</text>
  <text style="stroke:none;fill:black;font-family:-apple-system,&quot;SF Pro Display&quot;,&quot;SF Pro Text&quot;,Helvetica,sans-serif;" transform="matrix(1 0 0 1 1289 1971)">Symbols should be outlined when exporting to ensure the</text>
  <text style="stroke:none;fill:black;font-family:-apple-system,&quot;SF Pro Display&quot;,&quot;SF Pro Text&quot;,Helvetica,sans-serif;" transform="matrix(1 0 0 1 1289 1989)">design is preserved when submitting to Xcode.</text>
  <text id="template-version" style="stroke:none;fill:black;font-family:-apple-system,&quot;SF Pro Display&quot;,&quot;SF Pro Text&quot;,Helvetica,sans-serif;text-anchor:end;" transform="matrix(1 0 0 1 3036 1933)">Template v.2.0</text>
  <text style="stroke:none;fill:black;font-family:-apple-system,&quot;SF Pro Display&quot;,&quot;SF Pro Text&quot;,Helvetica,sans-serif;text-anchor:end;" transform="matrix(1 0 0 1 3036 1951)">Requires Xcode 12 or greater</text>
  <text style="stroke:none;fill:black;font-family:-apple-system,&quot;SF Pro Display&quot;,&quot;SF Pro Text&quot;,Helvetica,sans-serif;" transform="matrix(1 0 0 1 263 726)">Small</text>
  <text style="stroke:none;fill:black;font-family:-apple-system,&quot;SF Pro Display&quot;,&quot;SF Pro Text&quot;,Helvetica,sans-serif;" transform="matrix(1 0 0 1 263 1156)">Medium</text>
  <text style="stroke:none;fill:black;font-family:-apple-system,&quot;SF Pro Display&quot;,&quot;SF Pro Text&quot;,Helvetica,sans-serif;" transform="matrix(1 0 0 1 263 1586)">Large</text>
 </g>
 <g id="Guides">
  <g id="H-reference" style="fill:#27AAE1;stroke:none;" transform="matrix(1 0 0 1 339 696)">
   <path d="M0.976562 0L3.66211 0L12.9883-24.4629L45.752-24.4629L55.127 0L57.7637 0L30.6152-70.459L28.125-70.459ZM29.3457-67.1387L29.4434-67.1387L44.873-26.709L13.8672-26.709Z"/>
  </g>
  <line id="Baseline-S" style="fill:none;stroke:#27AAE1;opacity:1;stroke-width:0.5;" x1="263" x2="3036" y1="696" y2="696"/>
  <line id="Capline-S" style="fill:none;stroke:#27AAE1;opacity:1;stroke-width:0.5;" x1="263" x2="3036" y1="625.541" y2="625.541"/>
  <g id="H-reference" style="fill:#27AAE1;stroke:none;" transform="matrix(1 0 0 1 339 1126)">
   <path d="M0.976562 0L3.66211 0L12.9883-24.4629L45.752-24.4629L55.127 0L57.7637 0L30.6152-70.459L28.125-70.459ZM29.3457-67.1387L29.4434-67.1387L44.873-26.709L13.8672-26.709Z"/>
  </g>
  <line id="Baseline-M" style="fill:none;stroke:#27AAE1;opacity:1;stroke-width:0.5;" x1="263" x2="3036" y1="1126" y2="1126"/>
  <line id="Capline-M" style="fill:none;stroke:#27AAE1;opacity:1;stroke-width:0.5;" x1="263" x2="3036" y1="1055.54" y2="1055.54"/>
  <g id="H-reference" style="fill:#27AAE1;stroke:none;" transform="matrix(1 0 0 1 339 1556)">
   <path d="M0.976562 0L3.66211 0L12.9883-24.4629L45.752-24.4629L55.127 0L57.7637 0L30.6152-70.459L28.125-70.459ZM29.3457-67.1387L29.4434-67.1387L44.873-26.709L13.8672-26.709Z"/>
  </g>
  <line id="Baseline-L" style="fill:none;stroke:#27AAE1;opacity:1;stroke-width:0.5;" x1="263" x2="3036" y1="1556" y2="1556"/>
  <line id="Capline-L" style="fill:none;stroke:#27AAE1;opacity:1;stroke-width:0.5;" x1="263" x2="3036" y1="1485.54" y2="1485.54"/>
  <line id="left-margin" x1="1406.5892389787946" x2="1406.5892389787946" y1="1030.79" y2="1150.12" style="fill:none;stroke:#00AEEF;stroke-width:0.5;opacity:1.0;"/>
  <line id="right-margin" x1="1495.6707610212052" x2="1495.6707610212052" y1="1030.79" y2="1150.12" style="fill:none;stroke:#00AEEF;stroke-width:0.5;opacity:1.0;"/>
 </g>
 <g id="Symbols">
  <g id="Black-L" transform="matrix(1.0,0.0,0.0,1.0,2880.576815708705,1466.6668352399554)">  <path fill="#000000" stroke="none" fill-opacity="1" stroke-linecap="butt" stroke-opacity="1" stroke-width="1px" stroke-dasharray="none" stroke-miterlimit="4" stroke-linejoin="miter" fill-rule="nonzero" d="M40.433,46.889L40.433,25.248C40.433,17.698,46.553,11.578,54.103,11.578C61.653,11.578,67.773,17.698,67.773,25.248L67.773,46.889L83.716,46.889L83.716,25.248C83.716,8.894,70.458,-4.364,54.103,-4.364C37.749,-4.364,24.491,8.894,24.491,25.248L24.491,46.889L40.433,46.889ZM18.034,54.861L90.172,54.861C89.754,54.861,89.415,54.521,89.415,54.103L89.415,97.386C89.415,96.968,89.754,96.628,90.172,96.628L18.034,96.628C18.453,96.628,18.792,96.967,18.792,97.386L18.792,54.103C18.792,54.522,18.453,54.861,18.034,54.861ZM18.034,38.918C9.648,38.918,2.849,45.717,2.849,54.103L2.849,97.386C2.849,105.772,9.648,112.571,18.034,112.571L90.172,112.571C98.559,112.571,105.357,105.772,105.357,97.386L105.357,54.103C105.357,45.717,98.558,38.918,90.172,38.918L18.034,38.918Z"/>
</g>
  <g id="Heavy-L" transform="matrix(1.0,0.0,0.0,1.0,2583.866815708705,1466.6668352399554)">  <path fill="#000000" stroke-opacity="1" stroke-linejoin="miter" stroke-miterlimit="4" stroke="none" stroke-dasharray="none" stroke-linecap="butt" stroke-width="1px" fill-rule="nonzero" fill-opacity="1" d="M39.56,46.889L39.56,25.248C39.56,17.216,46.071,10.705,54.103,10.705C62.135,10.705,68.646,17.216,68.646,25.248L68.646,46.889L82.843,46.889L82.843,25.248C82.843,9.376,69.976,-3.491,54.103,-3.491C38.231,-3.491,25.364,9.376,25.364,25.248L25.364,46.889L39.56,46.889ZM18.034,53.988L90.172,53.988C90.236,53.988,90.287,54.039,90.287,54.103L90.287,97.386C90.287,97.45,90.236,97.501,90.172,97.501L18.034,97.501C17.971,97.501,17.919,97.45,17.919,97.386L17.919,54.103C17.919,54.039,17.971,53.988,18.034,53.988ZM18.034,39.791C10.13,39.791,3.722,46.199,3.722,54.103L3.722,97.386C3.722,105.29,10.13,111.698,18.034,111.698L90.172,111.698C98.076,111.698,104.484,105.29,104.484,97.386L104.484,54.103C104.484,46.199,98.076,39.791,90.172,39.791L18.034,39.791Z"/>
</g>
  <g id="Bold-L" transform="matrix(1.0,0.0,0.0,1.0,2287.156815708705,1466.6668352399554)">  <path stroke-opacity="1" stroke-width="1px" stroke-dasharray="none" stroke-linecap="butt" fill="#000000" fill-opacity="1" stroke="none" stroke-linejoin="miter" fill-rule="nonzero" stroke-miterlimit="4" d="M38.687,46.889L38.687,25.248C38.687,16.734,45.589,9.832,54.103,9.832C62.617,9.832,69.519,16.734,69.519,25.248L69.519,46.889L81.97,46.889L81.97,25.248C81.97,9.858,69.494,-2.619,54.103,-2.619C38.713,-2.619,26.236,9.858,26.236,25.248L26.236,46.889L38.687,46.889ZM18.034,53.115L90.172,53.115C90.718,53.115,91.16,53.557,91.16,54.103L91.16,97.386C91.16,97.932,90.718,98.374,90.172,98.374L18.034,98.374C17.489,98.374,17.046,97.932,17.046,97.386L17.046,54.103C17.046,53.557,17.489,53.115,18.034,53.115ZM18.034,40.664C10.612,40.664,4.595,46.681,4.595,54.103L4.595,97.386C4.595,104.808,10.612,110.825,18.034,110.825L90.172,110.825C97.594,110.825,103.611,104.808,103.611,97.386L103.611,54.103C103.611,46.681,97.594,40.664,90.172,40.664L18.034,40.664Z"/>
</g>
  <g id="Semibold-L" transform="matrix(1.0,0.0,0.0,1.0,1990.4468157087053,1466.6668352399554)">  <path fill="#000000" fill-rule="nonzero" fill-opacity="1" stroke="none" stroke-miterlimit="4" stroke-linejoin="miter" stroke-opacity="1" stroke-dasharray="none" stroke-linecap="butt" stroke-width="1px" d="M37.815,46.889L37.815,25.248C37.815,16.252,45.107,8.959,54.103,8.959C63.099,8.959,70.392,16.252,70.392,25.248L70.392,46.889L81.097,46.889L81.097,25.248C81.097,10.34,69.011,-1.746,54.103,-1.746C39.195,-1.746,27.109,10.34,27.109,25.248L27.109,46.889L37.815,46.889ZM18.034,52.242L90.172,52.242C91.2,52.242,92.033,53.075,92.033,54.103L92.033,97.386C92.033,98.414,91.2,99.247,90.172,99.247L18.034,99.247C17.006,99.247,16.173,98.414,16.173,97.386L16.173,54.103C16.173,53.075,17.007,52.242,18.034,52.242ZM18.034,41.537C11.094,41.537,5.468,47.163,5.468,54.103L5.468,97.386C5.468,104.326,11.094,109.952,18.034,109.952L90.172,109.952C97.112,109.952,102.738,104.326,102.738,97.386L102.738,54.103C102.738,47.163,97.112,41.537,90.172,41.537L18.034,41.537Z"/>
</g>
  <g id="Medium-L" transform="matrix(1.0,0.0,0.0,1.0,1693.7368157087053,1466.6668352399554)">  <path stroke-linecap="butt" fill-rule="nonzero" stroke-linejoin="miter" stroke-width="1px" stroke-dasharray="none" stroke-opacity="1" fill-opacity="1" stroke-miterlimit="4" stroke="none" fill="#000000" d="M36.942,46.889L36.942,25.248C36.942,15.77,44.625,8.087,54.103,8.087C63.581,8.087,71.265,15.77,71.265,25.248L71.265,46.889L80.224,46.889L80.224,25.248C80.224,10.822,68.529,-0.873,54.103,-0.873C39.677,-0.873,27.982,10.822,27.982,25.248L27.982,46.889L36.942,46.889ZM18.034,51.369L90.172,51.369C91.682,51.369,92.906,52.593,92.906,54.103L92.906,97.386C92.906,98.896,91.682,100.12,90.172,100.12L18.034,100.12C16.524,100.12,15.3,98.896,15.3,97.386L15.3,54.103C15.3,52.593,16.524,51.369,18.034,51.369ZM18.034,42.41C11.576,42.41,6.341,47.645,6.341,54.103L6.341,97.386C6.341,103.844,11.576,109.079,18.034,109.079L90.172,109.079C96.63,109.079,101.865,103.844,101.865,97.386L101.865,54.103C101.865,47.645,96.63,42.41,90.172,42.41L18.034,42.41Z"/>
</g>
  <g id="Regular-L" transform="matrix(1.0,0.0,0.0,1.0,1397.0268157087053,1466.6668352399554)">  <path stroke-linecap="butt" fill-rule="nonzero" stroke-linejoin="miter" stroke-opacity="1" stroke-width="1px" stroke="none" fill="#000000" stroke-miterlimit="4" stroke-dasharray="none" fill-opacity="1" d="M36.069,46.889L36.069,25.248C36.069,15.288,44.143,7.214,54.103,7.214C64.063,7.214,72.138,15.288,72.138,25.248L72.138,46.889L79.351,46.889L79.351,25.248C79.351,11.304,68.047,0,54.103,0C40.159,0,28.855,11.304,28.855,25.248L28.855,46.889L36.069,46.889ZM18.034,50.496L90.172,50.496C92.164,50.496,93.779,52.111,93.779,54.103L93.779,97.386C93.779,99.378,92.164,100.993,90.172,100.993L18.034,100.993C16.042,100.993,14.428,99.378,14.428,97.386L14.428,54.103C14.428,52.111,16.042,50.496,18.034,50.496ZM18.034,43.283C12.058,43.283,7.214,48.127,7.214,54.103L7.214,97.386C7.214,103.362,12.058,108.206,18.034,108.206L90.172,108.206C96.148,108.206,100.993,103.362,100.993,97.386L100.993,54.103C100.993,48.127,96.148,43.283,90.172,43.283L18.034,43.283Z"/>
</g>
  <g id="Light-L" transform="matrix(1.0,0.0,0.0,1.0,1100.3168157087055,1466.6668352399554)">  <path stroke-miterlimit="4" stroke-linejoin="miter" stroke="none" fill="#000000" stroke-dasharray="none" stroke-linecap="butt" stroke-opacity="1" fill-opacity="1" stroke-width="1px" fill-rule="nonzero" d="M35.468,46.889L35.468,25.248C35.468,14.956,43.811,6.613,54.103,6.613C64.395,6.613,72.739,14.956,72.739,25.248L72.739,46.889L78.75,46.889L78.75,25.248C78.75,11.636,67.715,0.601,54.103,0.601C40.491,0.601,29.456,11.636,29.456,25.248L29.456,46.889L35.468,46.889ZM18.034,49.895L90.172,49.895C92.496,49.895,94.38,51.779,94.38,54.103L94.38,97.386C94.38,99.71,92.496,101.594,90.172,101.594L18.034,101.594C15.71,101.594,13.826,99.71,13.826,97.386L13.826,54.103C13.826,51.779,15.71,49.895,18.034,49.895ZM18.034,43.884C12.39,43.884,7.815,48.459,7.815,54.103L7.815,97.386C7.815,103.03,12.39,107.605,18.034,107.605L90.172,107.605C95.816,107.605,100.391,103.03,100.391,97.386L100.391,54.103C100.391,48.459,95.816,43.884,90.172,43.884L18.034,43.884Z"/>
</g>
  <g id="Thin-L" transform="matrix(1.0,0.0,0.0,1.0,803.6068157087054,1466.6668352399554)">  <path stroke-opacity="1" stroke-linejoin="miter" stroke-miterlimit="4" stroke-linecap="butt" fill="#000000" stroke-dasharray="none" fill-rule="nonzero" stroke-width="1px" stroke="none" fill-opacity="1" d="M34.866,46.889L34.866,25.248C34.866,14.624,43.479,6.011,54.103,6.011C64.727,6.011,73.34,14.624,73.34,25.248L73.34,46.889L78.149,46.889L78.149,25.248C78.149,11.968,67.383,1.202,54.103,1.202C40.823,1.202,30.057,11.968,30.057,25.248L30.057,46.889L34.866,46.889ZM18.034,49.294L90.172,49.294C92.828,49.294,94.981,51.447,94.981,54.103L94.981,97.386C94.981,100.042,92.828,102.195,90.172,102.195L18.034,102.195C15.378,102.195,13.225,100.042,13.225,97.386L13.225,54.103C13.225,51.447,15.378,49.294,18.034,49.294ZM18.034,44.485C12.722,44.485,8.416,48.791,8.416,54.103L8.416,97.386C8.416,102.698,12.722,107.004,18.034,107.004L90.172,107.004C95.484,107.004,99.79,102.698,99.79,97.386L99.79,54.103C99.79,48.791,95.484,44.485,90.172,44.485L18.034,44.485Z"/>
</g>
  <g id="Ultralight-L" transform="matrix(1.0,0.0,0.0,1.0,506.89681570870533,1466.6668352399554)">  <path stroke-linecap="butt" stroke-miterlimit="4" fill="#000000" stroke-dasharray="none" fill-opacity="1" stroke-width="1px" stroke="none" stroke-opacity="1" stroke-linejoin="miter" fill-rule="nonzero" d="M34.265,46.889L34.265,25.248C34.265,14.292,43.147,5.41,54.103,5.41C65.059,5.41,73.941,14.292,73.941,25.248L73.941,46.889L77.548,46.889L77.548,25.248C77.548,12.3,67.051,1.803,54.103,1.803C41.155,1.803,30.658,12.3,30.658,25.248L30.658,46.889L34.265,46.889ZM18.034,48.693L90.172,48.693C93.16,48.693,95.582,51.115,95.582,54.103L95.582,97.386C95.582,100.374,93.16,102.796,90.172,102.796L18.034,102.796C15.046,102.796,12.624,100.374,12.624,97.386L12.624,54.103C12.624,51.115,15.046,48.693,18.034,48.693ZM18.034,45.086C13.054,45.086,9.017,49.123,9.017,54.103L9.017,97.386C9.017,102.366,13.054,106.403,18.034,106.403L90.172,106.403C95.152,106.403,99.189,102.366,99.189,97.386L99.189,54.103C99.189,49.123,95.152,45.086,90.172,45.086L18.034,45.086Z"/>
</g>
  <g id="Black-M" transform="matrix(1.0,0.0,0.0,1.0,2892.7395470610118,1048.829566592262)">  <path fill="#000000" stroke="none" fill-opacity="1" stroke-linecap="butt" stroke-opacity="1" stroke-width="1px" stroke-dasharray="none" stroke-miterlimit="4" stroke-linejoin="miter" fill-rule="nonzero" d="M31.343,36.348L31.343,19.572C31.343,13.72,36.088,8.975,41.94,8.975C47.793,8.975,52.537,13.72,52.537,19.572L52.537,36.348L64.896,36.348L64.896,19.572C64.896,6.894,54.618,-3.383,41.94,-3.383C29.263,-3.383,18.985,6.894,18.985,19.572L18.985,36.348L31.343,36.348ZM13.98,42.528L69.901,42.528C69.577,42.528,69.314,42.265,69.314,41.94L69.314,75.493C69.314,75.169,69.577,74.906,69.901,74.906L13.98,74.906C14.304,74.906,14.567,75.169,14.567,75.493L14.567,41.94C14.567,42.265,14.304,42.528,13.98,42.528ZM13.98,30.169C7.479,30.169,2.209,35.439,2.209,41.94L2.209,75.493C2.209,81.994,7.479,87.264,13.98,87.264L69.901,87.264C76.402,87.264,81.672,81.994,81.672,75.493L81.672,41.94C81.672,35.439,76.402,30.169,69.901,30.169L13.98,30.169Z"/>
</g>
  <g id="Heavy-M" transform="matrix(1.0,0.0,0.0,1.0,2596.0295470610117,1048.829566592262)">  <path fill="#000000" stroke-opacity="1" stroke-linejoin="miter" stroke-miterlimit="4" stroke="none" stroke-dasharray="none" stroke-linecap="butt" stroke-width="1px" fill-rule="nonzero" fill-opacity="1" d="M30.667,36.348L30.667,19.572C30.667,13.346,35.714,8.299,41.94,8.299C48.167,8.299,53.214,13.346,53.214,19.572L53.214,36.348L64.219,36.348L64.219,19.572C64.219,7.268,54.245,-2.707,41.94,-2.707C29.636,-2.707,19.662,7.268,19.662,19.572L19.662,36.348L30.667,36.348ZM13.98,41.851L69.901,41.851C69.95,41.851,69.99,41.891,69.99,41.94L69.99,75.493C69.99,75.542,69.95,75.582,69.901,75.582L13.98,75.582C13.931,75.582,13.891,75.542,13.891,75.493L13.891,41.94C13.891,41.891,13.931,41.851,13.98,41.851ZM13.98,30.846C7.853,30.846,2.886,35.813,2.886,41.94L2.886,75.493C2.886,81.62,7.853,86.587,13.98,86.587L69.901,86.587C76.028,86.587,80.995,81.62,80.995,75.493L80.995,41.94C80.995,35.813,76.028,30.846,69.901,30.846L13.98,30.846Z"/>
</g>
  <g id="Bold-M" transform="matrix(1.0,0.0,0.0,1.0,2299.3195470610117,1048.829566592262)">  <path stroke-opacity="1" stroke-width="1px" stroke-dasharray="none" stroke-linecap="butt" fill="#000000" fill-opacity="1" stroke="none" stroke-linejoin="miter" fill-rule="nonzero" stroke-miterlimit="4" d="M29.99,36.348L29.99,19.572C29.99,12.972,35.341,7.622,41.94,7.622C48.54,7.622,53.891,12.972,53.891,19.572L53.891,36.348L63.543,36.348L63.543,19.572C63.543,7.642,53.871,-2.03,41.94,-2.03C30.01,-2.03,20.338,7.642,20.338,19.572L20.338,36.348L29.99,36.348ZM13.98,41.174L69.901,41.174C70.324,41.174,70.667,41.517,70.667,41.94L70.667,75.493C70.667,75.916,70.324,76.259,69.901,76.259L13.98,76.259C13.557,76.259,13.214,75.916,13.214,75.493L13.214,41.94C13.214,41.517,13.557,41.174,13.98,41.174ZM13.98,31.522C8.226,31.522,3.562,36.187,3.562,41.94L3.562,75.493C3.562,81.247,8.226,85.911,13.98,85.911L69.901,85.911C75.655,85.911,80.319,81.247,80.319,75.493L80.319,41.94C80.319,36.187,75.655,31.522,69.901,31.522L13.98,31.522Z"/>
</g>
  <g id="Semibold-M" transform="matrix(1.0,0.0,0.0,1.0,2002.6095470610119,1048.829566592262)">  <path fill="#000000" fill-rule="nonzero" fill-opacity="1" stroke="none" stroke-miterlimit="4" stroke-linejoin="miter" stroke-opacity="1" stroke-dasharray="none" stroke-linecap="butt" stroke-width="1px" d="M29.314,36.348L29.314,19.572C29.314,12.599,34.967,6.945,41.94,6.945C48.914,6.945,54.567,12.599,54.567,19.572L54.567,36.348L62.866,36.348L62.866,19.572C62.866,8.015,53.497,-1.353,41.94,-1.353C30.384,-1.353,21.015,8.015,21.015,19.572L21.015,36.348L29.314,36.348ZM13.98,40.498L69.901,40.498C70.698,40.498,71.344,41.144,71.344,41.94L71.344,75.493C71.344,76.29,70.698,76.936,69.901,76.936L13.98,76.936C13.183,76.936,12.537,76.29,12.537,75.493L12.537,41.94C12.537,41.144,13.183,40.498,13.98,40.498ZM13.98,32.199C8.6,32.199,4.239,36.56,4.239,41.94L4.239,75.493C4.239,80.873,8.6,85.234,13.98,85.234L69.901,85.234C75.281,85.234,79.642,80.873,79.642,75.493L79.642,41.94C79.642,36.56,75.281,32.199,69.901,32.199L13.98,32.199Z"/>
</g>
  <g id="Medium-M" transform="matrix(1.0,0.0,0.0,1.0,1705.8995470610118,1048.829566592262)">  <path stroke-linecap="butt" fill-rule="nonzero" stroke-linejoin="miter" stroke-width="1px" stroke-dasharray="none" stroke-opacity="1" fill-opacity="1" stroke-miterlimit="4" stroke="none" fill="#000000" d="M28.637,36.348L28.637,19.572C28.637,12.225,34.593,6.269,41.94,6.269C49.288,6.269,55.244,12.225,55.244,19.572L55.244,36.348L62.189,36.348L62.189,19.572C62.189,8.389,53.124,-0.677,41.94,-0.677C30.757,-0.677,21.692,8.389,21.692,19.572L21.692,36.348L28.637,36.348ZM13.98,39.821L69.901,39.821C71.071,39.821,72.02,40.77,72.02,41.94L72.02,75.493C72.02,76.663,71.071,77.612,69.901,77.612L13.98,77.612C12.81,77.612,11.861,76.663,11.861,75.493L11.861,41.94C11.861,40.77,12.81,39.821,13.98,39.821ZM13.98,32.876C8.974,32.876,4.915,36.934,4.915,41.94L4.915,75.493C4.915,80.499,8.974,84.558,13.98,84.558L69.901,84.558C74.907,84.558,78.965,80.499,78.965,75.493L78.965,41.94C78.965,36.934,74.907,32.876,69.901,32.876L13.98,32.876Z"/>
</g>
  <g id="Regular-M" transform="matrix(1.0,0.0,0.0,1.0,1409.1895470610118,1048.829566592262)">  <path stroke-linecap="butt" fill-rule="nonzero" stroke-linejoin="miter" stroke-opacity="1" stroke-width="1px" stroke="none" fill="#000000" stroke-miterlimit="4" stroke-dasharray="none" fill-opacity="1" d="M27.96,36.348L27.96,19.572C27.96,11.851,34.219,5.592,41.94,5.592C49.661,5.592,55.921,11.851,55.921,19.572L55.921,36.348L61.513,36.348L61.513,19.572C61.513,8.763,52.75,0,41.94,0C31.131,0,22.368,8.763,22.368,19.572L22.368,36.348L27.96,36.348ZM13.98,39.144L69.901,39.144C71.445,39.144,72.697,40.396,72.697,41.94L72.697,75.493C72.697,77.037,71.445,78.289,69.901,78.289L13.98,78.289C12.436,78.289,11.184,77.037,11.184,75.493L11.184,41.94C11.184,40.396,12.436,39.144,13.98,39.144ZM13.98,33.552C9.348,33.552,5.592,37.308,5.592,41.94L5.592,75.493C5.592,80.125,9.348,83.881,13.98,83.881L69.901,83.881C74.533,83.881,78.289,80.126,78.289,75.493L78.289,41.94C78.289,37.308,74.533,33.552,69.901,33.552L13.98,33.552Z"/>
</g>
  <g id="Light-M" transform="matrix(1.0,0.0,0.0,1.0,1112.479547061012,1048.829566592262)">  <path stroke-miterlimit="4" stroke-linejoin="miter" stroke="none" fill="#000000" stroke-dasharray="none" stroke-linecap="butt" stroke-opacity="1" fill-opacity="1" stroke-width="1px" fill-rule="nonzero" d="M27.494,36.348L27.494,19.572C27.494,11.594,33.962,5.126,41.94,5.126C49.919,5.126,56.387,11.594,56.387,19.572L56.387,36.348L61.047,36.348L61.047,19.572C61.047,9.02,52.492,0.466,41.94,0.466C31.388,0.466,22.834,9.02,22.834,19.572L22.834,36.348L27.494,36.348ZM13.98,38.678L69.901,38.678C71.702,38.678,73.163,40.139,73.163,41.94L73.163,75.493C73.163,77.294,71.702,78.755,69.901,78.755L13.98,78.755C12.179,78.755,10.718,77.294,10.718,75.493L10.718,41.94C10.718,40.139,12.179,38.678,13.98,38.678ZM13.98,34.018C9.605,34.018,6.058,37.565,6.058,41.94L6.058,75.493C6.058,79.868,9.605,83.415,13.98,83.415L69.901,83.415C74.276,83.415,77.823,79.868,77.823,75.493L77.823,41.94C77.823,37.565,74.276,34.018,69.901,34.018L13.98,34.018Z"/>
</g>
  <g id="Thin-M" transform="matrix(1.0,0.0,0.0,1.0,815.769547061012,1048.829566592262)">  <path stroke-opacity="1" stroke-linejoin="miter" stroke-miterlimit="4" stroke-linecap="butt" fill="#000000" stroke-dasharray="none" fill-rule="nonzero" stroke-width="1px" stroke="none" fill-opacity="1" d="M27.028,36.348L27.028,19.572C27.028,11.336,33.705,4.66,41.94,4.66C50.176,4.66,56.853,11.336,56.853,19.572L56.853,36.348L60.581,36.348L60.581,19.572C60.581,9.278,52.235,0.932,41.94,0.932C31.646,0.932,23.3,9.278,23.3,19.572L23.3,36.348L27.028,36.348ZM13.98,38.212L69.901,38.212C71.96,38.212,73.629,39.881,73.629,41.94L73.629,75.493C73.629,77.552,71.96,79.221,69.901,79.221L13.98,79.221C11.921,79.221,10.252,77.552,10.252,75.493L10.252,41.94C10.252,39.882,11.921,38.212,13.98,38.212ZM13.98,34.484C9.862,34.484,6.524,37.823,6.524,41.94L6.524,75.493C6.524,79.611,9.862,82.949,13.98,82.949L69.901,82.949C74.019,82.949,77.357,79.611,77.357,75.493L77.357,41.94C77.357,37.823,74.019,34.484,69.901,34.484L13.98,34.484Z"/>
</g>
  <g id="Ultralight-M" transform="matrix(1.0,0.0,0.0,1.0,519.0595470610119,1048.829566592262)">  <path stroke-linecap="butt" stroke-miterlimit="4" fill="#000000" stroke-dasharray="none" fill-opacity="1" stroke-width="1px" stroke="none" stroke-opacity="1" stroke-linejoin="miter" fill-rule="nonzero" d="M26.562,36.348L26.562,19.572C26.562,11.079,33.447,4.194,41.94,4.194C50.434,4.194,57.319,11.079,57.319,19.572L57.319,36.348L60.115,36.348L60.115,19.572C60.115,9.535,51.978,1.398,41.94,1.398C31.903,1.398,23.766,9.535,23.766,19.572L23.766,36.348L26.562,36.348ZM13.98,37.746L69.901,37.746C72.217,37.746,74.095,39.624,74.095,41.94L74.095,75.493C74.095,77.809,72.217,79.687,69.901,79.687L13.98,79.687C11.664,79.687,9.786,77.809,9.786,75.493L9.786,41.94C9.786,39.624,11.664,37.746,13.98,37.746ZM13.98,34.95C10.12,34.95,6.99,38.08,6.99,41.94L6.99,75.493C6.99,79.353,10.12,82.483,13.98,82.483L69.901,82.483C73.761,82.483,76.891,79.353,76.891,75.493L76.891,41.94C76.891,38.08,73.761,34.95,69.901,34.95L13.98,34.95Z"/>
</g>
  <g id="Black-S" transform="matrix(1.0,0.0,0.0,1.0,2901.840625348772,627.9306448800223)">  <path fill="#000000" stroke="none" fill-opacity="1" stroke-linecap="butt" stroke-opacity="1" stroke-width="1px" stroke-dasharray="none" stroke-miterlimit="4" stroke-linejoin="miter" fill-rule="nonzero" d="M24.542,28.461L24.542,15.325C24.542,10.743,28.257,7.028,32.839,7.028C37.422,7.028,41.137,10.743,41.137,15.325L41.137,28.461L50.813,28.461L50.813,15.325C50.813,5.398,42.766,-2.649,32.839,-2.649C22.913,-2.649,14.865,5.398,14.865,15.325L14.865,28.461L24.542,28.461ZM10.946,33.299L54.732,33.299C54.478,33.299,54.273,33.093,54.273,32.839L54.273,59.111C54.273,58.857,54.478,58.651,54.732,58.651L10.946,58.651C11.2,58.651,11.406,58.857,11.406,59.111L11.406,32.839C11.406,33.093,11.2,33.299,10.946,33.299ZM10.946,23.622C5.856,23.622,1.73,27.749,1.73,32.839L1.73,59.111C1.73,64.201,5.856,68.328,10.946,68.328L54.732,68.328C59.823,68.328,63.949,64.201,63.949,59.111L63.949,32.839C63.949,27.749,59.823,23.622,54.732,23.622L10.946,23.622Z"/>
</g>
  <g id="Heavy-S" transform="matrix(1.0,0.0,0.0,1.0,2605.130625348772,627.9306448800223)">  <path fill="#000000" stroke-opacity="1" stroke-linejoin="miter" stroke-miterlimit="4" stroke="none" stroke-dasharray="none" stroke-linecap="butt" stroke-width="1px" fill-rule="nonzero" fill-opacity="1" d="M24.012,28.461L24.012,15.325C24.012,10.45,27.964,6.498,32.839,6.498C37.714,6.498,41.667,10.45,41.667,15.325L41.667,28.461L50.284,28.461L50.284,15.325C50.284,5.691,42.474,-2.119,32.839,-2.119C23.205,-2.119,15.395,5.691,15.395,15.325L15.395,28.461L24.012,28.461ZM10.946,32.769L54.732,32.769C54.771,32.769,54.802,32.801,54.802,32.839L54.802,59.111C54.802,59.15,54.771,59.181,54.732,59.181L10.946,59.181C10.908,59.181,10.876,59.15,10.876,59.111L10.876,32.839C10.876,32.801,10.908,32.769,10.946,32.769ZM10.946,24.152C6.149,24.152,2.259,28.042,2.259,32.839L2.259,59.111C2.259,63.909,6.149,67.798,10.946,67.798L54.732,67.798C59.53,67.798,63.419,63.909,63.419,59.111L63.419,32.839C63.419,28.042,59.53,24.152,54.732,24.152L10.946,24.152Z"/>
</g>
  <g id="Bold-S" transform="matrix(1.0,0.0,0.0,1.0,2308.420625348772,627.9306448800223)">  <path stroke-opacity="1" stroke-width="1px" stroke-dasharray="none" stroke-linecap="butt" fill="#000000" fill-opacity="1" stroke="none" stroke-linejoin="miter" fill-rule="nonzero" stroke-miterlimit="4" d="M23.482,28.461L23.482,15.325C23.482,10.157,27.672,5.968,32.839,5.968C38.007,5.968,42.196,10.157,42.196,15.325L42.196,28.461L49.754,28.461L49.754,15.325C49.754,5.983,42.181,-1.589,32.839,-1.589C23.498,-1.589,15.925,5.983,15.925,15.325L15.925,28.461L23.482,28.461ZM10.946,32.24L54.732,32.24C55.064,32.24,55.332,32.508,55.332,32.839L55.332,59.111C55.332,59.442,55.064,59.711,54.732,59.711L10.946,59.711C10.615,59.711,10.347,59.442,10.347,59.111L10.347,32.839C10.347,32.508,10.615,32.24,10.946,32.24ZM10.946,24.682C6.441,24.682,2.789,28.334,2.789,32.839L2.789,59.111C2.789,63.616,6.441,67.268,10.946,67.268L54.732,67.268C59.238,67.268,62.89,63.616,62.89,59.111L62.89,32.839C62.89,28.334,59.237,24.682,54.732,24.682L10.946,24.682Z"/>
</g>
  <g id="Semibold-S" transform="matrix(1.0,0.0,0.0,1.0,2011.7106253487723,627.9306448800223)">  <path fill="#000000" fill-rule="nonzero" fill-opacity="1" stroke="none" stroke-miterlimit="4" stroke-linejoin="miter" stroke-opacity="1" stroke-dasharray="none" stroke-linecap="butt" stroke-width="1px" d="M22.953,28.461L22.953,15.325C22.953,9.865,27.379,5.438,32.839,5.438C38.3,5.438,42.726,9.865,42.726,15.325L42.726,28.461L49.224,28.461L49.224,15.325C49.224,6.276,41.888,-1.06,32.839,-1.06C23.79,-1.06,16.455,6.276,16.455,15.325L16.455,28.461L22.953,28.461ZM10.946,31.71L54.732,31.71C55.356,31.71,55.862,32.215,55.862,32.839L55.862,59.111C55.862,59.735,55.356,60.241,54.732,60.241L10.946,60.241C10.323,60.241,9.817,59.735,9.817,59.111L9.817,32.839C9.817,32.215,10.323,31.71,10.946,31.71ZM10.946,25.212C6.734,25.212,3.319,28.627,3.319,32.839L3.319,59.111C3.319,63.323,6.734,66.738,10.946,66.738L54.732,66.738C58.945,66.738,62.36,63.323,62.36,59.111L62.36,32.839C62.36,28.627,58.945,25.212,54.732,25.212L10.946,25.212Z"/>
</g>
  <g id="Medium-S" transform="matrix(1.0,0.0,0.0,1.0,1715.0006253487722,627.9306448800223)">  <path stroke-linecap="butt" fill-rule="nonzero" stroke-linejoin="miter" stroke-width="1px" stroke-dasharray="none" stroke-opacity="1" fill-opacity="1" stroke-miterlimit="4" stroke="none" fill="#000000" d="M22.423,28.461L22.423,15.325C22.423,9.572,27.086,4.908,32.839,4.908C38.592,4.908,43.256,9.572,43.256,15.325L43.256,28.461L48.694,28.461L48.694,15.325C48.694,6.569,41.596,-0.53,32.839,-0.53C24.083,-0.53,16.985,6.569,16.985,15.325L16.985,28.461L22.423,28.461ZM10.946,31.18L54.732,31.18C55.649,31.18,56.392,31.923,56.392,32.839L56.392,59.111C56.392,60.027,55.649,60.77,54.732,60.77L10.946,60.77C10.03,60.77,9.287,60.027,9.287,59.111L9.287,32.839C9.287,31.923,10.03,31.18,10.946,31.18ZM10.946,25.742C7.027,25.742,3.849,28.919,3.849,32.839L3.849,59.111C3.849,63.031,7.027,66.209,10.946,66.209L54.732,66.209C58.652,66.209,61.83,63.031,61.83,59.111L61.83,32.839C61.83,28.919,58.652,25.742,54.732,25.742L10.946,25.742Z"/>
</g>
  <g id="Regular-S" transform="matrix(1.0,0.0,0.0,1.0,1418.2906253487722,627.9306448800223)">  <path stroke-linecap="butt" fill-rule="nonzero" stroke-linejoin="miter" stroke-opacity="1" stroke-width="1px" stroke="none" fill="#000000" stroke-miterlimit="4" stroke-dasharray="none" fill-opacity="1" d="M21.893,28.461L21.893,15.325C21.893,9.279,26.794,4.379,32.839,4.379C38.885,4.379,43.786,9.279,43.786,15.325L43.786,28.461L48.164,28.461L48.164,15.325C48.164,6.861,41.303,0,32.839,0C24.376,0,17.514,6.861,17.514,15.325L17.514,28.461L21.893,28.461ZM10.946,30.65L54.732,30.65C55.941,30.65,56.922,31.63,56.922,32.839L56.922,59.111C56.922,60.32,55.941,61.3,54.732,61.3L10.946,61.3C9.737,61.3,8.757,60.32,8.757,59.111L8.757,32.839C8.757,31.63,9.737,30.65,10.946,30.65ZM10.946,26.271C7.319,26.271,4.379,29.212,4.379,32.839L4.379,59.111C4.379,62.738,7.319,65.679,10.946,65.679L54.732,65.679C58.36,65.679,61.3,62.738,61.3,59.111L61.3,32.839C61.3,29.212,58.36,26.271,54.732,26.271L10.946,26.271Z"/>
</g>
  <g id="Light-S" transform="matrix(1.0,0.0,0.0,1.0,1121.5806253487724,627.9306448800223)">  <path stroke-miterlimit="4" stroke-linejoin="miter" stroke="none" fill="#000000" stroke-dasharray="none" stroke-linecap="butt" stroke-opacity="1" fill-opacity="1" stroke-width="1px" fill-rule="nonzero" d="M21.528,28.461L21.528,15.325C21.528,9.078,26.592,4.014,32.839,4.014C39.086,4.014,44.151,9.078,44.151,15.325L44.151,28.461L47.8,28.461L47.8,15.325C47.8,7.063,41.102,0.365,32.839,0.365C24.577,0.365,17.879,7.063,17.879,15.325L17.879,28.461L21.528,28.461ZM10.946,30.285L54.732,30.285C56.143,30.285,57.286,31.429,57.286,32.839L57.286,59.111C57.286,60.522,56.143,61.665,54.732,61.665L10.946,61.665C9.536,61.665,8.392,60.522,8.392,59.111L8.392,32.839C8.392,31.429,9.536,30.285,10.946,30.285ZM10.946,26.636C7.521,26.636,4.743,29.414,4.743,32.839L4.743,59.111C4.743,62.537,7.521,65.314,10.946,65.314L54.732,65.314C58.158,65.314,60.935,62.537,60.935,59.111L60.935,32.839C60.935,29.414,58.158,26.636,54.732,26.636L10.946,26.636Z"/>
</g>
  <g id="Thin-S" transform="matrix(1.0,0.0,0.0,1.0,824.8706253487724,627.9306448800223)">  <path stroke-opacity="1" stroke-linejoin="miter" stroke-miterlimit="4" stroke-linecap="butt" fill="#000000" stroke-dasharray="none" fill-rule="nonzero" stroke-width="1px" stroke="none" fill-opacity="1" d="M21.163,28.461L21.163,15.325C21.163,8.876,26.391,3.649,32.839,3.649C39.288,3.649,44.516,8.876,44.516,15.325L44.516,28.461L47.435,28.461L47.435,15.325C47.435,7.264,40.9,0.73,32.839,0.73C24.779,0.73,18.244,7.264,18.244,15.325L18.244,28.461L21.163,28.461ZM10.946,29.92L54.732,29.92C56.344,29.92,57.651,31.227,57.651,32.839L57.651,59.111C57.651,60.723,56.345,62.03,54.732,62.03L10.946,62.03C9.334,62.03,8.027,60.723,8.027,59.111L8.027,32.839C8.027,31.227,9.334,29.92,10.946,29.92ZM10.946,27.001C7.722,27.001,5.108,29.615,5.108,32.839L5.108,59.111C5.108,62.335,7.722,64.949,10.946,64.949L54.732,64.949C57.957,64.949,60.57,62.335,60.57,59.111L60.57,32.839C60.57,29.615,57.957,27.001,54.732,27.001L10.946,27.001Z"/>
</g>
  <g id="Ultralight-S" transform="matrix(1.0,0.0,0.0,1.0,528.1606253487723,627.9306448800223)">  <path stroke-linecap="butt" stroke-miterlimit="4" fill="#000000" stroke-dasharray="none" fill-opacity="1" stroke-width="1px" stroke="none" stroke-opacity="1" stroke-linejoin="miter" fill-rule="nonzero" d="M20.798,28.461L20.798,15.325C20.798,8.675,26.189,3.284,32.839,3.284C39.489,3.284,44.88,8.675,44.88,15.325L44.88,28.461L47.07,28.461L47.07,15.325C47.07,7.466,40.699,1.095,32.839,1.095C24.98,1.095,18.609,7.466,18.609,15.325L18.609,28.461L20.798,28.461ZM10.946,29.555L54.732,29.555C56.546,29.555,58.016,31.026,58.016,32.839L58.016,59.111C58.016,60.925,56.546,62.395,54.732,62.395L10.946,62.395C9.133,62.395,7.663,60.925,7.663,59.111L7.663,32.839C7.663,31.026,9.133,29.555,10.946,29.555ZM10.946,27.366C7.924,27.366,5.473,29.817,5.473,32.839L5.473,59.111C5.473,62.134,7.924,64.584,10.946,64.584L54.732,64.584C57.755,64.584,60.206,62.134,60.206,59.111L60.206,32.839C60.206,29.817,57.755,27.366,54.732,27.366L10.946,27.366Z"/>
</g>
 </g>
</svg>
