<?xml version="1.0" encoding="UTF-8"?>
<!-- Generator: CustomSymbols v2.6.2.41 by @serious_bret https://bretlester.com/app_content/CustomSymbols/ -->
<!-- Guides: Left/Right -0.031/-0.031 Cap/Base 0.08/0.08 -->
<!-- Settings: RefScale 1.0 Min/Max Stroke Scales 0.5/2.21 -->
<!DOCTYPE svg
PUBLIC "-//W3C//DTD SVG 1.1//EN"
       "http://www.w3.org/Graphics/SVG/1.1/DTD/svg11.dtd">
<svg version="1.1" xmlns="http://www.w3.org/2000/svg" xmlns:xlink="http://www.w3.org/1999/xlink" width="3300" height="2200">
<![CDATA[<svg width="15" height="15" viewBox="0 0 15 15" fill="none" xmlns="http://www.w3.org/2000/svg">
<path d="M1.5 15V6M1.5 6.5C1.5 3.18629 4.18629 0.5 7.5 0.5C10.8137 0.5 13.5 3.18629 13.5 6.5V15M10.5 4.5L9.00746 4.4005C6.33275 4.22218 3.93974 5.79104 2.95478 8.13786C2.46617 9.30207 2.7688 10.6048 3.28158 11.7586V11.7586C4.0225 13.4256 5.6757 14.5 7.5 14.5C9.3243 14.5 10.9775 13.4256 11.7184 11.7586V11.7586C12.2299 10.6078 12.5658 9.33686 12.3261 8.10063C11.943 6.12496 11.0193 5.01926 10.5 4.5ZM10.5 4.5V3M6.5 12.5H8C8.82843 12.5 9.5 11.8284 9.5 11M12.5 9.5H10.5C9.39543 9.5 8.5 8.60457 8.5 7.5M8.5 7.5H12M8.5 7.5H6.5M3.5 7.5H6.5M6.5 7.5C6.5 8.60457 5.60457 9.5 4.5 9.5H2.5" stroke="#1D1929"/>
</svg>
]]>
 <g id="Notes">
  <rect height="2200" id="artboard" style="fill:white;opacity:1" width="3300" x="0" y="0"/>
  <line id="" style="fill:none;stroke:black;opacity:1;stroke-width:0.5;" x1="263" x2="3036" y1="292" y2="292"/>
  <text id="reftext1" style="stroke:none;fill:black;font-family:-apple-system,&quot;SF Pro Display&quot;,&quot;SF Pro Text&quot;,Helvetica,sans-serif;font-weight:bold;" transform="matrix(1 0 0 1 263 322)">Weight/Scale Variations</text>
  <text id="reftext2" style="stroke:none;fill:black;font-family:-apple-system,&quot;SF Pro Display&quot;,&quot;SF Pro Text&quot;,Helvetica,sans-serif;text-anchor:middle;" transform="matrix(1 0 0 1 559.711 322)">Ultralight</text>
  <text style="stroke:none;fill:black;font-family:-apple-system,&quot;SF Pro Display&quot;,&quot;SF Pro Text&quot;,Helvetica,sans-serif;text-anchor:middle;" transform="matrix(1 0 0 1 856.422 322)">Thin</text>
  <text style="stroke:none;fill:black;font-family:-apple-system,&quot;SF Pro Display&quot;,&quot;SF Pro Text&quot;,Helvetica,sans-serif;text-anchor:middle;" transform="matrix(1 0 0 1 1153.13 322)">Light</text>
  <text style="stroke:none;fill:black;font-family:-apple-system,&quot;SF Pro Display&quot;,&quot;SF Pro Text&quot;,Helvetica,sans-serif;text-anchor:middle;" transform="matrix(1 0 0 1 1449.84 322)">Regular</text>
  <text style="stroke:none;fill:black;font-family:-apple-system,&quot;SF Pro Display&quot;,&quot;SF Pro Text&quot;,Helvetica,sans-serif;text-anchor:middle;" transform="matrix(1 0 0 1 1746.56 322)">Medium</text>
  <text style="stroke:none;fill:black;font-family:-apple-system,&quot;SF Pro Display&quot;,&quot;SF Pro Text&quot;,Helvetica,sans-serif;text-anchor:middle;" transform="matrix(1 0 0 1 2043.27 322)">Semibold</text>
  <text style="stroke:none;fill:black;font-family:-apple-system,&quot;SF Pro Display&quot;,&quot;SF Pro Text&quot;,Helvetica,sans-serif;text-anchor:middle;" transform="matrix(1 0 0 1 2339.98 322)">Bold</text>
  <text style="stroke:none;fill:black;font-family:-apple-system,&quot;SF Pro Display&quot;,&quot;SF Pro Text&quot;,Helvetica,sans-serif;text-anchor:middle;" transform="matrix(1 0 0 1 2636.69 322)">Heavy</text>
  <text style="stroke:none;fill:black;font-family:-apple-system,&quot;SF Pro Display&quot;,&quot;SF Pro Text&quot;,Helvetica,sans-serif;text-anchor:middle;" transform="matrix(1 0 0 1 2933.4 322)">Black</text>
  <line id="" style="fill:none;stroke:black;opacity:1;stroke-width:0.5;" x1="263" x2="3036" y1="1903" y2="1903"/>
  <g id="" transform="matrix(1 0 0 1 263 1933)">
   <path d="M9.24805 0.830078C13.5547 0.830078 17.1387-2.74414 17.1387-7.05078C17.1387-11.3574 13.5449-14.9316 9.23828-14.9316C4.94141-14.9316 1.36719-11.3574 1.36719-7.05078C1.36719-2.74414 4.95117 0.830078 9.24805 0.830078ZM9.24805-0.654297C5.70312-0.654297 2.87109-3.49609 2.87109-7.05078C2.87109-10.6055 5.69336-13.4473 9.23828-13.4473C12.793-13.4473 15.6348-10.6055 15.6445-7.05078C15.6543-3.49609 12.8027-0.654297 9.24805-0.654297ZM6.39648-6.31836L8.50586-6.31836L8.50586-4.19922C8.50586-3.75977 8.79883-3.45703 9.22852-3.45703C9.67773-3.45703 9.9707-3.75977 9.9707-4.19922L9.9707-6.31836L12.0996-6.31836C12.5391-6.31836 12.8418-6.61133 12.8418-7.04102C12.8418-7.48047 12.5391-7.7832 12.0996-7.7832L9.9707-7.7832L9.9707-9.89258C9.9707-10.3418 9.67773-10.6445 9.22852-10.6445C8.79883-10.6445 8.50586-10.3418 8.50586-9.89258L8.50586-7.7832L6.39648-7.7832C5.94727-7.7832 5.64453-7.48047 5.64453-7.04102C5.64453-6.61133 5.94727-6.31836 6.39648-6.31836Z"/>
  </g>
  <g id="" transform="matrix(1 0 0 1 281.506 1933)">
   <path d="M11.709 2.91016C17.1582 2.91016 21.6699-1.61133 21.6699-7.05078C21.6699-12.5 17.1484-17.0117 11.6992-17.0117C6.25977-17.0117 1.74805-12.5 1.74805-7.05078C1.74805-1.61133 6.26953 2.91016 11.709 2.91016ZM11.709 1.25C7.09961 1.25 3.41797-2.44141 3.41797-7.05078C3.41797-11.6602 7.08984-15.3516 11.6992-15.3516C16.3086-15.3516 20-11.6602 20.0098-7.05078C20.0195-2.44141 16.3184 1.25 11.709 1.25ZM7.98828-6.23047L10.8789-6.23047L10.8789-3.32031C10.8789-2.83203 11.2109-2.5 11.6895-2.5C12.1777-2.5 12.5195-2.83203 12.5195-3.32031L12.5195-6.23047L15.4297-6.23047C15.918-6.23047 16.25-6.5625 16.25-7.04102C16.25-7.5293 15.918-7.87109 15.4297-7.87109L12.5195-7.87109L12.5195-10.7617C12.5195-11.2695 12.1777-11.6016 11.6895-11.6016C11.2109-11.6016 10.8789-11.2598 10.8789-10.7617L10.8789-7.87109L7.98828-7.87109C7.48047-7.87109 7.14844-7.5293 7.14844-7.04102C7.14844-6.5625 7.49023-6.23047 7.98828-6.23047Z"/>
  </g>
  <g id="" transform="matrix(1 0 0 1 304.924 1933)">
   <path d="M14.9707 5.66406C21.9336 5.66406 27.6953-0.0976562 27.6953-7.05078C27.6953-14.0137 21.9238-19.7754 14.9609-19.7754C8.00781-19.7754 2.25586-14.0137 2.25586-7.05078C2.25586-0.0976562 8.01758 5.66406 14.9707 5.66406ZM14.9707 3.84766C8.93555 3.84766 4.08203-1.01562 4.08203-7.05078C4.08203-13.0957 8.92578-17.9492 14.9609-17.9492C21.0059-17.9492 25.8594-13.0957 25.8691-7.05078C25.8789-1.01562 21.0156 3.84766 14.9707 3.84766ZM10.0586-6.14258L14.0625-6.14258L14.0625-2.12891C14.0625-1.5918 14.4336-1.2207 14.9512-1.2207C15.4883-1.2207 15.8594-1.5918 15.8594-2.12891L15.8594-6.14258L19.8828-6.14258C20.4102-6.14258 20.791-6.51367 20.791-7.03125C20.791-7.56836 20.4199-7.94922 19.8828-7.94922L15.8594-7.94922L15.8594-11.9531C15.8594-12.5098 15.4883-12.8809 14.9512-12.8809C14.4336-12.8809 14.0625-12.5 14.0625-11.9531L14.0625-7.94922L10.0586-7.94922C9.50195-7.94922 9.13086-7.56836 9.13086-7.03125C9.13086-6.51367 9.51172-6.14258 10.0586-6.14258Z"/>
  </g>
  <text style="stroke:none;fill:black;font-family:-apple-system,&quot;SF Pro Display&quot;,&quot;SF Pro Text&quot;,Helvetica,sans-serif;font-weight:bold;" transform="matrix(1 0 0 1 263 1953)">Design Variations</text>
  <text style="stroke:none;fill:black;font-family:-apple-system,&quot;SF Pro Display&quot;,&quot;SF Pro Text&quot;,Helvetica,sans-serif;" transform="matrix(1 0 0 1 263 1971)">Symbols are supported in up to nine weights and three scales.</text>
  <text style="stroke:none;fill:black;font-family:-apple-system,&quot;SF Pro Display&quot;,&quot;SF Pro Text&quot;,Helvetica,sans-serif;" transform="matrix(1 0 0 1 263 1989)">For optimal layout with text and other symbols, vertically align</text>
  <text style="stroke:none;fill:black;font-family:-apple-system,&quot;SF Pro Display&quot;,&quot;SF Pro Text&quot;,Helvetica,sans-serif;" transform="matrix(1 0 0 1 263 2007)">symbols with the adjacent text.</text>
  <line id="" style="fill:none;stroke:#00AEEF;stroke-width:0.5;opacity:1.0;" x1="776" x2="776" y1="1919" y2="1933"/>
  <g id="" transform="matrix(1 0 0 1 776 1933)">
   <path d="M3.31055 0.126953C3.82812 0.126953 4.08203-0.0683594 4.26758-0.605469L5.52734-4.0625L11.2891-4.0625L12.5488-0.605469C12.7344-0.0683594 12.9883 0.126953 13.4961 0.126953C14.0137 0.126953 14.3457-0.185547 14.3457-0.673828C14.3457-0.839844 14.3164-0.986328 14.2383-1.20117L9.6582-13.3887C9.43359-13.9941 9.0332-14.2871 8.4082-14.2871C7.80273-14.2871 7.39258-13.9941 7.17773-13.3984L2.59766-1.19141C2.51953-0.976562 2.49023-0.830078 2.49023-0.664062C2.49023-0.175781 2.80273 0.126953 3.31055 0.126953ZM6.00586-5.53711L8.37891-12.1094L8.42773-12.1094L10.8008-5.53711Z"/>
  </g>
  <line id="" style="fill:none;stroke:#00AEEF;stroke-width:0.5;opacity:1.0;" x1="792.836" x2="792.836" y1="1919" y2="1933"/>
  <text style="stroke:none;fill:black;font-family:-apple-system,&quot;SF Pro Display&quot;,&quot;SF Pro Text&quot;,Helvetica,sans-serif;font-weight:bold;" transform="matrix(1 0 0 1 776 1953)">Margins</text>
  <text style="stroke:none;fill:black;font-family:-apple-system,&quot;SF Pro Display&quot;,&quot;SF Pro Text&quot;,Helvetica,sans-serif;" transform="matrix(1 0 0 1 776 1971)">Leading and trailing margins on the left and right side of each symbol</text>
  <text style="stroke:none;fill:black;font-family:-apple-system,&quot;SF Pro Display&quot;,&quot;SF Pro Text&quot;,Helvetica,sans-serif;" transform="matrix(1 0 0 1 776 1989)">can be adjusted by modifying the x-location of the margin guidelines.</text>
  <text style="stroke:none;fill:black;font-family:-apple-system,&quot;SF Pro Display&quot;,&quot;SF Pro Text&quot;,Helvetica,sans-serif;" transform="matrix(1 0 0 1 776 2007)">Modifications are automatically applied proportionally to all</text>
  <text style="stroke:none;fill:black;font-family:-apple-system,&quot;SF Pro Display&quot;,&quot;SF Pro Text&quot;,Helvetica,sans-serif;" transform="matrix(1 0 0 1 776 2025)">scales and weights.</text>
  <g id="" transform="matrix(1 0 0 1 1289 1933)">
   <path d="M2.8418 1.86523L4.54102 3.57422C5.40039 4.44336 6.38672 4.38477 7.31445 3.35938L17.4902-7.85156C17.7539-7.76367 18.0273-7.7832 18.3398-7.8418L19.4043-8.03711L20.0684-7.36328L20.0293-6.80664C19.9902-6.30859 20.1172-5.92773 20.6055-5.44922L21.3672-4.70703C21.8457-4.22852 22.4609-4.19922 22.9297-4.66797L25.8398-7.58789C26.3086-8.05664 26.2891-8.65234 25.8105-9.13086L25.0391-9.89258C24.5605-10.3711 24.1895-10.5273 23.7109-10.4883L23.1348-10.4395L22.4902-11.0742L22.7344-12.1973C22.8613-12.7637 22.7051-13.2031 22.1191-13.7891L19.9219-15.9766C16.582-19.2969 12.1484-19.2188 9.25781-16.3281C8.83789-15.918 8.80859-15.3418 9.04297-14.9512C9.27734-14.5898 9.73633-14.3555 10.3809-14.5215C11.8457-14.8633 13.3691-14.9219 14.7949-13.9844L14.209-12.5293C14.0137-12.0508 13.9844-11.6504 14.1113-11.2891L3.04688-0.898438C2.06055 0.0195312 1.98242 0.996094 2.8418 1.86523ZM10.752-15.957C13.1836-17.7344 16.4746-17.4316 18.7012-15.2051L21.1328-12.793C21.3672-12.5586 21.4062-12.373 21.3379-12.0312L21.0156-10.5469L22.5195-9.0625L23.5059-9.12109C23.7598-9.13086 23.8379-9.11133 24.0332-8.91602L24.6094-8.33984L22.168-5.89844L21.5918-6.47461C21.3965-6.66992 21.3672-6.74805 21.377-7.01172L21.4453-7.98828L19.9512-9.47266L18.4277-9.21875C18.1055-9.15039 17.959-9.17969 17.7148-9.41406L15.7129-11.416C15.459-11.6504 15.4297-11.8164 15.5859-12.1875L16.4648-14.2773C14.9023-15.7324 12.8711-16.3574 10.8398-15.7617C10.6836-15.7227 10.625-15.8496 10.752-15.957ZM5.27344 2.30469L4.10156 1.14258C3.63281 0.683594 3.74023 0.341797 4.14062-0.0195312L14.9512-10.1953L16.416-8.71094L6.42578 2.27539C6.07422 2.67578 5.74219 2.77344 5.27344 2.30469Z"/>
  </g>
  <text style="stroke:none;fill:black;font-family:-apple-system,&quot;SF Pro Display&quot;,&quot;SF Pro Text&quot;,Helvetica,sans-serif;font-weight:bold;" transform="matrix(1 0 0 1 1289 1953)">Exporting</text>
  <text style="stroke:none;fill:black;font-family:-apple-system,&quot;SF Pro Display&quot;,&quot;SF Pro Text&quot;,Helvetica,sans-serif;" transform="matrix(1 0 0 1 1289 1971)">Symbols should be outlined when exporting to ensure the</text>
  <text style="stroke:none;fill:black;font-family:-apple-system,&quot;SF Pro Display&quot;,&quot;SF Pro Text&quot;,Helvetica,sans-serif;" transform="matrix(1 0 0 1 1289 1989)">design is preserved when submitting to Xcode.</text>
  <text id="template-version" style="stroke:none;fill:black;font-family:-apple-system,&quot;SF Pro Display&quot;,&quot;SF Pro Text&quot;,Helvetica,sans-serif;text-anchor:end;" transform="matrix(1 0 0 1 3036 1933)">Template v.2.0</text>
  <text style="stroke:none;fill:black;font-family:-apple-system,&quot;SF Pro Display&quot;,&quot;SF Pro Text&quot;,Helvetica,sans-serif;text-anchor:end;" transform="matrix(1 0 0 1 3036 1951)">Requires Xcode 12 or greater</text>
  <text style="stroke:none;fill:black;font-family:-apple-system,&quot;SF Pro Display&quot;,&quot;SF Pro Text&quot;,Helvetica,sans-serif;" transform="matrix(1 0 0 1 263 726)">Small</text>
  <text style="stroke:none;fill:black;font-family:-apple-system,&quot;SF Pro Display&quot;,&quot;SF Pro Text&quot;,Helvetica,sans-serif;" transform="matrix(1 0 0 1 263 1156)">Medium</text>
  <text style="stroke:none;fill:black;font-family:-apple-system,&quot;SF Pro Display&quot;,&quot;SF Pro Text&quot;,Helvetica,sans-serif;" transform="matrix(1 0 0 1 263 1586)">Large</text>
 </g>
 <g id="Guides">
  <g id="H-reference" style="fill:#27AAE1;stroke:none;" transform="matrix(1 0 0 1 339 696)">
   <path d="M0.976562 0L3.66211 0L12.9883-24.4629L45.752-24.4629L55.127 0L57.7637 0L30.6152-70.459L28.125-70.459ZM29.3457-67.1387L29.4434-67.1387L44.873-26.709L13.8672-26.709Z"/>
  </g>
  <line id="Baseline-S" style="fill:none;stroke:#27AAE1;opacity:1;stroke-width:0.5;" x1="263" x2="3036" y1="696" y2="696"/>
  <line id="Capline-S" style="fill:none;stroke:#27AAE1;opacity:1;stroke-width:0.5;" x1="263" x2="3036" y1="625.541" y2="625.541"/>
  <g id="H-reference" style="fill:#27AAE1;stroke:none;" transform="matrix(1 0 0 1 339 1126)">
   <path d="M0.976562 0L3.66211 0L12.9883-24.4629L45.752-24.4629L55.127 0L57.7637 0L30.6152-70.459L28.125-70.459ZM29.3457-67.1387L29.4434-67.1387L44.873-26.709L13.8672-26.709Z"/>
  </g>
  <line id="Baseline-M" style="fill:none;stroke:#27AAE1;opacity:1;stroke-width:0.5;" x1="263" x2="3036" y1="1126" y2="1126"/>
  <line id="Capline-M" style="fill:none;stroke:#27AAE1;opacity:1;stroke-width:0.5;" x1="263" x2="3036" y1="1055.54" y2="1055.54"/>
  <g id="H-reference" style="fill:#27AAE1;stroke:none;" transform="matrix(1 0 0 1 339 1556)">
   <path d="M0.976562 0L3.66211 0L12.9883-24.4629L45.752-24.4629L55.127 0L57.7637 0L30.6152-70.459L28.125-70.459ZM29.3457-67.1387L29.4434-67.1387L44.873-26.709L13.8672-26.709Z"/>
  </g>
  <line id="Baseline-L" style="fill:none;stroke:#27AAE1;opacity:1;stroke-width:0.5;" x1="263" x2="3036" y1="1556" y2="1556"/>
  <line id="Capline-L" style="fill:none;stroke:#27AAE1;opacity:1;stroke-width:0.5;" x1="263" x2="3036" y1="1485.54" y2="1485.54"/>
  <line id="left-margin" x1="1406.5892389787946" x2="1406.5892389787946" y1="1030.79" y2="1150.12" style="fill:none;stroke:#00AEEF;stroke-width:0.5;opacity:1.0;"/>
  <line id="right-margin" x1="1495.6707610212052" x2="1495.6707610212052" y1="1030.79" y2="1150.12" style="fill:none;stroke:#00AEEF;stroke-width:0.5;opacity:1.0;"/>
 </g>
 <g id="Symbols">
  <g id="Black-L" transform="matrix(1.0,0.0,0.0,1.0,2880.576815708705,1466.6668352399554)">  <path stroke-linejoin="miter" stroke="none" stroke-dasharray="none" fill="#000000" stroke-opacity="1" fill-opacity="1" stroke-miterlimit="4" stroke-width="1px" stroke-linecap="butt" fill-rule="nonzero" d="M18.792,108.206L18.792,43.283L2.849,43.283L2.849,108.206L18.792,108.206ZM18.792,46.889C18.792,27.387,34.601,11.578,54.103,11.578C73.605,11.578,89.415,27.388,89.415,46.889L89.415,108.206L105.357,108.206L105.357,46.889C105.357,18.583,82.41,-4.364,54.103,-4.364C25.797,-4.364,2.849,18.583,2.849,46.889L18.792,46.889ZM76.275,24.508L65.508,23.791C43.131,22.299,22.513,35.253,13.965,55.62C9.807,65.526,11.194,76.373,16.388,88.061C23.013,102.965,37.793,112.571,54.103,112.571C70.413,112.571,85.194,102.965,91.818,88.061C96.699,77.079,98.663,66.821,96.743,56.919C94.15,43.549,88.593,34.037,81.381,26.825L79.263,24.708L76.275,24.508ZM75.214,40.415L75.744,32.462L70.108,38.099C75.206,43.196,79.152,49.95,81.092,59.953C82.294,66.154,80.921,73.325,77.25,81.586C73.184,90.733,64.113,96.628,54.103,96.628C44.093,96.628,35.022,90.733,30.957,81.586C27.375,73.527,26.526,66.886,28.665,61.789C34.597,47.657,48.913,38.662,64.447,39.698L75.214,40.415ZM83.716,32.462L83.716,21.641L67.773,21.641L67.773,32.462L83.716,32.462ZM46.889,98.143L57.71,98.143C68.088,98.143,76.502,89.73,76.502,79.351L60.559,79.351C60.559,80.925,59.284,82.201,57.71,82.201L46.889,82.201L46.889,98.143ZM90.172,60.559L75.744,60.559C72.179,60.559,69.288,57.669,69.288,54.103L53.346,54.103C53.346,66.474,63.374,76.502,75.744,76.502L90.172,76.502L90.172,60.559ZM61.317,62.074L86.565,62.074L86.565,46.132L61.317,46.132L61.317,62.074ZM61.317,46.132L46.889,46.132L46.889,62.074L61.317,62.074L61.317,46.132ZM25.248,62.074L46.889,62.074L46.889,46.132L25.248,46.132L25.248,62.074ZM38.918,54.103C38.918,57.669,36.028,60.559,32.462,60.559L18.034,60.559L18.034,76.502L32.462,76.502C44.832,76.502,54.861,66.474,54.861,54.103L38.918,54.103Z"/>
</g>
  <g id="Heavy-L" transform="matrix(1.0,0.0,0.0,1.0,2583.866815708705,1466.6668352399554)">  <path stroke-linecap="butt" stroke="none" stroke-width="1px" stroke-dasharray="none" stroke-miterlimit="4" stroke-linejoin="miter" fill="#000000" fill-rule="nonzero" stroke-opacity="1" fill-opacity="1" d="M17.919,108.206L17.919,43.283L3.722,43.283L3.722,108.206L17.919,108.206ZM17.919,46.889C17.919,26.905,34.119,10.705,54.103,10.705C74.087,10.705,90.287,26.905,90.287,46.889L90.287,108.206L104.484,108.206L104.484,46.889C104.484,19.065,81.928,-3.491,54.103,-3.491C26.279,-3.491,3.722,19.065,3.722,46.889L17.919,46.889ZM76.217,25.379L65.45,24.662C43.448,23.195,23.175,35.932,14.77,55.958C10.723,65.601,12.08,76.217,17.186,87.707C23.67,102.296,38.138,111.698,54.103,111.698C70.068,111.698,84.536,102.295,91.02,87.707C95.835,76.874,97.767,66.784,95.886,57.085C93.329,43.899,87.86,34.538,80.764,27.442L78.878,25.557L76.217,25.379ZM75.272,39.545L75.744,32.462L70.725,37.481C75.939,42.695,79.974,49.6,81.949,59.787C83.19,66.19,81.785,73.531,78.047,81.941C73.842,91.403,64.458,97.501,54.103,97.501C43.748,97.501,34.365,91.403,30.159,81.941C26.489,73.683,25.611,66.812,27.86,61.452C33.935,46.978,48.597,37.766,64.505,38.827L75.272,39.545ZM82.843,32.462L82.843,21.641L68.646,21.641L68.646,32.462L82.843,32.462ZM46.889,97.27L57.71,97.27C67.606,97.27,75.629,89.248,75.629,79.351L61.432,79.351C61.432,81.407,59.766,83.074,57.71,83.074L46.889,83.074L46.889,97.27ZM90.172,61.432L75.744,61.432C71.697,61.432,68.415,58.151,68.415,54.103L54.219,54.103C54.219,65.992,63.856,75.629,75.744,75.629L90.172,75.629L90.172,61.432ZM61.317,61.202L86.565,61.202L86.565,47.005L61.317,47.005L61.317,61.202ZM61.317,47.005L46.889,47.005L46.889,61.202L61.317,61.202L61.317,47.005ZM25.248,61.202L46.889,61.202L46.889,47.005L25.248,47.005L25.248,61.202ZM39.791,54.103C39.791,58.151,36.51,61.432,32.462,61.432L18.034,61.432L18.034,75.629L32.462,75.629C44.35,75.629,53.988,65.992,53.988,54.103L39.791,54.103Z"/>
</g>
  <g id="Bold-L" transform="matrix(1.0,0.0,0.0,1.0,2287.156815708705,1466.6668352399554)">  <path stroke-opacity="1" fill-opacity="1" stroke-width="1px" stroke="none" fill-rule="nonzero" stroke-miterlimit="4" stroke-linejoin="miter" fill="#000000" stroke-dasharray="none" stroke-linecap="butt" d="M17.046,108.206L17.046,43.283L4.595,43.283L4.595,108.206L17.046,108.206ZM17.046,46.889C17.046,26.423,33.637,9.832,54.103,9.832C74.569,9.832,91.16,26.423,91.16,46.889L91.16,108.206L103.611,108.206L103.611,46.889C103.611,19.547,81.446,-2.619,54.103,-2.619C26.761,-2.619,4.595,19.547,4.595,46.889L17.046,46.889ZM76.159,26.25L65.392,25.532C43.764,24.091,23.836,36.611,15.575,56.295C11.638,65.675,12.966,76.061,17.984,87.352C24.328,101.626,38.483,110.825,54.103,110.825C69.723,110.825,83.879,101.626,90.223,87.352C94.971,76.668,96.871,66.748,95.029,57.251C92.508,44.25,87.127,35.04,80.146,28.06L78.492,26.406L76.159,26.25ZM75.33,38.674L75.744,32.462L71.343,36.864C76.672,42.193,80.795,49.249,82.806,59.621C84.087,66.227,82.649,73.736,78.845,82.295C74.499,92.073,64.803,98.374,54.103,98.374C43.404,98.374,33.707,92.073,29.361,82.295C25.603,73.839,24.695,66.737,27.055,61.114C33.273,46.299,48.28,36.87,64.564,37.956L75.33,38.674ZM81.97,32.462L81.97,21.641L69.519,21.641L69.519,32.462L81.97,32.462ZM46.889,96.397L57.71,96.397C67.124,96.397,74.756,88.766,74.756,79.351L62.305,79.351C62.305,81.889,60.248,83.947,57.71,83.947L46.889,83.947L46.889,96.397ZM90.172,62.305L75.744,62.305C71.215,62.305,67.542,58.633,67.542,54.103L55.091,54.103C55.091,65.51,64.338,74.756,75.744,74.756L90.172,74.756L90.172,62.305ZM61.317,60.329L86.565,60.329L86.565,47.878L61.317,47.878L61.317,60.329ZM61.317,47.878L46.889,47.878L46.889,60.329L61.317,60.329L61.317,47.878ZM25.248,60.329L46.889,60.329L46.889,47.878L25.248,47.878L25.248,60.329ZM40.664,54.103C40.664,58.633,36.992,62.305,32.462,62.305L18.034,62.305L18.034,74.756L32.462,74.756C43.868,74.756,53.115,65.51,53.115,54.103L40.664,54.103Z"/>
</g>
  <g id="Semibold-L" transform="matrix(1.0,0.0,0.0,1.0,1990.4468157087053,1466.6668352399554)">  <path fill="#000000" fill-rule="nonzero" stroke-width="1px" fill-opacity="1" stroke-opacity="1" stroke-dasharray="none" stroke-linecap="butt" stroke="none" stroke-linejoin="miter" stroke-miterlimit="4" d="M16.173,108.206L16.173,43.283L5.468,43.283L5.468,108.206L16.173,108.206ZM16.173,46.889C16.173,25.941,33.155,8.959,54.103,8.959C75.051,8.959,92.033,25.941,92.033,46.889L92.033,108.206L102.738,108.206L102.738,46.889C102.738,20.029,80.964,-1.746,54.103,-1.746C27.243,-1.746,5.468,20.029,5.468,46.889L16.173,46.889ZM76.1,27.121L65.334,26.403C44.081,24.986,24.498,37.29,16.38,56.633C12.553,65.75,13.852,75.906,18.781,86.998C24.985,100.956,38.828,109.952,54.103,109.952C69.378,109.952,83.221,100.956,89.425,86.998C94.107,76.463,95.974,66.711,94.172,57.417C91.687,44.6,86.394,35.541,79.529,28.677L78.107,27.255L76.1,27.121ZM75.388,37.803L75.744,32.462L71.96,36.247C77.405,41.692,81.616,48.899,83.663,59.455C84.983,66.263,83.513,73.942,79.642,82.65C75.157,92.742,65.148,99.247,54.103,99.247C43.059,99.247,33.05,92.742,28.564,82.65C24.717,73.994,23.78,66.663,26.251,60.776C32.612,45.62,47.964,35.974,64.622,37.085L75.388,37.803ZM81.097,32.462L81.097,21.641L70.392,21.641L70.392,32.462L81.097,32.462ZM46.889,95.525L57.71,95.525C66.642,95.525,73.883,88.283,73.883,79.351L63.178,79.351C63.178,82.371,60.73,84.819,57.71,84.819L46.889,84.819L46.889,95.525ZM90.172,63.178L75.744,63.178C70.733,63.178,66.67,59.115,66.67,54.103L55.964,54.103C55.964,65.027,64.82,73.883,75.744,73.883L90.172,73.883L90.172,63.178ZM61.317,59.456L86.565,59.456L86.565,48.751L61.317,48.751L61.317,59.456ZM61.317,48.751L46.889,48.751L46.889,59.456L61.317,59.456L61.317,48.751ZM25.248,59.456L46.889,59.456L46.889,48.751L25.248,48.751L25.248,59.456ZM41.537,54.103C41.537,59.115,37.474,63.178,32.462,63.178L18.034,63.178L18.034,73.883L32.462,73.883C43.386,73.883,52.242,65.027,52.242,54.103L41.537,54.103Z"/>
</g>
  <g id="Medium-L" transform="matrix(1.0,0.0,0.0,1.0,1693.7368157087053,1466.6668352399554)">  <path stroke-opacity="1" stroke-linejoin="miter" stroke-miterlimit="4" stroke-linecap="butt" fill="#000000" stroke-dasharray="none" fill-rule="nonzero" stroke-width="1px" stroke="none" fill-opacity="1" d="M15.3,108.206L15.3,43.283L6.341,43.283L6.341,108.206L15.3,108.206ZM15.3,46.889C15.3,25.459,32.673,8.087,54.103,8.087C75.533,8.087,92.906,25.459,92.906,46.889L92.906,108.206L101.865,108.206L101.865,46.889C101.865,20.511,80.482,-0.873,54.103,-0.873C27.725,-0.873,6.341,20.511,6.341,46.889L15.3,46.889ZM76.042,27.992L65.276,27.274C44.398,25.882,25.159,37.969,17.184,56.971C13.469,65.824,14.738,75.75,19.579,86.643C25.643,100.286,39.173,109.079,54.103,109.079C69.033,109.079,82.564,100.286,88.627,86.643C93.244,76.257,95.078,66.675,93.315,57.583C90.866,44.951,85.661,36.043,78.912,29.294L77.722,28.104L76.042,27.992ZM75.446,36.932L72.577,35.63C78.138,41.19,82.437,48.548,84.52,59.289C85.879,66.3,84.377,74.147,80.44,83.004C75.814,93.412,65.493,100.12,54.103,100.12C42.714,100.12,32.392,93.412,27.766,83.004C23.831,74.15,22.864,66.589,25.446,60.438C31.95,44.94,47.647,35.078,64.68,36.214L75.446,36.932ZM80.224,32.462L80.224,21.641L71.265,21.641L71.265,32.462L80.224,32.462ZM46.889,94.652L57.71,94.652C66.16,94.652,73.01,87.801,73.01,79.351L64.051,79.351C64.051,82.853,61.212,85.692,57.71,85.692L46.889,85.692L46.889,94.652ZM90.172,64.051L75.744,64.051C70.25,64.051,65.797,59.597,65.797,54.103L56.837,54.103C56.837,64.545,65.302,73.01,75.744,73.01L90.172,73.01L90.172,64.051ZM61.317,58.583L86.565,58.583L86.565,49.623L61.317,49.623L61.317,58.583ZM61.317,49.623L46.889,49.623L46.889,58.583L61.317,58.583L61.317,49.623ZM25.248,58.583L46.889,58.583L46.889,49.623L25.248,49.623L25.248,58.583ZM42.41,54.103C42.41,59.597,37.956,64.051,32.462,64.051L18.034,64.051L18.034,73.01L32.462,73.01C42.904,73.01,51.369,64.545,51.369,54.103L42.41,54.103Z"/>
</g>
  <g id="Regular-L" transform="matrix(1.0,0.0,0.0,1.0,1397.0268157087053,1466.6668352399554)">  <path stroke-linejoin="miter" stroke-miterlimit="4" fill-rule="nonzero" fill="#000000" stroke="none" stroke-linecap="butt" stroke-width="1px" fill-opacity="1" stroke-dasharray="none" stroke-opacity="1" d="M14.428,108.206L14.428,43.283L7.214,43.283L7.214,108.206L14.428,108.206ZM14.428,46.889C14.428,24.977,32.191,7.214,54.103,7.214C76.015,7.214,93.779,24.977,93.779,46.889L93.779,108.206L100.993,108.206L100.993,46.889C100.993,20.993,79.999,0,54.103,0C28.207,0,7.214,20.993,7.214,46.889L14.428,46.889ZM75.984,28.863L65.218,28.145C44.714,26.778,25.821,38.648,17.989,57.309C14.384,65.899,15.624,75.594,20.376,86.289C26.3,99.617,39.518,108.206,54.103,108.206C68.688,108.206,81.906,99.617,87.83,86.289C92.38,76.052,94.182,66.638,92.458,57.749C90.045,45.301,84.928,36.544,78.295,29.911L77.337,28.953L75.984,28.863ZM75.505,36.061L73.194,35.012C78.871,40.689,83.258,48.198,85.377,59.123C86.775,66.336,85.241,74.353,81.238,83.359C76.472,94.082,65.838,100.993,54.103,100.993C42.369,100.993,31.734,94.082,26.969,83.359C22.945,74.306,21.949,66.514,24.641,60.1C31.289,44.261,47.33,34.183,64.738,35.343L75.505,36.061ZM79.351,32.462L79.351,21.641L72.138,21.641L72.138,32.462L79.351,32.462ZM46.889,93.779L57.71,93.779C65.678,93.779,72.138,87.319,72.138,79.351L64.924,79.351C64.924,83.335,61.694,86.565,57.71,86.565L46.889,86.565L46.889,93.779ZM90.172,64.924L75.744,64.924C69.768,64.924,64.924,60.079,64.924,54.103L57.71,54.103C57.71,64.063,65.784,72.138,75.744,72.138L90.172,72.138L90.172,64.924ZM61.317,57.71L86.565,57.71L86.565,50.496L61.317,50.496L61.317,57.71ZM61.317,50.496L46.889,50.496L46.889,57.71L61.317,57.71L61.317,50.496ZM25.248,57.71L46.889,57.71L46.889,50.496L25.248,50.496L25.248,57.71ZM43.283,54.103C43.283,60.079,38.438,64.924,32.462,64.924L18.034,64.924L18.034,72.138L32.462,72.138C42.422,72.138,50.496,64.063,50.496,54.103L43.283,54.103Z"/>
</g>
  <g id="Light-L" transform="matrix(1.0,0.0,0.0,1.0,1100.3168157087055,1466.6668352399554)">  <path stroke-linecap="butt" stroke-miterlimit="4" fill="#000000" stroke-dasharray="none" fill-opacity="1" stroke-width="1px" stroke="none" stroke-opacity="1" stroke-linejoin="miter" fill-rule="nonzero" d="M13.826,108.206L13.826,43.283L7.815,43.283L7.815,108.206L13.826,108.206ZM13.826,46.889C13.826,24.645,31.859,6.613,54.103,6.613C76.347,6.613,94.38,24.645,94.38,46.889L94.38,108.206L100.391,108.206L100.391,46.889C100.391,21.325,79.667,0.601,54.103,0.601C28.539,0.601,7.815,21.325,7.815,46.889L13.826,46.889ZM75.944,29.463L65.178,28.745C44.932,27.395,26.277,39.116,18.544,57.541C15.014,65.95,16.234,75.487,20.926,86.044C26.753,99.155,39.755,107.605,54.103,107.605C68.451,107.605,81.453,99.155,87.28,86.044C91.785,75.91,93.565,66.613,91.868,57.864C89.479,45.543,84.423,36.889,77.87,30.336L77.071,29.538L75.944,29.463ZM75.545,35.461L73.619,34.587C79.375,40.343,83.824,47.956,85.967,59.008C87.393,66.361,85.836,74.494,81.787,83.603C76.925,94.543,66.075,101.594,54.103,101.594C42.131,101.594,31.282,94.543,26.419,83.603C22.335,74.413,21.319,66.463,24.087,59.868C30.833,43.793,47.112,33.565,64.778,34.743L75.545,35.461ZM78.75,32.462L78.75,21.641L72.739,21.641L72.739,32.462L78.75,32.462ZM46.889,93.178L57.71,93.178C65.346,93.178,71.536,86.987,71.536,79.351L65.525,79.351C65.525,83.667,62.026,87.166,57.71,87.166L46.889,87.166L46.889,93.178ZM90.172,65.525L75.744,65.525C69.436,65.525,64.323,60.411,64.323,54.103L58.311,54.103C58.311,63.731,66.116,71.536,75.744,71.536L90.172,71.536L90.172,65.525ZM61.317,57.109L86.565,57.109L86.565,51.097L61.317,51.097L61.317,57.109ZM61.317,51.097L46.889,51.097L46.889,57.109L61.317,57.109L61.317,51.097ZM25.248,57.109L46.889,57.109L46.889,51.097L25.248,51.097L25.248,57.109ZM43.884,54.103C43.884,60.411,38.77,65.525,32.462,65.525L18.034,65.525L18.034,71.536L32.462,71.536C42.09,71.536,49.895,63.731,49.895,54.103L43.884,54.103Z"/>
</g>
  <g id="Thin-L" transform="matrix(1.0,0.0,0.0,1.0,803.6068157087054,1466.6668352399554)">  <path stroke-width="1px" stroke-linecap="butt" stroke-miterlimit="4" stroke-linejoin="miter" stroke-dasharray="none" fill="#000000" fill-rule="nonzero" fill-opacity="1" stroke-opacity="1" stroke="none" d="M13.225,108.206L13.225,43.283L8.416,43.283L8.416,108.206L13.225,108.206ZM13.225,46.889C13.225,24.313,31.527,6.011,54.103,6.011C76.679,6.011,94.981,24.313,94.981,46.889L94.981,108.206L99.79,108.206L99.79,46.889C99.79,21.657,79.335,1.202,54.103,1.202C28.871,1.202,8.416,21.657,8.416,46.889L13.225,46.889ZM75.904,30.063L65.138,29.345C45.15,28.012,26.732,39.584,19.098,57.774C15.645,66.001,16.844,75.379,21.475,85.8C27.206,98.694,39.993,107.004,54.103,107.004C68.213,107.004,81,98.694,86.731,85.8C91.19,75.769,92.947,66.588,91.278,57.978C88.914,45.784,83.918,37.235,77.445,30.762L76.806,30.123L75.904,30.063ZM75.585,34.861L74.044,34.162C79.88,39.998,84.389,47.715,86.557,58.894C88.01,66.387,86.43,74.636,82.336,83.847C77.378,95.004,66.313,102.195,54.103,102.195C41.894,102.195,30.829,95.004,25.87,83.847C21.725,74.521,20.688,66.412,23.532,59.635C30.377,43.326,46.894,32.948,64.818,34.143L75.585,34.861ZM78.149,32.462L78.149,21.641L73.34,21.641L73.34,32.462L78.149,32.462ZM46.889,92.577L57.71,92.577C65.014,92.577,70.935,86.655,70.935,79.351L66.126,79.351C66.126,83.999,62.358,87.767,57.71,87.767L46.889,87.767L46.889,92.577ZM90.172,66.126L75.744,66.126C69.104,66.126,63.722,60.743,63.722,54.103L58.912,54.103C58.912,63.399,66.448,70.935,75.744,70.935L90.172,70.935L90.172,66.126ZM61.317,56.508L86.565,56.508L86.565,51.699L61.317,51.699L61.317,56.508ZM61.317,51.699L46.889,51.699L46.889,56.508L61.317,56.508L61.317,51.699ZM25.248,56.508L46.889,56.508L46.889,51.699L25.248,51.699L25.248,56.508ZM44.485,54.103C44.485,60.743,39.102,66.126,32.462,66.126L18.034,66.126L18.034,70.935L32.462,70.935C41.758,70.935,49.294,63.399,49.294,54.103L44.485,54.103Z"/>
</g>
  <g id="Ultralight-L" transform="matrix(1.0,0.0,0.0,1.0,506.89681570870533,1466.6668352399554)">  <path stroke-dasharray="none" stroke-miterlimit="4" fill="#000000" fill-rule="nonzero" stroke-opacity="1" fill-opacity="1" stroke="none" stroke-linecap="butt" stroke-width="1px" stroke-linejoin="miter" d="M12.624,108.206L12.624,43.283L9.017,43.283L9.017,108.206L12.624,108.206ZM12.624,46.889C12.624,23.981,31.195,5.41,54.103,5.41C77.011,5.41,95.582,23.981,95.582,46.889L95.582,108.206L99.189,108.206L99.189,46.889C99.189,21.989,79.003,1.803,54.103,1.803C29.203,1.803,9.017,21.989,9.017,46.889L12.624,46.889ZM75.864,30.662L65.098,29.945C45.368,28.629,27.188,40.052,19.652,58.007C16.275,66.053,17.454,75.272,22.025,85.556C27.659,98.233,40.231,106.403,54.103,106.403C67.976,106.403,80.548,98.233,86.182,85.556C90.595,75.627,92.33,66.563,90.688,58.093C88.348,46.025,83.414,37.58,77.02,31.187L76.54,30.708L75.864,30.662ZM75.624,34.261L74.469,33.737C80.385,39.652,84.955,47.474,87.147,58.779C88.627,66.412,87.025,74.778,82.886,84.091C77.83,95.465,66.55,102.796,54.103,102.796C41.656,102.796,30.376,95.465,25.321,84.091C21.115,74.628,20.058,66.36,22.978,59.402C29.922,42.858,46.676,32.331,64.858,33.544L75.624,34.261ZM77.548,32.462L77.548,21.641L73.941,21.641L73.941,32.462L77.548,32.462ZM46.889,91.975L57.71,91.975C64.682,91.975,70.334,86.323,70.334,79.351L66.727,79.351C66.727,84.331,62.69,88.369,57.71,88.369L46.889,88.369L46.889,91.975ZM90.172,66.727L75.744,66.727C68.772,66.727,63.12,61.075,63.12,54.103L59.514,54.103C59.514,63.067,66.78,70.334,75.744,70.334L90.172,70.334L90.172,66.727ZM61.317,55.907L86.565,55.907L86.565,52.3L61.317,52.3L61.317,55.907ZM61.317,52.3L46.889,52.3L46.889,55.907L61.317,55.907L61.317,52.3ZM25.248,55.907L46.889,55.907L46.889,52.3L25.248,52.3L25.248,55.907ZM45.086,54.103C45.086,61.075,39.434,66.727,32.462,66.727L18.034,66.727L18.034,70.334L32.462,70.334C41.426,70.334,48.693,63.067,48.693,54.103L45.086,54.103Z"/>
</g>
  <g id="Black-M" transform="matrix(1.0,0.0,0.0,1.0,2892.7395470610118,1048.829566592262)">  <path stroke-linejoin="miter" stroke="none" stroke-dasharray="none" fill="#000000" stroke-opacity="1" fill-opacity="1" stroke-miterlimit="4" stroke-width="1px" stroke-linecap="butt" fill-rule="nonzero" d="M14.567,83.881L14.567,33.552L2.209,33.552L2.209,83.881L14.567,83.881ZM14.567,36.348C14.567,21.231,26.823,8.975,41.94,8.975C57.058,8.975,69.314,21.231,69.314,36.348L69.314,83.881L81.672,83.881L81.672,36.348C81.672,14.405,63.884,-3.383,41.94,-3.383C19.997,-3.383,2.209,14.405,2.209,36.348L14.567,36.348ZM59.128,18.999L50.781,18.442C33.435,17.286,17.452,27.328,10.826,43.116C7.602,50.796,8.677,59.204,12.704,68.264C17.839,79.818,29.297,87.264,41.94,87.264C54.584,87.264,66.042,79.818,71.177,68.264C74.96,59.752,76.483,51.799,74.995,44.123C72.985,33.759,68.676,26.385,63.086,20.795L61.444,19.153L59.128,18.999ZM58.306,31.33L58.717,25.164L54.347,29.534C58.299,33.485,61.358,38.721,62.862,46.476C63.794,51.282,62.73,56.841,59.883,63.245C56.732,70.336,49.7,74.906,41.94,74.906C34.181,74.906,27.149,70.336,23.997,63.245C21.221,56.998,20.563,51.85,22.221,47.899C26.819,36.943,37.917,29.971,49.959,30.773L58.306,31.33ZM64.896,25.164L64.896,16.776L52.537,16.776L52.537,25.164L64.896,25.164ZM36.348,76.08L44.736,76.08C52.782,76.08,59.304,69.558,59.304,61.513L46.945,61.513C46.945,62.733,45.956,63.722,44.736,63.722L36.348,63.722L36.348,76.08ZM69.901,46.945L58.717,46.945C55.953,46.945,53.712,44.705,53.712,41.94L41.353,41.94C41.353,51.53,49.127,59.304,58.717,59.304L69.901,59.304L69.901,46.945ZM47.533,48.12L67.105,48.12L67.105,35.761L47.533,35.761L47.533,48.12ZM47.533,35.761L36.348,35.761L36.348,48.12L47.533,48.12L47.533,35.761ZM19.572,48.12L36.348,48.12L36.348,35.761L19.572,35.761L19.572,48.12ZM30.169,41.94C30.169,44.705,27.928,46.945,25.164,46.945L13.98,46.945L13.98,59.304L25.164,59.304C34.754,59.304,42.528,51.53,42.528,41.94L30.169,41.94Z"/>
</g>
  <g id="Heavy-M" transform="matrix(1.0,0.0,0.0,1.0,2596.0295470610117,1048.829566592262)">  <path stroke-linecap="butt" stroke="none" stroke-width="1px" stroke-dasharray="none" stroke-miterlimit="4" stroke-linejoin="miter" fill="#000000" fill-rule="nonzero" stroke-opacity="1" fill-opacity="1" d="M13.891,83.881L13.891,33.552L2.886,33.552L2.886,83.881L13.891,83.881ZM13.891,36.348C13.891,20.857,26.449,8.299,41.94,8.299C57.432,8.299,69.99,20.857,69.99,36.348L69.99,83.881L80.995,83.881L80.995,36.348C80.995,14.779,63.51,-2.707,41.94,-2.707C20.371,-2.707,2.886,14.779,2.886,36.348L13.891,36.348ZM59.083,19.674L50.736,19.117C33.681,17.98,17.965,27.854,11.449,43.378C8.312,50.853,9.364,59.083,13.322,67.99C18.349,79.299,29.564,86.587,41.94,86.587C54.316,86.587,65.532,79.299,70.558,67.99C74.291,59.592,75.788,51.771,74.33,44.252C72.348,34.03,68.108,26.774,62.607,21.273L61.145,19.811L59.083,19.674ZM58.351,30.655L58.717,25.164L54.826,29.055C58.867,33.097,61.995,38.449,63.526,46.347C64.489,51.31,63.399,57.001,60.502,63.52C57.242,70.855,49.967,75.582,41.94,75.582C33.914,75.582,26.639,70.855,23.379,63.52C20.534,57.118,19.853,51.792,21.597,47.637C26.306,36.417,37.672,29.276,50.004,30.098L58.351,30.655ZM64.219,25.164L64.219,16.776L53.214,16.776L53.214,25.164L64.219,25.164ZM36.348,75.403L44.736,75.403C52.408,75.403,58.627,69.184,58.627,61.513L47.622,61.513C47.622,63.106,46.33,64.398,44.736,64.398L36.348,64.398L36.348,75.403ZM69.901,47.622L58.717,47.622C55.579,47.622,53.035,45.078,53.035,41.94L42.03,41.94C42.03,51.156,49.501,58.627,58.717,58.627L69.901,58.627L69.901,47.622ZM47.533,47.443L67.105,47.443L67.105,36.438L47.533,36.438L47.533,47.443ZM47.533,36.438L36.348,36.438L36.348,47.443L47.533,47.443L47.533,36.438ZM19.572,47.443L36.348,47.443L36.348,36.438L19.572,36.438L19.572,47.443ZM30.846,41.94C30.846,45.078,28.302,47.622,25.164,47.622L13.98,47.622L13.98,58.627L25.164,58.627C34.38,58.627,41.851,51.156,41.851,41.94L30.846,41.94Z"/>
</g>
  <g id="Bold-M" transform="matrix(1.0,0.0,0.0,1.0,2299.3195470610117,1048.829566592262)">  <path stroke-opacity="1" fill-opacity="1" stroke-width="1px" stroke="none" fill-rule="nonzero" stroke-miterlimit="4" stroke-linejoin="miter" fill="#000000" stroke-dasharray="none" stroke-linecap="butt" d="M13.214,83.881L13.214,33.552L3.562,33.552L3.562,83.881L13.214,83.881ZM13.214,36.348C13.214,20.483,26.075,7.622,41.94,7.622C57.806,7.622,70.667,20.483,70.667,36.348L70.667,83.881L80.319,83.881L80.319,36.348C80.319,15.153,63.136,-2.03,41.94,-2.03C20.745,-2.03,3.562,15.153,3.562,36.348L13.214,36.348ZM59.038,20.349L50.691,19.793C33.926,18.675,18.478,28.381,12.073,43.64C9.022,50.911,10.051,58.962,13.941,67.715C18.859,78.78,29.832,85.911,41.94,85.911C54.049,85.911,65.022,78.78,69.94,67.715C73.621,59.433,75.093,51.742,73.666,44.381C71.712,34.302,67.54,27.162,62.129,21.752L60.847,20.47L59.038,20.349ZM58.396,29.98L58.717,25.164L55.304,28.577C59.436,32.708,62.632,38.178,64.191,46.218C65.183,51.339,64.069,57.16,61.12,63.795C57.751,71.374,50.235,76.259,41.94,76.259C33.646,76.259,26.13,71.374,22.761,63.795C19.847,57.239,19.144,51.734,20.973,47.375C25.793,35.89,37.426,28.582,50.049,29.423L58.396,29.98ZM63.543,25.164L63.543,16.776L53.891,16.776L53.891,25.164L63.543,25.164ZM36.348,74.727L44.736,74.727C52.034,74.727,57.951,68.81,57.951,61.513L48.299,61.513C48.299,63.48,46.704,65.075,44.736,65.075L36.348,65.075L36.348,74.727ZM69.901,48.299L58.717,48.299C55.205,48.299,52.358,45.452,52.358,41.94L42.707,41.94C42.707,50.783,49.875,57.951,58.717,57.951L69.901,57.951L69.901,48.299ZM47.533,46.766L67.105,46.766L67.105,37.115L47.533,37.115L47.533,46.766ZM47.533,37.115L36.348,37.115L36.348,46.766L47.533,46.766L47.533,37.115ZM19.572,46.766L36.348,46.766L36.348,37.115L19.572,37.115L19.572,46.766ZM31.522,41.94C31.522,45.452,28.676,48.299,25.164,48.299L13.98,48.299L13.98,57.951L25.164,57.951C34.006,57.951,41.174,50.783,41.174,41.94L31.522,41.94Z"/>
</g>
  <g id="Semibold-M" transform="matrix(1.0,0.0,0.0,1.0,2002.6095470610119,1048.829566592262)">  <path fill="#000000" fill-rule="nonzero" stroke-width="1px" fill-opacity="1" stroke-opacity="1" stroke-dasharray="none" stroke-linecap="butt" stroke="none" stroke-linejoin="miter" stroke-miterlimit="4" d="M12.537,83.881L12.537,33.552L4.239,33.552L4.239,83.881L12.537,83.881ZM12.537,36.348C12.537,20.11,25.702,6.945,41.94,6.945C58.179,6.945,71.344,20.11,71.344,36.348L71.344,83.881L79.642,83.881L79.642,36.348C79.642,15.526,62.762,-1.353,41.94,-1.353C21.118,-1.353,4.239,15.526,4.239,36.348L12.537,36.348ZM58.993,21.024L50.646,20.468C34.171,19.369,18.991,28.907,12.697,43.902C9.731,50.969,10.738,58.842,14.559,67.44C19.368,78.261,30.099,85.234,41.94,85.234C53.782,85.234,64.512,78.261,69.322,67.44C72.951,59.273,74.399,51.714,73.002,44.509C71.075,34.574,66.972,27.551,61.651,22.23L60.548,21.128L58.993,21.024ZM58.441,29.304L58.717,25.164L55.783,28.098C60.004,32.319,63.268,37.906,64.855,46.089C65.878,51.367,64.739,57.319,61.738,64.07C58.261,71.893,50.502,76.936,41.94,76.936C33.379,76.936,25.62,71.893,22.142,64.07C19.161,57.36,18.434,51.677,20.349,47.113C25.28,35.364,37.181,27.887,50.094,28.748L58.441,29.304ZM62.866,25.164L62.866,16.776L54.567,16.776L54.567,25.164L62.866,25.164ZM36.348,74.05L44.736,74.05C51.661,74.05,57.274,68.437,57.274,61.513L48.975,61.513C48.975,63.854,47.077,65.751,44.736,65.751L36.348,65.751L36.348,74.05ZM69.901,48.975L58.717,48.975C54.831,48.975,51.682,45.826,51.682,41.94L43.383,41.94C43.383,50.409,50.248,57.274,58.717,57.274L69.901,57.274L69.901,48.975ZM47.533,46.09L67.105,46.09L67.105,37.791L47.533,37.791L47.533,46.09ZM47.533,37.791L36.348,37.791L36.348,46.09L47.533,46.09L47.533,37.791ZM19.572,46.09L36.348,46.09L36.348,37.791L19.572,37.791L19.572,46.09ZM32.199,41.94C32.199,45.826,29.049,48.975,25.164,48.975L13.98,48.975L13.98,57.274L25.164,57.274C33.633,57.274,40.498,50.409,40.498,41.94L32.199,41.94Z"/>
</g>
  <g id="Medium-M" transform="matrix(1.0,0.0,0.0,1.0,1705.8995470610118,1048.829566592262)">  <path stroke-opacity="1" stroke-linejoin="miter" stroke-miterlimit="4" stroke-linecap="butt" fill="#000000" stroke-dasharray="none" fill-rule="nonzero" stroke-width="1px" stroke="none" fill-opacity="1" d="M11.861,83.881L11.861,33.552L4.915,33.552L4.915,83.881L11.861,83.881ZM11.861,36.348C11.861,19.736,25.328,6.269,41.94,6.269C58.553,6.269,72.02,19.736,72.02,36.348L72.02,83.881L78.965,83.881L78.965,36.348C78.965,15.9,62.389,-0.677,41.94,-0.677C21.492,-0.677,4.915,15.9,4.915,36.348L11.861,36.348ZM58.948,21.699L50.601,21.143C34.417,20.064,19.503,29.434,13.321,44.163C10.441,51.027,11.424,58.721,15.177,67.165C19.878,77.741,30.367,84.558,41.94,84.558C53.514,84.558,64.003,77.741,68.703,67.165C72.282,59.114,73.704,51.686,72.337,44.638C70.439,34.846,66.404,27.94,61.172,22.709L60.249,21.786L58.948,21.699ZM58.486,28.629L56.261,27.62C60.572,31.93,63.905,37.634,65.519,45.96C66.573,51.395,65.408,57.479,62.357,64.344C58.771,72.412,50.77,77.612,41.94,77.612C33.111,77.612,25.11,72.412,21.524,64.344C18.474,57.481,17.724,51.619,19.725,46.851C24.768,34.837,36.936,27.193,50.139,28.073L58.486,28.629ZM62.189,25.164L62.189,16.776L55.244,16.776L55.244,25.164L62.189,25.164ZM36.348,73.373L44.736,73.373C51.287,73.373,56.597,68.063,56.597,61.513L49.652,61.513C49.652,64.227,47.451,66.428,44.736,66.428L36.348,66.428L36.348,73.373ZM69.901,49.652L58.717,49.652C54.458,49.652,51.005,46.199,51.005,41.94L44.06,41.94C44.06,50.035,50.622,56.597,58.717,56.597L69.901,56.597L69.901,49.652ZM47.533,45.413L67.105,45.413L67.105,38.468L47.533,38.468L47.533,45.413ZM47.533,38.468L36.348,38.468L36.348,45.413L47.533,45.413L47.533,38.468ZM19.572,45.413L36.348,45.413L36.348,38.468L19.572,38.468L19.572,45.413ZM32.876,41.94C32.876,46.199,29.423,49.652,25.164,49.652L13.98,49.652L13.98,56.597L25.164,56.597C33.259,56.597,39.821,50.035,39.821,41.94L32.876,41.94Z"/>
</g>
  <g id="Regular-M" transform="matrix(1.0,0.0,0.0,1.0,1409.1895470610118,1048.829566592262)">  <path stroke-linejoin="miter" stroke-miterlimit="4" fill-rule="nonzero" fill="#000000" stroke="none" stroke-linecap="butt" stroke-width="1px" fill-opacity="1" stroke-dasharray="none" stroke-opacity="1" d="M11.184,83.881L11.184,33.552L5.592,33.552L5.592,83.881L11.184,83.881ZM11.184,36.348C11.184,19.362,24.954,5.592,41.94,5.592C58.927,5.592,72.697,19.362,72.697,36.348L72.697,83.881L78.289,83.881L78.289,36.348C78.289,16.274,62.015,0,41.94,0C21.866,0,5.592,16.274,5.592,36.348L11.184,36.348ZM58.903,22.374L50.556,21.818C34.662,20.758,20.016,29.96,13.945,44.425C11.15,51.084,12.111,58.6,15.796,66.89C20.388,77.222,30.634,83.881,41.94,83.881C53.247,83.881,63.493,77.222,68.085,66.89C71.612,58.955,73.009,51.657,71.673,44.767C69.802,35.117,65.836,28.329,60.694,23.187L59.951,22.444L58.903,22.374ZM58.531,27.954L56.74,27.141C61.14,31.542,64.541,37.363,66.183,45.831C67.268,51.424,66.078,57.638,62.975,64.619C59.281,72.932,51.037,78.289,41.94,78.289C32.844,78.289,24.6,72.932,20.906,64.619C17.787,57.602,17.015,51.561,19.101,46.589C24.255,34.311,36.69,26.498,50.184,27.398L58.531,27.954ZM61.513,25.164L61.513,16.776L55.921,16.776L55.921,25.164L61.513,25.164ZM36.348,72.697L44.736,72.697C50.913,72.697,55.921,67.689,55.921,61.513L50.329,61.513C50.329,64.601,47.825,67.105,44.736,67.105L36.348,67.105L36.348,72.697ZM69.901,50.329L58.717,50.329C54.084,50.329,50.329,46.573,50.329,41.94L44.736,41.94C44.736,49.661,50.996,55.921,58.717,55.921L69.901,55.921L69.901,50.329ZM47.533,44.736L67.105,44.736L67.105,39.144L47.533,39.144L47.533,44.736ZM47.533,39.144L36.348,39.144L36.348,44.736L47.533,44.736L47.533,39.144ZM19.572,44.736L36.348,44.736L36.348,39.144L19.572,39.144L19.572,44.736ZM33.552,41.94C33.552,46.573,29.797,50.329,25.164,50.329L13.98,50.329L13.98,55.921L25.164,55.921C32.885,55.921,39.144,49.661,39.144,41.94L33.552,41.94Z"/>
</g>
  <g id="Light-M" transform="matrix(1.0,0.0,0.0,1.0,1112.479547061012,1048.829566592262)">  <path stroke-linecap="butt" stroke-miterlimit="4" fill="#000000" stroke-dasharray="none" fill-opacity="1" stroke-width="1px" stroke="none" stroke-opacity="1" stroke-linejoin="miter" fill-rule="nonzero" d="M10.718,83.881L10.718,33.552L6.058,33.552L6.058,83.881L10.718,83.881ZM10.718,36.348C10.718,19.105,24.697,5.126,41.94,5.126C59.184,5.126,73.163,19.105,73.163,36.348L73.163,83.881L77.823,83.881L77.823,36.348C77.823,16.531,61.758,0.466,41.94,0.466C22.123,0.466,6.058,16.531,6.058,36.348L10.718,36.348ZM58.872,22.839L50.525,22.283C34.831,21.237,20.369,30.323,14.375,44.606C11.639,51.124,12.584,58.517,16.222,66.701C20.739,76.865,30.818,83.415,41.94,83.415C53.063,83.415,63.142,76.865,67.659,66.701C71.151,58.845,72.531,51.638,71.216,44.856C69.364,35.304,65.444,28.596,60.364,23.517L59.745,22.898L58.872,22.839ZM58.562,27.489L57.069,26.812C61.531,31.274,64.98,37.176,66.641,45.743C67.746,51.443,66.539,57.748,63.401,64.808C59.632,73.289,51.221,78.755,41.94,78.755C32.66,78.755,24.249,73.289,20.48,64.808C17.314,57.685,16.526,51.522,18.672,46.409C23.902,33.948,36.521,26.02,50.215,26.933L58.562,27.489ZM61.047,25.164L61.047,16.776L56.387,16.776L56.387,25.164L61.047,25.164ZM36.348,72.231L44.736,72.231C50.656,72.231,55.455,67.432,55.455,61.513L50.795,61.513C50.795,64.858,48.082,67.571,44.736,67.571L36.348,67.571L36.348,72.231ZM69.901,50.795L58.717,50.795C53.827,50.795,49.863,46.83,49.863,41.94L45.202,41.94C45.202,49.404,51.253,55.455,58.717,55.455L69.901,55.455L69.901,50.795ZM47.533,44.27L67.105,44.27L67.105,39.61L47.533,39.61L47.533,44.27ZM47.533,39.61L36.348,39.61L36.348,44.27L47.533,44.27L47.533,39.61ZM19.572,44.27L36.348,44.27L36.348,39.61L19.572,39.61L19.572,44.27ZM34.018,41.94C34.018,46.83,30.054,50.795,25.164,50.795L13.98,50.795L13.98,55.455L25.164,55.455C32.628,55.455,38.678,49.404,38.678,41.94L34.018,41.94Z"/>
</g>
  <g id="Thin-M" transform="matrix(1.0,0.0,0.0,1.0,815.769547061012,1048.829566592262)">  <path stroke-width="1px" stroke-linecap="butt" stroke-miterlimit="4" stroke-linejoin="miter" stroke-dasharray="none" fill="#000000" fill-rule="nonzero" fill-opacity="1" stroke-opacity="1" stroke="none" d="M10.252,83.881L10.252,33.552L6.524,33.552L6.524,83.881L10.252,83.881ZM10.252,36.348C10.252,18.847,24.439,4.66,41.94,4.66C59.441,4.66,73.629,18.847,73.629,36.348L73.629,83.881L77.357,83.881L77.357,36.348C77.357,16.788,61.5,0.932,41.94,0.932C22.381,0.932,6.524,16.788,6.524,36.348L10.252,36.348ZM58.841,23.304L50.494,22.748C35,21.715,20.723,30.685,14.805,44.786C12.128,51.164,13.057,58.434,16.647,66.512C21.09,76.507,31.002,82.949,41.94,82.949C52.879,82.949,62.791,76.507,67.233,66.512C70.69,58.735,72.052,51.618,70.758,44.944C68.925,35.491,65.053,28.864,60.035,23.846L59.539,23.351L58.841,23.304ZM58.593,27.024L57.399,26.482C61.923,31.006,65.418,36.988,67.098,45.654C68.225,51.462,67,57.857,63.827,64.998C59.983,73.647,51.405,79.221,41.94,79.221C32.476,79.221,23.898,73.647,20.054,64.998C16.841,57.768,16.037,51.482,18.242,46.229C23.548,33.586,36.352,25.541,50.246,26.468L58.593,27.024ZM60.581,25.164L60.581,16.776L56.853,16.776L56.853,25.164L60.581,25.164ZM36.348,71.765L44.736,71.765C50.399,71.765,54.989,67.175,54.989,61.513L51.261,61.513C51.261,65.116,48.34,68.037,44.736,68.037L36.348,68.037L36.348,71.765ZM69.901,51.261L58.717,51.261C53.569,51.261,49.397,47.088,49.397,41.94L45.668,41.94C45.668,49.147,51.51,54.989,58.717,54.989L69.901,54.989L69.901,51.261ZM47.533,43.804L67.105,43.804L67.105,40.076L47.533,40.076L47.533,43.804ZM47.533,40.076L36.348,40.076L36.348,43.804L47.533,43.804L47.533,40.076ZM19.572,43.804L36.348,43.804L36.348,40.076L19.572,40.076L19.572,43.804ZM34.484,41.94C34.484,47.088,30.312,51.261,25.164,51.261L13.98,51.261L13.98,54.989L25.164,54.989C32.371,54.989,38.212,49.147,38.212,41.94L34.484,41.94Z"/>
</g>
  <g id="Ultralight-M" transform="matrix(1.0,0.0,0.0,1.0,519.0595470610119,1048.829566592262)">  <path stroke-dasharray="none" stroke-miterlimit="4" fill="#000000" fill-rule="nonzero" stroke-opacity="1" fill-opacity="1" stroke="none" stroke-linecap="butt" stroke-width="1px" stroke-linejoin="miter" d="M9.786,83.881L9.786,33.552L6.99,33.552L6.99,83.881L9.786,83.881ZM9.786,36.348C9.786,18.59,24.182,4.194,41.94,4.194C59.699,4.194,74.095,18.59,74.095,36.348L74.095,83.881L76.891,83.881L76.891,36.348C76.891,17.046,61.243,1.398,41.94,1.398C22.638,1.398,6.99,17.046,6.99,36.348L9.786,36.348ZM58.81,23.769L50.463,23.213C35.169,22.193,21.076,31.048,15.234,44.966C12.617,51.204,13.53,58.35,17.073,66.323C21.441,76.15,31.187,82.483,41.94,82.483C52.694,82.483,62.44,76.15,66.808,66.323C70.229,58.626,71.574,51.599,70.301,45.033C68.487,35.679,64.662,29.132,59.705,24.176L59.334,23.804L58.81,23.769ZM58.624,26.559L57.728,26.153C62.314,30.738,65.856,36.801,67.556,45.565C68.703,51.482,67.462,57.967,64.252,65.187C60.334,74.004,51.589,79.687,41.94,79.687C32.291,79.687,23.547,74.004,19.628,65.187C16.368,57.851,15.549,51.442,17.812,46.048C23.195,33.223,36.183,25.063,50.277,26.003L58.624,26.559ZM60.115,25.164L60.115,16.776L57.319,16.776L57.319,25.164L60.115,25.164ZM36.348,71.299L44.736,71.299C50.141,71.299,54.523,66.917,54.523,61.513L51.727,61.513C51.727,65.373,48.597,68.503,44.736,68.503L36.348,68.503L36.348,71.299ZM69.901,51.727L58.717,51.727C53.312,51.727,48.931,47.345,48.931,41.94L46.134,41.94C46.134,48.889,51.768,54.523,58.717,54.523L69.901,54.523L69.901,51.727ZM47.533,43.338L67.105,43.338L67.105,40.542L47.533,40.542L47.533,43.338ZM47.533,40.542L36.348,40.542L36.348,43.338L47.533,43.338L47.533,40.542ZM19.572,43.338L36.348,43.338L36.348,40.542L19.572,40.542L19.572,43.338ZM34.95,41.94C34.95,47.345,30.569,51.727,25.164,51.727L13.98,51.727L13.98,54.523L25.164,54.523C32.113,54.523,37.746,48.889,37.746,41.94L34.95,41.94Z"/>
</g>
  <g id="Black-S" transform="matrix(1.0,0.0,0.0,1.0,2901.840625348772,627.9306448800223)">  <path stroke-linejoin="miter" stroke="none" stroke-dasharray="none" fill="#000000" stroke-opacity="1" fill-opacity="1" stroke-miterlimit="4" stroke-width="1px" stroke-linecap="butt" fill-rule="nonzero" d="M11.406,65.679L11.406,26.271L1.73,26.271L1.73,65.679L11.406,65.679ZM11.406,28.461C11.406,16.624,21.002,7.028,32.839,7.028C44.677,7.028,54.273,16.624,54.273,28.461L54.273,65.679L63.949,65.679L63.949,28.461C63.949,11.279,50.021,-2.649,32.839,-2.649C15.658,-2.649,1.73,11.279,1.73,28.461L11.406,28.461ZM46.297,14.876L39.762,14.44C26.18,13.535,13.665,21.398,8.476,33.76C5.953,39.773,6.794,46.357,9.947,53.451C13.968,62.498,22.94,68.328,32.839,68.328C42.739,68.328,51.711,62.497,55.731,53.451C58.694,46.785,59.886,40.559,58.721,34.548C57.147,26.433,53.774,20.659,49.396,16.282L48.111,14.997L46.297,14.876ZM45.653,24.531L45.975,19.704L42.554,23.125C45.648,26.219,48.044,30.319,49.221,36.39C49.951,40.154,49.117,44.507,46.889,49.521C44.421,55.073,38.915,58.651,32.839,58.651C26.764,58.651,21.258,55.073,18.79,49.521C16.616,44.629,16.101,40.598,17.399,37.505C20.999,28.927,29.689,23.467,39.118,24.096L45.653,24.531ZM50.813,19.704L50.813,13.136L41.137,13.136L41.137,19.704L50.813,19.704ZM28.461,59.571L35.029,59.571C41.328,59.571,46.435,54.464,46.435,48.164L36.758,48.164C36.758,49.12,35.984,49.894,35.029,49.894L28.461,49.894L28.461,59.571ZM54.732,36.758L45.975,36.758C43.811,36.758,42.056,35.004,42.056,32.839L32.38,32.839C32.38,40.348,38.467,46.435,45.975,46.435L54.732,46.435L54.732,36.758ZM37.218,37.678L52.543,37.678L52.543,28.001L37.218,28.001L37.218,37.678ZM37.218,28.001L28.461,28.001L28.461,37.678L37.218,37.678L37.218,28.001ZM15.325,37.678L28.461,37.678L28.461,28.001L15.325,28.001L15.325,37.678ZM23.622,32.839C23.622,35.004,21.868,36.758,19.704,36.758L10.946,36.758L10.946,46.435L19.704,46.435C27.212,46.435,33.299,40.348,33.299,32.839L23.622,32.839Z"/>
</g>
  <g id="Heavy-S" transform="matrix(1.0,0.0,0.0,1.0,2605.130625348772,627.9306448800223)">  <path stroke-linecap="butt" stroke="none" stroke-width="1px" stroke-dasharray="none" stroke-miterlimit="4" stroke-linejoin="miter" fill="#000000" fill-rule="nonzero" stroke-opacity="1" fill-opacity="1" d="M10.876,65.679L10.876,26.271L2.259,26.271L2.259,65.679L10.876,65.679ZM10.876,28.461C10.876,16.331,20.71,6.498,32.839,6.498C44.969,6.498,54.802,16.331,54.802,28.461L54.802,65.679L63.419,65.679L63.419,28.461C63.419,11.572,49.728,-2.119,32.839,-2.119C15.95,-2.119,2.259,11.572,2.259,28.461L10.876,28.461ZM46.262,15.405L39.727,14.969C26.372,14.079,14.066,21.81,8.965,33.965C6.508,39.818,7.332,46.262,10.431,53.236C14.367,62.091,23.149,67.798,32.839,67.798C42.53,67.798,51.312,62.091,55.247,53.236C58.17,46.661,59.342,40.536,58.201,34.649C56.649,26.646,53.329,20.964,49.022,16.657L47.877,15.512L46.262,15.405ZM45.689,24.003L45.975,19.704L42.929,22.75C46.093,25.915,48.542,30.106,49.741,36.289C50.495,40.176,49.642,44.631,47.373,49.736C44.82,55.479,39.124,59.181,32.839,59.181C26.554,59.181,20.859,55.479,18.306,49.736C16.078,44.724,15.545,40.553,16.911,37.3C20.598,28.514,29.497,22.923,39.153,23.567L45.689,24.003ZM50.284,19.704L50.284,13.136L41.667,13.136L41.667,19.704L50.284,19.704ZM28.461,59.041L35.029,59.041C41.036,59.041,45.905,54.171,45.905,48.164L37.288,48.164C37.288,49.412,36.276,50.424,35.029,50.424L28.461,50.424L28.461,59.041ZM54.732,37.288L45.975,37.288C43.518,37.288,41.526,35.296,41.526,32.839L32.909,32.839C32.909,40.055,38.759,45.905,45.975,45.905L54.732,45.905L54.732,37.288ZM37.218,37.148L52.543,37.148L52.543,28.531L37.218,28.531L37.218,37.148ZM37.218,28.531L28.461,28.531L28.461,37.148L37.218,37.148L37.218,28.531ZM15.325,37.148L28.461,37.148L28.461,28.531L15.325,28.531L15.325,37.148ZM24.152,32.839C24.152,35.296,22.161,37.288,19.704,37.288L10.946,37.288L10.946,45.905L19.704,45.905C26.92,45.905,32.769,40.055,32.769,32.839L24.152,32.839Z"/>
</g>
  <g id="Bold-S" transform="matrix(1.0,0.0,0.0,1.0,2308.420625348772,627.9306448800223)">  <path stroke-opacity="1" fill-opacity="1" stroke-width="1px" stroke="none" fill-rule="nonzero" stroke-miterlimit="4" stroke-linejoin="miter" fill="#000000" stroke-dasharray="none" stroke-linecap="butt" d="M10.347,65.679L10.347,26.271L2.789,26.271L2.789,65.679L10.347,65.679ZM10.347,28.461C10.347,16.038,20.417,5.968,32.839,5.968C45.262,5.968,55.332,16.038,55.332,28.461L55.332,65.679L62.89,65.679L62.89,28.461C62.89,11.865,49.436,-1.589,32.839,-1.589C16.243,-1.589,2.789,11.865,2.789,28.461L10.347,28.461ZM46.226,15.933L39.691,15.498C26.564,14.622,14.468,22.222,9.453,34.17C7.064,39.863,7.87,46.167,10.916,53.021C14.766,61.685,23.358,67.268,32.839,67.268C42.32,67.268,50.912,61.684,54.763,53.021C57.645,46.536,58.798,40.514,57.68,34.75C56.15,26.859,52.884,21.268,48.647,17.032L47.643,16.028L46.226,15.933ZM45.724,23.474L45.975,19.704L43.303,22.376C46.538,25.61,49.04,29.893,50.261,36.189C51.039,40.198,50.166,44.756,47.857,49.951C45.219,55.886,39.334,59.711,32.839,59.711C26.345,59.711,20.459,55.886,17.822,49.951C15.54,44.818,14.989,40.508,16.422,37.095C20.196,28.102,29.305,22.379,39.189,23.038L45.724,23.474ZM49.754,19.704L49.754,13.136L42.196,13.136L42.196,19.704L49.754,19.704ZM28.461,58.511L35.029,58.511C40.743,58.511,45.375,53.879,45.375,48.164L37.818,48.164C37.818,49.705,36.569,50.954,35.029,50.954L28.461,50.954L28.461,58.511ZM54.732,37.818L45.975,37.818C43.226,37.818,40.997,35.589,40.997,32.839L33.439,32.839C33.439,39.763,39.052,45.375,45.975,45.375L54.732,45.375L54.732,37.818ZM37.218,36.618L52.543,36.618L52.543,29.061L37.218,29.061L37.218,36.618ZM37.218,29.061L28.461,29.061L28.461,36.618L37.218,36.618L37.218,29.061ZM15.325,36.618L28.461,36.618L28.461,29.061L15.325,29.061L15.325,36.618ZM24.682,32.839C24.682,35.589,22.453,37.818,19.704,37.818L10.946,37.818L10.946,45.375L19.704,45.375C26.627,45.375,32.24,39.763,32.24,32.839L24.682,32.839Z"/>
</g>
  <g id="Semibold-S" transform="matrix(1.0,0.0,0.0,1.0,2011.7106253487723,627.9306448800223)">  <path fill="#000000" fill-rule="nonzero" stroke-width="1px" fill-opacity="1" stroke-opacity="1" stroke-dasharray="none" stroke-linecap="butt" stroke="none" stroke-linejoin="miter" stroke-miterlimit="4" d="M9.817,65.679L9.817,26.271L3.319,26.271L3.319,65.679L9.817,65.679ZM9.817,28.461C9.817,15.746,20.124,5.438,32.839,5.438C45.554,5.438,55.862,15.746,55.862,28.461L55.862,65.679L62.36,65.679L62.36,28.461C62.36,12.157,49.143,-1.06,32.839,-1.06C16.536,-1.06,3.319,12.157,3.319,28.461L9.817,28.461ZM46.191,16.462L39.656,16.026C26.756,15.166,14.87,22.634,9.942,34.375C7.62,39.909,8.408,46.073,11.4,52.805C15.165,61.278,23.568,66.738,32.839,66.738C42.111,66.738,50.513,61.278,54.279,52.806C57.121,46.411,58.254,40.492,57.16,34.851C55.652,27.071,52.439,21.573,48.272,17.406L47.409,16.543L46.191,16.462ZM45.759,22.945L45.975,19.704L43.678,22.001C46.983,25.306,49.539,29.68,50.781,36.088C51.583,40.22,50.69,44.881,48.341,50.166C45.618,56.292,39.543,60.241,32.839,60.241C26.136,60.241,20.06,56.292,17.338,50.166C15.003,44.913,14.434,40.463,15.934,36.89C19.795,27.69,29.113,21.836,39.224,22.51L45.759,22.945ZM49.224,19.704L49.224,13.136L42.726,13.136L42.726,19.704L49.224,19.704ZM28.461,57.981L35.029,57.981C40.45,57.981,44.845,53.586,44.845,48.164L38.348,48.164C38.348,49.997,36.862,51.483,35.029,51.483L28.461,51.483L28.461,57.981ZM54.732,38.348L45.975,38.348C42.933,38.348,40.467,35.882,40.467,32.839L33.969,32.839C33.969,39.47,39.344,44.845,45.975,44.845L54.732,44.845L54.732,38.348ZM37.218,36.088L52.543,36.088L52.543,29.59L37.218,29.59L37.218,36.088ZM37.218,29.59L28.461,29.59L28.461,36.088L37.218,36.088L37.218,29.59ZM15.325,36.088L28.461,36.088L28.461,29.59L15.325,29.59L15.325,36.088ZM25.212,32.839C25.212,35.882,22.746,38.348,19.704,38.348L10.946,38.348L10.946,44.845L19.704,44.845C26.334,44.845,31.71,39.47,31.71,32.839L25.212,32.839Z"/>
</g>
  <g id="Medium-S" transform="matrix(1.0,0.0,0.0,1.0,1715.0006253487722,627.9306448800223)">  <path stroke-opacity="1" stroke-linejoin="miter" stroke-miterlimit="4" stroke-linecap="butt" fill="#000000" stroke-dasharray="none" fill-rule="nonzero" stroke-width="1px" stroke="none" fill-opacity="1" d="M9.287,65.679L9.287,26.271L3.849,26.271L3.849,65.679L9.287,65.679ZM9.287,28.461C9.287,15.453,19.832,4.908,32.839,4.908C45.847,4.908,56.392,15.453,56.392,28.461L56.392,65.679L61.83,65.679L61.83,28.461C61.83,12.45,48.85,-0.53,32.839,-0.53C16.828,-0.53,3.849,12.45,3.849,28.461L9.287,28.461ZM46.156,16.991L39.621,16.555C26.948,15.71,15.271,23.046,10.431,34.58C8.175,39.954,8.945,45.978,11.884,52.59C15.565,60.871,23.777,66.209,32.839,66.209C41.902,66.209,50.114,60.871,53.795,52.59C56.597,46.286,57.71,40.47,56.64,34.952C55.153,27.284,51.994,21.877,47.898,17.781L47.175,17.059L46.156,16.991ZM45.794,22.417L44.053,21.626C47.428,25.001,50.037,29.468,51.301,35.987C52.127,40.242,51.215,45.006,48.825,50.382C46.018,56.699,39.753,60.77,32.839,60.77C25.926,60.77,19.661,56.699,16.853,50.382C14.465,45.008,13.878,40.418,15.445,36.685C19.393,27.278,28.921,21.292,39.259,21.981L45.794,22.417ZM48.694,19.704L48.694,13.136L43.256,13.136L43.256,19.704L48.694,19.704ZM28.461,57.451L35.029,57.451C40.158,57.451,44.316,53.293,44.316,48.164L38.877,48.164C38.877,50.29,37.154,52.013,35.029,52.013L28.461,52.013L28.461,57.451ZM54.732,38.877L45.975,38.877C42.64,38.877,39.937,36.174,39.937,32.839L34.499,32.839C34.499,39.178,39.637,44.316,45.975,44.316L54.732,44.316L54.732,38.877ZM37.218,35.558L52.543,35.558L52.543,30.12L37.218,30.12L37.218,35.558ZM37.218,30.12L28.461,30.12L28.461,35.558L37.218,35.558L37.218,30.12ZM15.325,35.558L28.461,35.558L28.461,30.12L15.325,30.12L15.325,35.558ZM25.742,32.839C25.742,36.174,23.038,38.877,19.704,38.877L10.946,38.877L10.946,44.316L19.704,44.316C26.042,44.316,31.18,39.178,31.18,32.839L25.742,32.839Z"/>
</g>
  <g id="Regular-S" transform="matrix(1.0,0.0,0.0,1.0,1418.2906253487722,627.9306448800223)">  <path stroke-linejoin="miter" stroke-miterlimit="4" fill-rule="nonzero" fill="#000000" stroke="none" stroke-linecap="butt" stroke-width="1px" fill-opacity="1" stroke-dasharray="none" stroke-opacity="1" d="M8.757,65.679L8.757,26.271L4.379,26.271L4.379,65.679L8.757,65.679ZM8.757,28.461C8.757,15.161,19.539,4.379,32.839,4.379C46.14,4.379,56.922,15.161,56.922,28.461L56.922,65.679L61.3,65.679L61.3,28.461C61.3,12.742,48.558,0,32.839,0C17.121,0,4.379,12.742,4.379,28.461L8.757,28.461ZM46.121,17.519L39.586,17.084C27.14,16.254,15.673,23.459,10.919,34.785C8.731,39.999,9.483,45.884,12.368,52.375C15.964,60.465,23.986,65.679,32.839,65.679C41.692,65.679,49.715,60.465,53.311,52.375C56.072,46.162,57.166,40.448,56.12,35.053C54.655,27.497,51.549,22.181,47.523,18.156L46.941,17.574L46.121,17.519ZM45.829,21.888L44.427,21.252C47.873,24.697,50.536,29.255,51.822,35.886C52.671,40.265,51.739,45.13,49.309,50.597C46.417,57.105,39.962,61.3,32.839,61.3C25.717,61.3,19.262,57.105,16.369,50.597C13.927,45.102,13.323,40.373,14.956,36.48C18.991,26.866,28.728,20.748,39.294,21.452L45.829,21.888ZM48.164,19.704L48.164,13.136L43.786,13.136L43.786,19.704L48.164,19.704ZM28.461,56.922L35.029,56.922C39.865,56.922,43.786,53.001,43.786,48.164L39.407,48.164C39.407,50.583,37.447,52.543,35.029,52.543L28.461,52.543L28.461,56.922ZM54.732,39.407L45.975,39.407C42.348,39.407,39.407,36.467,39.407,32.839L35.029,32.839C35.029,38.885,39.93,43.786,45.975,43.786L54.732,43.786L54.732,39.407ZM37.218,35.029L52.543,35.029L52.543,30.65L37.218,30.65L37.218,35.029ZM37.218,30.65L28.461,30.65L28.461,35.029L37.218,35.029L37.218,30.65ZM15.325,35.029L28.461,35.029L28.461,30.65L15.325,30.65L15.325,35.029ZM26.271,32.839C26.271,36.467,23.331,39.407,19.704,39.407L10.946,39.407L10.946,43.786L19.704,43.786C25.749,43.786,30.65,38.885,30.65,32.839L26.271,32.839Z"/>
</g>
  <g id="Light-S" transform="matrix(1.0,0.0,0.0,1.0,1121.5806253487724,627.9306448800223)">  <path stroke-linecap="butt" stroke-miterlimit="4" fill="#000000" stroke-dasharray="none" fill-opacity="1" stroke-width="1px" stroke="none" stroke-opacity="1" stroke-linejoin="miter" fill-rule="nonzero" d="M8.392,65.679L8.392,26.271L4.743,26.271L4.743,65.679L8.392,65.679ZM8.392,28.461C8.392,14.959,19.338,4.014,32.839,4.014C46.341,4.014,57.286,14.959,57.286,28.461L57.286,65.679L60.935,65.679L60.935,28.461C60.935,12.944,48.356,0.365,32.839,0.365C17.322,0.365,4.743,12.944,4.743,28.461L8.392,28.461ZM46.096,17.883L39.561,17.448C27.273,16.628,15.949,23.743,11.255,34.926C9.113,40.03,9.853,45.819,12.701,52.227C16.239,60.185,24.131,65.314,32.839,65.314C41.548,65.314,49.44,60.185,52.977,52.227C55.711,46.076,56.792,40.432,55.762,35.122C54.312,27.643,51.243,22.391,47.265,18.414L46.78,17.929L46.096,17.883ZM45.854,21.524L44.685,20.994C48.179,24.487,50.879,29.108,52.18,35.817C53.045,40.28,52.1,45.216,49.643,50.745C46.692,57.385,40.106,61.665,32.839,61.665C25.573,61.665,18.987,57.385,16.036,50.745C13.557,45.167,12.94,40.341,14.62,36.338C18.715,26.582,28.596,20.373,39.319,21.088L45.854,21.524ZM47.8,19.704L47.8,13.136L44.151,13.136L44.151,19.704L47.8,19.704ZM28.461,56.557L35.029,56.557C39.664,56.557,43.421,52.799,43.421,48.164L39.772,48.164C39.772,50.784,37.648,52.908,35.029,52.908L28.461,52.908L28.461,56.557ZM54.732,39.772L45.975,39.772C42.146,39.772,39.042,36.668,39.042,32.839L35.394,32.839C35.394,38.683,40.131,43.421,45.975,43.421L54.732,43.421L54.732,39.772ZM37.218,34.664L52.543,34.664L52.543,31.015L37.218,31.015L37.218,34.664ZM37.218,31.015L28.461,31.015L28.461,34.664L37.218,34.664L37.218,31.015ZM15.325,34.664L28.461,34.664L28.461,31.015L15.325,31.015L15.325,34.664ZM26.636,32.839C26.636,36.668,23.532,39.772,19.704,39.772L10.946,39.772L10.946,43.421L19.704,43.421C25.548,43.421,30.285,38.683,30.285,32.839L26.636,32.839Z"/>
</g>
  <g id="Thin-S" transform="matrix(1.0,0.0,0.0,1.0,824.8706253487724,627.9306448800223)">  <path stroke-width="1px" stroke-linecap="butt" stroke-miterlimit="4" stroke-linejoin="miter" stroke-dasharray="none" fill="#000000" fill-rule="nonzero" fill-opacity="1" stroke-opacity="1" stroke="none" d="M8.027,65.679L8.027,26.271L5.108,26.271L5.108,65.679L8.027,65.679ZM8.027,28.461C8.027,14.758,19.136,3.649,32.839,3.649C46.543,3.649,57.651,14.758,57.651,28.461L57.651,65.679L60.57,65.679L60.57,28.461C60.57,13.145,48.155,0.73,32.839,0.73C17.524,0.73,5.108,13.145,5.108,28.461L8.027,28.461ZM46.072,18.247L39.537,17.812C27.405,17.003,16.226,24.027,11.592,35.067C9.496,40.061,10.224,45.753,13.035,52.079C16.513,59.905,24.275,64.949,32.839,64.949C41.404,64.949,49.165,59.905,52.644,52.079C55.35,45.99,56.417,40.417,55.404,35.191C53.968,27.79,50.937,22.601,47.007,18.672L46.619,18.284L46.072,18.247ZM45.878,21.16L44.943,20.736C48.485,24.278,51.222,28.962,52.538,35.747C53.42,40.295,52.461,45.302,49.976,50.893C46.966,57.665,40.25,62.03,32.839,62.03C25.428,62.03,18.712,57.665,15.702,50.893C13.187,45.232,12.557,40.31,14.284,36.197C18.438,26.298,28.464,19.999,39.343,20.724L45.878,21.16ZM47.435,19.704L47.435,13.136L44.516,13.136L44.516,19.704L47.435,19.704ZM28.461,56.192L35.029,56.192C39.462,56.192,43.056,52.598,43.056,48.164L40.137,48.164C40.137,50.986,37.85,53.273,35.029,53.273L28.461,53.273L28.461,56.192ZM54.732,40.137L45.975,40.137C41.945,40.137,38.677,36.87,38.677,32.839L35.758,32.839C35.758,38.482,40.333,43.056,45.975,43.056L54.732,43.056L54.732,40.137ZM37.218,34.299L52.543,34.299L52.543,31.38L37.218,31.38L37.218,34.299ZM37.218,31.38L28.461,31.38L28.461,34.299L37.218,34.299L37.218,31.38ZM15.325,34.299L28.461,34.299L28.461,31.38L15.325,31.38L15.325,34.299ZM27.001,32.839C27.001,36.87,23.734,40.137,19.704,40.137L10.946,40.137L10.946,43.056L19.704,43.056C25.346,43.056,29.92,38.482,29.92,32.839L27.001,32.839Z"/>
</g>
  <g id="Ultralight-S" transform="matrix(1.0,0.0,0.0,1.0,528.1606253487723,627.9306448800223)">  <path stroke-dasharray="none" stroke-miterlimit="4" fill="#000000" fill-rule="nonzero" stroke-opacity="1" fill-opacity="1" stroke="none" stroke-linecap="butt" stroke-width="1px" stroke-linejoin="miter" d="M7.663,65.679L7.663,26.271L5.473,26.271L5.473,65.679L7.663,65.679ZM7.663,28.461C7.663,14.556,18.935,3.284,32.839,3.284C46.744,3.284,58.016,14.556,58.016,28.461L58.016,65.679L60.206,65.679L60.206,28.461C60.206,13.347,47.953,1.095,32.839,1.095C17.725,1.095,5.473,13.347,5.473,28.461L7.663,28.461ZM46.048,18.611L39.513,18.176C27.537,17.377,16.502,24.31,11.928,35.209C9.879,40.092,10.594,45.688,13.368,51.931C16.788,59.625,24.419,64.584,32.839,64.584C41.26,64.584,48.89,59.625,52.31,51.931C54.989,45.904,56.042,40.402,55.045,35.261C53.625,27.936,50.63,22.81,46.749,18.93L46.458,18.639L46.048,18.611ZM45.902,20.796L45.201,20.478C48.792,24.068,51.566,28.815,52.896,35.678C53.794,40.31,52.822,45.388,50.31,51.041C47.241,57.945,40.395,62.395,32.839,62.395C25.284,62.395,18.437,57.945,15.369,51.041C12.816,45.298,12.175,40.279,13.947,36.056C18.162,26.014,28.331,19.624,39.367,20.36L45.902,20.796ZM47.07,19.704L47.07,13.136L44.88,13.136L44.88,19.704L47.07,19.704ZM28.461,55.827L35.029,55.827C39.261,55.827,42.691,52.396,42.691,48.164L40.502,48.164C40.502,51.187,38.051,53.638,35.029,53.638L28.461,53.638L28.461,55.827ZM54.732,40.502L45.975,40.502C41.743,40.502,38.313,37.071,38.313,32.839L36.123,32.839C36.123,38.28,40.534,42.691,45.975,42.691L54.732,42.691L54.732,40.502ZM37.218,33.934L52.543,33.934L52.543,31.745L37.218,31.745L37.218,33.934ZM37.218,31.745L28.461,31.745L28.461,33.934L37.218,33.934L37.218,31.745ZM15.325,33.934L28.461,33.934L28.461,31.745L15.325,31.745L15.325,33.934ZM27.366,32.839C27.366,37.071,23.936,40.502,19.704,40.502L10.946,40.502L10.946,42.691L19.704,42.691C25.145,42.691,29.555,38.28,29.555,32.839L27.366,32.839Z"/>
</g>
 </g>
</svg>
