<?xml version="1.0" encoding="UTF-8"?>
<!-- Generator: CustomSymbols v2.6.2.41 by @serious_bret https://bretlester.com/app_content/CustomSymbols/ -->
<!-- Guides: Left/Right -0.031/-0.031 Cap/Base 0.08/0.08 -->
<!-- Settings: RefScale 1.0 Min/Max Stroke Scales 0.5/2.21 -->
<!DOCTYPE svg
PUBLIC "-//W3C//DTD SVG 1.1//EN"
       "http://www.w3.org/Graphics/SVG/1.1/DTD/svg11.dtd">
<svg version="1.1" xmlns="http://www.w3.org/2000/svg" xmlns:xlink="http://www.w3.org/1999/xlink" width="3300" height="2200">
<![CDATA[<svg width="15" height="15" viewBox="0 0 15 15" fill="none" xmlns="http://www.w3.org/2000/svg">
<path d="M0.5 4.5L7.5 8.5L14.5 4.5M1.5 1.5H13.5C14.0523 1.5 14.5 1.94772 14.5 2.5V12.5C14.5 13.0523 14.0523 13.5 13.5 13.5H1.5C0.947716 13.5 0.5 13.0523 0.5 12.5V2.5C0.5 1.94772 0.947715 1.5 1.5 1.5Z" stroke="#1D1929"/>
</svg>
]]>
 <g id="Notes">
  <rect height="2200" id="artboard" style="fill:white;opacity:1" width="3300" x="0" y="0"/>
  <line id="" style="fill:none;stroke:black;opacity:1;stroke-width:0.5;" x1="263" x2="3036" y1="292" y2="292"/>
  <text id="reftext1" style="stroke:none;fill:black;font-family:-apple-system,&quot;SF Pro Display&quot;,&quot;SF Pro Text&quot;,Helvetica,sans-serif;font-weight:bold;" transform="matrix(1 0 0 1 263 322)">Weight/Scale Variations</text>
  <text id="reftext2" style="stroke:none;fill:black;font-family:-apple-system,&quot;SF Pro Display&quot;,&quot;SF Pro Text&quot;,Helvetica,sans-serif;text-anchor:middle;" transform="matrix(1 0 0 1 559.711 322)">Ultralight</text>
  <text style="stroke:none;fill:black;font-family:-apple-system,&quot;SF Pro Display&quot;,&quot;SF Pro Text&quot;,Helvetica,sans-serif;text-anchor:middle;" transform="matrix(1 0 0 1 856.422 322)">Thin</text>
  <text style="stroke:none;fill:black;font-family:-apple-system,&quot;SF Pro Display&quot;,&quot;SF Pro Text&quot;,Helvetica,sans-serif;text-anchor:middle;" transform="matrix(1 0 0 1 1153.13 322)">Light</text>
  <text style="stroke:none;fill:black;font-family:-apple-system,&quot;SF Pro Display&quot;,&quot;SF Pro Text&quot;,Helvetica,sans-serif;text-anchor:middle;" transform="matrix(1 0 0 1 1449.84 322)">Regular</text>
  <text style="stroke:none;fill:black;font-family:-apple-system,&quot;SF Pro Display&quot;,&quot;SF Pro Text&quot;,Helvetica,sans-serif;text-anchor:middle;" transform="matrix(1 0 0 1 1746.56 322)">Medium</text>
  <text style="stroke:none;fill:black;font-family:-apple-system,&quot;SF Pro Display&quot;,&quot;SF Pro Text&quot;,Helvetica,sans-serif;text-anchor:middle;" transform="matrix(1 0 0 1 2043.27 322)">Semibold</text>
  <text style="stroke:none;fill:black;font-family:-apple-system,&quot;SF Pro Display&quot;,&quot;SF Pro Text&quot;,Helvetica,sans-serif;text-anchor:middle;" transform="matrix(1 0 0 1 2339.98 322)">Bold</text>
  <text style="stroke:none;fill:black;font-family:-apple-system,&quot;SF Pro Display&quot;,&quot;SF Pro Text&quot;,Helvetica,sans-serif;text-anchor:middle;" transform="matrix(1 0 0 1 2636.69 322)">Heavy</text>
  <text style="stroke:none;fill:black;font-family:-apple-system,&quot;SF Pro Display&quot;,&quot;SF Pro Text&quot;,Helvetica,sans-serif;text-anchor:middle;" transform="matrix(1 0 0 1 2933.4 322)">Black</text>
  <line id="" style="fill:none;stroke:black;opacity:1;stroke-width:0.5;" x1="263" x2="3036" y1="1903" y2="1903"/>
  <g id="" transform="matrix(1 0 0 1 263 1933)">
   <path d="M9.24805 0.830078C13.5547 0.830078 17.1387-2.74414 17.1387-7.05078C17.1387-11.3574 13.5449-14.9316 9.23828-14.9316C4.94141-14.9316 1.36719-11.3574 1.36719-7.05078C1.36719-2.74414 4.95117 0.830078 9.24805 0.830078ZM9.24805-0.654297C5.70312-0.654297 2.87109-3.49609 2.87109-7.05078C2.87109-10.6055 5.69336-13.4473 9.23828-13.4473C12.793-13.4473 15.6348-10.6055 15.6445-7.05078C15.6543-3.49609 12.8027-0.654297 9.24805-0.654297ZM6.39648-6.31836L8.50586-6.31836L8.50586-4.19922C8.50586-3.75977 8.79883-3.45703 9.22852-3.45703C9.67773-3.45703 9.9707-3.75977 9.9707-4.19922L9.9707-6.31836L12.0996-6.31836C12.5391-6.31836 12.8418-6.61133 12.8418-7.04102C12.8418-7.48047 12.5391-7.7832 12.0996-7.7832L9.9707-7.7832L9.9707-9.89258C9.9707-10.3418 9.67773-10.6445 9.22852-10.6445C8.79883-10.6445 8.50586-10.3418 8.50586-9.89258L8.50586-7.7832L6.39648-7.7832C5.94727-7.7832 5.64453-7.48047 5.64453-7.04102C5.64453-6.61133 5.94727-6.31836 6.39648-6.31836Z"/>
  </g>
  <g id="" transform="matrix(1 0 0 1 281.506 1933)">
   <path d="M11.709 2.91016C17.1582 2.91016 21.6699-1.61133 21.6699-7.05078C21.6699-12.5 17.1484-17.0117 11.6992-17.0117C6.25977-17.0117 1.74805-12.5 1.74805-7.05078C1.74805-1.61133 6.26953 2.91016 11.709 2.91016ZM11.709 1.25C7.09961 1.25 3.41797-2.44141 3.41797-7.05078C3.41797-11.6602 7.08984-15.3516 11.6992-15.3516C16.3086-15.3516 20-11.6602 20.0098-7.05078C20.0195-2.44141 16.3184 1.25 11.709 1.25ZM7.98828-6.23047L10.8789-6.23047L10.8789-3.32031C10.8789-2.83203 11.2109-2.5 11.6895-2.5C12.1777-2.5 12.5195-2.83203 12.5195-3.32031L12.5195-6.23047L15.4297-6.23047C15.918-6.23047 16.25-6.5625 16.25-7.04102C16.25-7.5293 15.918-7.87109 15.4297-7.87109L12.5195-7.87109L12.5195-10.7617C12.5195-11.2695 12.1777-11.6016 11.6895-11.6016C11.2109-11.6016 10.8789-11.2598 10.8789-10.7617L10.8789-7.87109L7.98828-7.87109C7.48047-7.87109 7.14844-7.5293 7.14844-7.04102C7.14844-6.5625 7.49023-6.23047 7.98828-6.23047Z"/>
  </g>
  <g id="" transform="matrix(1 0 0 1 304.924 1933)">
   <path d="M14.9707 5.66406C21.9336 5.66406 27.6953-0.0976562 27.6953-7.05078C27.6953-14.0137 21.9238-19.7754 14.9609-19.7754C8.00781-19.7754 2.25586-14.0137 2.25586-7.05078C2.25586-0.0976562 8.01758 5.66406 14.9707 5.66406ZM14.9707 3.84766C8.93555 3.84766 4.08203-1.01562 4.08203-7.05078C4.08203-13.0957 8.92578-17.9492 14.9609-17.9492C21.0059-17.9492 25.8594-13.0957 25.8691-7.05078C25.8789-1.01562 21.0156 3.84766 14.9707 3.84766ZM10.0586-6.14258L14.0625-6.14258L14.0625-2.12891C14.0625-1.5918 14.4336-1.2207 14.9512-1.2207C15.4883-1.2207 15.8594-1.5918 15.8594-2.12891L15.8594-6.14258L19.8828-6.14258C20.4102-6.14258 20.791-6.51367 20.791-7.03125C20.791-7.56836 20.4199-7.94922 19.8828-7.94922L15.8594-7.94922L15.8594-11.9531C15.8594-12.5098 15.4883-12.8809 14.9512-12.8809C14.4336-12.8809 14.0625-12.5 14.0625-11.9531L14.0625-7.94922L10.0586-7.94922C9.50195-7.94922 9.13086-7.56836 9.13086-7.03125C9.13086-6.51367 9.51172-6.14258 10.0586-6.14258Z"/>
  </g>
  <text style="stroke:none;fill:black;font-family:-apple-system,&quot;SF Pro Display&quot;,&quot;SF Pro Text&quot;,Helvetica,sans-serif;font-weight:bold;" transform="matrix(1 0 0 1 263 1953)">Design Variations</text>
  <text style="stroke:none;fill:black;font-family:-apple-system,&quot;SF Pro Display&quot;,&quot;SF Pro Text&quot;,Helvetica,sans-serif;" transform="matrix(1 0 0 1 263 1971)">Symbols are supported in up to nine weights and three scales.</text>
  <text style="stroke:none;fill:black;font-family:-apple-system,&quot;SF Pro Display&quot;,&quot;SF Pro Text&quot;,Helvetica,sans-serif;" transform="matrix(1 0 0 1 263 1989)">For optimal layout with text and other symbols, vertically align</text>
  <text style="stroke:none;fill:black;font-family:-apple-system,&quot;SF Pro Display&quot;,&quot;SF Pro Text&quot;,Helvetica,sans-serif;" transform="matrix(1 0 0 1 263 2007)">symbols with the adjacent text.</text>
  <line id="" style="fill:none;stroke:#00AEEF;stroke-width:0.5;opacity:1.0;" x1="776" x2="776" y1="1919" y2="1933"/>
  <g id="" transform="matrix(1 0 0 1 776 1933)">
   <path d="M3.31055 0.126953C3.82812 0.126953 4.08203-0.0683594 4.26758-0.605469L5.52734-4.0625L11.2891-4.0625L12.5488-0.605469C12.7344-0.0683594 12.9883 0.126953 13.4961 0.126953C14.0137 0.126953 14.3457-0.185547 14.3457-0.673828C14.3457-0.839844 14.3164-0.986328 14.2383-1.20117L9.6582-13.3887C9.43359-13.9941 9.0332-14.2871 8.4082-14.2871C7.80273-14.2871 7.39258-13.9941 7.17773-13.3984L2.59766-1.19141C2.51953-0.976562 2.49023-0.830078 2.49023-0.664062C2.49023-0.175781 2.80273 0.126953 3.31055 0.126953ZM6.00586-5.53711L8.37891-12.1094L8.42773-12.1094L10.8008-5.53711Z"/>
  </g>
  <line id="" style="fill:none;stroke:#00AEEF;stroke-width:0.5;opacity:1.0;" x1="792.836" x2="792.836" y1="1919" y2="1933"/>
  <text style="stroke:none;fill:black;font-family:-apple-system,&quot;SF Pro Display&quot;,&quot;SF Pro Text&quot;,Helvetica,sans-serif;font-weight:bold;" transform="matrix(1 0 0 1 776 1953)">Margins</text>
  <text style="stroke:none;fill:black;font-family:-apple-system,&quot;SF Pro Display&quot;,&quot;SF Pro Text&quot;,Helvetica,sans-serif;" transform="matrix(1 0 0 1 776 1971)">Leading and trailing margins on the left and right side of each symbol</text>
  <text style="stroke:none;fill:black;font-family:-apple-system,&quot;SF Pro Display&quot;,&quot;SF Pro Text&quot;,Helvetica,sans-serif;" transform="matrix(1 0 0 1 776 1989)">can be adjusted by modifying the x-location of the margin guidelines.</text>
  <text style="stroke:none;fill:black;font-family:-apple-system,&quot;SF Pro Display&quot;,&quot;SF Pro Text&quot;,Helvetica,sans-serif;" transform="matrix(1 0 0 1 776 2007)">Modifications are automatically applied proportionally to all</text>
  <text style="stroke:none;fill:black;font-family:-apple-system,&quot;SF Pro Display&quot;,&quot;SF Pro Text&quot;,Helvetica,sans-serif;" transform="matrix(1 0 0 1 776 2025)">scales and weights.</text>
  <g id="" transform="matrix(1 0 0 1 1289 1933)">
   <path d="M2.8418 1.86523L4.54102 3.57422C5.40039 4.44336 6.38672 4.38477 7.31445 3.35938L17.4902-7.85156C17.7539-7.76367 18.0273-7.7832 18.3398-7.8418L19.4043-8.03711L20.0684-7.36328L20.0293-6.80664C19.9902-6.30859 20.1172-5.92773 20.6055-5.44922L21.3672-4.70703C21.8457-4.22852 22.4609-4.19922 22.9297-4.66797L25.8398-7.58789C26.3086-8.05664 26.2891-8.65234 25.8105-9.13086L25.0391-9.89258C24.5605-10.3711 24.1895-10.5273 23.7109-10.4883L23.1348-10.4395L22.4902-11.0742L22.7344-12.1973C22.8613-12.7637 22.7051-13.2031 22.1191-13.7891L19.9219-15.9766C16.582-19.2969 12.1484-19.2188 9.25781-16.3281C8.83789-15.918 8.80859-15.3418 9.04297-14.9512C9.27734-14.5898 9.73633-14.3555 10.3809-14.5215C11.8457-14.8633 13.3691-14.9219 14.7949-13.9844L14.209-12.5293C14.0137-12.0508 13.9844-11.6504 14.1113-11.2891L3.04688-0.898438C2.06055 0.0195312 1.98242 0.996094 2.8418 1.86523ZM10.752-15.957C13.1836-17.7344 16.4746-17.4316 18.7012-15.2051L21.1328-12.793C21.3672-12.5586 21.4062-12.373 21.3379-12.0312L21.0156-10.5469L22.5195-9.0625L23.5059-9.12109C23.7598-9.13086 23.8379-9.11133 24.0332-8.91602L24.6094-8.33984L22.168-5.89844L21.5918-6.47461C21.3965-6.66992 21.3672-6.74805 21.377-7.01172L21.4453-7.98828L19.9512-9.47266L18.4277-9.21875C18.1055-9.15039 17.959-9.17969 17.7148-9.41406L15.7129-11.416C15.459-11.6504 15.4297-11.8164 15.5859-12.1875L16.4648-14.2773C14.9023-15.7324 12.8711-16.3574 10.8398-15.7617C10.6836-15.7227 10.625-15.8496 10.752-15.957ZM5.27344 2.30469L4.10156 1.14258C3.63281 0.683594 3.74023 0.341797 4.14062-0.0195312L14.9512-10.1953L16.416-8.71094L6.42578 2.27539C6.07422 2.67578 5.74219 2.77344 5.27344 2.30469Z"/>
  </g>
  <text style="stroke:none;fill:black;font-family:-apple-system,&quot;SF Pro Display&quot;,&quot;SF Pro Text&quot;,Helvetica,sans-serif;font-weight:bold;" transform="matrix(1 0 0 1 1289 1953)">Exporting</text>
  <text style="stroke:none;fill:black;font-family:-apple-system,&quot;SF Pro Display&quot;,&quot;SF Pro Text&quot;,Helvetica,sans-serif;" transform="matrix(1 0 0 1 1289 1971)">Symbols should be outlined when exporting to ensure the</text>
  <text style="stroke:none;fill:black;font-family:-apple-system,&quot;SF Pro Display&quot;,&quot;SF Pro Text&quot;,Helvetica,sans-serif;" transform="matrix(1 0 0 1 1289 1989)">design is preserved when submitting to Xcode.</text>
  <text id="template-version" style="stroke:none;fill:black;font-family:-apple-system,&quot;SF Pro Display&quot;,&quot;SF Pro Text&quot;,Helvetica,sans-serif;text-anchor:end;" transform="matrix(1 0 0 1 3036 1933)">Template v.2.0</text>
  <text style="stroke:none;fill:black;font-family:-apple-system,&quot;SF Pro Display&quot;,&quot;SF Pro Text&quot;,Helvetica,sans-serif;text-anchor:end;" transform="matrix(1 0 0 1 3036 1951)">Requires Xcode 12 or greater</text>
  <text style="stroke:none;fill:black;font-family:-apple-system,&quot;SF Pro Display&quot;,&quot;SF Pro Text&quot;,Helvetica,sans-serif;" transform="matrix(1 0 0 1 263 726)">Small</text>
  <text style="stroke:none;fill:black;font-family:-apple-system,&quot;SF Pro Display&quot;,&quot;SF Pro Text&quot;,Helvetica,sans-serif;" transform="matrix(1 0 0 1 263 1156)">Medium</text>
  <text style="stroke:none;fill:black;font-family:-apple-system,&quot;SF Pro Display&quot;,&quot;SF Pro Text&quot;,Helvetica,sans-serif;" transform="matrix(1 0 0 1 263 1586)">Large</text>
 </g>
 <g id="Guides">
  <g id="H-reference" style="fill:#27AAE1;stroke:none;" transform="matrix(1 0 0 1 339 696)">
   <path d="M0.976562 0L3.66211 0L12.9883-24.4629L45.752-24.4629L55.127 0L57.7637 0L30.6152-70.459L28.125-70.459ZM29.3457-67.1387L29.4434-67.1387L44.873-26.709L13.8672-26.709Z"/>
  </g>
  <line id="Baseline-S" style="fill:none;stroke:#27AAE1;opacity:1;stroke-width:0.5;" x1="263" x2="3036" y1="696" y2="696"/>
  <line id="Capline-S" style="fill:none;stroke:#27AAE1;opacity:1;stroke-width:0.5;" x1="263" x2="3036" y1="625.541" y2="625.541"/>
  <g id="H-reference" style="fill:#27AAE1;stroke:none;" transform="matrix(1 0 0 1 339 1126)">
   <path d="M0.976562 0L3.66211 0L12.9883-24.4629L45.752-24.4629L55.127 0L57.7637 0L30.6152-70.459L28.125-70.459ZM29.3457-67.1387L29.4434-67.1387L44.873-26.709L13.8672-26.709Z"/>
  </g>
  <line id="Baseline-M" style="fill:none;stroke:#27AAE1;opacity:1;stroke-width:0.5;" x1="263" x2="3036" y1="1126" y2="1126"/>
  <line id="Capline-M" style="fill:none;stroke:#27AAE1;opacity:1;stroke-width:0.5;" x1="263" x2="3036" y1="1055.54" y2="1055.54"/>
  <g id="H-reference" style="fill:#27AAE1;stroke:none;" transform="matrix(1 0 0 1 339 1556)">
   <path d="M0.976562 0L3.66211 0L12.9883-24.4629L45.752-24.4629L55.127 0L57.7637 0L30.6152-70.459L28.125-70.459ZM29.3457-67.1387L29.4434-67.1387L44.873-26.709L13.8672-26.709Z"/>
  </g>
  <line id="Baseline-L" style="fill:none;stroke:#27AAE1;opacity:1;stroke-width:0.5;" x1="263" x2="3036" y1="1556" y2="1556"/>
  <line id="Capline-L" style="fill:none;stroke:#27AAE1;opacity:1;stroke-width:0.5;" x1="263" x2="3036" y1="1485.54" y2="1485.54"/>
  <line id="left-margin" x1="1406.5892389787946" x2="1406.5892389787946" y1="1030.79" y2="1150.12" style="fill:none;stroke:#00AEEF;stroke-width:0.5;opacity:1.0;"/>
  <line id="right-margin" x1="1495.6707610212052" x2="1495.6707610212052" y1="1030.79" y2="1150.12" style="fill:none;stroke:#00AEEF;stroke-width:0.5;opacity:1.0;"/>
 </g>
 <g id="Symbols">
  <g id="Black-L" transform="matrix(1.0,0.0,0.0,1.0,2880.576815708705,1466.6668352399554)">  <path fill-rule="nonzero" stroke-miterlimit="4" stroke="none" fill="#000000" fill-opacity="1" stroke-width="1px" stroke-opacity="1" stroke-linecap="butt" stroke-dasharray="none" stroke-linejoin="miter" d="M-0.348,39.383L50.148,68.238L54.103,70.498L58.058,68.238L108.554,39.383L100.645,25.541L50.148,54.396L58.058,54.396L7.562,25.541L-0.348,39.383ZM10.821,18.792L97.386,18.792C96.967,18.792,96.628,18.453,96.628,18.034L96.628,90.172C96.628,89.754,96.968,89.415,97.386,89.415L10.821,89.415C11.239,89.415,11.578,89.754,11.578,90.172L11.578,18.034C11.578,18.453,11.239,18.792,10.821,18.792ZM10.821,2.849C2.434,2.849,-4.364,9.648,-4.364,18.034L-4.364,90.172C-4.364,98.558,2.434,105.357,10.821,105.357L97.386,105.357C105.772,105.357,112.571,98.559,112.571,90.172L112.571,18.034C112.571,9.648,105.772,2.849,97.386,2.849L10.821,2.849Z"/>
</g>
  <g id="Heavy-L" transform="matrix(1.0,0.0,0.0,1.0,2583.866815708705,1466.6668352399554)">  <path stroke-linecap="butt" stroke-miterlimit="4" fill-rule="nonzero" fill="#000000" stroke-dasharray="none" stroke-opacity="1" fill-opacity="1" stroke-linejoin="miter" stroke-width="1px" stroke="none" d="M0.085,38.625L50.581,67.48L54.103,69.492L57.625,67.48L108.121,38.625L101.078,26.299L50.581,55.154L57.625,55.154L7.129,26.299L0.085,38.625ZM10.821,17.919L97.386,17.919C97.45,17.919,97.501,17.971,97.501,18.034L97.501,90.172C97.501,90.236,97.45,90.287,97.386,90.287L10.821,90.287C10.757,90.287,10.705,90.236,10.705,90.172L10.705,18.034C10.705,17.971,10.757,17.919,10.821,17.919ZM10.821,3.722C2.916,3.722,-3.491,10.13,-3.491,18.034L-3.491,90.172C-3.491,98.076,2.916,104.484,10.821,104.484L97.386,104.484C105.29,104.484,111.698,98.076,111.698,90.172L111.698,18.034C111.698,10.13,105.29,3.722,97.386,3.722L10.821,3.722Z"/>
</g>
  <g id="Bold-L" transform="matrix(1.0,0.0,0.0,1.0,2287.156815708705,1466.6668352399554)">  <path fill="#000000" stroke-dasharray="none" stroke-miterlimit="4" stroke-width="1px" stroke-linejoin="miter" fill-rule="nonzero" stroke-opacity="1" fill-opacity="1" stroke="none" stroke-linecap="butt" d="M0.518,37.867L51.014,66.722L54.103,68.487L57.192,66.722L107.688,37.867L101.511,27.057L51.014,55.912L57.192,55.912L6.696,27.057L0.518,37.867ZM10.821,17.046L97.386,17.046C97.932,17.046,98.374,17.489,98.374,18.034L98.374,90.172C98.374,90.718,97.932,91.16,97.386,91.16L10.821,91.16C10.275,91.16,9.832,90.718,9.832,90.172L9.832,18.034C9.832,17.489,10.275,17.046,10.821,17.046ZM10.821,4.595C3.398,4.595,-2.619,10.612,-2.619,18.034L-2.619,90.172C-2.619,97.594,3.398,103.611,10.821,103.611L97.386,103.611C104.808,103.611,110.825,97.594,110.825,90.172L110.825,18.034C110.825,10.612,104.808,4.595,97.386,4.595L10.821,4.595Z"/>
</g>
  <g id="Semibold-L" transform="matrix(1.0,0.0,0.0,1.0,1990.4468157087053,1466.6668352399554)">  <path fill-rule="nonzero" stroke-opacity="1" stroke="none" stroke-dasharray="none" fill-opacity="1" fill="#000000" stroke-linecap="butt" stroke-linejoin="miter" stroke-width="1px" stroke-miterlimit="4" d="M0.951,37.109L51.448,65.964L54.103,67.482L56.759,65.964L107.255,37.109L101.944,27.815L51.448,56.67L56.759,56.67L6.263,27.815L0.951,37.109ZM10.821,16.173L97.386,16.173C98.414,16.173,99.247,17.006,99.247,18.034L99.247,90.172C99.247,91.2,98.414,92.033,97.386,92.033L10.821,92.033C9.793,92.033,8.959,91.2,8.959,90.172L8.959,18.034C8.959,17.007,9.793,16.173,10.821,16.173ZM10.821,5.468C3.88,5.468,-1.746,11.094,-1.746,18.034L-1.746,90.172C-1.746,97.112,3.88,102.738,10.821,102.738L97.386,102.738C104.326,102.738,109.952,97.112,109.952,90.172L109.952,18.034C109.952,11.094,104.326,5.468,97.386,5.468L10.821,5.468Z"/>
</g>
  <g id="Medium-L" transform="matrix(1.0,0.0,0.0,1.0,1693.7368157087053,1466.6668352399554)">  <path stroke-linecap="butt" stroke-dasharray="none" stroke-linejoin="miter" fill="#000000" stroke-opacity="1" stroke="none" fill-rule="nonzero" stroke-width="1px" fill-opacity="1" stroke-miterlimit="4" d="M1.384,36.351L51.881,65.206L54.103,66.476L56.326,65.206L106.822,36.351L102.377,28.572L51.881,57.427L56.326,57.427L5.829,28.572L1.384,36.351ZM10.821,15.3L97.386,15.3C98.896,15.3,100.12,16.524,100.12,18.034L100.12,90.172C100.12,91.682,98.896,92.906,97.386,92.906L10.821,92.906C9.311,92.906,8.087,91.682,8.087,90.172L8.087,18.034C8.087,16.524,9.311,15.3,10.821,15.3ZM10.821,6.341C4.363,6.341,-0.873,11.576,-0.873,18.034L-0.873,90.172C-0.873,96.63,4.362,101.865,10.821,101.865L97.386,101.865C103.844,101.865,109.079,96.63,109.079,90.172L109.079,18.034C109.079,11.576,103.844,6.341,97.386,6.341L10.821,6.341Z"/>
</g>
  <g id="Regular-L" transform="matrix(1.0,0.0,0.0,1.0,1397.0268157087053,1466.6668352399554)">  <path stroke-dasharray="none" fill-opacity="1" stroke-linejoin="miter" fill="#000000" stroke-linecap="butt" stroke-miterlimit="4" stroke-width="1px" stroke="none" stroke-opacity="1" fill-rule="nonzero" d="M1.817,35.594L52.314,64.449L54.103,65.471L55.893,64.449L106.389,35.594L102.81,29.33L52.314,58.185L55.893,58.185L5.396,29.33L1.817,35.594ZM10.821,14.428L97.386,14.428C99.378,14.428,100.993,16.042,100.993,18.034L100.993,90.172C100.993,92.164,99.378,93.779,97.386,93.779L10.821,93.779C8.829,93.779,7.214,92.164,7.214,90.172L7.214,18.034C7.214,16.042,8.829,14.428,10.821,14.428ZM10.821,7.214C4.845,7.214,0,12.058,0,18.034L0,90.172C0,96.148,4.845,100.993,10.821,100.993L97.386,100.993C103.362,100.993,108.206,96.148,108.206,90.172L108.206,18.034C108.206,12.058,103.362,7.214,97.386,7.214L10.821,7.214Z"/>
</g>
  <g id="Light-L" transform="matrix(1.0,0.0,0.0,1.0,1100.3168157087055,1466.6668352399554)">  <path stroke-linejoin="miter" stroke-linecap="butt" stroke-opacity="1" stroke-dasharray="none" stroke-miterlimit="4" fill-opacity="1" stroke="none" stroke-width="1px" fill-rule="nonzero" fill="#000000" d="M2.116,35.072L52.612,63.927L54.103,64.779L55.594,63.927L106.091,35.072L103.108,29.852L52.612,58.707L55.594,58.707L5.098,29.852L2.116,35.072ZM10.821,13.826L97.386,13.826C99.71,13.826,101.594,15.71,101.594,18.034L101.594,90.172C101.594,92.496,99.71,94.38,97.386,94.38L10.821,94.38C8.497,94.38,6.613,92.496,6.613,90.172L6.613,18.034C6.613,15.71,8.497,13.826,10.821,13.826ZM10.821,7.815C5.177,7.815,0.601,12.39,0.601,18.034L0.601,90.172C0.601,95.816,5.177,100.391,10.821,100.391L97.386,100.391C103.03,100.391,107.605,95.816,107.605,90.172L107.605,18.034C107.605,12.39,103.03,7.815,97.386,7.815L10.821,7.815Z"/>
</g>
  <g id="Thin-L" transform="matrix(1.0,0.0,0.0,1.0,803.6068157087054,1466.6668352399554)">  <path stroke-opacity="1" fill-opacity="1" fill="#000000" fill-rule="nonzero" stroke-linejoin="miter" stroke-dasharray="none" stroke-width="1px" stroke-linecap="butt" stroke="none" stroke-miterlimit="4" d="M2.414,34.55L52.91,63.405L54.103,64.086L55.296,63.405L105.792,34.55L103.406,30.374L52.91,59.229L55.296,59.229L4.8,30.374L2.414,34.55ZM10.821,13.225L97.386,13.225C100.042,13.225,102.195,15.378,102.195,18.034L102.195,90.172C102.195,92.828,100.042,94.981,97.386,94.981L10.821,94.981C8.165,94.981,6.011,92.828,6.011,90.172L6.011,18.034C6.011,15.378,8.165,13.225,10.821,13.225ZM10.821,8.416C5.509,8.416,1.202,12.722,1.202,18.034L1.202,90.172C1.202,95.484,5.509,99.79,10.821,99.79L97.386,99.79C102.698,99.79,107.004,95.484,107.004,90.172L107.004,18.034C107.004,12.722,102.698,8.416,97.386,8.416L10.821,8.416Z"/>
</g>
  <g id="Ultralight-L" transform="matrix(1.0,0.0,0.0,1.0,506.89681570870533,1466.6668352399554)">  <path stroke-width="1px" fill="#000000" stroke-dasharray="none" stroke-linejoin="miter" stroke-opacity="1" fill-opacity="1" stroke-miterlimit="4" stroke-linecap="butt" fill-rule="nonzero" stroke="none" d="M2.712,34.028L53.208,62.883L54.103,63.394L54.998,62.883L105.494,34.028L103.705,30.896L53.208,59.751L54.998,59.751L4.502,30.896L2.712,34.028ZM10.821,12.624L97.386,12.624C100.374,12.624,102.796,15.046,102.796,18.034L102.796,90.172C102.796,93.16,100.374,95.582,97.386,95.582L10.821,95.582C7.833,95.582,5.41,93.16,5.41,90.172L5.41,18.034C5.41,15.046,7.833,12.624,10.821,12.624ZM10.821,9.017C5.841,9.017,1.803,13.054,1.803,18.034L1.803,90.172C1.803,95.152,5.841,99.189,10.821,99.189L97.386,99.189C102.366,99.189,106.403,95.152,106.403,90.172L106.403,18.034C106.403,13.054,102.366,9.017,97.386,9.017L10.821,9.017Z"/>
</g>
  <g id="Black-M" transform="matrix(1.0,0.0,0.0,1.0,2892.7395470610118,1048.829566592262)">  <path fill-rule="nonzero" stroke-miterlimit="4" stroke="none" fill="#000000" fill-opacity="1" stroke-width="1px" stroke-opacity="1" stroke-linecap="butt" stroke-dasharray="none" stroke-linejoin="miter" d="M-0.27,30.529L38.875,52.898L41.94,54.649L45.006,52.898L84.151,30.529L78.019,19.799L38.875,42.167L45.006,42.167L5.862,19.799L-0.27,30.529ZM8.388,14.567L75.493,14.567C75.169,14.567,74.906,14.304,74.906,13.98L74.906,69.901C74.906,69.577,75.169,69.314,75.493,69.314L8.388,69.314C8.712,69.314,8.975,69.577,8.975,69.901L8.975,13.98C8.975,14.304,8.712,14.567,8.388,14.567ZM8.388,2.209C1.887,2.209,-3.383,7.479,-3.383,13.98L-3.383,69.901C-3.383,76.402,1.887,81.672,8.388,81.672L75.493,81.672C81.994,81.672,87.264,76.402,87.264,69.901L87.264,13.98C87.264,7.479,81.994,2.209,75.493,2.209L8.388,2.209Z"/>
</g>
  <g id="Heavy-M" transform="matrix(1.0,0.0,0.0,1.0,2596.0295470610117,1048.829566592262)">  <path stroke-linecap="butt" stroke-miterlimit="4" fill-rule="nonzero" fill="#000000" stroke-dasharray="none" stroke-opacity="1" fill-opacity="1" stroke-linejoin="miter" stroke-width="1px" stroke="none" d="M0.066,29.942L39.21,52.31L41.94,53.87L44.671,52.31L83.815,29.942L78.355,20.387L39.21,42.755L44.671,42.755L5.526,20.387L0.066,29.942ZM8.388,13.891L75.493,13.891C75.542,13.891,75.582,13.931,75.582,13.98L75.582,69.901C75.582,69.95,75.542,69.99,75.493,69.99L8.388,69.99C8.339,69.99,8.299,69.95,8.299,69.901L8.299,13.98C8.299,13.931,8.339,13.891,8.388,13.891ZM8.388,2.886C2.261,2.886,-2.707,7.853,-2.707,13.98L-2.707,69.901C-2.707,76.028,2.261,80.995,8.388,80.995L75.493,80.995C81.62,80.995,86.587,76.028,86.587,69.901L86.587,13.98C86.587,7.853,81.62,2.886,75.493,2.886L8.388,2.886Z"/>
</g>
  <g id="Bold-M" transform="matrix(1.0,0.0,0.0,1.0,2299.3195470610117,1048.829566592262)">  <path fill="#000000" stroke-dasharray="none" stroke-miterlimit="4" stroke-width="1px" stroke-linejoin="miter" fill-rule="nonzero" stroke-opacity="1" fill-opacity="1" stroke="none" stroke-linecap="butt" d="M0.402,29.354L39.546,51.723L41.94,53.091L44.335,51.723L83.479,29.354L78.691,20.974L39.546,43.342L44.335,43.342L5.19,20.974L0.402,29.354ZM8.388,13.214L75.493,13.214C75.916,13.214,76.259,13.557,76.259,13.98L76.259,69.901C76.259,70.324,75.916,70.667,75.493,70.667L8.388,70.667C7.965,70.667,7.622,70.324,7.622,69.901L7.622,13.98C7.622,13.557,7.965,13.214,8.388,13.214ZM8.388,3.562C2.634,3.562,-2.03,8.226,-2.03,13.98L-2.03,69.901C-2.03,75.655,2.634,80.319,8.388,80.319L75.493,80.319C81.247,80.319,85.911,75.655,85.911,69.901L85.911,13.98C85.911,8.226,81.247,3.562,75.493,3.562L8.388,3.562Z"/>
</g>
  <g id="Semibold-M" transform="matrix(1.0,0.0,0.0,1.0,2002.6095470610119,1048.829566592262)">  <path fill-rule="nonzero" stroke-opacity="1" stroke="none" stroke-dasharray="none" fill-opacity="1" fill="#000000" stroke-linecap="butt" stroke-linejoin="miter" stroke-width="1px" stroke-miterlimit="4" d="M0.737,28.767L39.882,51.135L41.94,52.311L43.999,51.135L83.144,28.767L79.026,21.562L39.882,43.93L43.999,43.93L4.855,21.562L0.737,28.767ZM8.388,12.537L75.493,12.537C76.29,12.537,76.936,13.183,76.936,13.98L76.936,69.901C76.936,70.698,76.29,71.344,75.493,71.344L8.388,71.344C7.591,71.344,6.945,70.698,6.945,69.901L6.945,13.98C6.945,13.183,7.591,12.537,8.388,12.537ZM8.388,4.239C3.008,4.239,-1.353,8.6,-1.353,13.98L-1.353,69.901C-1.353,75.281,3.008,79.642,8.388,79.642L75.493,79.642C80.873,79.642,85.234,75.281,85.234,69.901L85.234,13.98C85.234,8.6,80.873,4.239,75.493,4.239L8.388,4.239Z"/>
</g>
  <g id="Medium-M" transform="matrix(1.0,0.0,0.0,1.0,1705.8995470610118,1048.829566592262)">  <path stroke-linecap="butt" stroke-dasharray="none" stroke-linejoin="miter" fill="#000000" stroke-opacity="1" stroke="none" fill-rule="nonzero" stroke-width="1px" fill-opacity="1" stroke-miterlimit="4" d="M1.073,28.179L40.218,50.548L41.94,51.532L43.663,50.548L82.808,28.179L79.362,22.149L40.218,44.517L43.663,44.517L4.519,22.149L1.073,28.179ZM8.388,11.861L75.493,11.861C76.663,11.861,77.612,12.81,77.612,13.98L77.612,69.901C77.612,71.071,76.663,72.02,75.493,72.02L8.388,72.02C7.218,72.02,6.269,71.071,6.269,69.901L6.269,13.98C6.269,12.81,7.218,11.861,8.388,11.861ZM8.388,4.915C3.382,4.915,-0.677,8.974,-0.677,13.98L-0.677,69.901C-0.677,74.907,3.382,78.965,8.388,78.965L75.493,78.965C80.499,78.965,84.558,74.907,84.558,69.901L84.558,13.98C84.558,8.974,80.499,4.915,75.493,4.915L8.388,4.915Z"/>
</g>
  <g id="Regular-M" transform="matrix(1.0,0.0,0.0,1.0,1409.1895470610118,1048.829566592262)">  <path stroke-dasharray="none" fill-opacity="1" stroke-linejoin="miter" fill="#000000" stroke-linecap="butt" stroke-miterlimit="4" stroke-width="1px" stroke="none" stroke-opacity="1" fill-rule="nonzero" d="M1.409,27.592L40.553,49.96L41.94,50.753L43.328,49.96L82.472,27.592L79.698,22.737L40.553,45.105L43.328,45.105L4.183,22.737L1.409,27.592ZM8.388,11.184L75.493,11.184C77.037,11.184,78.289,12.436,78.289,13.98L78.289,69.901C78.289,71.445,77.037,72.697,75.493,72.697L8.388,72.697C6.844,72.697,5.592,71.445,5.592,69.901L5.592,13.98C5.592,12.436,6.844,11.184,8.388,11.184ZM8.388,5.592C3.755,5.592,0,9.348,0,13.98L0,69.901C0,74.533,3.755,78.289,8.388,78.289L75.493,78.289C80.126,78.289,83.881,74.533,83.881,69.901L83.881,13.98C83.881,9.348,80.125,5.592,75.493,5.592L8.388,5.592Z"/>
</g>
  <g id="Light-M" transform="matrix(1.0,0.0,0.0,1.0,1112.479547061012,1048.829566592262)">  <path stroke-linejoin="miter" stroke-linecap="butt" stroke-opacity="1" stroke-dasharray="none" stroke-miterlimit="4" fill-opacity="1" stroke="none" stroke-width="1px" fill-rule="nonzero" fill="#000000" d="M1.64,27.187L40.784,49.556L41.94,50.216L43.096,49.556L82.241,27.187L79.929,23.141L40.784,45.509L43.096,45.509L3.952,23.141L1.64,27.187ZM8.388,10.718L75.493,10.718C77.294,10.718,78.755,12.179,78.755,13.98L78.755,69.901C78.755,71.702,77.294,73.163,75.493,73.163L8.388,73.163C6.586,73.163,5.126,71.702,5.126,69.901L5.126,13.98C5.126,12.179,6.587,10.718,8.388,10.718ZM8.388,6.058C4.013,6.058,0.466,9.605,0.466,13.98L0.466,69.901C0.466,74.276,4.013,77.823,8.388,77.823L75.493,77.823C79.868,77.823,83.415,74.276,83.415,69.901L83.415,13.98C83.415,9.605,79.868,6.058,75.493,6.058L8.388,6.058Z"/>
</g>
  <g id="Thin-M" transform="matrix(1.0,0.0,0.0,1.0,815.769547061012,1048.829566592262)">  <path stroke-opacity="1" fill-opacity="1" fill="#000000" fill-rule="nonzero" stroke-linejoin="miter" stroke-dasharray="none" stroke-width="1px" stroke-linecap="butt" stroke="none" stroke-miterlimit="4" d="M1.871,26.783L41.016,49.151L41.94,49.679L42.865,49.151L82.01,26.783L80.16,23.546L41.016,45.914L42.865,45.914L3.721,23.546L1.871,26.783ZM8.388,10.252L75.493,10.252C77.552,10.252,79.221,11.921,79.221,13.98L79.221,69.901C79.221,71.96,77.552,73.629,75.493,73.629L8.388,73.629C6.329,73.629,4.66,71.96,4.66,69.901L4.66,13.98C4.66,11.921,6.329,10.252,8.388,10.252ZM8.388,6.524C4.27,6.524,0.932,9.862,0.932,13.98L0.932,69.901C0.932,74.019,4.27,77.357,8.388,77.357L75.493,77.357C79.611,77.357,82.949,74.019,82.949,69.901L82.949,13.98C82.949,9.862,79.611,6.524,75.493,6.524L8.388,6.524Z"/>
</g>
  <g id="Ultralight-M" transform="matrix(1.0,0.0,0.0,1.0,519.0595470610119,1048.829566592262)">  <path stroke-width="1px" fill="#000000" stroke-dasharray="none" stroke-linejoin="miter" stroke-opacity="1" fill-opacity="1" stroke-miterlimit="4" stroke-linecap="butt" fill-rule="nonzero" stroke="none" d="M2.102,26.378L41.247,48.746L41.94,49.143L42.634,48.746L81.778,26.378L80.391,23.95L41.247,46.319L42.634,46.319L3.49,23.95L2.102,26.378ZM8.388,9.786L75.493,9.786C77.809,9.786,79.687,11.664,79.687,13.98L79.687,69.901C79.687,72.217,77.809,74.095,75.493,74.095L8.388,74.095C6.072,74.095,4.194,72.217,4.194,69.901L4.194,13.98C4.194,11.664,6.072,9.786,8.388,9.786ZM8.388,6.99C4.528,6.99,1.398,10.12,1.398,13.98L1.398,69.901C1.398,73.761,4.528,76.891,8.388,76.891L75.493,76.891C79.353,76.891,82.483,73.761,82.483,69.901L82.483,13.98C82.483,10.12,79.353,6.99,75.493,6.99L8.388,6.99Z"/>
</g>
  <g id="Black-S" transform="matrix(1.0,0.0,0.0,1.0,2901.840625348772,627.9306448800223)">  <path fill-rule="nonzero" stroke-miterlimit="4" stroke="none" fill="#000000" fill-opacity="1" stroke-width="1px" stroke-opacity="1" stroke-linecap="butt" stroke-dasharray="none" stroke-linejoin="miter" d="M-0.211,23.904L30.439,41.419L32.839,42.791L35.24,41.419L65.89,23.904L61.089,15.503L30.439,33.017L35.24,33.017L4.59,15.503L-0.211,23.904ZM6.568,11.406L59.111,11.406C58.857,11.406,58.651,11.2,58.651,10.946L58.651,54.732C58.651,54.478,58.857,54.273,59.111,54.273L6.568,54.273C6.822,54.273,7.028,54.478,7.028,54.732L7.028,10.946C7.028,11.2,6.822,11.406,6.568,11.406ZM6.568,1.73C1.478,1.73,-2.649,5.856,-2.649,10.946L-2.649,54.732C-2.649,59.823,1.478,63.949,6.568,63.949L59.111,63.949C64.201,63.949,68.328,59.823,68.328,54.732L68.328,10.946C68.328,5.856,64.201,1.73,59.111,1.73L6.568,1.73Z"/>
</g>
  <g id="Heavy-S" transform="matrix(1.0,0.0,0.0,1.0,2605.130625348772,627.9306448800223)">  <path stroke-linecap="butt" stroke-miterlimit="4" fill-rule="nonzero" fill="#000000" stroke-dasharray="none" stroke-opacity="1" fill-opacity="1" stroke-linejoin="miter" stroke-width="1px" stroke="none" d="M0.052,23.444L30.702,40.959L32.839,42.18L34.977,40.959L65.627,23.444L61.352,15.963L30.702,33.477L34.977,33.477L4.327,15.963L0.052,23.444ZM6.568,10.876L59.111,10.876C59.15,10.876,59.181,10.908,59.181,10.946L59.181,54.732C59.181,54.771,59.15,54.802,59.111,54.802L6.568,54.802C6.529,54.802,6.498,54.771,6.498,54.732L6.498,10.946C6.498,10.908,6.529,10.876,6.568,10.876ZM6.568,2.259C1.77,2.259,-2.119,6.149,-2.119,10.946L-2.119,54.732C-2.119,59.53,1.77,63.419,6.568,63.419L59.111,63.419C63.909,63.419,67.798,59.53,67.798,54.732L67.798,10.946C67.798,6.149,63.909,2.259,59.111,2.259L6.568,2.259Z"/>
</g>
  <g id="Bold-S" transform="matrix(1.0,0.0,0.0,1.0,2308.420625348772,627.9306448800223)">  <path fill="#000000" stroke-dasharray="none" stroke-miterlimit="4" stroke-width="1px" stroke-linejoin="miter" fill-rule="nonzero" stroke-opacity="1" fill-opacity="1" stroke="none" stroke-linecap="butt" d="M0.315,22.984L30.965,40.499L32.839,41.57L34.714,40.499L65.364,22.984L61.615,16.423L30.965,33.937L34.714,33.937L4.064,16.423L0.315,22.984ZM6.568,10.347L59.111,10.347C59.442,10.347,59.711,10.615,59.711,10.946L59.711,54.732C59.711,55.064,59.442,55.332,59.111,55.332L6.568,55.332C6.237,55.332,5.968,55.064,5.968,54.732L5.968,10.946C5.968,10.615,6.237,10.347,6.568,10.347ZM6.568,2.789C2.063,2.789,-1.589,6.441,-1.589,10.946L-1.589,54.732C-1.589,59.237,2.063,62.89,6.568,62.89L59.111,62.89C63.616,62.89,67.268,59.238,67.268,54.732L67.268,10.946C67.268,6.441,63.616,2.789,59.111,2.789L6.568,2.789Z"/>
</g>
  <g id="Semibold-S" transform="matrix(1.0,0.0,0.0,1.0,2011.7106253487723,627.9306448800223)">  <path fill-rule="nonzero" stroke-opacity="1" stroke="none" stroke-dasharray="none" fill-opacity="1" fill="#000000" stroke-linecap="butt" stroke-linejoin="miter" stroke-width="1px" stroke-miterlimit="4" d="M0.577,22.524L31.227,40.039L32.839,40.96L34.451,40.039L65.101,22.524L61.878,16.883L31.227,34.397L34.451,34.397L3.801,16.883L0.577,22.524ZM6.568,9.817L59.111,9.817C59.735,9.817,60.241,10.323,60.241,10.946L60.241,54.732C60.241,55.356,59.735,55.862,59.111,55.862L6.568,55.862C5.944,55.862,5.438,55.356,5.438,54.732L5.438,10.946C5.438,10.323,5.944,9.817,6.568,9.817ZM6.568,3.319C2.355,3.319,-1.06,6.734,-1.06,10.946L-1.06,54.732C-1.06,58.945,2.355,62.36,6.568,62.36L59.111,62.36C63.323,62.36,66.738,58.945,66.738,54.732L66.738,10.946C66.738,6.734,63.323,3.319,59.111,3.319L6.568,3.319Z"/>
</g>
  <g id="Medium-S" transform="matrix(1.0,0.0,0.0,1.0,1715.0006253487722,627.9306448800223)">  <path stroke-linecap="butt" stroke-dasharray="none" stroke-linejoin="miter" fill="#000000" stroke-opacity="1" stroke="none" fill-rule="nonzero" stroke-width="1px" fill-opacity="1" stroke-miterlimit="4" d="M0.84,22.064L31.49,39.579L32.839,40.35L34.188,39.579L64.839,22.064L62.14,17.343L31.49,34.857L34.188,34.857L3.538,17.343L0.84,22.064ZM6.568,9.287L59.111,9.287C60.027,9.287,60.77,10.03,60.77,10.946L60.77,54.732C60.77,55.649,60.027,56.392,59.111,56.392L6.568,56.392C5.651,56.392,4.908,55.649,4.908,54.732L4.908,10.946C4.908,10.03,5.651,9.287,6.568,9.287ZM6.568,3.849C2.648,3.849,-0.53,7.027,-0.53,10.946L-0.53,54.732C-0.53,58.652,2.648,61.83,6.568,61.83L59.111,61.83C63.031,61.83,66.209,58.652,66.209,54.732L66.209,10.946C66.209,7.027,63.031,3.849,59.111,3.849L6.568,3.849Z"/>
</g>
  <g id="Regular-S" transform="matrix(1.0,0.0,0.0,1.0,1418.2906253487722,627.9306448800223)">  <path stroke-dasharray="none" fill-opacity="1" stroke-linejoin="miter" fill="#000000" stroke-linecap="butt" stroke-miterlimit="4" stroke-width="1px" stroke="none" stroke-opacity="1" fill-rule="nonzero" d="M1.103,21.604L31.753,39.119L32.839,39.739L33.926,39.119L64.576,21.604L62.403,17.803L31.753,35.317L33.926,35.317L3.275,17.803L1.103,21.604ZM6.568,8.757L59.111,8.757C60.32,8.757,61.3,9.737,61.3,10.946L61.3,54.732C61.3,55.941,60.32,56.922,59.111,56.922L6.568,56.922C5.359,56.922,4.379,55.941,4.379,54.732L4.379,10.946C4.379,9.737,5.359,8.757,6.568,8.757ZM6.568,4.379C2.941,4.379,0,7.319,0,10.946L0,54.732C0,58.36,2.941,61.3,6.568,61.3L59.111,61.3C62.738,61.3,65.679,58.36,65.679,54.732L65.679,10.946C65.679,7.319,62.738,4.379,59.111,4.379L6.568,4.379Z"/>
</g>
  <g id="Light-S" transform="matrix(1.0,0.0,0.0,1.0,1121.5806253487724,627.9306448800223)">  <path stroke-linejoin="miter" stroke-linecap="butt" stroke-opacity="1" stroke-dasharray="none" stroke-miterlimit="4" fill-opacity="1" stroke="none" stroke-width="1px" fill-rule="nonzero" fill="#000000" d="M1.284,21.288L31.934,38.802L32.839,39.319L33.745,38.802L64.395,21.288L62.584,18.12L31.934,35.634L33.745,35.634L3.094,18.12L1.284,21.288ZM6.568,8.392L59.111,8.392C60.522,8.392,61.665,9.536,61.665,10.946L61.665,54.732C61.665,56.143,60.522,57.286,59.111,57.286L6.568,57.286C5.157,57.286,4.014,56.143,4.014,54.732L4.014,10.946C4.014,9.536,5.157,8.392,6.568,8.392ZM6.568,4.743C3.142,4.743,0.365,7.521,0.365,10.946L0.365,54.732C0.365,58.158,3.142,60.935,6.568,60.935L59.111,60.935C62.537,60.935,65.314,58.158,65.314,54.732L65.314,10.946C65.314,7.521,62.537,4.743,59.111,4.743L6.568,4.743Z"/>
</g>
  <g id="Thin-S" transform="matrix(1.0,0.0,0.0,1.0,824.8706253487724,627.9306448800223)">  <path stroke-opacity="1" fill-opacity="1" fill="#000000" fill-rule="nonzero" stroke-linejoin="miter" stroke-dasharray="none" stroke-width="1px" stroke-linecap="butt" stroke="none" stroke-miterlimit="4" d="M1.465,20.971L32.115,38.485L32.839,38.899L33.564,38.485L64.214,20.971L62.765,18.436L32.115,35.951L33.564,35.951L2.913,18.436L1.465,20.971ZM6.568,8.027L59.111,8.027C60.723,8.027,62.03,9.334,62.03,10.946L62.03,54.732C62.03,56.345,60.723,57.651,59.111,57.651L6.568,57.651C4.956,57.651,3.649,56.344,3.649,54.732L3.649,10.946C3.649,9.334,4.956,8.027,6.568,8.027ZM6.568,5.108C3.344,5.108,0.73,7.722,0.73,10.946L0.73,54.732C0.73,57.957,3.344,60.57,6.568,60.57L59.111,60.57C62.335,60.57,64.949,57.957,64.949,54.732L64.949,10.946C64.949,7.722,62.335,5.108,59.111,5.108L6.568,5.108Z"/>
</g>
  <g id="Ultralight-S" transform="matrix(1.0,0.0,0.0,1.0,528.1606253487723,627.9306448800223)">  <path stroke-width="1px" fill="#000000" stroke-dasharray="none" stroke-linejoin="miter" stroke-opacity="1" fill-opacity="1" stroke-miterlimit="4" stroke-linecap="butt" fill-rule="nonzero" stroke="none" d="M1.646,20.654L32.296,38.168L32.839,38.479L33.382,38.168L64.033,20.654L62.946,18.753L32.296,36.268L33.382,36.268L2.732,18.753L1.646,20.654ZM6.568,7.663L59.111,7.663C60.925,7.663,62.395,9.133,62.395,10.946L62.395,54.732C62.395,56.546,60.925,58.016,59.111,58.016L6.568,58.016C4.754,58.016,3.284,56.546,3.284,54.732L3.284,10.946C3.284,9.133,4.754,7.663,6.568,7.663ZM6.568,5.473C3.545,5.473,1.095,7.924,1.095,10.946L1.095,54.732C1.095,57.755,3.545,60.206,6.568,60.206L59.111,60.206C62.134,60.206,64.584,57.755,64.584,54.732L64.584,10.946C64.584,7.924,62.134,5.473,59.111,5.473L6.568,5.473Z"/>
</g>
 </g>
</svg>
