<?xml version="1.0" encoding="UTF-8"?>
<!-- Generator: CustomSymbols v2.6.2.41 by @serious_bret https://bretlester.com/app_content/CustomSymbols/ -->
<!-- Guides: Left/Right -0.031/-0.031 Cap/Base 0.08/0.08 -->
<!-- Settings: RefScale 1.0 Min/Max Stroke Scales 0.5/2.21 -->
<!DOCTYPE svg
PUBLIC "-//W3C//DTD SVG 1.1//EN"
       "http://www.w3.org/Graphics/SVG/1.1/DTD/svg11.dtd">
<svg version="1.1" xmlns="http://www.w3.org/2000/svg" xmlns:xlink="http://www.w3.org/1999/xlink" width="3300" height="2200">
<![CDATA[<svg width="15" height="15" viewBox="0 0 15 15" fill="none" xmlns="http://www.w3.org/2000/svg">
<path d="M7.49998 9.5C2.49998 9.5 0.5 4.5 0.5 4.5M7.49998 9.5C12.5 9.5 14.5 4.5 14.5 4.5M7.49998 9.5L7.5 12M1 10L3 8M12 8L14 10" stroke="#1D1929"/>
</svg>
]]>
 <g id="Notes">
  <rect height="2200" id="artboard" style="fill:white;opacity:1" width="3300" x="0" y="0"/>
  <line id="" style="fill:none;stroke:black;opacity:1;stroke-width:0.5;" x1="263" x2="3036" y1="292" y2="292"/>
  <text id="reftext1" style="stroke:none;fill:black;font-family:-apple-system,&quot;SF Pro Display&quot;,&quot;SF Pro Text&quot;,Helvetica,sans-serif;font-weight:bold;" transform="matrix(1 0 0 1 263 322)">Weight/Scale Variations</text>
  <text id="reftext2" style="stroke:none;fill:black;font-family:-apple-system,&quot;SF Pro Display&quot;,&quot;SF Pro Text&quot;,Helvetica,sans-serif;text-anchor:middle;" transform="matrix(1 0 0 1 559.711 322)">Ultralight</text>
  <text style="stroke:none;fill:black;font-family:-apple-system,&quot;SF Pro Display&quot;,&quot;SF Pro Text&quot;,Helvetica,sans-serif;text-anchor:middle;" transform="matrix(1 0 0 1 856.422 322)">Thin</text>
  <text style="stroke:none;fill:black;font-family:-apple-system,&quot;SF Pro Display&quot;,&quot;SF Pro Text&quot;,Helvetica,sans-serif;text-anchor:middle;" transform="matrix(1 0 0 1 1153.13 322)">Light</text>
  <text style="stroke:none;fill:black;font-family:-apple-system,&quot;SF Pro Display&quot;,&quot;SF Pro Text&quot;,Helvetica,sans-serif;text-anchor:middle;" transform="matrix(1 0 0 1 1449.84 322)">Regular</text>
  <text style="stroke:none;fill:black;font-family:-apple-system,&quot;SF Pro Display&quot;,&quot;SF Pro Text&quot;,Helvetica,sans-serif;text-anchor:middle;" transform="matrix(1 0 0 1 1746.56 322)">Medium</text>
  <text style="stroke:none;fill:black;font-family:-apple-system,&quot;SF Pro Display&quot;,&quot;SF Pro Text&quot;,Helvetica,sans-serif;text-anchor:middle;" transform="matrix(1 0 0 1 2043.27 322)">Semibold</text>
  <text style="stroke:none;fill:black;font-family:-apple-system,&quot;SF Pro Display&quot;,&quot;SF Pro Text&quot;,Helvetica,sans-serif;text-anchor:middle;" transform="matrix(1 0 0 1 2339.98 322)">Bold</text>
  <text style="stroke:none;fill:black;font-family:-apple-system,&quot;SF Pro Display&quot;,&quot;SF Pro Text&quot;,Helvetica,sans-serif;text-anchor:middle;" transform="matrix(1 0 0 1 2636.69 322)">Heavy</text>
  <text style="stroke:none;fill:black;font-family:-apple-system,&quot;SF Pro Display&quot;,&quot;SF Pro Text&quot;,Helvetica,sans-serif;text-anchor:middle;" transform="matrix(1 0 0 1 2933.4 322)">Black</text>
  <line id="" style="fill:none;stroke:black;opacity:1;stroke-width:0.5;" x1="263" x2="3036" y1="1903" y2="1903"/>
  <g id="" transform="matrix(1 0 0 1 263 1933)">
   <path d="M9.24805 0.830078C13.5547 0.830078 17.1387-2.74414 17.1387-7.05078C17.1387-11.3574 13.5449-14.9316 9.23828-14.9316C4.94141-14.9316 1.36719-11.3574 1.36719-7.05078C1.36719-2.74414 4.95117 0.830078 9.24805 0.830078ZM9.24805-0.654297C5.70312-0.654297 2.87109-3.49609 2.87109-7.05078C2.87109-10.6055 5.69336-13.4473 9.23828-13.4473C12.793-13.4473 15.6348-10.6055 15.6445-7.05078C15.6543-3.49609 12.8027-0.654297 9.24805-0.654297ZM6.39648-6.31836L8.50586-6.31836L8.50586-4.19922C8.50586-3.75977 8.79883-3.45703 9.22852-3.45703C9.67773-3.45703 9.9707-3.75977 9.9707-4.19922L9.9707-6.31836L12.0996-6.31836C12.5391-6.31836 12.8418-6.61133 12.8418-7.04102C12.8418-7.48047 12.5391-7.7832 12.0996-7.7832L9.9707-7.7832L9.9707-9.89258C9.9707-10.3418 9.67773-10.6445 9.22852-10.6445C8.79883-10.6445 8.50586-10.3418 8.50586-9.89258L8.50586-7.7832L6.39648-7.7832C5.94727-7.7832 5.64453-7.48047 5.64453-7.04102C5.64453-6.61133 5.94727-6.31836 6.39648-6.31836Z"/>
  </g>
  <g id="" transform="matrix(1 0 0 1 281.506 1933)">
   <path d="M11.709 2.91016C17.1582 2.91016 21.6699-1.61133 21.6699-7.05078C21.6699-12.5 17.1484-17.0117 11.6992-17.0117C6.25977-17.0117 1.74805-12.5 1.74805-7.05078C1.74805-1.61133 6.26953 2.91016 11.709 2.91016ZM11.709 1.25C7.09961 1.25 3.41797-2.44141 3.41797-7.05078C3.41797-11.6602 7.08984-15.3516 11.6992-15.3516C16.3086-15.3516 20-11.6602 20.0098-7.05078C20.0195-2.44141 16.3184 1.25 11.709 1.25ZM7.98828-6.23047L10.8789-6.23047L10.8789-3.32031C10.8789-2.83203 11.2109-2.5 11.6895-2.5C12.1777-2.5 12.5195-2.83203 12.5195-3.32031L12.5195-6.23047L15.4297-6.23047C15.918-6.23047 16.25-6.5625 16.25-7.04102C16.25-7.5293 15.918-7.87109 15.4297-7.87109L12.5195-7.87109L12.5195-10.7617C12.5195-11.2695 12.1777-11.6016 11.6895-11.6016C11.2109-11.6016 10.8789-11.2598 10.8789-10.7617L10.8789-7.87109L7.98828-7.87109C7.48047-7.87109 7.14844-7.5293 7.14844-7.04102C7.14844-6.5625 7.49023-6.23047 7.98828-6.23047Z"/>
  </g>
  <g id="" transform="matrix(1 0 0 1 304.924 1933)">
   <path d="M14.9707 5.66406C21.9336 5.66406 27.6953-0.0976562 27.6953-7.05078C27.6953-14.0137 21.9238-19.7754 14.9609-19.7754C8.00781-19.7754 2.25586-14.0137 2.25586-7.05078C2.25586-0.0976562 8.01758 5.66406 14.9707 5.66406ZM14.9707 3.84766C8.93555 3.84766 4.08203-1.01562 4.08203-7.05078C4.08203-13.0957 8.92578-17.9492 14.9609-17.9492C21.0059-17.9492 25.8594-13.0957 25.8691-7.05078C25.8789-1.01562 21.0156 3.84766 14.9707 3.84766ZM10.0586-6.14258L14.0625-6.14258L14.0625-2.12891C14.0625-1.5918 14.4336-1.2207 14.9512-1.2207C15.4883-1.2207 15.8594-1.5918 15.8594-2.12891L15.8594-6.14258L19.8828-6.14258C20.4102-6.14258 20.791-6.51367 20.791-7.03125C20.791-7.56836 20.4199-7.94922 19.8828-7.94922L15.8594-7.94922L15.8594-11.9531C15.8594-12.5098 15.4883-12.8809 14.9512-12.8809C14.4336-12.8809 14.0625-12.5 14.0625-11.9531L14.0625-7.94922L10.0586-7.94922C9.50195-7.94922 9.13086-7.56836 9.13086-7.03125C9.13086-6.51367 9.51172-6.14258 10.0586-6.14258Z"/>
  </g>
  <text style="stroke:none;fill:black;font-family:-apple-system,&quot;SF Pro Display&quot;,&quot;SF Pro Text&quot;,Helvetica,sans-serif;font-weight:bold;" transform="matrix(1 0 0 1 263 1953)">Design Variations</text>
  <text style="stroke:none;fill:black;font-family:-apple-system,&quot;SF Pro Display&quot;,&quot;SF Pro Text&quot;,Helvetica,sans-serif;" transform="matrix(1 0 0 1 263 1971)">Symbols are supported in up to nine weights and three scales.</text>
  <text style="stroke:none;fill:black;font-family:-apple-system,&quot;SF Pro Display&quot;,&quot;SF Pro Text&quot;,Helvetica,sans-serif;" transform="matrix(1 0 0 1 263 1989)">For optimal layout with text and other symbols, vertically align</text>
  <text style="stroke:none;fill:black;font-family:-apple-system,&quot;SF Pro Display&quot;,&quot;SF Pro Text&quot;,Helvetica,sans-serif;" transform="matrix(1 0 0 1 263 2007)">symbols with the adjacent text.</text>
  <line id="" style="fill:none;stroke:#00AEEF;stroke-width:0.5;opacity:1.0;" x1="776" x2="776" y1="1919" y2="1933"/>
  <g id="" transform="matrix(1 0 0 1 776 1933)">
   <path d="M3.31055 0.126953C3.82812 0.126953 4.08203-0.0683594 4.26758-0.605469L5.52734-4.0625L11.2891-4.0625L12.5488-0.605469C12.7344-0.0683594 12.9883 0.126953 13.4961 0.126953C14.0137 0.126953 14.3457-0.185547 14.3457-0.673828C14.3457-0.839844 14.3164-0.986328 14.2383-1.20117L9.6582-13.3887C9.43359-13.9941 9.0332-14.2871 8.4082-14.2871C7.80273-14.2871 7.39258-13.9941 7.17773-13.3984L2.59766-1.19141C2.51953-0.976562 2.49023-0.830078 2.49023-0.664062C2.49023-0.175781 2.80273 0.126953 3.31055 0.126953ZM6.00586-5.53711L8.37891-12.1094L8.42773-12.1094L10.8008-5.53711Z"/>
  </g>
  <line id="" style="fill:none;stroke:#00AEEF;stroke-width:0.5;opacity:1.0;" x1="792.836" x2="792.836" y1="1919" y2="1933"/>
  <text style="stroke:none;fill:black;font-family:-apple-system,&quot;SF Pro Display&quot;,&quot;SF Pro Text&quot;,Helvetica,sans-serif;font-weight:bold;" transform="matrix(1 0 0 1 776 1953)">Margins</text>
  <text style="stroke:none;fill:black;font-family:-apple-system,&quot;SF Pro Display&quot;,&quot;SF Pro Text&quot;,Helvetica,sans-serif;" transform="matrix(1 0 0 1 776 1971)">Leading and trailing margins on the left and right side of each symbol</text>
  <text style="stroke:none;fill:black;font-family:-apple-system,&quot;SF Pro Display&quot;,&quot;SF Pro Text&quot;,Helvetica,sans-serif;" transform="matrix(1 0 0 1 776 1989)">can be adjusted by modifying the x-location of the margin guidelines.</text>
  <text style="stroke:none;fill:black;font-family:-apple-system,&quot;SF Pro Display&quot;,&quot;SF Pro Text&quot;,Helvetica,sans-serif;" transform="matrix(1 0 0 1 776 2007)">Modifications are automatically applied proportionally to all</text>
  <text style="stroke:none;fill:black;font-family:-apple-system,&quot;SF Pro Display&quot;,&quot;SF Pro Text&quot;,Helvetica,sans-serif;" transform="matrix(1 0 0 1 776 2025)">scales and weights.</text>
  <g id="" transform="matrix(1 0 0 1 1289 1933)">
   <path d="M2.8418 1.86523L4.54102 3.57422C5.40039 4.44336 6.38672 4.38477 7.31445 3.35938L17.4902-7.85156C17.7539-7.76367 18.0273-7.7832 18.3398-7.8418L19.4043-8.03711L20.0684-7.36328L20.0293-6.80664C19.9902-6.30859 20.1172-5.92773 20.6055-5.44922L21.3672-4.70703C21.8457-4.22852 22.4609-4.19922 22.9297-4.66797L25.8398-7.58789C26.3086-8.05664 26.2891-8.65234 25.8105-9.13086L25.0391-9.89258C24.5605-10.3711 24.1895-10.5273 23.7109-10.4883L23.1348-10.4395L22.4902-11.0742L22.7344-12.1973C22.8613-12.7637 22.7051-13.2031 22.1191-13.7891L19.9219-15.9766C16.582-19.2969 12.1484-19.2188 9.25781-16.3281C8.83789-15.918 8.80859-15.3418 9.04297-14.9512C9.27734-14.5898 9.73633-14.3555 10.3809-14.5215C11.8457-14.8633 13.3691-14.9219 14.7949-13.9844L14.209-12.5293C14.0137-12.0508 13.9844-11.6504 14.1113-11.2891L3.04688-0.898438C2.06055 0.0195312 1.98242 0.996094 2.8418 1.86523ZM10.752-15.957C13.1836-17.7344 16.4746-17.4316 18.7012-15.2051L21.1328-12.793C21.3672-12.5586 21.4062-12.373 21.3379-12.0312L21.0156-10.5469L22.5195-9.0625L23.5059-9.12109C23.7598-9.13086 23.8379-9.11133 24.0332-8.91602L24.6094-8.33984L22.168-5.89844L21.5918-6.47461C21.3965-6.66992 21.3672-6.74805 21.377-7.01172L21.4453-7.98828L19.9512-9.47266L18.4277-9.21875C18.1055-9.15039 17.959-9.17969 17.7148-9.41406L15.7129-11.416C15.459-11.6504 15.4297-11.8164 15.5859-12.1875L16.4648-14.2773C14.9023-15.7324 12.8711-16.3574 10.8398-15.7617C10.6836-15.7227 10.625-15.8496 10.752-15.957ZM5.27344 2.30469L4.10156 1.14258C3.63281 0.683594 3.74023 0.341797 4.14062-0.0195312L14.9512-10.1953L16.416-8.71094L6.42578 2.27539C6.07422 2.67578 5.74219 2.77344 5.27344 2.30469Z"/>
  </g>
  <text style="stroke:none;fill:black;font-family:-apple-system,&quot;SF Pro Display&quot;,&quot;SF Pro Text&quot;,Helvetica,sans-serif;font-weight:bold;" transform="matrix(1 0 0 1 1289 1953)">Exporting</text>
  <text style="stroke:none;fill:black;font-family:-apple-system,&quot;SF Pro Display&quot;,&quot;SF Pro Text&quot;,Helvetica,sans-serif;" transform="matrix(1 0 0 1 1289 1971)">Symbols should be outlined when exporting to ensure the</text>
  <text style="stroke:none;fill:black;font-family:-apple-system,&quot;SF Pro Display&quot;,&quot;SF Pro Text&quot;,Helvetica,sans-serif;" transform="matrix(1 0 0 1 1289 1989)">design is preserved when submitting to Xcode.</text>
  <text id="template-version" style="stroke:none;fill:black;font-family:-apple-system,&quot;SF Pro Display&quot;,&quot;SF Pro Text&quot;,Helvetica,sans-serif;text-anchor:end;" transform="matrix(1 0 0 1 3036 1933)">Template v.2.0</text>
  <text style="stroke:none;fill:black;font-family:-apple-system,&quot;SF Pro Display&quot;,&quot;SF Pro Text&quot;,Helvetica,sans-serif;text-anchor:end;" transform="matrix(1 0 0 1 3036 1951)">Requires Xcode 12 or greater</text>
  <text style="stroke:none;fill:black;font-family:-apple-system,&quot;SF Pro Display&quot;,&quot;SF Pro Text&quot;,Helvetica,sans-serif;" transform="matrix(1 0 0 1 263 726)">Small</text>
  <text style="stroke:none;fill:black;font-family:-apple-system,&quot;SF Pro Display&quot;,&quot;SF Pro Text&quot;,Helvetica,sans-serif;" transform="matrix(1 0 0 1 263 1156)">Medium</text>
  <text style="stroke:none;fill:black;font-family:-apple-system,&quot;SF Pro Display&quot;,&quot;SF Pro Text&quot;,Helvetica,sans-serif;" transform="matrix(1 0 0 1 263 1586)">Large</text>
 </g>
 <g id="Guides">
  <g id="H-reference" style="fill:#27AAE1;stroke:none;" transform="matrix(1 0 0 1 339 696)">
   <path d="M0.976562 0L3.66211 0L12.9883-24.4629L45.752-24.4629L55.127 0L57.7637 0L30.6152-70.459L28.125-70.459ZM29.3457-67.1387L29.4434-67.1387L44.873-26.709L13.8672-26.709Z"/>
  </g>
  <line id="Baseline-S" style="fill:none;stroke:#27AAE1;opacity:1;stroke-width:0.5;" x1="263" x2="3036" y1="696" y2="696"/>
  <line id="Capline-S" style="fill:none;stroke:#27AAE1;opacity:1;stroke-width:0.5;" x1="263" x2="3036" y1="625.541" y2="625.541"/>
  <g id="H-reference" style="fill:#27AAE1;stroke:none;" transform="matrix(1 0 0 1 339 1126)">
   <path d="M0.976562 0L3.66211 0L12.9883-24.4629L45.752-24.4629L55.127 0L57.7637 0L30.6152-70.459L28.125-70.459ZM29.3457-67.1387L29.4434-67.1387L44.873-26.709L13.8672-26.709Z"/>
  </g>
  <line id="Baseline-M" style="fill:none;stroke:#27AAE1;opacity:1;stroke-width:0.5;" x1="263" x2="3036" y1="1126" y2="1126"/>
  <line id="Capline-M" style="fill:none;stroke:#27AAE1;opacity:1;stroke-width:0.5;" x1="263" x2="3036" y1="1055.54" y2="1055.54"/>
  <g id="H-reference" style="fill:#27AAE1;stroke:none;" transform="matrix(1 0 0 1 339 1556)">
   <path d="M0.976562 0L3.66211 0L12.9883-24.4629L45.752-24.4629L55.127 0L57.7637 0L30.6152-70.459L28.125-70.459ZM29.3457-67.1387L29.4434-67.1387L44.873-26.709L13.8672-26.709Z"/>
  </g>
  <line id="Baseline-L" style="fill:none;stroke:#27AAE1;opacity:1;stroke-width:0.5;" x1="263" x2="3036" y1="1556" y2="1556"/>
  <line id="Capline-L" style="fill:none;stroke:#27AAE1;opacity:1;stroke-width:0.5;" x1="263" x2="3036" y1="1485.54" y2="1485.54"/>
  <line id="left-margin" x1="1406.5892389787946" x2="1406.5892389787946" y1="1030.79" y2="1150.12" style="fill:none;stroke:#00AEEF;stroke-width:0.5;opacity:1.0;"/>
  <line id="right-margin" x1="1495.6707610212052" x2="1495.6707610212052" y1="1030.79" y2="1150.12" style="fill:none;stroke:#00AEEF;stroke-width:0.5;opacity:1.0;"/>
 </g>
 <g id="Symbols">
  <g id="Black-L" transform="matrix(1.0,0.0,0.0,1.0,2880.576815708705,1466.6668352399554)">  <path stroke-miterlimit="4" fill-rule="nonzero" fill="#000000" stroke-opacity="1" stroke-linejoin="miter" fill-opacity="1" stroke="none" stroke-dasharray="none" stroke-width="1px" stroke-linecap="butt" d="M54.103,60.559C40.797,60.559,29.992,54.872,21.254,45.164C18.117,41.678,15.485,37.919,13.36,34.168C12.623,32.867,12.006,31.67,11.507,30.613C11.229,30.021,11.063,29.639,11.008,29.502L-3.794,35.422C-3.738,35.562,-3.653,35.768,-3.536,36.036C-3.36,36.443,-3.153,36.902,-2.913,37.411C-2.249,38.819,-1.45,40.369,-0.51,42.028C2.154,46.73,5.44,51.425,9.404,55.829C20.955,68.663,35.849,76.502,54.103,76.502L54.103,60.559ZM54.103,76.502C72.357,76.502,87.251,68.663,98.802,55.829C102.766,51.425,106.052,46.73,108.717,42.028C109.656,40.369,110.455,38.819,111.119,37.411C111.359,36.902,111.567,36.443,111.743,36.036C111.859,35.768,111.945,35.562,112.001,35.422L97.198,29.501C97.143,29.639,96.978,30.021,96.699,30.613C96.2,31.67,95.584,32.867,94.846,34.168C92.721,37.919,90.089,41.678,86.952,45.164C78.214,54.872,67.409,60.559,54.103,60.559L54.103,76.502ZM46.132,68.531L46.132,86.565L62.074,86.565L62.074,68.531L46.132,68.531ZM12.85,77.774L27.278,63.347L16.005,52.074L1.577,66.501L12.85,77.774ZM80.929,63.347L95.356,77.774L106.629,66.501L92.202,52.074L80.929,63.347Z"/>
</g>
  <g id="Heavy-L" transform="matrix(1.0,0.0,0.0,1.0,2583.866815708705,1466.6668352399554)">  <path stroke-linejoin="miter" stroke-linecap="butt" stroke-opacity="1" stroke-dasharray="none" stroke-width="1px" fill-rule="nonzero" fill-opacity="1" stroke="none" stroke-miterlimit="4" fill="#000000" d="M54.103,61.432C40.526,61.432,29.497,55.627,20.605,45.748C17.423,42.212,14.756,38.401,12.6,34.598C11.852,33.278,11.225,32.061,10.718,30.985C10.431,30.377,10.259,29.979,10.198,29.826L-2.984,35.098C-2.931,35.23,-2.848,35.429,-2.735,35.689C-2.563,36.087,-2.359,36.538,-2.123,37.039C-1.469,38.428,-0.679,39.959,0.249,41.597C2.884,46.248,6.134,50.891,10.053,55.245C21.45,67.908,36.12,75.629,54.103,75.629L54.103,61.432ZM54.103,75.629C72.087,75.629,86.756,67.908,98.153,55.245C102.072,50.891,105.322,46.248,107.957,41.597C108.886,39.959,109.675,38.428,110.33,37.039C110.566,36.538,110.769,36.087,110.942,35.689C111.055,35.429,111.137,35.23,111.19,35.098L98.009,29.826C97.948,29.979,97.775,30.377,97.488,30.985C96.981,32.061,96.354,33.278,95.606,34.598C93.451,38.401,90.783,42.212,87.601,45.748C78.709,55.627,67.68,61.432,54.103,61.432L54.103,75.629ZM47.005,68.531L47.005,86.565L61.202,86.565L61.201,68.531L47.005,68.531ZM12.233,77.157L26.661,62.729L16.622,52.691L2.194,67.118L12.233,77.157ZM81.546,62.729L95.973,77.157L106.012,67.118L91.584,52.691L81.546,62.729Z"/>
</g>
  <g id="Bold-L" transform="matrix(1.0,0.0,0.0,1.0,2287.156815708705,1466.6668352399554)">  <path stroke-miterlimit="4" stroke-linejoin="miter" fill-rule="nonzero" stroke-width="1px" fill-opacity="1" stroke-opacity="1" fill="#000000" stroke-linecap="butt" stroke-dasharray="none" stroke="none" d="M54.103,62.305C40.255,62.305,29.002,56.383,19.957,46.332C16.729,42.745,14.026,38.884,11.841,35.028C11.082,33.689,10.445,32.453,9.928,31.357C9.753,30.986,9.607,30.663,9.49,30.392C9.428,30.248,9.394,30.166,9.387,30.15L-2.173,34.774C-2.016,35.168,-1.737,35.811,-1.334,36.666C-0.688,38.036,0.091,39.548,1.008,41.167C3.614,45.765,6.829,50.357,10.702,54.661C21.945,67.153,36.391,74.756,54.103,74.756L54.103,62.305ZM54.103,74.756C71.816,74.756,86.262,67.153,97.504,54.661C101.378,50.357,104.592,45.765,107.198,41.167C108.115,39.548,108.894,38.036,109.54,36.666C109.944,35.811,110.222,35.169,110.38,34.774L98.819,30.15C98.813,30.166,98.779,30.248,98.716,30.392C98.599,30.662,98.453,30.986,98.278,31.357C97.761,32.453,97.125,33.689,96.365,35.028C94.181,38.884,91.478,42.745,88.25,46.332C79.204,56.383,67.951,62.305,54.103,62.305L54.103,74.756ZM47.878,68.531L47.878,86.565L60.329,86.565L60.329,68.531L47.878,68.531ZM11.616,76.54L26.043,62.112L17.239,53.308L2.812,67.736L11.616,76.54ZM82.163,62.112L96.591,76.54L105.395,67.736L90.967,53.308L82.163,62.112Z"/>
</g>
  <g id="Semibold-L" transform="matrix(1.0,0.0,0.0,1.0,1990.4468157087053,1466.6668352399554)">  <path stroke-linecap="butt" fill="#000000" stroke-width="1px" fill-rule="nonzero" stroke="none" stroke-linejoin="miter" stroke-opacity="1" fill-opacity="1" stroke-miterlimit="4" stroke-dasharray="none" d="M54.103,63.178C39.984,63.178,28.507,57.138,19.308,46.916C16.035,43.279,13.296,39.366,11.082,35.459C10.311,34.099,9.664,32.844,9.139,31.729C8.96,31.35,8.81,31.018,8.689,30.739C8.624,30.588,8.586,30.498,8.577,30.474L-1.363,34.45C-1.211,34.829,-0.94,35.455,-0.544,36.294C0.092,37.645,0.862,39.137,1.768,40.737C4.344,45.283,7.523,49.824,11.351,54.077C22.439,66.398,36.661,73.883,54.103,73.883L54.103,63.178ZM54.103,73.883C71.545,73.883,85.767,66.398,96.856,54.077C100.684,49.824,103.862,45.283,106.438,40.737C107.345,39.137,108.114,37.645,108.751,36.294C109.146,35.455,109.418,34.829,109.569,34.45L99.63,30.474C99.62,30.498,99.583,30.588,99.517,30.739C99.396,31.018,99.247,31.35,99.068,31.729C98.542,32.844,97.895,34.099,97.125,35.459C94.911,39.366,92.172,43.279,88.899,46.916C79.699,57.138,68.222,63.178,54.103,63.178L54.103,73.883ZM48.75,68.531L48.751,86.565L59.456,86.565L59.456,68.531L48.75,68.531ZM10.999,75.922L25.426,61.495L17.856,53.925L3.429,68.353L10.999,75.922ZM82.78,61.495L97.208,75.922L104.777,68.353L90.35,53.925L82.78,61.495Z"/>
</g>
  <g id="Medium-L" transform="matrix(1.0,0.0,0.0,1.0,1693.7368157087053,1466.6668352399554)">  <path stroke-linecap="butt" stroke-linejoin="miter" stroke="none" fill="#000000" stroke-miterlimit="4" fill-opacity="1" fill-rule="nonzero" stroke-width="1px" stroke-dasharray="none" stroke-opacity="1" d="M54.103,64.051C39.713,64.051,28.013,57.893,18.659,47.5C15.341,43.813,12.566,39.848,10.322,35.889C9.541,34.51,8.884,33.236,8.349,32.102C8.166,31.713,8.013,31.373,7.888,31.086C7.819,30.927,7.779,30.83,7.766,30.798L-0.552,34.126C-0.407,34.489,-0.143,35.099,0.245,35.922C0.873,37.253,1.632,38.726,2.527,40.306C5.074,44.8,8.217,49.29,11.999,53.493C22.934,65.643,36.932,73.01,54.103,73.01L54.103,64.051ZM54.103,73.01C71.274,73.01,85.272,65.643,96.207,53.493C99.99,49.29,103.132,44.8,105.679,40.306C106.574,38.726,107.333,37.253,107.961,35.922C108.349,35.099,108.614,34.489,108.759,34.126L100.44,30.798C100.428,30.83,100.387,30.927,100.318,31.086C100.194,31.373,100.04,31.713,99.857,32.101C99.322,33.236,98.666,34.51,97.884,35.889C95.64,39.848,92.866,43.813,89.547,47.5C80.194,57.893,68.493,64.051,54.103,64.051L54.103,73.01ZM49.623,68.531L49.623,86.565L58.583,86.565L58.583,68.531L49.623,68.531ZM10.381,75.305L24.809,60.878L18.474,54.542L4.046,68.97L10.381,75.305ZM83.397,60.878L97.825,75.305L104.16,68.97L89.733,54.542L83.397,60.878Z"/>
</g>
  <g id="Regular-L" transform="matrix(1.0,0.0,0.0,1.0,1397.0268157087053,1466.6668352399554)">  <path stroke-dasharray="none" stroke-linecap="butt" fill="#000000" fill-rule="nonzero" stroke-linejoin="miter" stroke-width="1px" fill-opacity="1" stroke="none" stroke-opacity="1" stroke-miterlimit="4" d="M54.103,64.924C39.443,64.924,27.518,58.648,18.01,48.083C14.647,44.346,11.836,40.331,9.563,36.319C8.77,34.921,8.104,33.627,7.56,32.474C7.373,32.077,7.215,31.729,7.087,31.433C7.015,31.266,6.971,31.162,6.956,31.122L0.258,33.801C0.397,34.149,0.654,34.743,1.035,35.55C1.653,36.862,2.403,38.316,3.287,39.876C5.804,44.318,8.911,48.756,12.648,52.909C23.429,64.888,37.203,72.138,54.103,72.138L54.103,64.924ZM54.103,72.138C71.003,72.138,84.777,64.888,95.558,52.909C99.296,48.756,102.402,44.318,104.92,39.876C105.804,38.316,106.553,36.862,107.172,35.55C107.552,34.743,107.81,34.149,107.948,33.801L101.251,31.122C101.235,31.161,101.191,31.266,101.119,31.433C100.991,31.729,100.834,32.077,100.647,32.474C100.103,33.627,99.436,34.921,98.644,36.319C96.37,40.331,93.56,44.346,90.196,48.083C80.688,58.648,68.764,64.924,54.103,64.924L54.103,72.138ZM50.496,68.531L50.496,86.565L57.71,86.565L57.71,68.531L50.496,68.531ZM9.764,74.688L24.192,60.261L19.091,55.16L4.663,69.587L9.764,74.688ZM84.015,60.261L98.442,74.688L103.543,69.587L89.116,55.16L84.015,60.261Z"/>
</g>
  <g id="Light-L" transform="matrix(1.0,0.0,0.0,1.0,1100.3168157087055,1466.6668352399554)">  <path stroke-miterlimit="4" stroke-linecap="butt" stroke-dasharray="none" stroke-linejoin="miter" stroke="none" fill="#000000" fill-opacity="1" stroke-opacity="1" stroke-width="1px" fill-rule="nonzero" d="M54.103,65.525C39.256,65.525,27.177,59.168,17.563,48.486C14.169,44.714,11.333,40.663,9.04,36.616C8.24,35.204,7.566,33.897,7.016,32.73C6.826,32.328,6.666,31.973,6.536,31.672C6.461,31.5,6.415,31.39,6.398,31.346L0.816,33.578C0.951,33.914,1.203,34.498,1.578,35.293C2.191,36.592,2.933,38.033,3.81,39.58C6.307,43.986,9.389,48.389,13.095,52.507C23.77,64.368,37.39,71.536,54.103,71.536L54.103,65.525ZM54.103,71.536C70.816,71.536,84.436,64.368,95.111,52.507C98.818,48.389,101.9,43.986,104.397,39.58C105.273,38.033,106.015,36.592,106.628,35.293C107.003,34.498,107.256,33.914,107.39,33.578L101.809,31.346C101.791,31.39,101.745,31.5,101.671,31.672C101.54,31.973,101.38,32.328,101.19,32.73C100.64,33.897,99.967,35.204,99.167,36.616C96.873,40.663,94.038,44.714,90.643,48.486C81.029,59.168,68.95,65.525,54.103,65.525L54.103,71.536ZM51.097,68.531L51.097,86.565L57.109,86.565L57.109,68.531L51.097,68.531ZM9.339,74.263L23.767,59.835L19.516,55.585L5.088,70.012L9.339,74.263ZM84.44,59.835L98.867,74.263L103.118,70.012L88.69,55.585L84.44,59.835Z"/>
</g>
  <g id="Thin-L" transform="matrix(1.0,0.0,0.0,1.0,803.6068157087054,1466.6668352399554)">  <path stroke-miterlimit="4" stroke="none" stroke-linejoin="miter" fill="#000000" stroke-width="1px" stroke-dasharray="none" fill-opacity="1" stroke-linecap="butt" fill-rule="nonzero" stroke-opacity="1" d="M54.103,66.126C39.069,66.126,26.836,59.688,17.116,48.888C13.691,45.081,10.831,40.995,8.517,36.912C7.709,35.487,7.028,34.166,6.472,32.986C6.28,32.578,6.117,32.218,5.984,31.911C5.907,31.734,5.859,31.618,5.839,31.569L1.374,33.355C1.504,33.68,1.752,34.253,2.122,35.037C2.728,36.323,3.464,37.75,4.333,39.283C6.809,43.654,9.867,48.021,13.542,52.105C24.11,63.848,37.577,70.935,54.103,70.935L54.103,66.126ZM54.103,70.935C70.63,70.935,84.096,63.848,94.664,52.105C98.34,48.021,101.397,43.654,103.874,39.283C104.743,37.75,105.478,36.323,106.084,35.037C106.454,34.253,106.702,33.68,106.832,33.355L102.367,31.569C102.347,31.618,102.299,31.734,102.222,31.911C102.089,32.218,101.927,32.578,101.734,32.986C101.178,34.166,100.497,35.487,99.69,36.912C97.376,40.995,94.516,45.081,91.09,48.888C81.37,59.688,69.137,66.126,54.103,66.126L54.103,70.935ZM51.698,68.531L51.699,86.565L56.508,86.565L56.508,68.531L51.698,68.531ZM8.914,73.838L23.342,59.41L19.941,56.01L5.513,70.437L8.914,73.838ZM84.865,59.41L99.292,73.838L102.693,70.437L88.265,56.01L84.865,59.41Z"/>
</g>
  <g id="Ultralight-L" transform="matrix(1.0,0.0,0.0,1.0,506.8968157087054,1466.6668352399554)">  <path stroke-opacity="1" stroke-linejoin="miter" stroke-dasharray="none" stroke="none" fill="#000000" fill-rule="nonzero" stroke-linecap="butt" stroke-miterlimit="4" stroke-width="1px" fill-opacity="1" d="M54.103,66.727C38.883,66.727,26.496,60.208,16.67,49.29C13.213,45.449,10.328,41.328,7.994,37.209C7.178,35.77,6.491,34.436,5.929,33.243C5.733,32.829,5.568,32.463,5.432,32.15C5.353,31.968,5.303,31.847,5.281,31.792L1.932,33.132C2.058,33.446,2.301,34.008,2.666,34.781C3.266,36.053,3.994,37.467,4.856,38.987C7.312,43.321,10.345,47.654,13.989,51.703C24.451,63.328,37.763,70.334,54.103,70.334L54.103,66.727ZM54.103,70.334C70.443,70.334,83.755,63.328,94.218,51.703C97.862,47.654,100.894,43.321,103.351,38.987C104.212,37.467,104.94,36.053,105.54,34.781C105.905,34.008,106.148,33.446,106.274,33.132L102.925,31.792C102.903,31.847,102.853,31.968,102.774,32.15C102.638,32.463,102.473,32.829,102.278,33.243C101.715,34.436,101.028,35.77,100.213,37.209C97.878,41.328,94.994,45.449,91.537,49.29C81.711,60.208,69.323,66.727,54.103,66.727L54.103,70.334ZM52.3,68.531L52.3,86.565L55.907,86.565L55.906,68.531L52.3,68.531ZM8.489,73.413L22.916,58.985L20.366,56.435L5.939,70.862L8.489,73.413ZM85.29,58.985L99.717,73.413L102.268,70.862L87.84,56.435L85.29,58.985Z"/>
</g>
  <g id="Black-M" transform="matrix(1.0,0.0,0.0,1.0,2892.7395470610118,1048.829566592262)">  <path stroke-miterlimit="4" fill-rule="nonzero" fill="#000000" stroke-opacity="1" stroke-linejoin="miter" fill-opacity="1" stroke="none" stroke-dasharray="none" stroke-width="1px" stroke-linecap="butt" d="M41.94,46.945C31.626,46.945,23.249,42.537,16.476,35.011C14.044,32.309,12.004,29.394,10.356,26.487C9.785,25.478,9.307,24.55,8.92,23.731C8.704,23.272,8.576,22.976,8.533,22.869L-2.941,27.459C-2.898,27.567,-2.831,27.727,-2.741,27.935C-2.605,28.25,-2.444,28.606,-2.258,29.001C-1.743,30.092,-1.124,31.294,-0.396,32.579C1.67,36.225,4.217,39.864,7.29,43.278C16.244,53.227,27.79,59.304,41.94,59.304L41.94,46.945ZM41.94,59.304C56.091,59.304,67.636,53.227,76.591,43.278C79.663,39.864,82.211,36.225,84.277,32.58C85.005,31.294,85.624,30.092,86.139,29.001C86.325,28.606,86.486,28.25,86.622,27.935C86.712,27.727,86.779,27.567,86.822,27.459L75.348,22.869C75.305,22.976,75.177,23.272,74.96,23.731C74.574,24.55,74.096,25.478,73.524,26.487C71.877,29.394,69.837,32.309,67.405,35.011C60.631,42.537,52.255,46.945,41.94,46.945L41.94,59.304ZM35.761,53.125L35.761,67.105L48.12,67.105L48.12,53.125L35.761,53.125ZM9.961,60.29L21.146,49.106L12.407,40.367L1.223,51.551L9.961,60.29ZM62.735,49.106L73.919,60.29L82.658,51.551L71.474,40.367L62.735,49.106Z"/>
</g>
  <g id="Heavy-M" transform="matrix(1.0,0.0,0.0,1.0,2596.0295470610117,1048.829566592262)">  <path stroke-linejoin="miter" stroke-linecap="butt" stroke-opacity="1" stroke-dasharray="none" stroke-width="1px" fill-rule="nonzero" fill-opacity="1" stroke="none" stroke-miterlimit="4" fill="#000000" d="M41.94,47.622C31.416,47.622,22.866,43.122,15.973,35.463C13.506,32.722,11.438,29.768,9.768,26.82C9.188,25.797,8.702,24.854,8.308,24.019C8.086,23.548,7.953,23.239,7.905,23.121L-2.313,27.208C-2.272,27.31,-2.208,27.464,-2.12,27.666C-1.987,27.975,-1.829,28.324,-1.646,28.712C-1.138,29.789,-0.527,30.976,0.193,32.246C2.236,35.851,4.755,39.45,7.793,42.825C16.628,52.642,28,58.627,41.94,58.627L41.94,47.622ZM41.94,58.627C55.881,58.627,67.253,52.642,76.088,42.825C79.125,39.45,81.645,35.851,83.688,32.246C84.408,30.976,85.019,29.789,85.527,28.712C85.71,28.324,85.868,27.975,86.001,27.666C86.089,27.464,86.153,27.31,86.194,27.208L75.976,23.121C75.928,23.239,75.795,23.548,75.572,24.019C75.179,24.854,74.693,25.797,74.113,26.82C72.443,29.768,70.375,32.722,67.908,35.463C61.015,43.122,52.465,47.622,41.94,47.622L41.94,58.627ZM36.438,53.125L36.438,67.105L47.443,67.105L47.443,53.125L36.438,53.125ZM9.483,59.812L20.667,48.627L12.885,40.846L1.701,52.03L9.483,59.812ZM63.214,48.627L74.398,59.812L82.18,52.03L70.996,40.846L63.214,48.627Z"/>
</g>
  <g id="Bold-M" transform="matrix(1.0,0.0,0.0,1.0,2299.3195470610117,1048.829566592262)">  <path stroke-miterlimit="4" stroke-linejoin="miter" fill-rule="nonzero" stroke-width="1px" fill-opacity="1" stroke-opacity="1" fill="#000000" stroke-linecap="butt" stroke-dasharray="none" stroke="none" d="M41.94,48.299C31.206,48.299,22.482,43.707,15.47,35.916C12.968,33.136,10.873,30.142,9.179,27.154C8.591,26.115,8.097,25.157,7.696,24.308C7.561,24.02,7.448,23.769,7.357,23.559C7.308,23.448,7.282,23.385,7.277,23.372L-1.685,26.957C-1.562,27.262,-1.347,27.76,-1.034,28.424C-0.533,29.485,0.071,30.657,0.782,31.912C2.802,35.477,5.293,39.037,8.296,42.373C17.011,52.057,28.21,57.951,41.94,57.951L41.94,48.299ZM41.94,57.951C55.671,57.951,66.869,52.057,75.585,42.373C78.587,39.037,81.079,35.477,83.099,31.912C83.81,30.657,84.414,29.485,84.915,28.424C85.228,27.76,85.443,27.262,85.566,26.957L76.604,23.372C76.599,23.385,76.573,23.448,76.524,23.559C76.433,23.769,76.32,24.02,76.185,24.308C75.784,25.157,75.29,26.115,74.702,27.154C73.008,30.142,70.913,33.136,68.411,35.916C61.398,43.707,52.675,48.299,41.94,48.299L41.94,57.951ZM37.114,53.125L37.115,67.105L46.766,67.105L46.766,53.125L37.114,53.125ZM9.005,59.333L20.189,48.149L13.364,41.324L2.18,52.508L9.005,59.333ZM63.692,48.149L74.876,59.333L81.701,52.508L70.517,41.324L63.692,48.149Z"/>
</g>
  <g id="Semibold-M" transform="matrix(1.0,0.0,0.0,1.0,2002.6095470610119,1048.829566592262)">  <path stroke-linecap="butt" fill="#000000" stroke-width="1px" fill-rule="nonzero" stroke="none" stroke-linejoin="miter" stroke-opacity="1" fill-opacity="1" stroke-miterlimit="4" stroke-dasharray="none" d="M41.94,48.975C30.996,48.975,22.099,44.293,14.967,36.369C12.43,33.55,10.307,30.516,8.59,27.487C7.993,26.434,7.492,25.461,7.084,24.596C6.946,24.302,6.829,24.045,6.736,23.828C6.685,23.711,6.656,23.642,6.649,23.623L-1.057,26.705C-0.939,26.999,-0.729,27.484,-0.422,28.135C0.072,29.182,0.668,30.339,1.37,31.579C3.368,35.103,5.831,38.623,8.799,41.92C17.395,51.471,28.42,57.274,41.94,57.274L41.94,48.975ZM41.94,57.274C55.461,57.274,66.486,51.471,75.082,41.92C78.049,38.623,80.513,35.103,82.51,31.579C83.213,30.339,83.809,29.182,84.303,28.135C84.61,27.484,84.82,26.999,84.937,26.705L77.232,23.623C77.225,23.642,77.196,23.711,77.145,23.828C77.051,24.045,76.935,24.302,76.797,24.596C76.389,25.461,75.888,26.434,75.29,27.487C73.574,30.516,71.451,33.55,68.914,36.369C61.782,44.293,52.885,48.975,41.94,48.975L41.94,57.274ZM37.791,53.125L37.791,67.105L46.09,67.105L46.09,53.125L37.791,53.125ZM8.526,58.855L19.71,47.67L13.842,41.802L2.658,52.987L8.526,58.855ZM64.171,47.67L75.355,58.855L81.223,52.987L70.039,41.802L64.171,47.67Z"/>
</g>
  <g id="Medium-M" transform="matrix(1.0,0.0,0.0,1.0,1705.8995470610118,1048.829566592262)">  <path stroke-linecap="butt" stroke-linejoin="miter" stroke="none" fill="#000000" stroke-miterlimit="4" fill-opacity="1" fill-rule="nonzero" stroke-width="1px" stroke-dasharray="none" stroke-opacity="1" d="M41.94,49.652C30.786,49.652,21.715,44.878,14.464,36.821C11.892,33.963,9.741,30.89,8.002,27.821C7.396,26.752,6.887,25.764,6.472,24.885C6.33,24.584,6.211,24.32,6.115,24.098C6.062,23.975,6.03,23.899,6.02,23.875L-0.428,26.454C-0.316,26.735,-0.111,27.208,0.19,27.846C0.677,28.879,1.265,30.02,1.959,31.245C3.933,34.729,6.369,38.209,9.302,41.468C17.778,50.886,28.63,56.597,41.94,56.597L41.94,49.652ZM41.94,56.597C55.251,56.597,66.102,50.886,74.579,41.468C77.511,38.209,79.948,34.729,81.922,31.245C82.616,30.02,83.204,28.879,83.691,27.847C83.992,27.208,84.197,26.735,84.309,26.454L77.861,23.875C77.851,23.899,77.819,23.975,77.766,24.098C77.67,24.32,77.55,24.584,77.409,24.885C76.994,25.764,76.485,26.752,75.879,27.821C74.14,30.89,71.989,33.963,69.417,36.821C62.166,44.878,53.095,49.652,41.94,49.652L41.94,56.597ZM38.468,53.125L38.468,67.105L45.413,67.105L45.413,53.125L38.468,53.125ZM8.048,58.376L19.232,47.192L14.321,42.281L3.137,53.465L8.048,58.376ZM64.649,47.192L75.833,58.376L80.744,53.465L69.56,42.281L64.649,47.192Z"/>
</g>
  <g id="Regular-M" transform="matrix(1.0,0.0,0.0,1.0,1409.1895470610118,1048.829566592262)">  <path stroke-dasharray="none" stroke-linecap="butt" fill="#000000" fill-rule="nonzero" stroke-linejoin="miter" stroke-width="1px" fill-opacity="1" stroke="none" stroke-opacity="1" stroke-miterlimit="4" d="M41.94,50.329C30.576,50.329,21.332,45.463,13.961,37.274C11.354,34.377,9.175,31.264,7.413,28.155C6.799,27.07,6.282,26.068,5.86,25.173C5.715,24.866,5.593,24.596,5.494,24.367C5.438,24.238,5.404,24.156,5.392,24.126L0.2,26.203C0.308,26.472,0.507,26.933,0.802,27.558C1.282,28.575,1.862,29.702,2.548,30.912C4.499,34.355,6.908,37.796,9.805,41.015C18.162,50.301,28.84,55.921,41.94,55.921L41.94,50.329ZM41.94,55.921C55.041,55.921,65.719,50.301,74.076,41.015C76.973,37.796,79.382,34.355,81.333,30.912C82.018,29.702,82.599,28.575,83.079,27.558C83.374,26.933,83.573,26.472,83.681,26.203L78.489,24.126C78.477,24.156,78.443,24.238,78.387,24.367C78.288,24.596,78.166,24.866,78.021,25.173C77.599,26.068,77.082,27.07,76.468,28.155C74.706,31.264,72.527,34.377,69.919,37.274C62.549,45.463,53.305,50.329,41.94,50.329L41.94,55.921ZM39.144,53.125L39.144,67.105L44.736,67.105L44.736,53.125L39.144,53.125ZM7.569,57.898L18.753,46.714L14.799,42.759L3.615,53.944L7.569,57.898ZM65.128,46.714L76.312,57.898L80.266,53.944L69.082,42.759L65.128,46.714Z"/>
</g>
  <g id="Light-M" transform="matrix(1.0,0.0,0.0,1.0,1112.479547061012,1048.829566592262)">  <path stroke-miterlimit="4" stroke-linecap="butt" stroke-dasharray="none" stroke-linejoin="miter" stroke="none" fill="#000000" fill-opacity="1" stroke-opacity="1" stroke-width="1px" fill-rule="nonzero" d="M41.94,50.795C30.431,50.795,21.068,45.866,13.615,37.586C10.983,34.662,8.785,31.522,7.008,28.384C6.387,27.29,5.865,26.277,5.439,25.372C5.292,25.06,5.168,24.786,5.066,24.552C5.009,24.419,4.973,24.333,4.959,24.299L0.633,26.03C0.737,26.29,0.933,26.742,1.224,27.359C1.698,28.366,2.274,29.483,2.953,30.682C4.889,34.097,7.278,37.511,10.151,40.703C18.426,49.898,28.984,55.455,41.94,55.455L41.94,50.795ZM41.94,55.455C54.896,55.455,65.455,49.898,73.73,40.703C76.603,37.511,78.992,34.097,80.928,30.682C81.607,29.483,82.183,28.366,82.657,27.359C82.948,26.742,83.144,26.29,83.248,26.03L78.922,24.299C78.908,24.333,78.872,24.419,78.815,24.552C78.713,24.786,78.589,25.06,78.442,25.372C78.016,26.277,77.494,27.29,76.873,28.384C75.095,31.522,72.897,34.662,70.266,37.586C62.813,45.866,53.45,50.795,41.94,50.795L41.94,55.455ZM39.61,53.125L39.61,67.105L44.27,67.105L44.27,53.125L39.61,53.125ZM7.24,57.568L18.424,46.384L15.129,43.089L3.944,54.273L7.24,57.568ZM65.457,46.384L76.641,57.568L79.936,54.273L68.752,43.089L65.457,46.384Z"/>
</g>
  <g id="Thin-M" transform="matrix(1.0,0.0,0.0,1.0,815.769547061012,1048.829566592262)">  <path stroke-miterlimit="4" stroke="none" stroke-linejoin="miter" fill="#000000" stroke-width="1px" stroke-dasharray="none" fill-opacity="1" stroke-linecap="butt" fill-rule="nonzero" stroke-opacity="1" d="M41.94,51.261C30.286,51.261,20.803,46.27,13.269,37.897C10.613,34.947,8.396,31.779,6.602,28.614C5.976,27.509,5.448,26.485,5.017,25.571C4.868,25.254,4.742,24.975,4.639,24.737C4.579,24.6,4.542,24.51,4.527,24.472L1.065,25.857C1.166,26.109,1.358,26.552,1.645,27.161C2.115,28.157,2.685,29.263,3.359,30.452C5.278,33.84,7.649,37.226,10.498,40.391C18.69,49.494,29.129,54.989,41.94,54.989L41.94,51.261ZM41.94,54.989C54.752,54.989,65.19,49.494,73.383,40.391C76.232,37.226,78.602,33.84,80.522,30.452C81.196,29.263,81.766,28.157,82.236,27.161C82.522,26.552,82.715,26.109,82.816,25.857L79.354,24.472C79.339,24.51,79.302,24.6,79.242,24.737C79.139,24.975,79.013,25.254,78.864,25.571C78.432,26.485,77.905,27.509,77.279,28.614C75.485,31.779,73.268,34.947,70.612,37.897C63.077,46.27,53.594,51.261,41.94,51.261L41.94,54.989ZM40.076,53.125L40.076,67.105L43.804,67.105L43.804,53.125L40.076,53.125ZM6.91,57.239L18.094,46.055L15.458,43.418L4.274,54.603L6.91,57.239ZM65.787,46.055L76.971,57.239L79.607,54.603L68.423,43.418L65.787,46.055Z"/>
</g>
  <g id="Ultralight-M" transform="matrix(1.0,0.0,0.0,1.0,519.0595470610119,1048.829566592262)">  <path stroke-opacity="1" stroke-linejoin="miter" stroke-dasharray="none" stroke="none" fill="#000000" fill-rule="nonzero" stroke-linecap="butt" stroke-miterlimit="4" stroke-width="1px" fill-opacity="1" d="M41.94,51.727C30.142,51.727,20.539,46.673,12.922,38.209C10.242,35.232,8.006,32.037,6.197,28.844C5.565,27.728,5.032,26.694,4.596,25.77C4.444,25.449,4.316,25.165,4.211,24.922C4.15,24.781,4.111,24.688,4.094,24.645L1.498,25.683C1.596,25.927,1.784,26.362,2.067,26.962C2.532,27.948,3.096,29.044,3.764,30.222C5.668,33.582,8.019,36.941,10.844,40.08C18.954,49.091,29.274,54.523,41.94,54.523L41.94,51.727ZM41.94,54.523C54.607,54.523,64.926,49.091,73.037,40.08C75.862,36.941,78.213,33.582,80.117,30.222C80.784,29.044,81.349,27.948,81.814,26.962C82.097,26.362,82.285,25.927,82.383,25.683L79.787,24.645C79.77,24.688,79.731,24.781,79.67,24.922C79.565,25.165,79.436,25.449,79.285,25.77C78.849,26.694,78.316,27.728,77.684,28.844C75.875,32.037,73.638,35.232,70.959,38.209C63.341,46.673,53.739,51.727,41.94,51.727L41.94,54.523ZM40.542,53.125L40.542,67.105L43.338,67.105L43.338,53.125L40.542,53.125ZM6.581,56.909L17.765,45.725L15.788,43.748L4.604,54.932L6.581,56.909ZM66.116,45.725L77.3,56.909L79.277,54.932L68.093,43.748L66.116,45.725Z"/>
</g>
  <g id="Black-S" transform="matrix(1.0,0.0,0.0,1.0,2901.840625348772,627.9306448800223)">  <path stroke-miterlimit="4" fill-rule="nonzero" fill="#000000" stroke-opacity="1" stroke-linejoin="miter" fill-opacity="1" stroke="none" stroke-dasharray="none" stroke-width="1px" stroke-linecap="butt" d="M32.839,36.758C24.763,36.758,18.204,33.306,12.901,27.413C10.997,25.298,9.399,23.016,8.109,20.739C7.662,19.95,7.287,19.223,6.985,18.581C6.816,18.222,6.715,17.99,6.682,17.907L-2.303,21.501C-2.269,21.585,-2.217,21.71,-2.146,21.873C-2.04,22.12,-1.914,22.399,-1.768,22.707C-1.365,23.562,-0.88,24.503,-0.31,25.51C1.308,28.364,3.302,31.213,5.708,33.887C12.719,41.677,21.759,46.435,32.839,46.435L32.839,36.758ZM32.839,46.435C43.919,46.435,52.959,41.677,59.971,33.887C62.376,31.214,64.371,28.364,65.989,25.51C66.559,24.503,67.044,23.562,67.447,22.707C67.592,22.399,67.718,22.12,67.825,21.873C67.896,21.71,67.948,21.585,67.982,21.501L58.997,17.907C58.964,17.99,58.863,18.222,58.694,18.581C58.391,19.223,58.017,19.95,57.57,20.739C56.279,23.016,54.682,25.298,52.778,27.413C47.474,33.306,40.916,36.758,32.839,36.758L32.839,46.435ZM28.001,41.597L28.001,52.543L37.678,52.543L37.678,41.597L28.001,41.597ZM7.8,47.207L16.557,38.45L9.715,31.607L0.957,40.365L7.8,47.207ZM49.122,38.45L57.879,47.207L64.721,40.365L55.964,31.607L49.122,38.45Z"/>
</g>
  <g id="Heavy-S" transform="matrix(1.0,0.0,0.0,1.0,2605.130625348772,627.9306448800223)">  <path stroke-linejoin="miter" stroke-linecap="butt" stroke-opacity="1" stroke-dasharray="none" stroke-width="1px" fill-rule="nonzero" fill-opacity="1" stroke="none" stroke-miterlimit="4" fill="#000000" d="M32.839,37.288C24.599,37.288,17.904,33.765,12.507,27.768C10.575,25.621,8.956,23.309,7.648,21C7.194,20.199,6.814,19.461,6.506,18.807C6.332,18.438,6.227,18.197,6.19,18.103L-1.811,21.304C-1.779,21.384,-1.729,21.504,-1.66,21.663C-1.556,21.904,-1.432,22.178,-1.289,22.482C-0.891,23.325,-0.412,24.254,0.151,25.249C1.751,28.071,3.723,30.89,6.102,33.532C13.02,41.219,21.924,45.905,32.839,45.905L32.839,37.288ZM32.839,45.905C43.755,45.905,52.659,41.219,59.577,33.532C61.955,30.89,63.928,28.071,65.528,25.249C66.091,24.254,66.57,23.325,66.968,22.482C67.111,22.178,67.234,21.904,67.339,21.663C67.408,21.504,67.458,21.384,67.49,21.304L59.489,18.103C59.452,18.196,59.347,18.438,59.173,18.807C58.865,19.461,58.485,20.199,58.031,21C56.722,23.309,55.103,25.621,53.172,27.768C47.775,33.765,41.08,37.288,32.839,37.288L32.839,45.905ZM28.531,41.597L28.531,52.543L37.148,52.543L37.148,41.597L28.531,41.597ZM7.425,46.832L16.182,38.075L10.089,31.982L1.332,40.739L7.425,46.832ZM49.496,38.075L58.254,46.832L64.347,40.739L55.59,31.982L49.496,38.075Z"/>
</g>
  <g id="Bold-S" transform="matrix(1.0,0.0,0.0,1.0,2308.420625348772,627.9306448800223)">  <path stroke-miterlimit="4" stroke-linejoin="miter" fill-rule="nonzero" stroke-width="1px" fill-opacity="1" stroke-opacity="1" fill="#000000" stroke-linecap="butt" stroke-dasharray="none" stroke="none" d="M32.839,37.818C24.434,37.818,17.604,34.223,12.113,28.122C10.154,25.945,8.513,23.601,7.187,21.261C6.726,20.448,6.34,19.698,6.026,19.033C5.92,18.808,5.831,18.611,5.76,18.447C5.722,18.36,5.702,18.31,5.698,18.3L-1.319,21.107C-1.223,21.346,-1.054,21.736,-0.81,22.256C-0.418,23.087,0.055,24.005,0.612,24.987C2.194,27.778,4.145,30.566,6.496,33.178C13.32,40.76,22.088,45.375,32.839,45.375L32.839,37.818ZM32.839,45.375C43.59,45.375,52.359,40.76,59.183,33.178C61.534,30.566,63.485,27.779,65.067,24.987C65.623,24.005,66.096,23.087,66.488,22.256C66.733,21.736,66.902,21.346,66.998,21.107L59.981,18.3C59.977,18.31,59.956,18.36,59.919,18.447C59.847,18.611,59.759,18.808,59.652,19.033C59.339,19.698,58.952,20.448,58.492,21.261C57.166,23.601,55.525,25.945,53.566,28.122C48.075,34.223,41.245,37.818,32.839,37.818L32.839,45.375ZM29.061,41.597L29.061,52.543L36.618,52.543L36.618,41.597L29.061,41.597ZM7.051,46.458L15.808,37.701L10.464,32.357L1.707,41.114L7.051,46.458ZM49.871,37.701L58.628,46.458L63.972,41.114L55.215,32.357L49.871,37.701Z"/>
</g>
  <g id="Semibold-S" transform="matrix(1.0,0.0,0.0,1.0,2011.7106253487723,627.9306448800223)">  <path stroke-linecap="butt" fill="#000000" stroke-width="1px" fill-rule="nonzero" stroke="none" stroke-linejoin="miter" stroke-opacity="1" fill-opacity="1" stroke-miterlimit="4" stroke-dasharray="none" d="M32.839,38.348C24.27,38.348,17.303,34.681,11.719,28.477C9.733,26.269,8.07,23.894,6.726,21.523C6.259,20.698,5.866,19.936,5.547,19.259C5.438,19.028,5.347,18.827,5.274,18.658C5.234,18.566,5.212,18.512,5.206,18.497L-0.827,20.91C-0.735,21.14,-0.571,21.52,-0.33,22.03C0.056,22.85,0.523,23.755,1.073,24.726C2.637,27.486,4.566,30.242,6.89,32.823C13.62,40.302,22.253,44.845,32.839,44.845L32.839,38.348ZM32.839,44.845C43.426,44.845,52.058,40.302,58.789,32.823C61.113,30.242,63.042,27.486,64.606,24.726C65.156,23.755,65.623,22.85,66.009,22.03C66.249,21.52,66.414,21.14,66.506,20.91L60.473,18.497C60.467,18.512,60.444,18.566,60.405,18.658C60.331,18.827,60.24,19.028,60.132,19.259C59.813,19.936,59.42,20.698,58.952,21.523C57.609,23.894,55.946,26.269,53.959,28.477C48.375,34.681,41.409,38.348,32.839,38.348L32.839,44.845ZM29.59,41.597L29.59,52.543L36.088,52.543L36.088,41.597L29.59,41.597ZM6.676,46.083L15.433,37.326L10.838,32.731L2.081,41.489L6.676,46.083ZM50.246,37.326L59.003,46.083L63.597,41.489L54.84,32.731L50.246,37.326Z"/>
</g>
  <g id="Medium-S" transform="matrix(1.0,0.0,0.0,1.0,1715.0006253487722,627.9306448800223)">  <path stroke-linecap="butt" stroke-linejoin="miter" stroke="none" fill="#000000" stroke-miterlimit="4" fill-opacity="1" fill-rule="nonzero" stroke-width="1px" stroke-dasharray="none" stroke-opacity="1" d="M32.839,38.877C24.105,38.877,17.003,35.139,11.326,28.831C9.311,26.593,7.627,24.187,6.265,21.784C5.791,20.947,5.392,20.173,5.068,19.485C4.957,19.249,4.864,19.043,4.788,18.868C4.746,18.772,4.722,18.713,4.714,18.694L-0.335,20.713C-0.247,20.934,-0.087,21.304,0.149,21.804C0.53,22.612,0.991,23.506,1.534,24.465C3.08,27.193,4.987,29.918,7.283,32.469C13.921,39.844,22.417,44.316,32.839,44.316L32.839,38.877ZM32.839,44.316C43.261,44.316,51.758,39.844,58.395,32.469C60.691,29.918,62.599,27.193,64.145,24.465C64.688,23.506,65.149,22.612,65.53,21.804C65.765,21.304,65.926,20.934,66.014,20.713L60.965,18.694C60.957,18.713,60.933,18.772,60.891,18.868C60.815,19.043,60.722,19.249,60.611,19.485C60.286,20.173,59.888,20.947,59.413,21.784C58.052,24.187,56.367,26.593,54.353,28.831C48.676,35.139,41.573,38.877,32.839,38.877L32.839,44.316ZM30.12,41.597L30.12,52.543L35.558,52.543L35.558,41.597L30.12,41.597ZM6.301,45.709L15.058,36.951L11.213,33.106L2.456,41.863L6.301,45.709ZM50.62,36.951L59.377,45.709L63.223,41.863L54.466,33.106L50.62,36.951Z"/>
</g>
  <g id="Regular-S" transform="matrix(1.0,0.0,0.0,1.0,1418.2906253487722,627.9306448800223)">  <path stroke-dasharray="none" stroke-linecap="butt" fill="#000000" fill-rule="nonzero" stroke-linejoin="miter" stroke-width="1px" fill-opacity="1" stroke="none" stroke-opacity="1" stroke-miterlimit="4" d="M32.839,39.407C23.941,39.407,16.703,35.598,10.932,29.186C8.89,26.917,7.184,24.48,5.804,22.045C5.323,21.196,4.919,20.411,4.589,19.711C4.475,19.47,4.38,19.259,4.302,19.079C4.258,18.978,4.232,18.914,4.222,18.891L0.157,20.517C0.241,20.727,0.397,21.088,0.628,21.578C1.004,22.374,1.458,23.257,1.995,24.204C3.523,26.9,5.409,29.594,7.677,32.115C14.221,39.385,22.582,43.786,32.839,43.786L32.839,39.407ZM32.839,43.786C43.097,43.786,51.458,39.385,58.002,32.115C60.27,29.594,62.156,26.9,63.684,24.204C64.22,23.257,64.675,22.374,65.051,21.578C65.282,21.088,65.438,20.727,65.522,20.517L61.457,18.891C61.447,18.914,61.421,18.978,61.377,19.079C61.299,19.259,61.204,19.47,61.09,19.711C60.76,20.411,60.355,21.196,59.874,22.045C58.495,24.48,56.789,26.917,54.747,29.186C48.976,35.598,41.738,39.407,32.839,39.407L32.839,43.786ZM30.65,41.597L30.65,52.543L35.029,52.543L35.029,41.597L30.65,41.597ZM5.927,45.334L14.684,36.577L11.588,33.481L2.831,42.238L5.927,45.334ZM50.995,36.577L59.752,45.334L62.848,42.238L54.091,33.481L50.995,36.577Z"/>
</g>
  <g id="Light-S" transform="matrix(1.0,0.0,0.0,1.0,1121.5806253487724,627.9306448800223)">  <path stroke-miterlimit="4" stroke-linecap="butt" stroke-dasharray="none" stroke-linejoin="miter" stroke="none" fill="#000000" fill-opacity="1" stroke-opacity="1" stroke-width="1px" fill-rule="nonzero" d="M32.839,39.772C23.827,39.772,16.496,35.913,10.661,29.43C8.6,27.14,6.879,24.682,5.487,22.225C5.001,21.368,4.592,20.575,4.259,19.866C4.143,19.622,4.046,19.407,3.967,19.224C3.922,19.12,3.894,19.053,3.883,19.026L0.495,20.381C0.577,20.585,0.73,20.939,0.958,21.422C1.33,22.211,1.78,23.085,2.312,24.024C3.828,26.698,5.699,29.371,7.948,31.871C14.428,39.07,22.695,43.421,32.839,43.421L32.839,39.772ZM32.839,43.421C42.984,43.421,51.251,39.07,57.73,31.871C59.98,29.371,61.851,26.698,63.366,24.024C63.898,23.085,64.349,22.211,64.721,21.422C64.948,20.939,65.102,20.585,65.183,20.381L61.796,19.026C61.785,19.053,61.757,19.12,61.712,19.224C61.632,19.407,61.535,19.622,61.42,19.866C61.086,20.575,60.677,21.368,60.192,22.225C58.8,24.682,57.079,27.14,55.018,29.43C49.183,35.913,41.851,39.772,32.839,39.772L32.839,43.421ZM31.015,41.597L31.015,52.543L34.664,52.543L34.664,41.597L31.015,41.597ZM5.669,45.076L14.426,36.319L11.846,33.739L3.089,42.496L5.669,45.076ZM51.253,36.319L60.01,45.076L62.59,42.496L53.833,33.739L51.253,36.319Z"/>
</g>
  <g id="Thin-S" transform="matrix(1.0,0.0,0.0,1.0,824.8706253487724,627.9306448800223)">  <path stroke-miterlimit="4" stroke="none" stroke-linejoin="miter" fill="#000000" stroke-width="1px" stroke-dasharray="none" fill-opacity="1" stroke-linecap="butt" fill-rule="nonzero" stroke-opacity="1" d="M32.839,40.137C23.714,40.137,16.289,36.229,10.389,29.674C8.31,27.363,6.574,24.883,5.169,22.405C4.679,21.54,4.266,20.738,3.929,20.022C3.812,19.774,3.713,19.556,3.632,19.369C3.586,19.262,3.556,19.192,3.544,19.162L0.834,20.246C0.913,20.443,1.064,20.791,1.288,21.267C1.656,22.047,2.102,22.913,2.63,23.844C4.133,26.497,5.989,29.148,8.22,31.626C14.634,38.754,22.808,43.056,32.839,43.056L32.839,40.137ZM32.839,43.056C42.871,43.056,51.044,38.754,57.459,31.626C59.69,29.148,61.546,26.497,63.049,23.844C63.576,22.913,64.023,22.047,64.391,21.267C64.615,20.791,64.766,20.443,64.845,20.246L62.134,19.162C62.122,19.192,62.093,19.262,62.047,19.369C61.966,19.556,61.867,19.774,61.75,20.022C61.413,20.738,61,21.54,60.509,22.405C59.105,24.883,57.369,27.363,55.289,29.674C49.39,36.229,41.964,40.137,32.839,40.137L32.839,43.056ZM31.38,41.597L31.38,52.543L34.299,52.543L34.299,41.597L31.38,41.597ZM5.411,44.818L14.168,36.061L12.104,33.997L3.347,42.754L5.411,44.818ZM51.511,36.061L60.268,44.818L62.332,42.754L53.575,33.997L51.511,36.061Z"/>
</g>
  <g id="Ultralight-S" transform="matrix(1.0,0.0,0.0,1.0,528.1606253487723,627.9306448800223)">  <path stroke-opacity="1" stroke-linejoin="miter" stroke-dasharray="none" stroke="none" fill="#000000" fill-rule="nonzero" stroke-linecap="butt" stroke-miterlimit="4" stroke-width="1px" fill-opacity="1" d="M32.839,40.502C23.601,40.502,16.082,36.545,10.118,29.918C8.02,27.586,6.269,25.085,4.852,22.585C4.357,21.711,3.94,20.902,3.598,20.178C3.48,19.926,3.38,19.704,3.297,19.514C3.249,19.404,3.219,19.33,3.206,19.297L1.173,20.11C1.249,20.301,1.397,20.642,1.618,21.111C1.982,21.883,2.425,22.742,2.947,23.664C4.438,26.295,6.279,28.925,8.491,31.382C14.841,38.439,22.921,42.691,32.839,42.691L32.839,40.502ZM32.839,42.691C42.757,42.691,50.837,38.439,57.188,31.382C59.4,28.925,61.241,26.295,62.731,23.664C63.254,22.742,63.696,21.883,64.061,21.111C64.282,20.642,64.429,20.301,64.506,20.11L62.473,19.297C62.46,19.33,62.429,19.404,62.381,19.514C62.299,19.704,62.199,19.926,62.08,20.178C61.739,20.902,61.322,21.711,60.827,22.585C59.41,25.085,57.659,27.586,55.561,29.918C49.596,36.545,42.078,40.502,32.839,40.502L32.839,42.691ZM31.745,41.597L31.745,52.543L33.934,52.543L33.934,41.597L31.745,41.597ZM5.153,44.56L13.91,35.803L12.362,34.255L3.605,43.012L5.153,44.56ZM51.769,35.803L60.526,44.56L62.074,43.012L53.317,34.255L51.769,35.803Z"/>
</g>
 </g>
</svg>
