<?xml version="1.0" encoding="UTF-8"?>
<!--Generator: Apple Native CoreSVG 175.5-->
<!DOCTYPE svg
PUBLIC "-//W3C//DTD SVG 1.1//EN"
       "http://www.w3.org/Graphics/SVG/1.1/DTD/svg11.dtd">
<svg version="1.1" xmlns="http://www.w3.org/2000/svg" xmlns:xlink="http://www.w3.org/1999/xlink" width="3300" height="2200">
 <!--glyph: "", point size: 100.0, font version: "18.0d12e2", template writer version: "101"-->
 <g id="Notes">
  <rect height="2200" id="artboard" style="fill:white;opacity:1" width="3300" x="0" y="0"/>
  <line style="fill:none;stroke:black;opacity:1;stroke-width:0.5;" x1="263" x2="3036" y1="292" y2="292"/>
  <text style="stroke:none;fill:black;font-family:sans-serif;font-size:13;font-weight:bold;" transform="matrix(1 0 0 1 263 322)">Weight/Scale Variations</text>
  <text style="stroke:none;fill:black;font-family:sans-serif;font-size:13;text-anchor:middle;" transform="matrix(1 0 0 1 559.711 322)">Ultralight</text>
  <text style="stroke:none;fill:black;font-family:sans-serif;font-size:13;text-anchor:middle;" transform="matrix(1 0 0 1 856.422 322)">Thin</text>
  <text style="stroke:none;fill:black;font-family:sans-serif;font-size:13;text-anchor:middle;" transform="matrix(1 0 0 1 1153.13 322)">Light</text>
  <text style="stroke:none;fill:black;font-family:sans-serif;font-size:13;text-anchor:middle;" transform="matrix(1 0 0 1 1449.84 322)">Regular</text>
  <text style="stroke:none;fill:black;font-family:sans-serif;font-size:13;text-anchor:middle;" transform="matrix(1 0 0 1 1746.56 322)">Medium</text>
  <text style="stroke:none;fill:black;font-family:sans-serif;font-size:13;text-anchor:middle;" transform="matrix(1 0 0 1 2043.27 322)">Semibold</text>
  <text style="stroke:none;fill:black;font-family:sans-serif;font-size:13;text-anchor:middle;" transform="matrix(1 0 0 1 2339.98 322)">Bold</text>
  <text style="stroke:none;fill:black;font-family:sans-serif;font-size:13;text-anchor:middle;" transform="matrix(1 0 0 1 2636.69 322)">Heavy</text>
  <text style="stroke:none;fill:black;font-family:sans-serif;font-size:13;text-anchor:middle;" transform="matrix(1 0 0 1 2933.4 322)">Black</text>
  <line style="fill:none;stroke:black;opacity:1;stroke-width:0.5;" x1="263" x2="3036" y1="1903" y2="1903"/>
  <g transform="matrix(1 0 0 1 263 1933)">
   <path d="M9.24805 0.830078C13.5547 0.830078 17.1387-2.74414 17.1387-7.05078C17.1387-11.3574 13.5449-14.9316 9.23828-14.9316C4.94141-14.9316 1.36719-11.3574 1.36719-7.05078C1.36719-2.74414 4.95117 0.830078 9.24805 0.830078ZM9.24805-0.654297C5.70312-0.654297 2.87109-3.49609 2.87109-7.05078C2.87109-10.6055 5.69336-13.4473 9.23828-13.4473C12.793-13.4473 15.6445-10.6055 15.6445-7.05078C15.6445-3.49609 12.8027-0.654297 9.24805-0.654297ZM5.6543-7.05078C5.6543-6.62109 5.95703-6.32812 6.40625-6.32812L8.50586-6.32812L8.50586-4.20898C8.50586-3.76953 8.79883-3.4668 9.22852-3.4668C9.67773-3.4668 9.9707-3.76953 9.9707-4.20898L9.9707-6.32812L12.0898-6.32812C12.5293-6.32812 12.832-6.62109 12.832-7.05078C12.832-7.49023 12.5293-7.79297 12.0898-7.79297L9.9707-7.79297L9.9707-9.90234C9.9707-10.3516 9.67773-10.6543 9.22852-10.6543C8.79883-10.6543 8.50586-10.3516 8.50586-9.90234L8.50586-7.79297L6.40625-7.79297C5.95703-7.79297 5.6543-7.49023 5.6543-7.05078Z"/>
  </g>
  <g transform="matrix(1 0 0 1 281.867 1933)">
   <path d="M11.709 2.91016C17.1582 2.91016 21.6699-1.61133 21.6699-7.05078C21.6699-12.5 17.1484-17.0117 11.6992-17.0117C6.25977-17.0117 1.74805-12.5 1.74805-7.05078C1.74805-1.61133 6.26953 2.91016 11.709 2.91016ZM11.709 1.25C7.09961 1.25 3.41797-2.44141 3.41797-7.05078C3.41797-11.6602 7.08984-15.3516 11.6992-15.3516C16.3086-15.3516 20.0098-11.6602 20.0098-7.05078C20.0098-2.44141 16.3184 1.25 11.709 1.25ZM7.17773-7.05078C7.17773-6.57227 7.50977-6.25 8.00781-6.25L10.8789-6.25L10.8789-3.36914C10.8789-2.88086 11.2109-2.53906 11.6895-2.53906C12.1777-2.53906 12.5195-2.87109 12.5195-3.36914L12.5195-6.25L15.4004-6.25C15.8887-6.25 16.2305-6.57227 16.2305-7.05078C16.2305-7.53906 15.8887-7.88086 15.4004-7.88086L12.5195-7.88086L12.5195-10.752C12.5195-11.25 12.1777-11.5918 11.6895-11.5918C11.2109-11.5918 10.8789-11.25 10.8789-10.752L10.8789-7.88086L8.00781-7.88086C7.50977-7.88086 7.17773-7.53906 7.17773-7.05078Z"/>
  </g>
  <g transform="matrix(1 0 0 1 305.646 1933)">
   <path d="M14.9707 5.66406C21.9336 5.66406 27.6953-0.0976562 27.6953-7.05078C27.6953-14.0137 21.9238-19.7754 14.9609-19.7754C8.00781-19.7754 2.25586-14.0137 2.25586-7.05078C2.25586-0.0976562 8.01758 5.66406 14.9707 5.66406ZM14.9707 3.84766C8.93555 3.84766 4.08203-1.01562 4.08203-7.05078C4.08203-13.0957 8.92578-17.9492 14.9609-17.9492C21.0059-17.9492 25.8691-13.0957 25.8691-7.05078C25.8691-1.01562 21.0156 3.84766 14.9707 3.84766ZM9.19922-7.05078C9.19922-6.5332 9.57031-6.17188 10.1172-6.17188L14.0625-6.17188L14.0625-2.2168C14.0625-1.67969 14.4336-1.29883 14.9512-1.29883C15.4883-1.29883 15.8594-1.66992 15.8594-2.2168L15.8594-6.17188L19.8145-6.17188C20.3516-6.17188 20.7324-6.5332 20.7324-7.05078C20.7324-7.59766 20.3613-7.96875 19.8145-7.96875L15.8594-7.96875L15.8594-11.9141C15.8594-12.4609 15.4883-12.8418 14.9512-12.8418C14.4336-12.8418 14.0625-12.4609 14.0625-11.9141L14.0625-7.96875L10.1172-7.96875C9.57031-7.96875 9.19922-7.59766 9.19922-7.05078Z"/>
  </g>
  <text style="stroke:none;fill:black;font-family:sans-serif;font-size:13;font-weight:bold;" transform="matrix(1 0 0 1 263 1953)">Design Variations</text>
  <text style="stroke:none;fill:black;font-family:sans-serif;font-size:13;" transform="matrix(1 0 0 1 263 1971)">Symbols are supported in up to nine weights and three scales.</text>
  <text style="stroke:none;fill:black;font-family:sans-serif;font-size:13;" transform="matrix(1 0 0 1 263 1989)">For optimal layout with text and other symbols, vertically align</text>
  <text style="stroke:none;fill:black;font-family:sans-serif;font-size:13;" transform="matrix(1 0 0 1 263 2007)">symbols with the adjacent text.</text>
  <line style="fill:none;stroke:#00AEEF;stroke-width:0.5;opacity:1.0;" x1="776" x2="776" y1="1919" y2="1933"/>
  <g transform="matrix(1 0 0 1 776 1933)">
   <path d="M3.31055 0.15625C3.82812 0.15625 4.08203-0.0390625 4.26758-0.585938L5.52734-4.0332L11.2891-4.0332L12.5488-0.585938C12.7344-0.0390625 12.9883 0.15625 13.4961 0.15625C14.0137 0.15625 14.3457-0.15625 14.3457-0.644531C14.3457-0.810547 14.3164-0.966797 14.2383-1.17188L9.6582-13.3691C9.43359-13.9648 9.0332-14.2676 8.4082-14.2676C7.80273-14.2676 7.39258-13.9746 7.17773-13.3789L2.59766-1.16211C2.51953-0.957031 2.49023-0.800781 2.49023-0.634766C2.49023-0.146484 2.80273 0.15625 3.31055 0.15625ZM6.00586-5.51758L8.37891-12.0898L8.42773-12.0898L10.8008-5.51758Z"/>
  </g>
  <line style="fill:none;stroke:#00AEEF;stroke-width:0.5;opacity:1.0;" x1="793.197" x2="793.197" y1="1919" y2="1933"/>
  <text style="stroke:none;fill:black;font-family:sans-serif;font-size:13;font-weight:bold;" transform="matrix(1 0 0 1 776 1953)">Margins</text>
  <text style="stroke:none;fill:black;font-family:sans-serif;font-size:13;" transform="matrix(1 0 0 1 776 1971)">Leading and trailing margins on the left and right side of each symbol</text>
  <text style="stroke:none;fill:black;font-family:sans-serif;font-size:13;" transform="matrix(1 0 0 1 776 1989)">can be adjusted by modifying the x-location of the margin guidelines.</text>
  <text style="stroke:none;fill:black;font-family:sans-serif;font-size:13;" transform="matrix(1 0 0 1 776 2007)">Modifications are automatically applied proportionally to all</text>
  <text style="stroke:none;fill:black;font-family:sans-serif;font-size:13;" transform="matrix(1 0 0 1 776 2025)">scales and weights.</text>
  <g transform="matrix(1 0 0 1 1289 1933)">
   <path d="M2.8418 1.86523L4.54102 3.57422C5.40039 4.44336 6.38672 4.38477 7.31445 3.35938L18.0078-8.42773L17.041-9.4043L6.42578 2.27539C6.07422 2.67578 5.74219 2.77344 5.27344 2.30469L4.10156 1.14258C3.63281 0.683594 3.74023 0.341797 4.14062-0.0195312L15.6152-10.8203L14.6387-11.7871L3.04688-0.898438C2.06055 0.0195312 1.98242 0.996094 2.8418 1.86523ZM9.25781-16.3281C8.83789-15.918 8.80859-15.3418 9.04297-14.9512C9.27734-14.5898 9.73633-14.3555 10.3809-14.5215C11.8457-14.8633 13.3691-14.9219 14.7949-13.9844L14.209-12.5293C13.8672-11.6992 14.043-11.1133 14.5801-10.5664L16.875-8.25195C17.3633-7.76367 17.7734-7.74414 18.3398-7.8418L19.4043-8.03711L20.0684-7.36328L20.0293-6.80664C19.9902-6.30859 20.1172-5.92773 20.6055-5.44922L21.3672-4.70703C21.8457-4.22852 22.4609-4.19922 22.9297-4.66797L25.8398-7.58789C26.3086-8.05664 26.2891-8.65234 25.8105-9.13086L25.0391-9.89258C24.5605-10.3711 24.1895-10.5273 23.7109-10.4883L23.1348-10.4395L22.4902-11.0742L22.7344-12.1973C22.8613-12.7637 22.7051-13.2031 22.1191-13.7891L19.9219-15.9766C16.582-19.2969 12.1484-19.2188 9.25781-16.3281ZM10.752-15.957C13.1836-17.7344 16.4746-17.4316 18.7012-15.2051L21.1328-12.793C21.3672-12.5586 21.4062-12.373 21.3379-12.0312L21.0156-10.5469L22.5195-9.0625L23.5059-9.12109C23.7598-9.13086 23.8379-9.11133 24.0332-8.91602L24.6094-8.33984L22.168-5.89844L21.5918-6.47461C21.3965-6.66992 21.3672-6.74805 21.377-7.01172L21.4453-7.98828L19.9512-9.47266L18.4277-9.21875C18.1055-9.15039 17.959-9.17969 17.7148-9.41406L15.7129-11.416C15.459-11.6504 15.4297-11.8164 15.5859-12.1875L16.4648-14.2773C14.9023-15.7324 12.8711-16.3574 10.8398-15.7617C10.6836-15.7227 10.625-15.8496 10.752-15.957Z"/>
  </g>
  <text style="stroke:none;fill:black;font-family:sans-serif;font-size:13;font-weight:bold;" transform="matrix(1 0 0 1 1289 1953)">Exporting</text>
  <text style="stroke:none;fill:black;font-family:sans-serif;font-size:13;" transform="matrix(1 0 0 1 1289 1971)">Symbols should be outlined when exporting to ensure the</text>
  <text style="stroke:none;fill:black;font-family:sans-serif;font-size:13;" transform="matrix(1 0 0 1 1289 1989)">design is preserved when submitting to Xcode.</text>
  <text id="template-version" style="stroke:none;fill:black;font-family:sans-serif;font-size:13;text-anchor:end;" transform="matrix(1 0 0 1 3036 1933)">Template v.4.0</text>
  <text style="stroke:none;fill:black;font-family:sans-serif;font-size:13;text-anchor:end;" transform="matrix(1 0 0 1 3036 1951)">Requires Xcode 14 or greater</text>
  <text id="descriptive-name" style="stroke:none;fill:black;font-family:sans-serif;font-size:13;text-anchor:end;" transform="matrix(1 0 0 1 3036 1969)">Generated from racket.ball</text>
  <text style="stroke:none;fill:black;font-family:sans-serif;font-size:13;text-anchor:end;" transform="matrix(1 0 0 1 3036 1987)">Typeset at 100 points</text>
  <text style="stroke:none;fill:black;font-family:sans-serif;font-size:13;" transform="matrix(1 0 0 1 263 726)">Small</text>
  <text style="stroke:none;fill:black;font-family:sans-serif;font-size:13;" transform="matrix(1 0 0 1 263 1156)">Medium</text>
  <text style="stroke:none;fill:black;font-family:sans-serif;font-size:13;" transform="matrix(1 0 0 1 263 1586)">Large</text>
 </g>
 <g id="Guides">
  <g id="H-reference" style="fill:#27AAE1;stroke:none;" transform="matrix(1 0 0 1 339 696)">
   <path d="M0.993654 0L3.63775 0L29.3281-67.1323L30.0303-67.1323L30.0303-70.459L28.1226-70.459ZM11.6885-24.4799L46.9815-24.4799L46.2315-26.7285L12.4385-26.7285ZM55.1196 0L57.7637 0L30.6382-70.459L29.4326-70.459L29.4326-67.1323Z"/>
  </g>
  <line id="Baseline-S" style="fill:none;stroke:#27AAE1;opacity:1;stroke-width:0.5;" x1="263" x2="3036" y1="696" y2="696"/>
  <line id="Capline-S" style="fill:none;stroke:#27AAE1;opacity:1;stroke-width:0.5;" x1="263" x2="3036" y1="625.541" y2="625.541"/>
  <g id="H-reference" style="fill:#27AAE1;stroke:none;" transform="matrix(1 0 0 1 339 1126)">
   <path d="M0.993654 0L3.63775 0L29.3281-67.1323L30.0303-67.1323L30.0303-70.459L28.1226-70.459ZM11.6885-24.4799L46.9815-24.4799L46.2315-26.7285L12.4385-26.7285ZM55.1196 0L57.7637 0L30.6382-70.459L29.4326-70.459L29.4326-67.1323Z"/>
  </g>
  <line id="Baseline-M" style="fill:none;stroke:#27AAE1;opacity:1;stroke-width:0.5;" x1="263" x2="3036" y1="1126" y2="1126"/>
  <line id="Capline-M" style="fill:none;stroke:#27AAE1;opacity:1;stroke-width:0.5;" x1="263" x2="3036" y1="1055.54" y2="1055.54"/>
  <g id="H-reference" style="fill:#27AAE1;stroke:none;" transform="matrix(1 0 0 1 339 1556)">
   <path d="M0.993654 0L3.63775 0L29.3281-67.1323L30.0303-67.1323L30.0303-70.459L28.1226-70.459ZM11.6885-24.4799L46.9815-24.4799L46.2315-26.7285L12.4385-26.7285ZM55.1196 0L57.7637 0L30.6382-70.459L29.4326-70.459L29.4326-67.1323Z"/>
  </g>
  <line id="Baseline-L" style="fill:none;stroke:#27AAE1;opacity:1;stroke-width:0.5;" x1="263" x2="3036" y1="1556" y2="1556"/>
  <line id="Capline-L" style="fill:none;stroke:#27AAE1;opacity:1;stroke-width:0.5;" x1="263" x2="3036" y1="1485.54" y2="1485.54"/>
  <line id="left-margin-Ultralight-S" style="fill:none;stroke:#00AEEF;stroke-width:0.5;opacity:1.0;" x1="532.499" x2="532.499" y1="600.785" y2="720.121"/>
  <line id="right-margin-Ultralight-S" style="fill:none;stroke:#00AEEF;stroke-width:0.5;opacity:1.0;" x1="586.924" x2="586.924" y1="600.785" y2="720.121"/>
  <line id="left-margin-Regular-S" style="fill:none;stroke:#00AEEF;stroke-width:0.5;opacity:1.0;" x1="1422.04" x2="1422.04" y1="600.785" y2="720.121"/>
  <line id="right-margin-Regular-S" style="fill:none;stroke:#00AEEF;stroke-width:0.5;opacity:1.0;" x1="1477.65" x2="1477.65" y1="600.785" y2="720.121"/>
  <line id="left-margin-Black-S" style="fill:none;stroke:#00AEEF;stroke-width:0.5;opacity:1.0;" x1="2904.17" x2="2904.17" y1="600.785" y2="720.121"/>
  <line id="right-margin-Black-S" style="fill:none;stroke:#00AEEF;stroke-width:0.5;opacity:1.0;" x1="2962.63" x2="2962.63" y1="600.785" y2="720.121"/>
  <line id="left-margin-Regular-M" style="fill:none;stroke:#00AEEF;stroke-width:0.5;opacity:1.0;" x1="1414.61" x2="1414.61" y1="1030.79" y2="1150.12"/>
  <line id="right-margin-Regular-M" style="fill:none;stroke:#00AEEF;stroke-width:0.5;opacity:1.0;" x1="1485.07" x2="1485.07" y1="1030.79" y2="1150.12"/>
 </g>
 <g id="Symbols">
  <g id="Black-L" transform="matrix(1 0 0 1 2885.89 1556)">
   <path d="M60.1682-71.1387C67.6532-74.4447 75.4592-73.5807 80.4322-68.9307C87.7252-62.1047 87.0002-48.9767 78.2742-39.6477C69.5472-30.3187 56.4972-28.7227 49.2032-35.5487C45.3942-39.1127 43.6612-44.4867 44.3822-50.3807C44.6712-52.7407 42.9922-54.8877 40.6332-55.1767C38.2732-55.4647 36.1262-53.7867 35.8372-51.4267C34.7942-42.9097 37.4142-34.7897 43.3212-29.2627C54.3582-18.9327 72.7942-21.1887 84.5612-33.7667C96.3262-46.3437 97.3502-64.8867 86.3142-75.2177C78.6642-82.3697 67.1692-83.6417 56.6902-79.0137C54.5152-78.0537 53.5312-75.5127 54.4912-73.3377C55.4522-71.1627 57.9932-70.1787 60.1682-71.1387ZM35.6722-46.1747C35.7142-42.4177 34.9902-38.6917 33.5432-35.2237C32.0962-31.7557 29.9582-28.6187 27.2592-26.0057C25.5512-24.3517 25.5072-21.6267 27.1602-19.9187C28.8142-18.2107 31.5392-18.1667 33.2472-19.8207C36.7872-23.2477 39.5912-27.3617 41.4882-31.9087C43.3852-36.4577 44.3352-41.3447 44.2802-46.2717C44.2532-48.6487 42.3052-50.5537 39.9282-50.5277C37.5512-50.5007 35.6452-48.5517 35.6722-46.1747ZM58.9002-31.3787C53.9732-31.5157 49.0712-30.6477 44.4922-28.8277C39.9132-27.0067 35.7532-24.2717 32.2662-20.7897C30.5842-19.1097 30.5832-16.3837 32.2632-14.7017C33.9432-13.0197 36.6682-13.0187 38.3502-14.6977C41.0092-17.3537 44.1812-19.4397 47.6732-20.8277C51.1642-22.2157 54.9032-22.8777 58.6602-22.7727C61.0362-22.7067 63.0162-24.5797 63.0822-26.9557C63.1492-29.3327 61.2762-31.3127 58.9002-31.3787ZM2.26725 4.73634L7.64225 10.1113C9.32325 11.7923 12.0492 11.7923 13.7302 10.1113L33.1202-9.27866C34.8012-10.9597 34.8012-13.6857 33.1202-15.3667L27.7452-20.7417C26.0642-22.4227 23.3382-22.4227 21.6572-20.7417L2.26725-1.35166C0.58625 0.329345 0.58625 3.05534 2.26725 4.73634ZM8.35525-1.35166L8.35525 4.73634L27.7452-14.6537L21.6572-14.6537L27.0322-9.27866L27.0322-15.3667L7.64225 4.02334L13.7302 4.02334L8.35525-1.35166ZM44.8182-56.2737C50.3212-56.2737 54.7822-60.7347 54.7822-66.2377C54.7822-71.7417 50.3212-76.2027 44.8182-76.2027C39.3152-76.2027 34.8532-71.7417 34.8532-66.2377C34.8532-60.7347 39.3152-56.2737 44.8182-56.2737Z"/>
  </g>
  <g id="Heavy-L" transform="matrix(1 0 0 1 2589.65 1556)">
   <path d="M59.5052-71.5697C67.1542-74.9477 75.1632-74.0617 80.2822-69.2747C87.7802-62.2567 87.0392-48.8317 78.1462-39.3257C69.2532-29.8187 55.9082-28.1867 48.4092-35.2047C44.4852-38.8757 42.7032-44.3997 43.4422-50.4377C43.7002-52.5397 42.2052-54.4517 40.1033-54.7087C38.0022-54.9657 36.0902-53.4707 35.8332-51.3697C34.8082-42.9957 37.3792-35.0257 43.1712-29.6067C54.0032-19.4687 72.1442-21.6877 83.7442-34.0887C95.3432-46.4877 96.3512-64.7347 85.5192-74.8737C78.0172-81.8887 66.7232-83.1377 56.4082-78.5827C54.4722-77.7277 53.5952-75.4647 54.4512-73.5277C55.3062-71.5917 57.5692-70.7147 59.5052-71.5697ZM35.6712-46.1807C35.7142-42.3597 34.9772-38.5697 33.5062-35.0417C32.0352-31.5147 29.8602-28.3247 27.1152-25.6667C25.5942-24.1947 25.5542-21.7677 27.0272-20.2467C28.4992-18.7257 30.9262-18.6867 32.4472-20.1587C35.9412-23.5417 38.7092-27.6017 40.5812-32.0907C42.4542-36.5797 43.3912-41.4027 43.3372-46.2667C43.3132-48.3827 41.5782-50.0797 39.4612-50.0557C37.3442-50.0327 35.6472-48.2967 35.6712-46.1807ZM58.4142-30.9077C53.5522-31.0427 48.7142-30.1867 44.1942-28.3897C39.6752-26.5927 35.5692-23.8927 32.1282-20.4557C30.6302-18.9597 30.6282-16.5327 32.1242-15.0347C33.6202-13.5377 36.0472-13.5357 37.5453-15.0317C40.2492-17.7327 43.4752-19.8537 47.0272-21.2657C50.5782-22.6777 54.3802-23.3507 58.2012-23.2447C60.3172-23.1857 62.0802-24.8527 62.1392-26.9687C62.1982-29.0847 60.5312-30.8487 58.4142-30.9077ZM2.12925 4.40234L7.50425 9.77734C9.00125 11.2743 11.4282 11.2743 12.9252 9.77734L32.3142-9.61266C33.8112-11.1087 33.8112-13.5357 32.3142-15.0327L26.9392-20.4077C25.4422-21.9047 23.0152-21.9047 21.5192-20.4077L2.12925-1.01866C0.63225 0.478345 0.63225 2.90534 2.12925 4.40234ZM7.55025-1.01866L7.55025 4.40234L26.9392-14.9877L21.5192-14.9877L26.8942-9.61266L26.8942-15.0327L7.50425 4.35634L12.9252 4.35634L7.55025-1.01866ZM44.3462-56.2737C49.8492-56.2737 54.3102-60.7347 54.3102-66.2377C54.3102-71.7417 49.8492-76.2027 44.3462-76.2027C38.8432-76.2027 34.3812-71.7417 34.3812-66.2377C34.3812-60.7347 38.8432-56.2737 44.3462-56.2737Z"/>
  </g>
  <g id="Bold-L" transform="matrix(1 0 0 1 2293.41 1556)">
   <path d="M58.8443-72.0007C66.6572-75.4517 74.8672-74.5427 80.1332-69.6197C87.8362-62.4087 87.0783-48.6877 78.0192-39.0037C68.9603-29.3197 55.3202-27.6507 47.6163-34.8607C43.5772-38.6387 41.7472-44.3137 42.5042-50.4957C42.7292-52.3377 41.4182-54.0147 39.5752-54.2407C37.7323-54.4667 36.0552-53.1547 35.8302-51.3127C34.8222-43.0817 37.3452-35.2627 43.0222-29.9517C53.6492-20.0047 71.4952-22.1877 82.9292-34.4107C94.3622-46.6317 95.3532-64.5827 84.7262-74.5297C77.3702-81.4077 66.2793-82.6347 56.1282-78.1517C54.4292-77.4017 53.6613-75.4167 54.4113-73.7187C55.1613-72.0197 57.1462-71.2507 58.8443-72.0007ZM35.6712-46.1857C35.7152-42.3007 34.9662-38.4467 33.4702-34.8607C31.9742-31.2747 29.7632-28.0307 26.9713-25.3287C25.6382-24.0367 25.6033-21.9087 26.8953-20.5747C28.1862-19.2407 30.3142-19.2067 31.6482-20.4977C35.0963-23.8357 37.8283-27.8427 39.6752-32.2717C41.5232-36.7017 42.4482-41.4617 42.3953-46.2607C42.3742-48.1177 40.8522-49.6057 38.9952-49.5847C37.1392-49.5637 35.6512-48.0417 35.6712-46.1857ZM57.9302-30.4367C53.1323-30.5707 48.3573-29.7247 43.8982-27.9517C39.4372-26.1777 35.3863-23.5147 31.9902-20.1227C30.6762-18.8107 30.6752-16.6817 31.9872-15.3677C33.2993-14.0547 35.4272-14.0527 36.7413-15.3647C39.4913-18.1117 42.7712-20.2677 46.3823-21.7037C49.9922-23.1397 53.8582-23.8237 57.7432-23.7157C59.5992-23.6637 61.1453-25.1267 61.1972-26.9817C61.2492-28.8377 59.7863-30.3847 57.9302-30.4367ZM1.99125 4.06934L7.36625 9.44434C8.67925 10.7573 10.8072 10.7573 12.1202 9.44434L31.5102-9.94566C32.8232-11.2587 32.8232-13.3867 31.5102-14.6997L26.1352-20.0747C24.8222-21.3877 22.6943-21.3877 21.3812-20.0747L1.99125-0.684655C0.67825 0.628345 0.67825 2.75634 1.99125 4.06934ZM6.74525-0.684655L6.74525 4.06934L26.1352-15.3207L21.3812-15.3207L26.7562-9.94566L26.7562-14.6997L7.36625 4.69034L12.1202 4.69034L6.74525-0.684655ZM43.8753-56.2737C49.3782-56.2737 53.8392-60.7347 53.8392-66.2377C53.8392-71.7417 49.3782-76.2027 43.8753-76.2027C38.3722-76.2027 33.9102-71.7417 33.9102-66.2377C33.9102-60.7347 38.3722-56.2737 43.8753-56.2737Z"/>
  </g>
  <g id="Semibold-L" transform="matrix(1 0 0 1 1997.17 1556)">
   <path d="M58.1825-72.4327C66.1585-75.9547 74.5715-75.0247 79.9835-69.9637C87.8915-62.5617 87.1175-48.5437 77.8915-38.6817C68.6655-28.8197 54.7305-27.1147 46.8225-34.5167C42.6685-38.4027 40.7895-44.2277 41.5645-50.5527C41.7585-52.1367 40.6305-53.5787 39.0465-53.7727C37.4615-53.9667 36.0205-52.8397 35.8265-51.2547C34.8365-43.1687 37.3105-35.4997 42.8725-30.2957C53.2945-20.5407 70.8465-22.6877 82.1135-34.7327C93.3795-46.7767 94.3545-64.4297 83.9325-74.1847C76.7235-80.9257 65.8335-82.1307 55.8465-77.7207C54.3865-77.0757 53.7255-75.3687 54.3705-73.9087C55.0155-72.4487 56.7215-71.7877 58.1825-72.4327ZM35.6715-46.1907C35.7155-42.2417 34.9545-38.3247 33.4335-34.6787C31.9125-31.0337 29.6655-27.7367 26.8275-24.9897C25.6805-23.8797 25.6515-22.0497 26.7615-20.9027C27.8725-19.7557 29.7015-19.7257 30.8485-20.8367C34.2505-24.1297 36.9455-28.0827 38.7685-32.4537C40.5915-36.8247 41.5045-41.5207 41.4515-46.2557C41.4335-47.8517 40.1255-49.1317 38.5295-49.1137C36.9325-49.0957 35.6535-47.7867 35.6715-46.1907ZM57.4455-29.9657C52.7115-30.0977 48.0005-29.2627 43.6005-27.5137C39.1995-25.7637 35.2025-23.1357 31.8515-19.7887C30.7215-18.6607 30.7205-16.8307 31.8485-15.7017C32.9765-14.5717 34.8065-14.5707 35.9365-15.6987C38.7315-18.4897 42.0655-20.6827 45.7365-22.1417C49.4065-23.6007 53.3355-24.2967 57.2845-24.1867C58.8805-24.1417 60.2095-25.3997 60.2545-26.9957C60.2985-28.5907 59.0415-29.9207 57.4455-29.9657ZM1.8525 3.73634L7.2275 9.11134C8.3565 10.2393 10.1865 10.2403 11.3155 9.11134L30.7055-10.2787C31.8345-11.4077 31.8345-13.2377 30.7055-14.3667L25.3305-19.7417C24.2015-20.8707 22.3715-20.8707 21.2425-19.7417L1.8525-0.351655C0.7245 0.777345 0.7245 2.60734 1.8525 3.73634ZM5.9405-0.351655L5.9405 3.73634L25.3305-15.6537L21.2425-15.6537L26.6175-10.2787L26.6175-14.3667L7.2275 5.02334L11.3155 5.02334L5.9405-0.351655ZM43.4035-56.2737C48.9065-56.2737 53.3675-60.7347 53.3675-66.2377C53.3675-71.7417 48.9065-76.2027 43.4035-76.2027C37.9005-76.2027 33.4385-71.7417 33.4385-66.2377C33.4385-60.7347 37.9005-56.2737 43.4035-56.2737Z"/>
  </g>
  <g id="Medium-L" transform="matrix(1 0 0 1 1700.93 1556)">
   <path d="M57.5202-72.8637C65.6612-76.4587 74.2753-75.5057 79.8342-70.3077C87.9473-62.7137 87.1563-48.3997 77.7653-38.3597C68.3723-28.3197 54.1422-26.5787 46.0292-34.1727C41.7602-38.1657 39.8333-44.1407 40.6252-50.6097C40.7872-51.9357 39.8442-53.1427 38.5182-53.3047C37.1922-53.4677 35.9853-52.5237 35.8233-51.1977C34.8503-43.2547 37.2753-35.7367 42.7233-30.6397C52.9412-21.0767 70.1973-23.1877 81.2982-35.0547C92.3983-46.9207 93.3562-64.2777 83.1393-73.8407C76.0762-80.4447 65.3893-81.6277 55.5662-77.2897C54.3442-76.7497 53.7903-75.3217 54.3303-74.0997C54.8703-72.8767 56.2982-72.3237 57.5202-72.8637ZM35.6712-46.1957C35.7163-42.1827 34.9422-38.2027 33.3973-34.4977C31.8523-30.7927 29.5682-27.4427 26.6843-24.6507C25.7243-23.7217 25.7002-22.1907 26.6293-21.2307C27.5582-20.2707 29.0903-20.2457 30.0492-21.1747C33.4052-24.4237 36.0643-28.3237 37.8623-32.6347C39.6612-36.9467 40.5613-41.5797 40.5092-46.2507C40.4943-47.5867 39.3993-48.6567 38.0633-48.6417C36.7273-48.6267 35.6563-47.5317 35.6712-46.1957ZM56.9612-29.4937C52.2913-29.6247 47.6432-28.8017 43.3033-27.0757C38.9622-25.3497 35.0182-22.7567 31.7133-19.4557C30.7682-18.5117 30.7672-16.9797 31.7112-16.0347C32.6552-15.0887 34.1863-15.0877 35.1322-16.0317C37.9722-18.8687 41.3603-21.0967 45.0903-22.5797C48.8203-24.0627 52.8133-24.7697 56.8262-24.6577C58.1622-24.6207 59.2743-25.6727 59.3123-27.0087C59.3493-28.3437 58.2962-29.4567 56.9612-29.4937ZM1.71525 3.40234L7.09025 8.77734C8.03425 9.72234 9.56625 9.72234 10.5113 8.77734L29.9003-10.6117C30.8452-11.5567 30.8452-13.0887 29.9003-14.0327L24.5253-19.4077C23.5813-20.3527 22.0492-20.3527 21.1042-19.4087L1.71525-0.0186553C0.77025 0.926345 0.77025 2.45834 1.71525 3.40234ZM5.13625-0.0186553L5.13625 3.40234L24.5253-15.9867L21.1042-15.9867L26.4792-10.6117L26.4792-14.0327L7.09025 5.35634L10.5113 5.35634L5.13625-0.0186553ZM42.9322-56.2737C48.4353-56.2737 52.8963-60.7347 52.8963-66.2377C52.8963-71.7417 48.4353-76.2027 42.9322-76.2027C37.4293-76.2027 32.9673-71.7417 32.9673-66.2377C32.9673-60.7347 37.4293-56.2737 42.9322-56.2737Z"/>
  </g>
  <g id="Regular-L" transform="matrix(1 0 0 1 1404.69 1556)">
   <path d="M56.8593-73.2947C65.1632-76.9617 73.9802-75.9867 79.6853-70.6527C88.0033-62.8657 87.1963-48.2557 77.6383-38.0377C68.0793-27.8197 53.5543-26.0427 45.2363-33.8277C40.8523-37.9287 38.8762-44.0547 39.6863-50.6667C39.8172-51.7347 39.0572-52.7067 37.9892-52.8367C36.9222-52.9677 35.9502-52.2077 35.8193-51.1407C34.8652-43.3407 37.2412-35.9727 42.5743-30.9837C52.5872-21.6127 69.5482-23.6877 80.4833-35.3767C91.4163-47.0647 92.3583-64.1247 82.3462-73.4967C75.4303-79.9637 64.9443-81.1237 55.2853-76.8577C54.3013-76.4237 53.8562-75.2737 54.2903-74.2897C54.7253-73.3057 55.8752-72.8597 56.8593-73.2947ZM35.6712-46.2017C35.7173-42.1237 34.9312-38.0797 33.3613-34.3157C31.7913-30.5527 29.4712-27.1487 26.5413-24.3127C25.7682-23.5637 25.7482-22.3307 26.4963-21.5587C27.2453-20.7857 28.4783-20.7657 29.2512-21.5137C32.5613-24.7187 35.1822-28.5647 36.9563-32.8167C38.7302-37.0687 39.6183-41.6387 39.5672-46.2447C39.5543-47.3207 38.6732-48.1827 37.5972-48.1707C36.5223-48.1587 35.6593-47.2767 35.6712-46.2017ZM56.4773-29.0227C51.8713-29.1517 47.2872-28.3397 43.0063-26.6377C38.7253-24.9347 34.8352-22.3777 31.5752-19.1217C30.8143-18.3617 30.8133-17.1287 31.5733-16.3677C32.3333-15.6067 33.5672-15.6057 34.3282-16.3657C37.2133-19.2477 40.6563-21.5107 44.4453-23.0177C48.2343-24.5247 52.2913-25.2427 56.3683-25.1287C57.4432-25.0987 58.3393-25.9467 58.3693-27.0217C58.3993-28.0967 57.5523-28.9927 56.4773-29.0227ZM1.57725 3.06934L6.95225 8.44434C7.71225 9.20534 8.94625 9.20534 9.70625 8.44434L29.0962-10.9457C29.8573-11.7057 29.8573-12.9397 29.0962-13.6997L23.7212-19.0747C22.9612-19.8357 21.7273-19.8357 20.9673-19.0747L1.57725 0.315345C0.81625 1.07534 0.81625 2.30834 1.57725 3.06934ZM4.33125 0.315345L4.33125 3.06934L23.7212-16.3207L20.9673-16.3207L26.3423-10.9457L26.3423-13.6997L6.95225 5.69034L9.70625 5.69034L4.33125 0.315345ZM42.4612-56.2737C47.9643-56.2737 52.4253-60.7347 52.4253-66.2377C52.4253-71.7417 47.9643-76.2027 42.4612-76.2027C36.9583-76.2027 32.4963-71.7417 32.4963-66.2377C32.4963-60.7347 36.9583-56.2737 42.4612-56.2737Z"/>
  </g>
  <g id="Light-L" transform="matrix(1 0 0 1 1108.3 1556)">
   <path d="M56.4033-73.5917C64.8202-77.3087 73.7763-76.3177 79.5813-70.8897C88.0412-62.9707 87.2232-48.1567 77.5502-37.8157C67.8762-27.4747 53.1493-25.6737 44.6893-33.5907C40.2263-37.7657 38.2173-43.9947 39.0392-50.7067C39.1483-51.5967 38.5153-52.4057 37.6252-52.5147C36.7353-52.6237 35.9262-51.9907 35.8173-51.1007C34.8743-43.4007 37.2173-36.1357 42.4712-31.2207C52.3423-21.9817 69.1013-24.0317 79.9203-35.5987C90.7393-47.1637 91.6703-64.0207 81.7992-73.2597C74.9843-79.6327 64.6383-80.7767 55.0913-76.5607C54.2712-76.1987 53.9003-75.2407 54.2622-74.4207C54.6243-73.6007 55.5833-73.2297 56.4033-73.5917ZM35.6713-46.2047C35.7173-42.0837 34.9232-37.9957 33.3363-34.1907C31.7493-30.3867 29.4033-26.9457 26.4423-24.0787C25.7982-23.4557 25.7812-22.4277 26.4052-21.7837C27.0283-21.1397 28.0563-21.1237 28.7003-21.7467C31.9783-24.9207 34.5753-28.7297 36.3323-32.9417C38.0882-37.1537 38.9683-41.6787 38.9173-46.2417C38.9072-47.1377 38.1723-47.8567 37.2763-47.8467C36.3793-47.8357 35.6613-47.1017 35.6713-46.2047ZM56.1433-28.6987C51.5813-28.8257 47.0412-28.0217 42.8012-26.3357C38.5602-24.6497 34.7083-22.1167 31.4793-18.8917C30.8453-18.2587 30.8443-17.2307 31.4783-16.5967C32.1113-15.9627 33.1393-15.9617 33.7733-16.5957C36.6903-19.5087 40.1703-21.7967 44.0002-23.3197C47.8303-24.8427 51.9313-25.5687 56.0523-25.4537C56.9483-25.4287 57.6952-26.1347 57.7203-27.0307C57.7453-27.9267 57.0392-28.6737 56.1433-28.6987ZM1.48125 2.84034L6.85625 8.21534C7.49025 8.84834 8.51825 8.84834 9.15225 8.21534L28.5423-11.1747C29.1752-11.8087 29.1752-12.8367 28.5423-13.4707L23.1673-18.8457C22.5333-19.4797 21.5053-19.4797 20.8713-18.8457L1.48125 0.544345C0.84825 1.17834 0.84825 2.20634 1.48125 2.84034ZM3.77725 0.544345L3.77725 2.84034L23.1673-16.5497L20.8713-16.5497L26.2463-11.1747L26.2463-13.4707L6.85625 5.91934L9.15225 5.91934L3.77725 0.544345ZM42.1362-56.2737C47.6393-56.2737 52.1003-60.7347 52.1003-66.2377C52.1003-71.7417 47.6393-76.2027 42.1362-76.2027C36.6333-76.2027 32.1713-71.7417 32.1713-66.2377C32.1713-60.7347 36.6333-56.2737 42.1362-56.2737Z"/>
  </g>
  <g id="Thin-L" transform="matrix(1 0 0 1 811.917 1556)">
   <path d="M55.9467-73.8887C64.4777-77.6557 73.5717-76.6497 79.4787-71.1267C88.0797-63.0757 87.2497-48.0567 77.4627-37.5947C67.6747-27.1307 52.7437-25.3037 44.1428-33.3537C39.6017-37.6027 37.5587-43.9357 38.3928-50.7457C38.4797-51.4577 37.9727-52.1057 37.2607-52.1927C36.5497-52.2797 35.9017-51.7737 35.8147-51.0617C34.8837-43.4597 37.1937-36.2987 42.3687-31.4577C52.0987-22.3507 68.6537-24.3767 79.3587-35.8207C90.0637-47.2627 90.9837-63.9157 81.2527-73.0227C74.5387-79.3007 64.3317-80.4297 54.8977-76.2647C54.2417-75.9747 53.9447-75.2077 54.2347-74.5517C54.5247-73.8957 55.2907-73.5987 55.9467-73.8887ZM35.6718-46.2087C35.7177-42.0427 34.9147-37.9117 33.3107-34.0667C31.7067-30.2207 29.3367-26.7437 26.3437-23.8457C25.8277-23.3467 25.8147-22.5247 26.3137-22.0097C26.8127-21.4947 27.6347-21.4817 28.1497-21.9797C31.3967-25.1237 33.9677-28.8957 35.7077-33.0667C37.4477-37.2377 38.3187-41.7197 38.2678-46.2377C38.2597-46.9547 37.6718-47.5297 36.9547-47.5217C36.2377-47.5137 35.6637-46.9257 35.6718-46.2087ZM55.8097-28.3737C51.2917-28.4997 46.7957-27.7037 42.5967-26.0337C38.3967-24.3647 34.5817-21.8567 31.3847-18.6627C30.8767-18.1557 30.8767-17.3337 31.3837-16.8257C31.8897-16.3187 32.7117-16.3187 33.2198-16.8247C36.1677-19.7697 39.6847-22.0817 43.5557-23.6207C47.4267-25.1607 51.5717-25.8937 55.7367-25.7777C56.4537-25.7577 57.0517-26.3227 57.0707-27.0397C57.0907-27.7567 56.5267-28.3537 55.8097-28.3737ZM1.38675 2.61034L6.76175 7.98534C7.26875 8.49234 8.09075 8.49234 8.59775 7.98534L27.9877-11.4047C28.4947-11.9117 28.4947-12.7337 27.9877-13.2407L22.6127-18.6157C22.1057-19.1227 21.2837-19.1227 20.7767-18.6157L1.38675 0.774345C0.87975 1.28134 0.87975 2.10334 1.38675 2.61034ZM3.22275 0.774345L3.22275 2.61034L22.6127-16.7797L20.7767-16.7797L26.1517-11.4047L26.1517-13.2407L6.76175 6.14934L8.59775 6.14934L3.22275 0.774345ZM41.8117-56.2737C47.3147-56.2737 51.7757-60.7347 51.7757-66.2377C51.7757-71.7417 47.3147-76.2027 41.8117-76.2027C36.3087-76.2027 31.8467-71.7417 31.8467-66.2377C31.8467-60.7347 36.3087-56.2737 41.8117-56.2737Z"/>
  </g>
  <g id="Ultralight-L" transform="matrix(1 0 0 1 515.53 1556)">
   <path d="M55.4915-74.1857C64.1355-78.0027 73.3685-76.9807 79.3765-71.3637C88.1185-63.1807 87.2775-47.9577 77.3755-37.3727C67.4725-26.7867 52.3385-24.9347 43.5965-33.1167C38.9765-37.4397 36.9005-43.8767 37.7455-50.7857C37.8115-51.3197 37.4315-51.8047 36.8975-51.8707C36.3635-51.9357 35.8775-51.5557 35.8125-51.0217C34.8945-43.5197 37.1705-36.4617 42.2665-31.6947C51.8555-22.7197 68.2075-24.7207 78.7975-36.0417C89.3875-47.3627 90.2965-63.8107 80.7075-72.7857C74.0935-78.9697 64.0255-80.0837 54.7055-75.9677C54.2135-75.7497 53.9905-75.1747 54.2075-74.6827C54.4245-74.1907 54.9995-73.9687 55.4915-74.1857ZM35.6715-46.2127C35.7185-42.0027 34.9075-37.8277 33.2865-33.9417C31.6655-30.0557 29.2695-26.5407 26.2445-23.6127C25.8585-23.2387 25.8485-22.6217 26.2225-22.2357C26.5965-21.8487 27.2135-21.8397 27.5995-22.2137C30.8145-25.3257 33.3615-29.0617 35.0835-33.1917C36.8065-37.3217 37.6695-41.7597 37.6195-46.2337C37.6135-46.7717 37.1725-47.2027 36.6345-47.1967C36.0965-47.1907 35.6655-46.7497 35.6715-46.2127ZM55.4765-28.0497C51.0025-28.1737 46.5505-27.3857 42.3925-25.7327C38.2335-24.0787 34.4565-21.5957 31.2895-18.4327C30.9095-18.0527 30.9085-17.4357 31.2885-17.0557C31.6685-16.6747 32.2855-16.6747 32.6655-17.0547C35.6455-20.0307 39.1995-22.3667 43.1125-23.9227C47.0235-25.4777 51.2125-26.2197 55.4215-26.1027C55.9595-26.0877 56.4075-26.5107 56.4225-27.0487C56.4375-27.5867 56.0135-28.0347 55.4765-28.0497ZM1.2915 2.38034L6.6665 7.75634C7.0475 8.13634 7.6635 8.13634 8.0445 7.75634L27.4345-11.6337C27.8145-12.0147 27.8145-12.6307 27.4345-13.0117L22.0595-18.3867C21.6785-18.7667 21.0625-18.7667 20.6815-18.3867L1.2915 1.00334C0.9115 1.38434 0.9115 2.00034 1.2915 2.38034ZM2.6695 1.00334L2.6695 2.38034L22.0595-17.0087L20.6815-17.0087L26.0565-11.6337L26.0565-13.0117L6.6665 6.37834L8.0445 6.37834L2.6695 1.00334ZM41.4875-56.2737C46.9905-56.2737 51.4515-60.7347 51.4515-66.2377C51.4515-71.7417 46.9905-76.2027 41.4875-76.2027C35.9845-76.2027 31.5225-71.7417 31.5225-66.2377C31.5225-60.7347 35.9845-56.2737 41.4875-56.2737Z"/>
  </g>
  <g id="Black-M" transform="matrix(1 0 0 1 2896.34 1126)">
   <path d="M46.8678-63.066C52.6697-65.629 58.7218-64.959 62.5768-61.355C68.2297-56.063 67.6677-45.886 60.9037-38.655C54.1387-31.423 44.0218-30.185 38.3678-35.477C35.4148-38.24 34.0717-42.405 34.6308-46.975C34.8547-48.804 33.5537-50.468 31.7237-50.692C29.8948-50.916 28.2308-49.615 28.0067-47.786C27.1987-41.183 29.2288-34.888 33.8088-30.604C42.3637-22.596 56.6558-24.345 65.7767-34.096C74.8968-43.845 75.6917-58.22 67.1358-66.228C61.2057-71.772 52.2947-72.758 44.1717-69.171C42.4858-68.427 41.7228-66.457 42.4678-64.771C43.2118-63.085 45.1818-62.322 46.8678-63.066ZM27.8788-43.714C27.9107-40.802 27.3498-37.913 26.2288-35.225C25.1068-32.537 23.4498-30.105 21.3568-28.079C20.0328-26.797 19.9988-24.685 21.2808-23.361C22.5627-22.037 24.6748-22.003 25.9988-23.285C28.7428-25.942 30.9168-29.13 32.3878-32.656C33.8578-36.181 34.5948-39.97 34.5517-43.789C34.5308-45.632 33.0208-47.109 31.1778-47.088C29.3347-47.068 27.8578-45.557 27.8788-43.714ZM45.8848-32.244C42.0658-32.351 38.2657-31.678 34.7158-30.267C31.1668-28.855 27.9417-26.735 25.2387-24.036C23.9348-22.733 23.9338-20.621 25.2358-19.317C26.5377-18.013 28.6508-18.012 29.9548-19.314C32.0157-21.372 34.4748-22.989 37.1818-24.065C39.8887-25.142 42.7857-25.655 45.6987-25.574C47.5408-25.522 49.0757-26.974 49.1268-28.816C49.1787-30.658 47.7268-32.193 45.8848-32.244ZM1.98375-4.24896L6.15075-0.0819609C7.45375 1.22104 9.56575 1.22104 10.8687-0.0819609L25.8997-15.113C27.2028-16.416 27.2028-18.529 25.8997-19.832L21.7338-23.998C20.4307-25.302 18.3178-25.302 17.0148-23.999L1.98375-8.96796C0.68075-7.66496 0.68075-5.55196 1.98375-4.24896ZM6.70275-8.96796L6.70275-4.24896L21.7338-19.28L17.0148-19.28L21.1807-15.113L21.1807-19.832L6.15075-4.80096L10.8687-4.80096L6.70275-8.96796ZM34.9687-51.543C39.2347-51.543 42.6928-55.001 42.6928-59.267C42.6928-63.533 39.2347-66.992 34.9687-66.992C30.7028-66.992 27.2437-63.533 27.2437-59.267C27.2437-55.001 30.7028-51.543 34.9687-51.543Z"/>
  </g>
  <g id="Heavy-M" transform="matrix(1 0 0 1 2600 1126)">
   <path d="M46.3545-63.401C52.2845-66.019 58.4925-65.332 62.4605-61.622C68.2735-56.181 67.6985-45.774 60.8045-38.405C53.9105-31.036 43.5655-29.77 37.7535-35.21C34.7115-38.056 33.3295-42.338 33.9025-47.019C34.1025-48.648 32.9435-50.13 31.3145-50.33C29.6855-50.529 28.2035-49.37 28.0045-47.741C27.2095-41.25 29.2025-35.072 33.6925-30.871C42.0895-23.012 56.1525-24.732 65.1445-34.345C74.1365-43.957 74.9175-58.102 66.5205-65.961C60.7045-71.399 51.9505-72.368 43.9545-68.837C42.4525-68.174 41.7735-66.42 42.4365-64.918C43.0995-63.417 44.8535-62.738 46.3545-63.401ZM27.8785-43.719C27.9115-40.757 27.3405-37.819 26.2005-35.084C25.0595-32.35 23.3735-29.877 21.2455-27.817C20.0665-26.675 20.0365-24.794 21.1775-23.615C22.3195-22.436 24.2005-22.406 25.3795-23.547C28.0875-26.17 30.2335-29.317 31.6855-32.796C33.1365-36.276 33.8635-40.015 33.8215-43.785C33.8025-45.426 32.4575-46.742 30.8165-46.723C29.1755-46.705 27.8605-45.36 27.8785-43.719ZM45.5095-31.879C41.7395-31.984 37.9895-31.32 34.4855-29.927C30.9825-28.534 27.7995-26.442 25.1315-23.777C23.9705-22.618 23.9695-20.736 25.1295-19.575C26.2885-18.414 28.1705-18.413 29.3315-19.572C31.4275-21.666 33.9285-23.31 36.6815-24.405C39.4345-25.5 42.3815-26.021 45.3435-25.939C46.9835-25.893 48.3505-27.186 48.3965-28.826C48.4425-30.467 47.1495-31.833 45.5095-31.879ZM1.8765-4.50696L6.0435-0.339961C7.2035 0.820039 9.0855 0.820039 10.2455-0.339961L25.2765-15.371C26.4365-16.532 26.4365-18.413 25.2765-19.573L21.1095-23.74C19.9495-24.901 18.0685-24.901 16.9075-23.74L1.8765-8.70896C0.7165-7.54896 0.7165-5.66696 1.8765-4.50696ZM6.0785-8.70896L6.0785-4.50696L21.1095-19.538L16.9075-19.538L21.0745-15.371L21.0745-19.573L6.0435-4.54296L10.2455-4.54296L6.0785-8.70896ZM34.6035-51.543C38.8695-51.543 42.3275-55.001 42.3275-59.267C42.3275-63.533 38.8695-66.992 34.6035-66.992C30.3375-66.992 26.8785-63.533 26.8785-59.267C26.8785-55.001 30.3375-51.543 34.6035-51.543Z"/>
  </g>
  <g id="Bold-M" transform="matrix(1 0 0 1 2303.65 1126)">
   <path d="M45.842-63.735C51.898-66.409 58.263-65.705 62.345-61.888C68.316-56.299 67.729-45.663 60.706-38.156C53.683-30.648 43.11-29.354 37.138-34.944C34.007-37.873 32.588-42.272 33.175-47.064C33.35-48.492 32.333-49.792 30.905-49.967C29.476-50.142 28.176-49.125 28.001-47.697C27.22-41.317 29.176-35.255 33.577-31.138C41.815-23.427 55.649-25.12 64.512-34.595C73.375-44.069 74.144-57.984 65.906-65.695C60.203-71.026 51.605-71.978 43.736-68.503C42.42-67.921 41.824-66.383 42.405-65.066C42.986-63.749 44.525-63.153 45.842-63.735ZM27.878-43.723C27.912-40.711 27.332-37.724 26.172-34.944C25.012-32.164 23.298-29.649 21.134-27.554C20.1-26.553 20.074-24.903 21.075-23.869C22.076-22.835 23.726-22.809 24.76-23.81C27.433-26.397 29.55-29.503 30.982-32.937C32.415-36.371 33.132-40.061 33.09-43.781C33.074-45.22 31.894-46.374 30.455-46.358C29.016-46.342 27.862-45.162 27.878-43.723ZM45.133-31.514C41.414-31.618 37.712-30.962 34.255-29.588C30.798-28.213 27.657-26.148 25.024-23.519C24.006-22.502 24.005-20.852 25.022-19.833C26.039-18.815 27.689-18.814 28.708-19.831C30.839-21.96 33.382-23.632 36.181-24.745C38.98-25.857 41.977-26.388 44.988-26.304C46.427-26.264 47.626-27.398 47.666-28.836C47.706-30.275 46.572-31.474 45.133-31.514ZM1.77-4.76496L5.936-0.598961C6.954 0.419039 8.604 0.419039 9.622-0.598961L24.653-15.63C25.67-16.647 25.67-18.297 24.653-19.315L20.486-23.482C19.468-24.499 17.818-24.499 16.801-23.482L1.77-8.45096C0.752-7.43296 0.752-5.78296 1.77-4.76496ZM5.455-8.45096L5.455-4.76496L20.486-19.796L16.801-19.796L20.967-15.63L20.967-19.315L5.936-4.28396L9.622-4.28396L5.455-8.45096ZM34.238-51.543C38.504-51.543 41.962-55.001 41.962-59.267C41.962-63.533 38.504-66.992 34.238-66.992C29.972-66.992 26.513-63.533 26.513-59.267C26.513-55.001 29.972-51.543 34.238-51.543Z"/>
  </g>
  <g id="Semibold-M" transform="matrix(1 0 0 1 2007.31 1126)">
   <path d="M45.3288-64.069C51.5127-66.8 58.0338-66.078 62.2287-62.155C68.3598-56.417 67.7587-45.551 60.6078-37.906C53.4558-30.261 42.6537-28.939 36.5227-34.677C33.3027-37.689 31.8467-42.205 32.4467-47.108C32.5967-48.336 31.7237-49.454 30.4947-49.604C29.2668-49.755 28.1487-48.881 27.9987-47.652C27.2317-41.384 29.1487-35.439 33.4607-31.405C41.5408-23.843 55.1458-25.508 63.8807-34.845C72.6137-44.181 73.3697-57.866 65.2908-65.428C59.7017-70.653 51.2607-71.587 43.5187-68.168C42.3868-67.668 41.8737-66.346 42.3737-65.214C42.8737-64.082 44.1968-63.569 45.3288-64.069ZM27.8787-43.727C27.9127-40.665 27.3228-37.629 26.1437-34.803C24.9647-31.977 23.2227-29.421 21.0227-27.292C20.1337-26.431 20.1108-25.012 20.9717-24.123C21.8328-23.234 23.2517-23.211 24.1408-24.072C26.7777-26.625 28.8667-29.69 30.2797-33.078C31.6927-36.466 32.4008-40.107 32.3597-43.777C32.3457-45.014 31.3317-46.006 30.0938-45.992C28.8567-45.979 27.8647-44.964 27.8787-43.727ZM44.7577-31.149C41.0878-31.251 37.4357-30.604 34.0248-29.248C30.6137-27.892 27.5148-25.854 24.9177-23.26C24.0417-22.386 24.0407-20.967 24.9157-20.091C25.7897-19.216 27.2088-19.215 28.0838-20.089C30.2507-22.253 32.8357-23.953 35.6807-25.084C38.5258-26.215 41.5718-26.755 44.6327-26.669C45.8697-26.635 46.9007-27.61 46.9358-28.847C46.9697-30.084 45.9947-31.114 44.7577-31.149ZM1.66275-5.02396L5.82975-0.856961C6.70475 0.0180391 8.12275 0.0180391 8.99775-0.856961L24.0287-15.888C24.9037-16.763 24.9037-18.182 24.0287-19.057L19.8628-23.223C18.9878-24.098 17.5687-24.098 16.6937-23.223L1.66275-8.19296C0.78775-7.31796 0.78775-5.89896 1.66275-5.02396ZM4.83175-8.19296L4.83175-5.02396L19.8628-20.055L16.6937-20.055L20.8608-15.888L20.8608-19.057L5.82975-4.02596L8.99775-4.02596L4.83175-8.19296ZM33.8727-51.543C38.1387-51.543 41.5968-55.001 41.5968-59.267C41.5968-63.533 38.1387-66.992 33.8727-66.992C29.6067-66.992 26.1477-63.533 26.1477-59.267C26.1477-55.001 29.6067-51.543 33.8727-51.543Z"/>
  </g>
  <g id="Medium-M" transform="matrix(1 0 0 1 1710.96 1126)">
   <path d="M44.8165-64.403C51.1265-67.19 57.8045-66.451 62.1135-62.422C68.4025-56.535 67.7895-45.439 60.5095-37.656C53.2285-29.873 42.1975-28.523 35.9085-34.41C32.5995-37.506 31.1045-42.138 31.7185-47.152C31.8445-48.18 31.1135-49.116 30.0855-49.242C29.0575-49.367 28.1225-48.636 27.9965-47.608C27.2425-41.451 29.1225-35.622 33.3455-31.672C41.2655-24.258 54.6425-25.895 63.2485-35.094C71.8525-44.292 72.5965-57.747 64.6755-65.161C59.2005-70.28 50.9155-71.197 43.3005-67.834C42.3535-67.416 41.9245-66.309 42.3435-65.361C42.7615-64.414 43.8685-63.985 44.8165-64.403ZM27.8785-43.731C27.9135-40.62 27.3135-37.534 26.1155-34.662C24.9185-31.791 23.1475-29.193 20.9125-27.029C20.1685-26.309 20.1485-25.122 20.8695-24.378C21.5895-23.633 22.7765-23.614 23.5205-24.335C26.1225-26.853 28.1835-29.876 29.5775-33.218C30.9715-36.561 31.6695-40.152 31.6285-43.773C31.6175-44.809 30.7685-45.639 29.7325-45.627C28.6975-45.615 27.8675-44.766 27.8785-43.731ZM44.3825-30.784C40.7625-30.884 37.1595-30.247 33.7945-28.909C30.4295-27.571 27.3725-25.561 24.8105-23.002C24.0775-22.27 24.0765-21.082 24.8085-20.35C25.5405-19.617 26.7275-19.616 27.4605-20.348C29.6625-22.547 32.2895-24.274 35.1805-25.424C38.0715-26.573 41.1675-27.121 44.2775-27.034C45.3135-27.006 46.1755-27.821 46.2045-28.857C46.2335-29.892 45.4175-30.755 44.3825-30.784ZM1.5555-5.28196L5.7225-1.11496C6.4545-0.382961 7.6425-0.382961 8.3745-1.11496L23.4055-16.146C24.1375-16.879 24.1375-18.066 23.4055-18.798L19.2385-22.965C18.5065-23.697 17.3195-23.697 16.5865-22.965L1.5555-7.93396C0.8235-7.20196 0.8235-6.01496 1.5555-5.28196ZM4.2075-7.93396L4.2075-5.28196L19.2385-20.313L16.5865-20.313L20.7535-16.146L20.7535-18.798L5.7225-3.76696L8.3745-3.76696L4.2075-7.93396ZM33.5075-51.543C37.7735-51.543 41.2315-55.001 41.2315-59.267C41.2315-63.533 37.7735-66.992 33.5075-66.992C29.2415-66.992 25.7825-63.533 25.7825-59.267C25.7825-55.001 29.2415-51.543 33.5075-51.543Z"/>
  </g>
  <g id="Regular-M" transform="matrix(1 0 0 1 1414.61 1126)">
   <path d="M44.303-64.738C50.741-67.58 57.575-66.824 61.998-62.689C68.446-56.653 67.82-45.327 60.411-37.407C53.001-29.485 41.741-28.108 35.293-34.143C31.895-37.322 30.363-42.071 30.991-47.197C31.092-48.024 30.503-48.778 29.675-48.879C28.848-48.98 28.095-48.391 27.993-47.564C27.253-41.518 29.096-35.806 33.23-31.938C40.991-24.674 54.14-26.283 62.616-35.344C71.091-44.404 71.822-57.629 64.06-64.894C58.699-69.907 50.571-70.807 43.083-67.5C42.32-67.163 41.975-66.272 42.312-65.509C42.649-64.746 43.54-64.401 44.303-64.738ZM27.879-43.735C27.914-40.574 27.305-37.439 26.088-34.522C24.871-31.604 23.072-28.965 20.801-26.767C20.202-26.187 20.186-25.231 20.766-24.632C21.346-24.033 22.302-24.017 22.901-24.597C25.467-27.081 27.5-30.063 28.875-33.359C30.25-36.656 30.938-40.198 30.898-43.769C30.889-44.603 30.205-45.271 29.371-45.262C28.538-45.252 27.869-44.569 27.879-43.735ZM44.007-30.418C40.436-30.518 36.883-29.889 33.564-28.569C30.245-27.249 27.23-25.267 24.703-22.743C24.113-22.154 24.112-21.198 24.702-20.608C25.291-20.018 26.247-20.017 26.837-20.606C29.074-22.841 31.742-24.595 34.68-25.763C37.617-26.931 40.762-27.488 43.923-27.4C44.756-27.376 45.451-28.033 45.474-28.867C45.497-29.7 44.84-30.395 44.007-30.418ZM1.449-5.54096L5.615-1.37396C6.205-0.783961 7.161-0.783961 7.751-1.37396L22.782-16.405C23.371-16.994 23.371-17.95 22.782-18.54L18.615-22.707C18.025-23.296 17.069-23.296 16.48-22.707L1.449-7.67596C0.859-7.08596 0.859-6.12996 1.449-5.54096ZM3.584-7.67596L3.584-5.54096L18.615-20.571L16.48-20.571L20.646-16.405L20.646-18.54L5.615-3.50896L7.751-3.50896L3.584-7.67596ZM33.142-51.543C37.408-51.543 40.866-55.001 40.866-59.267C40.866-63.533 37.408-66.992 33.142-66.992C28.876-66.992 25.417-63.533 25.417-59.267C25.417-55.001 28.876-51.543 33.142-51.543Z"/>
  </g>
  <g id="Light-M" transform="matrix(1 0 0 1 1118.15 1126)">
   <path d="M43.9495-64.968C50.4745-67.849 57.4175-67.081 61.9175-62.873C68.4755-56.735 67.8415-45.25 60.3425-37.235C52.8445-29.219 41.4275-27.822 34.8695-33.96C31.4105-37.196 29.8525-42.025 30.4895-47.227C30.5735-47.917 30.0835-48.545 29.3935-48.629C28.7035-48.714 28.0765-48.223 27.9915-47.533C27.2605-41.564 29.0775-35.932 33.1505-32.122C40.8025-24.96 53.7935-26.55 62.1805-35.516C70.5675-44.481 71.2895-57.548 63.6375-64.711C58.3535-69.65 50.3335-70.538 42.9335-67.27C42.2975-66.989 42.0095-66.246 42.2905-65.61C42.5715-64.975 43.3145-64.687 43.9495-64.968ZM27.8785-43.738C27.9145-40.543 27.2985-37.374 26.0685-34.425C24.8385-31.476 23.0195-28.808 20.7245-26.586C20.2255-26.103 20.2125-25.306 20.6955-24.807C21.1785-24.308 21.9755-24.295 22.4745-24.778C25.0155-27.238 27.0295-30.191 28.3905-33.456C29.7525-36.721 30.4345-40.229 30.3945-43.766C30.3875-44.461 29.8175-45.018 29.1225-45.01C28.4275-45.002 27.8705-44.433 27.8785-43.738ZM43.7485-30.167C40.2115-30.265 36.6925-29.642 33.4055-28.335C30.1185-27.028 27.1325-25.065 24.6295-22.565C24.1375-22.074 24.1375-21.277 24.6285-20.786C25.1195-20.294 25.9155-20.293 26.4075-20.785C28.6685-23.043 31.3665-24.816 34.3355-25.997C37.3045-27.178 40.4835-27.74 43.6785-27.651C44.3725-27.632 44.9515-28.179 44.9705-28.874C44.9905-29.569 44.4425-30.147 43.7485-30.167ZM1.3755-5.71796L5.5415-1.55196C6.0335-1.05996 6.8295-1.05996 7.3215-1.55196L22.3525-16.583C22.8435-17.074 22.8435-17.871 22.3525-18.362L18.1855-22.529C17.6945-23.02 16.8975-23.02 16.4065-22.529L1.3755-7.49796C0.8835-7.00696 0.8835-6.20996 1.3755-5.71796ZM3.1545-7.49796L3.1545-5.71796L18.1855-20.749L16.4065-20.749L20.5725-16.583L20.5725-18.362L5.5415-3.33096L7.3215-3.33096L3.1545-7.49796ZM32.8905-51.543C37.1565-51.543 40.6145-55.001 40.6145-59.267C40.6145-63.533 37.1565-66.992 32.8905-66.992C28.6245-66.992 25.1655-63.533 25.1655-59.267C25.1655-55.001 28.6245-51.543 32.8905-51.543Z"/>
  </g>
  <g id="Thin-M" transform="matrix(1 0 0 1 821.696 1126)">
   <path d="M43.5962-65.198C50.2082-68.118 57.2582-67.338 61.8372-63.057C68.5052-56.816 67.8612-45.174 60.2742-37.063C52.6872-28.952 41.1122-27.535 34.4452-33.776C30.9242-37.07 29.3412-41.979 29.9872-47.258C30.0552-47.81 29.6623-48.312 29.1102-48.379C28.5592-48.447 28.0562-48.054 27.9892-47.503C27.2682-41.61 29.0582-36.059 33.0692-32.306C40.6122-25.246 53.4462-26.816 61.7442-35.688C70.0422-44.558 70.7552-57.467 63.2132-64.527C58.0082-69.393 50.0952-70.269 42.7823-67.039C42.2742-66.815 42.0442-66.221 42.2682-65.712C42.4932-65.204 43.0872-64.973 43.5962-65.198ZM27.8782-43.741C27.9142-40.512 27.2912-37.309 26.0482-34.328C24.8052-31.347 22.9672-28.651 20.6472-26.405C20.2472-26.018 20.2372-25.381 20.6242-24.982C21.0112-24.582 21.6482-24.572 22.0472-24.959C24.5642-27.395 26.5572-30.32 27.9062-33.553C29.2552-36.786 29.9302-40.26 29.8912-43.763C29.8852-44.319 29.4292-44.765 28.8732-44.758C28.3172-44.752 27.8722-44.296 27.8782-43.741ZM43.4892-29.915C39.9872-30.013 36.5012-29.396 33.2462-28.101C29.9912-26.807 27.0342-24.863 24.5552-22.387C24.1612-21.994 24.1612-21.357 24.5542-20.963C24.9472-20.57 25.5842-20.57 25.9772-20.963C28.2632-23.245 30.9892-25.037 33.9902-26.231C36.9912-27.424 40.2042-27.993 43.4332-27.903C43.9882-27.887 44.4512-28.325 44.4672-28.881C44.4822-29.437 44.0452-29.9 43.4892-29.915ZM1.30125-5.89596L5.46725-1.72996C5.86025-1.33696 6.49825-1.33696 6.89125-1.72996L21.9222-16.761C22.3152-17.154 22.3152-17.791 21.9222-18.184L17.7552-22.351C17.3622-22.744 16.7252-22.744 16.3312-22.351L1.30125-7.31996C0.90825-6.92696 0.90825-6.28996 1.30125-5.89596ZM2.72425-7.31996L2.72425-5.89596L17.7552-20.927L16.3312-20.927L20.4982-16.761L20.4982-18.184L5.46725-3.15296L6.89125-3.15296L2.72425-7.31996ZM32.6382-51.543C36.9042-51.543 40.3622-55.001 40.3622-59.267C40.3622-63.533 36.9042-66.992 32.6382-66.992C28.3722-66.992 24.9132-63.533 24.9132-59.267C24.9132-55.001 28.3722-51.543 32.6382-51.543Z"/>
  </g>
  <g id="Ultralight-M" transform="matrix(1 0 0 1 525.236 1126)">
   <path d="M43.2428-65.428C49.9427-68.387 57.1007-67.595 61.7578-63.241C68.5347-56.897 67.8828-45.097 60.2067-36.891C52.5297-28.685 40.7987-27.249 34.0218-33.592C30.4398-36.943 28.8307-41.933 29.4857-47.288C29.5368-47.702 29.2428-48.079 28.8287-48.13C28.4147-48.18 28.0377-47.886 27.9878-47.472C27.2757-41.656 29.0397-36.185 32.9897-32.49C40.4237-25.532 53.0998-27.083 61.3098-35.86C69.5187-44.635 70.2227-57.385 62.7897-64.343C57.6627-69.137 49.8578-70 42.6328-66.809C42.2517-66.641 42.0788-66.195 42.2467-65.814C42.4158-65.432 42.8617-65.26 43.2428-65.428ZM27.8778-43.743C27.9147-40.48 27.2858-37.243 26.0287-34.231C24.7728-31.219 22.9158-28.494 20.5708-26.224C20.2707-25.934 20.2637-25.456 20.5537-25.157C20.8438-24.857 21.3217-24.85 21.6207-25.14C24.1128-27.552 26.0867-30.448 27.4227-33.65C28.7578-36.852 29.4267-40.292 29.3878-43.76C29.3837-44.177 29.0418-44.511 28.6247-44.507C28.2077-44.502 27.8738-44.16 27.8778-43.743ZM43.2307-29.664C39.7628-29.76 36.3117-29.149 33.0877-27.868C29.8647-26.586 26.9358-24.661 24.4807-22.209C24.1858-21.914 24.1858-21.436 24.4807-21.141C24.7747-20.846 25.2528-20.846 25.5477-21.141C27.8578-23.447 30.6128-25.259 33.6457-26.465C36.6787-27.67 39.9258-28.245 43.1887-28.154C43.6047-28.143 43.9527-28.471 43.9638-28.888C43.9757-29.305 43.6478-29.652 43.2307-29.664ZM1.22775-6.07396L5.39375-1.90796C5.68875-1.61296 6.16675-1.61296 6.46175-1.90796L21.4928-16.939C21.7877-17.233 21.7877-17.711 21.4928-18.006L17.3257-22.173C17.0308-22.468 16.5527-22.468 16.2578-22.173L1.22775-7.14196C0.93275-6.84696 0.93275-6.36896 1.22775-6.07396ZM2.29475-7.14196L2.29475-6.07396L17.3257-21.105L16.2578-21.105L20.4247-16.939L20.4247-18.006L5.39375-2.97496L6.46175-2.97496L2.29475-7.14196ZM32.3868-51.543C36.6527-51.543 40.1107-55.001 40.1107-59.267C40.1107-63.533 36.6527-66.992 32.3868-66.992C28.1207-66.992 24.6618-63.533 24.6618-59.267C24.6618-55.001 28.1207-51.543 32.3868-51.543Z"/>
  </g>
  <g id="Black-S" transform="matrix(1 0 0 1 2904.17 696)">
   <path d="M36.9155-57.0261C41.4585-59.0321 46.1975-58.5081 49.2155-55.6861C53.6425-51.5421 53.2025-43.5741 47.9055-37.9111C42.6085-32.2491 34.6875-31.2801 30.2605-35.4231C27.9485-37.5871 26.8965-40.8481 27.3345-44.4261C27.5095-45.8581 26.4905-47.1621 25.0585-47.3371C23.6255-47.5121 22.3225-46.4931 22.1475-45.0611C21.5145-39.8911 23.1045-34.9631 26.6905-31.6081C33.3895-25.3381 44.5795-26.7071 51.7215-34.3421C58.8625-41.9761 59.4845-53.2311 52.7855-59.5011C48.1425-63.8431 41.1645-64.6151 34.8045-61.8061C33.4845-61.2231 32.8875-59.6801 33.4705-58.3601C34.0525-57.0401 35.5955-56.4431 36.9155-57.0261ZM22.0475-41.8731C22.0725-39.5931 21.6325-37.3311 20.7545-35.2261C19.8765-33.1211 18.5785-31.2171 16.9405-29.6311C15.9035-28.6271 15.8775-26.9731 16.8805-25.9361C17.8845-24.9001 19.5385-24.8731 20.5755-25.8771C22.7235-27.9571 24.4265-30.4541 25.5775-33.2141C26.7295-35.9751 27.3055-38.9411 27.2725-41.9321C27.2555-43.3751 26.0735-44.5311 24.6305-44.5151C23.1875-44.4991 22.0305-43.3161 22.0475-41.8731ZM36.1455-32.8921C33.1555-32.9761 30.1795-32.4491 27.4005-31.3441C24.6215-30.2391 22.0965-28.5791 19.9805-26.4651C18.9595-25.4451 18.9585-23.7911 19.9775-22.7701C20.9975-21.7491 22.6515-21.7481 23.6725-22.7681C25.2865-24.3791 27.2125-25.6451 29.3315-26.4881C31.4505-27.3311 33.7195-27.7321 36.0005-27.6691C37.4425-27.6291 38.6445-28.7651 38.6845-30.2081C38.7245-31.6501 37.5885-32.8521 36.1455-32.8921ZM1.7715-10.9721L5.0335-7.70906C6.0545-6.68906 7.7085-6.68906 8.7285-7.70906L20.4975-19.4781C21.5185-20.4991 21.5185-22.1531 20.4975-23.1731L17.2355-26.4361C16.2155-27.4561 14.5605-27.4561 13.5405-26.4361L1.7715-14.6661C0.7515-13.6461 0.7515-11.9921 1.7715-10.9721ZM5.4665-14.6661L5.4665-10.9721L17.2355-22.7411L13.5405-22.7411L16.8035-19.4781L16.8035-23.1731L5.0335-11.4041L8.7285-11.4041L5.4665-14.6661ZM27.5985-48.0031C30.9385-48.0031 33.6465-50.7111 33.6465-54.0511C33.6465-57.3921 30.9385-60.0991 27.5985-60.0991C24.2585-60.0991 21.5505-57.3921 21.5505-54.0511C21.5505-50.7111 24.2585-48.0031 27.5985-48.0031Z"/>
  </g>
  <g id="Heavy-S" transform="matrix(1 0 0 1 2607.74 696)">
   <path d="M36.5135-57.2871C41.1565-59.3381 46.0175-58.8001 49.1245-55.8951C53.6765-51.6351 53.2255-43.4861 47.8285-37.7161C42.4305-31.9461 34.3305-30.9551 29.7785-35.2151C27.3975-37.4431 26.3155-40.7961 26.7645-44.4611C26.9205-45.7361 26.0125-46.8971 24.7375-47.0531C23.4625-47.2091 22.3015-46.3021 22.1455-45.0261C21.5235-39.9441 23.0835-35.1061 26.5995-31.8171C33.1745-25.6631 44.1855-27.0101 51.2265-34.5371C58.2665-42.0631 58.8785-53.1381 52.3035-59.2931C47.7495-63.5511 40.8955-64.3091 34.6345-61.5441C33.4585-61.0251 32.9265-59.6511 33.4455-58.4761C33.9645-57.3001 35.3385-56.7681 36.5135-57.2871ZM22.0475-41.8761C22.0735-39.5571 21.6255-37.2571 20.7325-35.1161C19.8395-32.9751 18.5195-31.0391 16.8535-29.4251C15.9305-28.5321 15.9065-27.0591 16.8005-26.1351C17.6945-25.2121 19.1675-25.1881 20.0905-26.0821C22.2115-28.1361 23.8905-30.6001 25.0275-33.3241C26.1645-36.0491 26.7335-38.9771 26.7005-41.9291C26.6855-43.2141 25.6325-44.2431 24.3475-44.2291C23.0625-44.2151 22.0325-43.1611 22.0475-41.8761ZM35.8515-32.6061C32.9005-32.6891 29.9635-32.1691 27.2205-31.0781C24.4775-29.9871 21.9855-28.3491 19.8965-26.2621C18.9875-25.3541 18.9865-23.8811 19.8945-22.9721C20.8025-22.0631 22.2755-22.0621 23.1845-22.9701C24.8255-24.6091 26.7845-25.8971 28.9395-26.7541C31.0955-27.6111 33.4025-28.0201 35.7225-27.9551C37.0065-27.9191 38.0765-28.9311 38.1125-30.2161C38.1485-31.5001 37.1365-32.5701 35.8515-32.6061ZM1.6875-11.1741L4.9505-7.91106C5.8585-7.00306 7.3315-7.00306 8.2405-7.91106L20.0095-19.6811C20.9185-20.5891 20.9185-22.0621 20.0095-22.9711L16.7475-26.2331C15.8385-27.1421 14.3655-27.1421 13.4565-26.2331L1.6875-14.4641C0.7795-13.5561 0.7795-12.0821 1.6875-11.1741ZM4.9775-14.4641L4.9775-11.1741L16.7475-22.9431L13.4565-22.9431L16.7195-19.6811L16.7195-22.9711L4.9505-11.2021L8.2405-11.2021L4.9775-14.4641ZM27.3125-48.0031C30.6525-48.0031 33.3605-50.7111 33.3605-54.0511C33.3605-57.3921 30.6525-60.0991 27.3125-60.0991C23.9725-60.0991 21.2645-57.3921 21.2645-54.0511C21.2645-50.7111 23.9725-48.0031 27.3125-48.0031Z"/>
  </g>
  <g id="Bold-S" transform="matrix(1 0 0 1 2311.32 696)">
   <path d="M36.1125-57.5491C40.8545-59.6431 45.8385-59.0921 49.0345-56.1031C53.7095-51.7271 53.2495-43.3991 47.7515-37.5211C42.2525-31.6421 33.9735-30.6291 29.2975-35.0061C26.8455-37.2991 25.7345-40.7431 26.1945-44.4961C26.3315-45.6141 25.5355-46.6321 24.4165-46.7691C23.2985-46.9061 22.2805-46.1101 22.1435-44.9911C21.5315-39.9961 23.0625-35.2501 26.5085-32.0261C32.9595-25.9881 43.7915-27.3141 50.7315-34.7331C57.6705-42.1511 58.2725-53.0461 51.8225-59.0841C47.3575-63.2581 40.6255-64.0031 34.4635-61.2821C33.4325-60.8271 32.9665-59.6221 33.4215-58.5911C33.8765-57.5611 35.0815-57.0941 36.1125-57.5491ZM22.0475-41.8801C22.0735-39.5221 21.6185-37.1821 20.7105-35.0061C19.8025-32.8291 18.4605-30.8601 16.7665-29.2201C15.9565-28.4361 15.9355-27.1441 16.7195-26.3341C17.5035-25.5251 18.7955-25.5041 19.6055-26.2881C21.6985-28.3141 23.3555-30.7461 24.4775-33.4351C25.5995-36.1231 26.1605-39.0131 26.1275-41.9251C26.1155-43.0521 25.1915-43.9561 24.0645-43.9431C22.9375-43.9301 22.0345-43.0071 22.0475-41.8801ZM35.5575-32.3201C32.6455-32.4021 29.7475-31.8881 27.0405-30.8121C24.3335-29.7361 21.8735-28.1191 19.8125-26.0601C19.0155-25.2641 19.0145-23.9721 19.8105-23.1741C20.6065-22.3771 21.8985-22.3761 22.6965-23.1721C24.3655-24.8391 26.3565-26.1481 28.5485-27.0201C30.7395-27.8911 33.0855-28.3071 35.4445-28.2411C36.5705-28.2091 37.5095-29.0971 37.5405-30.2241C37.5725-31.3501 36.6845-32.2891 35.5575-32.3201ZM1.6035-11.3761L4.8665-8.11406C5.6635-7.31706 6.9555-7.31706 7.7525-8.11406L19.5215-19.8831C20.3185-20.6801 20.3185-21.9721 19.5215-22.7691L16.2585-26.0311C15.4615-26.8281 14.1705-26.8281 13.3735-26.0311L1.6035-14.2621C0.8075-13.4651 0.8075-12.1731 1.6035-11.3761ZM4.4895-14.2621L4.4895-11.3761L16.2585-23.1451L13.3735-23.1451L16.6355-19.8831L16.6355-22.7691L4.8665-10.9991L7.7525-10.9991L4.4895-14.2621ZM27.0265-48.0031C30.3665-48.0031 33.0745-50.7111 33.0745-54.0511C33.0745-57.3921 30.3665-60.0991 27.0265-60.0991C23.6865-60.0991 20.9785-57.3921 20.9785-54.0511C20.9785-50.7111 23.6865-48.0031 27.0265-48.0031Z"/>
  </g>
  <g id="Semibold-S" transform="matrix(1 0 0 1 2014.89 696)">
   <path d="M35.7102-57.8111C40.5522-59.9491 45.6583-59.3841 48.9432-56.3121C53.7433-51.8191 53.2732-43.3111 47.6742-37.3251C42.0742-31.3391 33.6162-30.3041 28.8152-34.7971C26.2942-37.1561 25.1542-40.6911 25.6242-44.5301C25.7412-45.4921 25.0572-46.3671 24.0952-46.4851C23.1342-46.6031 22.2592-45.9181 22.1412-44.9571C21.5402-40.0481 23.0422-35.3941 26.4182-32.2351C32.7442-26.3141 43.3973-27.6171 50.2363-34.9281C57.0742-42.2381 57.6662-52.9541 51.3402-58.8751C46.9643-62.9661 40.3552-63.6981 34.2932-61.0211C33.4072-60.6291 33.0052-59.5931 33.3973-58.7071C33.7882-57.8211 34.8242-57.4191 35.7102-57.8111ZM22.0472-41.8831C22.0743-39.4861 21.6112-37.1081 20.6893-34.8951C19.7662-32.6831 18.4013-30.6821 16.6792-29.0141C15.9832-28.3401 15.9652-27.2301 16.6392-26.5331C17.3132-25.8371 18.4242-25.8191 19.1202-26.4931C21.1852-28.4931 22.8202-30.8921 23.9272-33.5451C25.0332-36.1981 25.5882-39.0481 25.5553-41.9221C25.5453-42.8911 24.7502-43.6681 23.7812-43.6571C22.8132-43.6461 22.0362-42.8521 22.0472-41.8831ZM35.2633-32.0341C32.3903-32.1141 29.5302-31.6081 26.8592-30.5461C24.1882-29.4841 21.7622-27.8891 19.7283-25.8581C19.0432-25.1731 19.0422-24.0621 19.7272-23.3761C20.4112-22.6911 21.5222-22.6901 22.2082-23.3751C23.9042-25.0691 25.9282-26.4001 28.1562-27.2861C30.3832-28.1711 32.7692-28.5941 35.1652-28.5271C36.1342-28.5001 36.9412-29.2631 36.9683-30.2321C36.9953-31.2001 36.2322-32.0071 35.2633-32.0341ZM1.52025-11.5781L4.78225-8.31606C5.46725-7.63106 6.57825-7.63106 7.26325-8.31606L19.0332-20.0851C19.7183-20.7701 19.7183-21.8811 19.0332-22.5661L15.7702-25.8291C15.0852-26.5141 13.9742-26.5141 13.2892-25.8291L1.52025-14.0601C0.83525-13.3741 0.83525-12.2641 1.52025-11.5781ZM4.00125-14.0601L4.00125-11.5781L15.7702-23.3481L13.2892-23.3481L16.5512-20.0851L16.5512-22.5661L4.78225-10.7971L7.26325-10.7971L4.00125-14.0601ZM26.7402-48.0031C30.0802-48.0031 32.7882-50.7111 32.7882-54.0511C32.7882-57.3921 30.0802-60.0991 26.7402-60.0991C23.4002-60.0991 20.6922-57.3921 20.6922-54.0511C20.6922-50.7111 23.4002-48.0031 26.7402-48.0031Z"/>
  </g>
  <g id="Medium-S" transform="matrix(1 0 0 1 1718.47 696)">
   <path d="M35.3093-58.0731C40.2503-60.2551 45.4792-59.6761 48.8532-56.5211C53.7772-51.9121 53.2972-43.2241 47.5973-37.1301C41.8963-31.0351 33.2593-29.9791 28.3342-34.5881C25.7433-37.0121 24.5732-40.6391 25.0542-44.5651C25.1522-45.3701 24.5803-46.1021 23.7752-46.2011C22.9702-46.2991 22.2372-45.7271 22.1393-44.9221C21.5493-40.1011 23.0213-35.5371 26.3273-32.4441C32.5293-26.6391 43.0033-27.9211 49.7413-35.1241C56.4782-42.3261 57.0613-52.8611 50.8593-58.6661C46.5722-62.6741 40.0852-63.3921 34.1222-60.7591C33.3812-60.4311 33.0452-59.5641 33.3722-58.8231C33.7002-58.0811 34.5673-57.7451 35.3093-58.0731ZM22.0472-41.8861C22.0742-39.4501 21.6052-37.0341 20.6673-34.7851C19.7292-32.5371 18.3422-30.5031 16.5922-28.8091C16.0093-28.2451 15.9943-27.3151 16.5583-26.7321C17.1232-26.1501 18.0523-26.1351 18.6353-26.6991C20.6722-28.6711 22.2852-31.0381 23.3773-33.6551C24.4682-36.2721 25.0152-39.0841 24.9833-41.9191C24.9743-42.7301 24.3093-43.3801 23.4992-43.3711C22.6882-43.3621 22.0383-42.6971 22.0472-41.8861ZM34.9692-31.7481C32.1353-31.8271 29.3142-31.3281 26.6792-30.2801C24.0442-29.2331 21.6512-27.6591 19.6443-25.6551C19.0713-25.0821 19.0703-24.1521 19.6432-23.5791C20.2163-23.0051 21.1463-23.0041 21.7192-23.5771C23.4433-25.2991 25.5003-26.6511 27.7643-27.5511C30.0283-28.4521 32.4523-28.8811 34.8873-28.8131C35.6982-28.7901 36.3742-29.4291 36.3963-30.2401C36.4192-31.0501 35.7803-31.7261 34.9692-31.7481ZM1.43625-11.7811L4.69925-8.51806C5.27225-7.94506 6.20225-7.94506 6.77525-8.51806L18.5442-20.2871C19.1183-20.8611 19.1183-21.7911 18.5442-22.3641L15.2823-25.6261C14.7082-26.2001 13.7793-26.2001 13.2053-25.6261L1.43625-13.8571C0.86325-13.2841 0.86325-12.3541 1.43625-11.7811ZM3.51325-13.8571L3.51325-11.7811L15.2823-23.5501L13.2053-23.5501L16.4682-20.2871L16.4682-22.3641L4.69925-10.5951L6.77525-10.5951L3.51325-13.8571ZM26.4543-48.0031C29.7942-48.0031 32.5023-50.7111 32.5023-54.0511C32.5023-57.3921 29.7942-60.0991 26.4543-60.0991C23.1142-60.0991 20.4063-57.3921 20.4063-54.0511C20.4063-50.7111 23.1142-48.0031 26.4543-48.0031Z"/>
  </g>
  <g id="Regular-S" transform="matrix(1 0 0 1 1422.04 696)">
   <path d="M34.9073-58.3341C39.9482-60.5601 45.2992-59.9681 48.7623-56.7301C53.8113-52.0041 53.3213-43.1361 47.5202-36.9341C41.7182-30.7321 32.9012-29.6531 27.8522-34.3791C25.1922-36.8681 23.9923-40.5861 24.4843-44.6001C24.5632-45.2481 24.1022-45.8381 23.4543-45.9171C22.8062-45.9961 22.2163-45.5351 22.1373-44.8871C21.5572-40.1531 23.0002-35.6811 26.2372-32.6531C32.3142-26.9641 42.6093-28.2241 49.2462-35.3191C55.8832-42.4131 56.4553-52.7691 50.3773-58.4571C46.1792-62.3821 39.8152-63.0861 33.9522-60.4971C33.3552-60.2331 33.0842-59.5351 33.3483-58.9381C33.6122-58.3411 34.3103-58.0711 34.9073-58.3341ZM22.0472-41.8891C22.0752-39.4141 21.5983-36.9601 20.6452-34.6751C19.6922-32.3911 18.2833-30.3251 16.5052-28.6031C16.0362-28.1491 16.0242-27.4011 16.4782-26.9311C16.9322-26.4621 17.6812-26.4501 18.1502-26.9041C20.1592-28.8501 21.7502-31.1841 22.8272-33.7651C23.9032-36.3461 24.4432-39.1201 24.4112-41.9161C24.4042-42.5691 23.8693-43.0921 23.2163-43.0851C22.5632-43.0771 22.0402-42.5421 22.0472-41.8891ZM34.6753-31.4621C31.8802-31.5401 29.0972-31.0481 26.4992-30.0141C23.9002-28.9811 21.5392-27.4291 19.5603-25.4531C19.0983-24.9911 19.0983-24.2431 19.5592-23.7811C20.0213-23.3191 20.7692-23.3181 21.2312-23.7801C22.9833-25.5291 25.0722-26.9031 27.3732-27.8171C29.6722-28.7321 32.1352-29.1681 34.6093-29.0991C35.2623-29.0811 35.8062-29.5951 35.8242-30.2481C35.8422-30.9001 35.3282-31.4441 34.6753-31.4621ZM1.35225-11.9831L4.61525-8.72106C5.07725-8.25906 5.82525-8.25906 6.28725-8.72106L18.0562-20.4901C18.5182-20.9511 18.5182-21.7001 18.0562-22.1621L14.7933-25.4241C14.3322-25.8861 13.5832-25.8861 13.1222-25.4241L1.35225-13.6551C0.89125-13.1931 0.89125-12.4451 1.35225-11.9831ZM3.02425-13.6551L3.02425-11.9831L14.7933-23.7521L13.1222-23.7521L16.3842-20.4901L16.3842-22.1621L4.61525-10.3921L6.28725-10.3921L3.02425-13.6551ZM26.1683-48.0031C29.5082-48.0031 32.2163-50.7111 32.2163-54.0511C32.2163-57.3921 29.5082-60.0991 26.1683-60.0991C22.8282-60.0991 20.1202-57.3921 20.1202-54.0511C20.1202-50.7111 22.8282-48.0031 26.1683-48.0031Z"/>
  </g>
  <g id="Light-S" transform="matrix(1 0 0 1 1125.53 696)">
   <path d="M34.6312-58.5151C39.7403-60.7711 45.1763-60.1691 48.7003-56.8741C53.8343-52.0681 53.3383-43.0761 47.4663-36.8001C41.5953-30.5231 32.6563-29.4291 27.5213-34.2351C24.8123-36.7691 23.5922-40.5501 24.0913-44.6241C24.1573-45.1641 23.7733-45.6551 23.2333-45.7211C22.6933-45.7881 22.2013-45.4031 22.1353-44.8631C21.5632-40.1891 22.9862-35.7801 26.1743-32.7961C32.1663-27.1891 42.3383-28.4331 48.9053-35.4541C55.4723-42.4731 56.0373-52.7051 50.0463-58.3131C45.9092-62.1811 39.6293-62.8761 33.8353-60.3171C33.3373-60.0971 33.1122-59.5161 33.3313-59.0181C33.5513-58.5201 34.1333-58.2951 34.6312-58.5151ZM22.0473-41.8921C22.0753-39.3901 21.5932-36.9091 20.6293-34.5991C19.6663-32.2901 18.2423-30.2021 16.4453-28.4621C16.0542-28.0831 16.0442-27.4591 16.4233-27.0691C16.8013-26.6781 17.4253-26.6681 17.8163-27.0461C19.8053-28.9721 21.3823-31.2851 22.4482-33.8411C23.5143-36.3971 24.0483-39.1441 24.0173-41.9141C24.0113-42.4581 23.5653-42.8941 23.0213-42.8881C22.4772-42.8821 22.0413-42.4361 22.0473-41.8921ZM34.4733-31.2651C31.7043-31.3431 28.9482-30.8551 26.3753-29.8311C23.8013-28.8081 21.4633-27.2711 19.5033-25.3131C19.1183-24.9291 19.1173-24.3051 19.5023-23.9201C19.8863-23.5351 20.5103-23.5351 20.8953-23.9191C22.6663-25.6871 24.7783-27.0761 27.1033-28.0001C29.4273-28.9251 31.9173-29.3661 34.4183-29.2961C34.9623-29.2811 35.4153-29.7091 35.4303-30.2531C35.4453-30.7971 35.0173-31.2501 34.4733-31.2651ZM1.29525-12.1221L4.55725-8.86006C4.94225-8.47506 5.56625-8.47506 5.95025-8.86006L17.7203-20.6291C18.1043-21.0141 18.1043-21.6381 17.7203-22.0221L14.4572-25.2851C14.0722-25.6701 13.4493-25.6701 13.0642-25.2851L1.29525-13.5161C0.91025-13.1311 0.91025-12.5071 1.29525-12.1221ZM2.68825-13.5161L2.68825-12.1221L14.4572-23.8921L13.0642-23.8921L16.3263-20.6291L16.3263-22.0221L4.55725-10.2531L5.95025-10.2531L2.68825-13.5161ZM25.9713-48.0031C29.3113-48.0031 32.0193-50.7111 32.0193-54.0511C32.0193-57.3921 29.3113-60.0991 25.9713-60.0991C22.6312-60.0991 19.9233-57.3921 19.9233-54.0511C19.9233-50.7111 22.6312-48.0031 25.9713-48.0031Z"/>
  </g>
  <g id="Thin-S" transform="matrix(1 0 0 1 829.013 696)">
   <path d="M34.3545-58.6951C39.5325-60.9811 45.0525-60.3711 48.6375-57.0181C53.8585-52.1321 53.3545-43.0161 47.4135-36.6651C41.4725-30.3141 32.4105-29.2051 27.1895-34.0911C24.4325-36.6701 23.1935-40.5141 23.6995-44.6481C23.7515-45.0801 23.4445-45.4731 23.0125-45.5261C22.5805-45.5791 22.1875-45.2711 22.1345-44.8391C21.5695-40.2251 22.9715-35.8791 26.1125-32.9401C32.0185-27.4131 42.0675-28.6421 48.5645-35.5881C55.0625-42.5341 55.6205-52.6411 49.7145-58.1691C45.6395-61.9801 39.4435-62.6651 33.7175-60.1371C33.3195-59.9611 33.1395-59.4961 33.3155-59.0971C33.4905-58.6991 33.9565-58.5191 34.3545-58.6951ZM22.0475-41.8941C22.0755-39.3651 21.5885-36.8571 20.6145-34.5241C19.6415-32.1901 18.2025-30.0791 16.3855-28.3201C16.0725-28.0171 16.0645-27.5181 16.3675-27.2061C16.6705-26.8931 17.1695-26.8851 17.4825-27.1881C19.4525-29.0951 21.0135-31.3851 22.0695-33.9171C23.1255-36.4481 23.6545-39.1691 23.6235-41.9111C23.6185-42.3471 23.2615-42.6961 22.8265-42.6911C22.3915-42.6861 22.0425-42.3291 22.0475-41.8941ZM34.2705-31.0681C31.5285-31.1451 28.7995-30.6621 26.2515-29.6481C23.7015-28.6351 21.3865-27.1121 19.4455-25.1741C19.1375-24.8661 19.1375-24.3671 19.4445-24.0591C19.7525-23.7511 20.2515-23.7511 20.5595-24.0591C22.3485-25.8461 24.4835-27.2491 26.8335-28.1841C29.1835-29.1181 31.6985-29.5631 34.2265-29.4931C34.6625-29.4811 35.0245-29.8231 35.0365-30.2591C35.0485-30.6941 34.7055-31.0561 34.2705-31.0681ZM1.2375-12.2621L4.5005-8.99906C4.8075-8.69106 5.3065-8.69106 5.6145-8.99906L17.3835-20.7681C17.6915-21.0761 17.6915-21.5751 17.3835-21.8831L14.1215-25.1451C13.8135-25.4531 13.3145-25.4531 13.0065-25.1451L1.2375-13.3761C0.9295-13.0691 0.9295-12.5701 1.2375-12.2621ZM2.3525-13.3761L2.3525-12.2621L14.1215-24.0311L13.0065-24.0311L16.2695-20.7681L16.2695-21.8831L4.5005-10.1141L5.6145-10.1141L2.3525-13.3761ZM25.7745-48.0031C29.1145-48.0031 31.8225-50.7111 31.8225-54.0511C31.8225-57.3921 29.1145-60.0991 25.7745-60.0991C22.4345-60.0991 19.7265-57.3921 19.7265-54.0511C19.7265-50.7111 22.4345-48.0031 25.7745-48.0031Z"/>
  </g>
  <g id="Ultralight-S" transform="matrix(1 0 0 1 532.499 696)">
   <path d="M34.0777-58.8751C39.3247-61.1921 44.9287-60.5721 48.5757-57.1621C53.8817-52.1951 53.3717-42.9551 47.3607-36.5301C41.3497-30.1051 32.1647-28.9811 26.8577-33.9471C24.0537-36.5711 22.7937-40.4781 23.3067-44.6721C23.3467-44.9961 23.1157-45.2911 22.7917-45.3301C22.4677-45.3701 22.1727-45.1391 22.1337-44.8151C21.5757-40.2611 22.9577-35.9781 26.0507-33.0841C31.8707-27.6371 41.7957-28.8511 48.2247-35.7231C54.6517-42.5941 55.2037-52.5781 49.3827-58.0261C45.3687-61.7791 39.2577-62.4551 33.6007-59.9571C33.3017-59.8251 33.1667-59.4761 33.2987-59.1771C33.4307-58.8781 33.7797-58.7431 34.0777-58.8751ZM22.0477-41.8961C22.0767-39.3411 21.5837-36.8061 20.5997-34.4481C19.6157-32.0891 18.1617-29.9561 16.3257-28.1781C16.0917-27.9511 16.0857-27.5771 16.3127-27.3431C16.5397-27.1081 16.9137-27.1021 17.1487-27.3291C19.0997-29.2181 20.6457-31.4861 21.6907-33.9931C22.7367-36.5001 23.2607-39.1931 23.2297-41.9091C23.2257-42.2361 22.9587-42.4971 22.6317-42.4941C22.3057-42.4901 22.0437-42.2221 22.0477-41.8961ZM34.0687-30.8711C31.3527-30.9471 28.6507-30.4691 26.1267-29.4651C23.6027-28.4621 21.3097-26.9541 19.3877-25.0341C19.1567-24.8041 19.1567-24.4291 19.3877-24.1981C19.6177-23.9671 19.9927-23.9671 20.2237-24.1981C22.0317-26.0041 24.1887-27.4221 26.5637-28.3671C28.9387-29.3111 31.4807-29.7611 34.0357-29.6901C34.3617-29.6811 34.6337-29.9381 34.6427-30.2641C34.6517-30.5901 34.3947-30.8621 34.0687-30.8711ZM1.17975-12.4011L4.44275-9.13906C4.67375-8.90806 5.04775-8.90806 5.27875-9.13906L17.0477-20.9081C17.2787-21.1391 17.2787-21.5131 17.0477-21.7441L13.7847-25.0061C13.5547-25.2371 13.1797-25.2371 12.9497-25.0061L1.17975-13.2371C0.94875-13.0061 0.94875-12.6321 1.17975-12.4011ZM2.01575-13.2371L2.01575-12.4011L13.7847-24.1701L12.9497-24.1701L16.2117-20.9081L16.2117-21.7441L4.44275-9.97406L5.27875-9.97406L2.01575-13.2371ZM25.5777-48.0031C28.9177-48.0031 31.6257-50.7111 31.6257-54.0511C31.6257-57.3921 28.9177-60.0991 25.5777-60.0991C22.2377-60.0991 19.5297-57.3921 19.5297-54.0511C19.5297-50.7111 22.2377-48.0031 25.5777-48.0031Z"/>
  </g>
 </g>
</svg>
