<?xml version="1.0" encoding="UTF-8"?>
<!--Generator: Apple Native CoreSVG 175.5-->
<!DOCTYPE svg
PUBLIC "-//W3C//DTD SVG 1.1//EN"
       "http://www.w3.org/Graphics/SVG/1.1/DTD/svg11.dtd">
<svg version="1.1" xmlns="http://www.w3.org/2000/svg" xmlns:xlink="http://www.w3.org/1999/xlink" width="3300" height="2200">
 <!--glyph: "", point size: 100.0, font version: "18.0d12e2", template writer version: "101"-->
 <g id="Notes">
  <rect height="2200" id="artboard" style="fill:white;opacity:1" width="3300" x="0" y="0"/>
  <line style="fill:none;stroke:black;opacity:1;stroke-width:0.5;" x1="263" x2="3036" y1="292" y2="292"/>
  <text style="stroke:none;fill:black;font-family:sans-serif;font-size:13;font-weight:bold;" transform="matrix(1 0 0 1 263 322)">Weight/Scale Variations</text>
  <text style="stroke:none;fill:black;font-family:sans-serif;font-size:13;text-anchor:middle;" transform="matrix(1 0 0 1 559.711 322)">Ultralight</text>
  <text style="stroke:none;fill:black;font-family:sans-serif;font-size:13;text-anchor:middle;" transform="matrix(1 0 0 1 856.422 322)">Thin</text>
  <text style="stroke:none;fill:black;font-family:sans-serif;font-size:13;text-anchor:middle;" transform="matrix(1 0 0 1 1153.13 322)">Light</text>
  <text style="stroke:none;fill:black;font-family:sans-serif;font-size:13;text-anchor:middle;" transform="matrix(1 0 0 1 1449.84 322)">Regular</text>
  <text style="stroke:none;fill:black;font-family:sans-serif;font-size:13;text-anchor:middle;" transform="matrix(1 0 0 1 1746.56 322)">Medium</text>
  <text style="stroke:none;fill:black;font-family:sans-serif;font-size:13;text-anchor:middle;" transform="matrix(1 0 0 1 2043.27 322)">Semibold</text>
  <text style="stroke:none;fill:black;font-family:sans-serif;font-size:13;text-anchor:middle;" transform="matrix(1 0 0 1 2339.98 322)">Bold</text>
  <text style="stroke:none;fill:black;font-family:sans-serif;font-size:13;text-anchor:middle;" transform="matrix(1 0 0 1 2636.69 322)">Heavy</text>
  <text style="stroke:none;fill:black;font-family:sans-serif;font-size:13;text-anchor:middle;" transform="matrix(1 0 0 1 2933.4 322)">Black</text>
  <line style="fill:none;stroke:black;opacity:1;stroke-width:0.5;" x1="263" x2="3036" y1="1903" y2="1903"/>
  <g transform="matrix(1 0 0 1 263 1933)">
   <path d="M9.24805 0.830078C13.5547 0.830078 17.1387-2.74414 17.1387-7.05078C17.1387-11.3574 13.5449-14.9316 9.23828-14.9316C4.94141-14.9316 1.36719-11.3574 1.36719-7.05078C1.36719-2.74414 4.95117 0.830078 9.24805 0.830078ZM9.24805-0.654297C5.70312-0.654297 2.87109-3.49609 2.87109-7.05078C2.87109-10.6055 5.69336-13.4473 9.23828-13.4473C12.793-13.4473 15.6445-10.6055 15.6445-7.05078C15.6445-3.49609 12.8027-0.654297 9.24805-0.654297ZM5.6543-7.05078C5.6543-6.62109 5.95703-6.32812 6.40625-6.32812L8.50586-6.32812L8.50586-4.20898C8.50586-3.76953 8.79883-3.4668 9.22852-3.4668C9.67773-3.4668 9.9707-3.76953 9.9707-4.20898L9.9707-6.32812L12.0898-6.32812C12.5293-6.32812 12.832-6.62109 12.832-7.05078C12.832-7.49023 12.5293-7.79297 12.0898-7.79297L9.9707-7.79297L9.9707-9.90234C9.9707-10.3516 9.67773-10.6543 9.22852-10.6543C8.79883-10.6543 8.50586-10.3516 8.50586-9.90234L8.50586-7.79297L6.40625-7.79297C5.95703-7.79297 5.6543-7.49023 5.6543-7.05078Z"/>
  </g>
  <g transform="matrix(1 0 0 1 281.867 1933)">
   <path d="M11.709 2.91016C17.1582 2.91016 21.6699-1.61133 21.6699-7.05078C21.6699-12.5 17.1484-17.0117 11.6992-17.0117C6.25977-17.0117 1.74805-12.5 1.74805-7.05078C1.74805-1.61133 6.26953 2.91016 11.709 2.91016ZM11.709 1.25C7.09961 1.25 3.41797-2.44141 3.41797-7.05078C3.41797-11.6602 7.08984-15.3516 11.6992-15.3516C16.3086-15.3516 20.0098-11.6602 20.0098-7.05078C20.0098-2.44141 16.3184 1.25 11.709 1.25ZM7.17773-7.05078C7.17773-6.57227 7.50977-6.25 8.00781-6.25L10.8789-6.25L10.8789-3.36914C10.8789-2.88086 11.2109-2.53906 11.6895-2.53906C12.1777-2.53906 12.5195-2.87109 12.5195-3.36914L12.5195-6.25L15.4004-6.25C15.8887-6.25 16.2305-6.57227 16.2305-7.05078C16.2305-7.53906 15.8887-7.88086 15.4004-7.88086L12.5195-7.88086L12.5195-10.752C12.5195-11.25 12.1777-11.5918 11.6895-11.5918C11.2109-11.5918 10.8789-11.25 10.8789-10.752L10.8789-7.88086L8.00781-7.88086C7.50977-7.88086 7.17773-7.53906 7.17773-7.05078Z"/>
  </g>
  <g transform="matrix(1 0 0 1 305.646 1933)">
   <path d="M14.9707 5.66406C21.9336 5.66406 27.6953-0.0976562 27.6953-7.05078C27.6953-14.0137 21.9238-19.7754 14.9609-19.7754C8.00781-19.7754 2.25586-14.0137 2.25586-7.05078C2.25586-0.0976562 8.01758 5.66406 14.9707 5.66406ZM14.9707 3.84766C8.93555 3.84766 4.08203-1.01562 4.08203-7.05078C4.08203-13.0957 8.92578-17.9492 14.9609-17.9492C21.0059-17.9492 25.8691-13.0957 25.8691-7.05078C25.8691-1.01562 21.0156 3.84766 14.9707 3.84766ZM9.19922-7.05078C9.19922-6.5332 9.57031-6.17188 10.1172-6.17188L14.0625-6.17188L14.0625-2.2168C14.0625-1.67969 14.4336-1.29883 14.9512-1.29883C15.4883-1.29883 15.8594-1.66992 15.8594-2.2168L15.8594-6.17188L19.8145-6.17188C20.3516-6.17188 20.7324-6.5332 20.7324-7.05078C20.7324-7.59766 20.3613-7.96875 19.8145-7.96875L15.8594-7.96875L15.8594-11.9141C15.8594-12.4609 15.4883-12.8418 14.9512-12.8418C14.4336-12.8418 14.0625-12.4609 14.0625-11.9141L14.0625-7.96875L10.1172-7.96875C9.57031-7.96875 9.19922-7.59766 9.19922-7.05078Z"/>
  </g>
  <text style="stroke:none;fill:black;font-family:sans-serif;font-size:13;font-weight:bold;" transform="matrix(1 0 0 1 263 1953)">Design Variations</text>
  <text style="stroke:none;fill:black;font-family:sans-serif;font-size:13;" transform="matrix(1 0 0 1 263 1971)">Symbols are supported in up to nine weights and three scales.</text>
  <text style="stroke:none;fill:black;font-family:sans-serif;font-size:13;" transform="matrix(1 0 0 1 263 1989)">For optimal layout with text and other symbols, vertically align</text>
  <text style="stroke:none;fill:black;font-family:sans-serif;font-size:13;" transform="matrix(1 0 0 1 263 2007)">symbols with the adjacent text.</text>
  <line style="fill:none;stroke:#00AEEF;stroke-width:0.5;opacity:1.0;" x1="776" x2="776" y1="1919" y2="1933"/>
  <g transform="matrix(1 0 0 1 776 1933)">
   <path d="M3.31055 0.15625C3.82812 0.15625 4.08203-0.0390625 4.26758-0.585938L5.52734-4.0332L11.2891-4.0332L12.5488-0.585938C12.7344-0.0390625 12.9883 0.15625 13.4961 0.15625C14.0137 0.15625 14.3457-0.15625 14.3457-0.644531C14.3457-0.810547 14.3164-0.966797 14.2383-1.17188L9.6582-13.3691C9.43359-13.9648 9.0332-14.2676 8.4082-14.2676C7.80273-14.2676 7.39258-13.9746 7.17773-13.3789L2.59766-1.16211C2.51953-0.957031 2.49023-0.800781 2.49023-0.634766C2.49023-0.146484 2.80273 0.15625 3.31055 0.15625ZM6.00586-5.51758L8.37891-12.0898L8.42773-12.0898L10.8008-5.51758Z"/>
  </g>
  <line style="fill:none;stroke:#00AEEF;stroke-width:0.5;opacity:1.0;" x1="793.197" x2="793.197" y1="1919" y2="1933"/>
  <text style="stroke:none;fill:black;font-family:sans-serif;font-size:13;font-weight:bold;" transform="matrix(1 0 0 1 776 1953)">Margins</text>
  <text style="stroke:none;fill:black;font-family:sans-serif;font-size:13;" transform="matrix(1 0 0 1 776 1971)">Leading and trailing margins on the left and right side of each symbol</text>
  <text style="stroke:none;fill:black;font-family:sans-serif;font-size:13;" transform="matrix(1 0 0 1 776 1989)">can be adjusted by modifying the x-location of the margin guidelines.</text>
  <text style="stroke:none;fill:black;font-family:sans-serif;font-size:13;" transform="matrix(1 0 0 1 776 2007)">Modifications are automatically applied proportionally to all</text>
  <text style="stroke:none;fill:black;font-family:sans-serif;font-size:13;" transform="matrix(1 0 0 1 776 2025)">scales and weights.</text>
  <g transform="matrix(1 0 0 1 1289 1933)">
   <path d="M2.8418 1.86523L4.54102 3.57422C5.40039 4.44336 6.38672 4.38477 7.31445 3.35938L18.0078-8.42773L17.041-9.4043L6.42578 2.27539C6.07422 2.67578 5.74219 2.77344 5.27344 2.30469L4.10156 1.14258C3.63281 0.683594 3.74023 0.341797 4.14062-0.0195312L15.6152-10.8203L14.6387-11.7871L3.04688-0.898438C2.06055 0.0195312 1.98242 0.996094 2.8418 1.86523ZM9.25781-16.3281C8.83789-15.918 8.80859-15.3418 9.04297-14.9512C9.27734-14.5898 9.73633-14.3555 10.3809-14.5215C11.8457-14.8633 13.3691-14.9219 14.7949-13.9844L14.209-12.5293C13.8672-11.6992 14.043-11.1133 14.5801-10.5664L16.875-8.25195C17.3633-7.76367 17.7734-7.74414 18.3398-7.8418L19.4043-8.03711L20.0684-7.36328L20.0293-6.80664C19.9902-6.30859 20.1172-5.92773 20.6055-5.44922L21.3672-4.70703C21.8457-4.22852 22.4609-4.19922 22.9297-4.66797L25.8398-7.58789C26.3086-8.05664 26.2891-8.65234 25.8105-9.13086L25.0391-9.89258C24.5605-10.3711 24.1895-10.5273 23.7109-10.4883L23.1348-10.4395L22.4902-11.0742L22.7344-12.1973C22.8613-12.7637 22.7051-13.2031 22.1191-13.7891L19.9219-15.9766C16.582-19.2969 12.1484-19.2188 9.25781-16.3281ZM10.752-15.957C13.1836-17.7344 16.4746-17.4316 18.7012-15.2051L21.1328-12.793C21.3672-12.5586 21.4062-12.373 21.3379-12.0312L21.0156-10.5469L22.5195-9.0625L23.5059-9.12109C23.7598-9.13086 23.8379-9.11133 24.0332-8.91602L24.6094-8.33984L22.168-5.89844L21.5918-6.47461C21.3965-6.66992 21.3672-6.74805 21.377-7.01172L21.4453-7.98828L19.9512-9.47266L18.4277-9.21875C18.1055-9.15039 17.959-9.17969 17.7148-9.41406L15.7129-11.416C15.459-11.6504 15.4297-11.8164 15.5859-12.1875L16.4648-14.2773C14.9023-15.7324 12.8711-16.3574 10.8398-15.7617C10.6836-15.7227 10.625-15.8496 10.752-15.957Z"/>
  </g>
  <text style="stroke:none;fill:black;font-family:sans-serif;font-size:13;font-weight:bold;" transform="matrix(1 0 0 1 1289 1953)">Exporting</text>
  <text style="stroke:none;fill:black;font-family:sans-serif;font-size:13;" transform="matrix(1 0 0 1 1289 1971)">Symbols should be outlined when exporting to ensure the</text>
  <text style="stroke:none;fill:black;font-family:sans-serif;font-size:13;" transform="matrix(1 0 0 1 1289 1989)">design is preserved when submitting to Xcode.</text>
  <text id="template-version" style="stroke:none;fill:black;font-family:sans-serif;font-size:13;text-anchor:end;" transform="matrix(1 0 0 1 3036 1933)">Template v.4.0</text>
  <text style="stroke:none;fill:black;font-family:sans-serif;font-size:13;text-anchor:end;" transform="matrix(1 0 0 1 3036 1951)">Requires Xcode 14 or greater</text>
  <text id="descriptive-name" style="stroke:none;fill:black;font-family:sans-serif;font-size:13;text-anchor:end;" transform="matrix(1 0 0 1 3036 1969)">Generated from ball</text>
  <text style="stroke:none;fill:black;font-family:sans-serif;font-size:13;text-anchor:end;" transform="matrix(1 0 0 1 3036 1987)">Typeset at 100 points</text>
  <text style="stroke:none;fill:black;font-family:sans-serif;font-size:13;" transform="matrix(1 0 0 1 263 726)">Small</text>
  <text style="stroke:none;fill:black;font-family:sans-serif;font-size:13;" transform="matrix(1 0 0 1 263 1156)">Medium</text>
  <text style="stroke:none;fill:black;font-family:sans-serif;font-size:13;" transform="matrix(1 0 0 1 263 1586)">Large</text>
 </g>
 <g id="Guides">
  <g id="H-reference" style="fill:#27AAE1;stroke:none;" transform="matrix(1 0 0 1 339 696)">
   <path d="M0.993654 0L3.63775 0L29.3281-67.1323L30.0303-67.1323L30.0303-70.459L28.1226-70.459ZM11.6885-24.4799L46.9815-24.4799L46.2315-26.7285L12.4385-26.7285ZM55.1196 0L57.7637 0L30.6382-70.459L29.4326-70.459L29.4326-67.1323Z"/>
  </g>
  <line id="Baseline-S" style="fill:none;stroke:#27AAE1;opacity:1;stroke-width:0.5;" x1="263" x2="3036" y1="696" y2="696"/>
  <line id="Capline-S" style="fill:none;stroke:#27AAE1;opacity:1;stroke-width:0.5;" x1="263" x2="3036" y1="625.541" y2="625.541"/>
  <g id="H-reference" style="fill:#27AAE1;stroke:none;" transform="matrix(1 0 0 1 339 1126)">
   <path d="M0.993654 0L3.63775 0L29.3281-67.1323L30.0303-67.1323L30.0303-70.459L28.1226-70.459ZM11.6885-24.4799L46.9815-24.4799L46.2315-26.7285L12.4385-26.7285ZM55.1196 0L57.7637 0L30.6382-70.459L29.4326-70.459L29.4326-67.1323Z"/>
  </g>
  <line id="Baseline-M" style="fill:none;stroke:#27AAE1;opacity:1;stroke-width:0.5;" x1="263" x2="3036" y1="1126" y2="1126"/>
  <line id="Capline-M" style="fill:none;stroke:#27AAE1;opacity:1;stroke-width:0.5;" x1="263" x2="3036" y1="1055.54" y2="1055.54"/>
  <g id="H-reference" style="fill:#27AAE1;stroke:none;" transform="matrix(1 0 0 1 339 1556)">
   <path d="M0.993654 0L3.63775 0L29.3281-67.1323L30.0303-67.1323L30.0303-70.459L28.1226-70.459ZM11.6885-24.4799L46.9815-24.4799L46.2315-26.7285L12.4385-26.7285ZM55.1196 0L57.7637 0L30.6382-70.459L29.4326-70.459L29.4326-67.1323Z"/>
  </g>
  <line id="Baseline-L" style="fill:none;stroke:#27AAE1;opacity:1;stroke-width:0.5;" x1="263" x2="3036" y1="1556" y2="1556"/>
  <line id="Capline-L" style="fill:none;stroke:#27AAE1;opacity:1;stroke-width:0.5;" x1="263" x2="3036" y1="1485.54" y2="1485.54"/>
  <line id="left-margin-Ultralight-S" style="fill:none;stroke:#00AEEF;stroke-width:0.5;opacity:1.0;" x1="532.112" x2="532.112" y1="600.785" y2="720.121"/>
  <line id="right-margin-Ultralight-S" style="fill:none;stroke:#00AEEF;stroke-width:0.5;opacity:1.0;" x1="587.31" x2="587.31" y1="600.785" y2="720.121"/>
  <line id="left-margin-Regular-S" style="fill:none;stroke:#00AEEF;stroke-width:0.5;opacity:1.0;" x1="1422.25" x2="1422.25" y1="600.785" y2="720.121"/>
  <line id="right-margin-Regular-S" style="fill:none;stroke:#00AEEF;stroke-width:0.5;opacity:1.0;" x1="1477.44" x2="1477.44" y1="600.785" y2="720.121"/>
  <line id="left-margin-Black-S" style="fill:none;stroke:#00AEEF;stroke-width:0.5;opacity:1.0;" x1="2905.8" x2="2905.8" y1="600.785" y2="720.121"/>
  <line id="right-margin-Black-S" style="fill:none;stroke:#00AEEF;stroke-width:0.5;opacity:1.0;" x1="2961" x2="2961" y1="600.785" y2="720.121"/>
  <line id="left-margin-Regular-M" style="fill:none;stroke:#00AEEF;stroke-width:0.5;opacity:1.0;" x1="1414.61" x2="1414.61" y1="1030.79" y2="1150.12"/>
  <line id="right-margin-Regular-M" style="fill:none;stroke:#00AEEF;stroke-width:0.5;opacity:1.0;" x1="1485.07" x2="1485.07" y1="1030.79" y2="1150.12"/>
 </g>
 <g id="Symbols">
  <g id="Black-L" transform="matrix(1 0 0 1 2887.97 1556)">
   <path d="M41.1852-80.4817C32.6462-79.7177 23.7522-76.0967 16.9172-70.6107C7.8102-63.2617 2.0232-52.8937 0.301205-40.8217C-0.0547953-38.3367-0.000795315-31.8747 0.407205-29.1057C1.0992-24.1697 2.5552-19.5017 4.7922-15.0097C10.6682-3.16866 21.3202 5.44134 34.2082 8.77834C43.2442 11.1223 53.1502 10.5183 61.9022 7.11034C68.0982 4.67834 73.2462 1.25134 78.0042-3.64766C81.6432-7.37566 84.0402-10.8197 86.2592-15.4177C88.3712-19.7857 89.6322-23.8327 90.3772-28.5727C90.9282-32.1237 90.9282-38.3367 90.3772-41.8877C89.6142-46.7337 88.3532-50.7637 86.1702-55.2017C83.9862-59.6577 81.5192-63.1547 78.0212-66.7767C74.3112-70.6287 70.5652-73.3807 65.7542-75.8127C58.1032-79.6647 49.8132-81.2447 41.1852-80.4817ZM50.2212-72.7947C58.9372-71.6227 66.7662-67.6637 72.7672-61.3977C78.0752-55.8407 81.3592-49.2897 82.7972-41.3547C83.2582-38.8337 83.3472-33.5077 82.9742-30.6147C80.7912-13.2877 67.3702 0.115345 50.0082 2.33434C47.1502 2.68934 41.8242 2.60034 39.3032 2.13934C32.9302 0.985345 27.7112-1.25166 22.7582-4.92666C15.4972-10.3227 10.4022-18.2937 8.4312-27.2417C7.7392-30.4017 7.5612-32.5847 7.6682-36.3657C7.7572-39.8637 7.9872-41.6207 8.7692-44.6567C12.6212-59.6927 25.3852-70.8947 40.9012-72.8477C42.9072-73.0967 48.1792-73.0607 50.2212-72.7947ZM59.1332-63.1907C58.8132-63.0487 57.6952-62.1077 56.6472-61.1137C53.5232-58.0957 50.8602-56.2137 47.0612-54.3137C41.6642-51.6337 36.4632-50.4437 30.1602-50.4437C26.6282-50.4617 24.5682-50.6927 21.2312-51.4917C18.9232-52.0417 17.8932-52.0067 16.8642-51.3317C14.4322-49.7157 14.6802-46.0587 17.2902-44.7627C17.9642-44.4437 21.1422-43.6977 23.6812-43.2717C26.4682-42.8107 34.1732-42.8107 37.0482-43.2717C46.6702-44.8167 55.4052-49.1837 62.0972-55.8227C63.0212-56.7457 63.8902-57.7937 64.0862-58.2017C65.2042-60.6517 63.3582-63.4747 60.6592-63.4567C60.1452-63.4387 59.4522-63.3327 59.1332-63.1907ZM26.0772-27.4717C22.9352-27.1347 18.3372-26.2117 17.2902-25.6967C15.9412-25.0227 15.1772-23.7617 15.1772-22.2527C15.1952-20.9927 15.8342-19.8207 16.8812-19.1107C17.8582-18.4717 19.2602-18.4717 21.9942-19.1107C24.9412-19.8027 27.0002-20.0337 30.5152-20.0157C36.5342-19.9987 41.4692-18.8267 46.9372-16.1457C51.4282-13.9447 54.4992-11.6547 58.1562-7.78466C59.6832-6.18666 60.6242-5.33466 61.0852-5.13966C63.4112-4.21666 65.9852-5.79666 66.1632-8.24566C66.2692-9.66666 65.9852-10.3937 64.7072-11.8677C57.3222-20.4597 47.0792-25.9097 35.6462-27.3297C33.6582-27.5787 27.8702-27.6677 26.0772-27.4717Z"/>
  </g>
  <g id="Heavy-L" transform="matrix(1 0 0 1 2591.26 1556)">
   <path d="M41.1852-80.4817C32.6462-79.7177 23.7522-76.0967 16.9172-70.6107C7.8102-63.2617 2.0232-52.8937 0.301205-40.8217C-0.0547953-38.3367-0.000795315-31.8747 0.407205-29.1057C1.0992-24.1697 2.5552-19.5017 4.7922-15.0097C10.6682-3.16866 21.3202 5.44134 34.2082 8.77834C43.2442 11.1223 53.1502 10.5183 61.9022 7.11034C68.0982 4.67834 73.2462 1.25134 78.0042-3.64766C81.6432-7.37566 84.0402-10.8197 86.2592-15.4177C88.3712-19.7857 89.6322-23.8327 90.3772-28.5727C90.9282-32.1237 90.9282-38.3367 90.3772-41.8877C89.6142-46.7337 88.3532-50.7637 86.1702-55.2017C83.9862-59.6577 81.5192-63.1547 78.0212-66.7767C74.3112-70.6287 70.5652-73.3807 65.7542-75.8127C58.1032-79.6647 49.8132-81.2447 41.1852-80.4817ZM50.2212-72.7947C58.9372-71.6227 66.7662-67.6637 72.7672-61.3977C78.0752-55.8407 81.3592-49.2897 82.7972-41.3547C83.2582-38.8337 83.3472-33.5077 82.9742-30.6147C80.7912-13.2877 67.3702 0.115345 50.0082 2.33434C47.1502 2.68934 41.8242 2.60034 39.3032 2.13934C32.9302 0.985345 27.7112-1.25166 22.7582-4.92666C15.4972-10.3227 10.4022-18.2937 8.4312-27.2417C7.7392-30.4017 7.5612-32.5847 7.6682-36.3657C7.7572-39.8637 7.9872-41.6207 8.7692-44.6567C12.6212-59.6927 25.3852-70.8947 40.9012-72.8477C42.9072-73.0967 48.1792-73.0607 50.2212-72.7947ZM59.1332-63.1907C58.8132-63.0487 57.6952-62.1077 56.6472-61.1137C53.5232-58.0957 50.8602-56.2137 47.0612-54.3137C41.6642-51.6337 36.4632-50.4437 30.1602-50.4437C26.6282-50.4617 24.5682-50.6927 21.2312-51.4917C18.9232-52.0417 17.8932-52.0067 16.8642-51.3317C14.4322-49.7157 14.6802-46.0587 17.2902-44.7627C17.9642-44.4437 21.1422-43.6977 23.6812-43.2717C26.4682-42.8107 34.1732-42.8107 37.0482-43.2717C46.6702-44.8167 55.4052-49.1837 62.0972-55.8227C63.0212-56.7457 63.8902-57.7937 64.0862-58.2017C65.2042-60.6517 63.3582-63.4747 60.6592-63.4567C60.1452-63.4387 59.4522-63.3327 59.1332-63.1907ZM26.0772-27.4717C22.9352-27.1347 18.3372-26.2117 17.2902-25.6967C15.9412-25.0227 15.1772-23.7617 15.1772-22.2527C15.1952-20.9927 15.8342-19.8207 16.8812-19.1107C17.8582-18.4717 19.2602-18.4717 21.9942-19.1107C24.9412-19.8027 27.0002-20.0337 30.5152-20.0157C36.5342-19.9987 41.4692-18.8267 46.9372-16.1457C51.4282-13.9447 54.4992-11.6547 58.1562-7.78466C59.6832-6.18666 60.6242-5.33466 61.0852-5.13966C63.4112-4.21666 65.9852-5.79666 66.1632-8.24566C66.2692-9.66666 65.9852-10.3937 64.7072-11.8677C57.3222-20.4597 47.0792-25.9097 35.6462-27.3297C33.6582-27.5787 27.8702-27.6677 26.0772-27.4717Z"/>
  </g>
  <g id="Bold-L" transform="matrix(1 0 0 1 2294.55 1556)">
   <path d="M41.1852-80.4817C32.6462-79.7177 23.7522-76.0967 16.9172-70.6107C7.8102-63.2617 2.0232-52.8937 0.301205-40.8217C-0.0547953-38.3367-0.000795315-31.8747 0.407205-29.1057C1.0992-24.1697 2.5552-19.5017 4.7922-15.0097C10.6682-3.16866 21.3202 5.44134 34.2082 8.77834C43.2442 11.1223 53.1502 10.5183 61.9022 7.11034C68.0982 4.67834 73.2462 1.25134 78.0042-3.64766C81.6432-7.37566 84.0402-10.8197 86.2592-15.4177C88.3712-19.7857 89.6322-23.8327 90.3772-28.5727C90.9282-32.1237 90.9282-38.3367 90.3772-41.8877C89.6142-46.7337 88.3532-50.7637 86.1702-55.2017C83.9862-59.6577 81.5192-63.1547 78.0212-66.7767C74.3112-70.6287 70.5652-73.3807 65.7542-75.8127C58.1032-79.6647 49.8132-81.2447 41.1852-80.4817ZM50.2212-72.7947C58.9372-71.6227 66.7662-67.6637 72.7672-61.3977C78.0752-55.8407 81.3592-49.2897 82.7972-41.3547C83.2582-38.8337 83.3472-33.5077 82.9742-30.6147C80.7912-13.2877 67.3702 0.115345 50.0082 2.33434C47.1502 2.68934 41.8242 2.60034 39.3032 2.13934C32.9302 0.985345 27.7112-1.25166 22.7582-4.92666C15.4972-10.3227 10.4022-18.2937 8.4312-27.2417C7.7392-30.4017 7.5612-32.5847 7.6682-36.3657C7.7572-39.8637 7.9872-41.6207 8.7692-44.6567C12.6212-59.6927 25.3852-70.8947 40.9012-72.8477C42.9072-73.0967 48.1792-73.0607 50.2212-72.7947ZM59.1332-63.1907C58.8132-63.0487 57.6952-62.1077 56.6472-61.1137C53.5232-58.0957 50.8602-56.2137 47.0612-54.3137C41.6642-51.6337 36.4632-50.4437 30.1602-50.4437C26.6282-50.4617 24.5682-50.6927 21.2312-51.4917C18.9232-52.0417 17.8932-52.0067 16.8642-51.3317C14.4322-49.7157 14.6802-46.0587 17.2902-44.7627C17.9642-44.4437 21.1422-43.6977 23.6812-43.2717C26.4682-42.8107 34.1732-42.8107 37.0482-43.2717C46.6702-44.8167 55.4052-49.1837 62.0972-55.8227C63.0212-56.7457 63.8902-57.7937 64.0862-58.2017C65.2042-60.6517 63.3582-63.4747 60.6592-63.4567C60.1452-63.4387 59.4522-63.3327 59.1332-63.1907ZM26.0772-27.4717C22.9352-27.1347 18.3372-26.2117 17.2902-25.6967C15.9412-25.0227 15.1772-23.7617 15.1772-22.2527C15.1952-20.9927 15.8342-19.8207 16.8812-19.1107C17.8582-18.4717 19.2602-18.4717 21.9942-19.1107C24.9412-19.8027 27.0002-20.0337 30.5152-20.0157C36.5342-19.9987 41.4692-18.8267 46.9372-16.1457C51.4282-13.9447 54.4992-11.6547 58.1562-7.78466C59.6832-6.18666 60.6242-5.33466 61.0852-5.13966C63.4112-4.21666 65.9852-5.79666 66.1632-8.24566C66.2692-9.66666 65.9852-10.3937 64.7072-11.8677C57.3222-20.4597 47.0792-25.9097 35.6462-27.3297C33.6582-27.5787 27.8702-27.6677 26.0772-27.4717Z"/>
  </g>
  <g id="Semibold-L" transform="matrix(1 0 0 1 1997.84 1556)">
   <path d="M41.1852-80.4817C32.6462-79.7177 23.7522-76.0967 16.9172-70.6107C7.8102-63.2617 2.0232-52.8937 0.301205-40.8217C-0.0547953-38.3367-0.000795315-31.8747 0.407205-29.1057C1.0992-24.1697 2.5552-19.5017 4.7922-15.0097C10.6682-3.16866 21.3202 5.44134 34.2082 8.77834C43.2442 11.1223 53.1502 10.5183 61.9022 7.11034C68.0982 4.67834 73.2462 1.25134 78.0042-3.64766C81.6432-7.37566 84.0402-10.8197 86.2592-15.4177C88.3712-19.7857 89.6322-23.8327 90.3772-28.5727C90.9282-32.1237 90.9282-38.3367 90.3772-41.8877C89.6142-46.7337 88.3532-50.7637 86.1702-55.2017C83.9862-59.6577 81.5192-63.1547 78.0212-66.7767C74.3112-70.6287 70.5652-73.3807 65.7542-75.8127C58.1032-79.6647 49.8132-81.2447 41.1852-80.4817ZM50.2212-72.7947C58.9372-71.6227 66.7662-67.6637 72.7672-61.3977C78.0752-55.8407 81.3592-49.2897 82.7972-41.3547C83.2582-38.8337 83.3472-33.5077 82.9742-30.6147C80.7912-13.2877 67.3702 0.115345 50.0082 2.33434C47.1502 2.68934 41.8242 2.60034 39.3032 2.13934C32.9302 0.985345 27.7112-1.25166 22.7582-4.92666C15.4972-10.3227 10.4022-18.2937 8.4312-27.2417C7.7392-30.4017 7.5612-32.5847 7.6682-36.3657C7.7572-39.8637 7.9872-41.6207 8.7692-44.6567C12.6212-59.6927 25.3852-70.8947 40.9012-72.8477C42.9072-73.0967 48.1792-73.0607 50.2212-72.7947ZM59.1332-63.1907C58.8132-63.0487 57.6952-62.1077 56.6472-61.1137C53.5232-58.0957 50.8602-56.2137 47.0612-54.3137C41.6642-51.6337 36.4632-50.4437 30.1602-50.4437C26.6282-50.4617 24.5682-50.6927 21.2312-51.4917C18.9232-52.0417 17.8932-52.0067 16.8642-51.3317C14.4322-49.7157 14.6802-46.0587 17.2902-44.7627C17.9642-44.4437 21.1422-43.6977 23.6812-43.2717C26.4682-42.8107 34.1732-42.8107 37.0482-43.2717C46.6702-44.8167 55.4052-49.1837 62.0972-55.8227C63.0212-56.7457 63.8902-57.7937 64.0862-58.2017C65.2042-60.6517 63.3582-63.4747 60.6592-63.4567C60.1452-63.4387 59.4522-63.3327 59.1332-63.1907ZM26.0772-27.4717C22.9352-27.1347 18.3372-26.2117 17.2902-25.6967C15.9412-25.0227 15.1772-23.7617 15.1772-22.2527C15.1952-20.9927 15.8342-19.8207 16.8812-19.1107C17.8582-18.4717 19.2602-18.4717 21.9942-19.1107C24.9412-19.8027 27.0002-20.0337 30.5152-20.0157C36.5342-19.9987 41.4692-18.8267 46.9372-16.1457C51.4282-13.9447 54.4992-11.6547 58.1562-7.78466C59.6832-6.18666 60.6242-5.33466 61.0852-5.13966C63.4112-4.21666 65.9852-5.79666 66.1632-8.24566C66.2692-9.66666 65.9852-10.3937 64.7072-11.8677C57.3222-20.4597 47.0792-25.9097 35.6462-27.3297C33.6582-27.5787 27.8702-27.6677 26.0772-27.4717Z"/>
  </g>
  <g id="Medium-L" transform="matrix(1 0 0 1 1701.13 1556)">
   <path d="M41.1852-80.4817C32.6462-79.7177 23.7522-76.0967 16.9172-70.6107C7.8102-63.2617 2.0232-52.8937 0.301205-40.8217C-0.0547953-38.3367-0.000795315-31.8747 0.407205-29.1057C1.0992-24.1697 2.5552-19.5017 4.7922-15.0097C10.6682-3.16866 21.3202 5.44134 34.2082 8.77834C43.2442 11.1223 53.1502 10.5183 61.9022 7.11034C68.0982 4.67834 73.2462 1.25134 78.0042-3.64766C81.6432-7.37566 84.0402-10.8197 86.2592-15.4177C88.3712-19.7857 89.6322-23.8327 90.3772-28.5727C90.9282-32.1237 90.9282-38.3367 90.3772-41.8877C89.6142-46.7337 88.3532-50.7637 86.1702-55.2017C83.9862-59.6577 81.5192-63.1547 78.0212-66.7767C74.3112-70.6287 70.5652-73.3807 65.7542-75.8127C58.1032-79.6647 49.8132-81.2447 41.1852-80.4817ZM50.2212-72.7947C58.9372-71.6227 66.7662-67.6637 72.7672-61.3977C78.0752-55.8407 81.3592-49.2897 82.7972-41.3547C83.2582-38.8337 83.3472-33.5077 82.9742-30.6147C80.7912-13.2877 67.3702 0.115345 50.0082 2.33434C47.1502 2.68934 41.8242 2.60034 39.3032 2.13934C32.9302 0.985345 27.7112-1.25166 22.7582-4.92666C15.4972-10.3227 10.4022-18.2937 8.4312-27.2417C7.7392-30.4017 7.5612-32.5847 7.6682-36.3657C7.7572-39.8637 7.9872-41.6207 8.7692-44.6567C12.6212-59.6927 25.3852-70.8947 40.9012-72.8477C42.9072-73.0967 48.1792-73.0607 50.2212-72.7947ZM59.1332-63.1907C58.8132-63.0487 57.6952-62.1077 56.6472-61.1137C53.5232-58.0957 50.8602-56.2137 47.0612-54.3137C41.6642-51.6337 36.4632-50.4437 30.1602-50.4437C26.6282-50.4617 24.5682-50.6927 21.2312-51.4917C18.9232-52.0417 17.8932-52.0067 16.8642-51.3317C14.4322-49.7157 14.6802-46.0587 17.2902-44.7627C17.9642-44.4437 21.1422-43.6977 23.6812-43.2717C26.4682-42.8107 34.1732-42.8107 37.0482-43.2717C46.6702-44.8167 55.4052-49.1837 62.0972-55.8227C63.0212-56.7457 63.8902-57.7937 64.0862-58.2017C65.2042-60.6517 63.3582-63.4747 60.6592-63.4567C60.1452-63.4387 59.4522-63.3327 59.1332-63.1907ZM26.0772-27.4717C22.9352-27.1347 18.3372-26.2117 17.2902-25.6967C15.9412-25.0227 15.1772-23.7617 15.1772-22.2527C15.1952-20.9927 15.8342-19.8207 16.8812-19.1107C17.8582-18.4717 19.2602-18.4717 21.9942-19.1107C24.9412-19.8027 27.0002-20.0337 30.5152-20.0157C36.5342-19.9987 41.4692-18.8267 46.9372-16.1457C51.4282-13.9447 54.4992-11.6547 58.1562-7.78466C59.6832-6.18666 60.6242-5.33466 61.0852-5.13966C63.4112-4.21666 65.9852-5.79666 66.1632-8.24566C66.2692-9.66666 65.9852-10.3937 64.7072-11.8677C57.3222-20.4597 47.0792-25.9097 35.6462-27.3297C33.6582-27.5787 27.8702-27.6677 26.0772-27.4717Z"/>
  </g>
  <g id="Regular-L" transform="matrix(1 0 0 1 1404.42 1556)">
   <path d="M41.1852-80.4817C32.6462-79.7177 23.7522-76.0967 16.9172-70.6107C7.8102-63.2617 2.0232-52.8937 0.301205-40.8217C-0.0547953-38.3367-0.000795315-31.8747 0.407205-29.1057C1.0992-24.1697 2.5552-19.5017 4.7922-15.0097C10.6682-3.16866 21.3202 5.44134 34.2082 8.77834C43.2442 11.1223 53.1502 10.5183 61.9022 7.11034C68.0982 4.67834 73.2462 1.25134 78.0042-3.64766C81.6432-7.37566 84.0402-10.8197 86.2592-15.4177C88.3712-19.7857 89.6322-23.8327 90.3772-28.5727C90.9282-32.1237 90.9282-38.3367 90.3772-41.8877C89.6142-46.7337 88.3532-50.7637 86.1702-55.2017C83.9862-59.6577 81.5192-63.1547 78.0212-66.7767C74.3112-70.6287 70.5652-73.3807 65.7542-75.8127C58.1032-79.6647 49.8132-81.2447 41.1852-80.4817ZM50.2212-72.7947C58.9372-71.6227 66.7662-67.6637 72.7672-61.3977C78.0752-55.8407 81.3592-49.2897 82.7972-41.3547C83.2582-38.8337 83.3472-33.5077 82.9742-30.6147C80.7912-13.2877 67.3702 0.115345 50.0082 2.33434C47.1502 2.68934 41.8242 2.60034 39.3032 2.13934C32.9302 0.985345 27.7112-1.25166 22.7582-4.92666C15.4972-10.3227 10.4022-18.2937 8.4312-27.2417C7.7392-30.4017 7.5612-32.5847 7.6682-36.3657C7.7572-39.8637 7.9872-41.6207 8.7692-44.6567C12.6212-59.6927 25.3852-70.8947 40.9012-72.8477C42.9072-73.0967 48.1792-73.0607 50.2212-72.7947ZM59.1332-63.1907C58.8132-63.0487 57.6952-62.1077 56.6472-61.1137C53.5232-58.0957 50.8602-56.2137 47.0612-54.3137C41.6642-51.6337 36.4632-50.4437 30.1602-50.4437C26.6282-50.4617 24.5682-50.6927 21.2312-51.4917C18.9232-52.0417 17.8932-52.0067 16.8642-51.3317C14.4322-49.7157 14.6802-46.0587 17.2902-44.7627C17.9642-44.4437 21.1422-43.6977 23.6812-43.2717C26.4682-42.8107 34.1732-42.8107 37.0482-43.2717C46.6702-44.8167 55.4052-49.1837 62.0972-55.8227C63.0212-56.7457 63.8902-57.7937 64.0862-58.2017C65.2042-60.6517 63.3582-63.4747 60.6592-63.4567C60.1452-63.4387 59.4522-63.3327 59.1332-63.1907ZM26.0772-27.4717C22.9352-27.1347 18.3372-26.2117 17.2902-25.6967C15.9412-25.0227 15.1772-23.7617 15.1772-22.2527C15.1952-20.9927 15.8342-19.8207 16.8812-19.1107C17.8582-18.4717 19.2602-18.4717 21.9942-19.1107C24.9412-19.8027 27.0002-20.0337 30.5152-20.0157C36.5342-19.9987 41.4692-18.8267 46.9372-16.1457C51.4282-13.9447 54.4992-11.6547 58.1562-7.78466C59.6832-6.18666 60.6242-5.33466 61.0852-5.13966C63.4112-4.21666 65.9852-5.79666 66.1632-8.24566C66.2692-9.66666 65.9852-10.3937 64.7072-11.8677C57.3222-20.4597 47.0792-25.9097 35.6462-27.3297C33.6582-27.5787 27.8702-27.6677 26.0772-27.4717Z"/>
  </g>
  <g id="Light-L" transform="matrix(1 0 0 1 1107.71 1556)">
   <path d="M41.1852-80.4817C32.6462-79.7177 23.7522-76.0967 16.9172-70.6107C7.8102-63.2617 2.0232-52.8937 0.301205-40.8217C-0.0547953-38.3367-0.000795315-31.8747 0.407205-29.1057C1.0992-24.1697 2.5552-19.5017 4.7922-15.0097C10.6682-3.16866 21.3202 5.44134 34.2082 8.77834C43.2442 11.1223 53.1502 10.5183 61.9022 7.11034C68.0982 4.67834 73.2462 1.25134 78.0042-3.64766C81.6432-7.37566 84.0402-10.8197 86.2592-15.4177C88.3712-19.7857 89.6322-23.8327 90.3772-28.5727C90.9282-32.1237 90.9282-38.3367 90.3772-41.8877C89.6142-46.7337 88.3532-50.7637 86.1702-55.2017C83.9862-59.6577 81.5192-63.1547 78.0212-66.7767C74.3112-70.6287 70.5652-73.3807 65.7542-75.8127C58.1032-79.6647 49.8132-81.2447 41.1852-80.4817ZM50.2212-72.7947C58.9372-71.6227 66.7662-67.6637 72.7672-61.3977C78.0752-55.8407 81.3592-49.2897 82.7972-41.3547C83.2582-38.8337 83.3472-33.5077 82.9742-30.6147C80.7912-13.2877 67.3702 0.115345 50.0082 2.33434C47.1502 2.68934 41.8242 2.60034 39.3032 2.13934C32.9302 0.985345 27.7112-1.25166 22.7582-4.92666C15.4972-10.3227 10.4022-18.2937 8.4312-27.2417C7.7392-30.4017 7.5612-32.5847 7.6682-36.3657C7.7572-39.8637 7.9872-41.6207 8.7692-44.6567C12.6212-59.6927 25.3852-70.8947 40.9012-72.8477C42.9072-73.0967 48.1792-73.0607 50.2212-72.7947ZM59.1332-63.1907C58.8132-63.0487 57.6952-62.1077 56.6472-61.1137C53.5232-58.0957 50.8602-56.2137 47.0612-54.3137C41.6642-51.6337 36.4632-50.4437 30.1602-50.4437C26.6282-50.4617 24.5682-50.6927 21.2312-51.4917C18.9232-52.0417 17.8932-52.0067 16.8642-51.3317C14.4322-49.7157 14.6802-46.0587 17.2902-44.7627C17.9642-44.4437 21.1422-43.6977 23.6812-43.2717C26.4682-42.8107 34.1732-42.8107 37.0482-43.2717C46.6702-44.8167 55.4052-49.1837 62.0972-55.8227C63.0212-56.7457 63.8902-57.7937 64.0862-58.2017C65.2042-60.6517 63.3582-63.4747 60.6592-63.4567C60.1452-63.4387 59.4522-63.3327 59.1332-63.1907ZM26.0772-27.4717C22.9352-27.1347 18.3372-26.2117 17.2902-25.6967C15.9412-25.0227 15.1772-23.7617 15.1772-22.2527C15.1952-20.9927 15.8342-19.8207 16.8812-19.1107C17.8582-18.4717 19.2602-18.4717 21.9942-19.1107C24.9412-19.8027 27.0002-20.0337 30.5152-20.0157C36.5342-19.9987 41.4692-18.8267 46.9372-16.1457C51.4282-13.9447 54.4992-11.6547 58.1562-7.78466C59.6832-6.18666 60.6242-5.33466 61.0852-5.13966C63.4112-4.21666 65.9852-5.79666 66.1632-8.24566C66.2692-9.66666 65.9852-10.3937 64.7072-11.8677C57.3222-20.4597 47.0792-25.9097 35.6462-27.3297C33.6582-27.5787 27.8702-27.6677 26.0772-27.4717Z"/>
  </g>
  <g id="Thin-L" transform="matrix(1 0 0 1 810.994 1556)">
   <path d="M41.1852-80.4817C32.6462-79.7177 23.7522-76.0967 16.9172-70.6107C7.8102-63.2617 2.0232-52.8937 0.301205-40.8217C-0.0547953-38.3367-0.000795315-31.8747 0.407205-29.1057C1.0992-24.1697 2.5552-19.5017 4.7922-15.0097C10.6682-3.16866 21.3202 5.44134 34.2082 8.77834C43.2442 11.1223 53.1502 10.5183 61.9022 7.11034C68.0982 4.67834 73.2462 1.25134 78.0042-3.64766C81.6432-7.37566 84.0402-10.8197 86.2592-15.4177C88.3712-19.7857 89.6322-23.8327 90.3772-28.5727C90.9282-32.1237 90.9282-38.3367 90.3772-41.8877C89.6142-46.7337 88.3532-50.7637 86.1702-55.2017C83.9862-59.6577 81.5192-63.1547 78.0212-66.7767C74.3112-70.6287 70.5652-73.3807 65.7542-75.8127C58.1032-79.6647 49.8132-81.2447 41.1852-80.4817ZM50.2212-72.7947C58.9372-71.6227 66.7662-67.6637 72.7672-61.3977C78.0752-55.8407 81.3592-49.2897 82.7972-41.3547C83.2582-38.8337 83.3472-33.5077 82.9742-30.6147C80.7912-13.2877 67.3702 0.115345 50.0082 2.33434C47.1502 2.68934 41.8242 2.60034 39.3032 2.13934C32.9302 0.985345 27.7112-1.25166 22.7582-4.92666C15.4972-10.3227 10.4022-18.2937 8.4312-27.2417C7.7392-30.4017 7.5612-32.5847 7.6682-36.3657C7.7572-39.8637 7.9872-41.6207 8.7692-44.6567C12.6212-59.6927 25.3852-70.8947 40.9012-72.8477C42.9072-73.0967 48.1792-73.0607 50.2212-72.7947ZM59.1332-63.1907C58.8132-63.0487 57.6952-62.1077 56.6472-61.1137C53.5232-58.0957 50.8602-56.2137 47.0612-54.3137C41.6642-51.6337 36.4632-50.4437 30.1602-50.4437C26.6282-50.4617 24.5682-50.6927 21.2312-51.4917C18.9232-52.0417 17.8932-52.0067 16.8642-51.3317C14.4322-49.7157 14.6802-46.0587 17.2902-44.7627C17.9642-44.4437 21.1422-43.6977 23.6812-43.2717C26.4682-42.8107 34.1732-42.8107 37.0482-43.2717C46.6702-44.8167 55.4052-49.1837 62.0972-55.8227C63.0212-56.7457 63.8902-57.7937 64.0862-58.2017C65.2042-60.6517 63.3582-63.4747 60.6592-63.4567C60.1452-63.4387 59.4522-63.3327 59.1332-63.1907ZM26.0772-27.4717C22.9352-27.1347 18.3372-26.2117 17.2902-25.6967C15.9412-25.0227 15.1772-23.7617 15.1772-22.2527C15.1952-20.9927 15.8342-19.8207 16.8812-19.1107C17.8582-18.4717 19.2602-18.4717 21.9942-19.1107C24.9412-19.8027 27.0002-20.0337 30.5152-20.0157C36.5342-19.9987 41.4692-18.8267 46.9372-16.1457C51.4282-13.9447 54.4992-11.6547 58.1562-7.78466C59.6832-6.18666 60.6242-5.33466 61.0852-5.13966C63.4112-4.21666 65.9852-5.79666 66.1632-8.24566C66.2692-9.66666 65.9852-10.3937 64.7072-11.8677C57.3222-20.4597 47.0792-25.9097 35.6462-27.3297C33.6582-27.5787 27.8702-27.6677 26.0772-27.4717Z"/>
  </g>
  <g id="Ultralight-L" transform="matrix(1 0 0 1 514.283 1556)">
   <path d="M41.1852-80.4817C32.6462-79.7177 23.7522-76.0967 16.9172-70.6107C7.8102-63.2617 2.0232-52.8937 0.301205-40.8217C-0.0547953-38.3367-0.000795315-31.8747 0.407205-29.1057C1.0992-24.1697 2.5552-19.5017 4.7922-15.0097C10.6682-3.16866 21.3202 5.44134 34.2082 8.77834C43.2442 11.1223 53.1502 10.5183 61.9022 7.11034C68.0982 4.67834 73.2462 1.25134 78.0042-3.64766C81.6432-7.37566 84.0402-10.8197 86.2592-15.4177C88.3712-19.7857 89.6322-23.8327 90.3772-28.5727C90.9282-32.1237 90.9282-38.3367 90.3772-41.8877C89.6142-46.7337 88.3532-50.7637 86.1702-55.2017C83.9862-59.6577 81.5192-63.1547 78.0212-66.7767C74.3112-70.6287 70.5652-73.3807 65.7542-75.8127C58.1032-79.6647 49.8132-81.2447 41.1852-80.4817ZM50.2212-72.7947C58.9372-71.6227 66.7662-67.6637 72.7672-61.3977C78.0752-55.8407 81.3592-49.2897 82.7972-41.3547C83.2582-38.8337 83.3472-33.5077 82.9742-30.6147C80.7912-13.2877 67.3702 0.115345 50.0082 2.33434C47.1502 2.68934 41.8242 2.60034 39.3032 2.13934C32.9302 0.985345 27.7112-1.25166 22.7582-4.92666C15.4972-10.3227 10.4022-18.2937 8.4312-27.2417C7.7392-30.4017 7.5612-32.5847 7.6682-36.3657C7.7572-39.8637 7.9872-41.6207 8.7692-44.6567C12.6212-59.6927 25.3852-70.8947 40.9012-72.8477C42.9072-73.0967 48.1792-73.0607 50.2212-72.7947ZM59.1332-63.1907C58.8132-63.0487 57.6952-62.1077 56.6472-61.1137C53.5232-58.0957 50.8602-56.2137 47.0612-54.3137C41.6642-51.6337 36.4632-50.4437 30.1602-50.4437C26.6282-50.4617 24.5682-50.6927 21.2312-51.4917C18.9232-52.0417 17.8932-52.0067 16.8642-51.3317C14.4322-49.7157 14.6802-46.0587 17.2902-44.7627C17.9642-44.4437 21.1422-43.6977 23.6812-43.2717C26.4682-42.8107 34.1732-42.8107 37.0482-43.2717C46.6702-44.8167 55.4052-49.1837 62.0972-55.8227C63.0212-56.7457 63.8902-57.7937 64.0862-58.2017C65.2042-60.6517 63.3582-63.4747 60.6592-63.4567C60.1452-63.4387 59.4522-63.3327 59.1332-63.1907ZM26.0772-27.4717C22.9352-27.1347 18.3372-26.2117 17.2902-25.6967C15.9412-25.0227 15.1772-23.7617 15.1772-22.2527C15.1952-20.9927 15.8342-19.8207 16.8812-19.1107C17.8582-18.4717 19.2602-18.4717 21.9942-19.1107C24.9412-19.8027 27.0002-20.0337 30.5152-20.0157C36.5342-19.9987 41.4692-18.8267 46.9372-16.1457C51.4282-13.9447 54.4992-11.6547 58.1562-7.78466C59.6832-6.18666 60.6242-5.33466 61.0852-5.13966C63.4112-4.21666 65.9852-5.79666 66.1632-8.24566C66.2692-9.66666 65.9852-10.3937 64.7072-11.8677C57.3222-20.4597 47.0792-25.9097 35.6462-27.3297C33.6582-27.5787 27.8702-27.6677 26.0772-27.4717Z"/>
  </g>
  <g id="Black-M" transform="matrix(1 0 0 1 2898.17 1126)">
   <path d="M31.941-70.309C25.322-69.717 18.427-66.909 13.129-62.657C6.069-56.96 1.583-48.923 0.248-39.565C-0.028-37.638 0.014-32.629 0.33-30.482C0.867-26.656 1.995-23.037 3.729-19.555C8.285-10.376 16.542-3.70196 26.533-1.11496C33.537 0.702039 41.216 0.234039 48.001-2.40796C52.804-4.29396 56.795-6.94996 60.483-10.748C63.304-13.638 65.162-16.308 66.882-19.872C68.52-23.257 69.497-26.395 70.075-30.069C70.501-32.822 70.501-37.638 70.075-40.391C69.483-44.148 68.506-47.272 66.813-50.712C65.12-54.166 63.208-56.877 60.496-59.685C57.62-62.671 54.717-64.804 50.987-66.689C45.056-69.676 38.629-70.9 31.941-70.309ZM38.946-64.35C45.703-63.442 51.772-60.373 56.423-55.515C60.538-51.207 63.084-46.129 64.198-39.978C64.556-38.024 64.625-33.895 64.336-31.652C62.643-18.221 52.239-7.82996 38.781-6.10996C36.565-5.83496 32.436-5.90396 30.482-6.26196C25.542-7.15596 21.496-8.88996 17.656-11.739C12.028-15.922 8.078-22.101 6.551-29.037C6.014-31.487 5.876-33.18 5.959-36.111C6.028-38.822 6.207-40.184 6.812-42.537C9.798-54.194 19.693-62.877 31.721-64.391C33.276-64.584 37.363-64.556 38.946-64.35ZM45.854-56.905C45.606-56.795 44.739-56.065 43.927-55.295C41.505-52.955 39.441-51.496 36.496-50.024C32.312-47.946 28.28-47.024 23.395-47.024C20.656-47.038 19.06-47.216 16.473-47.836C14.684-48.262 13.886-48.235 13.087-47.712C11.202-46.46 11.395-43.625 13.418-42.62C13.941-42.372 16.404-41.794 18.372-41.464C20.532-41.106 26.505-41.106 28.734-41.464C36.193-42.661 42.964-46.047 48.152-51.194C48.868-51.909 49.542-52.721 49.694-53.038C50.561-54.937 49.129-57.125 47.038-57.111C46.638-57.097 46.102-57.015 45.854-56.905ZM20.23-29.216C17.794-28.955 14.23-28.239 13.418-27.84C12.372-27.317 11.78-26.34 11.78-25.17C11.794-24.193 12.289-23.285 13.101-22.734C13.858-22.239 14.945-22.239 17.065-22.734C19.349-23.271 20.945-23.45 23.67-23.436C28.335-23.422 32.161-22.514 36.4-20.436C39.881-18.73 42.262-16.954 45.097-13.954C46.281-12.716 47.01-12.055 47.368-11.904C49.171-11.188 51.166-12.413 51.304-14.312C51.386-15.413 51.166-15.977 50.175-17.12C44.45-23.78 36.51-28.005 27.647-29.106C26.106-29.299 21.62-29.368 20.23-29.216Z"/>
  </g>
  <g id="Heavy-M" transform="matrix(1 0 0 1 2601.46 1126)">
   <path d="M31.941-70.309C25.322-69.717 18.427-66.909 13.129-62.657C6.069-56.96 1.583-48.923 0.248-39.565C-0.028-37.638 0.014-32.629 0.33-30.482C0.867-26.656 1.995-23.037 3.729-19.555C8.285-10.376 16.542-3.70196 26.533-1.11496C33.537 0.702039 41.216 0.234039 48.001-2.40796C52.804-4.29396 56.795-6.94996 60.483-10.748C63.304-13.638 65.162-16.308 66.882-19.872C68.52-23.257 69.497-26.395 70.075-30.069C70.501-32.822 70.501-37.638 70.075-40.391C69.483-44.148 68.506-47.272 66.813-50.712C65.12-54.166 63.208-56.877 60.496-59.685C57.62-62.671 54.717-64.804 50.987-66.689C45.056-69.676 38.629-70.9 31.941-70.309ZM38.946-64.35C45.703-63.442 51.772-60.373 56.423-55.515C60.538-51.207 63.084-46.129 64.198-39.978C64.556-38.024 64.625-33.895 64.336-31.652C62.643-18.221 52.239-7.82996 38.781-6.10996C36.565-5.83496 32.436-5.90396 30.482-6.26196C25.542-7.15596 21.496-8.88996 17.656-11.739C12.028-15.922 8.078-22.101 6.551-29.037C6.014-31.487 5.876-33.18 5.959-36.111C6.028-38.822 6.207-40.184 6.812-42.537C9.798-54.194 19.693-62.877 31.721-64.391C33.276-64.584 37.363-64.556 38.946-64.35ZM45.854-56.905C45.606-56.795 44.739-56.065 43.927-55.295C41.505-52.955 39.441-51.496 36.496-50.024C32.312-47.946 28.28-47.024 23.395-47.024C20.656-47.038 19.06-47.216 16.473-47.836C14.684-48.262 13.886-48.235 13.087-47.712C11.202-46.46 11.395-43.625 13.418-42.62C13.941-42.372 16.404-41.794 18.372-41.464C20.532-41.106 26.505-41.106 28.734-41.464C36.193-42.661 42.964-46.047 48.152-51.194C48.868-51.909 49.542-52.721 49.694-53.038C50.561-54.937 49.129-57.125 47.038-57.111C46.638-57.097 46.102-57.015 45.854-56.905ZM20.23-29.216C17.794-28.955 14.23-28.239 13.418-27.84C12.372-27.317 11.78-26.34 11.78-25.17C11.794-24.193 12.289-23.285 13.101-22.734C13.858-22.239 14.945-22.239 17.065-22.734C19.349-23.271 20.945-23.45 23.67-23.436C28.335-23.422 32.161-22.514 36.4-20.436C39.881-18.73 42.262-16.954 45.097-13.954C46.281-12.716 47.01-12.055 47.368-11.904C49.171-11.188 51.166-12.413 51.304-14.312C51.386-15.413 51.166-15.977 50.175-17.12C44.45-23.78 36.51-28.005 27.647-29.106C26.106-29.299 21.62-29.368 20.23-29.216Z"/>
  </g>
  <g id="Bold-M" transform="matrix(1 0 0 1 2304.75 1126)">
   <path d="M31.941-70.309C25.322-69.717 18.427-66.909 13.129-62.657C6.069-56.96 1.583-48.923 0.248-39.565C-0.028-37.638 0.014-32.629 0.33-30.482C0.867-26.656 1.995-23.037 3.729-19.555C8.285-10.376 16.542-3.70196 26.533-1.11496C33.537 0.702039 41.216 0.234039 48.001-2.40796C52.804-4.29396 56.795-6.94996 60.483-10.748C63.304-13.638 65.162-16.308 66.882-19.872C68.52-23.257 69.497-26.395 70.075-30.069C70.501-32.822 70.501-37.638 70.075-40.391C69.483-44.148 68.506-47.272 66.813-50.712C65.12-54.166 63.208-56.877 60.496-59.685C57.62-62.671 54.717-64.804 50.987-66.689C45.056-69.676 38.629-70.9 31.941-70.309ZM38.946-64.35C45.703-63.442 51.772-60.373 56.423-55.515C60.538-51.207 63.084-46.129 64.198-39.978C64.556-38.024 64.625-33.895 64.336-31.652C62.643-18.221 52.239-7.82996 38.781-6.10996C36.565-5.83496 32.436-5.90396 30.482-6.26196C25.542-7.15596 21.496-8.88996 17.656-11.739C12.028-15.922 8.078-22.101 6.551-29.037C6.014-31.487 5.876-33.18 5.959-36.111C6.028-38.822 6.207-40.184 6.812-42.537C9.798-54.194 19.693-62.877 31.721-64.391C33.276-64.584 37.363-64.556 38.946-64.35ZM45.854-56.905C45.606-56.795 44.739-56.065 43.927-55.295C41.505-52.955 39.441-51.496 36.496-50.024C32.312-47.946 28.28-47.024 23.395-47.024C20.656-47.038 19.06-47.216 16.473-47.836C14.684-48.262 13.886-48.235 13.087-47.712C11.202-46.46 11.395-43.625 13.418-42.62C13.941-42.372 16.404-41.794 18.372-41.464C20.532-41.106 26.505-41.106 28.734-41.464C36.193-42.661 42.964-46.047 48.152-51.194C48.868-51.909 49.542-52.721 49.694-53.038C50.561-54.937 49.129-57.125 47.038-57.111C46.638-57.097 46.102-57.015 45.854-56.905ZM20.23-29.216C17.794-28.955 14.23-28.239 13.418-27.84C12.372-27.317 11.78-26.34 11.78-25.17C11.794-24.193 12.289-23.285 13.101-22.734C13.858-22.239 14.945-22.239 17.065-22.734C19.349-23.271 20.945-23.45 23.67-23.436C28.335-23.422 32.161-22.514 36.4-20.436C39.881-18.73 42.262-16.954 45.097-13.954C46.281-12.716 47.01-12.055 47.368-11.904C49.171-11.188 51.166-12.413 51.304-14.312C51.386-15.413 51.166-15.977 50.175-17.12C44.45-23.78 36.51-28.005 27.647-29.106C26.106-29.299 21.62-29.368 20.23-29.216Z"/>
  </g>
  <g id="Semibold-M" transform="matrix(1 0 0 1 2008.04 1126)">
   <path d="M31.941-70.309C25.322-69.717 18.427-66.909 13.129-62.657C6.069-56.96 1.583-48.923 0.248-39.565C-0.028-37.638 0.014-32.629 0.33-30.482C0.867-26.656 1.995-23.037 3.729-19.555C8.285-10.376 16.542-3.70196 26.533-1.11496C33.537 0.702039 41.216 0.234039 48.001-2.40796C52.804-4.29396 56.795-6.94996 60.483-10.748C63.304-13.638 65.162-16.308 66.882-19.872C68.52-23.257 69.497-26.395 70.075-30.069C70.501-32.822 70.501-37.638 70.075-40.391C69.483-44.148 68.506-47.272 66.813-50.712C65.12-54.166 63.208-56.877 60.496-59.685C57.62-62.671 54.717-64.804 50.987-66.689C45.056-69.676 38.629-70.9 31.941-70.309ZM38.946-64.35C45.703-63.442 51.772-60.373 56.423-55.515C60.538-51.207 63.084-46.129 64.198-39.978C64.556-38.024 64.625-33.895 64.336-31.652C62.643-18.221 52.239-7.82996 38.781-6.10996C36.565-5.83496 32.436-5.90396 30.482-6.26196C25.542-7.15596 21.496-8.88996 17.656-11.739C12.028-15.922 8.078-22.101 6.551-29.037C6.014-31.487 5.876-33.18 5.959-36.111C6.028-38.822 6.207-40.184 6.812-42.537C9.798-54.194 19.693-62.877 31.721-64.391C33.276-64.584 37.363-64.556 38.946-64.35ZM45.854-56.905C45.606-56.795 44.739-56.065 43.927-55.295C41.505-52.955 39.441-51.496 36.496-50.024C32.312-47.946 28.28-47.024 23.395-47.024C20.656-47.038 19.06-47.216 16.473-47.836C14.684-48.262 13.886-48.235 13.087-47.712C11.202-46.46 11.395-43.625 13.418-42.62C13.941-42.372 16.404-41.794 18.372-41.464C20.532-41.106 26.505-41.106 28.734-41.464C36.193-42.661 42.964-46.047 48.152-51.194C48.868-51.909 49.542-52.721 49.694-53.038C50.561-54.937 49.129-57.125 47.038-57.111C46.638-57.097 46.102-57.015 45.854-56.905ZM20.23-29.216C17.794-28.955 14.23-28.239 13.418-27.84C12.372-27.317 11.78-26.34 11.78-25.17C11.794-24.193 12.289-23.285 13.101-22.734C13.858-22.239 14.945-22.239 17.065-22.734C19.349-23.271 20.945-23.45 23.67-23.436C28.335-23.422 32.161-22.514 36.4-20.436C39.881-18.73 42.262-16.954 45.097-13.954C46.281-12.716 47.01-12.055 47.368-11.904C49.171-11.188 51.166-12.413 51.304-14.312C51.386-15.413 51.166-15.977 50.175-17.12C44.45-23.78 36.51-28.005 27.647-29.106C26.106-29.299 21.62-29.368 20.23-29.216Z"/>
  </g>
  <g id="Medium-M" transform="matrix(1 0 0 1 1711.33 1126)">
   <path d="M31.941-70.309C25.322-69.717 18.427-66.909 13.129-62.657C6.069-56.96 1.583-48.923 0.248-39.565C-0.028-37.638 0.014-32.629 0.33-30.482C0.867-26.656 1.995-23.037 3.729-19.555C8.285-10.376 16.542-3.70196 26.533-1.11496C33.537 0.702039 41.216 0.234039 48.001-2.40796C52.804-4.29396 56.795-6.94996 60.483-10.748C63.304-13.638 65.162-16.308 66.882-19.872C68.52-23.257 69.497-26.395 70.075-30.069C70.501-32.822 70.501-37.638 70.075-40.391C69.483-44.148 68.506-47.272 66.813-50.712C65.12-54.166 63.208-56.877 60.496-59.685C57.62-62.671 54.717-64.804 50.987-66.689C45.056-69.676 38.629-70.9 31.941-70.309ZM38.946-64.35C45.703-63.442 51.772-60.373 56.423-55.515C60.538-51.207 63.084-46.129 64.198-39.978C64.556-38.024 64.625-33.895 64.336-31.652C62.643-18.221 52.239-7.82996 38.781-6.10996C36.565-5.83496 32.436-5.90396 30.482-6.26196C25.542-7.15596 21.496-8.88996 17.656-11.739C12.028-15.922 8.078-22.101 6.551-29.037C6.014-31.487 5.876-33.18 5.959-36.111C6.028-38.822 6.207-40.184 6.812-42.537C9.798-54.194 19.693-62.877 31.721-64.391C33.276-64.584 37.363-64.556 38.946-64.35ZM45.854-56.905C45.606-56.795 44.739-56.065 43.927-55.295C41.505-52.955 39.441-51.496 36.496-50.024C32.312-47.946 28.28-47.024 23.395-47.024C20.656-47.038 19.06-47.216 16.473-47.836C14.684-48.262 13.886-48.235 13.087-47.712C11.202-46.46 11.395-43.625 13.418-42.62C13.941-42.372 16.404-41.794 18.372-41.464C20.532-41.106 26.505-41.106 28.734-41.464C36.193-42.661 42.964-46.047 48.152-51.194C48.868-51.909 49.542-52.721 49.694-53.038C50.561-54.937 49.129-57.125 47.038-57.111C46.638-57.097 46.102-57.015 45.854-56.905ZM20.23-29.216C17.794-28.955 14.23-28.239 13.418-27.84C12.372-27.317 11.78-26.34 11.78-25.17C11.794-24.193 12.289-23.285 13.101-22.734C13.858-22.239 14.945-22.239 17.065-22.734C19.349-23.271 20.945-23.45 23.67-23.436C28.335-23.422 32.161-22.514 36.4-20.436C39.881-18.73 42.262-16.954 45.097-13.954C46.281-12.716 47.01-12.055 47.368-11.904C49.171-11.188 51.166-12.413 51.304-14.312C51.386-15.413 51.166-15.977 50.175-17.12C44.45-23.78 36.51-28.005 27.647-29.106C26.106-29.299 21.62-29.368 20.23-29.216Z"/>
  </g>
  <g id="Regular-M" transform="matrix(1 0 0 1 1414.61 1126)">
   <path d="M31.941-70.309C25.322-69.717 18.427-66.909 13.129-62.657C6.069-56.96 1.583-48.923 0.248-39.565C-0.028-37.638 0.014-32.629 0.33-30.482C0.867-26.656 1.995-23.037 3.729-19.555C8.285-10.376 16.542-3.70196 26.533-1.11496C33.537 0.702039 41.216 0.234039 48.001-2.40796C52.804-4.29396 56.795-6.94996 60.483-10.748C63.304-13.638 65.162-16.308 66.882-19.872C68.52-23.257 69.497-26.395 70.075-30.069C70.501-32.822 70.501-37.638 70.075-40.391C69.483-44.148 68.506-47.272 66.813-50.712C65.12-54.166 63.208-56.877 60.496-59.685C57.62-62.671 54.717-64.804 50.987-66.689C45.056-69.676 38.629-70.9 31.941-70.309ZM38.946-64.35C45.703-63.442 51.772-60.373 56.423-55.515C60.538-51.207 63.084-46.129 64.198-39.978C64.556-38.024 64.625-33.895 64.336-31.652C62.643-18.221 52.239-7.82996 38.781-6.10996C36.565-5.83496 32.436-5.90396 30.482-6.26196C25.542-7.15596 21.496-8.88996 17.656-11.739C12.028-15.922 8.078-22.101 6.551-29.037C6.014-31.487 5.876-33.18 5.959-36.111C6.028-38.822 6.207-40.184 6.812-42.537C9.798-54.194 19.693-62.877 31.721-64.391C33.276-64.584 37.363-64.556 38.946-64.35ZM45.854-56.905C45.606-56.795 44.739-56.065 43.927-55.295C41.505-52.955 39.441-51.496 36.496-50.024C32.312-47.946 28.28-47.024 23.395-47.024C20.656-47.038 19.06-47.216 16.473-47.836C14.684-48.262 13.886-48.235 13.087-47.712C11.202-46.46 11.395-43.625 13.418-42.62C13.941-42.372 16.404-41.794 18.372-41.464C20.532-41.106 26.505-41.106 28.734-41.464C36.193-42.661 42.964-46.047 48.152-51.194C48.868-51.909 49.542-52.721 49.694-53.038C50.561-54.937 49.129-57.125 47.038-57.111C46.638-57.097 46.102-57.015 45.854-56.905ZM20.23-29.216C17.794-28.955 14.23-28.239 13.418-27.84C12.372-27.317 11.78-26.34 11.78-25.17C11.794-24.193 12.289-23.285 13.101-22.734C13.858-22.239 14.945-22.239 17.065-22.734C19.349-23.271 20.945-23.45 23.67-23.436C28.335-23.422 32.161-22.514 36.4-20.436C39.881-18.73 42.262-16.954 45.097-13.954C46.281-12.716 47.01-12.055 47.368-11.904C49.171-11.188 51.166-12.413 51.304-14.312C51.386-15.413 51.166-15.977 50.175-17.12C44.45-23.78 36.51-28.005 27.647-29.106C26.106-29.299 21.62-29.368 20.23-29.216Z"/>
  </g>
  <g id="Light-M" transform="matrix(1 0 0 1 1117.9 1126)">
   <path d="M31.941-70.309C25.322-69.717 18.427-66.909 13.129-62.657C6.069-56.96 1.583-48.923 0.248-39.565C-0.028-37.638 0.014-32.629 0.33-30.482C0.867-26.656 1.995-23.037 3.729-19.555C8.285-10.376 16.542-3.70196 26.533-1.11496C33.537 0.702039 41.216 0.234039 48.001-2.40796C52.804-4.29396 56.795-6.94996 60.483-10.748C63.304-13.638 65.162-16.308 66.882-19.872C68.52-23.257 69.497-26.395 70.075-30.069C70.501-32.822 70.501-37.638 70.075-40.391C69.483-44.148 68.506-47.272 66.813-50.712C65.12-54.166 63.208-56.877 60.496-59.685C57.62-62.671 54.717-64.804 50.987-66.689C45.056-69.676 38.629-70.9 31.941-70.309ZM38.946-64.35C45.703-63.442 51.772-60.373 56.423-55.515C60.538-51.207 63.084-46.129 64.198-39.978C64.556-38.024 64.625-33.895 64.336-31.652C62.643-18.221 52.239-7.82996 38.781-6.10996C36.565-5.83496 32.436-5.90396 30.482-6.26196C25.542-7.15596 21.496-8.88996 17.656-11.739C12.028-15.922 8.078-22.101 6.551-29.037C6.014-31.487 5.876-33.18 5.959-36.111C6.028-38.822 6.207-40.184 6.812-42.537C9.798-54.194 19.693-62.877 31.721-64.391C33.276-64.584 37.363-64.556 38.946-64.35ZM45.854-56.905C45.606-56.795 44.739-56.065 43.927-55.295C41.505-52.955 39.441-51.496 36.496-50.024C32.312-47.946 28.28-47.024 23.395-47.024C20.656-47.038 19.06-47.216 16.473-47.836C14.684-48.262 13.886-48.235 13.087-47.712C11.202-46.46 11.395-43.625 13.418-42.62C13.941-42.372 16.404-41.794 18.372-41.464C20.532-41.106 26.505-41.106 28.734-41.464C36.193-42.661 42.964-46.047 48.152-51.194C48.868-51.909 49.542-52.721 49.694-53.038C50.561-54.937 49.129-57.125 47.038-57.111C46.638-57.097 46.102-57.015 45.854-56.905ZM20.23-29.216C17.794-28.955 14.23-28.239 13.418-27.84C12.372-27.317 11.78-26.34 11.78-25.17C11.794-24.193 12.289-23.285 13.101-22.734C13.858-22.239 14.945-22.239 17.065-22.734C19.349-23.271 20.945-23.45 23.67-23.436C28.335-23.422 32.161-22.514 36.4-20.436C39.881-18.73 42.262-16.954 45.097-13.954C46.281-12.716 47.01-12.055 47.368-11.904C49.171-11.188 51.166-12.413 51.304-14.312C51.386-15.413 51.166-15.977 50.175-17.12C44.45-23.78 36.51-28.005 27.647-29.106C26.106-29.299 21.62-29.368 20.23-29.216Z"/>
  </g>
  <g id="Thin-M" transform="matrix(1 0 0 1 821.192 1126)">
   <path d="M31.941-70.309C25.322-69.717 18.427-66.909 13.129-62.657C6.069-56.96 1.583-48.923 0.248-39.565C-0.028-37.638 0.014-32.629 0.33-30.482C0.867-26.656 1.995-23.037 3.729-19.555C8.285-10.376 16.542-3.70196 26.533-1.11496C33.537 0.702039 41.216 0.234039 48.001-2.40796C52.804-4.29396 56.795-6.94996 60.483-10.748C63.304-13.638 65.162-16.308 66.882-19.872C68.52-23.257 69.497-26.395 70.075-30.069C70.501-32.822 70.501-37.638 70.075-40.391C69.483-44.148 68.506-47.272 66.813-50.712C65.12-54.166 63.208-56.877 60.496-59.685C57.62-62.671 54.717-64.804 50.987-66.689C45.056-69.676 38.629-70.9 31.941-70.309ZM38.946-64.35C45.703-63.442 51.772-60.373 56.423-55.515C60.538-51.207 63.084-46.129 64.198-39.978C64.556-38.024 64.625-33.895 64.336-31.652C62.643-18.221 52.239-7.82996 38.781-6.10996C36.565-5.83496 32.436-5.90396 30.482-6.26196C25.542-7.15596 21.496-8.88996 17.656-11.739C12.028-15.922 8.078-22.101 6.551-29.037C6.014-31.487 5.876-33.18 5.959-36.111C6.028-38.822 6.207-40.184 6.812-42.537C9.798-54.194 19.693-62.877 31.721-64.391C33.276-64.584 37.363-64.556 38.946-64.35ZM45.854-56.905C45.606-56.795 44.739-56.065 43.927-55.295C41.505-52.955 39.441-51.496 36.496-50.024C32.312-47.946 28.28-47.024 23.395-47.024C20.656-47.038 19.06-47.216 16.473-47.836C14.684-48.262 13.886-48.235 13.087-47.712C11.202-46.46 11.395-43.625 13.418-42.62C13.941-42.372 16.404-41.794 18.372-41.464C20.532-41.106 26.505-41.106 28.734-41.464C36.193-42.661 42.964-46.047 48.152-51.194C48.868-51.909 49.542-52.721 49.694-53.038C50.561-54.937 49.129-57.125 47.038-57.111C46.638-57.097 46.102-57.015 45.854-56.905ZM20.23-29.216C17.794-28.955 14.23-28.239 13.418-27.84C12.372-27.317 11.78-26.34 11.78-25.17C11.794-24.193 12.289-23.285 13.101-22.734C13.858-22.239 14.945-22.239 17.065-22.734C19.349-23.271 20.945-23.45 23.67-23.436C28.335-23.422 32.161-22.514 36.4-20.436C39.881-18.73 42.262-16.954 45.097-13.954C46.281-12.716 47.01-12.055 47.368-11.904C49.171-11.188 51.166-12.413 51.304-14.312C51.386-15.413 51.166-15.977 50.175-17.12C44.45-23.78 36.51-28.005 27.647-29.106C26.106-29.299 21.62-29.368 20.23-29.216Z"/>
  </g>
  <g id="Ultralight-M" transform="matrix(1 0 0 1 524.481 1126)">
   <path d="M31.941-70.309C25.322-69.717 18.427-66.909 13.129-62.657C6.069-56.96 1.583-48.923 0.248-39.565C-0.028-37.638 0.014-32.629 0.33-30.482C0.867-26.656 1.995-23.037 3.729-19.555C8.285-10.376 16.542-3.70196 26.533-1.11496C33.537 0.702039 41.216 0.234039 48.001-2.40796C52.804-4.29396 56.795-6.94996 60.483-10.748C63.304-13.638 65.162-16.308 66.882-19.872C68.52-23.257 69.497-26.395 70.075-30.069C70.501-32.822 70.501-37.638 70.075-40.391C69.483-44.148 68.506-47.272 66.813-50.712C65.12-54.166 63.208-56.877 60.496-59.685C57.62-62.671 54.717-64.804 50.987-66.689C45.056-69.676 38.629-70.9 31.941-70.309ZM38.946-64.35C45.703-63.442 51.772-60.373 56.423-55.515C60.538-51.207 63.084-46.129 64.198-39.978C64.556-38.024 64.625-33.895 64.336-31.652C62.643-18.221 52.239-7.82996 38.781-6.10996C36.565-5.83496 32.436-5.90396 30.482-6.26196C25.542-7.15596 21.496-8.88996 17.656-11.739C12.028-15.922 8.078-22.101 6.551-29.037C6.014-31.487 5.876-33.18 5.959-36.111C6.028-38.822 6.207-40.184 6.812-42.537C9.798-54.194 19.693-62.877 31.721-64.391C33.276-64.584 37.363-64.556 38.946-64.35ZM45.854-56.905C45.606-56.795 44.739-56.065 43.927-55.295C41.505-52.955 39.441-51.496 36.496-50.024C32.312-47.946 28.28-47.024 23.395-47.024C20.656-47.038 19.06-47.216 16.473-47.836C14.684-48.262 13.886-48.235 13.087-47.712C11.202-46.46 11.395-43.625 13.418-42.62C13.941-42.372 16.404-41.794 18.372-41.464C20.532-41.106 26.505-41.106 28.734-41.464C36.193-42.661 42.964-46.047 48.152-51.194C48.868-51.909 49.542-52.721 49.694-53.038C50.561-54.937 49.129-57.125 47.038-57.111C46.638-57.097 46.102-57.015 45.854-56.905ZM20.23-29.216C17.794-28.955 14.23-28.239 13.418-27.84C12.372-27.317 11.78-26.34 11.78-25.17C11.794-24.193 12.289-23.285 13.101-22.734C13.858-22.239 14.945-22.239 17.065-22.734C19.349-23.271 20.945-23.45 23.67-23.436C28.335-23.422 32.161-22.514 36.4-20.436C39.881-18.73 42.262-16.954 45.097-13.954C46.281-12.716 47.01-12.055 47.368-11.904C49.171-11.188 51.166-12.413 51.304-14.312C51.386-15.413 51.166-15.977 50.175-17.12C44.45-23.78 36.51-28.005 27.647-29.106C26.106-29.299 21.62-29.368 20.23-29.216Z"/>
  </g>
  <g id="Black-S" transform="matrix(1 0 0 1 2905.8 696)">
   <path d="M25.024-62.6961C19.841-62.2331 14.442-60.0351 10.294-56.7051C4.76601-52.2441 1.25301-45.9511 0.208007-38.6241C-0.0079932-37.1161 0.0250068-33.1931 0.273007-31.5121C0.693007-28.5171 1.57601-25.6831 2.93401-22.9571C6.50101-15.7701 12.966-10.5431 20.789-8.51806C26.274-7.09506 32.286-7.46206 37.599-9.53106C41.359-11.0071 44.484-13.0861 47.372-16.0601C49.581-18.3231 51.036-20.4141 52.383-23.2051C53.665-25.8551 54.43-28.3121 54.882-31.1891C55.216-33.3441 55.216-37.1161 54.882-39.2711C54.419-42.2121 53.654-44.6581 52.329-47.3521C51.003-50.0571 49.506-52.1801 47.383-54.3781C45.131-56.7161 42.857-58.3861 39.937-59.8631C35.293-62.2011 30.261-63.1601 25.024-62.6961ZM30.508-58.0311C35.799-57.3201 40.551-54.9171 44.193-51.1131C47.415-47.7401 49.409-43.7641 50.281-38.9471C50.561-37.4171 50.615-34.1851 50.389-32.4281C49.064-21.9121 40.917-13.7761 30.379-12.4291C28.644-12.2141 25.412-12.2681 23.882-12.5481C20.013-13.2481 16.845-14.6061 13.839-16.8361C9.43201-20.1121 6.33901-24.9501 5.14301-30.3811C4.72301-32.2991 4.61501-33.6241 4.68001-35.9201C4.73401-38.0421 4.87401-39.1091 5.34801-40.9521C7.68601-50.0781 15.434-56.8781 24.851-58.0631C26.069-58.2141 29.269-58.1921 30.508-58.0311ZM35.918-52.2011C35.724-52.1151 35.045-51.5441 34.409-50.9401C32.513-49.1091 30.896-47.9661 28.59-46.8141C25.315-45.1861 22.157-44.4641 18.332-44.4641C16.188-44.4751 14.938-44.6151 12.912-45.1001C11.511-45.4341 10.886-45.4131 10.261-45.0031C8.78501-44.0231 8.93601-41.8031 10.52-41.0161C10.93-40.8221 12.858-40.3701 14.399-40.1111C16.091-39.8311 20.767-39.8311 22.513-40.1111C28.353-41.0491 33.655-43.6991 37.717-47.7291C38.278-48.2901 38.806-48.9251 38.924-49.1731C39.603-50.6601 38.482-52.3741 36.844-52.3631C36.532-52.3521 36.112-52.2871 35.918-52.2011ZM15.854-30.5211C13.947-30.3161 11.156-29.7561 10.52-29.4441C9.70101-29.0341 9.23801-28.2691 9.23801-27.3531C9.24901-26.5881 9.63601-25.8771 10.272-25.4461C10.865-25.0581 11.716-25.0581 13.376-25.4461C15.164-25.8661 16.414-26.0061 18.548-25.9951C22.201-25.9851 25.196-25.2731 28.515-23.6461C31.241-22.3101 33.105-20.9201 35.325-18.5711C36.252-17.6011 36.823-17.0841 37.103-16.9661C38.515-16.4051 40.077-17.3641 40.185-18.8511C40.249-19.7131 40.077-20.1551 39.301-21.0491C34.819-26.2651 28.601-29.5731 21.662-30.4351C20.455-30.5861 16.942-30.6401 15.854-30.5211Z"/>
  </g>
  <g id="Heavy-S" transform="matrix(1 0 0 1 2609.09 696)">
   <path d="M25.024-62.6961C19.841-62.2331 14.442-60.0351 10.294-56.7051C4.76601-52.2441 1.25301-45.9511 0.208007-38.6241C-0.0079932-37.1161 0.0250068-33.1931 0.273007-31.5121C0.693007-28.5171 1.57601-25.6831 2.93401-22.9571C6.50101-15.7701 12.966-10.5431 20.789-8.51806C26.274-7.09506 32.286-7.46206 37.599-9.53106C41.359-11.0071 44.484-13.0861 47.372-16.0601C49.581-18.3231 51.036-20.4141 52.383-23.2051C53.665-25.8551 54.43-28.3121 54.882-31.1891C55.216-33.3441 55.216-37.1161 54.882-39.2711C54.419-42.2121 53.654-44.6581 52.329-47.3521C51.003-50.0571 49.506-52.1801 47.383-54.3781C45.131-56.7161 42.857-58.3861 39.937-59.8631C35.293-62.2011 30.261-63.1601 25.024-62.6961ZM30.508-58.0311C35.799-57.3201 40.551-54.9171 44.193-51.1131C47.415-47.7401 49.409-43.7641 50.281-38.9471C50.561-37.4171 50.615-34.1851 50.389-32.4281C49.064-21.9121 40.917-13.7761 30.379-12.4291C28.644-12.2141 25.412-12.2681 23.882-12.5481C20.013-13.2481 16.845-14.6061 13.839-16.8361C9.43201-20.1121 6.33901-24.9501 5.14301-30.3811C4.72301-32.2991 4.61501-33.6241 4.68001-35.9201C4.73401-38.0421 4.87401-39.1091 5.34801-40.9521C7.68601-50.0781 15.434-56.8781 24.851-58.0631C26.069-58.2141 29.269-58.1921 30.508-58.0311ZM35.918-52.2011C35.724-52.1151 35.045-51.5441 34.409-50.9401C32.513-49.1091 30.896-47.9661 28.59-46.8141C25.315-45.1861 22.157-44.4641 18.332-44.4641C16.188-44.4751 14.938-44.6151 12.912-45.1001C11.511-45.4341 10.886-45.4131 10.261-45.0031C8.78501-44.0231 8.93601-41.8031 10.52-41.0161C10.93-40.8221 12.858-40.3701 14.399-40.1111C16.091-39.8311 20.767-39.8311 22.513-40.1111C28.353-41.0491 33.655-43.6991 37.717-47.7291C38.278-48.2901 38.806-48.9251 38.924-49.1731C39.603-50.6601 38.482-52.3741 36.844-52.3631C36.532-52.3521 36.112-52.2871 35.918-52.2011ZM15.854-30.5211C13.947-30.3161 11.156-29.7561 10.52-29.4441C9.70101-29.0341 9.23801-28.2691 9.23801-27.3531C9.24901-26.5881 9.63601-25.8771 10.272-25.4461C10.865-25.0581 11.716-25.0581 13.376-25.4461C15.164-25.8661 16.414-26.0061 18.548-25.9951C22.201-25.9851 25.196-25.2731 28.515-23.6461C31.241-22.3101 33.105-20.9201 35.325-18.5711C36.252-17.6011 36.823-17.0841 37.103-16.9661C38.515-16.4051 40.077-17.3641 40.185-18.8511C40.249-19.7131 40.077-20.1551 39.301-21.0491C34.819-26.2651 28.601-29.5731 21.662-30.4351C20.455-30.5861 16.942-30.6401 15.854-30.5211Z"/>
  </g>
  <g id="Bold-S" transform="matrix(1 0 0 1 2312.38 696)">
   <path d="M25.024-62.6961C19.841-62.2331 14.442-60.0351 10.294-56.7051C4.76601-52.2441 1.25301-45.9511 0.208007-38.6241C-0.0079932-37.1161 0.0250068-33.1931 0.273007-31.5121C0.693007-28.5171 1.57601-25.6831 2.93401-22.9571C6.50101-15.7701 12.966-10.5431 20.789-8.51806C26.274-7.09506 32.286-7.46206 37.599-9.53106C41.359-11.0071 44.484-13.0861 47.372-16.0601C49.581-18.3231 51.036-20.4141 52.383-23.2051C53.665-25.8551 54.43-28.3121 54.882-31.1891C55.216-33.3441 55.216-37.1161 54.882-39.2711C54.419-42.2121 53.654-44.6581 52.329-47.3521C51.003-50.0571 49.506-52.1801 47.383-54.3781C45.131-56.7161 42.857-58.3861 39.937-59.8631C35.293-62.2011 30.261-63.1601 25.024-62.6961ZM30.508-58.0311C35.799-57.3201 40.551-54.9171 44.193-51.1131C47.415-47.7401 49.409-43.7641 50.281-38.9471C50.561-37.4171 50.615-34.1851 50.389-32.4281C49.064-21.9121 40.917-13.7761 30.379-12.4291C28.644-12.2141 25.412-12.2681 23.882-12.5481C20.013-13.2481 16.845-14.6061 13.839-16.8361C9.43201-20.1121 6.33901-24.9501 5.14301-30.3811C4.72301-32.2991 4.61501-33.6241 4.68001-35.9201C4.73401-38.0421 4.87401-39.1091 5.34801-40.9521C7.68601-50.0781 15.434-56.8781 24.851-58.0631C26.069-58.2141 29.269-58.1921 30.508-58.0311ZM35.918-52.2011C35.724-52.1151 35.045-51.5441 34.409-50.9401C32.513-49.1091 30.896-47.9661 28.59-46.8141C25.315-45.1861 22.157-44.4641 18.332-44.4641C16.188-44.4751 14.938-44.6151 12.912-45.1001C11.511-45.4341 10.886-45.4131 10.261-45.0031C8.78501-44.0231 8.93601-41.8031 10.52-41.0161C10.93-40.8221 12.858-40.3701 14.399-40.1111C16.091-39.8311 20.767-39.8311 22.513-40.1111C28.353-41.0491 33.655-43.6991 37.717-47.7291C38.278-48.2901 38.806-48.9251 38.924-49.1731C39.603-50.6601 38.482-52.3741 36.844-52.3631C36.532-52.3521 36.112-52.2871 35.918-52.2011ZM15.854-30.5211C13.947-30.3161 11.156-29.7561 10.52-29.4441C9.70101-29.0341 9.23801-28.2691 9.23801-27.3531C9.24901-26.5881 9.63601-25.8771 10.272-25.4461C10.865-25.0581 11.716-25.0581 13.376-25.4461C15.164-25.8661 16.414-26.0061 18.548-25.9951C22.201-25.9851 25.196-25.2731 28.515-23.6461C31.241-22.3101 33.105-20.9201 35.325-18.5711C36.252-17.6011 36.823-17.0841 37.103-16.9661C38.515-16.4051 40.077-17.3641 40.185-18.8511C40.249-19.7131 40.077-20.1551 39.301-21.0491C34.819-26.2651 28.601-29.5731 21.662-30.4351C20.455-30.5861 16.942-30.6401 15.854-30.5211Z"/>
  </g>
  <g id="Semibold-S" transform="matrix(1 0 0 1 2015.67 696)">
   <path d="M25.024-62.6961C19.841-62.2331 14.442-60.0351 10.294-56.7051C4.76601-52.2441 1.25301-45.9511 0.208007-38.6241C-0.0079932-37.1161 0.0250068-33.1931 0.273007-31.5121C0.693007-28.5171 1.57601-25.6831 2.93401-22.9571C6.50101-15.7701 12.966-10.5431 20.789-8.51806C26.274-7.09506 32.286-7.46206 37.599-9.53106C41.359-11.0071 44.484-13.0861 47.372-16.0601C49.581-18.3231 51.036-20.4141 52.383-23.2051C53.665-25.8551 54.43-28.3121 54.882-31.1891C55.216-33.3441 55.216-37.1161 54.882-39.2711C54.419-42.2121 53.654-44.6581 52.329-47.3521C51.003-50.0571 49.506-52.1801 47.383-54.3781C45.131-56.7161 42.857-58.3861 39.937-59.8631C35.293-62.2011 30.261-63.1601 25.024-62.6961ZM30.508-58.0311C35.799-57.3201 40.551-54.9171 44.193-51.1131C47.415-47.7401 49.409-43.7641 50.281-38.9471C50.561-37.4171 50.615-34.1851 50.389-32.4281C49.064-21.9121 40.917-13.7761 30.379-12.4291C28.644-12.2141 25.412-12.2681 23.882-12.5481C20.013-13.2481 16.845-14.6061 13.839-16.8361C9.43201-20.1121 6.33901-24.9501 5.14301-30.3811C4.72301-32.2991 4.61501-33.6241 4.68001-35.9201C4.73401-38.0421 4.87401-39.1091 5.34801-40.9521C7.68601-50.0781 15.434-56.8781 24.851-58.0631C26.069-58.2141 29.269-58.1921 30.508-58.0311ZM35.918-52.2011C35.724-52.1151 35.045-51.5441 34.409-50.9401C32.513-49.1091 30.896-47.9661 28.59-46.8141C25.315-45.1861 22.157-44.4641 18.332-44.4641C16.188-44.4751 14.938-44.6151 12.912-45.1001C11.511-45.4341 10.886-45.4131 10.261-45.0031C8.78501-44.0231 8.93601-41.8031 10.52-41.0161C10.93-40.8221 12.858-40.3701 14.399-40.1111C16.091-39.8311 20.767-39.8311 22.513-40.1111C28.353-41.0491 33.655-43.6991 37.717-47.7291C38.278-48.2901 38.806-48.9251 38.924-49.1731C39.603-50.6601 38.482-52.3741 36.844-52.3631C36.532-52.3521 36.112-52.2871 35.918-52.2011ZM15.854-30.5211C13.947-30.3161 11.156-29.7561 10.52-29.4441C9.70101-29.0341 9.23801-28.2691 9.23801-27.3531C9.24901-26.5881 9.63601-25.8771 10.272-25.4461C10.865-25.0581 11.716-25.0581 13.376-25.4461C15.164-25.8661 16.414-26.0061 18.548-25.9951C22.201-25.9851 25.196-25.2731 28.515-23.6461C31.241-22.3101 33.105-20.9201 35.325-18.5711C36.252-17.6011 36.823-17.0841 37.103-16.9661C38.515-16.4051 40.077-17.3641 40.185-18.8511C40.249-19.7131 40.077-20.1551 39.301-21.0491C34.819-26.2651 28.601-29.5731 21.662-30.4351C20.455-30.5861 16.942-30.6401 15.854-30.5211Z"/>
  </g>
  <g id="Medium-S" transform="matrix(1 0 0 1 1718.96 696)">
   <path d="M25.024-62.6961C19.841-62.2331 14.442-60.0351 10.294-56.7051C4.76601-52.2441 1.25301-45.9511 0.208007-38.6241C-0.0079932-37.1161 0.0250068-33.1931 0.273007-31.5121C0.693007-28.5171 1.57601-25.6831 2.93401-22.9571C6.50101-15.7701 12.966-10.5431 20.789-8.51806C26.274-7.09506 32.286-7.46206 37.599-9.53106C41.359-11.0071 44.484-13.0861 47.372-16.0601C49.581-18.3231 51.036-20.4141 52.383-23.2051C53.665-25.8551 54.43-28.3121 54.882-31.1891C55.216-33.3441 55.216-37.1161 54.882-39.2711C54.419-42.2121 53.654-44.6581 52.329-47.3521C51.003-50.0571 49.506-52.1801 47.383-54.3781C45.131-56.7161 42.857-58.3861 39.937-59.8631C35.293-62.2011 30.261-63.1601 25.024-62.6961ZM30.508-58.0311C35.799-57.3201 40.551-54.9171 44.193-51.1131C47.415-47.7401 49.409-43.7641 50.281-38.9471C50.561-37.4171 50.615-34.1851 50.389-32.4281C49.064-21.9121 40.917-13.7761 30.379-12.4291C28.644-12.2141 25.412-12.2681 23.882-12.5481C20.013-13.2481 16.845-14.6061 13.839-16.8361C9.43201-20.1121 6.33901-24.9501 5.14301-30.3811C4.72301-32.2991 4.61501-33.6241 4.68001-35.9201C4.73401-38.0421 4.87401-39.1091 5.34801-40.9521C7.68601-50.0781 15.434-56.8781 24.851-58.0631C26.069-58.2141 29.269-58.1921 30.508-58.0311ZM35.918-52.2011C35.724-52.1151 35.045-51.5441 34.409-50.9401C32.513-49.1091 30.896-47.9661 28.59-46.8141C25.315-45.1861 22.157-44.4641 18.332-44.4641C16.188-44.4751 14.938-44.6151 12.912-45.1001C11.511-45.4341 10.886-45.4131 10.261-45.0031C8.78501-44.0231 8.93601-41.8031 10.52-41.0161C10.93-40.8221 12.858-40.3701 14.399-40.1111C16.091-39.8311 20.767-39.8311 22.513-40.1111C28.353-41.0491 33.655-43.6991 37.717-47.7291C38.278-48.2901 38.806-48.9251 38.924-49.1731C39.603-50.6601 38.482-52.3741 36.844-52.3631C36.532-52.3521 36.112-52.2871 35.918-52.2011ZM15.854-30.5211C13.947-30.3161 11.156-29.7561 10.52-29.4441C9.70101-29.0341 9.23801-28.2691 9.23801-27.3531C9.24901-26.5881 9.63601-25.8771 10.272-25.4461C10.865-25.0581 11.716-25.0581 13.376-25.4461C15.164-25.8661 16.414-26.0061 18.548-25.9951C22.201-25.9851 25.196-25.2731 28.515-23.6461C31.241-22.3101 33.105-20.9201 35.325-18.5711C36.252-17.6011 36.823-17.0841 37.103-16.9661C38.515-16.4051 40.077-17.3641 40.185-18.8511C40.249-19.7131 40.077-20.1551 39.301-21.0491C34.819-26.2651 28.601-29.5731 21.662-30.4351C20.455-30.5861 16.942-30.6401 15.854-30.5211Z"/>
  </g>
  <g id="Regular-S" transform="matrix(1 0 0 1 1422.25 696)">
   <path d="M25.024-62.6961C19.841-62.2331 14.442-60.0351 10.294-56.7051C4.76601-52.2441 1.25301-45.9511 0.208007-38.6241C-0.0079932-37.1161 0.0250068-33.1931 0.273007-31.5121C0.693007-28.5171 1.57601-25.6831 2.93401-22.9571C6.50101-15.7701 12.966-10.5431 20.789-8.51806C26.274-7.09506 32.286-7.46206 37.599-9.53106C41.359-11.0071 44.484-13.0861 47.372-16.0601C49.581-18.3231 51.036-20.4141 52.383-23.2051C53.665-25.8551 54.43-28.3121 54.882-31.1891C55.216-33.3441 55.216-37.1161 54.882-39.2711C54.419-42.2121 53.654-44.6581 52.329-47.3521C51.003-50.0571 49.506-52.1801 47.383-54.3781C45.131-56.7161 42.857-58.3861 39.937-59.8631C35.293-62.2011 30.261-63.1601 25.024-62.6961ZM30.508-58.0311C35.799-57.3201 40.551-54.9171 44.193-51.1131C47.415-47.7401 49.409-43.7641 50.281-38.9471C50.561-37.4171 50.615-34.1851 50.389-32.4281C49.064-21.9121 40.917-13.7761 30.379-12.4291C28.644-12.2141 25.412-12.2681 23.882-12.5481C20.013-13.2481 16.845-14.6061 13.839-16.8361C9.43201-20.1121 6.33901-24.9501 5.14301-30.3811C4.72301-32.2991 4.61501-33.6241 4.68001-35.9201C4.73401-38.0421 4.87401-39.1091 5.34801-40.9521C7.68601-50.0781 15.434-56.8781 24.851-58.0631C26.069-58.2141 29.269-58.1921 30.508-58.0311ZM35.918-52.2011C35.724-52.1151 35.045-51.5441 34.409-50.9401C32.513-49.1091 30.896-47.9661 28.59-46.8141C25.315-45.1861 22.157-44.4641 18.332-44.4641C16.188-44.4751 14.938-44.6151 12.912-45.1001C11.511-45.4341 10.886-45.4131 10.261-45.0031C8.78501-44.0231 8.93601-41.8031 10.52-41.0161C10.93-40.8221 12.858-40.3701 14.399-40.1111C16.091-39.8311 20.767-39.8311 22.513-40.1111C28.353-41.0491 33.655-43.6991 37.717-47.7291C38.278-48.2901 38.806-48.9251 38.924-49.1731C39.603-50.6601 38.482-52.3741 36.844-52.3631C36.532-52.3521 36.112-52.2871 35.918-52.2011ZM15.854-30.5211C13.947-30.3161 11.156-29.7561 10.52-29.4441C9.70101-29.0341 9.23801-28.2691 9.23801-27.3531C9.24901-26.5881 9.63601-25.8771 10.272-25.4461C10.865-25.0581 11.716-25.0581 13.376-25.4461C15.164-25.8661 16.414-26.0061 18.548-25.9951C22.201-25.9851 25.196-25.2731 28.515-23.6461C31.241-22.3101 33.105-20.9201 35.325-18.5711C36.252-17.6011 36.823-17.0841 37.103-16.9661C38.515-16.4051 40.077-17.3641 40.185-18.8511C40.249-19.7131 40.077-20.1551 39.301-21.0491C34.819-26.2651 28.601-29.5731 21.662-30.4351C20.455-30.5861 16.942-30.6401 15.854-30.5211Z"/>
  </g>
  <g id="Light-S" transform="matrix(1 0 0 1 1125.53 696)">
   <path d="M25.024-62.6961C19.841-62.2331 14.442-60.0351 10.294-56.7051C4.76601-52.2441 1.25301-45.9511 0.208007-38.6241C-0.0079932-37.1161 0.0250068-33.1931 0.273007-31.5121C0.693007-28.5171 1.57601-25.6831 2.93401-22.9571C6.50101-15.7701 12.966-10.5431 20.789-8.51806C26.274-7.09506 32.286-7.46206 37.599-9.53106C41.359-11.0071 44.484-13.0861 47.372-16.0601C49.581-18.3231 51.036-20.4141 52.383-23.2051C53.665-25.8551 54.43-28.3121 54.882-31.1891C55.216-33.3441 55.216-37.1161 54.882-39.2711C54.419-42.2121 53.654-44.6581 52.329-47.3521C51.003-50.0571 49.506-52.1801 47.383-54.3781C45.131-56.7161 42.857-58.3861 39.937-59.8631C35.293-62.2011 30.261-63.1601 25.024-62.6961ZM30.508-58.0311C35.799-57.3201 40.551-54.9171 44.193-51.1131C47.415-47.7401 49.409-43.7641 50.281-38.9471C50.561-37.4171 50.615-34.1851 50.389-32.4281C49.064-21.9121 40.917-13.7761 30.379-12.4291C28.644-12.2141 25.412-12.2681 23.882-12.5481C20.013-13.2481 16.845-14.6061 13.839-16.8361C9.43201-20.1121 6.33901-24.9501 5.14301-30.3811C4.72301-32.2991 4.61501-33.6241 4.68001-35.9201C4.73401-38.0421 4.87401-39.1091 5.34801-40.9521C7.68601-50.0781 15.434-56.8781 24.851-58.0631C26.069-58.2141 29.269-58.1921 30.508-58.0311ZM35.918-52.2011C35.724-52.1151 35.045-51.5441 34.409-50.9401C32.513-49.1091 30.896-47.9661 28.59-46.8141C25.315-45.1861 22.157-44.4641 18.332-44.4641C16.188-44.4751 14.938-44.6151 12.912-45.1001C11.511-45.4341 10.886-45.4131 10.261-45.0031C8.78501-44.0231 8.93601-41.8031 10.52-41.0161C10.93-40.8221 12.858-40.3701 14.399-40.1111C16.091-39.8311 20.767-39.8311 22.513-40.1111C28.353-41.0491 33.655-43.6991 37.717-47.7291C38.278-48.2901 38.806-48.9251 38.924-49.1731C39.603-50.6601 38.482-52.3741 36.844-52.3631C36.532-52.3521 36.112-52.2871 35.918-52.2011ZM15.854-30.5211C13.947-30.3161 11.156-29.7561 10.52-29.4441C9.70101-29.0341 9.23801-28.2691 9.23801-27.3531C9.24901-26.5881 9.63601-25.8771 10.272-25.4461C10.865-25.0581 11.716-25.0581 13.376-25.4461C15.164-25.8661 16.414-26.0061 18.548-25.9951C22.201-25.9851 25.196-25.2731 28.515-23.6461C31.241-22.3101 33.105-20.9201 35.325-18.5711C36.252-17.6011 36.823-17.0841 37.103-16.9661C38.515-16.4051 40.077-17.3641 40.185-18.8511C40.249-19.7131 40.077-20.1551 39.301-21.0491C34.819-26.2651 28.601-29.5731 21.662-30.4351C20.455-30.5861 16.942-30.6401 15.854-30.5211Z"/>
  </g>
  <g id="Thin-S" transform="matrix(1 0 0 1 828.823 696)">
   <path d="M25.024-62.6961C19.841-62.2331 14.442-60.0351 10.294-56.7051C4.76601-52.2441 1.25301-45.9511 0.208007-38.6241C-0.0079932-37.1161 0.0250068-33.1931 0.273007-31.5121C0.693007-28.5171 1.57601-25.6831 2.93401-22.9571C6.50101-15.7701 12.966-10.5431 20.789-8.51806C26.274-7.09506 32.286-7.46206 37.599-9.53106C41.359-11.0071 44.484-13.0861 47.372-16.0601C49.581-18.3231 51.036-20.4141 52.383-23.2051C53.665-25.8551 54.43-28.3121 54.882-31.1891C55.216-33.3441 55.216-37.1161 54.882-39.2711C54.419-42.2121 53.654-44.6581 52.329-47.3521C51.003-50.0571 49.506-52.1801 47.383-54.3781C45.131-56.7161 42.857-58.3861 39.937-59.8631C35.293-62.2011 30.261-63.1601 25.024-62.6961ZM30.508-58.0311C35.799-57.3201 40.551-54.9171 44.193-51.1131C47.415-47.7401 49.409-43.7641 50.281-38.9471C50.561-37.4171 50.615-34.1851 50.389-32.4281C49.064-21.9121 40.917-13.7761 30.379-12.4291C28.644-12.2141 25.412-12.2681 23.882-12.5481C20.013-13.2481 16.845-14.6061 13.839-16.8361C9.43201-20.1121 6.33901-24.9501 5.14301-30.3811C4.72301-32.2991 4.61501-33.6241 4.68001-35.9201C4.73401-38.0421 4.87401-39.1091 5.34801-40.9521C7.68601-50.0781 15.434-56.8781 24.851-58.0631C26.069-58.2141 29.269-58.1921 30.508-58.0311ZM35.918-52.2011C35.724-52.1151 35.045-51.5441 34.409-50.9401C32.513-49.1091 30.896-47.9661 28.59-46.8141C25.315-45.1861 22.157-44.4641 18.332-44.4641C16.188-44.4751 14.938-44.6151 12.912-45.1001C11.511-45.4341 10.886-45.4131 10.261-45.0031C8.78501-44.0231 8.93601-41.8031 10.52-41.0161C10.93-40.8221 12.858-40.3701 14.399-40.1111C16.091-39.8311 20.767-39.8311 22.513-40.1111C28.353-41.0491 33.655-43.6991 37.717-47.7291C38.278-48.2901 38.806-48.9251 38.924-49.1731C39.603-50.6601 38.482-52.3741 36.844-52.3631C36.532-52.3521 36.112-52.2871 35.918-52.2011ZM15.854-30.5211C13.947-30.3161 11.156-29.7561 10.52-29.4441C9.70101-29.0341 9.23801-28.2691 9.23801-27.3531C9.24901-26.5881 9.63601-25.8771 10.272-25.4461C10.865-25.0581 11.716-25.0581 13.376-25.4461C15.164-25.8661 16.414-26.0061 18.548-25.9951C22.201-25.9851 25.196-25.2731 28.515-23.6461C31.241-22.3101 33.105-20.9201 35.325-18.5711C36.252-17.6011 36.823-17.0841 37.103-16.9661C38.515-16.4051 40.077-17.3641 40.185-18.8511C40.249-19.7131 40.077-20.1551 39.301-21.0491C34.819-26.2651 28.601-29.5731 21.662-30.4351C20.455-30.5861 16.942-30.6401 15.854-30.5211Z"/>
  </g>
  <g id="Ultralight-S" transform="matrix(1 0 0 1 532.112 696)">
   <path d="M25.024-62.6961C19.841-62.2331 14.442-60.0351 10.294-56.7051C4.76601-52.2441 1.25301-45.9511 0.208007-38.6241C-0.0079932-37.1161 0.0250068-33.1931 0.273007-31.5121C0.693007-28.5171 1.57601-25.6831 2.93401-22.9571C6.50101-15.7701 12.966-10.5431 20.789-8.51806C26.274-7.09506 32.286-7.46206 37.599-9.53106C41.359-11.0071 44.484-13.0861 47.372-16.0601C49.581-18.3231 51.036-20.4141 52.383-23.2051C53.665-25.8551 54.43-28.3121 54.882-31.1891C55.216-33.3441 55.216-37.1161 54.882-39.2711C54.419-42.2121 53.654-44.6581 52.329-47.3521C51.003-50.0571 49.506-52.1801 47.383-54.3781C45.131-56.7161 42.857-58.3861 39.937-59.8631C35.293-62.2011 30.261-63.1601 25.024-62.6961ZM30.508-58.0311C35.799-57.3201 40.551-54.9171 44.193-51.1131C47.415-47.7401 49.409-43.7641 50.281-38.9471C50.561-37.4171 50.615-34.1851 50.389-32.4281C49.064-21.9121 40.917-13.7761 30.379-12.4291C28.644-12.2141 25.412-12.2681 23.882-12.5481C20.013-13.2481 16.845-14.6061 13.839-16.8361C9.43201-20.1121 6.33901-24.9501 5.14301-30.3811C4.72301-32.2991 4.61501-33.6241 4.68001-35.9201C4.73401-38.0421 4.87401-39.1091 5.34801-40.9521C7.68601-50.0781 15.434-56.8781 24.851-58.0631C26.069-58.2141 29.269-58.1921 30.508-58.0311ZM35.918-52.2011C35.724-52.1151 35.045-51.5441 34.409-50.9401C32.513-49.1091 30.896-47.9661 28.59-46.8141C25.315-45.1861 22.157-44.4641 18.332-44.4641C16.188-44.4751 14.938-44.6151 12.912-45.1001C11.511-45.4341 10.886-45.4131 10.261-45.0031C8.78501-44.0231 8.93601-41.8031 10.52-41.0161C10.93-40.8221 12.858-40.3701 14.399-40.1111C16.091-39.8311 20.767-39.8311 22.513-40.1111C28.353-41.0491 33.655-43.6991 37.717-47.7291C38.278-48.2901 38.806-48.9251 38.924-49.1731C39.603-50.6601 38.482-52.3741 36.844-52.3631C36.532-52.3521 36.112-52.2871 35.918-52.2011ZM15.854-30.5211C13.947-30.3161 11.156-29.7561 10.52-29.4441C9.70101-29.0341 9.23801-28.2691 9.23801-27.3531C9.24901-26.5881 9.63601-25.8771 10.272-25.4461C10.865-25.0581 11.716-25.0581 13.376-25.4461C15.164-25.8661 16.414-26.0061 18.548-25.9951C22.201-25.9851 25.196-25.2731 28.515-23.6461C31.241-22.3101 33.105-20.9201 35.325-18.5711C36.252-17.6011 36.823-17.0841 37.103-16.9661C38.515-16.4051 40.077-17.3641 40.185-18.8511C40.249-19.7131 40.077-20.1551 39.301-21.0491C34.819-26.2651 28.601-29.5731 21.662-30.4351C20.455-30.5861 16.942-30.6401 15.854-30.5211Z"/>
  </g>
 </g>
</svg>
