<?xml version="1.0" encoding="UTF-8"?>
<!-- Generator: CustomSymbols v2.6.2.41 by @serious_bret https://bretlester.com/app_content/CustomSymbols/ -->
<!-- Guides: Left/Right -0.031/-0.031 Cap/Base 0.08/0.08 -->
<!-- Settings: RefScale 1.0 Min/Max Stroke Scales 0.5/2.21 -->
<!DOCTYPE svg
PUBLIC "-//W3C//DTD SVG 1.1//EN"
       "http://www.w3.org/Graphics/SVG/1.1/DTD/svg11.dtd">
<svg version="1.1" xmlns="http://www.w3.org/2000/svg" xmlns:xlink="http://www.w3.org/1999/xlink" width="3300" height="2200">
<![CDATA[<svg width="15" height="15" viewBox="0 0 15 15" fill="none" xmlns="http://www.w3.org/2000/svg">
<path d="M1 7L5.5 11.5L14 3" stroke="#1D1929" stroke-linecap="square"/>
</svg>
]]>
 <g id="Notes">
  <rect height="2200" id="artboard" style="fill:white;opacity:1" width="3300" x="0" y="0"/>
  <line id="" style="fill:none;stroke:black;opacity:1;stroke-width:0.5;" x1="263" x2="3036" y1="292" y2="292"/>
  <text id="reftext1" style="stroke:none;fill:black;font-family:-apple-system,&quot;SF Pro Display&quot;,&quot;SF Pro Text&quot;,Helvetica,sans-serif;font-weight:bold;" transform="matrix(1 0 0 1 263 322)">Weight/Scale Variations</text>
  <text id="reftext2" style="stroke:none;fill:black;font-family:-apple-system,&quot;SF Pro Display&quot;,&quot;SF Pro Text&quot;,Helvetica,sans-serif;text-anchor:middle;" transform="matrix(1 0 0 1 559.711 322)">Ultralight</text>
  <text style="stroke:none;fill:black;font-family:-apple-system,&quot;SF Pro Display&quot;,&quot;SF Pro Text&quot;,Helvetica,sans-serif;text-anchor:middle;" transform="matrix(1 0 0 1 856.422 322)">Thin</text>
  <text style="stroke:none;fill:black;font-family:-apple-system,&quot;SF Pro Display&quot;,&quot;SF Pro Text&quot;,Helvetica,sans-serif;text-anchor:middle;" transform="matrix(1 0 0 1 1153.13 322)">Light</text>
  <text style="stroke:none;fill:black;font-family:-apple-system,&quot;SF Pro Display&quot;,&quot;SF Pro Text&quot;,Helvetica,sans-serif;text-anchor:middle;" transform="matrix(1 0 0 1 1449.84 322)">Regular</text>
  <text style="stroke:none;fill:black;font-family:-apple-system,&quot;SF Pro Display&quot;,&quot;SF Pro Text&quot;,Helvetica,sans-serif;text-anchor:middle;" transform="matrix(1 0 0 1 1746.56 322)">Medium</text>
  <text style="stroke:none;fill:black;font-family:-apple-system,&quot;SF Pro Display&quot;,&quot;SF Pro Text&quot;,Helvetica,sans-serif;text-anchor:middle;" transform="matrix(1 0 0 1 2043.27 322)">Semibold</text>
  <text style="stroke:none;fill:black;font-family:-apple-system,&quot;SF Pro Display&quot;,&quot;SF Pro Text&quot;,Helvetica,sans-serif;text-anchor:middle;" transform="matrix(1 0 0 1 2339.98 322)">Bold</text>
  <text style="stroke:none;fill:black;font-family:-apple-system,&quot;SF Pro Display&quot;,&quot;SF Pro Text&quot;,Helvetica,sans-serif;text-anchor:middle;" transform="matrix(1 0 0 1 2636.69 322)">Heavy</text>
  <text style="stroke:none;fill:black;font-family:-apple-system,&quot;SF Pro Display&quot;,&quot;SF Pro Text&quot;,Helvetica,sans-serif;text-anchor:middle;" transform="matrix(1 0 0 1 2933.4 322)">Black</text>
  <line id="" style="fill:none;stroke:black;opacity:1;stroke-width:0.5;" x1="263" x2="3036" y1="1903" y2="1903"/>
  <g id="" transform="matrix(1 0 0 1 263 1933)">
   <path d="M9.24805 0.830078C13.5547 0.830078 17.1387-2.74414 17.1387-7.05078C17.1387-11.3574 13.5449-14.9316 9.23828-14.9316C4.94141-14.9316 1.36719-11.3574 1.36719-7.05078C1.36719-2.74414 4.95117 0.830078 9.24805 0.830078ZM9.24805-0.654297C5.70312-0.654297 2.87109-3.49609 2.87109-7.05078C2.87109-10.6055 5.69336-13.4473 9.23828-13.4473C12.793-13.4473 15.6348-10.6055 15.6445-7.05078C15.6543-3.49609 12.8027-0.654297 9.24805-0.654297ZM6.39648-6.31836L8.50586-6.31836L8.50586-4.19922C8.50586-3.75977 8.79883-3.45703 9.22852-3.45703C9.67773-3.45703 9.9707-3.75977 9.9707-4.19922L9.9707-6.31836L12.0996-6.31836C12.5391-6.31836 12.8418-6.61133 12.8418-7.04102C12.8418-7.48047 12.5391-7.7832 12.0996-7.7832L9.9707-7.7832L9.9707-9.89258C9.9707-10.3418 9.67773-10.6445 9.22852-10.6445C8.79883-10.6445 8.50586-10.3418 8.50586-9.89258L8.50586-7.7832L6.39648-7.7832C5.94727-7.7832 5.64453-7.48047 5.64453-7.04102C5.64453-6.61133 5.94727-6.31836 6.39648-6.31836Z"/>
  </g>
  <g id="" transform="matrix(1 0 0 1 281.506 1933)">
   <path d="M11.709 2.91016C17.1582 2.91016 21.6699-1.61133 21.6699-7.05078C21.6699-12.5 17.1484-17.0117 11.6992-17.0117C6.25977-17.0117 1.74805-12.5 1.74805-7.05078C1.74805-1.61133 6.26953 2.91016 11.709 2.91016ZM11.709 1.25C7.09961 1.25 3.41797-2.44141 3.41797-7.05078C3.41797-11.6602 7.08984-15.3516 11.6992-15.3516C16.3086-15.3516 20-11.6602 20.0098-7.05078C20.0195-2.44141 16.3184 1.25 11.709 1.25ZM7.98828-6.23047L10.8789-6.23047L10.8789-3.32031C10.8789-2.83203 11.2109-2.5 11.6895-2.5C12.1777-2.5 12.5195-2.83203 12.5195-3.32031L12.5195-6.23047L15.4297-6.23047C15.918-6.23047 16.25-6.5625 16.25-7.04102C16.25-7.5293 15.918-7.87109 15.4297-7.87109L12.5195-7.87109L12.5195-10.7617C12.5195-11.2695 12.1777-11.6016 11.6895-11.6016C11.2109-11.6016 10.8789-11.2598 10.8789-10.7617L10.8789-7.87109L7.98828-7.87109C7.48047-7.87109 7.14844-7.5293 7.14844-7.04102C7.14844-6.5625 7.49023-6.23047 7.98828-6.23047Z"/>
  </g>
  <g id="" transform="matrix(1 0 0 1 304.924 1933)">
   <path d="M14.9707 5.66406C21.9336 5.66406 27.6953-0.0976562 27.6953-7.05078C27.6953-14.0137 21.9238-19.7754 14.9609-19.7754C8.00781-19.7754 2.25586-14.0137 2.25586-7.05078C2.25586-0.0976562 8.01758 5.66406 14.9707 5.66406ZM14.9707 3.84766C8.93555 3.84766 4.08203-1.01562 4.08203-7.05078C4.08203-13.0957 8.92578-17.9492 14.9609-17.9492C21.0059-17.9492 25.8594-13.0957 25.8691-7.05078C25.8789-1.01562 21.0156 3.84766 14.9707 3.84766ZM10.0586-6.14258L14.0625-6.14258L14.0625-2.12891C14.0625-1.5918 14.4336-1.2207 14.9512-1.2207C15.4883-1.2207 15.8594-1.5918 15.8594-2.12891L15.8594-6.14258L19.8828-6.14258C20.4102-6.14258 20.791-6.51367 20.791-7.03125C20.791-7.56836 20.4199-7.94922 19.8828-7.94922L15.8594-7.94922L15.8594-11.9531C15.8594-12.5098 15.4883-12.8809 14.9512-12.8809C14.4336-12.8809 14.0625-12.5 14.0625-11.9531L14.0625-7.94922L10.0586-7.94922C9.50195-7.94922 9.13086-7.56836 9.13086-7.03125C9.13086-6.51367 9.51172-6.14258 10.0586-6.14258Z"/>
  </g>
  <text style="stroke:none;fill:black;font-family:-apple-system,&quot;SF Pro Display&quot;,&quot;SF Pro Text&quot;,Helvetica,sans-serif;font-weight:bold;" transform="matrix(1 0 0 1 263 1953)">Design Variations</text>
  <text style="stroke:none;fill:black;font-family:-apple-system,&quot;SF Pro Display&quot;,&quot;SF Pro Text&quot;,Helvetica,sans-serif;" transform="matrix(1 0 0 1 263 1971)">Symbols are supported in up to nine weights and three scales.</text>
  <text style="stroke:none;fill:black;font-family:-apple-system,&quot;SF Pro Display&quot;,&quot;SF Pro Text&quot;,Helvetica,sans-serif;" transform="matrix(1 0 0 1 263 1989)">For optimal layout with text and other symbols, vertically align</text>
  <text style="stroke:none;fill:black;font-family:-apple-system,&quot;SF Pro Display&quot;,&quot;SF Pro Text&quot;,Helvetica,sans-serif;" transform="matrix(1 0 0 1 263 2007)">symbols with the adjacent text.</text>
  <line id="" style="fill:none;stroke:#00AEEF;stroke-width:0.5;opacity:1.0;" x1="776" x2="776" y1="1919" y2="1933"/>
  <g id="" transform="matrix(1 0 0 1 776 1933)">
   <path d="M3.31055 0.126953C3.82812 0.126953 4.08203-0.0683594 4.26758-0.605469L5.52734-4.0625L11.2891-4.0625L12.5488-0.605469C12.7344-0.0683594 12.9883 0.126953 13.4961 0.126953C14.0137 0.126953 14.3457-0.185547 14.3457-0.673828C14.3457-0.839844 14.3164-0.986328 14.2383-1.20117L9.6582-13.3887C9.43359-13.9941 9.0332-14.2871 8.4082-14.2871C7.80273-14.2871 7.39258-13.9941 7.17773-13.3984L2.59766-1.19141C2.51953-0.976562 2.49023-0.830078 2.49023-0.664062C2.49023-0.175781 2.80273 0.126953 3.31055 0.126953ZM6.00586-5.53711L8.37891-12.1094L8.42773-12.1094L10.8008-5.53711Z"/>
  </g>
  <line id="" style="fill:none;stroke:#00AEEF;stroke-width:0.5;opacity:1.0;" x1="792.836" x2="792.836" y1="1919" y2="1933"/>
  <text style="stroke:none;fill:black;font-family:-apple-system,&quot;SF Pro Display&quot;,&quot;SF Pro Text&quot;,Helvetica,sans-serif;font-weight:bold;" transform="matrix(1 0 0 1 776 1953)">Margins</text>
  <text style="stroke:none;fill:black;font-family:-apple-system,&quot;SF Pro Display&quot;,&quot;SF Pro Text&quot;,Helvetica,sans-serif;" transform="matrix(1 0 0 1 776 1971)">Leading and trailing margins on the left and right side of each symbol</text>
  <text style="stroke:none;fill:black;font-family:-apple-system,&quot;SF Pro Display&quot;,&quot;SF Pro Text&quot;,Helvetica,sans-serif;" transform="matrix(1 0 0 1 776 1989)">can be adjusted by modifying the x-location of the margin guidelines.</text>
  <text style="stroke:none;fill:black;font-family:-apple-system,&quot;SF Pro Display&quot;,&quot;SF Pro Text&quot;,Helvetica,sans-serif;" transform="matrix(1 0 0 1 776 2007)">Modifications are automatically applied proportionally to all</text>
  <text style="stroke:none;fill:black;font-family:-apple-system,&quot;SF Pro Display&quot;,&quot;SF Pro Text&quot;,Helvetica,sans-serif;" transform="matrix(1 0 0 1 776 2025)">scales and weights.</text>
  <g id="" transform="matrix(1 0 0 1 1289 1933)">
   <path d="M2.8418 1.86523L4.54102 3.57422C5.40039 4.44336 6.38672 4.38477 7.31445 3.35938L17.4902-7.85156C17.7539-7.76367 18.0273-7.7832 18.3398-7.8418L19.4043-8.03711L20.0684-7.36328L20.0293-6.80664C19.9902-6.30859 20.1172-5.92773 20.6055-5.44922L21.3672-4.70703C21.8457-4.22852 22.4609-4.19922 22.9297-4.66797L25.8398-7.58789C26.3086-8.05664 26.2891-8.65234 25.8105-9.13086L25.0391-9.89258C24.5605-10.3711 24.1895-10.5273 23.7109-10.4883L23.1348-10.4395L22.4902-11.0742L22.7344-12.1973C22.8613-12.7637 22.7051-13.2031 22.1191-13.7891L19.9219-15.9766C16.582-19.2969 12.1484-19.2188 9.25781-16.3281C8.83789-15.918 8.80859-15.3418 9.04297-14.9512C9.27734-14.5898 9.73633-14.3555 10.3809-14.5215C11.8457-14.8633 13.3691-14.9219 14.7949-13.9844L14.209-12.5293C14.0137-12.0508 13.9844-11.6504 14.1113-11.2891L3.04688-0.898438C2.06055 0.0195312 1.98242 0.996094 2.8418 1.86523ZM10.752-15.957C13.1836-17.7344 16.4746-17.4316 18.7012-15.2051L21.1328-12.793C21.3672-12.5586 21.4062-12.373 21.3379-12.0312L21.0156-10.5469L22.5195-9.0625L23.5059-9.12109C23.7598-9.13086 23.8379-9.11133 24.0332-8.91602L24.6094-8.33984L22.168-5.89844L21.5918-6.47461C21.3965-6.66992 21.3672-6.74805 21.377-7.01172L21.4453-7.98828L19.9512-9.47266L18.4277-9.21875C18.1055-9.15039 17.959-9.17969 17.7148-9.41406L15.7129-11.416C15.459-11.6504 15.4297-11.8164 15.5859-12.1875L16.4648-14.2773C14.9023-15.7324 12.8711-16.3574 10.8398-15.7617C10.6836-15.7227 10.625-15.8496 10.752-15.957ZM5.27344 2.30469L4.10156 1.14258C3.63281 0.683594 3.74023 0.341797 4.14062-0.0195312L14.9512-10.1953L16.416-8.71094L6.42578 2.27539C6.07422 2.67578 5.74219 2.77344 5.27344 2.30469Z"/>
  </g>
  <text style="stroke:none;fill:black;font-family:-apple-system,&quot;SF Pro Display&quot;,&quot;SF Pro Text&quot;,Helvetica,sans-serif;font-weight:bold;" transform="matrix(1 0 0 1 1289 1953)">Exporting</text>
  <text style="stroke:none;fill:black;font-family:-apple-system,&quot;SF Pro Display&quot;,&quot;SF Pro Text&quot;,Helvetica,sans-serif;" transform="matrix(1 0 0 1 1289 1971)">Symbols should be outlined when exporting to ensure the</text>
  <text style="stroke:none;fill:black;font-family:-apple-system,&quot;SF Pro Display&quot;,&quot;SF Pro Text&quot;,Helvetica,sans-serif;" transform="matrix(1 0 0 1 1289 1989)">design is preserved when submitting to Xcode.</text>
  <text id="template-version" style="stroke:none;fill:black;font-family:-apple-system,&quot;SF Pro Display&quot;,&quot;SF Pro Text&quot;,Helvetica,sans-serif;text-anchor:end;" transform="matrix(1 0 0 1 3036 1933)">Template v.2.0</text>
  <text style="stroke:none;fill:black;font-family:-apple-system,&quot;SF Pro Display&quot;,&quot;SF Pro Text&quot;,Helvetica,sans-serif;text-anchor:end;" transform="matrix(1 0 0 1 3036 1951)">Requires Xcode 12 or greater</text>
  <text style="stroke:none;fill:black;font-family:-apple-system,&quot;SF Pro Display&quot;,&quot;SF Pro Text&quot;,Helvetica,sans-serif;" transform="matrix(1 0 0 1 263 726)">Small</text>
  <text style="stroke:none;fill:black;font-family:-apple-system,&quot;SF Pro Display&quot;,&quot;SF Pro Text&quot;,Helvetica,sans-serif;" transform="matrix(1 0 0 1 263 1156)">Medium</text>
  <text style="stroke:none;fill:black;font-family:-apple-system,&quot;SF Pro Display&quot;,&quot;SF Pro Text&quot;,Helvetica,sans-serif;" transform="matrix(1 0 0 1 263 1586)">Large</text>
 </g>
 <g id="Guides">
  <g id="H-reference" style="fill:#27AAE1;stroke:none;" transform="matrix(1 0 0 1 339 696)">
   <path d="M0.976562 0L3.66211 0L12.9883-24.4629L45.752-24.4629L55.127 0L57.7637 0L30.6152-70.459L28.125-70.459ZM29.3457-67.1387L29.4434-67.1387L44.873-26.709L13.8672-26.709Z"/>
  </g>
  <line id="Baseline-S" style="fill:none;stroke:#27AAE1;opacity:1;stroke-width:0.5;" x1="263" x2="3036" y1="696" y2="696"/>
  <line id="Capline-S" style="fill:none;stroke:#27AAE1;opacity:1;stroke-width:0.5;" x1="263" x2="3036" y1="625.541" y2="625.541"/>
  <g id="H-reference" style="fill:#27AAE1;stroke:none;" transform="matrix(1 0 0 1 339 1126)">
   <path d="M0.976562 0L3.66211 0L12.9883-24.4629L45.752-24.4629L55.127 0L57.7637 0L30.6152-70.459L28.125-70.459ZM29.3457-67.1387L29.4434-67.1387L44.873-26.709L13.8672-26.709Z"/>
  </g>
  <line id="Baseline-M" style="fill:none;stroke:#27AAE1;opacity:1;stroke-width:0.5;" x1="263" x2="3036" y1="1126" y2="1126"/>
  <line id="Capline-M" style="fill:none;stroke:#27AAE1;opacity:1;stroke-width:0.5;" x1="263" x2="3036" y1="1055.54" y2="1055.54"/>
  <g id="H-reference" style="fill:#27AAE1;stroke:none;" transform="matrix(1 0 0 1 339 1556)">
   <path d="M0.976562 0L3.66211 0L12.9883-24.4629L45.752-24.4629L55.127 0L57.7637 0L30.6152-70.459L28.125-70.459ZM29.3457-67.1387L29.4434-67.1387L44.873-26.709L13.8672-26.709Z"/>
  </g>
  <line id="Baseline-L" style="fill:none;stroke:#27AAE1;opacity:1;stroke-width:0.5;" x1="263" x2="3036" y1="1556" y2="1556"/>
  <line id="Capline-L" style="fill:none;stroke:#27AAE1;opacity:1;stroke-width:0.5;" x1="263" x2="3036" y1="1485.54" y2="1485.54"/>
  <line id="left-margin" x1="1406.5892389787946" x2="1406.5892389787946" y1="1030.79" y2="1150.12" style="fill:none;stroke:#00AEEF;stroke-width:0.5;opacity:1.0;"/>
  <line id="right-margin" x1="1495.6707610212052" x2="1495.6707610212052" y1="1030.79" y2="1150.12" style="fill:none;stroke:#00AEEF;stroke-width:0.5;opacity:1.0;"/>
 </g>
 <g id="Symbols">
  <g id="Black-L" transform="matrix(1.0,0.0,0.0,1.0,2880.576815708705,1466.6668352399554)">  <path fill-rule="nonzero" stroke-linecap="square" stroke="none" stroke-dasharray="none" stroke-opacity="1" fill-opacity="1" fill="#000000" stroke-miterlimit="4" stroke-linejoin="miter" stroke-width="1px" d="M1.577,56.133L34.039,88.595L39.676,94.231L45.312,88.595L106.629,27.278L112.266,21.641L100.993,10.368L95.356,16.005L34.039,77.322L45.312,77.322L12.85,44.86L7.214,39.223L-4.059,50.496L1.577,56.133Z"/>
</g>
  <g id="Heavy-L" transform="matrix(1.0,0.0,0.0,1.0,2583.866815708705,1466.6668352399554)">  <path stroke-dasharray="none" stroke="none" fill="#000000" stroke-linecap="square" stroke-opacity="1" stroke-width="1px" stroke-miterlimit="4" stroke-linejoin="miter" fill-opacity="1" fill-rule="nonzero" d="M2.194,55.516L34.656,87.977L39.676,92.997L44.695,87.977L106.012,26.661L111.031,21.641L100.993,11.603L95.973,16.622L34.656,77.939L44.695,77.939L12.233,45.477L7.214,40.458L-2.825,50.496L2.194,55.516Z"/>
</g>
  <g id="Bold-L" transform="matrix(1.0,0.0,0.0,1.0,2287.156815708705,1466.6668352399554)">  <path stroke-miterlimit="4" stroke="none" stroke-linejoin="miter" fill="#000000" stroke-width="1px" stroke-dasharray="none" fill-opacity="1" stroke-linecap="square" fill-rule="nonzero" stroke-opacity="1" d="M2.812,54.898L35.274,87.36L39.676,91.762L44.078,87.36L105.395,26.043L109.797,21.641L100.993,12.837L96.591,17.239L35.274,78.556L44.078,78.556L11.616,46.094L7.214,41.692L-1.59,50.496L2.812,54.898Z"/>
</g>
  <g id="Semibold-L" transform="matrix(1.0,0.0,0.0,1.0,1990.4468157087053,1466.6668352399554)">  <path stroke-dasharray="none" fill="#000000" fill-opacity="1" stroke="none" stroke-linejoin="miter" stroke-miterlimit="4" stroke-linecap="square" stroke-width="1px" stroke-opacity="1" fill-rule="nonzero" d="M3.429,54.281L35.891,86.743L39.676,90.528L43.461,86.743L104.777,25.426L108.562,21.641L100.993,14.072L97.208,17.856L35.891,79.173L43.461,79.173L10.999,46.711L7.214,42.927L-0.356,50.496L3.429,54.281Z"/>
</g>
  <g id="Medium-L" transform="matrix(1.0,0.0,0.0,1.0,1693.7368157087053,1466.6668352399554)">  <path fill-opacity="1" stroke-dasharray="none" stroke-miterlimit="4" stroke-linejoin="miter" stroke-opacity="1" fill-rule="nonzero" fill="#000000" stroke-width="1px" stroke="none" stroke-linecap="square" d="M4.046,53.664L36.508,86.126L39.676,89.294L42.843,86.126L104.16,24.809L107.328,21.641L100.993,15.306L97.825,18.474L36.508,79.791L42.843,79.791L10.381,47.329L7.214,44.161L0.878,50.496L4.046,53.664Z"/>
</g>
  <g id="Regular-L" transform="matrix(1.0,0.0,0.0,1.0,1397.0268157087053,1466.6668352399554)">  <path stroke-dasharray="none" fill-opacity="1" stroke-linejoin="miter" fill="#000000" stroke-linecap="square" stroke-miterlimit="4" stroke-width="1px" stroke="none" stroke-opacity="1" fill-rule="nonzero" d="M4.663,53.047L37.125,85.509L39.676,88.059L42.226,85.509L103.543,24.192L106.094,21.641L100.993,16.54L98.442,19.091L37.125,80.408L42.226,80.408L9.764,47.946L7.214,45.395L2.113,50.496L4.663,53.047Z"/>
</g>
  <g id="Light-L" transform="matrix(1.0,0.0,0.0,1.0,1100.3168157087055,1466.6668352399554)">  <path fill="#000000" stroke-dasharray="none" stroke-miterlimit="4" stroke-width="1px" stroke-linejoin="miter" fill-rule="nonzero" stroke-opacity="1" fill-opacity="1" stroke="none" stroke-linecap="square" d="M5.088,52.622L37.55,85.084L39.676,87.209L41.801,85.084L103.118,23.767L105.243,21.641L100.993,17.391L98.867,19.516L37.55,80.833L41.801,80.833L9.339,48.371L7.214,46.246L2.963,50.496L5.088,52.622Z"/>
</g>
  <g id="Thin-L" transform="matrix(1.0,0.0,0.0,1.0,803.6068157087054,1466.6668352399554)">  <path fill-rule="nonzero" stroke-opacity="1" stroke="none" stroke-dasharray="none" fill-opacity="1" fill="#000000" stroke-linecap="square" stroke-linejoin="miter" stroke-width="1px" stroke-miterlimit="4" d="M5.513,52.197L37.975,84.659L39.676,86.359L41.376,84.659L102.693,23.342L104.393,21.641L100.993,18.241L99.292,19.941L37.975,81.258L41.376,81.258L8.914,48.796L7.214,47.096L3.813,50.496L5.513,52.197Z"/>
</g>
  <g id="Ultralight-L" transform="matrix(1.0,0.0,0.0,1.0,506.8968157087054,1466.6668352399554)">  <path stroke-linejoin="miter" stroke-linecap="square" stroke-opacity="1" stroke-dasharray="none" stroke-miterlimit="4" fill-opacity="1" stroke="none" stroke-width="1px" fill-rule="nonzero" fill="#000000" d="M5.939,51.772L38.4,84.233L39.676,85.509L40.951,84.233L102.268,22.916L103.543,21.641L100.993,19.091L99.717,20.366L38.4,81.683L40.951,81.683L8.489,49.221L7.214,47.946L4.663,50.496L5.939,51.772Z"/>
</g>
  <g id="Black-M" transform="matrix(1.0,0.0,0.0,1.0,2892.7395470610118,1048.829566592262)">  <path fill-rule="nonzero" stroke-linecap="square" stroke="none" stroke-dasharray="none" stroke-opacity="1" fill-opacity="1" fill="#000000" stroke-miterlimit="4" stroke-linejoin="miter" stroke-width="1px" d="M1.223,43.514L26.387,68.678L30.756,73.047L35.126,68.678L82.658,21.146L87.028,16.776L78.289,8.037L73.919,12.407L26.387,59.939L35.126,59.939L9.961,34.775L5.592,30.406L-3.147,39.144L1.223,43.514Z"/>
</g>
  <g id="Heavy-M" transform="matrix(1.0,0.0,0.0,1.0,2596.0295470610117,1048.829566592262)">  <path stroke-dasharray="none" stroke="none" fill="#000000" stroke-linecap="square" stroke-opacity="1" stroke-width="1px" stroke-miterlimit="4" stroke-linejoin="miter" fill-opacity="1" fill-rule="nonzero" d="M1.701,43.035L26.865,68.2L30.756,72.091L34.647,68.2L82.18,20.667L86.071,16.776L78.289,8.994L74.398,12.885L26.865,60.418L34.647,60.418L9.483,35.254L5.592,31.363L-2.19,39.144L1.701,43.035Z"/>
</g>
  <g id="Bold-M" transform="matrix(1.0,0.0,0.0,1.0,2299.3195470610117,1048.829566592262)">  <path stroke-miterlimit="4" stroke="none" stroke-linejoin="miter" fill="#000000" stroke-width="1px" stroke-dasharray="none" fill-opacity="1" stroke-linecap="square" fill-rule="nonzero" stroke-opacity="1" d="M2.18,42.557L27.344,67.721L30.756,71.134L34.169,67.721L81.701,20.189L85.114,16.776L78.289,9.951L74.876,13.364L27.344,60.896L34.169,60.896L9.005,35.732L5.592,32.32L-1.233,39.144L2.18,42.557Z"/>
</g>
  <g id="Semibold-M" transform="matrix(1.0,0.0,0.0,1.0,2002.6095470610119,1048.829566592262)">  <path stroke-dasharray="none" fill="#000000" fill-opacity="1" stroke="none" stroke-linejoin="miter" stroke-miterlimit="4" stroke-linecap="square" stroke-width="1px" stroke-opacity="1" fill-rule="nonzero" d="M2.658,42.078L27.822,67.243L30.756,70.177L33.69,67.243L81.223,19.71L84.157,16.776L78.289,10.908L75.355,13.842L27.822,61.375L33.69,61.375L8.526,36.21L5.592,33.276L-0.276,39.144L2.658,42.078Z"/>
</g>
  <g id="Medium-M" transform="matrix(1.0,0.0,0.0,1.0,1705.8995470610118,1048.829566592262)">  <path fill-opacity="1" stroke-dasharray="none" stroke-miterlimit="4" stroke-linejoin="miter" stroke-opacity="1" fill-rule="nonzero" fill="#000000" stroke-width="1px" stroke="none" stroke-linecap="square" d="M3.137,41.6L28.301,66.764L30.756,69.22L33.212,66.764L80.744,19.232L83.2,16.776L78.289,11.865L75.833,14.321L28.301,61.853L33.212,61.853L8.048,36.689L5.592,34.233L0.681,39.144L3.137,41.6Z"/>
</g>
  <g id="Regular-M" transform="matrix(1.0,0.0,0.0,1.0,1409.1895470610118,1048.829566592262)">  <path stroke-dasharray="none" fill-opacity="1" stroke-linejoin="miter" fill="#000000" stroke-linecap="square" stroke-miterlimit="4" stroke-width="1px" stroke="none" stroke-opacity="1" fill-rule="nonzero" d="M3.615,41.122L28.779,66.286L30.756,68.263L32.733,66.286L80.266,18.753L82.243,16.776L78.289,12.822L76.312,14.799L28.779,62.332L32.733,62.332L7.569,37.167L5.592,35.19L1.638,39.144L3.615,41.122Z"/>
</g>
  <g id="Light-M" transform="matrix(1.0,0.0,0.0,1.0,1112.479547061012,1048.829566592262)">  <path fill="#000000" stroke-dasharray="none" stroke-miterlimit="4" stroke-width="1px" stroke-linejoin="miter" fill-rule="nonzero" stroke-opacity="1" fill-opacity="1" stroke="none" stroke-linecap="square" d="M3.944,40.792L29.109,65.956L30.756,67.604L32.404,65.956L79.936,18.424L81.584,16.776L78.289,13.481L76.641,15.129L29.109,62.661L32.404,62.661L7.24,37.497L5.592,35.849L2.297,39.144L3.944,40.792Z"/>
</g>
  <g id="Thin-M" transform="matrix(1.0,0.0,0.0,1.0,815.769547061012,1048.829566592262)">  <path fill-rule="nonzero" stroke-opacity="1" stroke="none" stroke-dasharray="none" fill-opacity="1" fill="#000000" stroke-linecap="square" stroke-linejoin="miter" stroke-width="1px" stroke-miterlimit="4" d="M4.274,40.462L29.438,65.627L30.756,66.945L32.074,65.627L79.607,18.094L80.925,16.776L78.289,14.14L76.971,15.458L29.438,62.991L32.074,62.991L6.91,37.826L5.592,36.508L2.956,39.144L4.274,40.462Z"/>
</g>
  <g id="Ultralight-M" transform="matrix(1.0,0.0,0.0,1.0,519.0595470610119,1048.829566592262)">  <path stroke-linejoin="miter" stroke-linecap="square" stroke-opacity="1" stroke-dasharray="none" stroke-miterlimit="4" fill-opacity="1" stroke="none" stroke-width="1px" fill-rule="nonzero" fill="#000000" d="M4.604,40.133L29.768,65.297L30.756,66.286L31.745,65.297L79.277,17.765L80.266,16.776L78.289,14.799L77.3,15.788L29.768,63.32L31.745,63.32L6.581,38.156L5.592,37.167L3.615,39.144L4.604,40.133Z"/>
</g>
  <g id="Black-S" transform="matrix(1.0,0.0,0.0,1.0,2901.840625348772,627.9306448800223)">  <path fill-rule="nonzero" stroke-linecap="square" stroke="none" stroke-dasharray="none" stroke-opacity="1" fill-opacity="1" fill="#000000" stroke-miterlimit="4" stroke-linejoin="miter" stroke-width="1px" d="M0.957,34.071L20.661,53.775L24.082,57.196L27.503,53.775L64.721,16.557L68.143,13.136L61.3,6.293L57.879,9.715L20.661,46.932L27.503,46.932L7.8,27.229L4.379,23.808L-2.464,30.65L0.957,34.071Z"/>
</g>
  <g id="Heavy-S" transform="matrix(1.0,0.0,0.0,1.0,2605.130625348772,627.9306448800223)">  <path stroke-dasharray="none" stroke="none" fill="#000000" stroke-linecap="square" stroke-opacity="1" stroke-width="1px" stroke-miterlimit="4" stroke-linejoin="miter" fill-opacity="1" fill-rule="nonzero" d="M1.332,33.697L21.036,53.4L24.082,56.447L27.129,53.4L64.347,16.182L67.393,13.136L61.3,7.043L58.254,10.089L21.036,47.307L27.129,47.307L7.425,27.603L4.379,24.557L-1.715,30.65L1.332,33.697Z"/>
</g>
  <g id="Bold-S" transform="matrix(1.0,0.0,0.0,1.0,2308.420625348772,627.9306448800223)">  <path stroke-miterlimit="4" stroke="none" stroke-linejoin="miter" fill="#000000" stroke-width="1px" stroke-dasharray="none" fill-opacity="1" stroke-linecap="square" fill-rule="nonzero" stroke-opacity="1" d="M1.707,33.322L21.41,53.026L24.082,55.698L26.754,53.026L63.972,15.808L66.644,13.136L61.3,7.792L58.628,10.464L21.41,47.682L26.754,47.682L7.051,27.978L4.379,25.306L-0.965,30.65L1.707,33.322Z"/>
</g>
  <g id="Semibold-S" transform="matrix(1.0,0.0,0.0,1.0,2011.7106253487723,627.9306448800223)">  <path stroke-dasharray="none" fill="#000000" fill-opacity="1" stroke="none" stroke-linejoin="miter" stroke-miterlimit="4" stroke-linecap="square" stroke-width="1px" stroke-opacity="1" fill-rule="nonzero" d="M2.081,32.947L21.785,52.651L24.082,54.948L26.38,52.651L63.597,15.433L65.895,13.136L61.3,8.541L59.003,10.838L21.785,48.056L26.38,48.056L6.676,28.353L4.379,26.055L-0.216,30.65L2.081,32.947Z"/>
</g>
  <g id="Medium-S" transform="matrix(1.0,0.0,0.0,1.0,1715.0006253487722,627.9306448800223)">  <path fill-opacity="1" stroke-dasharray="none" stroke-miterlimit="4" stroke-linejoin="miter" stroke-opacity="1" fill-rule="nonzero" fill="#000000" stroke-width="1px" stroke="none" stroke-linecap="square" d="M2.456,32.573L22.16,52.276L24.082,54.199L26.005,52.276L63.223,15.058L65.146,13.136L61.3,9.29L59.377,11.213L22.16,48.431L26.005,48.431L6.301,28.727L4.379,26.805L0.533,30.65L2.456,32.573Z"/>
</g>
  <g id="Regular-S" transform="matrix(1.0,0.0,0.0,1.0,1418.2906253487722,627.9306448800223)">  <path stroke-dasharray="none" fill-opacity="1" stroke-linejoin="miter" fill="#000000" stroke-linecap="square" stroke-miterlimit="4" stroke-width="1px" stroke="none" stroke-opacity="1" fill-rule="nonzero" d="M2.831,32.198L22.534,51.902L24.082,53.45L25.63,51.902L62.848,14.684L64.396,13.136L61.3,10.04L59.752,11.588L22.534,48.806L25.63,48.806L5.927,29.102L4.379,27.554L1.282,30.65L2.831,32.198Z"/>
</g>
  <g id="Light-S" transform="matrix(1.0,0.0,0.0,1.0,1121.5806253487724,627.9306448800223)">  <path fill="#000000" stroke-dasharray="none" stroke-miterlimit="4" stroke-width="1px" stroke-linejoin="miter" fill-rule="nonzero" stroke-opacity="1" fill-opacity="1" stroke="none" stroke-linecap="square" d="M3.089,31.94L22.792,51.644L24.082,52.934L25.372,51.644L62.59,14.426L63.88,13.136L61.3,10.556L60.01,11.846L22.792,49.064L25.372,49.064L5.669,29.36L4.379,28.07L1.798,30.65L3.089,31.94Z"/>
</g>
  <g id="Thin-S" transform="matrix(1.0,0.0,0.0,1.0,824.8706253487724,627.9306448800223)">  <path fill-rule="nonzero" stroke-opacity="1" stroke="none" stroke-dasharray="none" fill-opacity="1" fill="#000000" stroke-linecap="square" stroke-linejoin="miter" stroke-width="1px" stroke-miterlimit="4" d="M3.347,31.682L23.05,51.386L24.082,52.418L25.114,51.386L62.332,14.168L63.364,13.136L61.3,11.072L60.268,12.104L23.05,49.322L25.114,49.322L5.411,29.618L4.379,28.586L2.314,30.65L3.347,31.682Z"/>
</g>
  <g id="Ultralight-S" transform="matrix(1.0,0.0,0.0,1.0,528.1606253487723,627.9306448800223)">  <path stroke-linejoin="miter" stroke-linecap="square" stroke-opacity="1" stroke-dasharray="none" stroke-miterlimit="4" fill-opacity="1" stroke="none" stroke-width="1px" fill-rule="nonzero" fill="#000000" d="M3.605,31.424L23.308,51.128L24.082,51.902L24.856,51.128L62.074,13.91L62.848,13.136L61.3,11.588L60.526,12.362L23.308,49.58L24.856,49.58L5.153,29.876L4.379,29.102L2.831,30.65L3.605,31.424Z"/>
</g>
 </g>
</svg>
