<?xml version="1.0" encoding="UTF-8"?>
<!-- Generator: CustomSymbols v2.6.2.41 by @serious_bret https://bretlester.com/app_content/CustomSymbols/ -->
<!-- Guides: Left/Right -0.031/-0.031 Cap/Base 0.08/0.08 -->
<!-- Settings: RefScale 1.0 Min/Max Stroke Scales 0.5/2.21 -->
<!DOCTYPE svg
PUBLIC "-//W3C//DTD SVG 1.1//EN"
       "http://www.w3.org/Graphics/SVG/1.1/DTD/svg11.dtd">
<svg version="1.1" xmlns="http://www.w3.org/2000/svg" xmlns:xlink="http://www.w3.org/1999/xlink" width="3300" height="2200">
<![CDATA[<svg width="15" height="15" viewBox="0 0 15 15" fill="none" xmlns="http://www.w3.org/2000/svg">
<path d="M7 1.5L2 1.5M14.5 12.5L14.5 4.5C14.5 3.94772 14.0523 3.5 13.5 3.5L1.5 3.5C0.947717 3.5 0.500001 3.94772 0.500001 4.5L0.5 12.5C0.5 13.0523 0.947716 13.5 1.5 13.5L13.5 13.5C14.0523 13.5 14.5 13.0523 14.5 12.5ZM9.5 10.5C8.39543 10.5 7.5 9.60457 7.5 8.5C7.5 7.39543 8.39543 6.5 9.5 6.5C10.6046 6.5 11.5 7.39543 11.5 8.5C11.5 9.60457 10.6046 10.5 9.5 10.5Z" stroke="#1D1929"/>
</svg>
]]>
 <g id="Notes">
  <rect height="2200" id="artboard" style="fill:white;opacity:1" width="3300" x="0" y="0"/>
  <line id="" style="fill:none;stroke:black;opacity:1;stroke-width:0.5;" x1="263" x2="3036" y1="292" y2="292"/>
  <text id="reftext1" style="stroke:none;fill:black;font-family:-apple-system,&quot;SF Pro Display&quot;,&quot;SF Pro Text&quot;,Helvetica,sans-serif;font-weight:bold;" transform="matrix(1 0 0 1 263 322)">Weight/Scale Variations</text>
  <text id="reftext2" style="stroke:none;fill:black;font-family:-apple-system,&quot;SF Pro Display&quot;,&quot;SF Pro Text&quot;,Helvetica,sans-serif;text-anchor:middle;" transform="matrix(1 0 0 1 559.711 322)">Ultralight</text>
  <text style="stroke:none;fill:black;font-family:-apple-system,&quot;SF Pro Display&quot;,&quot;SF Pro Text&quot;,Helvetica,sans-serif;text-anchor:middle;" transform="matrix(1 0 0 1 856.422 322)">Thin</text>
  <text style="stroke:none;fill:black;font-family:-apple-system,&quot;SF Pro Display&quot;,&quot;SF Pro Text&quot;,Helvetica,sans-serif;text-anchor:middle;" transform="matrix(1 0 0 1 1153.13 322)">Light</text>
  <text style="stroke:none;fill:black;font-family:-apple-system,&quot;SF Pro Display&quot;,&quot;SF Pro Text&quot;,Helvetica,sans-serif;text-anchor:middle;" transform="matrix(1 0 0 1 1449.84 322)">Regular</text>
  <text style="stroke:none;fill:black;font-family:-apple-system,&quot;SF Pro Display&quot;,&quot;SF Pro Text&quot;,Helvetica,sans-serif;text-anchor:middle;" transform="matrix(1 0 0 1 1746.56 322)">Medium</text>
  <text style="stroke:none;fill:black;font-family:-apple-system,&quot;SF Pro Display&quot;,&quot;SF Pro Text&quot;,Helvetica,sans-serif;text-anchor:middle;" transform="matrix(1 0 0 1 2043.27 322)">Semibold</text>
  <text style="stroke:none;fill:black;font-family:-apple-system,&quot;SF Pro Display&quot;,&quot;SF Pro Text&quot;,Helvetica,sans-serif;text-anchor:middle;" transform="matrix(1 0 0 1 2339.98 322)">Bold</text>
  <text style="stroke:none;fill:black;font-family:-apple-system,&quot;SF Pro Display&quot;,&quot;SF Pro Text&quot;,Helvetica,sans-serif;text-anchor:middle;" transform="matrix(1 0 0 1 2636.69 322)">Heavy</text>
  <text style="stroke:none;fill:black;font-family:-apple-system,&quot;SF Pro Display&quot;,&quot;SF Pro Text&quot;,Helvetica,sans-serif;text-anchor:middle;" transform="matrix(1 0 0 1 2933.4 322)">Black</text>
  <line id="" style="fill:none;stroke:black;opacity:1;stroke-width:0.5;" x1="263" x2="3036" y1="1903" y2="1903"/>
  <g id="" transform="matrix(1 0 0 1 263 1933)">
   <path d="M9.24805 0.830078C13.5547 0.830078 17.1387-2.74414 17.1387-7.05078C17.1387-11.3574 13.5449-14.9316 9.23828-14.9316C4.94141-14.9316 1.36719-11.3574 1.36719-7.05078C1.36719-2.74414 4.95117 0.830078 9.24805 0.830078ZM9.24805-0.654297C5.70312-0.654297 2.87109-3.49609 2.87109-7.05078C2.87109-10.6055 5.69336-13.4473 9.23828-13.4473C12.793-13.4473 15.6348-10.6055 15.6445-7.05078C15.6543-3.49609 12.8027-0.654297 9.24805-0.654297ZM6.39648-6.31836L8.50586-6.31836L8.50586-4.19922C8.50586-3.75977 8.79883-3.45703 9.22852-3.45703C9.67773-3.45703 9.9707-3.75977 9.9707-4.19922L9.9707-6.31836L12.0996-6.31836C12.5391-6.31836 12.8418-6.61133 12.8418-7.04102C12.8418-7.48047 12.5391-7.7832 12.0996-7.7832L9.9707-7.7832L9.9707-9.89258C9.9707-10.3418 9.67773-10.6445 9.22852-10.6445C8.79883-10.6445 8.50586-10.3418 8.50586-9.89258L8.50586-7.7832L6.39648-7.7832C5.94727-7.7832 5.64453-7.48047 5.64453-7.04102C5.64453-6.61133 5.94727-6.31836 6.39648-6.31836Z"/>
  </g>
  <g id="" transform="matrix(1 0 0 1 281.506 1933)">
   <path d="M11.709 2.91016C17.1582 2.91016 21.6699-1.61133 21.6699-7.05078C21.6699-12.5 17.1484-17.0117 11.6992-17.0117C6.25977-17.0117 1.74805-12.5 1.74805-7.05078C1.74805-1.61133 6.26953 2.91016 11.709 2.91016ZM11.709 1.25C7.09961 1.25 3.41797-2.44141 3.41797-7.05078C3.41797-11.6602 7.08984-15.3516 11.6992-15.3516C16.3086-15.3516 20-11.6602 20.0098-7.05078C20.0195-2.44141 16.3184 1.25 11.709 1.25ZM7.98828-6.23047L10.8789-6.23047L10.8789-3.32031C10.8789-2.83203 11.2109-2.5 11.6895-2.5C12.1777-2.5 12.5195-2.83203 12.5195-3.32031L12.5195-6.23047L15.4297-6.23047C15.918-6.23047 16.25-6.5625 16.25-7.04102C16.25-7.5293 15.918-7.87109 15.4297-7.87109L12.5195-7.87109L12.5195-10.7617C12.5195-11.2695 12.1777-11.6016 11.6895-11.6016C11.2109-11.6016 10.8789-11.2598 10.8789-10.7617L10.8789-7.87109L7.98828-7.87109C7.48047-7.87109 7.14844-7.5293 7.14844-7.04102C7.14844-6.5625 7.49023-6.23047 7.98828-6.23047Z"/>
  </g>
  <g id="" transform="matrix(1 0 0 1 304.924 1933)">
   <path d="M14.9707 5.66406C21.9336 5.66406 27.6953-0.0976562 27.6953-7.05078C27.6953-14.0137 21.9238-19.7754 14.9609-19.7754C8.00781-19.7754 2.25586-14.0137 2.25586-7.05078C2.25586-0.0976562 8.01758 5.66406 14.9707 5.66406ZM14.9707 3.84766C8.93555 3.84766 4.08203-1.01562 4.08203-7.05078C4.08203-13.0957 8.92578-17.9492 14.9609-17.9492C21.0059-17.9492 25.8594-13.0957 25.8691-7.05078C25.8789-1.01562 21.0156 3.84766 14.9707 3.84766ZM10.0586-6.14258L14.0625-6.14258L14.0625-2.12891C14.0625-1.5918 14.4336-1.2207 14.9512-1.2207C15.4883-1.2207 15.8594-1.5918 15.8594-2.12891L15.8594-6.14258L19.8828-6.14258C20.4102-6.14258 20.791-6.51367 20.791-7.03125C20.791-7.56836 20.4199-7.94922 19.8828-7.94922L15.8594-7.94922L15.8594-11.9531C15.8594-12.5098 15.4883-12.8809 14.9512-12.8809C14.4336-12.8809 14.0625-12.5 14.0625-11.9531L14.0625-7.94922L10.0586-7.94922C9.50195-7.94922 9.13086-7.56836 9.13086-7.03125C9.13086-6.51367 9.51172-6.14258 10.0586-6.14258Z"/>
  </g>
  <text style="stroke:none;fill:black;font-family:-apple-system,&quot;SF Pro Display&quot;,&quot;SF Pro Text&quot;,Helvetica,sans-serif;font-weight:bold;" transform="matrix(1 0 0 1 263 1953)">Design Variations</text>
  <text style="stroke:none;fill:black;font-family:-apple-system,&quot;SF Pro Display&quot;,&quot;SF Pro Text&quot;,Helvetica,sans-serif;" transform="matrix(1 0 0 1 263 1971)">Symbols are supported in up to nine weights and three scales.</text>
  <text style="stroke:none;fill:black;font-family:-apple-system,&quot;SF Pro Display&quot;,&quot;SF Pro Text&quot;,Helvetica,sans-serif;" transform="matrix(1 0 0 1 263 1989)">For optimal layout with text and other symbols, vertically align</text>
  <text style="stroke:none;fill:black;font-family:-apple-system,&quot;SF Pro Display&quot;,&quot;SF Pro Text&quot;,Helvetica,sans-serif;" transform="matrix(1 0 0 1 263 2007)">symbols with the adjacent text.</text>
  <line id="" style="fill:none;stroke:#00AEEF;stroke-width:0.5;opacity:1.0;" x1="776" x2="776" y1="1919" y2="1933"/>
  <g id="" transform="matrix(1 0 0 1 776 1933)">
   <path d="M3.31055 0.126953C3.82812 0.126953 4.08203-0.0683594 4.26758-0.605469L5.52734-4.0625L11.2891-4.0625L12.5488-0.605469C12.7344-0.0683594 12.9883 0.126953 13.4961 0.126953C14.0137 0.126953 14.3457-0.185547 14.3457-0.673828C14.3457-0.839844 14.3164-0.986328 14.2383-1.20117L9.6582-13.3887C9.43359-13.9941 9.0332-14.2871 8.4082-14.2871C7.80273-14.2871 7.39258-13.9941 7.17773-13.3984L2.59766-1.19141C2.51953-0.976562 2.49023-0.830078 2.49023-0.664062C2.49023-0.175781 2.80273 0.126953 3.31055 0.126953ZM6.00586-5.53711L8.37891-12.1094L8.42773-12.1094L10.8008-5.53711Z"/>
  </g>
  <line id="" style="fill:none;stroke:#00AEEF;stroke-width:0.5;opacity:1.0;" x1="792.836" x2="792.836" y1="1919" y2="1933"/>
  <text style="stroke:none;fill:black;font-family:-apple-system,&quot;SF Pro Display&quot;,&quot;SF Pro Text&quot;,Helvetica,sans-serif;font-weight:bold;" transform="matrix(1 0 0 1 776 1953)">Margins</text>
  <text style="stroke:none;fill:black;font-family:-apple-system,&quot;SF Pro Display&quot;,&quot;SF Pro Text&quot;,Helvetica,sans-serif;" transform="matrix(1 0 0 1 776 1971)">Leading and trailing margins on the left and right side of each symbol</text>
  <text style="stroke:none;fill:black;font-family:-apple-system,&quot;SF Pro Display&quot;,&quot;SF Pro Text&quot;,Helvetica,sans-serif;" transform="matrix(1 0 0 1 776 1989)">can be adjusted by modifying the x-location of the margin guidelines.</text>
  <text style="stroke:none;fill:black;font-family:-apple-system,&quot;SF Pro Display&quot;,&quot;SF Pro Text&quot;,Helvetica,sans-serif;" transform="matrix(1 0 0 1 776 2007)">Modifications are automatically applied proportionally to all</text>
  <text style="stroke:none;fill:black;font-family:-apple-system,&quot;SF Pro Display&quot;,&quot;SF Pro Text&quot;,Helvetica,sans-serif;" transform="matrix(1 0 0 1 776 2025)">scales and weights.</text>
  <g id="" transform="matrix(1 0 0 1 1289 1933)">
   <path d="M2.8418 1.86523L4.54102 3.57422C5.40039 4.44336 6.38672 4.38477 7.31445 3.35938L17.4902-7.85156C17.7539-7.76367 18.0273-7.7832 18.3398-7.8418L19.4043-8.03711L20.0684-7.36328L20.0293-6.80664C19.9902-6.30859 20.1172-5.92773 20.6055-5.44922L21.3672-4.70703C21.8457-4.22852 22.4609-4.19922 22.9297-4.66797L25.8398-7.58789C26.3086-8.05664 26.2891-8.65234 25.8105-9.13086L25.0391-9.89258C24.5605-10.3711 24.1895-10.5273 23.7109-10.4883L23.1348-10.4395L22.4902-11.0742L22.7344-12.1973C22.8613-12.7637 22.7051-13.2031 22.1191-13.7891L19.9219-15.9766C16.582-19.2969 12.1484-19.2188 9.25781-16.3281C8.83789-15.918 8.80859-15.3418 9.04297-14.9512C9.27734-14.5898 9.73633-14.3555 10.3809-14.5215C11.8457-14.8633 13.3691-14.9219 14.7949-13.9844L14.209-12.5293C14.0137-12.0508 13.9844-11.6504 14.1113-11.2891L3.04688-0.898438C2.06055 0.0195312 1.98242 0.996094 2.8418 1.86523ZM10.752-15.957C13.1836-17.7344 16.4746-17.4316 18.7012-15.2051L21.1328-12.793C21.3672-12.5586 21.4062-12.373 21.3379-12.0312L21.0156-10.5469L22.5195-9.0625L23.5059-9.12109C23.7598-9.13086 23.8379-9.11133 24.0332-8.91602L24.6094-8.33984L22.168-5.89844L21.5918-6.47461C21.3965-6.66992 21.3672-6.74805 21.377-7.01172L21.4453-7.98828L19.9512-9.47266L18.4277-9.21875C18.1055-9.15039 17.959-9.17969 17.7148-9.41406L15.7129-11.416C15.459-11.6504 15.4297-11.8164 15.5859-12.1875L16.4648-14.2773C14.9023-15.7324 12.8711-16.3574 10.8398-15.7617C10.6836-15.7227 10.625-15.8496 10.752-15.957ZM5.27344 2.30469L4.10156 1.14258C3.63281 0.683594 3.74023 0.341797 4.14062-0.0195312L14.9512-10.1953L16.416-8.71094L6.42578 2.27539C6.07422 2.67578 5.74219 2.77344 5.27344 2.30469Z"/>
  </g>
  <text style="stroke:none;fill:black;font-family:-apple-system,&quot;SF Pro Display&quot;,&quot;SF Pro Text&quot;,Helvetica,sans-serif;font-weight:bold;" transform="matrix(1 0 0 1 1289 1953)">Exporting</text>
  <text style="stroke:none;fill:black;font-family:-apple-system,&quot;SF Pro Display&quot;,&quot;SF Pro Text&quot;,Helvetica,sans-serif;" transform="matrix(1 0 0 1 1289 1971)">Symbols should be outlined when exporting to ensure the</text>
  <text style="stroke:none;fill:black;font-family:-apple-system,&quot;SF Pro Display&quot;,&quot;SF Pro Text&quot;,Helvetica,sans-serif;" transform="matrix(1 0 0 1 1289 1989)">design is preserved when submitting to Xcode.</text>
  <text id="template-version" style="stroke:none;fill:black;font-family:-apple-system,&quot;SF Pro Display&quot;,&quot;SF Pro Text&quot;,Helvetica,sans-serif;text-anchor:end;" transform="matrix(1 0 0 1 3036 1933)">Template v.2.0</text>
  <text style="stroke:none;fill:black;font-family:-apple-system,&quot;SF Pro Display&quot;,&quot;SF Pro Text&quot;,Helvetica,sans-serif;text-anchor:end;" transform="matrix(1 0 0 1 3036 1951)">Requires Xcode 12 or greater</text>
  <text style="stroke:none;fill:black;font-family:-apple-system,&quot;SF Pro Display&quot;,&quot;SF Pro Text&quot;,Helvetica,sans-serif;" transform="matrix(1 0 0 1 263 726)">Small</text>
  <text style="stroke:none;fill:black;font-family:-apple-system,&quot;SF Pro Display&quot;,&quot;SF Pro Text&quot;,Helvetica,sans-serif;" transform="matrix(1 0 0 1 263 1156)">Medium</text>
  <text style="stroke:none;fill:black;font-family:-apple-system,&quot;SF Pro Display&quot;,&quot;SF Pro Text&quot;,Helvetica,sans-serif;" transform="matrix(1 0 0 1 263 1586)">Large</text>
 </g>
 <g id="Guides">
  <g id="H-reference" style="fill:#27AAE1;stroke:none;" transform="matrix(1 0 0 1 339 696)">
   <path d="M0.976562 0L3.66211 0L12.9883-24.4629L45.752-24.4629L55.127 0L57.7637 0L30.6152-70.459L28.125-70.459ZM29.3457-67.1387L29.4434-67.1387L44.873-26.709L13.8672-26.709Z"/>
  </g>
  <line id="Baseline-S" style="fill:none;stroke:#27AAE1;opacity:1;stroke-width:0.5;" x1="263" x2="3036" y1="696" y2="696"/>
  <line id="Capline-S" style="fill:none;stroke:#27AAE1;opacity:1;stroke-width:0.5;" x1="263" x2="3036" y1="625.541" y2="625.541"/>
  <g id="H-reference" style="fill:#27AAE1;stroke:none;" transform="matrix(1 0 0 1 339 1126)">
   <path d="M0.976562 0L3.66211 0L12.9883-24.4629L45.752-24.4629L55.127 0L57.7637 0L30.6152-70.459L28.125-70.459ZM29.3457-67.1387L29.4434-67.1387L44.873-26.709L13.8672-26.709Z"/>
  </g>
  <line id="Baseline-M" style="fill:none;stroke:#27AAE1;opacity:1;stroke-width:0.5;" x1="263" x2="3036" y1="1126" y2="1126"/>
  <line id="Capline-M" style="fill:none;stroke:#27AAE1;opacity:1;stroke-width:0.5;" x1="263" x2="3036" y1="1055.54" y2="1055.54"/>
  <g id="H-reference" style="fill:#27AAE1;stroke:none;" transform="matrix(1 0 0 1 339 1556)">
   <path d="M0.976562 0L3.66211 0L12.9883-24.4629L45.752-24.4629L55.127 0L57.7637 0L30.6152-70.459L28.125-70.459ZM29.3457-67.1387L29.4434-67.1387L44.873-26.709L13.8672-26.709Z"/>
  </g>
  <line id="Baseline-L" style="fill:none;stroke:#27AAE1;opacity:1;stroke-width:0.5;" x1="263" x2="3036" y1="1556" y2="1556"/>
  <line id="Capline-L" style="fill:none;stroke:#27AAE1;opacity:1;stroke-width:0.5;" x1="263" x2="3036" y1="1485.54" y2="1485.54"/>
  <line id="left-margin" x1="1406.5892389787946" x2="1406.5892389787946" y1="1030.79" y2="1150.12" style="fill:none;stroke:#00AEEF;stroke-width:0.5;opacity:1.0;"/>
  <line id="right-margin" x1="1495.6707610212052" x2="1495.6707610212052" y1="1030.79" y2="1150.12" style="fill:none;stroke:#00AEEF;stroke-width:0.5;opacity:1.0;"/>
 </g>
 <g id="Symbols">
  <g id="Black-L" transform="matrix(1.0,0.0,0.0,1.0,2880.576815708705,1466.6668352399554)">  <path stroke-miterlimit="4" fill-rule="nonzero" stroke-linejoin="miter" fill="#000000" stroke="none" stroke-width="1px" stroke-dasharray="none" stroke-linecap="butt" fill-opacity="1" stroke-opacity="1" d="M50.496,2.849L14.428,2.849L14.428,18.792L50.496,18.792L50.496,2.849ZM112.571,90.172L112.571,32.462C112.571,24.075,105.772,17.277,97.386,17.277L10.821,17.277C2.434,17.277,-4.364,24.076,-4.364,32.462L-4.364,90.172C-4.364,98.558,2.434,105.357,10.821,105.357L97.386,105.357C105.772,105.357,112.571,98.559,112.571,90.172ZM96.628,90.172C96.628,89.754,96.968,89.415,97.386,89.415L10.821,89.415C11.239,89.415,11.578,89.754,11.578,90.172L11.578,32.462C11.578,32.88,11.239,33.219,10.821,33.219L97.386,33.219C96.967,33.219,96.628,32.88,96.628,32.462L96.628,90.172ZM68.531,67.773C64.965,67.773,62.074,64.883,62.074,61.317C62.074,57.751,64.965,54.861,68.531,54.861C72.097,54.861,74.987,57.751,74.987,61.317C74.987,64.883,72.097,67.773,68.531,67.773ZM68.531,83.716C80.901,83.716,90.929,73.687,90.929,61.317C90.929,48.946,80.901,38.918,68.531,38.918C56.16,38.918,46.132,48.946,46.132,61.317C46.132,73.687,56.16,83.716,68.531,83.716Z"/>
</g>
  <g id="Heavy-L" transform="matrix(1.0,0.0,0.0,1.0,2583.866815708705,1466.6668352399554)">  <path stroke-dasharray="none" fill="#000000" fill-opacity="1" stroke="none" stroke-linejoin="miter" stroke-miterlimit="4" stroke-linecap="butt" stroke-width="1px" stroke-opacity="1" fill-rule="nonzero" d="M50.496,3.722L14.428,3.722L14.428,17.919L50.496,17.919L50.496,3.722ZM111.698,90.172L111.698,32.462C111.698,24.558,105.29,18.15,97.386,18.15L10.821,18.15C2.916,18.15,-3.491,24.558,-3.491,32.462L-3.491,90.172C-3.491,98.076,2.916,104.484,10.821,104.484L97.386,104.484C105.29,104.484,111.698,98.076,111.698,90.172ZM97.501,90.172C97.501,90.236,97.45,90.287,97.386,90.287L10.821,90.287C10.757,90.287,10.705,90.236,10.705,90.172L10.705,32.462C10.705,32.398,10.757,32.346,10.821,32.346L97.386,32.346C97.45,32.346,97.501,32.398,97.501,32.462L97.501,90.172ZM68.531,68.646C64.483,68.646,61.202,65.365,61.202,61.317C61.202,57.269,64.483,53.988,68.531,53.988C72.579,53.988,75.86,57.269,75.86,61.317C75.86,65.365,72.579,68.646,68.531,68.646ZM68.531,82.843C80.419,82.843,90.057,73.205,90.057,61.317C90.057,49.428,80.419,39.791,68.531,39.791C56.642,39.791,47.005,49.429,47.005,61.317C47.005,73.205,56.642,82.843,68.531,82.843Z"/>
</g>
  <g id="Bold-L" transform="matrix(1.0,0.0,0.0,1.0,2287.156815708705,1466.6668352399554)">  <path stroke="none" stroke-linejoin="miter" stroke-opacity="1" fill-opacity="1" stroke-miterlimit="4" stroke-dasharray="none" fill-rule="nonzero" stroke-width="1px" fill="#000000" stroke-linecap="butt" d="M50.496,4.595L14.428,4.595L14.428,17.046L50.496,17.046L50.496,4.595ZM110.825,90.172L110.825,32.462C110.825,25.04,104.808,19.023,97.386,19.023L10.821,19.023C3.398,19.023,-2.619,25.04,-2.619,32.462L-2.619,90.172C-2.619,97.594,3.398,103.611,10.821,103.611L97.386,103.611C104.808,103.611,110.825,97.594,110.825,90.172ZM98.374,90.172C98.374,90.718,97.932,91.16,97.386,91.16L10.821,91.16C10.275,91.16,9.832,90.718,9.832,90.172L9.832,32.462C9.832,31.916,10.275,31.474,10.821,31.474L97.386,31.474C97.932,31.474,98.374,31.916,98.374,32.462L98.374,90.172ZM68.531,69.519C64.001,69.519,60.329,65.847,60.329,61.317C60.329,56.787,64.001,53.115,68.531,53.115C73.061,53.115,76.733,56.787,76.733,61.317C76.733,65.847,73.061,69.519,68.531,69.519ZM68.531,81.97C79.937,81.97,89.184,72.723,89.184,61.317C89.184,49.911,79.937,40.664,68.531,40.664C57.124,40.664,47.878,49.911,47.878,61.317C47.878,72.723,57.124,81.97,68.531,81.97Z"/>
</g>
  <g id="Semibold-L" transform="matrix(1.0,0.0,0.0,1.0,1990.4468157087053,1466.6668352399554)">  <path stroke-linejoin="miter" stroke-linecap="butt" stroke-opacity="1" stroke-dasharray="none" stroke-miterlimit="4" fill-opacity="1" stroke="none" stroke-width="1px" fill-rule="nonzero" fill="#000000" d="M50.496,5.468L14.428,5.468L14.428,16.173L50.496,16.173L50.496,5.468ZM109.952,90.172L109.952,32.462C109.952,25.522,104.326,19.896,97.386,19.896L10.821,19.896C3.88,19.896,-1.746,25.522,-1.746,32.462L-1.746,90.172C-1.746,97.112,3.88,102.738,10.821,102.738L97.386,102.738C104.326,102.738,109.952,97.112,109.952,90.172ZM99.247,90.172C99.247,91.2,98.414,92.033,97.386,92.033L10.821,92.033C9.793,92.033,8.959,91.2,8.959,90.172L8.959,32.462C8.959,31.434,9.793,30.601,10.821,30.601L97.386,30.601C98.414,30.601,99.247,31.434,99.247,32.462L99.247,90.172ZM68.531,70.392C63.519,70.392,59.456,66.329,59.456,61.317C59.456,56.305,63.519,52.242,68.531,52.242C73.543,52.242,77.606,56.305,77.606,61.317C77.606,66.329,73.543,70.392,68.531,70.392ZM68.531,81.097C79.455,81.097,88.311,72.241,88.311,61.317C88.311,50.393,79.455,41.537,68.531,41.537C57.606,41.537,48.751,50.393,48.751,61.317C48.751,72.241,57.606,81.097,68.531,81.097Z"/>
</g>
  <g id="Medium-L" transform="matrix(1.0,0.0,0.0,1.0,1693.7368157087053,1466.6668352399554)">  <path fill-rule="nonzero" stroke-opacity="1" stroke="none" stroke-dasharray="none" fill-opacity="1" fill="#000000" stroke-linecap="butt" stroke-linejoin="miter" stroke-width="1px" stroke-miterlimit="4" d="M50.496,6.341L14.428,6.341L14.428,15.3L50.496,15.3L50.496,6.341ZM109.079,90.172L109.079,32.462C109.079,26.004,103.844,20.768,97.386,20.768L10.821,20.768C4.363,20.768,-0.873,26.004,-0.873,32.462L-0.873,90.172C-0.873,96.63,4.362,101.865,10.821,101.865L97.386,101.865C103.844,101.865,109.079,96.63,109.079,90.172ZM100.12,90.172C100.12,91.682,98.896,92.906,97.386,92.906L10.821,92.906C9.311,92.906,8.087,91.682,8.087,90.172L8.087,32.462C8.087,30.952,9.311,29.728,10.821,29.728L97.386,29.728C98.896,29.728,100.12,30.952,100.12,32.462L100.12,90.172ZM68.531,71.265C63.037,71.265,58.583,66.811,58.583,61.317C58.583,55.823,63.037,51.369,68.531,51.369C74.025,51.369,78.478,55.823,78.478,61.317C78.478,66.811,74.025,71.265,68.531,71.265ZM68.531,80.224C78.973,80.224,87.438,71.759,87.438,61.317C87.438,50.875,78.973,42.41,68.531,42.41C58.089,42.41,49.623,50.875,49.623,61.317C49.623,71.759,58.089,80.224,68.531,80.224Z"/>
</g>
  <g id="Regular-L" transform="matrix(1.0,0.0,0.0,1.0,1397.0268157087053,1466.6668352399554)">  <path fill-rule="nonzero" stroke-opacity="1" fill-opacity="1" stroke-dasharray="none" fill="#000000" stroke-linejoin="miter" stroke="none" stroke-linecap="butt" stroke-miterlimit="4" stroke-width="1px" d="M50.496,7.214L14.428,7.214L14.428,14.428L50.496,14.428L50.496,7.214ZM108.206,90.172L108.206,32.462C108.206,26.486,103.362,21.641,97.386,21.641L10.821,21.641C4.845,21.641,0,26.486,0,32.462L0,90.172C0,96.148,4.845,100.993,10.821,100.993L97.386,100.993C103.362,100.993,108.206,96.148,108.206,90.172ZM100.993,90.172C100.993,92.164,99.378,93.779,97.386,93.779L10.821,93.779C8.829,93.779,7.214,92.164,7.214,90.172L7.214,32.462C7.214,30.47,8.829,28.855,10.821,28.855L97.386,28.855C99.378,28.855,100.993,30.47,100.993,32.462L100.993,90.172ZM68.531,72.138C62.555,72.138,57.71,67.293,57.71,61.317C57.71,55.341,62.555,50.496,68.531,50.496C74.507,50.496,79.351,55.341,79.351,61.317C79.351,67.293,74.507,72.138,68.531,72.138ZM68.531,79.351C78.491,79.351,86.565,71.277,86.565,61.317C86.565,51.357,78.491,43.283,68.531,43.283C58.571,43.283,50.496,51.357,50.496,61.317C50.496,71.277,58.571,79.351,68.531,79.351Z"/>
</g>
  <g id="Light-L" transform="matrix(1.0,0.0,0.0,1.0,1100.3168157087055,1466.6668352399554)">  <path stroke-dasharray="none" fill-opacity="1" stroke-linejoin="miter" fill="#000000" stroke-linecap="butt" stroke-miterlimit="4" stroke-width="1px" stroke="none" stroke-opacity="1" fill-rule="nonzero" d="M50.496,7.815L14.428,7.815L14.428,13.826L50.496,13.826L50.496,7.815ZM107.605,90.172L107.605,32.462C107.605,26.818,103.03,22.242,97.386,22.242L10.821,22.242C5.177,22.242,0.601,26.818,0.601,32.462L0.601,90.172C0.601,95.816,5.177,100.391,10.821,100.391L97.386,100.391C103.03,100.391,107.605,95.816,107.605,90.172ZM101.594,90.172C101.594,92.496,99.71,94.38,97.386,94.38L10.821,94.38C8.497,94.38,6.613,92.496,6.613,90.172L6.613,32.462C6.613,30.138,8.497,28.254,10.821,28.254L97.386,28.254C99.71,28.254,101.594,30.138,101.594,32.462L101.594,90.172ZM68.531,72.739C62.223,72.739,57.109,67.625,57.109,61.317C57.109,55.009,62.223,49.895,68.531,49.895C74.839,49.895,79.952,55.009,79.952,61.317C79.952,67.625,74.839,72.739,68.531,72.739ZM68.531,78.75C78.159,78.75,85.964,70.945,85.964,61.317C85.964,51.689,78.159,43.884,68.531,43.884C58.903,43.884,51.097,51.689,51.097,61.317C51.097,70.945,58.903,78.75,68.531,78.75Z"/>
</g>
  <g id="Thin-L" transform="matrix(1.0,0.0,0.0,1.0,803.6068157087054,1466.6668352399554)">  <path stroke-linejoin="miter" stroke-miterlimit="4" fill="#000000" stroke-linecap="butt" stroke-dasharray="none" fill-rule="nonzero" stroke-width="1px" fill-opacity="1" stroke="none" stroke-opacity="1" d="M50.496,8.416L14.428,8.416L14.428,13.225L50.496,13.225L50.496,8.416ZM107.004,90.172L107.004,32.462C107.004,27.15,102.698,22.844,97.386,22.844L10.821,22.844C5.509,22.844,1.202,27.15,1.202,32.462L1.202,90.172C1.202,95.484,5.509,99.79,10.821,99.79L97.386,99.79C102.698,99.79,107.004,95.484,107.004,90.172ZM102.195,90.172C102.195,92.828,100.042,94.981,97.386,94.981L10.821,94.981C8.165,94.981,6.011,92.828,6.011,90.172L6.011,32.462C6.011,29.806,8.165,27.653,10.821,27.653L97.386,27.653C100.042,27.653,102.195,29.806,102.195,32.462L102.195,90.172ZM68.531,73.34C61.891,73.34,56.508,67.957,56.508,61.317C56.508,54.677,61.891,49.294,68.531,49.294C75.171,49.294,80.554,54.677,80.554,61.317C80.554,67.957,75.171,73.34,68.531,73.34ZM68.531,78.149C77.827,78.149,85.363,70.613,85.363,61.317C85.363,52.021,77.827,44.485,68.531,44.485C59.235,44.485,51.699,52.021,51.699,61.317C51.699,70.613,59.235,78.149,68.531,78.149Z"/>
</g>
  <g id="Ultralight-L" transform="matrix(1.0,0.0,0.0,1.0,506.89681570870533,1466.6668352399554)">  <path stroke-dasharray="none" fill-opacity="1" stroke="none" stroke-linejoin="miter" stroke-linecap="butt" stroke-opacity="1" fill="#000000" fill-rule="nonzero" stroke-width="1px" stroke-miterlimit="4" d="M50.496,9.017L14.428,9.017L14.428,12.624L50.496,12.624L50.496,9.017ZM106.403,90.172L106.403,32.462C106.403,27.482,102.366,23.445,97.386,23.445L10.821,23.445C5.841,23.445,1.803,27.482,1.803,32.462L1.803,90.172C1.803,95.152,5.841,99.189,10.821,99.189L97.386,99.189C102.366,99.189,106.403,95.152,106.403,90.172ZM102.796,90.172C102.796,93.16,100.374,95.582,97.386,95.582L10.821,95.582C7.833,95.582,5.41,93.16,5.41,90.172L5.41,32.462C5.41,29.474,7.833,27.052,10.821,27.052L97.386,27.052C100.374,27.052,102.796,29.474,102.796,32.462L102.796,90.172ZM68.531,73.941C61.559,73.941,55.907,68.289,55.907,61.317C55.907,54.345,61.559,48.693,68.531,48.693C75.503,48.693,81.155,54.345,81.155,61.317C81.155,68.289,75.503,73.941,68.531,73.941ZM68.531,77.548C77.495,77.548,84.762,70.281,84.762,61.317C84.762,52.353,77.495,45.086,68.531,45.086C59.567,45.086,52.3,52.353,52.3,61.317C52.3,70.281,59.567,77.548,68.531,77.548Z"/>
</g>
  <g id="Black-M" transform="matrix(1.0,0.0,0.0,1.0,2892.7395470610118,1048.829566592262)">  <path stroke-miterlimit="4" fill-rule="nonzero" stroke-linejoin="miter" fill="#000000" stroke="none" stroke-width="1px" stroke-dasharray="none" stroke-linecap="butt" fill-opacity="1" stroke-opacity="1" d="M39.144,2.209L11.184,2.209L11.184,14.567L39.144,14.567L39.144,2.209ZM87.264,69.901L87.264,25.164C87.264,18.663,81.994,13.393,75.493,13.393L8.388,13.393C1.887,13.393,-3.383,18.663,-3.383,25.164L-3.383,69.901C-3.383,76.402,1.887,81.672,8.388,81.672L75.493,81.672C81.994,81.672,87.264,76.402,87.264,69.901ZM74.906,69.901C74.906,69.577,75.169,69.314,75.493,69.314L8.388,69.314C8.712,69.314,8.975,69.577,8.975,69.901L8.975,25.164C8.975,25.489,8.712,25.751,8.388,25.751L75.493,25.751C75.169,25.751,74.906,25.489,74.906,25.164L74.906,69.901ZM53.125,52.537C50.36,52.537,48.12,50.297,48.12,47.533C48.12,44.768,50.36,42.528,53.125,42.528C55.889,42.528,58.129,44.768,58.129,47.533C58.129,50.297,55.889,52.537,53.125,52.537ZM53.125,64.896C62.714,64.896,70.488,57.122,70.488,47.533C70.488,37.943,62.714,30.169,53.125,30.169C43.535,30.169,35.761,37.943,35.761,47.533C35.761,57.122,43.535,64.896,53.125,64.896Z"/>
</g>
  <g id="Heavy-M" transform="matrix(1.0,0.0,0.0,1.0,2596.0295470610117,1048.829566592262)">  <path stroke-dasharray="none" fill="#000000" fill-opacity="1" stroke="none" stroke-linejoin="miter" stroke-miterlimit="4" stroke-linecap="butt" stroke-width="1px" stroke-opacity="1" fill-rule="nonzero" d="M39.144,2.886L11.184,2.886L11.184,13.891L39.144,13.891L39.144,2.886ZM86.587,69.901L86.587,25.164C86.587,19.037,81.62,14.07,75.493,14.07L8.388,14.07C2.261,14.07,-2.707,19.037,-2.707,25.164L-2.707,69.901C-2.707,76.028,2.261,80.995,8.388,80.995L75.493,80.995C81.62,80.995,86.587,76.028,86.587,69.901ZM75.582,69.901C75.582,69.95,75.542,69.99,75.493,69.99L8.388,69.99C8.339,69.99,8.299,69.95,8.299,69.901L8.299,25.164C8.299,25.115,8.339,25.075,8.388,25.075L75.493,25.075C75.542,25.075,75.582,25.115,75.582,25.164L75.582,69.901ZM53.125,53.214C49.987,53.214,47.443,50.67,47.443,47.533C47.443,44.395,49.987,41.851,53.125,41.851C56.262,41.851,58.806,44.395,58.806,47.533C58.806,50.67,56.262,53.214,53.125,53.214ZM53.125,64.219C62.341,64.219,69.811,56.748,69.811,47.533C69.811,38.317,62.341,30.846,53.125,30.846C43.909,30.846,36.438,38.317,36.438,47.533C36.438,56.748,43.909,64.219,53.125,64.219Z"/>
</g>
  <g id="Bold-M" transform="matrix(1.0,0.0,0.0,1.0,2299.3195470610117,1048.829566592262)">  <path stroke="none" stroke-linejoin="miter" stroke-opacity="1" fill-opacity="1" stroke-miterlimit="4" stroke-dasharray="none" fill-rule="nonzero" stroke-width="1px" fill="#000000" stroke-linecap="butt" d="M39.144,3.562L11.184,3.562L11.184,13.214L39.144,13.214L39.144,3.562ZM85.911,69.901L85.911,25.164C85.911,19.411,81.247,14.746,75.493,14.746L8.388,14.746C2.634,14.746,-2.03,19.411,-2.03,25.164L-2.03,69.901C-2.03,75.655,2.634,80.319,8.388,80.319L75.493,80.319C81.247,80.319,85.911,75.655,85.911,69.901ZM76.259,69.901C76.259,70.324,75.916,70.667,75.493,70.667L8.388,70.667C7.965,70.667,7.622,70.324,7.622,69.901L7.622,25.164C7.622,24.741,7.965,24.398,8.388,24.398L75.493,24.398C75.916,24.398,76.259,24.741,76.259,25.164L76.259,69.901ZM53.125,53.891C49.613,53.891,46.766,51.044,46.766,47.533C46.766,44.021,49.613,41.174,53.125,41.174C56.636,41.174,59.483,44.021,59.483,47.533C59.483,51.044,56.636,53.891,53.125,53.891ZM53.125,63.543C61.967,63.543,69.135,56.375,69.135,47.533C69.135,38.69,61.967,31.522,53.125,31.522C44.282,31.522,37.115,38.69,37.115,47.533C37.115,56.375,44.282,63.543,53.125,63.543Z"/>
</g>
  <g id="Semibold-M" transform="matrix(1.0,0.0,0.0,1.0,2002.6095470610119,1048.829566592262)">  <path stroke-linejoin="miter" stroke-linecap="butt" stroke-opacity="1" stroke-dasharray="none" stroke-miterlimit="4" fill-opacity="1" stroke="none" stroke-width="1px" fill-rule="nonzero" fill="#000000" d="M39.144,4.239L11.184,4.239L11.184,12.537L39.144,12.537L39.144,4.239ZM85.234,69.901L85.234,25.164C85.234,19.784,80.873,15.423,75.493,15.423L8.388,15.423C3.008,15.423,-1.353,19.784,-1.353,25.164L-1.353,69.901C-1.353,75.281,3.008,79.642,8.388,79.642L75.493,79.642C80.873,79.642,85.234,75.281,85.234,69.901ZM76.936,69.901C76.936,70.698,76.29,71.344,75.493,71.344L8.388,71.344C7.591,71.344,6.945,70.698,6.945,69.901L6.945,25.164C6.945,24.367,7.591,23.722,8.388,23.722L75.493,23.722C76.29,23.722,76.936,24.367,76.936,25.164L76.936,69.901ZM53.125,54.567C49.239,54.567,46.09,51.418,46.09,47.533C46.09,43.647,49.239,40.498,53.125,40.498C57.01,40.498,60.159,43.647,60.159,47.533C60.159,51.418,57.01,54.567,53.125,54.567ZM53.125,62.866C61.593,62.866,68.458,56.001,68.458,47.533C68.458,39.064,61.593,32.199,53.125,32.199C44.656,32.199,37.791,39.064,37.791,47.533C37.791,56.001,44.656,62.866,53.125,62.866Z"/>
</g>
  <g id="Medium-M" transform="matrix(1.0,0.0,0.0,1.0,1705.8995470610118,1048.829566592262)">  <path fill-rule="nonzero" stroke-opacity="1" stroke="none" stroke-dasharray="none" fill-opacity="1" fill="#000000" stroke-linecap="butt" stroke-linejoin="miter" stroke-width="1px" stroke-miterlimit="4" d="M39.144,4.915L11.184,4.915L11.184,11.861L39.144,11.861L39.144,4.915ZM84.558,69.901L84.558,25.164C84.558,20.158,80.499,16.1,75.493,16.1L8.388,16.1C3.382,16.1,-0.677,20.158,-0.677,25.164L-0.677,69.901C-0.677,74.907,3.382,78.965,8.388,78.965L75.493,78.965C80.499,78.965,84.558,74.907,84.558,69.901ZM77.612,69.901C77.612,71.071,76.663,72.02,75.493,72.02L8.388,72.02C7.218,72.02,6.269,71.071,6.269,69.901L6.269,25.164C6.269,23.994,7.218,23.045,8.388,23.045L75.493,23.045C76.663,23.045,77.612,23.994,77.612,25.164L77.612,69.901ZM53.125,55.244C48.866,55.244,45.413,51.791,45.413,47.533C45.413,43.274,48.866,39.821,53.125,39.821C57.384,39.821,60.836,43.274,60.836,47.533C60.836,51.792,57.384,55.244,53.125,55.244ZM53.125,62.189C61.219,62.189,67.781,55.627,67.781,47.533C67.781,39.438,61.219,32.876,53.125,32.876C45.03,32.876,38.468,39.438,38.468,47.533C38.468,55.627,45.03,62.189,53.125,62.189Z"/>
</g>
  <g id="Regular-M" transform="matrix(1.0,0.0,0.0,1.0,1409.1895470610118,1048.829566592262)">  <path fill-rule="nonzero" stroke-opacity="1" fill-opacity="1" stroke-dasharray="none" fill="#000000" stroke-linejoin="miter" stroke="none" stroke-linecap="butt" stroke-miterlimit="4" stroke-width="1px" d="M39.144,5.592L11.184,5.592L11.184,11.184L39.144,11.184L39.144,5.592ZM83.881,69.901L83.881,25.164C83.881,20.532,80.125,16.776,75.493,16.776L8.388,16.776C3.755,16.776,0,20.532,0,25.164L0,69.901C0,74.533,3.755,78.289,8.388,78.289L75.493,78.289C80.126,78.289,83.881,74.533,83.881,69.901ZM78.289,69.901C78.289,71.445,77.037,72.697,75.493,72.697L8.388,72.697C6.844,72.697,5.592,71.445,5.592,69.901L5.592,25.164C5.592,23.62,6.844,22.368,8.388,22.368L75.493,22.368C77.037,22.368,78.289,23.62,78.289,25.164L78.289,69.901ZM53.125,55.921C48.492,55.921,44.736,52.165,44.736,47.533C44.736,42.9,48.492,39.144,53.125,39.144C57.757,39.144,61.513,42.9,61.513,47.533C61.513,52.165,57.757,55.921,53.125,55.921ZM53.125,61.513C60.846,61.513,67.105,55.254,67.105,47.533C67.105,39.811,60.846,33.552,53.125,33.552C45.404,33.552,39.144,39.811,39.144,47.533C39.144,55.254,45.404,61.513,53.125,61.513Z"/>
</g>
  <g id="Light-M" transform="matrix(1.0,0.0,0.0,1.0,1112.479547061012,1048.829566592262)">  <path stroke-dasharray="none" fill-opacity="1" stroke-linejoin="miter" fill="#000000" stroke-linecap="butt" stroke-miterlimit="4" stroke-width="1px" stroke="none" stroke-opacity="1" fill-rule="nonzero" d="M39.144,6.058L11.184,6.058L11.184,10.718L39.144,10.718L39.144,6.058ZM83.415,69.901L83.415,25.164C83.415,20.789,79.868,17.242,75.493,17.242L8.388,17.242C4.013,17.242,0.466,20.789,0.466,25.164L0.466,69.901C0.466,74.276,4.013,77.823,8.388,77.823L75.493,77.823C79.868,77.823,83.415,74.276,83.415,69.901ZM78.755,69.901C78.755,71.702,77.294,73.163,75.493,73.163L8.388,73.163C6.586,73.163,5.126,71.702,5.126,69.901L5.126,25.164C5.126,23.363,6.587,21.902,8.388,21.902L75.493,21.902C77.294,21.902,78.755,23.363,78.755,25.164L78.755,69.901ZM53.125,56.387C48.235,56.387,44.27,52.423,44.27,47.533C44.27,42.643,48.235,38.678,53.125,38.678C58.015,38.678,61.979,42.642,61.979,47.533C61.979,52.423,58.015,56.387,53.125,56.387ZM53.125,61.047C60.588,61.047,66.639,54.996,66.639,47.533C66.639,40.069,60.588,34.018,53.125,34.018C45.661,34.018,39.61,40.069,39.61,47.533C39.61,54.996,45.661,61.047,53.125,61.047Z"/>
</g>
  <g id="Thin-M" transform="matrix(1.0,0.0,0.0,1.0,815.769547061012,1048.829566592262)">  <path stroke-linejoin="miter" stroke-miterlimit="4" fill="#000000" stroke-linecap="butt" stroke-dasharray="none" fill-rule="nonzero" stroke-width="1px" fill-opacity="1" stroke="none" stroke-opacity="1" d="M39.144,6.524L11.184,6.524L11.184,10.252L39.144,10.252L39.144,6.524ZM82.949,69.901L82.949,25.164C82.949,21.046,79.611,17.708,75.493,17.708L8.388,17.708C4.27,17.708,0.932,21.046,0.932,25.164L0.932,69.901C0.932,74.019,4.27,77.357,8.388,77.357L75.493,77.357C79.611,77.357,82.949,74.019,82.949,69.901ZM79.221,69.901C79.221,71.96,77.552,73.629,75.493,73.629L8.388,73.629C6.329,73.629,4.66,71.96,4.66,69.901L4.66,25.164C4.66,23.105,6.329,21.436,8.388,21.436L75.493,21.436C77.552,21.436,79.221,23.105,79.221,25.164L79.221,69.901ZM53.125,56.853C47.977,56.853,43.804,52.68,43.804,47.533C43.804,42.385,47.977,38.212,53.125,38.212C58.272,38.212,62.445,42.385,62.445,47.533C62.445,52.68,58.272,56.853,53.125,56.853ZM53.125,60.581C60.331,60.581,66.173,54.739,66.173,47.533C66.173,40.326,60.331,34.484,53.125,34.484C45.918,34.484,40.076,40.326,40.076,47.533C40.076,54.739,45.918,60.581,53.125,60.581Z"/>
</g>
  <g id="Ultralight-M" transform="matrix(1.0,0.0,0.0,1.0,519.0595470610119,1048.829566592262)">  <path stroke-dasharray="none" fill-opacity="1" stroke="none" stroke-linejoin="miter" stroke-linecap="butt" stroke-opacity="1" fill="#000000" fill-rule="nonzero" stroke-width="1px" stroke-miterlimit="4" d="M39.144,6.99L11.184,6.99L11.184,9.786L39.144,9.786L39.144,6.99ZM82.483,69.901L82.483,25.164C82.483,21.304,79.353,18.174,75.493,18.174L8.388,18.174C4.528,18.174,1.398,21.304,1.398,25.164L1.398,69.901C1.398,73.761,4.528,76.891,8.388,76.891L75.493,76.891C79.353,76.891,82.483,73.761,82.483,69.901ZM79.687,69.901C79.687,72.217,77.809,74.095,75.493,74.095L8.388,74.095C6.072,74.095,4.194,72.217,4.194,69.901L4.194,25.164C4.194,22.848,6.072,20.97,8.388,20.97L75.493,20.97C77.809,20.97,79.687,22.848,79.687,25.164L79.687,69.901ZM53.125,57.319C47.72,57.319,43.338,52.937,43.338,47.533C43.338,42.128,47.72,37.746,53.125,37.746C58.529,37.746,62.911,42.128,62.911,47.533C62.911,52.937,58.529,57.319,53.125,57.319ZM53.125,60.115C60.074,60.115,65.707,54.481,65.707,47.533C65.707,40.584,60.074,34.95,53.125,34.95C46.176,34.95,40.542,40.584,40.542,47.533C40.542,54.481,46.176,60.115,53.125,60.115Z"/>
</g>
  <g id="Black-S" transform="matrix(1.0,0.0,0.0,1.0,2901.840625348772,627.9306448800223)">  <path stroke-miterlimit="4" fill-rule="nonzero" stroke-linejoin="miter" fill="#000000" stroke="none" stroke-width="1px" stroke-dasharray="none" stroke-linecap="butt" fill-opacity="1" stroke-opacity="1" d="M30.65,1.73L8.757,1.73L8.757,11.406L30.65,11.406L30.65,1.73ZM68.328,54.732L68.328,19.704C68.328,14.613,64.201,10.487,59.111,10.487L6.568,10.487C1.478,10.487,-2.649,14.613,-2.649,19.704L-2.649,54.732C-2.649,59.823,1.478,63.949,6.568,63.949L59.111,63.949C64.201,63.949,68.328,59.823,68.328,54.732ZM58.651,54.732C58.651,54.478,58.857,54.273,59.111,54.273L6.568,54.273C6.822,54.273,7.028,54.478,7.028,54.732L7.028,19.704C7.028,19.958,6.822,20.163,6.568,20.163L59.111,20.163C58.857,20.163,58.651,19.958,58.651,19.704L58.651,54.732ZM41.597,41.137C39.432,41.137,37.678,39.382,37.678,37.218C37.678,35.054,39.432,33.299,41.597,33.299C43.761,33.299,45.515,35.054,45.515,37.218C45.515,39.382,43.761,41.137,41.597,41.137ZM41.597,50.813C49.105,50.813,55.192,44.727,55.192,37.218C55.192,29.709,49.105,23.622,41.597,23.622C34.088,23.622,28.001,29.709,28.001,37.218C28.001,44.727,34.088,50.813,41.597,50.813Z"/>
</g>
  <g id="Heavy-S" transform="matrix(1.0,0.0,0.0,1.0,2605.130625348772,627.9306448800223)">  <path stroke-dasharray="none" fill="#000000" fill-opacity="1" stroke="none" stroke-linejoin="miter" stroke-miterlimit="4" stroke-linecap="butt" stroke-width="1px" stroke-opacity="1" fill-rule="nonzero" d="M30.65,2.259L8.757,2.259L8.757,10.876L30.65,10.876L30.65,2.259ZM67.798,54.732L67.798,19.704C67.798,14.906,63.909,11.017,59.111,11.017L6.568,11.017C1.77,11.017,-2.119,14.906,-2.119,19.704L-2.119,54.732C-2.119,59.53,1.77,63.419,6.568,63.419L59.111,63.419C63.909,63.419,67.798,59.53,67.798,54.732ZM59.181,54.732C59.181,54.771,59.15,54.802,59.111,54.802L6.568,54.802C6.529,54.802,6.498,54.771,6.498,54.732L6.498,19.704C6.498,19.665,6.529,19.634,6.568,19.634L59.111,19.634C59.15,19.634,59.181,19.665,59.181,19.704L59.181,54.732ZM41.597,41.667C39.14,41.667,37.148,39.675,37.148,37.218C37.148,34.761,39.14,32.769,41.597,32.769C44.054,32.769,46.045,34.761,46.045,37.218C46.045,39.675,44.054,41.667,41.597,41.667ZM41.597,50.284C48.813,50.284,54.662,44.434,54.662,37.218C54.662,30.002,48.813,24.152,41.597,24.152C34.381,24.152,28.531,30.002,28.531,37.218C28.531,44.434,34.381,50.284,41.597,50.284Z"/>
</g>
  <g id="Bold-S" transform="matrix(1.0,0.0,0.0,1.0,2308.420625348772,627.9306448800223)">  <path stroke="none" stroke-linejoin="miter" stroke-opacity="1" fill-opacity="1" stroke-miterlimit="4" stroke-dasharray="none" fill-rule="nonzero" stroke-width="1px" fill="#000000" stroke-linecap="butt" d="M30.65,2.789L8.757,2.789L8.757,10.347L30.65,10.347L30.65,2.789ZM67.268,54.732L67.268,19.704C67.268,15.198,63.616,11.546,59.111,11.546L6.568,11.546C2.063,11.546,-1.589,15.198,-1.589,19.704L-1.589,54.732C-1.589,59.237,2.063,62.89,6.568,62.89L59.111,62.89C63.616,62.89,67.268,59.238,67.268,54.732ZM59.711,54.732C59.711,55.064,59.442,55.332,59.111,55.332L6.568,55.332C6.237,55.332,5.968,55.064,5.968,54.732L5.968,19.704C5.968,19.372,6.237,19.104,6.568,19.104L59.111,19.104C59.442,19.104,59.711,19.372,59.711,19.704L59.711,54.732ZM41.597,42.196C38.847,42.196,36.618,39.967,36.618,37.218C36.618,34.468,38.847,32.24,41.597,32.24C44.346,32.24,46.575,34.468,46.575,37.218C46.575,39.968,44.346,42.196,41.597,42.196ZM41.597,49.754C48.52,49.754,54.132,44.141,54.132,37.218C54.132,30.295,48.52,24.682,41.597,24.682C34.673,24.682,29.061,30.295,29.061,37.218C29.061,44.141,34.673,49.754,41.597,49.754Z"/>
</g>
  <g id="Semibold-S" transform="matrix(1.0,0.0,0.0,1.0,2011.7106253487723,627.9306448800223)">  <path stroke-linejoin="miter" stroke-linecap="butt" stroke-opacity="1" stroke-dasharray="none" stroke-miterlimit="4" fill-opacity="1" stroke="none" stroke-width="1px" fill-rule="nonzero" fill="#000000" d="M30.65,3.319L8.757,3.319L8.757,9.817L30.65,9.817L30.65,3.319ZM66.738,54.732L66.738,19.704C66.738,15.491,63.323,12.076,59.111,12.076L6.568,12.076C2.355,12.076,-1.06,15.491,-1.06,19.704L-1.06,54.732C-1.06,58.945,2.355,62.36,6.568,62.36L59.111,62.36C63.323,62.36,66.738,58.945,66.738,54.732ZM60.241,54.732C60.241,55.356,59.735,55.862,59.111,55.862L6.568,55.862C5.944,55.862,5.438,55.356,5.438,54.732L5.438,19.704C5.438,19.08,5.944,18.574,6.568,18.574L59.111,18.574C59.735,18.574,60.241,19.08,60.241,19.704L60.241,54.732ZM41.597,42.726C38.554,42.726,36.088,40.26,36.088,37.218C36.088,34.176,38.554,31.71,41.597,31.71C44.639,31.71,47.105,34.176,47.105,37.218C47.105,40.26,44.639,42.726,41.597,42.726ZM41.597,49.224C48.227,49.224,53.603,43.849,53.603,37.218C53.603,30.587,48.227,25.212,41.597,25.212C34.966,25.212,29.59,30.587,29.59,37.218C29.59,43.849,34.966,49.224,41.597,49.224Z"/>
</g>
  <g id="Medium-S" transform="matrix(1.0,0.0,0.0,1.0,1715.0006253487722,627.9306448800223)">  <path fill-rule="nonzero" stroke-opacity="1" stroke="none" stroke-dasharray="none" fill-opacity="1" fill="#000000" stroke-linecap="butt" stroke-linejoin="miter" stroke-width="1px" stroke-miterlimit="4" d="M30.65,3.849L8.757,3.849L8.757,9.287L30.65,9.287L30.65,3.849ZM66.209,54.732L66.209,19.704C66.209,15.784,63.031,12.606,59.111,12.606L6.568,12.606C2.648,12.606,-0.53,15.784,-0.53,19.704L-0.53,54.732C-0.53,58.652,2.648,61.83,6.568,61.83L59.111,61.83C63.031,61.83,66.209,58.652,66.209,54.732ZM60.77,54.732C60.77,55.649,60.027,56.392,59.111,56.392L6.568,56.392C5.651,56.392,4.908,55.649,4.908,54.732L4.908,19.704C4.908,18.787,5.651,18.044,6.568,18.044L59.111,18.044C60.027,18.044,60.77,18.787,60.77,19.704L60.77,54.732ZM41.597,43.256C38.262,43.256,35.558,40.553,35.558,37.218C35.558,33.883,38.262,31.18,41.597,31.18C44.931,31.18,47.635,33.883,47.635,37.218C47.635,40.553,44.931,43.256,41.597,43.256ZM41.597,48.694C47.935,48.694,53.073,43.556,53.073,37.218C53.073,30.88,47.935,25.742,41.597,25.742C35.258,25.742,30.12,30.88,30.12,37.218C30.12,43.556,35.258,48.694,41.597,48.694Z"/>
</g>
  <g id="Regular-S" transform="matrix(1.0,0.0,0.0,1.0,1418.2906253487722,627.9306448800223)">  <path fill-rule="nonzero" stroke-opacity="1" fill-opacity="1" stroke-dasharray="none" fill="#000000" stroke-linejoin="miter" stroke="none" stroke-linecap="butt" stroke-miterlimit="4" stroke-width="1px" d="M30.65,4.379L8.757,4.379L8.757,8.757L30.65,8.757L30.65,4.379ZM65.679,54.732L65.679,19.704C65.679,16.076,62.738,13.136,59.111,13.136L6.568,13.136C2.941,13.136,0,16.076,0,19.704L0,54.732C0,58.36,2.941,61.3,6.568,61.3L59.111,61.3C62.738,61.3,65.679,58.36,65.679,54.732ZM61.3,54.732C61.3,55.941,60.32,56.922,59.111,56.922L6.568,56.922C5.359,56.922,4.379,55.941,4.379,54.732L4.379,19.704C4.379,18.495,5.359,17.514,6.568,17.514L59.111,17.514C60.32,17.514,61.3,18.494,61.3,19.704L61.3,54.732ZM41.597,43.786C37.969,43.786,35.029,40.845,35.029,37.218C35.029,33.591,37.969,30.65,41.597,30.65C45.224,30.65,48.164,33.591,48.164,37.218C48.164,40.845,45.224,43.786,41.597,43.786ZM41.597,48.164C47.642,48.164,52.543,43.264,52.543,37.218C52.543,31.172,47.642,26.271,41.597,26.271C35.551,26.271,30.65,31.172,30.65,37.218C30.65,43.264,35.551,48.164,41.597,48.164Z"/>
</g>
  <g id="Light-S" transform="matrix(1.0,0.0,0.0,1.0,1121.5806253487724,627.9306448800223)">  <path stroke-dasharray="none" fill-opacity="1" stroke-linejoin="miter" fill="#000000" stroke-linecap="butt" stroke-miterlimit="4" stroke-width="1px" stroke="none" stroke-opacity="1" fill-rule="nonzero" d="M30.65,4.743L8.757,4.743L8.757,8.392L30.65,8.392L30.65,4.743ZM65.314,54.732L65.314,19.704C65.314,16.278,62.537,13.501,59.111,13.501L6.568,13.501C3.142,13.501,0.365,16.278,0.365,19.704L0.365,54.732C0.365,58.158,3.142,60.935,6.568,60.935L59.111,60.935C62.537,60.935,65.314,58.158,65.314,54.732ZM61.665,54.732C61.665,56.143,60.522,57.286,59.111,57.286L6.568,57.286C5.157,57.286,4.014,56.143,4.014,54.732L4.014,19.704C4.014,18.293,5.157,17.149,6.568,17.149L59.111,17.149C60.522,17.149,61.665,18.293,61.665,19.704L61.665,54.732ZM41.597,44.151C37.768,44.151,34.664,41.047,34.664,37.218C34.664,33.389,37.768,30.285,41.597,30.285C45.425,30.285,48.529,33.389,48.529,37.218C48.529,41.047,45.425,44.151,41.597,44.151ZM41.597,47.8C47.441,47.8,52.178,43.062,52.178,37.218C52.178,31.374,47.441,26.636,41.597,26.636C35.752,26.636,31.015,31.374,31.015,37.218C31.015,43.062,35.752,47.8,41.597,47.8Z"/>
</g>
  <g id="Thin-S" transform="matrix(1.0,0.0,0.0,1.0,824.8706253487724,627.9306448800223)">  <path stroke-linejoin="miter" stroke-miterlimit="4" fill="#000000" stroke-linecap="butt" stroke-dasharray="none" fill-rule="nonzero" stroke-width="1px" fill-opacity="1" stroke="none" stroke-opacity="1" d="M30.65,5.108L8.757,5.108L8.757,8.027L30.65,8.027L30.65,5.108ZM64.949,54.732L64.949,19.704C64.949,16.479,62.335,13.866,59.111,13.866L6.568,13.866C3.344,13.866,0.73,16.479,0.73,19.704L0.73,54.732C0.73,57.957,3.344,60.57,6.568,60.57L59.111,60.57C62.335,60.57,64.949,57.957,64.949,54.732ZM62.03,54.732C62.03,56.345,60.723,57.651,59.111,57.651L6.568,57.651C4.956,57.651,3.649,56.344,3.649,54.732L3.649,19.704C3.649,18.091,4.956,16.785,6.568,16.785L59.111,16.785C60.723,16.785,62.03,18.091,62.03,19.704L62.03,54.732ZM41.597,44.516C37.566,44.516,34.299,41.248,34.299,37.218C34.299,33.188,37.566,29.92,41.597,29.92C45.627,29.92,48.894,33.188,48.894,37.218C48.894,41.248,45.627,44.516,41.597,44.516ZM41.597,47.435C47.239,47.435,51.813,42.861,51.813,37.218C51.813,31.575,47.239,27.001,41.597,27.001C35.954,27.001,31.38,31.575,31.38,37.218C31.38,42.86,35.954,47.435,41.597,47.435Z"/>
</g>
  <g id="Ultralight-S" transform="matrix(1.0,0.0,0.0,1.0,528.1606253487723,627.9306448800223)">  <path stroke-dasharray="none" fill-opacity="1" stroke="none" stroke-linejoin="miter" stroke-linecap="butt" stroke-opacity="1" fill="#000000" fill-rule="nonzero" stroke-width="1px" stroke-miterlimit="4" d="M30.65,5.473L8.757,5.473L8.757,7.663L30.65,7.663L30.65,5.473ZM64.584,54.732L64.584,19.704C64.584,16.681,62.134,14.23,59.111,14.23L6.568,14.23C3.545,14.23,1.095,16.681,1.095,19.704L1.095,54.732C1.095,57.755,3.545,60.206,6.568,60.206L59.111,60.206C62.134,60.206,64.584,57.755,64.584,54.732ZM62.395,54.732C62.395,56.546,60.925,58.016,59.111,58.016L6.568,58.016C4.754,58.016,3.284,56.546,3.284,54.732L3.284,19.704C3.284,17.89,4.754,16.42,6.568,16.42L59.111,16.42C60.925,16.42,62.395,17.89,62.395,19.704L62.395,54.732ZM41.597,44.88C37.365,44.88,33.934,41.45,33.934,37.218C33.934,32.986,37.365,29.555,41.597,29.555C45.829,29.555,49.259,32.986,49.259,37.218C49.259,41.45,45.829,44.88,41.597,44.88ZM41.597,47.07C47.038,47.07,51.448,42.659,51.448,37.218C51.448,31.777,47.038,27.366,41.597,27.366C36.156,27.366,31.745,31.777,31.745,37.218C31.745,42.659,36.156,47.07,41.597,47.07Z"/>
</g>
 </g>
</svg>
