<?xml version="1.0" encoding="UTF-8"?>
<!-- Generator: CustomSymbols v2.6.2.41 by @serious_bret https://bretlester.com/app_content/CustomSymbols/ -->
<!-- Guides: Left/Right -0.031/-0.031 Cap/Base 0.08/0.08 -->
<!-- Settings: RefScale 1.0 Min/Max Stroke Scales 0.5/2.21 -->
<!DOCTYPE svg
PUBLIC "-//W3C//DTD SVG 1.1//EN"
       "http://www.w3.org/Graphics/SVG/1.1/DTD/svg11.dtd">
<svg version="1.1" xmlns="http://www.w3.org/2000/svg" xmlns:xlink="http://www.w3.org/1999/xlink" width="3300" height="2200">
<![CDATA[<svg width="15" height="15" viewBox="0 0 15 15" fill="none" xmlns="http://www.w3.org/2000/svg">
<path fill-rule="evenodd" clip-rule="evenodd" d="M10.5 3.49804C10.5 5.15396 9.157 6.49609 7.5 6.49609C5.843 6.49609 4.5 5.15396 4.5 3.49804C4.5 1.84212 5.843 0.5 7.5 0.5C9.157 0.5 10.5 1.84212 10.5 3.49804Z" stroke="#1D1929" stroke-linecap="square"/>
<path fill-rule="evenodd" clip-rule="evenodd" d="M12.5 14.4909H2.5C2.5 13.7808 2.5 13.1053 2.5 12.4936C2.5 10.8368 3.84315 9.49414 5.5 9.49414H9.5C11.1569 9.49414 12.5 10.8368 12.5 12.4936C12.5 13.1053 12.5 13.7808 12.5 14.4909Z" stroke="#1D1929" stroke-linecap="square"/>
</svg>
]]>
 <g id="Notes">
  <rect height="2200" id="artboard" style="fill:white;opacity:1" width="3300" x="0" y="0"/>
  <line id="" style="fill:none;stroke:black;opacity:1;stroke-width:0.5;" x1="263" x2="3036" y1="292" y2="292"/>
  <text id="reftext1" style="stroke:none;fill:black;font-family:-apple-system,&quot;SF Pro Display&quot;,&quot;SF Pro Text&quot;,Helvetica,sans-serif;font-weight:bold;" transform="matrix(1 0 0 1 263 322)">Weight/Scale Variations</text>
  <text id="reftext2" style="stroke:none;fill:black;font-family:-apple-system,&quot;SF Pro Display&quot;,&quot;SF Pro Text&quot;,Helvetica,sans-serif;text-anchor:middle;" transform="matrix(1 0 0 1 559.711 322)">Ultralight</text>
  <text style="stroke:none;fill:black;font-family:-apple-system,&quot;SF Pro Display&quot;,&quot;SF Pro Text&quot;,Helvetica,sans-serif;text-anchor:middle;" transform="matrix(1 0 0 1 856.422 322)">Thin</text>
  <text style="stroke:none;fill:black;font-family:-apple-system,&quot;SF Pro Display&quot;,&quot;SF Pro Text&quot;,Helvetica,sans-serif;text-anchor:middle;" transform="matrix(1 0 0 1 1153.13 322)">Light</text>
  <text style="stroke:none;fill:black;font-family:-apple-system,&quot;SF Pro Display&quot;,&quot;SF Pro Text&quot;,Helvetica,sans-serif;text-anchor:middle;" transform="matrix(1 0 0 1 1449.84 322)">Regular</text>
  <text style="stroke:none;fill:black;font-family:-apple-system,&quot;SF Pro Display&quot;,&quot;SF Pro Text&quot;,Helvetica,sans-serif;text-anchor:middle;" transform="matrix(1 0 0 1 1746.56 322)">Medium</text>
  <text style="stroke:none;fill:black;font-family:-apple-system,&quot;SF Pro Display&quot;,&quot;SF Pro Text&quot;,Helvetica,sans-serif;text-anchor:middle;" transform="matrix(1 0 0 1 2043.27 322)">Semibold</text>
  <text style="stroke:none;fill:black;font-family:-apple-system,&quot;SF Pro Display&quot;,&quot;SF Pro Text&quot;,Helvetica,sans-serif;text-anchor:middle;" transform="matrix(1 0 0 1 2339.98 322)">Bold</text>
  <text style="stroke:none;fill:black;font-family:-apple-system,&quot;SF Pro Display&quot;,&quot;SF Pro Text&quot;,Helvetica,sans-serif;text-anchor:middle;" transform="matrix(1 0 0 1 2636.69 322)">Heavy</text>
  <text style="stroke:none;fill:black;font-family:-apple-system,&quot;SF Pro Display&quot;,&quot;SF Pro Text&quot;,Helvetica,sans-serif;text-anchor:middle;" transform="matrix(1 0 0 1 2933.4 322)">Black</text>
  <line id="" style="fill:none;stroke:black;opacity:1;stroke-width:0.5;" x1="263" x2="3036" y1="1903" y2="1903"/>
  <g id="" transform="matrix(1 0 0 1 263 1933)">
   <path d="M9.24805 0.830078C13.5547 0.830078 17.1387-2.74414 17.1387-7.05078C17.1387-11.3574 13.5449-14.9316 9.23828-14.9316C4.94141-14.9316 1.36719-11.3574 1.36719-7.05078C1.36719-2.74414 4.95117 0.830078 9.24805 0.830078ZM9.24805-0.654297C5.70312-0.654297 2.87109-3.49609 2.87109-7.05078C2.87109-10.6055 5.69336-13.4473 9.23828-13.4473C12.793-13.4473 15.6348-10.6055 15.6445-7.05078C15.6543-3.49609 12.8027-0.654297 9.24805-0.654297ZM6.39648-6.31836L8.50586-6.31836L8.50586-4.19922C8.50586-3.75977 8.79883-3.45703 9.22852-3.45703C9.67773-3.45703 9.9707-3.75977 9.9707-4.19922L9.9707-6.31836L12.0996-6.31836C12.5391-6.31836 12.8418-6.61133 12.8418-7.04102C12.8418-7.48047 12.5391-7.7832 12.0996-7.7832L9.9707-7.7832L9.9707-9.89258C9.9707-10.3418 9.67773-10.6445 9.22852-10.6445C8.79883-10.6445 8.50586-10.3418 8.50586-9.89258L8.50586-7.7832L6.39648-7.7832C5.94727-7.7832 5.64453-7.48047 5.64453-7.04102C5.64453-6.61133 5.94727-6.31836 6.39648-6.31836Z"/>
  </g>
  <g id="" transform="matrix(1 0 0 1 281.506 1933)">
   <path d="M11.709 2.91016C17.1582 2.91016 21.6699-1.61133 21.6699-7.05078C21.6699-12.5 17.1484-17.0117 11.6992-17.0117C6.25977-17.0117 1.74805-12.5 1.74805-7.05078C1.74805-1.61133 6.26953 2.91016 11.709 2.91016ZM11.709 1.25C7.09961 1.25 3.41797-2.44141 3.41797-7.05078C3.41797-11.6602 7.08984-15.3516 11.6992-15.3516C16.3086-15.3516 20-11.6602 20.0098-7.05078C20.0195-2.44141 16.3184 1.25 11.709 1.25ZM7.98828-6.23047L10.8789-6.23047L10.8789-3.32031C10.8789-2.83203 11.2109-2.5 11.6895-2.5C12.1777-2.5 12.5195-2.83203 12.5195-3.32031L12.5195-6.23047L15.4297-6.23047C15.918-6.23047 16.25-6.5625 16.25-7.04102C16.25-7.5293 15.918-7.87109 15.4297-7.87109L12.5195-7.87109L12.5195-10.7617C12.5195-11.2695 12.1777-11.6016 11.6895-11.6016C11.2109-11.6016 10.8789-11.2598 10.8789-10.7617L10.8789-7.87109L7.98828-7.87109C7.48047-7.87109 7.14844-7.5293 7.14844-7.04102C7.14844-6.5625 7.49023-6.23047 7.98828-6.23047Z"/>
  </g>
  <g id="" transform="matrix(1 0 0 1 304.924 1933)">
   <path d="M14.9707 5.66406C21.9336 5.66406 27.6953-0.0976562 27.6953-7.05078C27.6953-14.0137 21.9238-19.7754 14.9609-19.7754C8.00781-19.7754 2.25586-14.0137 2.25586-7.05078C2.25586-0.0976562 8.01758 5.66406 14.9707 5.66406ZM14.9707 3.84766C8.93555 3.84766 4.08203-1.01562 4.08203-7.05078C4.08203-13.0957 8.92578-17.9492 14.9609-17.9492C21.0059-17.9492 25.8594-13.0957 25.8691-7.05078C25.8789-1.01562 21.0156 3.84766 14.9707 3.84766ZM10.0586-6.14258L14.0625-6.14258L14.0625-2.12891C14.0625-1.5918 14.4336-1.2207 14.9512-1.2207C15.4883-1.2207 15.8594-1.5918 15.8594-2.12891L15.8594-6.14258L19.8828-6.14258C20.4102-6.14258 20.791-6.51367 20.791-7.03125C20.791-7.56836 20.4199-7.94922 19.8828-7.94922L15.8594-7.94922L15.8594-11.9531C15.8594-12.5098 15.4883-12.8809 14.9512-12.8809C14.4336-12.8809 14.0625-12.5 14.0625-11.9531L14.0625-7.94922L10.0586-7.94922C9.50195-7.94922 9.13086-7.56836 9.13086-7.03125C9.13086-6.51367 9.51172-6.14258 10.0586-6.14258Z"/>
  </g>
  <text style="stroke:none;fill:black;font-family:-apple-system,&quot;SF Pro Display&quot;,&quot;SF Pro Text&quot;,Helvetica,sans-serif;font-weight:bold;" transform="matrix(1 0 0 1 263 1953)">Design Variations</text>
  <text style="stroke:none;fill:black;font-family:-apple-system,&quot;SF Pro Display&quot;,&quot;SF Pro Text&quot;,Helvetica,sans-serif;" transform="matrix(1 0 0 1 263 1971)">Symbols are supported in up to nine weights and three scales.</text>
  <text style="stroke:none;fill:black;font-family:-apple-system,&quot;SF Pro Display&quot;,&quot;SF Pro Text&quot;,Helvetica,sans-serif;" transform="matrix(1 0 0 1 263 1989)">For optimal layout with text and other symbols, vertically align</text>
  <text style="stroke:none;fill:black;font-family:-apple-system,&quot;SF Pro Display&quot;,&quot;SF Pro Text&quot;,Helvetica,sans-serif;" transform="matrix(1 0 0 1 263 2007)">symbols with the adjacent text.</text>
  <line id="" style="fill:none;stroke:#00AEEF;stroke-width:0.5;opacity:1.0;" x1="776" x2="776" y1="1919" y2="1933"/>
  <g id="" transform="matrix(1 0 0 1 776 1933)">
   <path d="M3.31055 0.126953C3.82812 0.126953 4.08203-0.0683594 4.26758-0.605469L5.52734-4.0625L11.2891-4.0625L12.5488-0.605469C12.7344-0.0683594 12.9883 0.126953 13.4961 0.126953C14.0137 0.126953 14.3457-0.185547 14.3457-0.673828C14.3457-0.839844 14.3164-0.986328 14.2383-1.20117L9.6582-13.3887C9.43359-13.9941 9.0332-14.2871 8.4082-14.2871C7.80273-14.2871 7.39258-13.9941 7.17773-13.3984L2.59766-1.19141C2.51953-0.976562 2.49023-0.830078 2.49023-0.664062C2.49023-0.175781 2.80273 0.126953 3.31055 0.126953ZM6.00586-5.53711L8.37891-12.1094L8.42773-12.1094L10.8008-5.53711Z"/>
  </g>
  <line id="" style="fill:none;stroke:#00AEEF;stroke-width:0.5;opacity:1.0;" x1="792.836" x2="792.836" y1="1919" y2="1933"/>
  <text style="stroke:none;fill:black;font-family:-apple-system,&quot;SF Pro Display&quot;,&quot;SF Pro Text&quot;,Helvetica,sans-serif;font-weight:bold;" transform="matrix(1 0 0 1 776 1953)">Margins</text>
  <text style="stroke:none;fill:black;font-family:-apple-system,&quot;SF Pro Display&quot;,&quot;SF Pro Text&quot;,Helvetica,sans-serif;" transform="matrix(1 0 0 1 776 1971)">Leading and trailing margins on the left and right side of each symbol</text>
  <text style="stroke:none;fill:black;font-family:-apple-system,&quot;SF Pro Display&quot;,&quot;SF Pro Text&quot;,Helvetica,sans-serif;" transform="matrix(1 0 0 1 776 1989)">can be adjusted by modifying the x-location of the margin guidelines.</text>
  <text style="stroke:none;fill:black;font-family:-apple-system,&quot;SF Pro Display&quot;,&quot;SF Pro Text&quot;,Helvetica,sans-serif;" transform="matrix(1 0 0 1 776 2007)">Modifications are automatically applied proportionally to all</text>
  <text style="stroke:none;fill:black;font-family:-apple-system,&quot;SF Pro Display&quot;,&quot;SF Pro Text&quot;,Helvetica,sans-serif;" transform="matrix(1 0 0 1 776 2025)">scales and weights.</text>
  <g id="" transform="matrix(1 0 0 1 1289 1933)">
   <path d="M2.8418 1.86523L4.54102 3.57422C5.40039 4.44336 6.38672 4.38477 7.31445 3.35938L17.4902-7.85156C17.7539-7.76367 18.0273-7.7832 18.3398-7.8418L19.4043-8.03711L20.0684-7.36328L20.0293-6.80664C19.9902-6.30859 20.1172-5.92773 20.6055-5.44922L21.3672-4.70703C21.8457-4.22852 22.4609-4.19922 22.9297-4.66797L25.8398-7.58789C26.3086-8.05664 26.2891-8.65234 25.8105-9.13086L25.0391-9.89258C24.5605-10.3711 24.1895-10.5273 23.7109-10.4883L23.1348-10.4395L22.4902-11.0742L22.7344-12.1973C22.8613-12.7637 22.7051-13.2031 22.1191-13.7891L19.9219-15.9766C16.582-19.2969 12.1484-19.2188 9.25781-16.3281C8.83789-15.918 8.80859-15.3418 9.04297-14.9512C9.27734-14.5898 9.73633-14.3555 10.3809-14.5215C11.8457-14.8633 13.3691-14.9219 14.7949-13.9844L14.209-12.5293C14.0137-12.0508 13.9844-11.6504 14.1113-11.2891L3.04688-0.898438C2.06055 0.0195312 1.98242 0.996094 2.8418 1.86523ZM10.752-15.957C13.1836-17.7344 16.4746-17.4316 18.7012-15.2051L21.1328-12.793C21.3672-12.5586 21.4062-12.373 21.3379-12.0312L21.0156-10.5469L22.5195-9.0625L23.5059-9.12109C23.7598-9.13086 23.8379-9.11133 24.0332-8.91602L24.6094-8.33984L22.168-5.89844L21.5918-6.47461C21.3965-6.66992 21.3672-6.74805 21.377-7.01172L21.4453-7.98828L19.9512-9.47266L18.4277-9.21875C18.1055-9.15039 17.959-9.17969 17.7148-9.41406L15.7129-11.416C15.459-11.6504 15.4297-11.8164 15.5859-12.1875L16.4648-14.2773C14.9023-15.7324 12.8711-16.3574 10.8398-15.7617C10.6836-15.7227 10.625-15.8496 10.752-15.957ZM5.27344 2.30469L4.10156 1.14258C3.63281 0.683594 3.74023 0.341797 4.14062-0.0195312L14.9512-10.1953L16.416-8.71094L6.42578 2.27539C6.07422 2.67578 5.74219 2.77344 5.27344 2.30469Z"/>
  </g>
  <text style="stroke:none;fill:black;font-family:-apple-system,&quot;SF Pro Display&quot;,&quot;SF Pro Text&quot;,Helvetica,sans-serif;font-weight:bold;" transform="matrix(1 0 0 1 1289 1953)">Exporting</text>
  <text style="stroke:none;fill:black;font-family:-apple-system,&quot;SF Pro Display&quot;,&quot;SF Pro Text&quot;,Helvetica,sans-serif;" transform="matrix(1 0 0 1 1289 1971)">Symbols should be outlined when exporting to ensure the</text>
  <text style="stroke:none;fill:black;font-family:-apple-system,&quot;SF Pro Display&quot;,&quot;SF Pro Text&quot;,Helvetica,sans-serif;" transform="matrix(1 0 0 1 1289 1989)">design is preserved when submitting to Xcode.</text>
  <text id="template-version" style="stroke:none;fill:black;font-family:-apple-system,&quot;SF Pro Display&quot;,&quot;SF Pro Text&quot;,Helvetica,sans-serif;text-anchor:end;" transform="matrix(1 0 0 1 3036 1933)">Template v.2.0</text>
  <text style="stroke:none;fill:black;font-family:-apple-system,&quot;SF Pro Display&quot;,&quot;SF Pro Text&quot;,Helvetica,sans-serif;text-anchor:end;" transform="matrix(1 0 0 1 3036 1951)">Requires Xcode 12 or greater</text>
  <text style="stroke:none;fill:black;font-family:-apple-system,&quot;SF Pro Display&quot;,&quot;SF Pro Text&quot;,Helvetica,sans-serif;" transform="matrix(1 0 0 1 263 726)">Small</text>
  <text style="stroke:none;fill:black;font-family:-apple-system,&quot;SF Pro Display&quot;,&quot;SF Pro Text&quot;,Helvetica,sans-serif;" transform="matrix(1 0 0 1 263 1156)">Medium</text>
  <text style="stroke:none;fill:black;font-family:-apple-system,&quot;SF Pro Display&quot;,&quot;SF Pro Text&quot;,Helvetica,sans-serif;" transform="matrix(1 0 0 1 263 1586)">Large</text>
 </g>
 <g id="Guides">
  <g id="H-reference" style="fill:#27AAE1;stroke:none;" transform="matrix(1 0 0 1 339 696)">
   <path d="M0.976562 0L3.66211 0L12.9883-24.4629L45.752-24.4629L55.127 0L57.7637 0L30.6152-70.459L28.125-70.459ZM29.3457-67.1387L29.4434-67.1387L44.873-26.709L13.8672-26.709Z"/>
  </g>
  <line id="Baseline-S" style="fill:none;stroke:#27AAE1;opacity:1;stroke-width:0.5;" x1="263" x2="3036" y1="696" y2="696"/>
  <line id="Capline-S" style="fill:none;stroke:#27AAE1;opacity:1;stroke-width:0.5;" x1="263" x2="3036" y1="625.541" y2="625.541"/>
  <g id="H-reference" style="fill:#27AAE1;stroke:none;" transform="matrix(1 0 0 1 339 1126)">
   <path d="M0.976562 0L3.66211 0L12.9883-24.4629L45.752-24.4629L55.127 0L57.7637 0L30.6152-70.459L28.125-70.459ZM29.3457-67.1387L29.4434-67.1387L44.873-26.709L13.8672-26.709Z"/>
  </g>
  <line id="Baseline-M" style="fill:none;stroke:#27AAE1;opacity:1;stroke-width:0.5;" x1="263" x2="3036" y1="1126" y2="1126"/>
  <line id="Capline-M" style="fill:none;stroke:#27AAE1;opacity:1;stroke-width:0.5;" x1="263" x2="3036" y1="1055.54" y2="1055.54"/>
  <g id="H-reference" style="fill:#27AAE1;stroke:none;" transform="matrix(1 0 0 1 339 1556)">
   <path d="M0.976562 0L3.66211 0L12.9883-24.4629L45.752-24.4629L55.127 0L57.7637 0L30.6152-70.459L28.125-70.459ZM29.3457-67.1387L29.4434-67.1387L44.873-26.709L13.8672-26.709Z"/>
  </g>
  <line id="Baseline-L" style="fill:none;stroke:#27AAE1;opacity:1;stroke-width:0.5;" x1="263" x2="3036" y1="1556" y2="1556"/>
  <line id="Capline-L" style="fill:none;stroke:#27AAE1;opacity:1;stroke-width:0.5;" x1="263" x2="3036" y1="1485.54" y2="1485.54"/>
  <line id="left-margin" x1="1406.5892389787946" x2="1406.5892389787946" y1="1030.79" y2="1150.12" style="fill:none;stroke:#00AEEF;stroke-width:0.5;opacity:1.0;"/>
  <line id="right-margin" x1="1495.6707610212052" x2="1495.6707610212052" y1="1030.79" y2="1150.12" style="fill:none;stroke:#00AEEF;stroke-width:0.5;opacity:1.0;"/>
 </g>
 <g id="Symbols">
  <g id="Black-L" transform="matrix(1.0,0.0,0.0,1.0,2880.576815708705,1466.6668352399554)">  <path stroke-dasharray="none" clip-rule="evenodd" stroke-width="1px" stroke-opacity="1" fill-rule="nonzero" stroke-miterlimit="4" stroke-linejoin="miter" stroke-linecap="square" stroke="none" fill="#000000" fill-opacity="1" d="M67.773,25.234C67.773,32.776,61.655,38.89,54.103,38.89C46.551,38.89,40.433,32.776,40.433,25.234C40.433,17.692,46.551,11.578,54.103,11.578C61.655,11.578,67.773,17.692,67.773,25.234ZM83.716,25.234C83.716,8.885,70.458,-4.364,54.103,-4.364C37.749,-4.364,24.491,8.885,24.491,25.234C24.491,41.583,37.749,54.832,54.103,54.832C70.458,54.832,83.716,41.583,83.716,25.234Z"/>
  <path stroke-width="1px" stroke-miterlimit="4" stroke-linecap="square" clip-rule="evenodd" stroke-linejoin="miter" fill="#000000" stroke-dasharray="none" fill-rule="nonzero" fill-opacity="1" stroke-opacity="1" stroke="none" d="M90.172,96.563L18.034,96.563L18.034,104.534L26.006,104.534C26.006,96.975,26.006,96.975,26.006,90.126C26.006,82.577,32.125,76.46,39.676,76.46L68.531,76.46C76.082,76.46,82.201,82.577,82.201,90.126C82.201,96.975,82.201,96.975,82.201,104.534L90.172,104.534L90.172,96.563ZM90.172,112.505L98.143,112.505L98.143,104.534C98.143,96.975,98.143,96.975,98.143,90.126C98.143,73.772,84.886,60.517,68.531,60.517L39.676,60.517C23.321,60.517,10.063,73.772,10.063,90.126C10.063,96.975,10.063,96.975,10.063,104.534L10.063,112.505L18.034,112.505L90.172,112.505Z"/>
</g>
  <g id="Heavy-L" transform="matrix(1.0,0.0,0.0,1.0,2583.866815708705,1466.6668352399554)">  <path stroke-linecap="square" stroke-opacity="1" stroke-dasharray="none" stroke-linejoin="miter" stroke-width="1px" stroke-miterlimit="4" stroke="none" clip-rule="evenodd" fill="#000000" fill-opacity="1" fill-rule="nonzero" d="M68.646,25.234C68.646,33.258,62.137,39.763,54.103,39.763C46.069,39.763,39.56,33.258,39.56,25.234C39.56,17.21,46.069,10.705,54.103,10.705C62.137,10.705,68.646,17.21,68.646,25.234ZM82.843,25.234C82.843,9.367,69.976,-3.491,54.103,-3.491C38.231,-3.491,25.364,9.367,25.364,25.234C25.364,41.101,38.231,53.96,54.103,53.96C69.976,53.96,82.843,41.101,82.843,25.234Z"/>
  <path clip-rule="evenodd" stroke-dasharray="none" stroke-linejoin="miter" stroke="none" stroke-linecap="square" fill-opacity="1" stroke-width="1px" fill-rule="nonzero" stroke-opacity="1" stroke-miterlimit="4" fill="#000000" d="M90.172,97.436L18.034,97.436L18.034,104.534L25.133,104.534C25.133,96.975,25.133,96.975,25.133,90.126C25.133,82.095,31.643,75.587,39.676,75.587L68.531,75.587C76.564,75.587,83.074,82.095,83.074,90.126C83.074,96.975,83.074,96.975,83.074,104.534L90.172,104.534L90.172,97.436ZM90.172,111.632L97.27,111.632L97.27,104.534C97.27,96.975,97.27,96.975,97.27,90.126C97.27,74.254,84.404,61.39,68.531,61.39L39.676,61.39C23.803,61.39,10.936,74.254,10.936,90.126C10.936,96.975,10.936,96.975,10.936,104.534L10.936,111.632L18.034,111.632L90.172,111.632Z"/>
</g>
  <g id="Bold-L" transform="matrix(1.0,0.0,0.0,1.0,2287.156815708705,1466.6668352399554)">  <path fill-rule="nonzero" stroke-miterlimit="4" stroke-opacity="1" fill-opacity="1" stroke-dasharray="none" fill="#000000" stroke-linejoin="miter" stroke="none" stroke-linecap="square" stroke-width="1px" clip-rule="evenodd" d="M69.519,25.234C69.519,33.74,62.619,40.636,54.103,40.636C45.587,40.636,38.687,33.74,38.687,25.234C38.687,16.728,45.587,9.832,54.103,9.832C62.619,9.832,69.519,16.728,69.519,25.234ZM81.97,25.234C81.97,9.849,69.494,-2.619,54.103,-2.619C38.713,-2.619,26.236,9.849,26.236,25.234C26.236,40.619,38.713,53.087,54.103,53.087C69.494,53.087,81.97,40.619,81.97,25.234Z"/>
  <path stroke-opacity="1" fill-rule="nonzero" stroke-miterlimit="4" stroke="none" fill-opacity="1" clip-rule="evenodd" fill="#000000" stroke-linecap="square" stroke-dasharray="none" stroke-width="1px" stroke-linejoin="miter" d="M90.172,98.308L18.034,98.308L18.034,104.534L24.26,104.534C24.26,96.975,24.26,96.975,24.26,90.126C24.26,81.613,31.161,74.714,39.676,74.714L68.531,74.714C77.046,74.714,83.947,81.613,83.947,90.126C83.947,96.975,83.947,96.975,83.947,104.534L90.172,104.534L90.172,98.308ZM90.172,110.759L96.397,110.759L96.397,104.534C96.397,96.975,96.397,96.975,96.397,90.126C96.397,74.736,83.922,62.263,68.531,62.263L39.676,62.263C24.285,62.263,11.809,74.736,11.809,90.126C11.809,96.975,11.809,96.975,11.809,104.534L11.809,110.759L18.034,110.759L90.172,110.759Z"/>
</g>
  <g id="Semibold-L" transform="matrix(1.0,0.0,0.0,1.0,1990.4468157087053,1466.6668352399554)">  <path stroke-opacity="1" clip-rule="evenodd" stroke="none" fill="#000000" stroke-width="1px" fill-rule="nonzero" stroke-dasharray="none" stroke-linejoin="miter" fill-opacity="1" stroke-linecap="square" stroke-miterlimit="4" d="M70.392,25.234C70.392,34.222,63.101,41.509,54.103,41.509C45.105,41.509,37.815,34.222,37.815,25.234C37.815,16.246,45.105,8.959,54.103,8.959C63.101,8.959,70.392,16.246,70.392,25.234ZM81.097,25.234C81.097,10.332,69.012,-1.746,54.103,-1.746C39.195,-1.746,27.109,10.332,27.109,25.234C27.109,40.136,39.195,52.214,54.103,52.214C69.012,52.214,81.097,40.136,81.097,25.234Z"/>
  <path stroke-miterlimit="4" fill="#000000" stroke-linecap="square" stroke-dasharray="none" stroke-opacity="1" stroke-linejoin="miter" clip-rule="evenodd" fill-rule="nonzero" stroke-width="1px" fill-opacity="1" stroke="none" d="M90.172,99.181L18.034,99.181L18.034,104.534L23.387,104.534C23.387,96.975,23.387,96.975,23.387,90.126C23.387,81.131,30.679,73.841,39.676,73.841L68.531,73.841C77.528,73.841,84.819,81.131,84.819,90.126C84.819,96.975,84.819,96.975,84.819,104.534L90.172,104.534L90.172,99.181ZM90.172,109.886L95.525,109.886L95.525,104.534C95.525,96.975,95.525,96.975,95.525,90.126C95.525,75.218,83.44,63.136,68.531,63.136L39.676,63.136C24.767,63.136,12.682,75.218,12.682,90.126C12.682,96.975,12.682,96.975,12.682,104.534L12.682,109.886L18.034,109.886L90.172,109.886Z"/>
</g>
  <g id="Medium-L" transform="matrix(1.0,0.0,0.0,1.0,1693.7368157087053,1466.6668352399554)">  <path stroke-dasharray="none" stroke-width="1px" clip-rule="evenodd" stroke-opacity="1" stroke-linejoin="miter" stroke-linecap="square" fill="#000000" stroke="none" stroke-miterlimit="4" fill-opacity="1" fill-rule="nonzero" d="M71.265,25.234C71.265,34.705,63.583,42.381,54.103,42.381C44.623,42.381,36.942,34.705,36.942,25.234C36.942,15.763,44.623,8.087,54.103,8.087C63.583,8.087,71.265,15.763,71.265,25.234ZM80.224,25.234C80.224,10.814,68.53,-0.873,54.103,-0.873C39.677,-0.873,27.982,10.814,27.982,25.234C27.982,39.654,39.677,51.341,54.103,51.341C68.53,51.341,80.224,39.654,80.224,25.234Z"/>
  <path stroke-width="1px" fill-rule="nonzero" fill="#000000" clip-rule="evenodd" stroke-linecap="square" stroke="none" stroke-opacity="1" stroke-linejoin="miter" stroke-dasharray="none" fill-opacity="1" stroke-miterlimit="4" d="M90.172,100.054L18.034,100.054L22.514,104.534C22.514,96.975,22.514,96.975,22.514,90.126C22.514,80.649,30.197,72.968,39.676,72.968L68.531,72.968C78.01,72.968,85.692,80.649,85.692,90.126C85.692,96.975,85.692,96.975,85.692,104.534L90.172,100.054ZM90.172,109.014L94.652,109.014L94.652,104.534C94.652,96.975,94.652,96.975,94.652,90.126C94.652,75.7,82.958,64.009,68.531,64.009L39.676,64.009C25.249,64.009,13.555,75.7,13.555,90.126C13.555,96.975,13.555,96.975,13.555,104.534L13.555,109.014L18.034,109.014L90.172,109.014Z"/>
</g>
  <g id="Regular-L" transform="matrix(1.0,0.0,0.0,1.0,1397.0268157087053,1466.6668352399554)">  <path stroke-dasharray="none" stroke-miterlimit="4" fill-rule="nonzero" clip-rule="evenodd" stroke-linecap="square" stroke-opacity="1" stroke-width="1px" fill-opacity="1" fill="#000000" stroke="none" stroke-linejoin="miter" d="M72.138,25.234C72.138,35.187,64.065,43.254,54.103,43.254C44.141,43.254,36.069,35.187,36.069,25.234C36.069,15.281,44.141,7.214,54.103,7.214C64.065,7.214,72.138,15.281,72.138,25.234ZM79.351,25.234C79.351,11.296,68.048,0,54.103,0C40.158,0,28.855,11.296,28.855,25.234C28.855,39.172,40.158,50.468,54.103,50.468C68.048,50.468,79.351,39.172,79.351,25.234Z"/>
  <path stroke-linejoin="miter" stroke-dasharray="none" stroke-linecap="square" stroke-width="1px" fill-opacity="1" clip-rule="evenodd" fill-rule="nonzero" stroke-opacity="1" stroke-miterlimit="4" fill="#000000" stroke="none" d="M90.172,100.927L18.034,100.927L21.641,104.534C21.641,96.975,21.641,96.975,21.641,90.126C21.641,80.167,29.715,72.095,39.676,72.095L68.531,72.095C78.492,72.095,86.565,80.167,86.565,90.126C86.565,96.975,86.565,96.975,86.565,104.534L90.172,100.927ZM90.172,108.141L93.779,108.141L93.779,104.534C93.779,96.975,93.779,96.975,93.779,90.126C93.779,76.182,82.476,64.882,68.531,64.882L39.676,64.882C25.731,64.882,14.428,76.182,14.428,90.126C14.428,96.975,14.428,96.975,14.428,104.534L14.428,108.141L18.034,108.141L90.172,108.141Z"/>
</g>
  <g id="Light-L" transform="matrix(1.0,0.0,0.0,1.0,1100.3168157087055,1466.6668352399554)">  <path stroke-opacity="1" fill="#000000" stroke-linejoin="miter" stroke-dasharray="none" fill-opacity="1" stroke-width="1px" clip-rule="evenodd" stroke="none" stroke-miterlimit="4" fill-rule="nonzero" stroke-linecap="square" d="M72.739,25.234C72.739,35.519,64.397,43.855,54.103,43.855C43.81,43.855,35.468,35.519,35.468,25.234C35.468,14.949,43.81,6.613,54.103,6.613C64.397,6.613,72.739,14.949,72.739,25.234ZM78.75,25.234C78.75,11.628,67.716,0.601,54.103,0.601C40.49,0.601,29.456,11.628,29.456,25.234C29.456,38.84,40.49,49.867,54.103,49.867C67.716,49.867,78.75,38.84,78.75,25.234Z"/>
  <path stroke-linecap="square" stroke-width="1px" stroke-miterlimit="4" clip-rule="evenodd" stroke-opacity="1" fill="#000000" stroke="none" stroke-linejoin="miter" stroke-dasharray="none" fill-rule="nonzero" fill-opacity="1" d="M90.172,101.528L18.034,101.528L21.04,104.534C21.04,96.975,21.04,96.975,21.04,90.126C21.04,79.835,29.383,71.494,39.676,71.494L68.531,71.494C78.824,71.494,87.166,79.835,87.166,90.126C87.166,96.975,87.166,96.975,87.166,104.534L90.172,101.528ZM90.172,107.54L93.178,107.54L93.178,104.534C93.178,96.975,93.178,96.975,93.178,90.126C93.178,76.514,82.144,65.483,68.531,65.483L39.676,65.483C26.063,65.483,15.029,76.514,15.029,90.126C15.029,96.975,15.029,96.975,15.029,104.534L15.029,107.54L18.034,107.54L90.172,107.54Z"/>
</g>
  <g id="Thin-L" transform="matrix(1.0,0.0,0.0,1.0,803.6068157087054,1466.6668352399554)">  <path stroke-opacity="1" stroke-dasharray="none" fill-rule="nonzero" clip-rule="evenodd" stroke-linejoin="miter" stroke-miterlimit="4" fill="#000000" stroke-width="1px" stroke-linecap="square" stroke="none" fill-opacity="1" d="M73.34,25.234C73.34,35.851,64.729,44.457,54.103,44.457C43.478,44.457,34.866,35.851,34.866,25.234C34.866,14.617,43.478,6.011,54.103,6.011C64.729,6.011,73.34,14.617,73.34,25.234ZM78.149,25.234C78.149,11.96,67.384,1.202,54.103,1.202C40.822,1.202,30.057,11.96,30.057,25.234C30.057,38.508,40.822,49.266,54.103,49.266C67.384,49.266,78.149,38.508,78.149,25.234Z"/>
  <path stroke-linejoin="miter" stroke-miterlimit="4" fill-rule="nonzero" stroke-dasharray="none" fill-opacity="1" stroke-width="1px" clip-rule="evenodd" stroke="none" stroke-linecap="square" fill="#000000" stroke-opacity="1" d="M90.172,102.129L18.034,102.129L20.439,104.534C20.439,96.975,20.439,96.975,20.439,90.126C20.439,79.503,29.051,70.893,39.676,70.893L68.531,70.893C79.156,70.893,87.767,79.503,87.767,90.126C87.767,96.975,87.767,96.975,87.767,104.534L90.172,102.129ZM90.172,106.938L92.577,106.938L92.577,104.534C92.577,96.975,92.577,96.975,92.577,90.126C92.577,76.846,81.812,66.084,68.531,66.084L39.676,66.084C26.395,66.084,15.63,76.847,15.63,90.126C15.63,96.975,15.63,96.975,15.63,104.534L15.63,106.938L18.034,106.938L90.172,106.938Z"/>
</g>
  <g id="Ultralight-L" transform="matrix(1.0,0.0,0.0,1.0,506.89681570870533,1466.6668352399554)">  <path stroke-dasharray="none" stroke-miterlimit="4" clip-rule="evenodd" fill-rule="nonzero" stroke-width="1px" stroke="none" fill="#000000" stroke-linejoin="miter" fill-opacity="1" stroke-opacity="1" stroke-linecap="square" d="M73.941,25.234C73.941,36.183,65.061,45.058,54.103,45.058C43.146,45.058,34.265,36.183,34.265,25.234C34.265,14.285,43.146,5.41,54.103,5.41C65.061,5.41,73.941,14.285,73.941,25.234ZM77.548,25.234C77.548,12.292,67.052,1.803,54.103,1.803C41.154,1.803,30.658,12.292,30.658,25.234C30.658,38.176,41.154,48.665,54.103,48.665C67.052,48.665,77.548,38.176,77.548,25.234Z"/>
  <path stroke-linejoin="miter" stroke="none" stroke-dasharray="none" stroke-opacity="1" fill="#000000" clip-rule="evenodd" stroke-miterlimit="4" stroke-width="1px" fill-opacity="1" fill-rule="nonzero" stroke-linecap="square" d="M90.172,102.73L18.034,102.73L19.838,104.534C19.838,96.975,19.838,96.975,19.838,90.126C19.838,79.171,28.719,70.292,39.676,70.292L68.531,70.292C79.488,70.292,88.369,79.171,88.369,90.126C88.369,96.975,88.369,96.975,88.369,104.534L90.172,102.73ZM90.172,106.337L91.975,106.337L91.975,104.534C91.975,96.975,91.975,96.975,91.975,90.126C91.975,77.178,81.48,66.685,68.531,66.685L39.676,66.685C26.727,66.685,16.231,77.179,16.231,90.126C16.231,96.975,16.231,96.975,16.231,104.534L16.231,106.337L18.034,106.337L90.172,106.337Z"/>
</g>
  <g id="Black-M" transform="matrix(1.0,0.0,0.0,1.0,2892.7395470610118,1048.829566592262)">  <path stroke-dasharray="none" clip-rule="evenodd" stroke-width="1px" stroke-opacity="1" fill-rule="nonzero" stroke-miterlimit="4" stroke-linejoin="miter" stroke-linecap="square" stroke="none" fill="#000000" fill-opacity="1" d="M52.537,19.561C52.537,25.408,47.795,30.147,41.94,30.147C36.086,30.147,31.343,25.408,31.343,19.561C31.343,13.715,36.086,8.975,41.94,8.975C47.795,8.975,52.537,13.715,52.537,19.561ZM64.896,19.561C64.896,6.888,54.618,-3.383,41.94,-3.383C29.263,-3.383,18.985,6.888,18.985,19.561C18.985,32.235,29.263,42.506,41.94,42.506C54.618,42.506,64.896,32.235,64.896,19.561Z"/>
  <path stroke-width="1px" stroke-miterlimit="4" stroke-linecap="square" clip-rule="evenodd" stroke-linejoin="miter" fill="#000000" stroke-dasharray="none" fill-rule="nonzero" fill-opacity="1" stroke-opacity="1" stroke="none" d="M69.901,74.855L13.98,74.855L13.98,81.034L20.159,81.034C20.159,75.174,20.159,75.174,20.159,69.865C20.159,64.014,24.903,59.271,30.756,59.271L53.125,59.271C58.978,59.271,63.722,64.013,63.722,69.865C63.722,75.174,63.722,75.174,63.722,81.034L69.901,81.034L69.901,74.855ZM69.901,87.213L76.08,87.213L76.08,81.034C76.08,75.174,76.08,75.174,76.08,69.865C76.08,57.187,65.803,46.913,53.125,46.913L30.756,46.913C18.078,46.913,7.801,57.187,7.801,69.865C7.801,75.174,7.801,75.174,7.801,81.034L7.801,87.213L13.98,87.213L69.901,87.213Z"/>
</g>
  <g id="Heavy-M" transform="matrix(1.0,0.0,0.0,1.0,2596.0295470610117,1048.829566592262)">  <path stroke-linecap="square" stroke-opacity="1" stroke-dasharray="none" stroke-linejoin="miter" stroke-width="1px" stroke-miterlimit="4" stroke="none" clip-rule="evenodd" fill="#000000" fill-opacity="1" fill-rule="nonzero" d="M53.214,19.561C53.214,25.781,48.168,30.824,41.94,30.824C35.713,30.824,30.667,25.781,30.667,19.561C30.667,13.341,35.713,8.299,41.94,8.299C48.168,8.299,53.214,13.341,53.214,19.561ZM64.219,19.561C64.219,7.261,54.245,-2.707,41.94,-2.707C29.636,-2.707,19.662,7.261,19.662,19.561C19.662,31.861,29.636,41.829,41.94,41.829C54.245,41.829,64.219,31.861,64.219,19.561Z"/>
  <path clip-rule="evenodd" stroke-dasharray="none" stroke-linejoin="miter" stroke="none" stroke-linecap="square" fill-opacity="1" stroke-width="1px" fill-rule="nonzero" stroke-opacity="1" stroke-miterlimit="4" fill="#000000" d="M69.901,75.531L13.98,75.531L13.98,81.034L19.483,81.034C19.483,75.174,19.483,75.174,19.483,69.865C19.483,63.64,24.529,58.594,30.756,58.594L53.125,58.594C59.352,58.594,64.398,63.64,64.398,69.865C64.398,75.174,64.398,75.174,64.398,81.034L69.901,81.034L69.901,75.531ZM69.901,86.537L75.403,86.537L75.403,81.034C75.403,75.174,75.403,75.174,75.403,69.865C75.403,57.561,65.429,47.589,53.125,47.589L30.756,47.589C18.452,47.589,8.478,57.561,8.478,69.865C8.478,75.174,8.478,75.174,8.478,81.034L8.478,86.537L13.98,86.537L69.901,86.537Z"/>
</g>
  <g id="Bold-M" transform="matrix(1.0,0.0,0.0,1.0,2299.3195470610117,1048.829566592262)">  <path fill-rule="nonzero" stroke-miterlimit="4" stroke-opacity="1" fill-opacity="1" stroke-dasharray="none" fill="#000000" stroke-linejoin="miter" stroke="none" stroke-linecap="square" stroke-width="1px" clip-rule="evenodd" d="M53.891,19.561C53.891,26.155,48.542,31.501,41.94,31.501C35.339,31.501,29.99,26.155,29.99,19.561C29.99,12.967,35.339,7.622,41.94,7.622C48.542,7.622,53.891,12.967,53.891,19.561ZM63.543,19.561C63.543,7.635,53.871,-2.03,41.94,-2.03C30.01,-2.03,20.338,7.635,20.338,19.561C20.338,31.487,30.01,41.152,41.94,41.152C53.871,41.152,63.543,31.487,63.543,19.561Z"/>
  <path stroke-opacity="1" fill-rule="nonzero" stroke-miterlimit="4" stroke="none" fill-opacity="1" clip-rule="evenodd" fill="#000000" stroke-linecap="square" stroke-dasharray="none" stroke-width="1px" stroke-linejoin="miter" d="M69.901,76.208L13.98,76.208L13.98,81.034L18.806,81.034C18.806,75.174,18.806,75.174,18.806,69.865C18.806,63.266,24.156,57.918,30.756,57.918L53.125,57.918C59.725,57.918,65.075,63.266,65.075,69.865C65.075,75.174,65.075,75.174,65.075,81.034L69.901,81.034L69.901,76.208ZM69.901,85.86L74.727,85.86L74.727,81.034C74.727,75.174,74.727,75.174,74.727,69.865C74.727,57.935,65.055,48.266,53.125,48.266L30.756,48.266C18.826,48.266,9.154,57.935,9.154,69.865C9.154,75.174,9.154,75.174,9.154,81.034L9.154,85.86L13.98,85.86L69.901,85.86Z"/>
</g>
  <g id="Semibold-M" transform="matrix(1.0,0.0,0.0,1.0,2002.6095470610119,1048.829566592262)">  <path stroke-opacity="1" clip-rule="evenodd" stroke="none" fill="#000000" stroke-width="1px" fill-rule="nonzero" stroke-dasharray="none" stroke-linejoin="miter" fill-opacity="1" stroke-linecap="square" stroke-miterlimit="4" d="M54.567,19.561C54.567,26.529,48.915,32.177,41.94,32.177C34.965,32.177,29.314,26.529,29.314,19.561C29.314,12.593,34.965,6.945,41.94,6.945C48.916,6.945,54.567,12.593,54.567,19.561ZM62.866,19.561C62.866,8.009,53.497,-1.353,41.94,-1.353C30.383,-1.353,21.015,8.009,21.015,19.561C21.015,31.113,30.383,40.476,41.94,40.476C53.497,40.476,62.866,31.113,62.866,19.561Z"/>
  <path stroke-miterlimit="4" fill="#000000" stroke-linecap="square" stroke-dasharray="none" stroke-opacity="1" stroke-linejoin="miter" clip-rule="evenodd" fill-rule="nonzero" stroke-width="1px" fill-opacity="1" stroke="none" d="M69.901,76.885L13.98,76.885L13.98,81.034L18.129,81.034C18.129,75.174,18.129,75.174,18.129,69.865C18.129,62.892,23.782,57.241,30.756,57.241L53.125,57.241C60.099,57.241,65.751,62.892,65.751,69.865C65.751,75.174,65.751,75.174,65.751,81.034L69.901,81.034L69.901,76.885ZM69.901,85.183L74.05,85.183L74.05,81.034C74.05,75.174,74.05,75.174,74.05,69.865C74.05,58.309,64.682,48.942,53.125,48.942L30.756,48.942C19.199,48.942,9.831,58.309,9.831,69.865C9.831,75.174,9.831,75.174,9.831,81.034L9.831,85.183L13.98,85.183L69.901,85.183Z"/>
</g>
  <g id="Medium-M" transform="matrix(1.0,0.0,0.0,1.0,1705.8995470610118,1048.829566592262)">  <path stroke-dasharray="none" stroke-width="1px" clip-rule="evenodd" stroke-opacity="1" stroke-linejoin="miter" stroke-linecap="square" fill="#000000" stroke="none" stroke-miterlimit="4" fill-opacity="1" fill-rule="nonzero" d="M55.244,19.561C55.244,26.903,49.289,32.854,41.94,32.854C34.592,32.854,28.637,26.903,28.637,19.561C28.637,12.22,34.592,6.269,41.94,6.269C49.289,6.269,55.244,12.22,55.244,19.561ZM62.189,19.561C62.189,8.383,53.124,-0.677,41.94,-0.677C30.757,-0.677,21.692,8.383,21.692,19.561C21.692,30.74,30.757,39.799,41.94,39.799C53.124,39.799,62.189,30.74,62.189,19.561Z"/>
  <path stroke-width="1px" fill-rule="nonzero" fill="#000000" clip-rule="evenodd" stroke-linecap="square" stroke="none" stroke-opacity="1" stroke-linejoin="miter" stroke-dasharray="none" fill-opacity="1" stroke-miterlimit="4" d="M69.901,77.561L13.98,77.561L17.453,81.034C17.453,75.174,17.453,75.174,17.453,69.865C17.453,62.519,23.408,56.564,30.756,56.564L53.125,56.564C60.473,56.564,66.428,62.518,66.428,69.865C66.428,75.174,66.428,75.174,66.428,81.034L69.901,77.561ZM69.901,84.507L73.373,84.507L73.373,81.034C73.373,75.174,73.373,75.174,73.373,69.865C73.373,58.682,64.308,49.619,53.125,49.619L30.756,49.619C19.573,49.619,10.507,58.682,10.507,69.865C10.507,75.174,10.507,75.174,10.507,81.034L10.507,84.507L13.98,84.507L69.901,84.507Z"/>
</g>
  <g id="Regular-M" transform="matrix(1.0,0.0,0.0,1.0,1409.1895470610118,1048.829566592262)">  <path stroke-dasharray="none" stroke-miterlimit="4" fill-rule="nonzero" clip-rule="evenodd" stroke-linecap="square" stroke-opacity="1" stroke-width="1px" fill-opacity="1" fill="#000000" stroke="none" stroke-linejoin="miter" d="M55.921,19.561C55.921,27.277,49.663,33.53,41.94,33.53C34.218,33.53,27.96,27.277,27.96,19.561C27.96,11.846,34.218,5.592,41.94,5.592C49.663,5.592,55.921,11.846,55.921,19.561ZM61.513,19.561C61.513,8.757,52.75,0,41.94,0C31.131,0,22.368,8.757,22.368,19.561C22.368,30.366,31.131,39.123,41.94,39.123C52.75,39.123,61.513,30.366,61.513,19.561Z"/>
  <path stroke-linejoin="miter" stroke-dasharray="none" stroke-linecap="square" stroke-width="1px" fill-opacity="1" clip-rule="evenodd" fill-rule="nonzero" stroke-opacity="1" stroke-miterlimit="4" fill="#000000" stroke="none" d="M69.901,78.238L13.98,78.238L16.776,81.034C16.776,75.174,16.776,75.174,16.776,69.865C16.776,62.145,23.035,55.888,30.756,55.888L53.125,55.888C60.846,55.888,67.105,62.145,67.105,69.865C67.105,75.174,67.105,75.174,67.105,81.034L69.901,78.238ZM69.901,83.83L72.697,83.83L72.697,81.034C72.697,75.174,72.697,75.174,72.697,69.865C72.697,59.056,63.935,50.296,53.125,50.296L30.756,50.296C19.947,50.296,11.184,59.056,11.184,69.865C11.184,75.174,11.184,75.174,11.184,81.034L11.184,83.83L13.98,83.83L69.901,83.83Z"/>
</g>
  <g id="Light-M" transform="matrix(1.0,0.0,0.0,1.0,1112.479547061012,1048.829566592262)">  <path stroke-opacity="1" fill="#000000" stroke-linejoin="miter" stroke-dasharray="none" fill-opacity="1" stroke-width="1px" clip-rule="evenodd" stroke="none" stroke-miterlimit="4" fill-rule="nonzero" stroke-linecap="square" d="M56.387,19.561C56.387,27.534,49.92,33.997,41.94,33.997C33.961,33.997,27.494,27.534,27.494,19.561C27.494,11.588,33.961,5.126,41.94,5.126C49.92,5.126,56.387,11.588,56.387,19.561ZM61.047,19.561C61.047,9.014,52.493,0.466,41.94,0.466C31.388,0.466,22.834,9.014,22.834,19.561C22.834,30.108,31.388,38.657,41.94,38.657C52.493,38.657,61.047,30.108,61.047,19.561Z"/>
  <path stroke-linecap="square" stroke-width="1px" stroke-miterlimit="4" clip-rule="evenodd" stroke-opacity="1" fill="#000000" stroke="none" stroke-linejoin="miter" stroke-dasharray="none" fill-rule="nonzero" fill-opacity="1" d="M69.901,78.704L13.98,78.704L16.31,81.034C16.31,75.174,16.31,75.174,16.31,69.865C16.31,61.887,22.777,55.422,30.756,55.422L53.125,55.422C61.104,55.422,67.571,61.887,67.571,69.865C67.571,75.174,67.571,75.174,67.571,81.034L69.901,78.704ZM69.901,83.364L72.231,83.364L72.231,81.034C72.231,75.174,72.231,75.174,72.231,69.865C72.231,59.313,63.677,50.762,53.125,50.762L30.756,50.762C20.204,50.762,11.65,59.314,11.65,69.865C11.65,75.174,11.65,75.174,11.65,81.034L11.65,83.364L13.98,83.364L69.901,83.364Z"/>
</g>
  <g id="Thin-M" transform="matrix(1.0,0.0,0.0,1.0,815.769547061012,1048.829566592262)">  <path stroke-opacity="1" stroke-dasharray="none" fill-rule="nonzero" clip-rule="evenodd" stroke-linejoin="miter" stroke-miterlimit="4" fill="#000000" stroke-width="1px" stroke-linecap="square" stroke="none" fill-opacity="1" d="M56.853,19.561C56.853,27.792,50.177,34.463,41.94,34.463C33.704,34.463,27.028,27.792,27.028,19.561C27.028,11.331,33.704,4.66,41.94,4.66C50.177,4.66,56.853,11.331,56.853,19.561ZM60.581,19.561C60.581,9.272,52.236,0.932,41.94,0.932C31.645,0.932,23.3,9.272,23.3,19.561C23.3,29.851,31.645,38.191,41.94,38.191C52.236,38.191,60.581,29.851,60.581,19.561Z"/>
  <path stroke-linejoin="miter" stroke-miterlimit="4" fill-rule="nonzero" stroke-dasharray="none" fill-opacity="1" stroke-width="1px" clip-rule="evenodd" stroke="none" stroke-linecap="square" fill="#000000" stroke-opacity="1" d="M69.901,79.17L13.98,79.17L15.844,81.034C15.844,75.174,15.844,75.174,15.844,69.865C15.844,61.63,22.52,54.956,30.756,54.956L53.125,54.956C61.361,54.956,68.037,61.63,68.037,69.865C68.037,75.174,68.037,75.174,68.037,81.034L69.901,79.17ZM69.901,82.898L71.765,82.898L71.765,81.034C71.765,75.174,71.765,75.174,71.765,69.865C71.765,59.571,63.42,51.228,53.125,51.228L30.756,51.228C20.461,51.228,12.116,59.571,12.116,69.865C12.116,75.174,12.116,75.174,12.116,81.034L12.116,82.898L13.98,82.898L69.901,82.898Z"/>
</g>
  <g id="Ultralight-M" transform="matrix(1.0,0.0,0.0,1.0,519.0595470610119,1048.829566592262)">  <path stroke-dasharray="none" stroke-miterlimit="4" clip-rule="evenodd" fill-rule="nonzero" stroke-width="1px" stroke="none" fill="#000000" stroke-linejoin="miter" fill-opacity="1" stroke-opacity="1" stroke-linecap="square" d="M57.319,19.561C57.319,28.049,50.435,34.929,41.94,34.929C33.446,34.929,26.562,28.049,26.562,19.561C26.562,11.074,33.446,4.194,41.94,4.194C50.435,4.194,57.319,11.074,57.319,19.561ZM60.115,19.561C60.115,9.529,51.978,1.398,41.94,1.398C31.903,1.398,23.766,9.529,23.766,19.561C23.766,29.594,31.903,37.725,41.94,37.725C51.978,37.725,60.115,29.594,60.115,19.561Z"/>
  <path stroke-linejoin="miter" stroke="none" stroke-dasharray="none" stroke-opacity="1" fill="#000000" clip-rule="evenodd" stroke-miterlimit="4" stroke-width="1px" fill-opacity="1" fill-rule="nonzero" stroke-linecap="square" d="M69.901,79.636L13.98,79.636L15.378,81.034C15.378,75.174,15.378,75.174,15.378,69.865C15.378,61.373,22.263,54.49,30.756,54.49L53.125,54.49C61.618,54.49,68.503,61.373,68.503,69.865C68.503,75.174,68.503,75.174,68.503,81.034L69.901,79.636ZM69.901,82.432L71.299,82.432L71.299,81.034C71.299,75.174,71.299,75.174,71.299,69.865C71.299,59.828,63.162,51.694,53.125,51.694L30.756,51.694C20.719,51.694,12.582,59.828,12.582,69.865C12.582,75.174,12.582,75.174,12.582,81.034L12.582,82.432L13.98,82.432L69.901,82.432Z"/>
</g>
  <g id="Black-S" transform="matrix(1.0,0.0,0.0,1.0,2901.840625348772,627.9306448800223)">  <path stroke-dasharray="none" clip-rule="evenodd" stroke-width="1px" stroke-opacity="1" fill-rule="nonzero" stroke-miterlimit="4" stroke-linejoin="miter" stroke-linecap="square" stroke="none" fill="#000000" fill-opacity="1" d="M41.137,15.316C41.137,19.894,37.423,23.605,32.839,23.605C28.256,23.605,24.542,19.894,24.542,15.316C24.542,10.739,28.255,7.028,32.839,7.028C37.423,7.028,41.137,10.739,41.137,15.316ZM50.813,15.316C50.813,5.393,42.766,-2.649,32.839,-2.649C22.913,-2.649,14.865,5.393,14.865,15.316C14.865,25.24,22.913,33.282,32.839,33.282C42.766,33.282,50.813,25.24,50.813,15.316Z"/>
  <path stroke-width="1px" stroke-miterlimit="4" stroke-linecap="square" clip-rule="evenodd" stroke-linejoin="miter" fill="#000000" stroke-dasharray="none" fill-rule="nonzero" fill-opacity="1" stroke-opacity="1" stroke="none" d="M54.732,58.611L10.946,58.611L10.946,63.45L15.785,63.45C15.785,58.862,15.785,58.862,15.785,54.704C15.785,50.123,19.499,46.409,24.082,46.409L41.597,46.409C46.18,46.409,49.894,50.123,49.894,54.704C49.894,58.862,49.894,58.862,49.894,63.45L54.732,63.45L54.732,58.611ZM54.732,68.288L59.571,68.288L59.571,63.45C59.571,58.862,59.571,58.862,59.571,54.704C59.571,44.778,51.524,36.733,41.597,36.733L24.082,36.733C14.155,36.733,6.108,44.778,6.108,54.704C6.108,58.862,6.108,58.862,6.108,63.45L6.108,68.288L10.946,68.288L54.732,68.288Z"/>
</g>
  <g id="Heavy-S" transform="matrix(1.0,0.0,0.0,1.0,2605.130625348772,627.9306448800223)">  <path stroke-linecap="square" stroke-opacity="1" stroke-dasharray="none" stroke-linejoin="miter" stroke-width="1px" stroke-miterlimit="4" stroke="none" clip-rule="evenodd" fill="#000000" fill-opacity="1" fill-rule="nonzero" d="M41.667,15.316C41.667,20.187,37.716,24.135,32.839,24.135C27.963,24.135,24.012,20.187,24.012,15.316C24.012,10.446,27.963,6.498,32.839,6.498C37.716,6.498,41.667,10.446,41.667,15.316ZM50.284,15.316C50.284,5.686,42.474,-2.119,32.839,-2.119C23.205,-2.119,15.395,5.686,15.395,15.316C15.395,24.947,23.205,32.752,32.839,32.752C42.474,32.752,50.284,24.947,50.284,15.316Z"/>
  <path clip-rule="evenodd" stroke-dasharray="none" stroke-linejoin="miter" stroke="none" stroke-linecap="square" fill-opacity="1" stroke-width="1px" fill-rule="nonzero" stroke-opacity="1" stroke-miterlimit="4" fill="#000000" d="M54.732,59.141L10.946,59.141L10.946,63.45L15.255,63.45C15.255,58.862,15.255,58.862,15.255,54.704C15.255,49.83,19.206,45.879,24.082,45.879L41.597,45.879C46.472,45.879,50.424,49.83,50.424,54.704C50.424,58.862,50.424,58.862,50.424,63.45L54.732,63.45L54.732,59.141ZM54.732,67.758L59.041,67.758L59.041,63.45C59.041,58.862,59.041,58.862,59.041,54.704C59.041,45.07,51.231,37.262,41.597,37.262L24.082,37.262C14.448,37.262,6.638,45.07,6.638,54.704C6.638,58.862,6.638,58.862,6.638,63.45L6.638,67.758L10.946,67.758L54.732,67.758Z"/>
</g>
  <g id="Bold-S" transform="matrix(1.0,0.0,0.0,1.0,2308.420625348772,627.9306448800223)">  <path fill-rule="nonzero" stroke-miterlimit="4" stroke-opacity="1" fill-opacity="1" stroke-dasharray="none" fill="#000000" stroke-linejoin="miter" stroke="none" stroke-linecap="square" stroke-width="1px" clip-rule="evenodd" d="M42.196,15.316C42.196,20.48,38.008,24.665,32.839,24.665C27.67,24.665,23.482,20.48,23.482,15.316C23.482,10.153,27.67,5.968,32.839,5.968C38.008,5.968,42.196,10.153,42.196,15.316ZM49.754,15.316C49.754,5.978,42.181,-1.589,32.839,-1.589C23.498,-1.589,15.925,5.978,15.925,15.316C15.925,24.655,23.498,32.222,32.839,32.222C42.181,32.222,49.754,24.655,49.754,15.316Z"/>
  <path stroke-opacity="1" fill-rule="nonzero" stroke-miterlimit="4" stroke="none" fill-opacity="1" clip-rule="evenodd" fill="#000000" stroke-linecap="square" stroke-dasharray="none" stroke-width="1px" stroke-linejoin="miter" d="M54.732,59.671L10.946,59.671L10.946,63.45L14.725,63.45C14.725,58.862,14.725,58.862,14.725,54.704C14.725,49.537,18.914,45.35,24.082,45.35L41.597,45.35C46.765,45.35,50.954,49.537,50.954,54.704C50.954,58.862,50.954,58.862,50.954,63.45L54.732,63.45L54.732,59.671ZM54.732,67.228L58.511,67.228L58.511,63.45C58.511,58.862,58.511,58.862,58.511,54.704C58.511,45.363,50.938,37.792,41.597,37.792L24.082,37.792C14.74,37.792,7.168,45.363,7.168,54.704C7.168,58.862,7.168,58.862,7.168,63.45L7.168,67.228L10.946,67.228L54.732,67.228Z"/>
</g>
  <g id="Semibold-S" transform="matrix(1.0,0.0,0.0,1.0,2011.7106253487723,627.9306448800223)">  <path stroke-opacity="1" clip-rule="evenodd" stroke="none" fill="#000000" stroke-width="1px" fill-rule="nonzero" stroke-dasharray="none" stroke-linejoin="miter" fill-opacity="1" stroke-linecap="square" stroke-miterlimit="4" d="M42.726,15.316C42.726,20.772,38.301,25.195,32.839,25.195C27.378,25.195,22.953,20.772,22.953,15.316C22.953,9.861,27.378,5.438,32.839,5.438C38.301,5.438,42.726,9.861,42.726,15.316ZM49.224,15.316C49.224,6.271,41.889,-1.06,32.839,-1.06C23.79,-1.06,16.455,6.271,16.455,15.316C16.455,24.362,23.79,31.693,32.839,31.693C41.889,31.693,49.224,24.362,49.224,15.316Z"/>
  <path stroke-miterlimit="4" fill="#000000" stroke-linecap="square" stroke-dasharray="none" stroke-opacity="1" stroke-linejoin="miter" clip-rule="evenodd" fill-rule="nonzero" stroke-width="1px" fill-opacity="1" stroke="none" d="M54.732,60.201L10.946,60.201L10.946,63.45L14.195,63.45C14.195,58.862,14.195,58.862,14.195,54.704C14.195,49.245,18.621,44.82,24.082,44.82L41.597,44.82C47.058,44.82,51.483,49.245,51.483,54.704C51.483,58.862,51.483,58.862,51.483,63.45L54.732,63.45L54.732,60.201ZM54.732,66.699L57.981,66.699L57.981,63.45C57.981,58.862,57.981,58.862,57.981,54.704C57.981,45.656,50.646,38.322,41.597,38.322L24.082,38.322C15.033,38.322,7.698,45.656,7.698,54.704C7.698,58.862,7.698,58.862,7.698,63.45L7.698,66.699L10.946,66.699L54.732,66.699Z"/>
</g>
  <g id="Medium-S" transform="matrix(1.0,0.0,0.0,1.0,1715.0006253487722,627.9306448800223)">  <path stroke-dasharray="none" stroke-width="1px" clip-rule="evenodd" stroke-opacity="1" stroke-linejoin="miter" stroke-linecap="square" fill="#000000" stroke="none" stroke-miterlimit="4" fill-opacity="1" fill-rule="nonzero" d="M43.256,15.316C43.256,21.065,38.593,25.725,32.839,25.725C27.085,25.725,22.423,21.065,22.423,15.316C22.423,9.568,27.085,4.908,32.839,4.908C38.593,4.908,43.256,9.568,43.256,15.316ZM48.694,15.316C48.694,6.564,41.596,-0.53,32.839,-0.53C24.083,-0.53,16.985,6.564,16.985,15.316C16.985,24.069,24.083,31.163,32.839,31.163C41.596,31.163,48.694,24.069,48.694,15.316Z"/>
  <path stroke-width="1px" fill-rule="nonzero" fill="#000000" clip-rule="evenodd" stroke-linecap="square" stroke="none" stroke-opacity="1" stroke-linejoin="miter" stroke-dasharray="none" fill-opacity="1" stroke-miterlimit="4" d="M54.732,60.731L10.946,60.731L13.666,63.45C13.666,58.862,13.666,58.862,13.666,54.704C13.666,48.952,18.329,44.29,24.082,44.29L41.597,44.29C47.35,44.29,52.013,48.952,52.013,54.704C52.013,58.862,52.013,58.862,52.013,63.45L54.732,60.731ZM54.732,66.169L57.451,66.169L57.451,63.45C57.451,58.862,57.451,58.862,57.451,54.704C57.451,45.948,50.353,38.852,41.597,38.852L24.082,38.852C15.326,38.852,8.227,45.948,8.227,54.704C8.227,58.862,8.227,58.862,8.227,63.45L8.227,66.169L10.946,66.169L54.732,66.169Z"/>
</g>
  <g id="Regular-S" transform="matrix(1.0,0.0,0.0,1.0,1418.2906253487722,627.9306448800223)">  <path stroke-dasharray="none" stroke-miterlimit="4" fill-rule="nonzero" clip-rule="evenodd" stroke-linecap="square" stroke-opacity="1" stroke-width="1px" fill-opacity="1" fill="#000000" stroke="none" stroke-linejoin="miter" d="M43.786,15.316C43.786,21.358,38.886,26.254,32.839,26.254C26.793,26.254,21.893,21.358,21.893,15.316C21.893,9.275,26.793,4.379,32.839,4.379C38.886,4.379,43.786,9.275,43.786,15.316ZM48.164,15.316C48.164,6.856,41.303,0,32.839,0C24.375,0,17.514,6.856,17.514,15.316C17.514,23.776,24.375,30.633,32.839,30.633C41.303,30.633,48.164,23.776,48.164,15.316Z"/>
  <path stroke-linejoin="miter" stroke-dasharray="none" stroke-linecap="square" stroke-width="1px" fill-opacity="1" clip-rule="evenodd" fill-rule="nonzero" stroke-opacity="1" stroke-miterlimit="4" fill="#000000" stroke="none" d="M54.732,61.26L10.946,61.26L13.136,63.45C13.136,58.862,13.136,58.862,13.136,54.704C13.136,48.659,18.036,43.76,24.082,43.76L41.597,43.76C47.643,43.76,52.543,48.659,52.543,54.704C52.543,58.862,52.543,58.862,52.543,63.45L54.732,61.26ZM54.732,65.639L56.922,65.639L56.922,63.45C56.922,58.862,56.922,58.862,56.922,54.704C56.922,46.241,50.061,39.382,41.597,39.382L24.082,39.382C15.618,39.382,8.757,46.241,8.757,54.704C8.757,58.862,8.757,58.862,8.757,63.45L8.757,65.639L10.946,65.639L54.732,65.639Z"/>
</g>
  <g id="Light-S" transform="matrix(1.0,0.0,0.0,1.0,1121.5806253487724,627.9306448800223)">  <path stroke-opacity="1" fill="#000000" stroke-linejoin="miter" stroke-dasharray="none" fill-opacity="1" stroke-width="1px" clip-rule="evenodd" stroke="none" stroke-miterlimit="4" fill-rule="nonzero" stroke-linecap="square" d="M44.151,15.316C44.151,21.559,39.087,26.619,32.839,26.619C26.591,26.619,21.528,21.559,21.528,15.316C21.528,9.074,26.591,4.014,32.839,4.014C39.087,4.014,44.151,9.074,44.151,15.316ZM47.8,15.316C47.8,7.058,41.102,0.365,32.839,0.365C24.577,0.365,17.879,7.058,17.879,15.316C17.879,23.575,24.577,30.268,32.839,30.268C41.102,30.268,47.8,23.575,47.8,15.316Z"/>
  <path stroke-linecap="square" stroke-width="1px" stroke-miterlimit="4" clip-rule="evenodd" stroke-opacity="1" fill="#000000" stroke="none" stroke-linejoin="miter" stroke-dasharray="none" fill-rule="nonzero" fill-opacity="1" d="M54.732,61.625L10.946,61.625L12.771,63.45C12.771,58.862,12.771,58.862,12.771,54.704C12.771,48.458,17.835,43.395,24.082,43.395L41.597,43.395C47.844,43.395,52.908,48.458,52.908,54.704C52.908,58.862,52.908,58.862,52.908,63.45L54.732,61.625ZM54.732,65.274L56.557,65.274L56.557,63.45C56.557,58.862,56.557,58.862,56.557,54.704C56.557,46.442,49.859,39.746,41.597,39.746L24.082,39.746C15.82,39.746,9.122,46.443,9.122,54.704C9.122,58.862,9.122,58.862,9.122,63.45L9.122,65.274L10.946,65.274L54.732,65.274Z"/>
</g>
  <g id="Thin-S" transform="matrix(1.0,0.0,0.0,1.0,824.8706253487724,627.9306448800223)">  <path stroke-opacity="1" stroke-dasharray="none" fill-rule="nonzero" clip-rule="evenodd" stroke-linejoin="miter" stroke-miterlimit="4" fill="#000000" stroke-width="1px" stroke-linecap="square" stroke="none" fill-opacity="1" d="M44.516,15.316C44.516,21.761,39.289,26.984,32.839,26.984C26.39,26.984,21.163,21.761,21.163,15.316C21.163,8.872,26.39,3.649,32.839,3.649C39.289,3.649,44.516,8.872,44.516,15.316ZM47.435,15.316C47.435,7.26,40.901,0.73,32.839,0.73C24.778,0.73,18.244,7.26,18.244,15.316C18.244,23.373,24.778,29.903,32.839,29.903C40.901,29.903,47.435,23.373,47.435,15.316Z"/>
  <path stroke-linejoin="miter" stroke-miterlimit="4" fill-rule="nonzero" stroke-dasharray="none" fill-opacity="1" stroke-width="1px" clip-rule="evenodd" stroke="none" stroke-linecap="square" fill="#000000" stroke-opacity="1" d="M54.732,61.99L10.946,61.99L12.406,63.45C12.406,58.862,12.406,58.862,12.406,54.704C12.406,48.256,17.633,43.03,24.082,43.03L41.597,43.03C48.046,43.03,53.273,48.256,53.273,54.704C53.273,58.862,53.273,58.862,53.273,63.45L54.732,61.99ZM54.732,64.909L56.192,64.909L56.192,63.45C56.192,58.862,56.192,58.862,56.192,54.704C56.192,46.644,49.658,40.111,41.597,40.111L24.082,40.111C16.021,40.111,9.487,46.644,9.487,54.704C9.487,58.862,9.487,58.862,9.487,63.45L9.487,64.909L10.946,64.909L54.732,64.909Z"/>
</g>
  <g id="Ultralight-S" transform="matrix(1.0,0.0,0.0,1.0,528.1606253487723,627.9306448800223)">  <path stroke-dasharray="none" stroke-miterlimit="4" clip-rule="evenodd" fill-rule="nonzero" stroke-width="1px" stroke="none" fill="#000000" stroke-linejoin="miter" fill-opacity="1" stroke-opacity="1" stroke-linecap="square" d="M44.88,15.316C44.88,21.962,39.49,27.349,32.839,27.349C26.188,27.349,20.798,21.962,20.798,15.316C20.798,8.671,26.188,3.284,32.839,3.284C39.49,3.284,44.88,8.671,44.88,15.316ZM47.07,15.316C47.07,7.461,40.699,1.095,32.839,1.095C24.98,1.095,18.609,7.461,18.609,15.316C18.609,23.172,24.98,29.538,32.839,29.538C40.699,29.538,47.07,23.172,47.07,15.316Z"/>
  <path stroke-linejoin="miter" stroke="none" stroke-dasharray="none" stroke-opacity="1" fill="#000000" clip-rule="evenodd" stroke-miterlimit="4" stroke-width="1px" fill-opacity="1" fill-rule="nonzero" stroke-linecap="square" d="M54.732,62.355L10.946,62.355L12.041,63.45C12.041,58.862,12.041,58.862,12.041,54.704C12.041,48.055,17.432,42.666,24.082,42.666L41.597,42.666C48.247,42.666,53.638,48.055,53.638,54.704C53.638,58.862,53.638,58.862,53.638,63.45L54.732,62.355ZM54.732,64.544L55.827,64.544L55.827,63.45C55.827,58.862,55.827,58.862,55.827,54.704C55.827,46.846,49.456,40.476,41.597,40.476L24.082,40.476C16.223,40.476,9.852,46.846,9.852,54.704C9.852,58.862,9.852,58.862,9.852,63.45L9.852,64.544L10.946,64.544L54.732,64.544Z"/>
</g>
 </g>
</svg>
