<?xml version="1.0" encoding="UTF-8"?>
<!-- Generator: CustomSymbols v2.6.2.41 by @serious_bret https://bretlester.com/app_content/CustomSymbols/ -->
<!-- Guides: Left/Right -0.031/-0.031 Cap/Base 0.08/0.08 -->
<!-- Settings: RefScale 1.0 Min/Max Stroke Scales 0.5/2.21 -->
<!DOCTYPE svg
PUBLIC "-//W3C//DTD SVG 1.1//EN"
       "http://www.w3.org/Graphics/SVG/1.1/DTD/svg11.dtd">
<svg version="1.1" xmlns="http://www.w3.org/2000/svg" xmlns:xlink="http://www.w3.org/1999/xlink" width="3300" height="2200">
<![CDATA[<svg width="15" height="15" viewBox="0 0 15 15" fill="none" xmlns="http://www.w3.org/2000/svg">
<path d="M4 14L11 7.5L4 1" stroke="#1D1929" stroke-linecap="square"/>
</svg>
]]>
 <g id="Notes">
  <rect height="2200" id="artboard" style="fill:white;opacity:1" width="3300" x="0" y="0"/>
  <line id="" style="fill:none;stroke:black;opacity:1;stroke-width:0.5;" x1="263" x2="3036" y1="292" y2="292"/>
  <text id="reftext1" style="stroke:none;fill:black;font-family:-apple-system,&quot;SF Pro Display&quot;,&quot;SF Pro Text&quot;,Helvetica,sans-serif;font-weight:bold;" transform="matrix(1 0 0 1 263 322)">Weight/Scale Variations</text>
  <text id="reftext2" style="stroke:none;fill:black;font-family:-apple-system,&quot;SF Pro Display&quot;,&quot;SF Pro Text&quot;,Helvetica,sans-serif;text-anchor:middle;" transform="matrix(1 0 0 1 559.711 322)">Ultralight</text>
  <text style="stroke:none;fill:black;font-family:-apple-system,&quot;SF Pro Display&quot;,&quot;SF Pro Text&quot;,Helvetica,sans-serif;text-anchor:middle;" transform="matrix(1 0 0 1 856.422 322)">Thin</text>
  <text style="stroke:none;fill:black;font-family:-apple-system,&quot;SF Pro Display&quot;,&quot;SF Pro Text&quot;,Helvetica,sans-serif;text-anchor:middle;" transform="matrix(1 0 0 1 1153.13 322)">Light</text>
  <text style="stroke:none;fill:black;font-family:-apple-system,&quot;SF Pro Display&quot;,&quot;SF Pro Text&quot;,Helvetica,sans-serif;text-anchor:middle;" transform="matrix(1 0 0 1 1449.84 322)">Regular</text>
  <text style="stroke:none;fill:black;font-family:-apple-system,&quot;SF Pro Display&quot;,&quot;SF Pro Text&quot;,Helvetica,sans-serif;text-anchor:middle;" transform="matrix(1 0 0 1 1746.56 322)">Medium</text>
  <text style="stroke:none;fill:black;font-family:-apple-system,&quot;SF Pro Display&quot;,&quot;SF Pro Text&quot;,Helvetica,sans-serif;text-anchor:middle;" transform="matrix(1 0 0 1 2043.27 322)">Semibold</text>
  <text style="stroke:none;fill:black;font-family:-apple-system,&quot;SF Pro Display&quot;,&quot;SF Pro Text&quot;,Helvetica,sans-serif;text-anchor:middle;" transform="matrix(1 0 0 1 2339.98 322)">Bold</text>
  <text style="stroke:none;fill:black;font-family:-apple-system,&quot;SF Pro Display&quot;,&quot;SF Pro Text&quot;,Helvetica,sans-serif;text-anchor:middle;" transform="matrix(1 0 0 1 2636.69 322)">Heavy</text>
  <text style="stroke:none;fill:black;font-family:-apple-system,&quot;SF Pro Display&quot;,&quot;SF Pro Text&quot;,Helvetica,sans-serif;text-anchor:middle;" transform="matrix(1 0 0 1 2933.4 322)">Black</text>
  <line id="" style="fill:none;stroke:black;opacity:1;stroke-width:0.5;" x1="263" x2="3036" y1="1903" y2="1903"/>
  <g id="" transform="matrix(1 0 0 1 263 1933)">
   <path d="M9.24805 0.830078C13.5547 0.830078 17.1387-2.74414 17.1387-7.05078C17.1387-11.3574 13.5449-14.9316 9.23828-14.9316C4.94141-14.9316 1.36719-11.3574 1.36719-7.05078C1.36719-2.74414 4.95117 0.830078 9.24805 0.830078ZM9.24805-0.654297C5.70312-0.654297 2.87109-3.49609 2.87109-7.05078C2.87109-10.6055 5.69336-13.4473 9.23828-13.4473C12.793-13.4473 15.6348-10.6055 15.6445-7.05078C15.6543-3.49609 12.8027-0.654297 9.24805-0.654297ZM6.39648-6.31836L8.50586-6.31836L8.50586-4.19922C8.50586-3.75977 8.79883-3.45703 9.22852-3.45703C9.67773-3.45703 9.9707-3.75977 9.9707-4.19922L9.9707-6.31836L12.0996-6.31836C12.5391-6.31836 12.8418-6.61133 12.8418-7.04102C12.8418-7.48047 12.5391-7.7832 12.0996-7.7832L9.9707-7.7832L9.9707-9.89258C9.9707-10.3418 9.67773-10.6445 9.22852-10.6445C8.79883-10.6445 8.50586-10.3418 8.50586-9.89258L8.50586-7.7832L6.39648-7.7832C5.94727-7.7832 5.64453-7.48047 5.64453-7.04102C5.64453-6.61133 5.94727-6.31836 6.39648-6.31836Z"/>
  </g>
  <g id="" transform="matrix(1 0 0 1 281.506 1933)">
   <path d="M11.709 2.91016C17.1582 2.91016 21.6699-1.61133 21.6699-7.05078C21.6699-12.5 17.1484-17.0117 11.6992-17.0117C6.25977-17.0117 1.74805-12.5 1.74805-7.05078C1.74805-1.61133 6.26953 2.91016 11.709 2.91016ZM11.709 1.25C7.09961 1.25 3.41797-2.44141 3.41797-7.05078C3.41797-11.6602 7.08984-15.3516 11.6992-15.3516C16.3086-15.3516 20-11.6602 20.0098-7.05078C20.0195-2.44141 16.3184 1.25 11.709 1.25ZM7.98828-6.23047L10.8789-6.23047L10.8789-3.32031C10.8789-2.83203 11.2109-2.5 11.6895-2.5C12.1777-2.5 12.5195-2.83203 12.5195-3.32031L12.5195-6.23047L15.4297-6.23047C15.918-6.23047 16.25-6.5625 16.25-7.04102C16.25-7.5293 15.918-7.87109 15.4297-7.87109L12.5195-7.87109L12.5195-10.7617C12.5195-11.2695 12.1777-11.6016 11.6895-11.6016C11.2109-11.6016 10.8789-11.2598 10.8789-10.7617L10.8789-7.87109L7.98828-7.87109C7.48047-7.87109 7.14844-7.5293 7.14844-7.04102C7.14844-6.5625 7.49023-6.23047 7.98828-6.23047Z"/>
  </g>
  <g id="" transform="matrix(1 0 0 1 304.924 1933)">
   <path d="M14.9707 5.66406C21.9336 5.66406 27.6953-0.0976562 27.6953-7.05078C27.6953-14.0137 21.9238-19.7754 14.9609-19.7754C8.00781-19.7754 2.25586-14.0137 2.25586-7.05078C2.25586-0.0976562 8.01758 5.66406 14.9707 5.66406ZM14.9707 3.84766C8.93555 3.84766 4.08203-1.01562 4.08203-7.05078C4.08203-13.0957 8.92578-17.9492 14.9609-17.9492C21.0059-17.9492 25.8594-13.0957 25.8691-7.05078C25.8789-1.01562 21.0156 3.84766 14.9707 3.84766ZM10.0586-6.14258L14.0625-6.14258L14.0625-2.12891C14.0625-1.5918 14.4336-1.2207 14.9512-1.2207C15.4883-1.2207 15.8594-1.5918 15.8594-2.12891L15.8594-6.14258L19.8828-6.14258C20.4102-6.14258 20.791-6.51367 20.791-7.03125C20.791-7.56836 20.4199-7.94922 19.8828-7.94922L15.8594-7.94922L15.8594-11.9531C15.8594-12.5098 15.4883-12.8809 14.9512-12.8809C14.4336-12.8809 14.0625-12.5 14.0625-11.9531L14.0625-7.94922L10.0586-7.94922C9.50195-7.94922 9.13086-7.56836 9.13086-7.03125C9.13086-6.51367 9.51172-6.14258 10.0586-6.14258Z"/>
  </g>
  <text style="stroke:none;fill:black;font-family:-apple-system,&quot;SF Pro Display&quot;,&quot;SF Pro Text&quot;,Helvetica,sans-serif;font-weight:bold;" transform="matrix(1 0 0 1 263 1953)">Design Variations</text>
  <text style="stroke:none;fill:black;font-family:-apple-system,&quot;SF Pro Display&quot;,&quot;SF Pro Text&quot;,Helvetica,sans-serif;" transform="matrix(1 0 0 1 263 1971)">Symbols are supported in up to nine weights and three scales.</text>
  <text style="stroke:none;fill:black;font-family:-apple-system,&quot;SF Pro Display&quot;,&quot;SF Pro Text&quot;,Helvetica,sans-serif;" transform="matrix(1 0 0 1 263 1989)">For optimal layout with text and other symbols, vertically align</text>
  <text style="stroke:none;fill:black;font-family:-apple-system,&quot;SF Pro Display&quot;,&quot;SF Pro Text&quot;,Helvetica,sans-serif;" transform="matrix(1 0 0 1 263 2007)">symbols with the adjacent text.</text>
  <line id="" style="fill:none;stroke:#00AEEF;stroke-width:0.5;opacity:1.0;" x1="776" x2="776" y1="1919" y2="1933"/>
  <g id="" transform="matrix(1 0 0 1 776 1933)">
   <path d="M3.31055 0.126953C3.82812 0.126953 4.08203-0.0683594 4.26758-0.605469L5.52734-4.0625L11.2891-4.0625L12.5488-0.605469C12.7344-0.0683594 12.9883 0.126953 13.4961 0.126953C14.0137 0.126953 14.3457-0.185547 14.3457-0.673828C14.3457-0.839844 14.3164-0.986328 14.2383-1.20117L9.6582-13.3887C9.43359-13.9941 9.0332-14.2871 8.4082-14.2871C7.80273-14.2871 7.39258-13.9941 7.17773-13.3984L2.59766-1.19141C2.51953-0.976562 2.49023-0.830078 2.49023-0.664062C2.49023-0.175781 2.80273 0.126953 3.31055 0.126953ZM6.00586-5.53711L8.37891-12.1094L8.42773-12.1094L10.8008-5.53711Z"/>
  </g>
  <line id="" style="fill:none;stroke:#00AEEF;stroke-width:0.5;opacity:1.0;" x1="792.836" x2="792.836" y1="1919" y2="1933"/>
  <text style="stroke:none;fill:black;font-family:-apple-system,&quot;SF Pro Display&quot;,&quot;SF Pro Text&quot;,Helvetica,sans-serif;font-weight:bold;" transform="matrix(1 0 0 1 776 1953)">Margins</text>
  <text style="stroke:none;fill:black;font-family:-apple-system,&quot;SF Pro Display&quot;,&quot;SF Pro Text&quot;,Helvetica,sans-serif;" transform="matrix(1 0 0 1 776 1971)">Leading and trailing margins on the left and right side of each symbol</text>
  <text style="stroke:none;fill:black;font-family:-apple-system,&quot;SF Pro Display&quot;,&quot;SF Pro Text&quot;,Helvetica,sans-serif;" transform="matrix(1 0 0 1 776 1989)">can be adjusted by modifying the x-location of the margin guidelines.</text>
  <text style="stroke:none;fill:black;font-family:-apple-system,&quot;SF Pro Display&quot;,&quot;SF Pro Text&quot;,Helvetica,sans-serif;" transform="matrix(1 0 0 1 776 2007)">Modifications are automatically applied proportionally to all</text>
  <text style="stroke:none;fill:black;font-family:-apple-system,&quot;SF Pro Display&quot;,&quot;SF Pro Text&quot;,Helvetica,sans-serif;" transform="matrix(1 0 0 1 776 2025)">scales and weights.</text>
  <g id="" transform="matrix(1 0 0 1 1289 1933)">
   <path d="M2.8418 1.86523L4.54102 3.57422C5.40039 4.44336 6.38672 4.38477 7.31445 3.35938L17.4902-7.85156C17.7539-7.76367 18.0273-7.7832 18.3398-7.8418L19.4043-8.03711L20.0684-7.36328L20.0293-6.80664C19.9902-6.30859 20.1172-5.92773 20.6055-5.44922L21.3672-4.70703C21.8457-4.22852 22.4609-4.19922 22.9297-4.66797L25.8398-7.58789C26.3086-8.05664 26.2891-8.65234 25.8105-9.13086L25.0391-9.89258C24.5605-10.3711 24.1895-10.5273 23.7109-10.4883L23.1348-10.4395L22.4902-11.0742L22.7344-12.1973C22.8613-12.7637 22.7051-13.2031 22.1191-13.7891L19.9219-15.9766C16.582-19.2969 12.1484-19.2188 9.25781-16.3281C8.83789-15.918 8.80859-15.3418 9.04297-14.9512C9.27734-14.5898 9.73633-14.3555 10.3809-14.5215C11.8457-14.8633 13.3691-14.9219 14.7949-13.9844L14.209-12.5293C14.0137-12.0508 13.9844-11.6504 14.1113-11.2891L3.04688-0.898438C2.06055 0.0195312 1.98242 0.996094 2.8418 1.86523ZM10.752-15.957C13.1836-17.7344 16.4746-17.4316 18.7012-15.2051L21.1328-12.793C21.3672-12.5586 21.4062-12.373 21.3379-12.0312L21.0156-10.5469L22.5195-9.0625L23.5059-9.12109C23.7598-9.13086 23.8379-9.11133 24.0332-8.91602L24.6094-8.33984L22.168-5.89844L21.5918-6.47461C21.3965-6.66992 21.3672-6.74805 21.377-7.01172L21.4453-7.98828L19.9512-9.47266L18.4277-9.21875C18.1055-9.15039 17.959-9.17969 17.7148-9.41406L15.7129-11.416C15.459-11.6504 15.4297-11.8164 15.5859-12.1875L16.4648-14.2773C14.9023-15.7324 12.8711-16.3574 10.8398-15.7617C10.6836-15.7227 10.625-15.8496 10.752-15.957ZM5.27344 2.30469L4.10156 1.14258C3.63281 0.683594 3.74023 0.341797 4.14062-0.0195312L14.9512-10.1953L16.416-8.71094L6.42578 2.27539C6.07422 2.67578 5.74219 2.77344 5.27344 2.30469Z"/>
  </g>
  <text style="stroke:none;fill:black;font-family:-apple-system,&quot;SF Pro Display&quot;,&quot;SF Pro Text&quot;,Helvetica,sans-serif;font-weight:bold;" transform="matrix(1 0 0 1 1289 1953)">Exporting</text>
  <text style="stroke:none;fill:black;font-family:-apple-system,&quot;SF Pro Display&quot;,&quot;SF Pro Text&quot;,Helvetica,sans-serif;" transform="matrix(1 0 0 1 1289 1971)">Symbols should be outlined when exporting to ensure the</text>
  <text style="stroke:none;fill:black;font-family:-apple-system,&quot;SF Pro Display&quot;,&quot;SF Pro Text&quot;,Helvetica,sans-serif;" transform="matrix(1 0 0 1 1289 1989)">design is preserved when submitting to Xcode.</text>
  <text id="template-version" style="stroke:none;fill:black;font-family:-apple-system,&quot;SF Pro Display&quot;,&quot;SF Pro Text&quot;,Helvetica,sans-serif;text-anchor:end;" transform="matrix(1 0 0 1 3036 1933)">Template v.2.0</text>
  <text style="stroke:none;fill:black;font-family:-apple-system,&quot;SF Pro Display&quot;,&quot;SF Pro Text&quot;,Helvetica,sans-serif;text-anchor:end;" transform="matrix(1 0 0 1 3036 1951)">Requires Xcode 12 or greater</text>
  <text style="stroke:none;fill:black;font-family:-apple-system,&quot;SF Pro Display&quot;,&quot;SF Pro Text&quot;,Helvetica,sans-serif;" transform="matrix(1 0 0 1 263 726)">Small</text>
  <text style="stroke:none;fill:black;font-family:-apple-system,&quot;SF Pro Display&quot;,&quot;SF Pro Text&quot;,Helvetica,sans-serif;" transform="matrix(1 0 0 1 263 1156)">Medium</text>
  <text style="stroke:none;fill:black;font-family:-apple-system,&quot;SF Pro Display&quot;,&quot;SF Pro Text&quot;,Helvetica,sans-serif;" transform="matrix(1 0 0 1 263 1586)">Large</text>
 </g>
 <g id="Guides">
  <g id="H-reference" style="fill:#27AAE1;stroke:none;" transform="matrix(1 0 0 1 339 696)">
   <path d="M0.976562 0L3.66211 0L12.9883-24.4629L45.752-24.4629L55.127 0L57.7637 0L30.6152-70.459L28.125-70.459ZM29.3457-67.1387L29.4434-67.1387L44.873-26.709L13.8672-26.709Z"/>
  </g>
  <line id="Baseline-S" style="fill:none;stroke:#27AAE1;opacity:1;stroke-width:0.5;" x1="263" x2="3036" y1="696" y2="696"/>
  <line id="Capline-S" style="fill:none;stroke:#27AAE1;opacity:1;stroke-width:0.5;" x1="263" x2="3036" y1="625.541" y2="625.541"/>
  <g id="H-reference" style="fill:#27AAE1;stroke:none;" transform="matrix(1 0 0 1 339 1126)">
   <path d="M0.976562 0L3.66211 0L12.9883-24.4629L45.752-24.4629L55.127 0L57.7637 0L30.6152-70.459L28.125-70.459ZM29.3457-67.1387L29.4434-67.1387L44.873-26.709L13.8672-26.709Z"/>
  </g>
  <line id="Baseline-M" style="fill:none;stroke:#27AAE1;opacity:1;stroke-width:0.5;" x1="263" x2="3036" y1="1126" y2="1126"/>
  <line id="Capline-M" style="fill:none;stroke:#27AAE1;opacity:1;stroke-width:0.5;" x1="263" x2="3036" y1="1055.54" y2="1055.54"/>
  <g id="H-reference" style="fill:#27AAE1;stroke:none;" transform="matrix(1 0 0 1 339 1556)">
   <path d="M0.976562 0L3.66211 0L12.9883-24.4629L45.752-24.4629L55.127 0L57.7637 0L30.6152-70.459L28.125-70.459ZM29.3457-67.1387L29.4434-67.1387L44.873-26.709L13.8672-26.709Z"/>
  </g>
  <line id="Baseline-L" style="fill:none;stroke:#27AAE1;opacity:1;stroke-width:0.5;" x1="263" x2="3036" y1="1556" y2="1556"/>
  <line id="Capline-L" style="fill:none;stroke:#27AAE1;opacity:1;stroke-width:0.5;" x1="263" x2="3036" y1="1485.54" y2="1485.54"/>
  <line id="left-margin" x1="1406.5892389787946" x2="1406.5892389787946" y1="1030.79" y2="1150.12" style="fill:none;stroke:#00AEEF;stroke-width:0.5;opacity:1.0;"/>
  <line id="right-margin" x1="1495.6707610212052" x2="1495.6707610212052" y1="1030.79" y2="1150.12" style="fill:none;stroke:#00AEEF;stroke-width:0.5;opacity:1.0;"/>
 </g>
 <g id="Symbols">
  <g id="Black-L" transform="matrix(1.0,0.0,0.0,1.0,2880.576815708705,1466.6668352399554)">  <path fill="#000000" stroke-linecap="square" fill-opacity="1" stroke="none" stroke-miterlimit="4" stroke-dasharray="none" fill-rule="nonzero" stroke-linejoin="miter" stroke-opacity="1" stroke-width="1px" d="M34.279,106.834L84.775,59.944L91.066,54.103L84.775,48.262L34.279,1.373L28.438,-4.052L17.59,7.631L23.431,13.055L73.927,59.944L73.927,48.262L23.431,95.151L17.59,100.575L28.438,112.258L34.279,106.834Z"/>
</g>
  <g id="Heavy-L" transform="matrix(1.0,0.0,0.0,1.0,2583.866815708705,1466.6668352399554)">  <path fill-opacity="1" fill="#000000" stroke-width="1px" stroke-miterlimit="4" stroke-linecap="square" stroke-opacity="1" stroke-dasharray="none" stroke="none" stroke-linejoin="miter" fill-rule="nonzero" d="M33.685,106.194L84.181,59.305L89.783,54.103L84.181,48.902L33.685,2.012L28.483,-2.818L18.823,7.585L24.025,12.415L74.521,59.305L74.521,48.902L24.025,95.791L18.823,100.621L28.483,111.024L33.685,106.194Z"/>
</g>
  <g id="Bold-L" transform="matrix(1.0,0.0,0.0,1.0,2287.156815708705,1466.6668352399554)">  <path stroke="none" stroke-dasharray="none" stroke-width="1px" stroke-linejoin="miter" stroke-opacity="1" stroke-miterlimit="4" stroke-linecap="square" fill-opacity="1" fill="#000000" fill-rule="nonzero" d="M33.091,105.555L83.587,58.665L88.5,54.103L83.587,49.541L33.091,2.652L28.529,-1.584L20.057,7.54L24.619,11.776L75.115,58.665L75.115,49.541L24.619,96.431L20.057,100.667L28.529,109.791L33.091,105.555Z"/>
</g>
  <g id="Semibold-L" transform="matrix(1.0,0.0,0.0,1.0,1990.4468157087053,1466.6668352399554)">  <path stroke-dasharray="none" fill-rule="nonzero" stroke="none" stroke-linejoin="miter" stroke-opacity="1" fill-opacity="1" stroke-miterlimit="4" stroke-width="1px" fill="#000000" stroke-linecap="square" d="M32.497,104.915L82.994,58.026L87.218,54.103L82.994,50.181L32.497,3.291L28.575,-0.351L21.29,7.494L25.213,11.136L75.709,58.026L75.709,50.181L25.213,97.07L21.29,100.712L28.575,108.557L32.497,104.915Z"/>
</g>
  <g id="Medium-L" transform="matrix(1.0,0.0,0.0,1.0,1693.7368157087053,1466.6668352399554)">  <path stroke-dasharray="none" stroke-width="1px" stroke="none" fill-rule="nonzero" fill-opacity="1" stroke-miterlimit="4" stroke-linecap="square" fill="#000000" stroke-linejoin="miter" stroke-opacity="1" d="M31.903,104.275L82.4,57.386L85.935,54.103L82.4,50.82L31.903,3.931L28.621,0.883L22.524,7.448L25.807,10.496L76.303,57.386L76.303,50.82L25.807,97.71L22.524,100.758L28.621,107.324L31.903,104.275Z"/>
</g>
  <g id="Regular-L" transform="matrix(1.0,0.0,0.0,1.0,1397.0268157087053,1466.6668352399554)">  <path stroke-dasharray="none" fill-opacity="1" fill="#000000" stroke-width="1px" stroke-linecap="square" stroke-miterlimit="4" stroke="none" stroke-linejoin="miter" stroke-opacity="1" fill-rule="nonzero" d="M31.309,103.636L81.806,56.746L84.652,54.103L81.806,51.46L31.309,4.571L28.666,2.116L23.758,7.403L26.401,9.857L76.897,56.746L76.897,51.46L26.401,98.35L23.758,100.804L28.666,106.09L31.309,103.636Z"/>
</g>
  <g id="Light-L" transform="matrix(1.0,0.0,0.0,1.0,1100.3168157087055,1466.6668352399554)">  <path stroke-width="1px" fill="#000000" stroke-dasharray="none" stroke-linecap="square" stroke-opacity="1" stroke-linejoin="miter" stroke="none" stroke-miterlimit="4" fill-rule="nonzero" fill-opacity="1" d="M30.9,103.195L81.397,56.306L83.769,54.103L81.397,51.901L30.9,5.011L28.698,2.966L24.607,7.371L26.81,9.416L77.306,56.306L77.306,51.901L26.81,98.79L24.607,100.835L28.698,105.24L30.9,103.195Z"/>
</g>
  <g id="Thin-L" transform="matrix(1.0,0.0,0.0,1.0,803.6068157087054,1466.6668352399554)">  <path fill-rule="nonzero" stroke-linejoin="miter" stroke-width="1px" stroke-miterlimit="4" fill-opacity="1" stroke-opacity="1" stroke-dasharray="none" stroke="none" fill="#000000" stroke-linecap="square" d="M30.491,102.755L80.988,55.865L82.885,54.103L80.988,52.341L30.491,5.452L28.729,3.815L25.457,7.34L27.219,8.976L77.715,55.865L77.715,52.341L27.219,99.231L25.457,100.867L28.729,104.391L30.491,102.755Z"/>
</g>
  <g id="Ultralight-L" transform="matrix(1.0,0.0,0.0,1.0,506.89681570870533,1466.6668352399554)">  <path stroke-dasharray="none" stroke="none" fill-opacity="1" stroke-miterlimit="4" stroke-width="1px" fill="#000000" stroke-linejoin="miter" stroke-linecap="square" fill-rule="nonzero" stroke-opacity="1" d="M30.082,102.314L80.578,55.425L82.002,54.103L80.578,52.782L30.082,5.892L28.761,4.665L26.306,7.308L27.628,8.535L78.124,55.425L78.124,52.782L27.628,99.671L26.306,100.898L28.761,103.541L30.082,102.314Z"/>
</g>
  <g id="Black-M" transform="matrix(1.0,0.0,0.0,1.0,2892.7395470610118,1048.829566592262)">  <path fill="#000000" stroke-linecap="square" fill-opacity="1" stroke="none" stroke-miterlimit="4" stroke-dasharray="none" fill-rule="nonzero" stroke-linejoin="miter" stroke-opacity="1" stroke-width="1px" d="M26.573,82.817L65.717,46.469L70.594,41.94L65.717,37.412L26.573,1.064L22.045,-3.141L13.635,5.915L18.164,10.12L57.308,46.469L57.308,37.412L18.164,73.761L13.635,77.965L22.045,87.022L26.573,82.817Z"/>
</g>
  <g id="Heavy-M" transform="matrix(1.0,0.0,0.0,1.0,2596.0295470610117,1048.829566592262)">  <path fill-opacity="1" fill="#000000" stroke-width="1px" stroke-miterlimit="4" stroke-linecap="square" stroke-opacity="1" stroke-dasharray="none" stroke="none" stroke-linejoin="miter" fill-rule="nonzero" d="M26.112,82.321L65.257,45.973L69.599,41.94L65.257,37.908L26.112,1.56L22.08,-2.184L14.592,5.88L18.624,9.624L57.768,45.973L57.768,37.908L18.624,74.257L14.592,78.001L22.08,86.065L26.112,82.321Z"/>
</g>
  <g id="Bold-M" transform="matrix(1.0,0.0,0.0,1.0,2299.3195470610117,1048.829566592262)">  <path stroke="none" stroke-dasharray="none" stroke-width="1px" stroke-linejoin="miter" stroke-opacity="1" stroke-miterlimit="4" stroke-linecap="square" fill-opacity="1" fill="#000000" fill-rule="nonzero" d="M25.652,81.825L64.796,45.477L68.605,41.94L64.796,38.404L25.652,2.056L22.116,-1.228L15.548,5.845L19.084,9.128L58.229,45.477L58.229,38.404L19.084,74.752L15.548,78.036L22.116,85.109L25.652,81.825Z"/>
</g>
  <g id="Semibold-M" transform="matrix(1.0,0.0,0.0,1.0,2002.6095470610119,1048.829566592262)">  <path stroke-dasharray="none" fill-rule="nonzero" stroke="none" stroke-linejoin="miter" stroke-opacity="1" fill-opacity="1" stroke-miterlimit="4" stroke-width="1px" fill="#000000" stroke-linecap="square" d="M25.192,81.329L64.336,44.981L67.611,41.94L64.336,38.9L25.192,2.551L22.151,-0.272L16.504,5.809L19.545,8.633L58.689,44.981L58.689,38.9L19.545,75.248L16.504,78.072L22.151,84.153L25.192,81.329Z"/>
</g>
  <g id="Medium-M" transform="matrix(1.0,0.0,0.0,1.0,1705.8995470610118,1048.829566592262)">  <path stroke-dasharray="none" stroke-width="1px" stroke="none" fill-rule="nonzero" fill-opacity="1" stroke-miterlimit="4" stroke-linecap="square" fill="#000000" stroke-linejoin="miter" stroke-opacity="1" d="M24.731,80.834L63.876,44.485L66.616,41.94L63.876,39.396L24.731,3.047L22.186,0.684L17.461,5.774L20.005,8.137L59.15,44.485L59.15,39.396L20.005,75.744L17.461,78.107L22.186,83.197L24.731,80.834Z"/>
</g>
  <g id="Regular-M" transform="matrix(1.0,0.0,0.0,1.0,1409.1895470610118,1048.829566592262)">  <path stroke-dasharray="none" fill-opacity="1" fill="#000000" stroke-width="1px" stroke-linecap="square" stroke-miterlimit="4" stroke="none" stroke-linejoin="miter" stroke-opacity="1" fill-rule="nonzero" d="M24.271,80.338L63.415,43.989L65.622,41.94L63.415,39.892L24.271,3.543L22.222,1.641L18.417,5.738L20.466,7.641L59.61,43.989L59.61,39.892L20.466,76.24L18.417,78.142L22.222,82.24L24.271,80.338Z"/>
</g>
  <g id="Light-M" transform="matrix(1.0,0.0,0.0,1.0,1112.479547061012,1048.829566592262)">  <path stroke-width="1px" fill="#000000" stroke-dasharray="none" stroke-linecap="square" stroke-opacity="1" stroke-linejoin="miter" stroke="none" stroke-miterlimit="4" fill-rule="nonzero" fill-opacity="1" d="M23.954,79.996L63.098,43.648L64.937,41.94L63.098,40.233L23.954,3.885L22.246,2.299L19.075,5.714L20.783,7.299L59.927,43.648L59.927,40.233L20.783,76.581L19.075,78.167L22.246,81.582L23.954,79.996Z"/>
</g>
  <g id="Thin-M" transform="matrix(1.0,0.0,0.0,1.0,815.769547061012,1048.829566592262)">  <path fill-rule="nonzero" stroke-linejoin="miter" stroke-width="1px" stroke-miterlimit="4" fill-opacity="1" stroke-opacity="1" stroke-dasharray="none" stroke="none" fill="#000000" stroke-linecap="square" d="M23.637,79.655L62.781,43.306L64.252,41.94L62.781,40.575L23.637,4.226L22.271,2.958L19.734,5.69L21.1,6.958L60.244,43.306L60.244,40.575L21.1,76.923L19.734,78.191L22.271,80.923L23.637,79.655Z"/>
</g>
  <g id="Ultralight-M" transform="matrix(1.0,0.0,0.0,1.0,519.0595470610119,1048.829566592262)">  <path stroke-dasharray="none" stroke="none" fill-opacity="1" stroke-miterlimit="4" stroke-width="1px" fill="#000000" stroke-linejoin="miter" stroke-linecap="square" fill-rule="nonzero" stroke-opacity="1" d="M23.32,79.313L62.464,42.965L63.567,41.94L62.464,40.916L23.32,4.568L22.295,3.616L20.393,5.665L21.417,6.617L60.561,42.965L60.561,40.916L21.417,77.264L20.393,78.216L22.295,80.265L23.32,79.313Z"/>
</g>
  <g id="Black-S" transform="matrix(1.0,0.0,0.0,1.0,2901.840625348772,627.9306448800223)">  <path fill="#000000" stroke-linecap="square" fill-opacity="1" stroke="none" stroke-miterlimit="4" stroke-dasharray="none" fill-rule="nonzero" stroke-linejoin="miter" stroke-opacity="1" stroke-width="1px" d="M20.807,64.846L51.457,36.385L55.275,32.839L51.457,29.294L20.807,0.833L17.261,-2.459L10.677,4.632L14.222,7.924L44.872,36.385L44.872,29.294L14.222,57.755L10.677,61.047L17.261,68.138L20.807,64.846Z"/>
</g>
  <g id="Heavy-S" transform="matrix(1.0,0.0,0.0,1.0,2605.130625348772,627.9306448800223)">  <path fill-opacity="1" fill="#000000" stroke-width="1px" stroke-miterlimit="4" stroke-linecap="square" stroke-opacity="1" stroke-dasharray="none" stroke="none" stroke-linejoin="miter" fill-rule="nonzero" d="M20.446,64.457L51.096,35.997L54.496,32.839L51.096,29.682L20.446,1.221L17.289,-1.71L11.425,4.604L14.583,7.536L45.233,35.997L45.233,29.682L14.583,58.143L11.425,61.075L17.289,67.389L20.446,64.457Z"/>
</g>
  <g id="Bold-S" transform="matrix(1.0,0.0,0.0,1.0,2308.420625348772,627.9306448800223)">  <path stroke="none" stroke-dasharray="none" stroke-width="1px" stroke-linejoin="miter" stroke-opacity="1" stroke-miterlimit="4" stroke-linecap="square" fill-opacity="1" fill="#000000" fill-rule="nonzero" d="M20.086,64.069L50.736,35.608L53.718,32.839L50.736,30.07L20.086,1.61L17.317,-0.962L12.174,4.576L14.943,7.148L45.593,35.608L45.593,30.07L14.943,58.531L12.174,61.102L17.317,66.64L20.086,64.069Z"/>
</g>
  <g id="Semibold-S" transform="matrix(1.0,0.0,0.0,1.0,2011.7106253487723,627.9306448800223)">  <path stroke-dasharray="none" fill-rule="nonzero" stroke="none" stroke-linejoin="miter" stroke-opacity="1" fill-opacity="1" stroke-miterlimit="4" stroke-width="1px" fill="#000000" stroke-linecap="square" d="M19.725,63.681L50.375,35.22L52.939,32.839L50.375,30.459L19.725,1.998L17.344,-0.213L12.923,4.549L15.304,6.759L45.954,35.22L45.954,30.459L15.304,58.919L12.923,61.13L17.344,65.892L19.725,63.681Z"/>
</g>
  <g id="Medium-S" transform="matrix(1.0,0.0,0.0,1.0,1715.0006253487722,627.9306448800223)">  <path stroke-dasharray="none" stroke-width="1px" stroke="none" fill-rule="nonzero" fill-opacity="1" stroke-miterlimit="4" stroke-linecap="square" fill="#000000" stroke-linejoin="miter" stroke-opacity="1" d="M19.365,63.293L50.015,34.832L52.16,32.839L50.015,30.847L19.365,2.386L17.372,0.536L13.672,4.521L15.664,6.371L46.314,34.832L46.314,30.847L15.664,59.308L13.672,61.158L17.372,65.143L19.365,63.293Z"/>
</g>
  <g id="Regular-S" transform="matrix(1.0,0.0,0.0,1.0,1418.2906253487722,627.9306448800223)">  <path stroke-dasharray="none" fill-opacity="1" fill="#000000" stroke-width="1px" stroke-linecap="square" stroke-miterlimit="4" stroke="none" stroke-linejoin="miter" stroke-opacity="1" fill-rule="nonzero" d="M19.004,62.904L49.654,34.444L51.382,32.839L49.654,31.235L19.004,2.774L17.4,1.285L14.42,4.493L16.025,5.983L46.675,34.444L46.675,31.235L16.025,59.696L14.42,61.186L17.4,64.394L19.004,62.904Z"/>
</g>
  <g id="Light-S" transform="matrix(1.0,0.0,0.0,1.0,1121.5806253487724,627.9306448800223)">  <path stroke-width="1px" fill="#000000" stroke-dasharray="none" stroke-linecap="square" stroke-opacity="1" stroke-linejoin="miter" stroke="none" stroke-miterlimit="4" fill-rule="nonzero" fill-opacity="1" d="M18.756,62.637L49.406,34.176L50.846,32.839L49.406,31.502L18.756,3.042L17.419,1.8L14.936,4.474L16.273,5.715L46.923,34.176L46.923,31.502L16.273,59.963L14.936,61.205L17.419,63.879L18.756,62.637Z"/>
</g>
  <g id="Thin-S" transform="matrix(1.0,0.0,0.0,1.0,824.8706253487724,627.9306448800223)">  <path fill-rule="nonzero" stroke-linejoin="miter" stroke-width="1px" stroke-miterlimit="4" fill-opacity="1" stroke-opacity="1" stroke-dasharray="none" stroke="none" fill="#000000" stroke-linecap="square" d="M18.507,62.37L49.158,33.909L50.309,32.839L49.158,31.77L18.507,3.309L17.438,2.316L15.452,4.455L16.521,5.448L47.171,33.909L47.171,31.77L16.521,60.231L15.452,61.224L17.438,63.363L18.507,62.37Z"/>
</g>
  <g id="Ultralight-S" transform="matrix(1.0,0.0,0.0,1.0,528.1606253487723,627.9306448800223)">  <path stroke-dasharray="none" stroke="none" fill-opacity="1" stroke-miterlimit="4" stroke-width="1px" fill="#000000" stroke-linejoin="miter" stroke-linecap="square" fill-rule="nonzero" stroke-opacity="1" d="M18.259,62.102L48.909,33.642L49.773,32.839L48.909,32.037L18.259,3.576L17.457,2.832L15.967,4.436L16.769,5.181L47.42,33.642L47.42,32.037L16.769,60.498L15.967,61.243L17.457,62.847L18.259,62.102Z"/>
</g>
 </g>
</svg>
