<?xml version="1.0" encoding="UTF-8"?>
<!-- Generator: CustomSymbols v2.6.2.41 by @serious_bret https://bretlester.com/app_content/CustomSymbols/ -->
<!-- Guides: Left/Right -0.031/-0.031 Cap/Base 0.08/0.08 -->
<!-- Settings: RefScale 1.0 Min/Max Stroke Scales 0.5/2.21 -->
<!DOCTYPE svg
PUBLIC "-//W3C//DTD SVG 1.1//EN"
       "http://www.w3.org/Graphics/SVG/1.1/DTD/svg11.dtd">
<svg version="1.1" xmlns="http://www.w3.org/2000/svg" xmlns:xlink="http://www.w3.org/1999/xlink" width="3300" height="2200">
<![CDATA[<svg width="15" height="15" viewBox="0 0 15 15" fill="none" xmlns="http://www.w3.org/2000/svg">
<path d="M14 5L7.5 12L1 5" stroke="#1D1929" stroke-linecap="square"/>
</svg>
]]>
 <g id="Notes">
  <rect height="2200" id="artboard" style="fill:white;opacity:1" width="3300" x="0" y="0"/>
  <line id="" style="fill:none;stroke:black;opacity:1;stroke-width:0.5;" x1="263" x2="3036" y1="292" y2="292"/>
  <text id="reftext1" style="stroke:none;fill:black;font-family:-apple-system,&quot;SF Pro Display&quot;,&quot;SF Pro Text&quot;,Helvetica,sans-serif;font-weight:bold;" transform="matrix(1 0 0 1 263 322)">Weight/Scale Variations</text>
  <text id="reftext2" style="stroke:none;fill:black;font-family:-apple-system,&quot;SF Pro Display&quot;,&quot;SF Pro Text&quot;,Helvetica,sans-serif;text-anchor:middle;" transform="matrix(1 0 0 1 559.711 322)">Ultralight</text>
  <text style="stroke:none;fill:black;font-family:-apple-system,&quot;SF Pro Display&quot;,&quot;SF Pro Text&quot;,Helvetica,sans-serif;text-anchor:middle;" transform="matrix(1 0 0 1 856.422 322)">Thin</text>
  <text style="stroke:none;fill:black;font-family:-apple-system,&quot;SF Pro Display&quot;,&quot;SF Pro Text&quot;,Helvetica,sans-serif;text-anchor:middle;" transform="matrix(1 0 0 1 1153.13 322)">Light</text>
  <text style="stroke:none;fill:black;font-family:-apple-system,&quot;SF Pro Display&quot;,&quot;SF Pro Text&quot;,Helvetica,sans-serif;text-anchor:middle;" transform="matrix(1 0 0 1 1449.84 322)">Regular</text>
  <text style="stroke:none;fill:black;font-family:-apple-system,&quot;SF Pro Display&quot;,&quot;SF Pro Text&quot;,Helvetica,sans-serif;text-anchor:middle;" transform="matrix(1 0 0 1 1746.56 322)">Medium</text>
  <text style="stroke:none;fill:black;font-family:-apple-system,&quot;SF Pro Display&quot;,&quot;SF Pro Text&quot;,Helvetica,sans-serif;text-anchor:middle;" transform="matrix(1 0 0 1 2043.27 322)">Semibold</text>
  <text style="stroke:none;fill:black;font-family:-apple-system,&quot;SF Pro Display&quot;,&quot;SF Pro Text&quot;,Helvetica,sans-serif;text-anchor:middle;" transform="matrix(1 0 0 1 2339.98 322)">Bold</text>
  <text style="stroke:none;fill:black;font-family:-apple-system,&quot;SF Pro Display&quot;,&quot;SF Pro Text&quot;,Helvetica,sans-serif;text-anchor:middle;" transform="matrix(1 0 0 1 2636.69 322)">Heavy</text>
  <text style="stroke:none;fill:black;font-family:-apple-system,&quot;SF Pro Display&quot;,&quot;SF Pro Text&quot;,Helvetica,sans-serif;text-anchor:middle;" transform="matrix(1 0 0 1 2933.4 322)">Black</text>
  <line id="" style="fill:none;stroke:black;opacity:1;stroke-width:0.5;" x1="263" x2="3036" y1="1903" y2="1903"/>
  <g id="" transform="matrix(1 0 0 1 263 1933)">
   <path d="M9.24805 0.830078C13.5547 0.830078 17.1387-2.74414 17.1387-7.05078C17.1387-11.3574 13.5449-14.9316 9.23828-14.9316C4.94141-14.9316 1.36719-11.3574 1.36719-7.05078C1.36719-2.74414 4.95117 0.830078 9.24805 0.830078ZM9.24805-0.654297C5.70312-0.654297 2.87109-3.49609 2.87109-7.05078C2.87109-10.6055 5.69336-13.4473 9.23828-13.4473C12.793-13.4473 15.6348-10.6055 15.6445-7.05078C15.6543-3.49609 12.8027-0.654297 9.24805-0.654297ZM6.39648-6.31836L8.50586-6.31836L8.50586-4.19922C8.50586-3.75977 8.79883-3.45703 9.22852-3.45703C9.67773-3.45703 9.9707-3.75977 9.9707-4.19922L9.9707-6.31836L12.0996-6.31836C12.5391-6.31836 12.8418-6.61133 12.8418-7.04102C12.8418-7.48047 12.5391-7.7832 12.0996-7.7832L9.9707-7.7832L9.9707-9.89258C9.9707-10.3418 9.67773-10.6445 9.22852-10.6445C8.79883-10.6445 8.50586-10.3418 8.50586-9.89258L8.50586-7.7832L6.39648-7.7832C5.94727-7.7832 5.64453-7.48047 5.64453-7.04102C5.64453-6.61133 5.94727-6.31836 6.39648-6.31836Z"/>
  </g>
  <g id="" transform="matrix(1 0 0 1 281.506 1933)">
   <path d="M11.709 2.91016C17.1582 2.91016 21.6699-1.61133 21.6699-7.05078C21.6699-12.5 17.1484-17.0117 11.6992-17.0117C6.25977-17.0117 1.74805-12.5 1.74805-7.05078C1.74805-1.61133 6.26953 2.91016 11.709 2.91016ZM11.709 1.25C7.09961 1.25 3.41797-2.44141 3.41797-7.05078C3.41797-11.6602 7.08984-15.3516 11.6992-15.3516C16.3086-15.3516 20-11.6602 20.0098-7.05078C20.0195-2.44141 16.3184 1.25 11.709 1.25ZM7.98828-6.23047L10.8789-6.23047L10.8789-3.32031C10.8789-2.83203 11.2109-2.5 11.6895-2.5C12.1777-2.5 12.5195-2.83203 12.5195-3.32031L12.5195-6.23047L15.4297-6.23047C15.918-6.23047 16.25-6.5625 16.25-7.04102C16.25-7.5293 15.918-7.87109 15.4297-7.87109L12.5195-7.87109L12.5195-10.7617C12.5195-11.2695 12.1777-11.6016 11.6895-11.6016C11.2109-11.6016 10.8789-11.2598 10.8789-10.7617L10.8789-7.87109L7.98828-7.87109C7.48047-7.87109 7.14844-7.5293 7.14844-7.04102C7.14844-6.5625 7.49023-6.23047 7.98828-6.23047Z"/>
  </g>
  <g id="" transform="matrix(1 0 0 1 304.924 1933)">
   <path d="M14.9707 5.66406C21.9336 5.66406 27.6953-0.0976562 27.6953-7.05078C27.6953-14.0137 21.9238-19.7754 14.9609-19.7754C8.00781-19.7754 2.25586-14.0137 2.25586-7.05078C2.25586-0.0976562 8.01758 5.66406 14.9707 5.66406ZM14.9707 3.84766C8.93555 3.84766 4.08203-1.01562 4.08203-7.05078C4.08203-13.0957 8.92578-17.9492 14.9609-17.9492C21.0059-17.9492 25.8594-13.0957 25.8691-7.05078C25.8789-1.01562 21.0156 3.84766 14.9707 3.84766ZM10.0586-6.14258L14.0625-6.14258L14.0625-2.12891C14.0625-1.5918 14.4336-1.2207 14.9512-1.2207C15.4883-1.2207 15.8594-1.5918 15.8594-2.12891L15.8594-6.14258L19.8828-6.14258C20.4102-6.14258 20.791-6.51367 20.791-7.03125C20.791-7.56836 20.4199-7.94922 19.8828-7.94922L15.8594-7.94922L15.8594-11.9531C15.8594-12.5098 15.4883-12.8809 14.9512-12.8809C14.4336-12.8809 14.0625-12.5 14.0625-11.9531L14.0625-7.94922L10.0586-7.94922C9.50195-7.94922 9.13086-7.56836 9.13086-7.03125C9.13086-6.51367 9.51172-6.14258 10.0586-6.14258Z"/>
  </g>
  <text style="stroke:none;fill:black;font-family:-apple-system,&quot;SF Pro Display&quot;,&quot;SF Pro Text&quot;,Helvetica,sans-serif;font-weight:bold;" transform="matrix(1 0 0 1 263 1953)">Design Variations</text>
  <text style="stroke:none;fill:black;font-family:-apple-system,&quot;SF Pro Display&quot;,&quot;SF Pro Text&quot;,Helvetica,sans-serif;" transform="matrix(1 0 0 1 263 1971)">Symbols are supported in up to nine weights and three scales.</text>
  <text style="stroke:none;fill:black;font-family:-apple-system,&quot;SF Pro Display&quot;,&quot;SF Pro Text&quot;,Helvetica,sans-serif;" transform="matrix(1 0 0 1 263 1989)">For optimal layout with text and other symbols, vertically align</text>
  <text style="stroke:none;fill:black;font-family:-apple-system,&quot;SF Pro Display&quot;,&quot;SF Pro Text&quot;,Helvetica,sans-serif;" transform="matrix(1 0 0 1 263 2007)">symbols with the adjacent text.</text>
  <line id="" style="fill:none;stroke:#00AEEF;stroke-width:0.5;opacity:1.0;" x1="776" x2="776" y1="1919" y2="1933"/>
  <g id="" transform="matrix(1 0 0 1 776 1933)">
   <path d="M3.31055 0.126953C3.82812 0.126953 4.08203-0.0683594 4.26758-0.605469L5.52734-4.0625L11.2891-4.0625L12.5488-0.605469C12.7344-0.0683594 12.9883 0.126953 13.4961 0.126953C14.0137 0.126953 14.3457-0.185547 14.3457-0.673828C14.3457-0.839844 14.3164-0.986328 14.2383-1.20117L9.6582-13.3887C9.43359-13.9941 9.0332-14.2871 8.4082-14.2871C7.80273-14.2871 7.39258-13.9941 7.17773-13.3984L2.59766-1.19141C2.51953-0.976562 2.49023-0.830078 2.49023-0.664062C2.49023-0.175781 2.80273 0.126953 3.31055 0.126953ZM6.00586-5.53711L8.37891-12.1094L8.42773-12.1094L10.8008-5.53711Z"/>
  </g>
  <line id="" style="fill:none;stroke:#00AEEF;stroke-width:0.5;opacity:1.0;" x1="792.836" x2="792.836" y1="1919" y2="1933"/>
  <text style="stroke:none;fill:black;font-family:-apple-system,&quot;SF Pro Display&quot;,&quot;SF Pro Text&quot;,Helvetica,sans-serif;font-weight:bold;" transform="matrix(1 0 0 1 776 1953)">Margins</text>
  <text style="stroke:none;fill:black;font-family:-apple-system,&quot;SF Pro Display&quot;,&quot;SF Pro Text&quot;,Helvetica,sans-serif;" transform="matrix(1 0 0 1 776 1971)">Leading and trailing margins on the left and right side of each symbol</text>
  <text style="stroke:none;fill:black;font-family:-apple-system,&quot;SF Pro Display&quot;,&quot;SF Pro Text&quot;,Helvetica,sans-serif;" transform="matrix(1 0 0 1 776 1989)">can be adjusted by modifying the x-location of the margin guidelines.</text>
  <text style="stroke:none;fill:black;font-family:-apple-system,&quot;SF Pro Display&quot;,&quot;SF Pro Text&quot;,Helvetica,sans-serif;" transform="matrix(1 0 0 1 776 2007)">Modifications are automatically applied proportionally to all</text>
  <text style="stroke:none;fill:black;font-family:-apple-system,&quot;SF Pro Display&quot;,&quot;SF Pro Text&quot;,Helvetica,sans-serif;" transform="matrix(1 0 0 1 776 2025)">scales and weights.</text>
  <g id="" transform="matrix(1 0 0 1 1289 1933)">
   <path d="M2.8418 1.86523L4.54102 3.57422C5.40039 4.44336 6.38672 4.38477 7.31445 3.35938L17.4902-7.85156C17.7539-7.76367 18.0273-7.7832 18.3398-7.8418L19.4043-8.03711L20.0684-7.36328L20.0293-6.80664C19.9902-6.30859 20.1172-5.92773 20.6055-5.44922L21.3672-4.70703C21.8457-4.22852 22.4609-4.19922 22.9297-4.66797L25.8398-7.58789C26.3086-8.05664 26.2891-8.65234 25.8105-9.13086L25.0391-9.89258C24.5605-10.3711 24.1895-10.5273 23.7109-10.4883L23.1348-10.4395L22.4902-11.0742L22.7344-12.1973C22.8613-12.7637 22.7051-13.2031 22.1191-13.7891L19.9219-15.9766C16.582-19.2969 12.1484-19.2188 9.25781-16.3281C8.83789-15.918 8.80859-15.3418 9.04297-14.9512C9.27734-14.5898 9.73633-14.3555 10.3809-14.5215C11.8457-14.8633 13.3691-14.9219 14.7949-13.9844L14.209-12.5293C14.0137-12.0508 13.9844-11.6504 14.1113-11.2891L3.04688-0.898438C2.06055 0.0195312 1.98242 0.996094 2.8418 1.86523ZM10.752-15.957C13.1836-17.7344 16.4746-17.4316 18.7012-15.2051L21.1328-12.793C21.3672-12.5586 21.4062-12.373 21.3379-12.0312L21.0156-10.5469L22.5195-9.0625L23.5059-9.12109C23.7598-9.13086 23.8379-9.11133 24.0332-8.91602L24.6094-8.33984L22.168-5.89844L21.5918-6.47461C21.3965-6.66992 21.3672-6.74805 21.377-7.01172L21.4453-7.98828L19.9512-9.47266L18.4277-9.21875C18.1055-9.15039 17.959-9.17969 17.7148-9.41406L15.7129-11.416C15.459-11.6504 15.4297-11.8164 15.5859-12.1875L16.4648-14.2773C14.9023-15.7324 12.8711-16.3574 10.8398-15.7617C10.6836-15.7227 10.625-15.8496 10.752-15.957ZM5.27344 2.30469L4.10156 1.14258C3.63281 0.683594 3.74023 0.341797 4.14062-0.0195312L14.9512-10.1953L16.416-8.71094L6.42578 2.27539C6.07422 2.67578 5.74219 2.77344 5.27344 2.30469Z"/>
  </g>
  <text style="stroke:none;fill:black;font-family:-apple-system,&quot;SF Pro Display&quot;,&quot;SF Pro Text&quot;,Helvetica,sans-serif;font-weight:bold;" transform="matrix(1 0 0 1 1289 1953)">Exporting</text>
  <text style="stroke:none;fill:black;font-family:-apple-system,&quot;SF Pro Display&quot;,&quot;SF Pro Text&quot;,Helvetica,sans-serif;" transform="matrix(1 0 0 1 1289 1971)">Symbols should be outlined when exporting to ensure the</text>
  <text style="stroke:none;fill:black;font-family:-apple-system,&quot;SF Pro Display&quot;,&quot;SF Pro Text&quot;,Helvetica,sans-serif;" transform="matrix(1 0 0 1 1289 1989)">design is preserved when submitting to Xcode.</text>
  <text id="template-version" style="stroke:none;fill:black;font-family:-apple-system,&quot;SF Pro Display&quot;,&quot;SF Pro Text&quot;,Helvetica,sans-serif;text-anchor:end;" transform="matrix(1 0 0 1 3036 1933)">Template v.2.0</text>
  <text style="stroke:none;fill:black;font-family:-apple-system,&quot;SF Pro Display&quot;,&quot;SF Pro Text&quot;,Helvetica,sans-serif;text-anchor:end;" transform="matrix(1 0 0 1 3036 1951)">Requires Xcode 12 or greater</text>
  <text style="stroke:none;fill:black;font-family:-apple-system,&quot;SF Pro Display&quot;,&quot;SF Pro Text&quot;,Helvetica,sans-serif;" transform="matrix(1 0 0 1 263 726)">Small</text>
  <text style="stroke:none;fill:black;font-family:-apple-system,&quot;SF Pro Display&quot;,&quot;SF Pro Text&quot;,Helvetica,sans-serif;" transform="matrix(1 0 0 1 263 1156)">Medium</text>
  <text style="stroke:none;fill:black;font-family:-apple-system,&quot;SF Pro Display&quot;,&quot;SF Pro Text&quot;,Helvetica,sans-serif;" transform="matrix(1 0 0 1 263 1586)">Large</text>
 </g>
 <g id="Guides">
  <g id="H-reference" style="fill:#27AAE1;stroke:none;" transform="matrix(1 0 0 1 339 696)">
   <path d="M0.976562 0L3.66211 0L12.9883-24.4629L45.752-24.4629L55.127 0L57.7637 0L30.6152-70.459L28.125-70.459ZM29.3457-67.1387L29.4434-67.1387L44.873-26.709L13.8672-26.709Z"/>
  </g>
  <line id="Baseline-S" style="fill:none;stroke:#27AAE1;opacity:1;stroke-width:0.5;" x1="263" x2="3036" y1="696" y2="696"/>
  <line id="Capline-S" style="fill:none;stroke:#27AAE1;opacity:1;stroke-width:0.5;" x1="263" x2="3036" y1="625.541" y2="625.541"/>
  <g id="H-reference" style="fill:#27AAE1;stroke:none;" transform="matrix(1 0 0 1 339 1126)">
   <path d="M0.976562 0L3.66211 0L12.9883-24.4629L45.752-24.4629L55.127 0L57.7637 0L30.6152-70.459L28.125-70.459ZM29.3457-67.1387L29.4434-67.1387L44.873-26.709L13.8672-26.709Z"/>
  </g>
  <line id="Baseline-M" style="fill:none;stroke:#27AAE1;opacity:1;stroke-width:0.5;" x1="263" x2="3036" y1="1126" y2="1126"/>
  <line id="Capline-M" style="fill:none;stroke:#27AAE1;opacity:1;stroke-width:0.5;" x1="263" x2="3036" y1="1055.54" y2="1055.54"/>
  <g id="H-reference" style="fill:#27AAE1;stroke:none;" transform="matrix(1 0 0 1 339 1556)">
   <path d="M0.976562 0L3.66211 0L12.9883-24.4629L45.752-24.4629L55.127 0L57.7637 0L30.6152-70.459L28.125-70.459ZM29.3457-67.1387L29.4434-67.1387L44.873-26.709L13.8672-26.709Z"/>
  </g>
  <line id="Baseline-L" style="fill:none;stroke:#27AAE1;opacity:1;stroke-width:0.5;" x1="263" x2="3036" y1="1556" y2="1556"/>
  <line id="Capline-L" style="fill:none;stroke:#27AAE1;opacity:1;stroke-width:0.5;" x1="263" x2="3036" y1="1485.54" y2="1485.54"/>
  <line id="left-margin" x1="1406.5892389787946" x2="1406.5892389787946" y1="1030.79" y2="1150.12" style="fill:none;stroke:#00AEEF;stroke-width:0.5;opacity:1.0;"/>
  <line id="right-margin" x1="1495.6707610212052" x2="1495.6707610212052" y1="1030.79" y2="1150.12" style="fill:none;stroke:#00AEEF;stroke-width:0.5;opacity:1.0;"/>
 </g>
 <g id="Symbols">
  <g id="Black-L" transform="matrix(1.0,0.0,0.0,1.0,2880.576815708705,1466.6668352399554)">  <path stroke="none" stroke-linejoin="miter" fill-rule="nonzero" stroke-miterlimit="4" fill-opacity="1" stroke-opacity="1" stroke-linecap="square" stroke-dasharray="none" stroke-width="1px" fill="#000000" d="M95.151,30.645L48.262,81.141L59.944,81.141L13.055,30.645L7.631,24.804L-4.052,35.652L1.373,41.493L48.262,91.989L54.103,98.28L59.944,91.989L106.834,41.493L112.258,35.652L100.575,24.804L95.151,30.645Z"/>
</g>
  <g id="Heavy-L" transform="matrix(1.0,0.0,0.0,1.0,2583.866815708705,1466.6668352399554)">  <path stroke="none" stroke-linecap="square" fill-opacity="1" stroke-miterlimit="4" stroke-dasharray="none" fill-rule="nonzero" stroke-linejoin="miter" fill="#000000" stroke-opacity="1" stroke-width="1px" d="M95.791,31.239L48.902,81.735L59.305,81.735L12.415,31.239L7.585,26.037L-2.818,35.697L2.012,40.899L48.902,91.395L54.103,96.997L59.305,91.395L106.194,40.899L111.024,35.697L100.621,26.037L95.791,31.239Z"/>
</g>
  <g id="Bold-L" transform="matrix(1.0,0.0,0.0,1.0,2287.156815708705,1466.6668352399554)">  <path stroke="none" fill-rule="nonzero" stroke-linejoin="miter" stroke-width="1px" fill-opacity="1" stroke-dasharray="none" stroke-opacity="1" fill="#000000" stroke-linecap="square" stroke-miterlimit="4" d="M96.431,31.833L49.541,82.329L58.665,82.329L11.776,31.833L7.54,27.271L-1.584,35.743L2.652,40.305L49.541,90.801L54.103,95.714L58.665,90.801L105.555,40.305L109.791,35.743L100.667,27.271L96.431,31.833Z"/>
</g>
  <g id="Semibold-L" transform="matrix(1.0,0.0,0.0,1.0,1990.4468157087053,1466.6668352399554)">  <path stroke-dasharray="none" fill-opacity="1" fill="#000000" stroke-width="1px" stroke-linecap="square" stroke-miterlimit="4" stroke="none" stroke-linejoin="miter" stroke-opacity="1" fill-rule="nonzero" d="M97.07,32.427L50.181,82.923L58.026,82.923L11.136,32.427L7.494,28.504L-0.351,35.789L3.291,39.711L50.181,90.207L54.103,94.431L58.026,90.207L104.915,39.711L108.557,35.789L100.712,28.504L97.07,32.427Z"/>
</g>
  <g id="Medium-L" transform="matrix(1.0,0.0,0.0,1.0,1693.7368157087053,1466.6668352399554)">  <path stroke-width="1px" fill="#000000" stroke-dasharray="none" stroke-linecap="square" stroke-opacity="1" stroke-linejoin="miter" stroke="none" stroke-miterlimit="4" fill-rule="nonzero" fill-opacity="1" d="M97.71,33.021L50.82,83.517L57.386,83.517L10.496,33.021L7.448,29.738L0.883,35.834L3.931,39.117L50.82,89.613L54.103,93.149L57.386,89.613L104.275,39.117L107.324,35.834L100.758,29.738L97.71,33.021Z"/>
</g>
  <g id="Regular-L" transform="matrix(1.0,0.0,0.0,1.0,1397.0268157087053,1466.6668352399554)">  <path stroke-width="1px" stroke-linecap="square" fill-rule="nonzero" stroke-miterlimit="4" stroke-dasharray="none" stroke-opacity="1" fill-opacity="1" stroke="none" fill="#000000" stroke-linejoin="miter" d="M98.35,33.614L51.46,84.111L56.746,84.111L9.857,33.614L7.403,30.971L2.116,35.88L4.571,38.523L51.46,89.019L54.103,91.866L56.746,89.019L103.636,38.523L106.09,35.88L100.804,30.971L98.35,33.614Z"/>
</g>
  <g id="Light-L" transform="matrix(1.0,0.0,0.0,1.0,1100.3168157087055,1466.6668352399554)">  <path stroke-width="1px" fill-rule="nonzero" stroke="none" stroke-miterlimit="4" stroke-linejoin="miter" stroke-opacity="1" fill-opacity="1" stroke-dasharray="none" fill="#000000" stroke-linecap="square" d="M98.79,34.024L51.901,84.52L56.306,84.52L9.416,34.024L7.371,31.821L2.966,35.911L5.011,38.114L51.901,88.61L54.103,90.982L56.306,88.61L103.195,38.114L105.24,35.911L100.835,31.821L98.79,34.024Z"/>
</g>
  <g id="Thin-L" transform="matrix(1.0,0.0,0.0,1.0,803.6068157087054,1466.6668352399554)">  <path stroke-dasharray="none" stroke="none" fill-opacity="1" stroke-miterlimit="4" stroke-width="1px" fill="#000000" stroke-linejoin="miter" stroke-linecap="square" fill-rule="nonzero" stroke-opacity="1" d="M99.231,34.433L52.341,84.929L55.865,84.929L8.976,34.433L7.34,32.671L3.815,35.943L5.452,37.705L52.341,88.201L54.103,90.099L55.865,88.201L102.755,37.705L104.391,35.943L100.867,32.671L99.231,34.433Z"/>
</g>
  <g id="Ultralight-L" transform="matrix(1.0,0.0,0.0,1.0,506.89681570870533,1466.6668352399554)">  <path fill-opacity="1" stroke-dasharray="none" stroke-linecap="square" fill-rule="nonzero" stroke-opacity="1" fill="#000000" stroke="none" stroke-width="1px" stroke-miterlimit="4" stroke-linejoin="miter" d="M99.671,34.842L52.782,85.338L55.425,85.338L8.535,34.842L7.308,33.52L4.665,35.974L5.892,37.296L52.782,87.792L54.103,89.215L55.425,87.792L102.314,37.296L103.541,35.974L100.898,33.52L99.671,34.842Z"/>
</g>
  <g id="Black-M" transform="matrix(1.0,0.0,0.0,1.0,2892.7395470610118,1048.829566592262)">  <path stroke="none" stroke-linejoin="miter" fill-rule="nonzero" stroke-miterlimit="4" fill-opacity="1" stroke-opacity="1" stroke-linecap="square" stroke-dasharray="none" stroke-width="1px" fill="#000000" d="M73.761,23.756L37.412,62.9L46.469,62.9L10.12,23.756L5.915,19.228L-3.141,27.637L1.064,32.165L37.412,71.309L41.94,76.186L46.469,71.309L82.817,32.165L87.022,27.637L77.965,19.228L73.761,23.756Z"/>
</g>
  <g id="Heavy-M" transform="matrix(1.0,0.0,0.0,1.0,2596.0295470610117,1048.829566592262)">  <path stroke="none" stroke-linecap="square" fill-opacity="1" stroke-miterlimit="4" stroke-dasharray="none" fill-rule="nonzero" stroke-linejoin="miter" fill="#000000" stroke-opacity="1" stroke-width="1px" d="M74.257,24.216L37.908,63.36L45.973,63.36L9.624,24.216L5.88,20.184L-2.184,27.672L1.56,31.705L37.908,70.849L41.94,75.191L45.973,70.849L82.321,31.705L86.065,27.672L78.001,20.184L74.257,24.216Z"/>
</g>
  <g id="Bold-M" transform="matrix(1.0,0.0,0.0,1.0,2299.3195470610117,1048.829566592262)">  <path stroke="none" fill-rule="nonzero" stroke-linejoin="miter" stroke-width="1px" fill-opacity="1" stroke-dasharray="none" stroke-opacity="1" fill="#000000" stroke-linecap="square" stroke-miterlimit="4" d="M74.752,24.676L38.404,63.821L45.477,63.821L9.128,24.676L5.845,21.14L-1.228,27.708L2.056,31.244L38.404,70.389L41.94,74.197L45.477,70.389L81.825,31.244L85.109,27.708L78.036,21.14L74.752,24.676Z"/>
</g>
  <g id="Semibold-M" transform="matrix(1.0,0.0,0.0,1.0,2002.6095470610119,1048.829566592262)">  <path stroke-dasharray="none" fill-opacity="1" fill="#000000" stroke-width="1px" stroke-linecap="square" stroke-miterlimit="4" stroke="none" stroke-linejoin="miter" stroke-opacity="1" fill-rule="nonzero" d="M75.248,25.137L38.9,64.281L44.981,64.281L8.633,25.137L5.809,22.096L-0.272,27.743L2.551,30.784L38.9,69.928L41.94,73.203L44.981,69.928L81.329,30.784L84.153,27.743L78.072,22.096L75.248,25.137Z"/>
</g>
  <g id="Medium-M" transform="matrix(1.0,0.0,0.0,1.0,1705.8995470610118,1048.829566592262)">  <path stroke-width="1px" fill="#000000" stroke-dasharray="none" stroke-linecap="square" stroke-opacity="1" stroke-linejoin="miter" stroke="none" stroke-miterlimit="4" fill-rule="nonzero" fill-opacity="1" d="M75.744,25.597L39.396,64.742L44.485,64.742L8.137,25.597L5.774,23.053L0.684,27.779L3.047,30.323L39.396,69.468L41.94,72.208L44.485,69.468L80.834,30.323L83.197,27.779L78.107,23.053L75.744,25.597Z"/>
</g>
  <g id="Regular-M" transform="matrix(1.0,0.0,0.0,1.0,1409.1895470610118,1048.829566592262)">  <path stroke-width="1px" stroke-linecap="square" fill-rule="nonzero" stroke-miterlimit="4" stroke-dasharray="none" stroke-opacity="1" fill-opacity="1" stroke="none" fill="#000000" stroke-linejoin="miter" d="M76.24,26.058L39.892,65.202L43.989,65.202L7.641,26.058L5.738,24.009L1.641,27.814L3.543,29.863L39.892,69.007L41.94,71.214L43.989,69.007L80.338,29.863L82.24,27.814L78.142,24.009L76.24,26.058Z"/>
</g>
  <g id="Light-M" transform="matrix(1.0,0.0,0.0,1.0,1112.479547061012,1048.829566592262)">  <path stroke-width="1px" fill-rule="nonzero" stroke="none" stroke-miterlimit="4" stroke-linejoin="miter" stroke-opacity="1" fill-opacity="1" stroke-dasharray="none" fill="#000000" stroke-linecap="square" d="M76.581,26.375L40.233,65.519L43.648,65.519L7.299,26.375L5.714,24.667L2.299,27.838L3.885,29.546L40.233,68.69L41.94,70.529L43.648,68.69L79.996,29.546L81.582,27.838L78.167,24.667L76.581,26.375Z"/>
</g>
  <g id="Thin-M" transform="matrix(1.0,0.0,0.0,1.0,815.769547061012,1048.829566592262)">  <path stroke-dasharray="none" stroke="none" fill-opacity="1" stroke-miterlimit="4" stroke-width="1px" fill="#000000" stroke-linejoin="miter" stroke-linecap="square" fill-rule="nonzero" stroke-opacity="1" d="M76.923,26.692L40.575,65.836L43.306,65.836L6.958,26.692L5.69,25.326L2.958,27.863L4.226,29.229L40.575,68.373L41.94,69.844L43.306,68.373L79.655,29.229L80.923,27.863L78.191,25.326L76.923,26.692Z"/>
</g>
  <g id="Ultralight-M" transform="matrix(1.0,0.0,0.0,1.0,519.0595470610119,1048.829566592262)">  <path fill-opacity="1" stroke-dasharray="none" stroke-linecap="square" fill-rule="nonzero" stroke-opacity="1" fill="#000000" stroke="none" stroke-width="1px" stroke-miterlimit="4" stroke-linejoin="miter" d="M77.264,27.009L40.916,66.153L42.965,66.153L6.617,27.009L5.665,25.985L3.616,27.887L4.568,28.912L40.916,68.056L41.94,69.159L42.965,68.056L79.313,28.912L80.265,27.887L78.216,25.985L77.264,27.009Z"/>
</g>
  <g id="Black-S" transform="matrix(1.0,0.0,0.0,1.0,2901.840625348772,627.9306448800223)">  <path stroke="none" stroke-linejoin="miter" fill-rule="nonzero" stroke-miterlimit="4" fill-opacity="1" stroke-opacity="1" stroke-linecap="square" stroke-dasharray="none" stroke-width="1px" fill="#000000" d="M57.755,18.601L29.294,49.251L36.385,49.251L7.924,18.601L4.632,15.055L-2.459,21.64L0.833,25.185L29.294,55.835L32.839,59.653L36.385,55.835L64.846,25.185L68.138,21.64L61.047,15.055L57.755,18.601Z"/>
</g>
  <g id="Heavy-S" transform="matrix(1.0,0.0,0.0,1.0,2605.130625348772,627.9306448800223)">  <path stroke="none" stroke-linecap="square" fill-opacity="1" stroke-miterlimit="4" stroke-dasharray="none" fill-rule="nonzero" stroke-linejoin="miter" fill="#000000" stroke-opacity="1" stroke-width="1px" d="M58.143,18.961L29.682,49.611L35.997,49.611L7.536,18.961L4.604,15.804L-1.71,21.667L1.221,24.825L29.682,55.475L32.839,58.875L35.997,55.475L64.457,24.825L67.389,21.667L61.075,15.804L58.143,18.961Z"/>
</g>
  <g id="Bold-S" transform="matrix(1.0,0.0,0.0,1.0,2308.420625348772,627.9306448800223)">  <path stroke="none" fill-rule="nonzero" stroke-linejoin="miter" stroke-width="1px" fill-opacity="1" stroke-dasharray="none" stroke-opacity="1" fill="#000000" stroke-linecap="square" stroke-miterlimit="4" d="M58.531,19.322L30.07,49.972L35.608,49.972L7.148,19.322L4.576,16.553L-0.962,21.695L1.61,24.464L30.07,55.114L32.839,58.096L35.608,55.114L64.069,24.464L66.64,21.695L61.102,16.553L58.531,19.322Z"/>
</g>
  <g id="Semibold-S" transform="matrix(1.0,0.0,0.0,1.0,2011.7106253487723,627.9306448800223)">  <path stroke-dasharray="none" fill-opacity="1" fill="#000000" stroke-width="1px" stroke-linecap="square" stroke-miterlimit="4" stroke="none" stroke-linejoin="miter" stroke-opacity="1" fill-rule="nonzero" d="M58.919,19.682L30.459,50.332L35.22,50.332L6.759,19.682L4.549,17.301L-0.213,21.723L1.998,24.104L30.459,54.754L32.839,57.318L35.22,54.754L63.681,24.104L65.892,21.723L61.13,17.301L58.919,19.682Z"/>
</g>
  <g id="Medium-S" transform="matrix(1.0,0.0,0.0,1.0,1715.0006253487722,627.9306448800223)">  <path stroke-width="1px" fill="#000000" stroke-dasharray="none" stroke-linecap="square" stroke-opacity="1" stroke-linejoin="miter" stroke="none" stroke-miterlimit="4" fill-rule="nonzero" fill-opacity="1" d="M59.308,20.043L30.847,50.693L34.832,50.693L6.371,20.043L4.521,18.05L0.536,21.751L2.386,23.743L30.847,54.393L32.839,56.539L34.832,54.393L63.293,23.743L65.143,21.751L61.158,18.05L59.308,20.043Z"/>
</g>
  <g id="Regular-S" transform="matrix(1.0,0.0,0.0,1.0,1418.2906253487722,627.9306448800223)">  <path stroke-width="1px" stroke-linecap="square" fill-rule="nonzero" stroke-miterlimit="4" stroke-dasharray="none" stroke-opacity="1" fill-opacity="1" stroke="none" fill="#000000" stroke-linejoin="miter" d="M59.696,20.403L31.235,51.053L34.444,51.053L5.983,20.403L4.493,18.799L1.285,21.778L2.774,23.383L31.235,54.033L32.839,55.76L34.444,54.033L62.904,23.383L64.394,21.778L61.186,18.799L59.696,20.403Z"/>
</g>
  <g id="Light-S" transform="matrix(1.0,0.0,0.0,1.0,1121.5806253487724,627.9306448800223)">  <path stroke-width="1px" fill-rule="nonzero" stroke="none" stroke-miterlimit="4" stroke-linejoin="miter" stroke-opacity="1" fill-opacity="1" stroke-dasharray="none" fill="#000000" stroke-linecap="square" d="M59.963,20.651L31.502,51.302L34.176,51.302L5.715,20.651L4.474,19.315L1.8,21.797L3.042,23.134L31.502,53.784L32.839,55.224L34.176,53.784L62.637,23.134L63.879,21.797L61.205,19.315L59.963,20.651Z"/>
</g>
  <g id="Thin-S" transform="matrix(1.0,0.0,0.0,1.0,824.8706253487724,627.9306448800223)">  <path stroke-dasharray="none" stroke="none" fill-opacity="1" stroke-miterlimit="4" stroke-width="1px" fill="#000000" stroke-linejoin="miter" stroke-linecap="square" fill-rule="nonzero" stroke-opacity="1" d="M60.231,20.9L31.77,51.55L33.909,51.55L5.448,20.9L4.455,19.83L2.316,21.817L3.309,22.886L31.77,53.536L32.839,54.688L33.909,53.536L62.37,22.886L63.363,21.817L61.224,19.83L60.231,20.9Z"/>
</g>
  <g id="Ultralight-S" transform="matrix(1.0,0.0,0.0,1.0,528.1606253487723,627.9306448800223)">  <path fill-opacity="1" stroke-dasharray="none" stroke-linecap="square" fill-rule="nonzero" stroke-opacity="1" fill="#000000" stroke="none" stroke-width="1px" stroke-miterlimit="4" stroke-linejoin="miter" d="M60.498,21.148L32.037,51.798L33.642,51.798L5.181,21.148L4.436,20.346L2.832,21.836L3.576,22.638L32.037,53.288L32.839,54.152L33.642,53.288L62.102,22.638L62.847,21.836L61.243,20.346L60.498,21.148Z"/>
</g>
 </g>
</svg>
