<?xml version="1.0" encoding="UTF-8"?>
<!-- Generator: CustomSymbols v2.6.2.41 by @serious_bret https://bretlester.com/app_content/CustomSymbols/ -->
<!-- Guides: Left/Right -0.031/-0.031 Cap/Base 0.08/0.08 -->
<!-- Settings: RefScale 1.0 Min/Max Stroke Scales 0.5/2.21 -->
<!DOCTYPE svg
PUBLIC "-//W3C//DTD SVG 1.1//EN"
       "http://www.w3.org/Graphics/SVG/1.1/DTD/svg11.dtd">
<svg version="1.1" xmlns="http://www.w3.org/2000/svg" xmlns:xlink="http://www.w3.org/1999/xlink" width="3300" height="2200">
<![CDATA[<svg width="15" height="15" viewBox="0 0 15 15" fill="none" xmlns="http://www.w3.org/2000/svg">
<path d="M3.5 0V5M11.5 0V5M3 7.5H6M12 7.5H9M3 10.5H6M9 10.5H12M1.5 2.5H13.5C14.0523 2.5 14.5 2.94772 14.5 3.5V13.5C14.5 14.0523 14.0523 14.5 13.5 14.5H1.5C0.947716 14.5 0.5 14.0523 0.5 13.5V3.5C0.5 2.94772 0.947715 2.5 1.5 2.5Z" stroke="#1D1929"/>
</svg>
]]>
 <g id="Notes">
  <rect height="2200" id="artboard" style="fill:white;opacity:1" width="3300" x="0" y="0"/>
  <line id="" style="fill:none;stroke:black;opacity:1;stroke-width:0.5;" x1="263" x2="3036" y1="292" y2="292"/>
  <text id="reftext1" style="stroke:none;fill:black;font-family:-apple-system,&quot;SF Pro Display&quot;,&quot;SF Pro Text&quot;,Helvetica,sans-serif;font-weight:bold;" transform="matrix(1 0 0 1 263 322)">Weight/Scale Variations</text>
  <text id="reftext2" style="stroke:none;fill:black;font-family:-apple-system,&quot;SF Pro Display&quot;,&quot;SF Pro Text&quot;,Helvetica,sans-serif;text-anchor:middle;" transform="matrix(1 0 0 1 559.711 322)">Ultralight</text>
  <text style="stroke:none;fill:black;font-family:-apple-system,&quot;SF Pro Display&quot;,&quot;SF Pro Text&quot;,Helvetica,sans-serif;text-anchor:middle;" transform="matrix(1 0 0 1 856.422 322)">Thin</text>
  <text style="stroke:none;fill:black;font-family:-apple-system,&quot;SF Pro Display&quot;,&quot;SF Pro Text&quot;,Helvetica,sans-serif;text-anchor:middle;" transform="matrix(1 0 0 1 1153.13 322)">Light</text>
  <text style="stroke:none;fill:black;font-family:-apple-system,&quot;SF Pro Display&quot;,&quot;SF Pro Text&quot;,Helvetica,sans-serif;text-anchor:middle;" transform="matrix(1 0 0 1 1449.84 322)">Regular</text>
  <text style="stroke:none;fill:black;font-family:-apple-system,&quot;SF Pro Display&quot;,&quot;SF Pro Text&quot;,Helvetica,sans-serif;text-anchor:middle;" transform="matrix(1 0 0 1 1746.56 322)">Medium</text>
  <text style="stroke:none;fill:black;font-family:-apple-system,&quot;SF Pro Display&quot;,&quot;SF Pro Text&quot;,Helvetica,sans-serif;text-anchor:middle;" transform="matrix(1 0 0 1 2043.27 322)">Semibold</text>
  <text style="stroke:none;fill:black;font-family:-apple-system,&quot;SF Pro Display&quot;,&quot;SF Pro Text&quot;,Helvetica,sans-serif;text-anchor:middle;" transform="matrix(1 0 0 1 2339.98 322)">Bold</text>
  <text style="stroke:none;fill:black;font-family:-apple-system,&quot;SF Pro Display&quot;,&quot;SF Pro Text&quot;,Helvetica,sans-serif;text-anchor:middle;" transform="matrix(1 0 0 1 2636.69 322)">Heavy</text>
  <text style="stroke:none;fill:black;font-family:-apple-system,&quot;SF Pro Display&quot;,&quot;SF Pro Text&quot;,Helvetica,sans-serif;text-anchor:middle;" transform="matrix(1 0 0 1 2933.4 322)">Black</text>
  <line id="" style="fill:none;stroke:black;opacity:1;stroke-width:0.5;" x1="263" x2="3036" y1="1903" y2="1903"/>
  <g id="" transform="matrix(1 0 0 1 263 1933)">
   <path d="M9.24805 0.830078C13.5547 0.830078 17.1387-2.74414 17.1387-7.05078C17.1387-11.3574 13.5449-14.9316 9.23828-14.9316C4.94141-14.9316 1.36719-11.3574 1.36719-7.05078C1.36719-2.74414 4.95117 0.830078 9.24805 0.830078ZM9.24805-0.654297C5.70312-0.654297 2.87109-3.49609 2.87109-7.05078C2.87109-10.6055 5.69336-13.4473 9.23828-13.4473C12.793-13.4473 15.6348-10.6055 15.6445-7.05078C15.6543-3.49609 12.8027-0.654297 9.24805-0.654297ZM6.39648-6.31836L8.50586-6.31836L8.50586-4.19922C8.50586-3.75977 8.79883-3.45703 9.22852-3.45703C9.67773-3.45703 9.9707-3.75977 9.9707-4.19922L9.9707-6.31836L12.0996-6.31836C12.5391-6.31836 12.8418-6.61133 12.8418-7.04102C12.8418-7.48047 12.5391-7.7832 12.0996-7.7832L9.9707-7.7832L9.9707-9.89258C9.9707-10.3418 9.67773-10.6445 9.22852-10.6445C8.79883-10.6445 8.50586-10.3418 8.50586-9.89258L8.50586-7.7832L6.39648-7.7832C5.94727-7.7832 5.64453-7.48047 5.64453-7.04102C5.64453-6.61133 5.94727-6.31836 6.39648-6.31836Z"/>
  </g>
  <g id="" transform="matrix(1 0 0 1 281.506 1933)">
   <path d="M11.709 2.91016C17.1582 2.91016 21.6699-1.61133 21.6699-7.05078C21.6699-12.5 17.1484-17.0117 11.6992-17.0117C6.25977-17.0117 1.74805-12.5 1.74805-7.05078C1.74805-1.61133 6.26953 2.91016 11.709 2.91016ZM11.709 1.25C7.09961 1.25 3.41797-2.44141 3.41797-7.05078C3.41797-11.6602 7.08984-15.3516 11.6992-15.3516C16.3086-15.3516 20-11.6602 20.0098-7.05078C20.0195-2.44141 16.3184 1.25 11.709 1.25ZM7.98828-6.23047L10.8789-6.23047L10.8789-3.32031C10.8789-2.83203 11.2109-2.5 11.6895-2.5C12.1777-2.5 12.5195-2.83203 12.5195-3.32031L12.5195-6.23047L15.4297-6.23047C15.918-6.23047 16.25-6.5625 16.25-7.04102C16.25-7.5293 15.918-7.87109 15.4297-7.87109L12.5195-7.87109L12.5195-10.7617C12.5195-11.2695 12.1777-11.6016 11.6895-11.6016C11.2109-11.6016 10.8789-11.2598 10.8789-10.7617L10.8789-7.87109L7.98828-7.87109C7.48047-7.87109 7.14844-7.5293 7.14844-7.04102C7.14844-6.5625 7.49023-6.23047 7.98828-6.23047Z"/>
  </g>
  <g id="" transform="matrix(1 0 0 1 304.924 1933)">
   <path d="M14.9707 5.66406C21.9336 5.66406 27.6953-0.0976562 27.6953-7.05078C27.6953-14.0137 21.9238-19.7754 14.9609-19.7754C8.00781-19.7754 2.25586-14.0137 2.25586-7.05078C2.25586-0.0976562 8.01758 5.66406 14.9707 5.66406ZM14.9707 3.84766C8.93555 3.84766 4.08203-1.01562 4.08203-7.05078C4.08203-13.0957 8.92578-17.9492 14.9609-17.9492C21.0059-17.9492 25.8594-13.0957 25.8691-7.05078C25.8789-1.01562 21.0156 3.84766 14.9707 3.84766ZM10.0586-6.14258L14.0625-6.14258L14.0625-2.12891C14.0625-1.5918 14.4336-1.2207 14.9512-1.2207C15.4883-1.2207 15.8594-1.5918 15.8594-2.12891L15.8594-6.14258L19.8828-6.14258C20.4102-6.14258 20.791-6.51367 20.791-7.03125C20.791-7.56836 20.4199-7.94922 19.8828-7.94922L15.8594-7.94922L15.8594-11.9531C15.8594-12.5098 15.4883-12.8809 14.9512-12.8809C14.4336-12.8809 14.0625-12.5 14.0625-11.9531L14.0625-7.94922L10.0586-7.94922C9.50195-7.94922 9.13086-7.56836 9.13086-7.03125C9.13086-6.51367 9.51172-6.14258 10.0586-6.14258Z"/>
  </g>
  <text style="stroke:none;fill:black;font-family:-apple-system,&quot;SF Pro Display&quot;,&quot;SF Pro Text&quot;,Helvetica,sans-serif;font-weight:bold;" transform="matrix(1 0 0 1 263 1953)">Design Variations</text>
  <text style="stroke:none;fill:black;font-family:-apple-system,&quot;SF Pro Display&quot;,&quot;SF Pro Text&quot;,Helvetica,sans-serif;" transform="matrix(1 0 0 1 263 1971)">Symbols are supported in up to nine weights and three scales.</text>
  <text style="stroke:none;fill:black;font-family:-apple-system,&quot;SF Pro Display&quot;,&quot;SF Pro Text&quot;,Helvetica,sans-serif;" transform="matrix(1 0 0 1 263 1989)">For optimal layout with text and other symbols, vertically align</text>
  <text style="stroke:none;fill:black;font-family:-apple-system,&quot;SF Pro Display&quot;,&quot;SF Pro Text&quot;,Helvetica,sans-serif;" transform="matrix(1 0 0 1 263 2007)">symbols with the adjacent text.</text>
  <line id="" style="fill:none;stroke:#00AEEF;stroke-width:0.5;opacity:1.0;" x1="776" x2="776" y1="1919" y2="1933"/>
  <g id="" transform="matrix(1 0 0 1 776 1933)">
   <path d="M3.31055 0.126953C3.82812 0.126953 4.08203-0.0683594 4.26758-0.605469L5.52734-4.0625L11.2891-4.0625L12.5488-0.605469C12.7344-0.0683594 12.9883 0.126953 13.4961 0.126953C14.0137 0.126953 14.3457-0.185547 14.3457-0.673828C14.3457-0.839844 14.3164-0.986328 14.2383-1.20117L9.6582-13.3887C9.43359-13.9941 9.0332-14.2871 8.4082-14.2871C7.80273-14.2871 7.39258-13.9941 7.17773-13.3984L2.59766-1.19141C2.51953-0.976562 2.49023-0.830078 2.49023-0.664062C2.49023-0.175781 2.80273 0.126953 3.31055 0.126953ZM6.00586-5.53711L8.37891-12.1094L8.42773-12.1094L10.8008-5.53711Z"/>
  </g>
  <line id="" style="fill:none;stroke:#00AEEF;stroke-width:0.5;opacity:1.0;" x1="792.836" x2="792.836" y1="1919" y2="1933"/>
  <text style="stroke:none;fill:black;font-family:-apple-system,&quot;SF Pro Display&quot;,&quot;SF Pro Text&quot;,Helvetica,sans-serif;font-weight:bold;" transform="matrix(1 0 0 1 776 1953)">Margins</text>
  <text style="stroke:none;fill:black;font-family:-apple-system,&quot;SF Pro Display&quot;,&quot;SF Pro Text&quot;,Helvetica,sans-serif;" transform="matrix(1 0 0 1 776 1971)">Leading and trailing margins on the left and right side of each symbol</text>
  <text style="stroke:none;fill:black;font-family:-apple-system,&quot;SF Pro Display&quot;,&quot;SF Pro Text&quot;,Helvetica,sans-serif;" transform="matrix(1 0 0 1 776 1989)">can be adjusted by modifying the x-location of the margin guidelines.</text>
  <text style="stroke:none;fill:black;font-family:-apple-system,&quot;SF Pro Display&quot;,&quot;SF Pro Text&quot;,Helvetica,sans-serif;" transform="matrix(1 0 0 1 776 2007)">Modifications are automatically applied proportionally to all</text>
  <text style="stroke:none;fill:black;font-family:-apple-system,&quot;SF Pro Display&quot;,&quot;SF Pro Text&quot;,Helvetica,sans-serif;" transform="matrix(1 0 0 1 776 2025)">scales and weights.</text>
  <g id="" transform="matrix(1 0 0 1 1289 1933)">
   <path d="M2.8418 1.86523L4.54102 3.57422C5.40039 4.44336 6.38672 4.38477 7.31445 3.35938L17.4902-7.85156C17.7539-7.76367 18.0273-7.7832 18.3398-7.8418L19.4043-8.03711L20.0684-7.36328L20.0293-6.80664C19.9902-6.30859 20.1172-5.92773 20.6055-5.44922L21.3672-4.70703C21.8457-4.22852 22.4609-4.19922 22.9297-4.66797L25.8398-7.58789C26.3086-8.05664 26.2891-8.65234 25.8105-9.13086L25.0391-9.89258C24.5605-10.3711 24.1895-10.5273 23.7109-10.4883L23.1348-10.4395L22.4902-11.0742L22.7344-12.1973C22.8613-12.7637 22.7051-13.2031 22.1191-13.7891L19.9219-15.9766C16.582-19.2969 12.1484-19.2188 9.25781-16.3281C8.83789-15.918 8.80859-15.3418 9.04297-14.9512C9.27734-14.5898 9.73633-14.3555 10.3809-14.5215C11.8457-14.8633 13.3691-14.9219 14.7949-13.9844L14.209-12.5293C14.0137-12.0508 13.9844-11.6504 14.1113-11.2891L3.04688-0.898438C2.06055 0.0195312 1.98242 0.996094 2.8418 1.86523ZM10.752-15.957C13.1836-17.7344 16.4746-17.4316 18.7012-15.2051L21.1328-12.793C21.3672-12.5586 21.4062-12.373 21.3379-12.0312L21.0156-10.5469L22.5195-9.0625L23.5059-9.12109C23.7598-9.13086 23.8379-9.11133 24.0332-8.91602L24.6094-8.33984L22.168-5.89844L21.5918-6.47461C21.3965-6.66992 21.3672-6.74805 21.377-7.01172L21.4453-7.98828L19.9512-9.47266L18.4277-9.21875C18.1055-9.15039 17.959-9.17969 17.7148-9.41406L15.7129-11.416C15.459-11.6504 15.4297-11.8164 15.5859-12.1875L16.4648-14.2773C14.9023-15.7324 12.8711-16.3574 10.8398-15.7617C10.6836-15.7227 10.625-15.8496 10.752-15.957ZM5.27344 2.30469L4.10156 1.14258C3.63281 0.683594 3.74023 0.341797 4.14062-0.0195312L14.9512-10.1953L16.416-8.71094L6.42578 2.27539C6.07422 2.67578 5.74219 2.77344 5.27344 2.30469Z"/>
  </g>
  <text style="stroke:none;fill:black;font-family:-apple-system,&quot;SF Pro Display&quot;,&quot;SF Pro Text&quot;,Helvetica,sans-serif;font-weight:bold;" transform="matrix(1 0 0 1 1289 1953)">Exporting</text>
  <text style="stroke:none;fill:black;font-family:-apple-system,&quot;SF Pro Display&quot;,&quot;SF Pro Text&quot;,Helvetica,sans-serif;" transform="matrix(1 0 0 1 1289 1971)">Symbols should be outlined when exporting to ensure the</text>
  <text style="stroke:none;fill:black;font-family:-apple-system,&quot;SF Pro Display&quot;,&quot;SF Pro Text&quot;,Helvetica,sans-serif;" transform="matrix(1 0 0 1 1289 1989)">design is preserved when submitting to Xcode.</text>
  <text id="template-version" style="stroke:none;fill:black;font-family:-apple-system,&quot;SF Pro Display&quot;,&quot;SF Pro Text&quot;,Helvetica,sans-serif;text-anchor:end;" transform="matrix(1 0 0 1 3036 1933)">Template v.2.0</text>
  <text style="stroke:none;fill:black;font-family:-apple-system,&quot;SF Pro Display&quot;,&quot;SF Pro Text&quot;,Helvetica,sans-serif;text-anchor:end;" transform="matrix(1 0 0 1 3036 1951)">Requires Xcode 12 or greater</text>
  <text style="stroke:none;fill:black;font-family:-apple-system,&quot;SF Pro Display&quot;,&quot;SF Pro Text&quot;,Helvetica,sans-serif;" transform="matrix(1 0 0 1 263 726)">Small</text>
  <text style="stroke:none;fill:black;font-family:-apple-system,&quot;SF Pro Display&quot;,&quot;SF Pro Text&quot;,Helvetica,sans-serif;" transform="matrix(1 0 0 1 263 1156)">Medium</text>
  <text style="stroke:none;fill:black;font-family:-apple-system,&quot;SF Pro Display&quot;,&quot;SF Pro Text&quot;,Helvetica,sans-serif;" transform="matrix(1 0 0 1 263 1586)">Large</text>
 </g>
 <g id="Guides">
  <g id="H-reference" style="fill:#27AAE1;stroke:none;" transform="matrix(1 0 0 1 339 696)">
   <path d="M0.976562 0L3.66211 0L12.9883-24.4629L45.752-24.4629L55.127 0L57.7637 0L30.6152-70.459L28.125-70.459ZM29.3457-67.1387L29.4434-67.1387L44.873-26.709L13.8672-26.709Z"/>
  </g>
  <line id="Baseline-S" style="fill:none;stroke:#27AAE1;opacity:1;stroke-width:0.5;" x1="263" x2="3036" y1="696" y2="696"/>
  <line id="Capline-S" style="fill:none;stroke:#27AAE1;opacity:1;stroke-width:0.5;" x1="263" x2="3036" y1="625.541" y2="625.541"/>
  <g id="H-reference" style="fill:#27AAE1;stroke:none;" transform="matrix(1 0 0 1 339 1126)">
   <path d="M0.976562 0L3.66211 0L12.9883-24.4629L45.752-24.4629L55.127 0L57.7637 0L30.6152-70.459L28.125-70.459ZM29.3457-67.1387L29.4434-67.1387L44.873-26.709L13.8672-26.709Z"/>
  </g>
  <line id="Baseline-M" style="fill:none;stroke:#27AAE1;opacity:1;stroke-width:0.5;" x1="263" x2="3036" y1="1126" y2="1126"/>
  <line id="Capline-M" style="fill:none;stroke:#27AAE1;opacity:1;stroke-width:0.5;" x1="263" x2="3036" y1="1055.54" y2="1055.54"/>
  <g id="H-reference" style="fill:#27AAE1;stroke:none;" transform="matrix(1 0 0 1 339 1556)">
   <path d="M0.976562 0L3.66211 0L12.9883-24.4629L45.752-24.4629L55.127 0L57.7637 0L30.6152-70.459L28.125-70.459ZM29.3457-67.1387L29.4434-67.1387L44.873-26.709L13.8672-26.709Z"/>
  </g>
  <line id="Baseline-L" style="fill:none;stroke:#27AAE1;opacity:1;stroke-width:0.5;" x1="263" x2="3036" y1="1556" y2="1556"/>
  <line id="Capline-L" style="fill:none;stroke:#27AAE1;opacity:1;stroke-width:0.5;" x1="263" x2="3036" y1="1485.54" y2="1485.54"/>
  <line id="left-margin" x1="1406.5892389787946" x2="1406.5892389787946" y1="1030.79" y2="1150.12" style="fill:none;stroke:#00AEEF;stroke-width:0.5;opacity:1.0;"/>
  <line id="right-margin" x1="1495.6707610212052" x2="1495.6707610212052" y1="1030.79" y2="1150.12" style="fill:none;stroke:#00AEEF;stroke-width:0.5;opacity:1.0;"/>
 </g>
 <g id="Symbols">
  <g id="Black-L" transform="matrix(1.0,0.0,0.0,1.0,2880.576815708705,1466.6668352399554)">  <path stroke-dasharray="none" stroke-linecap="butt" stroke-linejoin="miter" fill-opacity="1" stroke-width="1px" fill="#000000" stroke-miterlimit="4" stroke-opacity="1" stroke="none" fill-rule="nonzero" d="M17.277,0L17.277,36.069L33.219,36.069L33.219,0L17.277,0ZM74.987,0L74.987,36.069L90.929,36.069L90.929,0L74.987,0ZM21.641,62.074L43.283,62.074L43.283,46.132L21.641,46.132L21.641,62.074ZM86.565,46.132L64.924,46.132L64.924,62.074L86.565,62.074L86.565,46.132ZM21.641,83.716L43.283,83.716L43.283,67.773L21.641,67.773L21.641,83.716ZM64.924,83.716L86.565,83.716L86.565,67.773L64.924,67.773L64.924,83.716ZM10.821,26.006L97.386,26.006C96.967,26.006,96.628,25.666,96.628,25.248L96.628,97.386C96.628,96.968,96.968,96.628,97.386,96.628L10.821,96.628C11.239,96.628,11.578,96.967,11.578,97.386L11.578,25.248C11.578,25.666,11.239,26.006,10.821,26.006ZM10.821,10.063C2.434,10.063,-4.364,16.862,-4.364,25.248L-4.364,97.386C-4.364,105.772,2.434,112.571,10.821,112.571L97.386,112.571C105.772,112.571,112.571,105.772,112.571,97.386L112.571,25.248C112.571,16.862,105.772,10.063,97.386,10.063L10.821,10.063Z"/>
</g>
  <g id="Heavy-L" transform="matrix(1.0,0.0,0.0,1.0,2583.866815708705,1466.6668352399554)">  <path fill-rule="nonzero" fill-opacity="1" stroke-miterlimit="4" stroke-opacity="1" stroke-dasharray="none" fill="#000000" stroke-width="1px" stroke-linejoin="miter" stroke-linecap="butt" stroke="none" d="M18.15,0L18.15,36.069L32.346,36.069L32.346,0L18.15,0ZM75.86,0L75.86,36.069L90.057,36.069L90.057,0L75.86,0ZM21.641,61.202L43.283,61.202L43.283,47.005L21.641,47.005L21.641,61.202ZM86.565,47.005L64.924,47.005L64.924,61.202L86.565,61.202L86.565,47.005ZM21.641,82.843L43.283,82.843L43.283,68.646L21.641,68.646L21.641,82.843ZM64.924,82.843L86.565,82.843L86.565,68.646L64.924,68.646L64.924,82.843ZM10.821,25.133L97.386,25.133C97.45,25.133,97.501,25.184,97.501,25.248L97.501,97.386C97.501,97.45,97.45,97.501,97.386,97.501L10.821,97.501C10.757,97.501,10.705,97.45,10.705,97.386L10.705,25.248C10.705,25.184,10.757,25.133,10.821,25.133ZM10.821,10.936C2.916,10.936,-3.491,17.344,-3.491,25.248L-3.491,97.386C-3.491,105.29,2.916,111.698,10.821,111.698L97.386,111.698C105.29,111.698,111.698,105.29,111.698,97.386L111.698,25.248C111.698,17.344,105.29,10.936,97.386,10.936L10.821,10.936Z"/>
</g>
  <g id="Bold-L" transform="matrix(1.0,0.0,0.0,1.0,2287.156815708705,1466.6668352399554)">  <path fill-rule="nonzero" stroke-miterlimit="4" fill="#000000" fill-opacity="1" stroke-linejoin="miter" stroke-linecap="butt" stroke-dasharray="none" stroke-width="1px" stroke-opacity="1" stroke="none" d="M19.023,0L19.023,36.069L31.474,36.069L31.474,0L19.023,0ZM76.733,0L76.733,36.069L89.184,36.069L89.184,0L76.733,0ZM21.641,60.329L43.283,60.329L43.283,47.878L21.641,47.878L21.641,60.329ZM86.565,47.878L64.924,47.878L64.924,60.329L86.565,60.329L86.565,47.878ZM21.641,81.97L43.283,81.97L43.283,69.519L21.641,69.519L21.641,81.97ZM64.924,81.97L86.565,81.97L86.565,69.519L64.924,69.519L64.924,81.97ZM10.821,24.26L97.386,24.26C97.932,24.26,98.374,24.702,98.374,25.248L98.374,97.386C98.374,97.932,97.932,98.374,97.386,98.374L10.821,98.374C10.275,98.374,9.832,97.932,9.832,97.386L9.832,25.248C9.832,24.702,10.275,24.26,10.821,24.26ZM10.821,11.809C3.398,11.809,-2.619,17.826,-2.619,25.248L-2.619,97.386C-2.619,104.808,3.398,110.825,10.821,110.825L97.386,110.825C104.808,110.825,110.825,104.808,110.825,97.386L110.825,25.248C110.825,17.826,104.808,11.809,97.386,11.809L10.821,11.809Z"/>
</g>
  <g id="Semibold-L" transform="matrix(1.0,0.0,0.0,1.0,1990.4468157087053,1466.6668352399554)">  <path stroke-linecap="butt" fill-rule="nonzero" stroke-miterlimit="4" fill-opacity="1" stroke-linejoin="miter" stroke="none" stroke-opacity="1" stroke-width="1px" fill="#000000" stroke-dasharray="none" d="M19.896,0L19.896,36.069L30.601,36.069L30.601,0L19.896,0ZM77.606,0L77.606,36.069L88.311,36.069L88.311,0L77.606,0ZM21.641,59.456L43.283,59.456L43.283,48.751L21.641,48.751L21.641,59.456ZM86.565,48.751L64.924,48.751L64.924,59.456L86.565,59.456L86.565,48.751ZM21.641,81.097L43.283,81.097L43.283,70.392L21.641,70.392L21.641,81.097ZM64.924,81.097L86.565,81.097L86.565,70.392L64.924,70.392L64.924,81.097ZM10.821,23.387L97.386,23.387C98.414,23.387,99.247,24.22,99.247,25.248L99.247,97.386C99.247,98.414,98.414,99.247,97.386,99.247L10.821,99.247C9.793,99.247,8.959,98.414,8.959,97.386L8.959,25.248C8.959,24.22,9.793,23.387,10.821,23.387ZM10.821,12.682C3.88,12.682,-1.746,18.308,-1.746,25.248L-1.746,97.386C-1.746,104.326,3.88,109.952,10.821,109.952L97.386,109.952C104.326,109.952,109.952,104.326,109.952,97.386L109.952,25.248C109.952,18.308,104.326,12.682,97.386,12.682L10.821,12.682Z"/>
</g>
  <g id="Medium-L" transform="matrix(1.0,0.0,0.0,1.0,1693.7368157087053,1466.6668352399554)">  <path stroke-dasharray="none" stroke="none" stroke-opacity="1" stroke-width="1px" fill="#000000" stroke-linecap="butt" fill-rule="nonzero" stroke-linejoin="miter" stroke-miterlimit="4" fill-opacity="1" d="M20.768,0L20.768,36.069L29.728,36.069L29.728,0L20.768,0ZM78.478,0L78.478,36.069L87.438,36.069L87.438,0L78.478,0ZM21.641,58.583L43.283,58.583L43.283,49.623L21.641,49.623L21.641,58.583ZM86.565,49.623L64.924,49.623L64.924,58.583L86.565,58.583L86.565,49.623ZM21.641,80.224L43.283,80.224L43.283,71.265L21.641,71.265L21.641,80.224ZM64.924,80.224L86.565,80.224L86.565,71.265L64.924,71.265L64.924,80.224ZM10.821,22.514L97.386,22.514C98.896,22.514,100.12,23.738,100.12,25.248L100.12,97.386C100.12,98.896,98.896,100.12,97.386,100.12L10.821,100.12C9.311,100.12,8.087,98.896,8.087,97.386L8.087,25.248C8.087,23.738,9.311,22.514,10.821,22.514ZM10.821,13.555C4.363,13.555,-0.873,18.79,-0.873,25.248L-0.873,97.386C-0.873,103.844,4.362,109.079,10.821,109.079L97.386,109.079C103.844,109.079,109.079,103.844,109.079,97.386L109.079,25.248C109.079,18.79,103.844,13.555,97.386,13.555L10.821,13.555Z"/>
</g>
  <g id="Regular-L" transform="matrix(1.0,0.0,0.0,1.0,1397.0268157087053,1466.6668352399554)">  <path stroke-miterlimit="4" stroke="none" fill-rule="nonzero" stroke-width="1px" stroke-opacity="1" fill="#000000" stroke-dasharray="none" fill-opacity="1" stroke-linecap="butt" stroke-linejoin="miter" d="M21.641,0L21.641,36.069L28.855,36.069L28.855,0L21.641,0ZM79.351,0L79.351,36.069L86.565,36.069L86.565,0L79.351,0ZM21.641,57.71L43.283,57.71L43.283,50.496L21.641,50.496L21.641,57.71ZM86.565,50.496L64.924,50.496L64.924,57.71L86.565,57.71L86.565,50.496ZM21.641,79.351L43.283,79.351L43.283,72.138L21.641,72.138L21.641,79.351ZM64.924,79.351L86.565,79.351L86.565,72.138L64.924,72.138L64.924,79.351ZM10.821,21.641L97.386,21.641C99.378,21.641,100.993,23.256,100.993,25.248L100.993,97.386C100.993,99.378,99.378,100.993,97.386,100.993L10.821,100.993C8.829,100.993,7.214,99.378,7.214,97.386L7.214,25.248C7.214,23.256,8.829,21.641,10.821,21.641ZM10.821,14.428C4.845,14.428,0,19.272,0,25.248L0,97.386C0,103.362,4.845,108.206,10.821,108.206L97.386,108.206C103.362,108.206,108.206,103.362,108.206,97.386L108.206,25.248C108.206,19.272,103.362,14.428,97.386,14.428L10.821,14.428Z"/>
</g>
  <g id="Light-L" transform="matrix(1.0,0.0,0.0,1.0,1100.3168157087055,1466.6668352399554)">  <path stroke-linecap="butt" stroke-dasharray="none" stroke-miterlimit="4" fill="#000000" stroke="none" fill-rule="nonzero" stroke-opacity="1" stroke-width="1px" stroke-linejoin="miter" fill-opacity="1" d="M22.242,0L22.242,36.069L28.254,36.069L28.254,0L22.242,0ZM79.952,0L79.952,36.069L85.964,36.069L85.964,0L79.952,0ZM21.641,57.109L43.283,57.109L43.283,51.097L21.641,51.097L21.641,57.109ZM86.565,51.097L64.924,51.097L64.924,57.109L86.565,57.109L86.565,51.097ZM21.641,78.75L43.283,78.75L43.283,72.739L21.641,72.739L21.641,78.75ZM64.924,78.75L86.565,78.75L86.565,72.739L64.924,72.739L64.924,78.75ZM10.821,21.04L97.386,21.04C99.71,21.04,101.594,22.924,101.594,25.248L101.594,97.386C101.594,99.71,99.71,101.594,97.386,101.594L10.821,101.594C8.497,101.594,6.613,99.71,6.613,97.386L6.613,25.248C6.613,22.924,8.497,21.04,10.821,21.04ZM10.821,15.029C5.177,15.029,0.601,19.604,0.601,25.248L0.601,97.386C0.601,103.03,5.177,107.605,10.821,107.605L97.386,107.605C103.03,107.605,107.605,103.03,107.605,97.386L107.605,25.248C107.605,19.604,103.03,15.029,97.386,15.029L10.821,15.029Z"/>
</g>
  <g id="Thin-L" transform="matrix(1.0,0.0,0.0,1.0,803.6068157087054,1466.6668352399554)">  <path stroke-linecap="butt" stroke-miterlimit="4" fill-opacity="1" stroke-opacity="1" stroke-dasharray="none" fill="#000000" fill-rule="nonzero" stroke-width="1px" stroke-linejoin="miter" stroke="none" d="M22.844,0L22.844,36.069L27.653,36.069L27.653,0L22.844,0ZM80.554,0L80.554,36.069L85.363,36.069L85.363,0L80.554,0ZM21.641,56.508L43.283,56.508L43.283,51.699L21.641,51.699L21.641,56.508ZM86.565,51.699L64.924,51.699L64.924,56.508L86.565,56.508L86.565,51.699ZM21.641,78.149L43.283,78.149L43.283,73.34L21.641,73.34L21.641,78.149ZM64.924,78.149L86.565,78.149L86.565,73.34L64.924,73.34L64.924,78.149ZM10.821,20.439L97.386,20.439C100.042,20.439,102.195,22.592,102.195,25.248L102.195,97.386C102.195,100.042,100.042,102.195,97.386,102.195L10.821,102.195C8.165,102.195,6.011,100.042,6.011,97.386L6.011,25.248C6.011,22.592,8.165,20.439,10.821,20.439ZM10.821,15.63C5.509,15.63,1.202,19.936,1.202,25.248L1.202,97.386C1.202,102.698,5.509,107.004,10.821,107.004L97.386,107.004C102.698,107.004,107.004,102.698,107.004,97.386L107.004,25.248C107.004,19.936,102.698,15.63,97.386,15.63L10.821,15.63Z"/>
</g>
  <g id="Ultralight-L" transform="matrix(1.0,0.0,0.0,1.0,506.89681570870533,1466.6668352399554)">  <path stroke-dasharray="none" fill-opacity="1" stroke-linecap="butt" stroke-width="1px" stroke-miterlimit="4" stroke="none" stroke-opacity="1" fill-rule="nonzero" stroke-linejoin="miter" fill="#000000" d="M23.445,0L23.445,36.069L27.052,36.069L27.052,0L23.445,0ZM81.155,0L81.155,36.069L84.762,36.069L84.762,0L81.155,0ZM21.641,55.907L43.283,55.907L43.283,52.3L21.641,52.3L21.641,55.907ZM86.565,52.3L64.924,52.3L64.924,55.907L86.565,55.907L86.565,52.3ZM21.641,77.548L43.283,77.548L43.283,73.941L21.641,73.941L21.641,77.548ZM64.924,77.548L86.565,77.548L86.565,73.941L64.924,73.941L64.924,77.548ZM10.821,19.838L97.386,19.838C100.374,19.838,102.796,22.26,102.796,25.248L102.796,97.386C102.796,100.374,100.374,102.796,97.386,102.796L10.821,102.796C7.833,102.796,5.41,100.374,5.41,97.386L5.41,25.248C5.41,22.26,7.833,19.838,10.821,19.838ZM10.821,16.231C5.841,16.231,1.803,20.268,1.803,25.248L1.803,97.386C1.803,102.366,5.841,106.403,10.821,106.403L97.386,106.403C102.366,106.403,106.403,102.366,106.403,97.386L106.403,25.248C106.403,20.268,102.366,16.231,97.386,16.231L10.821,16.231Z"/>
</g>
  <g id="Black-M" transform="matrix(1.0,0.0,0.0,1.0,2892.7395470610118,1048.829566592262)">  <path stroke-dasharray="none" stroke-linecap="butt" stroke-linejoin="miter" fill-opacity="1" stroke-width="1px" fill="#000000" stroke-miterlimit="4" stroke-opacity="1" stroke="none" fill-rule="nonzero" d="M13.393,0L13.393,27.96L25.751,27.96L25.751,0L13.393,0ZM58.129,0L58.129,27.96L70.488,27.96L70.488,0L58.129,0ZM16.776,48.12L33.552,48.12L33.552,35.761L16.776,35.761L16.776,48.12ZM67.105,35.761L50.329,35.761L50.329,48.12L67.105,48.12L67.105,35.761ZM16.776,64.896L33.552,64.896L33.552,52.537L16.776,52.537L16.776,64.896ZM50.329,64.896L67.105,64.896L67.105,52.537L50.329,52.537L50.329,64.896ZM8.388,20.159L75.493,20.159C75.169,20.159,74.906,19.896,74.906,19.572L74.906,75.493C74.906,75.169,75.169,74.906,75.493,74.906L8.388,74.906C8.712,74.906,8.975,75.169,8.975,75.493L8.975,19.572C8.975,19.897,8.712,20.159,8.388,20.159ZM8.388,7.801C1.887,7.801,-3.383,13.071,-3.383,19.572L-3.383,75.493C-3.383,81.994,1.887,87.264,8.388,87.264L75.493,87.264C81.994,87.264,87.264,81.994,87.264,75.493L87.264,19.572C87.264,13.071,81.994,7.801,75.493,7.801L8.388,7.801Z"/>
</g>
  <g id="Heavy-M" transform="matrix(1.0,0.0,0.0,1.0,2596.0295470610117,1048.829566592262)">  <path fill-rule="nonzero" fill-opacity="1" stroke-miterlimit="4" stroke-opacity="1" stroke-dasharray="none" fill="#000000" stroke-width="1px" stroke-linejoin="miter" stroke-linecap="butt" stroke="none" d="M14.07,0L14.07,27.96L25.075,27.96L25.075,0L14.07,0ZM58.806,0L58.806,27.96L69.811,27.96L69.811,0L58.806,0ZM16.776,47.443L33.552,47.443L33.552,36.438L16.776,36.438L16.776,47.443ZM67.105,36.438L50.329,36.438L50.329,47.443L67.105,47.443L67.105,36.438ZM16.776,64.219L33.552,64.219L33.552,53.214L16.776,53.214L16.776,64.219ZM50.329,64.219L67.105,64.219L67.105,53.214L50.329,53.214L50.329,64.219ZM8.388,19.483L75.493,19.483C75.542,19.483,75.582,19.523,75.582,19.572L75.582,75.493C75.582,75.542,75.542,75.582,75.493,75.582L8.388,75.582C8.339,75.582,8.299,75.542,8.299,75.493L8.299,19.572C8.299,19.523,8.339,19.483,8.388,19.483ZM8.388,8.478C2.261,8.478,-2.707,13.445,-2.707,19.572L-2.707,75.493C-2.707,81.62,2.261,86.587,8.388,86.587L75.493,86.587C81.62,86.587,86.587,81.62,86.587,75.493L86.587,19.572C86.587,13.445,81.62,8.478,75.493,8.478L8.388,8.478Z"/>
</g>
  <g id="Bold-M" transform="matrix(1.0,0.0,0.0,1.0,2299.3195470610117,1048.829566592262)">  <path fill-rule="nonzero" stroke-miterlimit="4" fill="#000000" fill-opacity="1" stroke-linejoin="miter" stroke-linecap="butt" stroke-dasharray="none" stroke-width="1px" stroke-opacity="1" stroke="none" d="M14.746,0L14.746,27.96L24.398,27.96L24.398,0L14.746,0ZM59.483,0L59.483,27.96L69.135,27.96L69.135,0L59.483,0ZM16.776,46.766L33.552,46.766L33.552,37.115L16.776,37.115L16.776,46.766ZM67.105,37.115L50.329,37.115L50.329,46.766L67.105,46.766L67.105,37.115ZM16.776,63.543L33.552,63.543L33.552,53.891L16.776,53.891L16.776,63.543ZM50.329,63.543L67.105,63.543L67.105,53.891L50.329,53.891L50.329,63.543ZM8.388,18.806L75.493,18.806C75.916,18.806,76.259,19.149,76.259,19.572L76.259,75.493C76.259,75.916,75.916,76.259,75.493,76.259L8.388,76.259C7.965,76.259,7.622,75.916,7.622,75.493L7.622,19.572C7.622,19.149,7.965,18.806,8.388,18.806ZM8.388,9.154C2.634,9.154,-2.03,13.819,-2.03,19.572L-2.03,75.493C-2.03,81.247,2.634,85.911,8.388,85.911L75.493,85.911C81.247,85.911,85.911,81.247,85.911,75.493L85.911,19.572C85.911,13.819,81.247,9.154,75.493,9.154L8.388,9.154Z"/>
</g>
  <g id="Semibold-M" transform="matrix(1.0,0.0,0.0,1.0,2002.6095470610119,1048.829566592262)">  <path stroke-linecap="butt" fill-rule="nonzero" stroke-miterlimit="4" fill-opacity="1" stroke-linejoin="miter" stroke="none" stroke-opacity="1" stroke-width="1px" fill="#000000" stroke-dasharray="none" d="M15.423,0L15.423,27.96L23.722,27.96L23.722,0L15.423,0ZM60.159,0L60.159,27.96L68.458,27.96L68.458,0L60.159,0ZM16.776,46.09L33.552,46.09L33.552,37.791L16.776,37.791L16.776,46.09ZM67.105,37.791L50.329,37.791L50.329,46.09L67.105,46.09L67.105,37.791ZM16.776,62.866L33.552,62.866L33.552,54.567L16.776,54.567L16.776,62.866ZM50.329,62.866L67.105,62.866L67.105,54.567L50.329,54.567L50.329,62.866ZM8.388,18.129L75.493,18.129C76.29,18.129,76.936,18.775,76.936,19.572L76.936,75.493C76.936,76.29,76.29,76.936,75.493,76.936L8.388,76.936C7.591,76.936,6.945,76.29,6.945,75.493L6.945,19.572C6.945,18.775,7.591,18.129,8.388,18.129ZM8.388,9.831C3.008,9.831,-1.353,14.192,-1.353,19.572L-1.353,75.493C-1.353,80.873,3.008,85.234,8.388,85.234L75.493,85.234C80.873,85.234,85.234,80.873,85.234,75.493L85.234,19.572C85.234,14.192,80.873,9.831,75.493,9.831L8.388,9.831Z"/>
</g>
  <g id="Medium-M" transform="matrix(1.0,0.0,0.0,1.0,1705.8995470610118,1048.829566592262)">  <path stroke-dasharray="none" stroke="none" stroke-opacity="1" stroke-width="1px" fill="#000000" stroke-linecap="butt" fill-rule="nonzero" stroke-linejoin="miter" stroke-miterlimit="4" fill-opacity="1" d="M16.1,0L16.1,27.96L23.045,27.96L23.045,0L16.1,0ZM60.836,0L60.836,27.96L67.781,27.96L67.781,0L60.836,0ZM16.776,45.413L33.552,45.413L33.552,38.468L16.776,38.468L16.776,45.413ZM67.105,38.468L50.329,38.468L50.329,45.413L67.105,45.413L67.105,38.468ZM16.776,62.189L33.552,62.189L33.552,55.244L16.776,55.244L16.776,62.189ZM50.329,62.189L67.105,62.189L67.105,55.244L50.329,55.244L50.329,62.189ZM8.388,17.453L75.493,17.453C76.663,17.453,77.612,18.402,77.612,19.572L77.612,75.493C77.612,76.663,76.663,77.612,75.493,77.612L8.388,77.612C7.218,77.612,6.269,76.663,6.269,75.493L6.269,19.572C6.269,18.402,7.218,17.453,8.388,17.453ZM8.388,10.507C3.382,10.507,-0.677,14.566,-0.677,19.572L-0.677,75.493C-0.677,80.499,3.382,84.558,8.388,84.558L75.493,84.558C80.499,84.558,84.558,80.499,84.558,75.493L84.558,19.572C84.558,14.566,80.499,10.507,75.493,10.507L8.388,10.507Z"/>
</g>
  <g id="Regular-M" transform="matrix(1.0,0.0,0.0,1.0,1409.1895470610118,1048.829566592262)">  <path stroke-miterlimit="4" stroke="none" fill-rule="nonzero" stroke-width="1px" stroke-opacity="1" fill="#000000" stroke-dasharray="none" fill-opacity="1" stroke-linecap="butt" stroke-linejoin="miter" d="M16.776,0L16.776,27.96L22.368,27.96L22.368,0L16.776,0ZM61.513,0L61.513,27.96L67.105,27.96L67.105,0L61.513,0ZM16.776,44.736L33.552,44.736L33.552,39.144L16.776,39.144L16.776,44.736ZM67.105,39.144L50.329,39.144L50.329,44.736L67.105,44.736L67.105,39.144ZM16.776,61.513L33.552,61.513L33.552,55.921L16.776,55.921L16.776,61.513ZM50.329,61.513L67.105,61.513L67.105,55.921L50.329,55.921L50.329,61.513ZM8.388,16.776L75.493,16.776C77.037,16.776,78.289,18.028,78.289,19.572L78.289,75.493C78.289,77.037,77.037,78.289,75.493,78.289L8.388,78.289C6.844,78.289,5.592,77.037,5.592,75.493L5.592,19.572C5.592,18.028,6.844,16.776,8.388,16.776ZM8.388,11.184C3.755,11.184,0,14.94,0,19.572L0,75.493C0,80.125,3.755,83.881,8.388,83.881L75.493,83.881C80.126,83.881,83.881,80.126,83.881,75.493L83.881,19.572C83.881,14.94,80.125,11.184,75.493,11.184L8.388,11.184Z"/>
</g>
  <g id="Light-M" transform="matrix(1.0,0.0,0.0,1.0,1112.479547061012,1048.829566592262)">  <path stroke-linecap="butt" stroke-dasharray="none" stroke-miterlimit="4" fill="#000000" stroke="none" fill-rule="nonzero" stroke-opacity="1" stroke-width="1px" stroke-linejoin="miter" fill-opacity="1" d="M17.242,0L17.242,27.96L21.902,27.96L21.902,0L17.242,0ZM61.979,0L61.979,27.96L66.639,27.96L66.639,0L61.979,0ZM16.776,44.27L33.552,44.27L33.552,39.61L16.776,39.61L16.776,44.27ZM67.105,39.61L50.329,39.61L50.329,44.27L67.105,44.27L67.105,39.61ZM16.776,61.047L33.552,61.047L33.552,56.387L16.776,56.387L16.776,61.047ZM50.329,61.047L67.105,61.047L67.105,56.387L50.329,56.387L50.329,61.047ZM8.388,16.31L75.493,16.31C77.294,16.31,78.755,17.771,78.755,19.572L78.755,75.493C78.755,77.294,77.294,78.755,75.493,78.755L8.388,78.755C6.586,78.755,5.126,77.294,5.126,75.493L5.126,19.572C5.126,17.771,6.587,16.31,8.388,16.31ZM8.388,11.65C4.013,11.65,0.466,15.197,0.466,19.572L0.466,75.493C0.466,79.868,4.013,83.415,8.388,83.415L75.493,83.415C79.868,83.415,83.415,79.868,83.415,75.493L83.415,19.572C83.415,15.197,79.868,11.65,75.493,11.65L8.388,11.65Z"/>
</g>
  <g id="Thin-M" transform="matrix(1.0,0.0,0.0,1.0,815.769547061012,1048.829566592262)">  <path stroke-linecap="butt" stroke-miterlimit="4" fill-opacity="1" stroke-opacity="1" stroke-dasharray="none" fill="#000000" fill-rule="nonzero" stroke-width="1px" stroke-linejoin="miter" stroke="none" d="M17.708,0L17.708,27.96L21.436,27.96L21.436,0L17.708,0ZM62.445,0L62.445,27.96L66.173,27.96L66.173,0L62.445,0ZM16.776,43.804L33.552,43.804L33.552,40.076L16.776,40.076L16.776,43.804ZM67.105,40.076L50.329,40.076L50.329,43.804L67.105,43.804L67.105,40.076ZM16.776,60.581L33.552,60.581L33.552,56.853L16.776,56.853L16.776,60.581ZM50.329,60.581L67.105,60.581L67.105,56.853L50.329,56.853L50.329,60.581ZM8.388,15.844L75.493,15.844C77.552,15.844,79.221,17.513,79.221,19.572L79.221,75.493C79.221,77.552,77.552,79.221,75.493,79.221L8.388,79.221C6.329,79.221,4.66,77.552,4.66,75.493L4.66,19.572C4.66,17.513,6.329,15.844,8.388,15.844ZM8.388,12.116C4.27,12.116,0.932,15.454,0.932,19.572L0.932,75.493C0.932,79.611,4.27,82.949,8.388,82.949L75.493,82.949C79.611,82.949,82.949,79.611,82.949,75.493L82.949,19.572C82.949,15.454,79.611,12.116,75.493,12.116L8.388,12.116Z"/>
</g>
  <g id="Ultralight-M" transform="matrix(1.0,0.0,0.0,1.0,519.0595470610119,1048.829566592262)">  <path stroke-dasharray="none" fill-opacity="1" stroke-linecap="butt" stroke-width="1px" stroke-miterlimit="4" stroke="none" stroke-opacity="1" fill-rule="nonzero" stroke-linejoin="miter" fill="#000000" d="M18.174,0L18.174,27.96L20.97,27.96L20.97,0L18.174,0ZM62.911,0L62.911,27.96L65.707,27.96L65.707,0L62.911,0ZM16.776,43.338L33.552,43.338L33.552,40.542L16.776,40.542L16.776,43.338ZM67.105,40.542L50.329,40.542L50.329,43.338L67.105,43.338L67.105,40.542ZM16.776,60.115L33.552,60.115L33.552,57.319L16.776,57.319L16.776,60.115ZM50.329,60.115L67.105,60.115L67.105,57.319L50.329,57.319L50.329,60.115ZM8.388,15.378L75.493,15.378C77.809,15.378,79.687,17.256,79.687,19.572L79.687,75.493C79.687,77.809,77.809,79.687,75.493,79.687L8.388,79.687C6.072,79.687,4.194,77.809,4.194,75.493L4.194,19.572C4.194,17.256,6.072,15.378,8.388,15.378ZM8.388,12.582C4.528,12.582,1.398,15.712,1.398,19.572L1.398,75.493C1.398,79.353,4.528,82.483,8.388,82.483L75.493,82.483C79.353,82.483,82.483,79.353,82.483,75.493L82.483,19.572C82.483,15.712,79.353,12.582,75.493,12.582L8.388,12.582Z"/>
</g>
  <g id="Black-S" transform="matrix(1.0,0.0,0.0,1.0,2901.840625348772,627.9306448800223)">  <path stroke-dasharray="none" stroke-linecap="butt" stroke-linejoin="miter" fill-opacity="1" stroke-width="1px" fill="#000000" stroke-miterlimit="4" stroke-opacity="1" stroke="none" fill-rule="nonzero" d="M10.487,0L10.487,21.893L20.163,21.893L20.163,0L10.487,0ZM45.515,0L45.515,21.893L55.192,21.893L55.192,0L45.515,0ZM13.136,37.678L26.271,37.678L26.271,28.001L13.136,28.001L13.136,37.678ZM52.543,28.001L39.407,28.001L39.407,37.678L52.543,37.678L52.543,28.001ZM13.136,50.813L26.271,50.813L26.271,41.137L13.136,41.137L13.136,50.813ZM39.407,50.813L52.543,50.813L52.543,41.137L39.407,41.137L39.407,50.813ZM6.568,15.785L59.111,15.785C58.857,15.785,58.651,15.579,58.651,15.325L58.651,59.111C58.651,58.857,58.857,58.651,59.111,58.651L6.568,58.651C6.822,58.651,7.028,58.857,7.028,59.111L7.028,15.325C7.028,15.579,6.822,15.785,6.568,15.785ZM6.568,6.108C1.478,6.108,-2.649,10.235,-2.649,15.325L-2.649,59.111C-2.649,64.201,1.478,68.328,6.568,68.328L59.111,68.328C64.201,68.328,68.328,64.201,68.328,59.111L68.328,15.325C68.328,10.235,64.201,6.108,59.111,6.108L6.568,6.108Z"/>
</g>
  <g id="Heavy-S" transform="matrix(1.0,0.0,0.0,1.0,2605.130625348772,627.9306448800223)">  <path fill-rule="nonzero" fill-opacity="1" stroke-miterlimit="4" stroke-opacity="1" stroke-dasharray="none" fill="#000000" stroke-width="1px" stroke-linejoin="miter" stroke-linecap="butt" stroke="none" d="M11.017,0L11.017,21.893L19.634,21.893L19.634,0L11.017,0ZM46.045,0L46.045,21.893L54.662,21.893L54.662,0L46.045,0ZM13.136,37.148L26.271,37.148L26.271,28.531L13.136,28.531L13.136,37.148ZM52.543,28.531L39.407,28.531L39.407,37.148L52.543,37.148L52.543,28.531ZM13.136,50.284L26.271,50.284L26.271,41.667L13.136,41.667L13.136,50.284ZM39.407,50.284L52.543,50.284L52.543,41.667L39.407,41.667L39.407,50.284ZM6.568,15.255L59.111,15.255C59.15,15.255,59.181,15.286,59.181,15.325L59.181,59.111C59.181,59.15,59.15,59.181,59.111,59.181L6.568,59.181C6.529,59.181,6.498,59.15,6.498,59.111L6.498,15.325C6.498,15.286,6.529,15.255,6.568,15.255ZM6.568,6.638C1.77,6.638,-2.119,10.527,-2.119,15.325L-2.119,59.111C-2.119,63.909,1.77,67.798,6.568,67.798L59.111,67.798C63.909,67.798,67.798,63.909,67.798,59.111L67.798,15.325C67.798,10.527,63.909,6.638,59.111,6.638L6.568,6.638Z"/>
</g>
  <g id="Bold-S" transform="matrix(1.0,0.0,0.0,1.0,2308.420625348772,627.9306448800223)">  <path fill-rule="nonzero" stroke-miterlimit="4" fill="#000000" fill-opacity="1" stroke-linejoin="miter" stroke-linecap="butt" stroke-dasharray="none" stroke-width="1px" stroke-opacity="1" stroke="none" d="M11.546,0L11.546,21.893L19.104,21.893L19.104,0L11.546,0ZM46.575,0L46.575,21.893L54.132,21.893L54.132,0L46.575,0ZM13.136,36.618L26.271,36.618L26.271,29.061L13.136,29.061L13.136,36.618ZM52.543,29.061L39.407,29.061L39.407,36.618L52.543,36.618L52.543,29.061ZM13.136,49.754L26.271,49.754L26.271,42.196L13.136,42.196L13.136,49.754ZM39.407,49.754L52.543,49.754L52.543,42.196L39.407,42.196L39.407,49.754ZM6.568,14.725L59.111,14.725C59.442,14.725,59.711,14.994,59.711,15.325L59.711,59.111C59.711,59.442,59.442,59.711,59.111,59.711L6.568,59.711C6.237,59.711,5.968,59.442,5.968,59.111L5.968,15.325C5.968,14.994,6.237,14.725,6.568,14.725ZM6.568,7.168C2.063,7.168,-1.589,10.82,-1.589,15.325L-1.589,59.111C-1.589,63.616,2.063,67.268,6.568,67.268L59.111,67.268C63.616,67.268,67.268,63.616,67.268,59.111L67.268,15.325C67.268,10.82,63.616,7.168,59.111,7.168L6.568,7.168Z"/>
</g>
  <g id="Semibold-S" transform="matrix(1.0,0.0,0.0,1.0,2011.7106253487723,627.9306448800223)">  <path stroke-linecap="butt" fill-rule="nonzero" stroke-miterlimit="4" fill-opacity="1" stroke-linejoin="miter" stroke="none" stroke-opacity="1" stroke-width="1px" fill="#000000" stroke-dasharray="none" d="M12.076,0L12.076,21.893L18.574,21.893L18.574,0L12.076,0ZM47.105,0L47.105,21.893L53.603,21.893L53.603,0L47.105,0ZM13.136,36.088L26.271,36.088L26.271,29.59L13.136,29.59L13.136,36.088ZM52.543,29.59L39.407,29.59L39.407,36.088L52.543,36.088L52.543,29.59ZM13.136,49.224L26.271,49.224L26.271,42.726L13.136,42.726L13.136,49.224ZM39.407,49.224L52.543,49.224L52.543,42.726L39.407,42.726L39.407,49.224ZM6.568,14.195L59.111,14.195C59.735,14.195,60.241,14.701,60.241,15.325L60.241,59.111C60.241,59.735,59.735,60.241,59.111,60.241L6.568,60.241C5.944,60.241,5.438,59.735,5.438,59.111L5.438,15.325C5.438,14.701,5.944,14.195,6.568,14.195ZM6.568,7.698C2.355,7.698,-1.06,11.113,-1.06,15.325L-1.06,59.111C-1.06,63.323,2.355,66.738,6.568,66.738L59.111,66.738C63.323,66.738,66.738,63.323,66.738,59.111L66.738,15.325C66.738,11.112,63.323,7.698,59.111,7.698L6.568,7.698Z"/>
</g>
  <g id="Medium-S" transform="matrix(1.0,0.0,0.0,1.0,1715.0006253487722,627.9306448800223)">  <path stroke-dasharray="none" stroke="none" stroke-opacity="1" stroke-width="1px" fill="#000000" stroke-linecap="butt" fill-rule="nonzero" stroke-linejoin="miter" stroke-miterlimit="4" fill-opacity="1" d="M12.606,0L12.606,21.893L18.044,21.893L18.044,0L12.606,0ZM47.635,0L47.635,21.893L53.073,21.893L53.073,0L47.635,0ZM13.136,35.558L26.271,35.558L26.271,30.12L13.136,30.12L13.136,35.558ZM52.543,30.12L39.407,30.12L39.407,35.558L52.543,35.558L52.543,30.12ZM13.136,48.694L26.271,48.694L26.271,43.256L13.136,43.256L13.136,48.694ZM39.407,48.694L52.543,48.694L52.543,43.256L39.407,43.256L39.407,48.694ZM6.568,13.666L59.111,13.666C60.027,13.666,60.77,14.409,60.77,15.325L60.77,59.111C60.77,60.027,60.027,60.77,59.111,60.77L6.568,60.77C5.651,60.77,4.908,60.027,4.908,59.111L4.908,15.325C4.908,14.409,5.651,13.666,6.568,13.666ZM6.568,8.227C2.648,8.227,-0.53,11.405,-0.53,15.325L-0.53,59.111C-0.53,63.031,2.648,66.209,6.568,66.209L59.111,66.209C63.031,66.209,66.209,63.031,66.209,59.111L66.209,15.325C66.209,11.405,63.031,8.227,59.111,8.227L6.568,8.227Z"/>
</g>
  <g id="Regular-S" transform="matrix(1.0,0.0,0.0,1.0,1418.2906253487722,627.9306448800223)">  <path stroke-miterlimit="4" stroke="none" fill-rule="nonzero" stroke-width="1px" stroke-opacity="1" fill="#000000" stroke-dasharray="none" fill-opacity="1" stroke-linecap="butt" stroke-linejoin="miter" d="M13.136,0L13.136,21.893L17.514,21.893L17.514,0L13.136,0ZM48.164,0L48.164,21.893L52.543,21.893L52.543,0L48.164,0ZM13.136,35.029L26.271,35.029L26.271,30.65L13.136,30.65L13.136,35.029ZM52.543,30.65L39.407,30.65L39.407,35.029L52.543,35.029L52.543,30.65ZM13.136,48.164L26.271,48.164L26.271,43.786L13.136,43.786L13.136,48.164ZM39.407,48.164L52.543,48.164L52.543,43.786L39.407,43.786L39.407,48.164ZM6.568,13.136L59.111,13.136C60.32,13.136,61.3,14.116,61.3,15.325L61.3,59.111C61.3,60.32,60.32,61.3,59.111,61.3L6.568,61.3C5.359,61.3,4.379,60.32,4.379,59.111L4.379,15.325C4.379,14.116,5.359,13.136,6.568,13.136ZM6.568,8.757C2.941,8.757,0,11.698,0,15.325L0,59.111C0,62.738,2.941,65.679,6.568,65.679L59.111,65.679C62.738,65.679,65.679,62.738,65.679,59.111L65.679,15.325C65.679,11.698,62.738,8.757,59.111,8.757L6.568,8.757Z"/>
</g>
  <g id="Light-S" transform="matrix(1.0,0.0,0.0,1.0,1121.5806253487724,627.9306448800223)">  <path stroke-linecap="butt" stroke-dasharray="none" stroke-miterlimit="4" fill="#000000" stroke="none" fill-rule="nonzero" stroke-opacity="1" stroke-width="1px" stroke-linejoin="miter" fill-opacity="1" d="M13.501,0L13.501,21.893L17.149,21.893L17.149,0L13.501,0ZM48.529,0L48.529,21.893L52.178,21.893L52.178,0L48.529,0ZM13.136,34.664L26.271,34.664L26.271,31.015L13.136,31.015L13.136,34.664ZM52.543,31.015L39.407,31.015L39.407,34.664L52.543,34.664L52.543,31.015ZM13.136,47.8L26.271,47.8L26.271,44.151L13.136,44.151L13.136,47.8ZM39.407,47.8L52.543,47.8L52.543,44.151L39.407,44.151L39.407,47.8ZM6.568,12.771L59.111,12.771C60.522,12.771,61.665,13.914,61.665,15.325L61.665,59.111C61.665,60.522,60.522,61.665,59.111,61.665L6.568,61.665C5.157,61.665,4.014,60.522,4.014,59.111L4.014,15.325C4.014,13.914,5.157,12.771,6.568,12.771ZM6.568,9.122C3.142,9.122,0.365,11.899,0.365,15.325L0.365,59.111C0.365,62.537,3.142,65.314,6.568,65.314L59.111,65.314C62.537,65.314,65.314,62.537,65.314,59.111L65.314,15.325C65.314,11.899,62.537,9.122,59.111,9.122L6.568,9.122Z"/>
</g>
  <g id="Thin-S" transform="matrix(1.0,0.0,0.0,1.0,824.8706253487724,627.9306448800223)">  <path stroke-linecap="butt" stroke-miterlimit="4" fill-opacity="1" stroke-opacity="1" stroke-dasharray="none" fill="#000000" fill-rule="nonzero" stroke-width="1px" stroke-linejoin="miter" stroke="none" d="M13.866,0L13.866,21.893L16.785,21.893L16.785,0L13.866,0ZM48.894,0L48.894,21.893L51.813,21.893L51.813,0L48.894,0ZM13.136,34.299L26.271,34.299L26.271,31.38L13.136,31.38L13.136,34.299ZM52.543,31.38L39.407,31.38L39.407,34.299L52.543,34.299L52.543,31.38ZM13.136,47.435L26.271,47.435L26.271,44.516L13.136,44.516L13.136,47.435ZM39.407,47.435L52.543,47.435L52.543,44.516L39.407,44.516L39.407,47.435ZM6.568,12.406L59.111,12.406C60.723,12.406,62.03,13.713,62.03,15.325L62.03,59.111C62.03,60.723,60.723,62.03,59.111,62.03L6.568,62.03C4.956,62.03,3.649,60.723,3.649,59.111L3.649,15.325C3.649,13.713,4.956,12.406,6.568,12.406ZM6.568,9.487C3.344,9.487,0.73,12.101,0.73,15.325L0.73,59.111C0.73,62.335,3.344,64.949,6.568,64.949L59.111,64.949C62.335,64.949,64.949,62.335,64.949,59.111L64.949,15.325C64.949,12.101,62.335,9.487,59.111,9.487L6.568,9.487Z"/>
</g>
  <g id="Ultralight-S" transform="matrix(1.0,0.0,0.0,1.0,528.1606253487723,627.9306448800223)">  <path stroke-dasharray="none" fill-opacity="1" stroke-linecap="butt" stroke-width="1px" stroke-miterlimit="4" stroke="none" stroke-opacity="1" fill-rule="nonzero" stroke-linejoin="miter" fill="#000000" d="M14.23,0L14.23,21.893L16.42,21.893L16.42,0L14.23,0ZM49.259,0L49.259,21.893L51.448,21.893L51.448,0L49.259,0ZM13.136,33.934L26.271,33.934L26.271,31.745L13.136,31.745L13.136,33.934ZM52.543,31.745L39.407,31.745L39.407,33.934L52.543,33.934L52.543,31.745ZM13.136,47.07L26.271,47.07L26.271,44.88L13.136,44.88L13.136,47.07ZM39.407,47.07L52.543,47.07L52.543,44.88L39.407,44.88L39.407,47.07ZM6.568,12.041L59.111,12.041C60.925,12.041,62.395,13.511,62.395,15.325L62.395,59.111C62.395,60.925,60.925,62.395,59.111,62.395L6.568,62.395C4.754,62.395,3.284,60.925,3.284,59.111L3.284,15.325C3.284,13.511,4.754,12.041,6.568,12.041ZM6.568,9.852C3.545,9.852,1.095,12.302,1.095,15.325L1.095,59.111C1.095,62.134,3.545,64.584,6.568,64.584L59.111,64.584C62.134,64.584,64.584,62.134,64.584,59.111L64.584,15.325C64.584,12.302,62.134,9.852,59.111,9.852L6.568,9.852Z"/>
</g>
 </g>
</svg>
