<?xml version="1.0" encoding="UTF-8"?>
<!-- Generator: CustomSymbols v2.6.2.41 by @serious_bret https://bretlester.com/app_content/CustomSymbols/ -->
<!-- Guides: Left/Right -0.031/-0.031 Cap/Base 0.08/0.08 -->
<!-- Settings: RefScale 1.0 Min/Max Stroke Scales 0.5/2.21 -->
<!DOCTYPE svg
PUBLIC "-//W3C//DTD SVG 1.1//EN"
       "http://www.w3.org/Graphics/SVG/1.1/DTD/svg11.dtd">
<svg version="1.1" xmlns="http://www.w3.org/2000/svg" xmlns:xlink="http://www.w3.org/1999/xlink" width="3300" height="2200">
<![CDATA[<svg width="15" height="15" viewBox="0 0 15 15" fill="none" xmlns="http://www.w3.org/2000/svg">
<path d="M12.5 5.5V8.5C12.5 9.79822 12.0789 11.0614 11.3 12.1L10.7 12.9C9.94459 13.9072 8.75903 14.5 7.5 14.5C6.24098 14.5 5.05542 13.9072 4.3 12.9L3.7 12.1C2.92107 11.0614 2.50001 9.79822 2.50001 8.5V5.5M12.5 5.5C12.5 2.73858 10.2614 0.5 7.5 0.5C4.73858 0.5 2.50001 2.73858 2.50001 5.5M12.5 5.5L11.3787 4.37868C10.8161 3.81607 10.053 3.5 9.25736 3.5H5.74265C4.947 3.5 4.18393 3.81607 3.62133 4.37868L2.50001 5.5M5 8.5H6M9 8.5H10M6 6.5H2.50001C1.4841 6.5 0.738684 7.45472 0.985076 8.44029L1.1362 9.04479C1.35001 9.90003 2.11844 10.5 3.00001 10.5M9 6.5H12.5C13.5159 6.5 14.2613 7.45472 14.0149 8.44029L13.8638 9.04479C13.65 9.90003 12.8816 10.5 12 10.5M3.00001 11L3.83742 11.5024C4.92533 12.1552 6.17019 12.5 7.43889 12.5H7.56112C8.82982 12.5 10.0747 12.1552 11.1626 11.5025L12 11M5.5 12L6.5 11H8.5L9.5 12" stroke="#1D1929"/>
</svg>
]]>
 <g id="Notes">
  <rect height="2200" id="artboard" style="fill:white;opacity:1" width="3300" x="0" y="0"/>
  <line id="" style="fill:none;stroke:black;opacity:1;stroke-width:0.5;" x1="263" x2="3036" y1="292" y2="292"/>
  <text id="reftext1" style="stroke:none;fill:black;font-family:-apple-system,&quot;SF Pro Display&quot;,&quot;SF Pro Text&quot;,Helvetica,sans-serif;font-weight:bold;" transform="matrix(1 0 0 1 263 322)">Weight/Scale Variations</text>
  <text id="reftext2" style="stroke:none;fill:black;font-family:-apple-system,&quot;SF Pro Display&quot;,&quot;SF Pro Text&quot;,Helvetica,sans-serif;text-anchor:middle;" transform="matrix(1 0 0 1 559.711 322)">Ultralight</text>
  <text style="stroke:none;fill:black;font-family:-apple-system,&quot;SF Pro Display&quot;,&quot;SF Pro Text&quot;,Helvetica,sans-serif;text-anchor:middle;" transform="matrix(1 0 0 1 856.422 322)">Thin</text>
  <text style="stroke:none;fill:black;font-family:-apple-system,&quot;SF Pro Display&quot;,&quot;SF Pro Text&quot;,Helvetica,sans-serif;text-anchor:middle;" transform="matrix(1 0 0 1 1153.13 322)">Light</text>
  <text style="stroke:none;fill:black;font-family:-apple-system,&quot;SF Pro Display&quot;,&quot;SF Pro Text&quot;,Helvetica,sans-serif;text-anchor:middle;" transform="matrix(1 0 0 1 1449.84 322)">Regular</text>
  <text style="stroke:none;fill:black;font-family:-apple-system,&quot;SF Pro Display&quot;,&quot;SF Pro Text&quot;,Helvetica,sans-serif;text-anchor:middle;" transform="matrix(1 0 0 1 1746.56 322)">Medium</text>
  <text style="stroke:none;fill:black;font-family:-apple-system,&quot;SF Pro Display&quot;,&quot;SF Pro Text&quot;,Helvetica,sans-serif;text-anchor:middle;" transform="matrix(1 0 0 1 2043.27 322)">Semibold</text>
  <text style="stroke:none;fill:black;font-family:-apple-system,&quot;SF Pro Display&quot;,&quot;SF Pro Text&quot;,Helvetica,sans-serif;text-anchor:middle;" transform="matrix(1 0 0 1 2339.98 322)">Bold</text>
  <text style="stroke:none;fill:black;font-family:-apple-system,&quot;SF Pro Display&quot;,&quot;SF Pro Text&quot;,Helvetica,sans-serif;text-anchor:middle;" transform="matrix(1 0 0 1 2636.69 322)">Heavy</text>
  <text style="stroke:none;fill:black;font-family:-apple-system,&quot;SF Pro Display&quot;,&quot;SF Pro Text&quot;,Helvetica,sans-serif;text-anchor:middle;" transform="matrix(1 0 0 1 2933.4 322)">Black</text>
  <line id="" style="fill:none;stroke:black;opacity:1;stroke-width:0.5;" x1="263" x2="3036" y1="1903" y2="1903"/>
  <g id="" transform="matrix(1 0 0 1 263 1933)">
   <path d="M9.24805 0.830078C13.5547 0.830078 17.1387-2.74414 17.1387-7.05078C17.1387-11.3574 13.5449-14.9316 9.23828-14.9316C4.94141-14.9316 1.36719-11.3574 1.36719-7.05078C1.36719-2.74414 4.95117 0.830078 9.24805 0.830078ZM9.24805-0.654297C5.70312-0.654297 2.87109-3.49609 2.87109-7.05078C2.87109-10.6055 5.69336-13.4473 9.23828-13.4473C12.793-13.4473 15.6348-10.6055 15.6445-7.05078C15.6543-3.49609 12.8027-0.654297 9.24805-0.654297ZM6.39648-6.31836L8.50586-6.31836L8.50586-4.19922C8.50586-3.75977 8.79883-3.45703 9.22852-3.45703C9.67773-3.45703 9.9707-3.75977 9.9707-4.19922L9.9707-6.31836L12.0996-6.31836C12.5391-6.31836 12.8418-6.61133 12.8418-7.04102C12.8418-7.48047 12.5391-7.7832 12.0996-7.7832L9.9707-7.7832L9.9707-9.89258C9.9707-10.3418 9.67773-10.6445 9.22852-10.6445C8.79883-10.6445 8.50586-10.3418 8.50586-9.89258L8.50586-7.7832L6.39648-7.7832C5.94727-7.7832 5.64453-7.48047 5.64453-7.04102C5.64453-6.61133 5.94727-6.31836 6.39648-6.31836Z"/>
  </g>
  <g id="" transform="matrix(1 0 0 1 281.506 1933)">
   <path d="M11.709 2.91016C17.1582 2.91016 21.6699-1.61133 21.6699-7.05078C21.6699-12.5 17.1484-17.0117 11.6992-17.0117C6.25977-17.0117 1.74805-12.5 1.74805-7.05078C1.74805-1.61133 6.26953 2.91016 11.709 2.91016ZM11.709 1.25C7.09961 1.25 3.41797-2.44141 3.41797-7.05078C3.41797-11.6602 7.08984-15.3516 11.6992-15.3516C16.3086-15.3516 20-11.6602 20.0098-7.05078C20.0195-2.44141 16.3184 1.25 11.709 1.25ZM7.98828-6.23047L10.8789-6.23047L10.8789-3.32031C10.8789-2.83203 11.2109-2.5 11.6895-2.5C12.1777-2.5 12.5195-2.83203 12.5195-3.32031L12.5195-6.23047L15.4297-6.23047C15.918-6.23047 16.25-6.5625 16.25-7.04102C16.25-7.5293 15.918-7.87109 15.4297-7.87109L12.5195-7.87109L12.5195-10.7617C12.5195-11.2695 12.1777-11.6016 11.6895-11.6016C11.2109-11.6016 10.8789-11.2598 10.8789-10.7617L10.8789-7.87109L7.98828-7.87109C7.48047-7.87109 7.14844-7.5293 7.14844-7.04102C7.14844-6.5625 7.49023-6.23047 7.98828-6.23047Z"/>
  </g>
  <g id="" transform="matrix(1 0 0 1 304.924 1933)">
   <path d="M14.9707 5.66406C21.9336 5.66406 27.6953-0.0976562 27.6953-7.05078C27.6953-14.0137 21.9238-19.7754 14.9609-19.7754C8.00781-19.7754 2.25586-14.0137 2.25586-7.05078C2.25586-0.0976562 8.01758 5.66406 14.9707 5.66406ZM14.9707 3.84766C8.93555 3.84766 4.08203-1.01562 4.08203-7.05078C4.08203-13.0957 8.92578-17.9492 14.9609-17.9492C21.0059-17.9492 25.8594-13.0957 25.8691-7.05078C25.8789-1.01562 21.0156 3.84766 14.9707 3.84766ZM10.0586-6.14258L14.0625-6.14258L14.0625-2.12891C14.0625-1.5918 14.4336-1.2207 14.9512-1.2207C15.4883-1.2207 15.8594-1.5918 15.8594-2.12891L15.8594-6.14258L19.8828-6.14258C20.4102-6.14258 20.791-6.51367 20.791-7.03125C20.791-7.56836 20.4199-7.94922 19.8828-7.94922L15.8594-7.94922L15.8594-11.9531C15.8594-12.5098 15.4883-12.8809 14.9512-12.8809C14.4336-12.8809 14.0625-12.5 14.0625-11.9531L14.0625-7.94922L10.0586-7.94922C9.50195-7.94922 9.13086-7.56836 9.13086-7.03125C9.13086-6.51367 9.51172-6.14258 10.0586-6.14258Z"/>
  </g>
  <text style="stroke:none;fill:black;font-family:-apple-system,&quot;SF Pro Display&quot;,&quot;SF Pro Text&quot;,Helvetica,sans-serif;font-weight:bold;" transform="matrix(1 0 0 1 263 1953)">Design Variations</text>
  <text style="stroke:none;fill:black;font-family:-apple-system,&quot;SF Pro Display&quot;,&quot;SF Pro Text&quot;,Helvetica,sans-serif;" transform="matrix(1 0 0 1 263 1971)">Symbols are supported in up to nine weights and three scales.</text>
  <text style="stroke:none;fill:black;font-family:-apple-system,&quot;SF Pro Display&quot;,&quot;SF Pro Text&quot;,Helvetica,sans-serif;" transform="matrix(1 0 0 1 263 1989)">For optimal layout with text and other symbols, vertically align</text>
  <text style="stroke:none;fill:black;font-family:-apple-system,&quot;SF Pro Display&quot;,&quot;SF Pro Text&quot;,Helvetica,sans-serif;" transform="matrix(1 0 0 1 263 2007)">symbols with the adjacent text.</text>
  <line id="" style="fill:none;stroke:#00AEEF;stroke-width:0.5;opacity:1.0;" x1="776" x2="776" y1="1919" y2="1933"/>
  <g id="" transform="matrix(1 0 0 1 776 1933)">
   <path d="M3.31055 0.126953C3.82812 0.126953 4.08203-0.0683594 4.26758-0.605469L5.52734-4.0625L11.2891-4.0625L12.5488-0.605469C12.7344-0.0683594 12.9883 0.126953 13.4961 0.126953C14.0137 0.126953 14.3457-0.185547 14.3457-0.673828C14.3457-0.839844 14.3164-0.986328 14.2383-1.20117L9.6582-13.3887C9.43359-13.9941 9.0332-14.2871 8.4082-14.2871C7.80273-14.2871 7.39258-13.9941 7.17773-13.3984L2.59766-1.19141C2.51953-0.976562 2.49023-0.830078 2.49023-0.664062C2.49023-0.175781 2.80273 0.126953 3.31055 0.126953ZM6.00586-5.53711L8.37891-12.1094L8.42773-12.1094L10.8008-5.53711Z"/>
  </g>
  <line id="" style="fill:none;stroke:#00AEEF;stroke-width:0.5;opacity:1.0;" x1="792.836" x2="792.836" y1="1919" y2="1933"/>
  <text style="stroke:none;fill:black;font-family:-apple-system,&quot;SF Pro Display&quot;,&quot;SF Pro Text&quot;,Helvetica,sans-serif;font-weight:bold;" transform="matrix(1 0 0 1 776 1953)">Margins</text>
  <text style="stroke:none;fill:black;font-family:-apple-system,&quot;SF Pro Display&quot;,&quot;SF Pro Text&quot;,Helvetica,sans-serif;" transform="matrix(1 0 0 1 776 1971)">Leading and trailing margins on the left and right side of each symbol</text>
  <text style="stroke:none;fill:black;font-family:-apple-system,&quot;SF Pro Display&quot;,&quot;SF Pro Text&quot;,Helvetica,sans-serif;" transform="matrix(1 0 0 1 776 1989)">can be adjusted by modifying the x-location of the margin guidelines.</text>
  <text style="stroke:none;fill:black;font-family:-apple-system,&quot;SF Pro Display&quot;,&quot;SF Pro Text&quot;,Helvetica,sans-serif;" transform="matrix(1 0 0 1 776 2007)">Modifications are automatically applied proportionally to all</text>
  <text style="stroke:none;fill:black;font-family:-apple-system,&quot;SF Pro Display&quot;,&quot;SF Pro Text&quot;,Helvetica,sans-serif;" transform="matrix(1 0 0 1 776 2025)">scales and weights.</text>
  <g id="" transform="matrix(1 0 0 1 1289 1933)">
   <path d="M2.8418 1.86523L4.54102 3.57422C5.40039 4.44336 6.38672 4.38477 7.31445 3.35938L17.4902-7.85156C17.7539-7.76367 18.0273-7.7832 18.3398-7.8418L19.4043-8.03711L20.0684-7.36328L20.0293-6.80664C19.9902-6.30859 20.1172-5.92773 20.6055-5.44922L21.3672-4.70703C21.8457-4.22852 22.4609-4.19922 22.9297-4.66797L25.8398-7.58789C26.3086-8.05664 26.2891-8.65234 25.8105-9.13086L25.0391-9.89258C24.5605-10.3711 24.1895-10.5273 23.7109-10.4883L23.1348-10.4395L22.4902-11.0742L22.7344-12.1973C22.8613-12.7637 22.7051-13.2031 22.1191-13.7891L19.9219-15.9766C16.582-19.2969 12.1484-19.2188 9.25781-16.3281C8.83789-15.918 8.80859-15.3418 9.04297-14.9512C9.27734-14.5898 9.73633-14.3555 10.3809-14.5215C11.8457-14.8633 13.3691-14.9219 14.7949-13.9844L14.209-12.5293C14.0137-12.0508 13.9844-11.6504 14.1113-11.2891L3.04688-0.898438C2.06055 0.0195312 1.98242 0.996094 2.8418 1.86523ZM10.752-15.957C13.1836-17.7344 16.4746-17.4316 18.7012-15.2051L21.1328-12.793C21.3672-12.5586 21.4062-12.373 21.3379-12.0312L21.0156-10.5469L22.5195-9.0625L23.5059-9.12109C23.7598-9.13086 23.8379-9.11133 24.0332-8.91602L24.6094-8.33984L22.168-5.89844L21.5918-6.47461C21.3965-6.66992 21.3672-6.74805 21.377-7.01172L21.4453-7.98828L19.9512-9.47266L18.4277-9.21875C18.1055-9.15039 17.959-9.17969 17.7148-9.41406L15.7129-11.416C15.459-11.6504 15.4297-11.8164 15.5859-12.1875L16.4648-14.2773C14.9023-15.7324 12.8711-16.3574 10.8398-15.7617C10.6836-15.7227 10.625-15.8496 10.752-15.957ZM5.27344 2.30469L4.10156 1.14258C3.63281 0.683594 3.74023 0.341797 4.14062-0.0195312L14.9512-10.1953L16.416-8.71094L6.42578 2.27539C6.07422 2.67578 5.74219 2.77344 5.27344 2.30469Z"/>
  </g>
  <text style="stroke:none;fill:black;font-family:-apple-system,&quot;SF Pro Display&quot;,&quot;SF Pro Text&quot;,Helvetica,sans-serif;font-weight:bold;" transform="matrix(1 0 0 1 1289 1953)">Exporting</text>
  <text style="stroke:none;fill:black;font-family:-apple-system,&quot;SF Pro Display&quot;,&quot;SF Pro Text&quot;,Helvetica,sans-serif;" transform="matrix(1 0 0 1 1289 1971)">Symbols should be outlined when exporting to ensure the</text>
  <text style="stroke:none;fill:black;font-family:-apple-system,&quot;SF Pro Display&quot;,&quot;SF Pro Text&quot;,Helvetica,sans-serif;" transform="matrix(1 0 0 1 1289 1989)">design is preserved when submitting to Xcode.</text>
  <text id="template-version" style="stroke:none;fill:black;font-family:-apple-system,&quot;SF Pro Display&quot;,&quot;SF Pro Text&quot;,Helvetica,sans-serif;text-anchor:end;" transform="matrix(1 0 0 1 3036 1933)">Template v.2.0</text>
  <text style="stroke:none;fill:black;font-family:-apple-system,&quot;SF Pro Display&quot;,&quot;SF Pro Text&quot;,Helvetica,sans-serif;text-anchor:end;" transform="matrix(1 0 0 1 3036 1951)">Requires Xcode 12 or greater</text>
  <text style="stroke:none;fill:black;font-family:-apple-system,&quot;SF Pro Display&quot;,&quot;SF Pro Text&quot;,Helvetica,sans-serif;" transform="matrix(1 0 0 1 263 726)">Small</text>
  <text style="stroke:none;fill:black;font-family:-apple-system,&quot;SF Pro Display&quot;,&quot;SF Pro Text&quot;,Helvetica,sans-serif;" transform="matrix(1 0 0 1 263 1156)">Medium</text>
  <text style="stroke:none;fill:black;font-family:-apple-system,&quot;SF Pro Display&quot;,&quot;SF Pro Text&quot;,Helvetica,sans-serif;" transform="matrix(1 0 0 1 263 1586)">Large</text>
 </g>
 <g id="Guides">
  <g id="H-reference" style="fill:#27AAE1;stroke:none;" transform="matrix(1 0 0 1 339 696)">
   <path d="M0.976562 0L3.66211 0L12.9883-24.4629L45.752-24.4629L55.127 0L57.7637 0L30.6152-70.459L28.125-70.459ZM29.3457-67.1387L29.4434-67.1387L44.873-26.709L13.8672-26.709Z"/>
  </g>
  <line id="Baseline-S" style="fill:none;stroke:#27AAE1;opacity:1;stroke-width:0.5;" x1="263" x2="3036" y1="696" y2="696"/>
  <line id="Capline-S" style="fill:none;stroke:#27AAE1;opacity:1;stroke-width:0.5;" x1="263" x2="3036" y1="625.541" y2="625.541"/>
  <g id="H-reference" style="fill:#27AAE1;stroke:none;" transform="matrix(1 0 0 1 339 1126)">
   <path d="M0.976562 0L3.66211 0L12.9883-24.4629L45.752-24.4629L55.127 0L57.7637 0L30.6152-70.459L28.125-70.459ZM29.3457-67.1387L29.4434-67.1387L44.873-26.709L13.8672-26.709Z"/>
  </g>
  <line id="Baseline-M" style="fill:none;stroke:#27AAE1;opacity:1;stroke-width:0.5;" x1="263" x2="3036" y1="1126" y2="1126"/>
  <line id="Capline-M" style="fill:none;stroke:#27AAE1;opacity:1;stroke-width:0.5;" x1="263" x2="3036" y1="1055.54" y2="1055.54"/>
  <g id="H-reference" style="fill:#27AAE1;stroke:none;" transform="matrix(1 0 0 1 339 1556)">
   <path d="M0.976562 0L3.66211 0L12.9883-24.4629L45.752-24.4629L55.127 0L57.7637 0L30.6152-70.459L28.125-70.459ZM29.3457-67.1387L29.4434-67.1387L44.873-26.709L13.8672-26.709Z"/>
  </g>
  <line id="Baseline-L" style="fill:none;stroke:#27AAE1;opacity:1;stroke-width:0.5;" x1="263" x2="3036" y1="1556" y2="1556"/>
  <line id="Capline-L" style="fill:none;stroke:#27AAE1;opacity:1;stroke-width:0.5;" x1="263" x2="3036" y1="1485.54" y2="1485.54"/>
  <line id="left-margin" x1="1406.5892389787946" x2="1406.5892389787946" y1="1030.79" y2="1150.12" style="fill:none;stroke:#00AEEF;stroke-width:0.5;opacity:1.0;"/>
  <line id="right-margin" x1="1495.6707610212052" x2="1495.6707610212052" y1="1030.79" y2="1150.12" style="fill:none;stroke:#00AEEF;stroke-width:0.5;opacity:1.0;"/>
 </g>
 <g id="Symbols">
  <g id="Black-L" transform="matrix(1.0,0.0,0.0,1.0,2880.576815708705,1466.6668352399554)">  <path stroke-linecap="butt" fill-rule="nonzero" stroke-linejoin="miter" stroke-width="1px" fill="#000000" stroke-dasharray="none" stroke-opacity="1" fill-opacity="1" stroke="none" stroke-miterlimit="4" d="M82.201,39.676L82.201,61.317C82.201,68.957,79.723,76.391,75.138,82.504L70.81,88.275C66.866,93.533,60.676,96.628,54.103,96.628C47.53,96.628,41.34,93.533,37.396,88.275L33.068,82.504C28.484,76.391,26.006,68.957,26.006,61.317L26.006,39.676L10.063,39.676L10.063,61.317C10.063,72.407,13.66,83.197,20.314,92.069L24.642,97.84C31.597,107.113,42.512,112.571,54.103,112.571C65.694,112.571,76.609,107.113,83.564,97.84L87.892,92.069C94.546,83.197,98.143,72.406,98.143,61.317L98.143,39.676L82.201,39.676ZM98.143,39.676C98.143,15.353,78.426,-4.364,54.103,-4.364C29.781,-4.364,10.063,15.353,10.063,39.676L26.006,39.676C26.006,24.158,38.585,11.578,54.103,11.578C69.621,11.578,82.201,24.158,82.201,39.676L98.143,39.676ZM95.809,34.039L87.72,25.95C82.166,20.397,74.634,17.277,66.78,17.277L41.426,17.277C33.572,17.277,26.04,20.397,20.487,25.95L12.398,34.039L23.671,45.312L31.76,37.223C34.323,34.66,37.801,33.219,41.426,33.219L66.78,33.219C70.406,33.219,73.883,34.66,76.447,37.223L84.535,45.312L95.809,34.039ZM36.069,69.288L43.283,69.288L43.283,53.346L36.069,53.346L36.069,69.288ZM64.924,69.288L72.138,69.288L72.138,53.346L64.924,53.346L64.924,69.288ZM43.283,38.918L18.034,38.918C5.52,38.918,-3.662,50.679,-0.627,62.82L0.463,67.18C2.893,76.898,11.624,83.716,21.641,83.716L21.641,67.773C18.94,67.773,16.585,65.935,15.929,63.314L14.839,58.953C14.32,56.874,15.892,54.861,18.034,54.861L43.283,54.861L43.283,38.918ZM64.924,54.861L90.172,54.861C92.315,54.861,93.887,56.874,93.367,58.953L92.277,63.314C91.622,65.935,89.267,67.773,86.565,67.773L86.565,83.716C96.582,83.716,105.314,76.898,107.743,67.18L108.833,62.819C111.869,50.679,102.686,38.918,90.172,38.918L64.924,38.918L64.924,54.861ZM17.54,86.187L23.581,89.811C32.667,95.263,43.065,98.143,53.662,98.143L54.544,98.143C65.141,98.143,75.539,95.263,84.625,89.812L90.667,86.186L82.464,72.516L76.423,76.141C69.814,80.106,62.251,82.201,54.544,82.201L53.662,82.201C45.955,82.201,38.392,80.106,31.784,76.14L25.742,72.516L17.54,86.187ZM45.312,92.202L52.526,84.988L46.889,87.323L61.317,87.323L55.68,84.988L62.894,92.202L74.167,80.929L66.953,73.715L64.619,71.38L61.317,71.38L46.889,71.38L43.588,71.38L41.253,73.715L34.039,80.929L45.312,92.202Z"/>
</g>
  <g id="Heavy-L" transform="matrix(1.0,0.0,0.0,1.0,2583.866815708705,1466.6668352399554)">  <path fill-opacity="1" stroke="none" stroke-linecap="butt" stroke-dasharray="none" stroke-miterlimit="4" fill-rule="nonzero" stroke-opacity="1" fill="#000000" stroke-linejoin="miter" stroke-width="1px" d="M83.074,39.676L83.074,61.317C83.074,69.146,80.534,76.764,75.837,83.028L71.509,88.798C67.4,94.277,60.951,97.501,54.103,97.501C47.255,97.501,40.807,94.277,36.698,88.798L32.37,83.027C27.672,76.764,25.133,69.146,25.133,61.317L25.133,39.676L10.936,39.676L10.936,61.317C10.936,72.218,14.472,82.825,21.012,91.545L25.34,97.316C32.131,106.37,42.787,111.698,54.103,111.698C65.42,111.698,76.076,106.37,82.866,97.317L87.194,91.545C93.735,82.824,97.27,72.218,97.27,61.317L97.27,39.676L83.074,39.676ZM97.27,39.676C97.27,15.835,77.944,-3.491,54.103,-3.491C30.263,-3.491,10.936,15.835,10.936,39.676L25.133,39.676C25.133,23.676,38.103,10.705,54.103,10.705C70.103,10.705,83.074,23.676,83.074,39.676L97.27,39.676ZM95.191,34.656L87.103,26.568C81.713,21.178,74.403,18.15,66.78,18.15L41.426,18.15C33.804,18.15,26.494,21.178,21.104,26.568L13.015,34.656L23.054,44.695L31.143,36.606C33.87,33.879,37.569,32.346,41.426,32.346L66.78,32.346C70.637,32.346,74.337,33.879,77.064,36.606L85.153,44.695L95.191,34.656ZM36.069,68.415L43.283,68.415L43.283,54.219L36.069,54.219L36.069,68.415ZM64.924,68.415L72.138,68.415L72.138,54.219L64.924,54.219L64.924,68.415ZM43.283,39.791L18.034,39.791C6.088,39.791,-2.678,51.018,0.22,62.608L1.31,66.969C3.642,76.298,12.025,82.843,21.641,82.843L21.641,68.646C18.539,68.646,15.835,66.535,15.083,63.525L13.993,59.165C13.335,56.535,15.324,53.988,18.034,53.988L43.283,53.988L43.283,39.791ZM64.924,53.988L90.172,53.988C92.882,53.988,94.871,56.535,94.214,59.165L93.124,63.526C92.371,66.535,89.667,68.646,86.565,68.646L86.565,82.843C96.182,82.843,104.564,76.298,106.897,66.968L107.987,62.608C110.884,51.018,102.118,39.791,90.172,39.791L64.924,39.791L64.924,53.988ZM17.99,85.438L24.03,89.062C32.981,94.433,43.223,97.27,53.662,97.27L54.544,97.27C64.983,97.27,75.225,94.433,84.176,89.063L90.217,85.438L82.913,73.265L76.872,76.89C70.128,80.936,62.41,83.074,54.544,83.074L53.662,83.074C45.797,83.074,38.079,80.936,31.335,76.889L25.293,73.264L17.99,85.438ZM44.695,91.584L51.909,84.371L46.889,86.45L61.317,86.45L56.298,84.371L63.511,91.584L73.55,81.546L66.336,74.332L64.257,72.253L61.317,72.253L46.889,72.253L43.949,72.253L41.87,74.332L34.656,81.546L44.695,91.584Z"/>
</g>
  <g id="Bold-L" transform="matrix(1.0,0.0,0.0,1.0,2287.156815708705,1466.6668352399554)">  <path stroke-miterlimit="4" stroke-width="1px" stroke-linejoin="miter" stroke-linecap="butt" stroke="none" fill-opacity="1" stroke-opacity="1" fill-rule="nonzero" fill="#000000" stroke-dasharray="none" d="M83.947,39.676L83.947,61.317C83.947,69.335,81.346,77.136,76.535,83.551L72.207,89.322C67.933,95.02,61.226,98.374,54.103,98.374C46.981,98.374,40.273,95.02,35.999,89.322L31.671,83.551C26.86,77.137,24.26,69.335,24.26,61.317L24.26,39.676L11.809,39.676L11.809,61.317C11.809,72.029,15.283,82.452,21.71,91.022L26.039,96.793C32.664,105.626,43.062,110.825,54.103,110.825C65.145,110.825,75.542,105.626,82.168,96.793L86.496,91.022C92.923,82.452,96.397,72.029,96.397,61.317L96.397,39.676L83.947,39.676ZM96.397,39.676C96.397,16.317,77.462,-2.619,54.103,-2.619C30.745,-2.619,11.809,16.317,11.809,39.676L24.26,39.676C24.26,23.194,37.621,9.832,54.103,9.832C70.585,9.832,83.947,23.194,83.947,39.676L96.397,39.676ZM94.574,35.274L86.485,27.185C81.259,21.959,74.171,19.023,66.78,19.023L41.426,19.023C34.035,19.023,26.947,21.959,21.721,27.185L13.632,35.274L22.437,44.078L30.525,35.989C33.416,33.098,37.338,31.474,41.426,31.474L66.78,31.474C70.869,31.474,74.79,33.098,77.681,35.989L85.77,44.078L94.574,35.274ZM36.069,67.542L43.283,67.542L43.283,55.091L36.069,55.091L36.069,67.542ZM64.924,67.542L72.138,67.542L72.138,55.091L64.924,55.091L64.924,67.542ZM43.283,40.664L18.034,40.664C6.656,40.664,-1.693,51.357,1.067,62.396L2.157,66.757C4.392,75.698,12.425,81.97,21.641,81.97L21.641,69.519C18.139,69.519,15.085,67.135,14.236,63.737L13.146,59.376C12.351,56.196,14.756,53.115,18.034,53.115L43.283,53.115L43.283,40.664ZM64.924,53.115L90.172,53.115C93.45,53.115,95.856,56.196,95.061,59.376L93.97,63.737C93.121,67.135,90.068,69.519,86.565,69.519L86.565,81.97C95.781,81.97,103.815,75.698,106.05,66.757L107.14,62.396C109.899,51.357,101.551,40.664,90.172,40.664L64.924,40.664L64.924,53.115ZM18.439,84.69L24.479,88.314C33.294,93.603,43.382,96.397,53.662,96.397L54.544,96.397C64.824,96.397,74.912,93.604,83.727,88.315L89.768,84.689L83.362,74.013L77.321,77.638C70.441,81.766,62.568,83.947,54.544,83.947L53.662,83.947C45.638,83.947,37.766,81.766,30.885,77.637L24.844,74.013L18.439,84.69ZM44.078,90.967L51.292,83.753L46.889,85.577L61.317,85.577L56.915,83.753L64.129,90.967L72.933,82.163L65.719,74.949L63.896,73.126L61.317,73.126L46.889,73.126L44.311,73.126L42.487,74.949L35.274,82.163L44.078,90.967Z"/>
</g>
  <g id="Semibold-L" transform="matrix(1.0,0.0,0.0,1.0,1990.4468157087053,1466.6668352399554)">  <path stroke-width="1px" fill-rule="nonzero" fill="#000000" stroke-linecap="butt" stroke="none" stroke-opacity="1" stroke-linejoin="miter" stroke-dasharray="none" fill-opacity="1" stroke-miterlimit="4" d="M84.819,39.676L84.819,61.317C84.819,69.524,82.157,77.509,77.233,84.075L72.905,89.846C68.467,95.764,61.501,99.247,54.103,99.247C46.706,99.247,39.74,95.764,35.301,89.846L30.973,84.075C26.049,77.509,23.387,69.524,23.387,61.317L23.387,39.676L12.682,39.676L12.682,61.317C12.682,71.84,16.095,82.079,22.409,90.498L26.737,96.269C33.197,104.883,43.336,109.952,54.103,109.952C64.87,109.952,75.009,104.883,81.469,96.269L85.798,90.498C92.111,82.079,95.525,71.84,95.525,61.317L95.525,39.676L84.819,39.676ZM95.525,39.676C95.525,16.799,76.979,-1.746,54.103,-1.746C31.227,-1.746,12.682,16.799,12.682,39.676L23.387,39.676C23.387,22.712,37.139,8.959,54.103,8.959C71.067,8.959,84.819,22.712,84.819,39.676L95.525,39.676ZM93.957,35.891L85.868,27.802C80.806,22.74,73.94,19.896,66.78,19.896L41.426,19.896C34.267,19.896,27.401,22.74,22.338,27.802L14.25,35.891L21.819,43.461L29.908,35.372C32.963,32.317,37.106,30.601,41.426,30.601L66.78,30.601C71.1,30.601,75.244,32.317,78.298,35.372L86.387,43.461L93.957,35.891ZM36.069,66.67L43.283,66.67L43.283,55.964L36.069,55.964L36.069,66.67ZM64.924,66.67L72.138,66.67L72.138,55.964L64.924,55.964L64.924,66.67ZM43.283,41.537L18.034,41.537C7.224,41.537,-0.709,51.696,1.913,62.184L3.003,66.545C5.142,75.097,12.826,81.097,21.641,81.097L21.641,70.392C17.738,70.392,14.336,67.735,13.389,63.949L12.299,59.588C11.366,55.857,14.188,52.242,18.034,52.242L43.283,52.242L43.283,41.537ZM64.924,52.242L90.172,52.242C94.018,52.242,96.84,55.857,95.907,59.588L94.817,63.949C93.871,67.736,90.469,70.392,86.565,70.392L86.565,81.097C95.381,81.097,103.065,75.097,105.203,66.545L106.293,62.184C108.915,51.696,100.983,41.537,90.172,41.537L64.924,41.537L64.924,52.242ZM18.888,83.941L24.929,87.565C33.608,92.773,43.54,95.525,53.662,95.525L54.544,95.525C64.666,95.525,74.598,92.774,83.278,87.566L89.319,83.941L83.811,74.762L77.77,78.387C70.754,82.596,62.726,84.819,54.544,84.819L53.662,84.819C45.48,84.819,37.452,82.596,30.436,78.386L24.395,74.761L18.888,83.941ZM43.461,90.35L50.674,83.136L46.889,84.704L61.317,84.704L57.532,83.136L64.746,90.35L72.316,82.78L65.102,75.566L63.534,73.999L61.317,73.999L46.889,73.999L44.672,73.999L43.105,75.566L35.891,82.78L43.461,90.35Z"/>
</g>
  <g id="Medium-L" transform="matrix(1.0,0.0,0.0,1.0,1693.7368157087053,1466.6668352399554)">  <path stroke-dasharray="none" fill-rule="nonzero" stroke-linecap="butt" stroke-opacity="1" stroke-miterlimit="4" stroke-width="1px" stroke="none" stroke-linejoin="miter" fill="#000000" fill-opacity="1" d="M85.692,39.676L85.692,61.317C85.692,69.712,82.969,77.882,77.932,84.599L73.603,90.37C69,96.507,61.775,100.12,54.103,100.12C46.431,100.12,39.206,96.507,34.603,90.37L30.275,84.599C25.237,77.882,22.514,69.713,22.514,61.317L22.514,39.676L13.555,39.676L13.555,61.317C13.555,71.651,16.907,81.707,23.107,89.974L27.435,95.745C33.731,104.139,43.611,109.079,54.103,109.079C64.595,109.079,74.476,104.139,80.771,95.745L85.099,89.974C91.3,81.706,94.652,71.651,94.652,61.317L94.652,39.676L85.692,39.676ZM94.652,39.676C94.652,17.281,76.497,-0.873,54.103,-0.873C31.709,-0.873,13.555,17.281,13.555,39.676L22.514,39.676C22.514,22.23,36.657,8.087,54.103,8.087C71.549,8.087,85.692,22.23,85.692,39.676L94.652,39.676ZM93.34,36.508L85.251,28.419C80.352,23.52,73.708,20.768,66.78,20.768L41.426,20.768C34.498,20.768,27.854,23.52,22.956,28.419L14.867,36.508L21.202,42.843L29.291,34.754C32.509,31.536,36.875,29.728,41.426,29.728L66.78,29.728C71.332,29.728,75.697,31.536,78.916,34.754L87.004,42.843L93.34,36.508ZM36.069,65.797L43.283,65.797L43.283,56.837L36.069,56.837L36.069,65.797ZM64.924,65.797L72.138,65.797L72.138,56.837L64.924,56.837L64.924,65.797ZM43.283,42.41L18.034,42.41C7.792,42.41,0.276,52.036,2.76,61.973L3.85,66.333C5.891,74.497,13.226,80.224,21.641,80.224L21.641,71.265C17.338,71.265,13.586,68.336,12.542,64.16L11.452,59.8C10.382,55.517,13.62,51.369,18.034,51.369L43.283,51.369L43.283,42.41ZM64.924,51.369L90.172,51.369C94.586,51.369,97.825,55.517,96.754,59.8L95.664,64.161C94.62,68.336,90.869,71.265,86.565,71.265L86.565,80.224C94.98,80.224,102.315,74.497,104.356,66.333L105.446,61.973C107.93,52.036,100.415,42.41,90.172,42.41L64.924,42.41L64.924,51.369ZM19.337,83.193L25.378,86.817C33.921,91.944,43.698,94.652,53.662,94.652L54.544,94.652C64.508,94.652,74.285,91.944,82.829,86.818L88.87,83.193L84.26,75.51L78.219,79.135C71.068,83.426,62.884,85.692,54.544,85.692L53.662,85.692C45.322,85.692,37.139,83.425,29.987,79.134L23.946,75.51L19.337,83.193ZM42.843,89.733L50.057,82.519L46.889,83.831L61.317,83.831L58.149,82.519L65.363,89.733L71.698,83.397L64.485,76.184L63.173,74.872L61.317,74.872L46.889,74.872L45.034,74.872L43.722,76.184L36.508,83.397L42.843,89.733Z"/>
</g>
  <g id="Regular-L" transform="matrix(1.0,0.0,0.0,1.0,1397.0268157087053,1466.6668352399554)">  <path stroke-width="1px" stroke-miterlimit="4" stroke-linecap="butt" stroke-dasharray="none" fill-opacity="1" stroke-opacity="1" fill-rule="nonzero" stroke="none" fill="#000000" stroke-linejoin="miter" d="M86.565,39.676L86.565,61.317C86.565,69.901,83.781,78.254,78.63,85.122L74.302,90.893C69.533,97.251,62.05,100.993,54.103,100.993C46.156,100.993,38.673,97.251,33.905,90.893L29.576,85.122C24.426,78.254,21.641,69.902,21.641,61.317L21.641,39.676L14.428,39.676L14.428,61.317C14.428,71.462,17.718,81.334,23.805,89.451L28.134,95.222C34.264,103.396,43.886,108.206,54.103,108.206C64.321,108.206,73.942,103.396,80.073,95.222L84.401,89.451C90.488,81.334,93.779,71.462,93.779,61.317L93.779,39.676L86.565,39.676ZM93.779,39.676C93.779,17.763,76.015,0,54.103,0C32.191,0,14.428,17.763,14.428,39.676L21.641,39.676C21.641,21.747,36.175,7.214,54.103,7.214C72.031,7.214,86.565,21.748,86.565,39.676L93.779,39.676ZM92.722,37.125L84.634,29.036C79.899,24.301,73.477,21.641,66.78,21.641L41.426,21.641C34.73,21.641,28.308,24.301,23.573,29.036L15.484,37.125L20.585,42.226L28.674,34.137C32.056,30.755,36.643,28.855,41.426,28.855L66.78,28.855C71.563,28.855,76.151,30.755,79.533,34.137L87.622,42.226L92.722,37.125ZM36.069,64.924L43.283,64.924L43.283,57.71L36.069,57.71L36.069,64.924ZM64.924,64.924L72.138,64.924L72.138,57.71L64.924,57.71L64.924,64.924ZM43.283,43.283L18.034,43.283C8.359,43.283,1.26,52.375,3.607,61.761L4.697,66.122C6.641,73.897,13.627,79.351,21.641,79.351L21.641,72.138C16.937,72.138,12.836,68.936,11.695,64.372L10.605,60.011C9.397,55.178,13.052,50.496,18.034,50.496L43.283,50.496L43.283,43.283ZM64.924,50.496L90.172,50.496C95.154,50.496,98.809,55.178,97.601,60.011L96.511,64.372C95.37,68.936,91.27,72.138,86.565,72.138L86.565,79.351C94.58,79.351,101.566,73.897,103.509,66.122L104.599,61.761C106.946,52.375,99.847,43.283,90.172,43.283L64.924,43.283L64.924,50.496ZM19.786,82.444L25.827,86.068C34.235,91.114,43.856,93.779,53.662,93.779L54.544,93.779C64.35,93.779,73.971,91.114,82.38,86.069L88.421,82.444L84.709,76.259L78.668,79.883C71.381,84.255,63.042,86.565,54.544,86.565L53.662,86.565C45.164,86.565,36.825,84.255,29.538,79.883L23.497,76.258L19.786,82.444ZM42.226,89.116L49.44,81.902L46.889,82.958L61.317,82.958L58.766,81.902L65.98,89.116L71.081,84.015L63.867,76.801L62.811,75.744L61.317,75.744L46.889,75.744L45.395,75.744L44.339,76.801L37.125,84.015L42.226,89.116Z"/>
</g>
  <g id="Light-L" transform="matrix(1.0,0.0,0.0,1.0,1100.3168157087055,1466.6668352399554)">  <path fill="#000000" fill-opacity="1" stroke="none" stroke-linecap="butt" stroke-dasharray="none" stroke-width="1px" stroke-miterlimit="4" stroke-opacity="1" stroke-linejoin="miter" fill-rule="nonzero" d="M87.166,39.676L87.166,61.317C87.166,70.031,84.34,78.511,79.111,85.483L74.783,91.254C69.901,97.763,62.239,101.594,54.103,101.594C45.967,101.594,38.306,97.763,33.424,91.254L29.095,85.483C23.867,78.511,21.04,70.032,21.04,61.317L21.04,39.676L15.029,39.676L15.029,61.317C15.029,71.332,18.277,81.077,24.286,89.09L28.615,94.861C34.632,102.884,44.075,107.605,54.103,107.605C64.131,107.605,73.575,102.884,79.592,94.861L83.92,89.09C89.929,81.077,93.178,71.332,93.178,61.317L93.178,39.676L87.166,39.676ZM93.178,39.676C93.178,18.095,75.683,0.601,54.103,0.601C32.523,0.601,15.029,18.095,15.029,39.676L21.04,39.676C21.04,21.415,35.843,6.613,54.103,6.613C72.363,6.613,87.166,21.416,87.166,39.676L93.178,39.676ZM92.297,37.55L84.209,29.461C79.586,24.839,73.317,22.242,66.78,22.242L41.426,22.242C34.889,22.242,28.62,24.839,23.998,29.461L15.909,37.55L20.16,41.801L28.249,33.712C31.744,30.217,36.484,28.254,41.426,28.254L66.78,28.254C71.723,28.254,76.463,30.217,79.958,33.712L88.047,41.801L92.297,37.55ZM36.069,64.323L43.283,64.323L43.283,58.311L36.069,58.311L36.069,64.323ZM64.924,64.323L72.138,64.323L72.138,58.311L64.924,58.311L64.924,64.323ZM43.283,43.884L18.034,43.884C8.751,43.884,1.938,52.608,4.19,61.615L5.28,65.976C7.157,73.483,13.903,78.75,21.641,78.75L21.641,72.739C16.661,72.739,12.32,69.349,11.112,64.518L10.022,60.157C8.719,54.945,12.661,49.895,18.034,49.895L43.283,49.895L43.283,43.884ZM64.924,49.895L90.172,49.895C95.545,49.895,99.487,54.945,98.184,60.157L97.094,64.518C95.886,69.349,91.545,72.739,86.565,72.739L86.565,78.75C94.304,78.75,101.049,73.484,102.926,65.976L104.016,61.615C106.268,52.608,99.456,43.884,90.172,43.884L64.924,43.884L64.924,49.895ZM20.095,81.929L26.136,85.553C34.451,90.542,43.965,93.178,53.662,93.178L54.544,93.178C64.241,93.178,73.756,90.542,82.071,85.554L88.112,81.929L85.019,76.774L78.978,80.399C71.597,84.827,63.151,87.166,54.544,87.166L53.662,87.166C45.055,87.166,36.609,84.827,29.229,80.398L23.188,76.774L20.095,81.929ZM41.801,88.69L49.015,81.477L46.889,82.357L61.317,82.357L59.192,81.477L66.405,88.69L70.656,84.44L63.442,77.226L62.562,76.346L61.317,76.346L46.889,76.346L45.644,76.346L44.764,77.226L37.55,84.44L41.801,88.69Z"/>
</g>
  <g id="Thin-L" transform="matrix(1.0,0.0,0.0,1.0,803.6068157087054,1466.6668352399554)">  <path stroke-dasharray="none" stroke-linejoin="miter" stroke="none" stroke-opacity="1" stroke-width="1px" fill-opacity="1" stroke-linecap="butt" fill="#000000" fill-rule="nonzero" stroke-miterlimit="4" d="M87.767,39.676L87.767,61.317C87.767,70.161,84.899,78.768,79.592,85.844L75.264,91.615C70.268,98.275,62.429,102.195,54.103,102.195C45.778,102.195,37.938,98.275,32.943,91.615L28.615,85.844C23.308,78.768,20.439,70.162,20.439,61.317L20.439,39.676L15.63,39.676L15.63,61.317C15.63,71.202,18.836,80.821,24.767,88.729L29.095,94.5C34.999,102.371,44.264,107.004,54.103,107.004C63.942,107.004,73.207,102.371,79.111,94.5L83.439,88.729C89.37,80.821,92.577,71.202,92.577,61.317L92.577,39.676L87.767,39.676ZM92.577,39.676C92.577,18.427,75.351,1.202,54.103,1.202C32.855,1.202,15.63,18.427,15.63,39.676L20.439,39.676C20.439,21.083,35.511,6.011,54.103,6.011C72.695,6.011,87.767,21.084,87.767,39.676L92.577,39.676ZM91.872,37.975L83.784,29.886C79.274,25.377,73.158,22.844,66.78,22.844L41.426,22.844C35.049,22.844,28.932,25.377,24.423,29.886L16.334,37.975L19.735,41.376L27.824,33.287C31.431,29.679,36.324,27.653,41.426,27.653L66.78,27.653C71.882,27.653,76.775,29.68,80.383,33.287L88.472,41.376L91.872,37.975ZM36.069,63.722L43.283,63.722L43.283,58.912L36.069,58.912L36.069,63.722ZM64.924,63.722L72.138,63.722L72.138,58.912L64.924,58.912L64.924,63.722ZM43.283,44.485L18.034,44.485C9.142,44.485,2.616,52.842,4.773,61.469L5.863,65.83C7.673,73.07,14.179,78.149,21.641,78.149L21.641,73.34C16.385,73.34,11.804,69.763,10.529,64.664L9.439,60.303C8.041,54.711,12.27,49.294,18.034,49.294L43.283,49.294L43.283,44.485ZM64.924,49.294L90.172,49.294C95.936,49.294,100.165,54.711,98.767,60.303L97.677,64.664C96.403,69.763,91.821,73.34,86.565,73.34L86.565,78.149C94.028,78.149,100.533,73.07,102.343,65.83L103.433,61.469C105.59,52.842,99.065,44.485,90.172,44.485L64.924,44.485L64.924,49.294ZM20.404,81.413L26.445,85.037C34.666,89.971,44.074,92.577,53.662,92.577L54.544,92.577C64.132,92.577,73.54,89.971,81.761,85.038L87.802,81.413L85.328,77.289L79.287,80.914C71.813,85.399,63.26,87.767,54.544,87.767L53.662,87.767C44.946,87.767,36.393,85.398,28.919,80.914L22.878,77.289L20.404,81.413ZM41.376,88.265L48.59,81.052L46.889,81.756L61.317,81.756L59.617,81.052L66.83,88.265L70.231,84.865L63.017,77.651L62.313,76.947L61.317,76.947L46.889,76.947L45.893,76.947L45.189,77.651L37.975,84.865L41.376,88.265Z"/>
</g>
  <g id="Ultralight-L" transform="matrix(1.0,0.0,0.0,1.0,506.89681570870533,1466.6668352399554)">  <path stroke-miterlimit="4" stroke-width="1px" fill-opacity="1" stroke-opacity="1" stroke-dasharray="none" fill="#000000" stroke-linejoin="miter" stroke-linecap="butt" fill-rule="nonzero" stroke="none" d="M88.369,39.676L88.369,61.317C88.369,70.291,85.458,79.024,80.073,86.204L75.744,91.975C70.636,98.787,62.618,102.796,54.103,102.796C45.589,102.796,37.571,98.787,32.462,91.975L28.134,86.204C22.749,79.024,19.838,70.292,19.838,61.317L19.838,39.676L16.231,39.676L16.231,61.317C16.231,71.072,19.395,80.564,25.248,88.369L29.576,94.14C35.366,101.859,44.453,106.403,54.103,106.403C63.753,106.403,72.84,101.859,78.63,94.14L82.958,88.369C88.811,80.564,91.975,71.072,91.975,61.317L91.975,39.676L88.369,39.676ZM91.975,39.676C91.975,18.759,75.019,1.803,54.103,1.803C33.187,1.803,16.231,18.759,16.231,39.676L19.838,39.676C19.838,20.751,35.179,5.41,54.103,5.41C73.027,5.41,88.369,20.752,88.369,39.676L91.975,39.676ZM91.447,38.4L83.358,30.312C78.962,25.915,72.998,23.445,66.78,23.445L41.426,23.445C35.208,23.445,29.245,25.915,24.848,30.312L16.759,38.4L19.31,40.951L27.399,32.862C31.119,29.142,36.165,27.052,41.426,27.052L66.78,27.052C72.042,27.052,77.088,29.142,80.808,32.862L88.897,40.951L91.447,38.4ZM36.069,63.12L43.283,63.12L43.283,59.514L36.069,59.514L36.069,63.12ZM64.924,63.12L72.138,63.12L72.138,59.514L64.924,59.514L64.924,63.12ZM43.283,45.086L18.034,45.086C9.533,45.086,3.295,53.076,5.357,61.324L6.447,65.684C8.19,72.657,14.454,77.548,21.641,77.548L21.641,73.941C16.109,73.941,11.288,70.176,9.946,64.81L8.856,60.449C7.363,54.477,11.879,48.693,18.034,48.693L43.283,48.693L43.283,45.086ZM64.924,48.693L90.172,48.693C96.327,48.693,100.843,54.477,99.351,60.449L98.26,64.81C96.919,70.176,92.097,73.941,86.565,73.941L86.565,77.548C93.752,77.548,100.017,72.657,101.76,65.684L102.85,61.324C104.912,53.076,98.674,45.086,90.172,45.086L64.924,45.086L64.924,48.693ZM20.714,80.898L26.754,84.522C34.882,89.399,44.183,91.975,53.662,91.975L54.544,91.975C64.023,91.975,73.324,89.399,81.452,84.523L87.493,80.898L85.637,77.805L79.596,81.43C72.029,85.97,63.369,88.369,54.544,88.369L53.662,88.369C44.837,88.369,36.178,85.97,28.61,81.429L22.569,77.805L20.714,80.898ZM40.951,87.84L48.165,80.627L46.889,81.155L61.317,81.155L60.042,80.627L67.255,87.84L69.806,85.29L62.592,78.076L62.064,77.548L61.317,77.548L46.889,77.548L46.142,77.548L45.614,78.076L38.4,85.29L40.951,87.84Z"/>
</g>
  <g id="Black-M" transform="matrix(1.0,0.0,0.0,1.0,2892.7395470610118,1048.829566592262)">  <path stroke-linecap="butt" fill-rule="nonzero" stroke-linejoin="miter" stroke-width="1px" fill="#000000" stroke-dasharray="none" stroke-opacity="1" fill-opacity="1" stroke="none" stroke-miterlimit="4" d="M63.722,30.756L63.722,47.533C63.722,53.455,61.8,59.218,58.247,63.957L54.892,68.43C51.834,72.506,47.036,74.906,41.94,74.906C36.845,74.906,32.047,72.506,28.989,68.43L25.634,63.956C22.08,59.218,20.159,53.455,20.159,47.533L20.159,30.756L7.801,30.756L7.801,47.533C7.801,56.129,10.589,64.494,15.747,71.371L19.102,75.845C24.494,83.033,32.955,87.264,41.94,87.264C50.926,87.264,59.387,83.033,64.778,75.845L68.134,71.371C73.292,64.494,76.08,56.129,76.08,47.533L76.08,30.756L63.722,30.756ZM76.08,30.756C76.08,11.902,60.795,-3.383,41.94,-3.383C23.086,-3.383,7.801,11.902,7.801,30.756L20.159,30.756C20.159,18.727,29.911,8.975,41.94,8.975C53.97,8.975,63.722,18.727,63.722,30.756L76.08,30.756ZM74.27,26.387L68,20.117C63.695,15.812,57.856,13.393,51.768,13.393L32.113,13.393C26.025,13.393,20.186,15.812,15.881,20.117L9.611,26.387L18.35,35.126L24.62,28.855C26.607,26.868,29.303,25.751,32.113,25.751L51.768,25.751C54.578,25.751,57.274,26.868,59.261,28.855L65.531,35.126L74.27,26.387ZM27.96,53.712L33.552,53.712L33.552,41.353L27.96,41.353L27.96,53.712ZM50.329,53.712L55.921,53.712L55.921,41.353L50.329,41.353L50.329,53.712ZM33.552,30.169L13.98,30.169C4.279,30.169,-2.839,39.286,-0.486,48.697L0.359,52.078C2.242,59.611,9.011,64.896,16.776,64.896L16.776,52.537C14.682,52.537,12.856,51.112,12.348,49.08L11.503,45.7C11.1,44.089,12.319,42.528,13.98,42.528L33.552,42.528L33.552,30.169ZM50.329,42.528L69.901,42.528C71.562,42.528,72.78,44.088,72.377,45.7L71.532,49.081C71.025,51.112,69.199,52.537,67.105,52.537L67.105,64.896C74.87,64.896,81.639,59.611,83.522,52.078L84.367,48.697C86.72,39.286,79.602,30.169,69.901,30.169L50.329,30.169L50.329,42.528ZM13.597,66.811L18.28,69.621C25.324,73.847,33.384,76.08,41.599,76.08L42.282,76.08C50.497,76.08,58.557,73.848,65.601,69.621L70.284,66.811L63.925,56.214L59.242,59.024C54.12,62.098,48.257,63.722,42.282,63.722L41.599,63.722C35.624,63.722,29.762,62.098,24.638,59.024L19.955,56.214L13.597,66.811ZM35.126,71.474L40.718,65.882L36.348,67.692L47.533,67.692L43.163,65.882L48.755,71.474L57.494,62.735L51.902,57.143L50.092,55.333L47.533,55.333L36.348,55.333L33.789,55.333L31.979,57.143L26.387,62.735L35.126,71.474Z"/>
</g>
  <g id="Heavy-M" transform="matrix(1.0,0.0,0.0,1.0,2596.0295470610117,1048.829566592262)">  <path fill-opacity="1" stroke="none" stroke-linecap="butt" stroke-dasharray="none" stroke-miterlimit="4" fill-rule="nonzero" stroke-opacity="1" fill="#000000" stroke-linejoin="miter" stroke-width="1px" d="M64.398,30.756L64.398,47.533C64.398,53.601,62.43,59.507,58.788,64.363L55.433,68.836C52.248,73.083,47.249,75.582,41.94,75.582C36.632,75.582,31.633,73.083,28.448,68.836L25.093,64.362C21.451,59.507,19.483,53.602,19.483,47.533L19.483,30.756L8.478,30.756L8.478,47.533C8.478,55.983,11.218,64.205,16.289,70.965L19.644,75.439C24.907,82.457,33.168,86.587,41.94,86.587C50.713,86.587,58.974,82.457,64.237,75.439L67.592,70.965C72.663,64.205,75.403,55.983,75.403,47.533L75.403,30.756L64.398,30.756ZM75.403,30.756C75.403,12.275,60.421,-2.707,41.94,-2.707C23.459,-2.707,8.478,12.275,8.478,30.756L19.483,30.756C19.483,18.353,29.537,8.299,41.94,8.299C54.343,8.299,64.398,18.353,64.398,30.756L75.403,30.756ZM73.792,26.865L67.521,20.595C63.343,16.417,57.676,14.07,51.768,14.07L32.113,14.07C26.205,14.07,20.538,16.417,16.36,20.595L10.089,26.865L17.871,34.647L24.142,28.377C26.256,26.263,29.123,25.075,32.113,25.075L51.768,25.075C54.758,25.075,57.625,26.263,59.739,28.377L66.01,34.647L73.792,26.865ZM27.96,53.035L33.552,53.035L33.552,42.03L27.96,42.03L27.96,53.035ZM50.329,53.035L55.921,53.035L55.921,42.03L50.329,42.03L50.329,53.035ZM33.552,30.846L13.98,30.846C4.719,30.846,-2.076,39.549,0.17,48.533L1.015,51.914C2.823,59.146,9.321,64.219,16.776,64.219L16.776,53.214C14.371,53.214,12.275,51.577,11.692,49.244L10.847,45.864C10.337,43.826,11.879,41.851,13.98,41.851L33.552,41.851L33.552,30.846ZM50.329,41.851L69.901,41.851C72.002,41.851,73.544,43.826,73.034,45.864L72.189,49.245C71.606,51.578,69.51,53.214,67.105,53.214L67.105,64.219C74.56,64.219,81.058,59.146,82.866,51.914L83.711,48.533C85.957,39.549,79.162,30.846,69.901,30.846L50.329,30.846L50.329,41.851ZM13.945,66.231L18.628,69.041C25.567,73.204,33.507,75.403,41.599,75.403L42.282,75.403C50.374,75.403,58.314,73.204,65.253,69.041L69.936,66.231L64.273,56.794L59.591,59.604C54.363,62.741,48.38,64.398,42.282,64.398L41.599,64.398C35.501,64.398,29.519,62.741,24.29,59.604L19.607,56.794L13.945,66.231ZM34.647,70.996L40.239,65.404L36.348,67.015L47.533,67.015L43.642,65.404L49.234,70.996L57.015,63.214L51.423,57.622L49.812,56.01L47.533,56.01L36.348,56.01L34.069,56.01L32.457,57.622L26.865,63.214L34.647,70.996Z"/>
</g>
  <g id="Bold-M" transform="matrix(1.0,0.0,0.0,1.0,2299.3195470610117,1048.829566592262)">  <path stroke-miterlimit="4" stroke-width="1px" stroke-linejoin="miter" stroke-linecap="butt" stroke="none" fill-opacity="1" stroke-opacity="1" fill-rule="nonzero" fill="#000000" stroke-dasharray="none" d="M65.075,30.756L65.075,47.533C65.075,53.748,63.059,59.796,59.329,64.768L55.974,69.242C52.661,73.659,47.462,76.259,41.94,76.259C36.419,76.259,31.22,73.659,27.907,69.242L24.551,64.768C20.822,59.796,18.806,53.748,18.806,47.533L18.806,30.756L9.154,30.756L9.154,47.533C9.154,55.836,11.848,63.916,16.83,70.559L20.185,75.033C25.321,81.881,33.381,85.911,41.94,85.911C50.5,85.911,58.56,81.881,63.696,75.033L67.051,70.56C72.033,63.916,74.727,55.836,74.727,47.533L74.727,30.756L65.075,30.756ZM74.727,30.756C74.727,12.649,60.048,-2.03,41.94,-2.03C23.833,-2.03,9.154,12.649,9.154,30.756L18.806,30.756C18.806,17.98,29.164,7.622,41.94,7.622C54.717,7.622,65.075,17.98,65.075,30.756L74.727,30.756ZM73.313,27.344L67.043,21.073C62.992,17.022,57.497,14.746,51.768,14.746L32.113,14.746C26.384,14.746,20.889,17.022,16.838,21.073L10.568,27.344L17.393,34.169L23.663,27.898C25.904,25.657,28.944,24.398,32.113,24.398L51.768,24.398C54.937,24.398,57.977,25.657,60.218,27.898L66.488,34.169L73.313,27.344ZM27.96,52.358L33.552,52.358L33.552,42.707L27.96,42.707L27.96,52.358ZM50.329,52.358L55.921,52.358L55.921,42.707L50.329,42.707L50.329,52.358ZM33.552,31.522L13.98,31.522C5.16,31.522,-1.313,39.812,0.827,48.369L1.672,51.749C3.405,58.68,9.632,63.543,16.776,63.543L16.776,53.891C14.061,53.891,11.694,52.043,11.036,49.409L10.19,46.028C9.574,43.563,11.439,41.174,13.98,41.174L33.552,41.174L33.552,31.522ZM50.329,41.174L69.901,41.174C72.442,41.174,74.307,43.563,73.69,46.028L72.845,49.409C72.187,52.043,69.82,53.891,67.105,53.891L67.105,63.543C74.249,63.543,80.476,58.68,82.209,51.749L83.054,48.369C85.193,39.812,78.721,31.522,69.901,31.522L50.329,31.522L50.329,41.174ZM14.293,65.651L18.976,68.46C25.81,72.561,33.629,74.727,41.599,74.727L42.282,74.727C50.251,74.727,58.071,72.561,64.905,68.461L69.588,65.651L64.622,57.375L59.939,60.185C54.605,63.384,48.502,65.075,42.282,65.075L41.599,65.075C35.379,65.075,29.276,63.384,23.942,60.184L19.259,57.374L14.293,65.651ZM34.169,70.517L39.761,64.925L36.348,66.339L47.533,66.339L44.12,64.925L49.712,70.517L56.537,63.692L50.945,58.1L49.531,56.687L47.533,56.687L36.348,56.687L34.349,56.687L32.936,58.1L27.344,63.692L34.169,70.517Z"/>
</g>
  <g id="Semibold-M" transform="matrix(1.0,0.0,0.0,1.0,2002.6095470610119,1048.829566592262)">  <path stroke-width="1px" fill-rule="nonzero" fill="#000000" stroke-linecap="butt" stroke="none" stroke-opacity="1" stroke-linejoin="miter" stroke-dasharray="none" fill-opacity="1" stroke-miterlimit="4" d="M65.751,30.756L65.751,47.533C65.751,53.894,63.688,60.085,59.871,65.174L56.516,69.648C53.075,74.236,47.675,76.936,41.94,76.936C36.206,76.936,30.806,74.236,27.365,69.648L24.01,65.174C20.193,60.085,18.13,53.894,18.13,47.533L18.13,30.756L9.831,30.756L9.831,47.533C9.831,55.69,12.477,63.627,17.371,70.153L20.726,74.627C25.734,81.304,33.594,85.234,41.94,85.234C50.287,85.234,58.147,81.304,63.154,74.627L66.51,70.154C71.404,63.627,74.05,55.69,74.05,47.533L74.05,30.756L65.751,30.756ZM74.05,30.756C74.05,13.023,59.674,-1.353,41.94,-1.353C24.207,-1.353,9.831,13.023,9.831,30.756L18.13,30.756C18.13,17.606,28.79,6.945,41.94,6.945C55.091,6.945,65.751,17.606,65.751,30.756L74.05,30.756ZM72.835,27.822L66.564,21.552C62.64,17.628,57.318,15.423,51.768,15.423L32.113,15.423C26.563,15.423,21.241,17.628,17.317,21.552L11.046,27.822L16.914,33.69L23.185,27.42C25.553,25.052,28.764,23.722,32.113,23.722L51.768,23.722C55.117,23.722,58.328,25.052,60.696,27.42L66.967,33.69L72.835,27.822ZM27.96,51.682L33.552,51.682L33.552,43.383L27.96,43.383L27.96,51.682ZM50.329,51.682L55.921,51.682L55.921,43.383L50.329,43.383L50.329,51.682ZM33.552,32.199L13.98,32.199C5.6,32.199,-0.549,40.075,1.483,48.205L2.328,51.585C3.986,58.215,9.942,62.866,16.776,62.866L16.776,54.567C13.75,54.567,11.113,52.508,10.379,49.573L9.534,46.192C8.811,43.3,10.999,40.498,13.98,40.498L33.552,40.498L33.552,32.199ZM50.329,40.498L69.901,40.498C72.882,40.498,75.07,43.3,74.347,46.192L73.502,49.573C72.768,52.508,70.131,54.567,67.105,54.567L67.105,62.866C73.939,62.866,79.895,58.215,81.553,51.585L82.398,48.205C84.43,40.075,78.281,32.199,69.901,32.199L50.329,32.199L50.329,40.498ZM14.642,65.071L19.324,67.88C26.053,71.917,33.752,74.05,41.599,74.05L42.282,74.05C50.129,74.05,57.828,71.918,64.557,67.881L69.24,65.071L64.97,57.955L60.287,60.765C54.848,64.028,48.625,65.751,42.282,65.751L41.599,65.751C35.256,65.751,29.033,64.028,23.594,60.764L18.911,57.955L14.642,65.071ZM33.69,70.039L39.282,64.447L36.348,65.662L47.533,65.662L44.599,64.447L50.191,70.039L56.059,64.171L50.467,58.579L49.251,57.363L47.533,57.363L36.348,57.363L34.63,57.363L33.414,58.579L27.822,64.171L33.69,70.039Z"/>
</g>
  <g id="Medium-M" transform="matrix(1.0,0.0,0.0,1.0,1705.8995470610118,1048.829566592262)">  <path stroke-dasharray="none" fill-rule="nonzero" stroke-linecap="butt" stroke-opacity="1" stroke-miterlimit="4" stroke-width="1px" stroke="none" stroke-linejoin="miter" fill="#000000" fill-opacity="1" d="M66.428,30.756L66.428,47.533C66.428,54.041,64.317,60.373,60.412,65.58L57.057,70.054C53.488,74.812,47.888,77.612,41.94,77.612C35.993,77.612,30.393,74.812,26.824,70.054L23.469,65.58C19.564,60.374,17.453,54.041,17.453,47.533L17.453,30.756L10.508,30.756L10.508,47.533C10.508,55.544,13.106,63.338,17.912,69.748L21.268,74.221C26.148,80.728,33.807,84.558,41.94,84.558C50.074,84.558,57.733,80.728,62.613,74.221L65.968,69.748C70.775,63.338,73.373,55.543,73.373,47.533L73.373,30.756L66.428,30.756ZM73.373,30.756C73.373,13.396,59.3,-0.677,41.94,-0.677C24.581,-0.677,10.508,13.396,10.508,30.756L17.453,30.756C17.453,17.232,28.416,6.269,41.94,6.269C55.465,6.269,66.428,17.232,66.428,30.756L73.373,30.756ZM72.356,28.301L66.086,22.03C62.289,18.233,57.138,16.1,51.768,16.1L32.113,16.1C26.743,16.1,21.592,18.233,17.795,22.03L11.525,28.301L16.436,33.212L22.706,26.941C25.201,24.447,28.585,23.045,32.113,23.045L51.768,23.045C55.296,23.045,58.68,24.447,61.175,26.941L67.445,33.212L72.356,28.301ZM27.96,51.005L33.552,51.005L33.552,44.06L27.96,44.06L27.96,51.005ZM50.329,51.005L55.921,51.005L55.921,44.06L50.329,44.06L50.329,51.005ZM33.552,32.876L13.98,32.876C6.04,32.876,0.214,40.338,2.14,48.041L2.985,51.421C4.567,57.75,10.253,62.189,16.776,62.189L16.776,55.244C13.44,55.244,10.532,52.973,9.723,49.737L8.878,46.356C8.048,43.037,10.558,39.821,13.98,39.821L33.552,39.821L33.552,32.876ZM50.329,39.821L69.901,39.821C73.322,39.821,75.833,43.037,75.003,46.356L74.158,49.737C73.349,52.973,70.441,55.244,67.105,55.244L67.105,62.189C73.628,62.189,79.314,57.75,80.896,51.421L81.741,48.041C83.667,40.338,77.841,32.876,69.901,32.876L50.329,32.876L50.329,39.821ZM14.99,64.491L19.673,67.3C26.296,71.274,33.874,73.373,41.599,73.373L42.282,73.373C50.006,73.373,57.585,71.274,64.209,67.301L68.892,64.49L65.318,58.535L60.635,61.345C55.091,64.671,48.747,66.428,42.282,66.428L41.599,66.428C35.133,66.428,28.79,64.671,23.246,61.344L18.563,58.535L14.99,64.491ZM33.212,69.56L38.804,63.968L36.348,64.985L47.533,64.985L45.077,63.968L50.669,69.56L55.58,64.649L49.988,59.057L48.971,58.04L47.533,58.04L36.348,58.04L34.91,58.04L33.893,59.057L28.301,64.649L33.212,69.56Z"/>
</g>
  <g id="Regular-M" transform="matrix(1.0,0.0,0.0,1.0,1409.1895470610118,1048.829566592262)">  <path stroke-width="1px" stroke-miterlimit="4" stroke-linecap="butt" stroke-dasharray="none" fill-opacity="1" stroke-opacity="1" fill-rule="nonzero" stroke="none" fill="#000000" stroke-linejoin="miter" d="M67.105,30.756L67.105,47.533C67.105,54.187,64.946,60.662,60.953,65.986L57.598,70.46C53.902,75.388,48.101,78.289,41.94,78.289C35.78,78.289,29.979,75.388,26.283,70.46L22.927,65.986C18.935,60.662,16.776,54.187,16.776,47.533L16.776,30.756L11.184,30.756L11.184,47.533C11.184,55.397,13.735,63.05,18.454,69.342L21.809,73.815C26.561,80.152,34.02,83.881,41.94,83.881C49.861,83.881,57.319,80.152,62.072,73.815L65.427,69.342C70.146,63.049,72.697,55.397,72.697,47.533L72.697,30.756L67.105,30.756ZM72.697,30.756C72.697,13.77,58.927,0,41.94,0C24.954,0,11.184,13.77,11.184,30.756L16.776,30.756C16.776,16.858,28.043,5.592,41.94,5.592C55.838,5.592,67.105,16.859,67.105,30.756L72.697,30.756ZM71.878,28.779L65.607,22.509C61.937,18.838,56.959,16.776,51.768,16.776L32.113,16.776C26.922,16.776,21.944,18.838,18.274,22.509L12.003,28.779L15.957,32.733L22.228,26.463C24.85,23.841,28.405,22.368,32.113,22.368L51.768,22.368C55.476,22.368,59.032,23.841,61.653,26.463L67.924,32.733L71.878,28.779ZM27.96,50.329L33.552,50.329L33.552,44.736L27.96,44.736L27.96,50.329ZM50.329,50.329L55.921,50.329L55.921,44.736L50.329,44.736L50.329,50.329ZM33.552,33.552L13.98,33.552C6.48,33.552,0.977,40.601,2.796,47.877L3.641,51.257C5.148,57.284,10.563,61.513,16.776,61.513L16.776,55.921C13.129,55.921,9.951,53.439,9.066,49.901L8.221,46.52C7.284,42.774,10.118,39.144,13.98,39.144L33.552,39.144L33.552,33.552ZM50.329,39.144L69.901,39.144C73.763,39.144,76.596,42.774,75.66,46.52L74.815,49.901C73.93,53.439,70.752,55.921,67.105,55.921L67.105,61.513C73.318,61.513,78.733,57.284,80.24,51.257L81.085,47.877C82.904,40.601,77.401,33.552,69.901,33.552L50.329,33.552L50.329,39.144ZM15.338,63.91L20.021,66.72C26.539,70.631,33.997,72.697,41.599,72.697L42.282,72.697C49.884,72.697,57.342,70.631,63.86,66.72L68.543,63.91L65.666,59.115L60.983,61.925C55.334,65.314,48.87,67.105,42.282,67.105L41.599,67.105C35.011,67.105,28.547,65.314,22.898,61.925L18.215,59.115L15.338,63.91ZM32.733,69.082L38.325,63.49L36.348,64.309L47.533,64.309L45.555,63.49L51.147,69.082L55.102,65.128L49.51,59.536L48.691,58.717L47.533,58.717L36.348,58.717L35.19,58.717L34.371,59.536L28.779,65.128L32.733,69.082Z"/>
</g>
  <g id="Light-M" transform="matrix(1.0,0.0,0.0,1.0,1112.479547061012,1048.829566592262)">  <path fill="#000000" fill-opacity="1" stroke="none" stroke-linecap="butt" stroke-dasharray="none" stroke-width="1px" stroke-miterlimit="4" stroke-opacity="1" stroke-linejoin="miter" fill-rule="nonzero" d="M67.571,30.756L67.571,47.533C67.571,54.288,65.38,60.861,61.326,66.266L57.971,70.74C54.187,75.785,48.248,78.755,41.94,78.755C35.633,78.755,29.694,75.785,25.91,70.74L22.555,66.266C18.501,60.861,16.31,54.288,16.31,47.533L16.31,30.756L11.65,30.756L11.65,47.533C11.65,55.296,14.168,62.851,18.827,69.062L22.182,73.536C26.846,79.755,34.167,83.415,41.94,83.415C49.714,83.415,57.035,79.755,61.699,73.536L65.054,69.062C69.713,62.85,72.231,55.296,72.231,47.533L72.231,30.756L67.571,30.756ZM72.231,30.756C72.231,14.028,58.669,0.466,41.94,0.466C25.212,0.466,11.65,14.027,11.65,30.756L16.31,30.756C16.31,16.601,27.785,5.126,41.94,5.126C56.096,5.126,67.571,16.601,67.571,30.756L72.231,30.756ZM71.548,29.109L65.278,22.838C61.695,19.255,56.835,17.242,51.768,17.242L32.113,17.242C27.046,17.242,22.186,19.255,18.603,22.838L12.333,29.109L15.628,32.404L21.898,26.133C24.607,23.424,28.282,21.902,32.113,21.902L51.768,21.902C55.599,21.902,59.274,23.424,61.983,26.133L68.253,32.404L71.548,29.109ZM27.96,49.863L33.552,49.863L33.552,45.202L27.96,45.202L27.96,49.863ZM50.329,49.863L55.921,49.863L55.921,45.202L50.329,45.202L50.329,49.863ZM33.552,34.018L13.98,34.018C6.783,34.018,1.503,40.782,3.248,47.764L4.093,51.144C5.548,56.964,10.777,61.047,16.776,61.047L16.776,56.387C12.916,56.387,9.55,53.759,8.614,50.014L7.769,46.634C6.759,42.593,9.815,38.678,13.98,38.678L33.552,38.678L33.552,34.018ZM50.329,38.678L69.901,38.678C74.066,38.678,77.122,42.593,76.112,46.633L75.267,50.014C74.33,53.759,70.965,56.387,67.105,56.387L67.105,61.047C73.104,61.047,78.333,56.964,79.788,51.144L80.633,47.764C82.378,40.782,77.098,34.018,69.901,34.018L50.329,34.018L50.329,38.678ZM15.578,63.511L20.26,66.32C26.706,70.188,34.082,72.231,41.599,72.231L42.282,72.231C49.799,72.231,57.175,70.188,63.621,66.321L68.304,63.511L65.906,59.515L61.223,62.325C55.502,65.757,48.955,67.571,42.282,67.571L41.599,67.571C34.926,67.571,28.379,65.757,22.658,62.324L17.975,59.515L15.578,63.511ZM32.404,68.752L37.996,63.16L36.348,63.843L47.533,63.843L45.885,63.16L51.477,68.752L54.772,65.457L49.18,59.865L48.498,59.183L47.533,59.183L36.348,59.183L35.383,59.183L34.701,59.865L29.109,65.457L32.404,68.752Z"/>
</g>
  <g id="Thin-M" transform="matrix(1.0,0.0,0.0,1.0,815.769547061012,1048.829566592262)">  <path stroke-dasharray="none" stroke-linejoin="miter" stroke="none" stroke-opacity="1" stroke-width="1px" fill-opacity="1" stroke-linecap="butt" fill="#000000" fill-rule="nonzero" stroke-miterlimit="4" d="M68.037,30.756L68.037,47.533C68.037,54.389,65.813,61.06,61.699,66.546L58.344,71.019C54.472,76.182,48.394,79.221,41.94,79.221C35.487,79.221,29.409,76.182,25.537,71.019L22.182,66.546C18.068,61.06,15.844,54.389,15.844,47.533L15.844,30.756L12.116,30.756L12.116,47.533C12.116,55.196,14.602,62.652,19.199,68.782L22.555,73.256C27.131,79.358,34.313,82.949,41.94,82.949C49.568,82.949,56.75,79.358,61.326,73.256L64.681,68.782C69.279,62.652,71.765,55.195,71.765,47.533L71.765,30.756L68.037,30.756ZM71.765,30.756C71.765,14.285,58.412,0.932,41.94,0.932C25.469,0.932,12.116,14.285,12.116,30.756L15.844,30.756C15.844,16.344,27.528,4.66,41.94,4.66C56.353,4.66,68.037,16.344,68.037,30.756L71.765,30.756ZM71.219,29.438L64.948,23.168C61.453,19.672,56.711,17.708,51.768,17.708L32.113,17.708C27.17,17.708,22.428,19.672,18.933,23.168L12.662,29.438L15.298,32.074L21.569,25.804C24.365,23.007,28.158,21.436,32.113,21.436L51.768,21.436C55.723,21.436,59.516,23.007,62.312,25.804L68.583,32.074L71.219,29.438ZM27.96,49.397L33.552,49.397L33.552,45.668L27.96,45.668L27.96,49.397ZM50.329,49.397L55.921,49.397L55.921,45.668L50.329,45.668L50.329,49.397ZM33.552,34.484L13.98,34.484C7.087,34.484,2.028,40.963,3.7,47.651L4.545,51.031C5.948,56.643,10.991,60.581,16.776,60.581L16.776,56.853C12.702,56.853,9.15,54.08,8.162,50.127L7.317,46.747C6.233,42.412,9.512,38.212,13.98,38.212L33.552,38.212L33.552,34.484ZM50.329,38.212L69.901,38.212C74.369,38.212,77.648,42.412,76.564,46.747L75.719,50.127C74.731,54.08,71.179,56.853,67.105,56.853L67.105,60.581C72.89,60.581,77.933,56.644,79.336,51.031L80.181,47.651C81.853,40.963,76.794,34.484,69.901,34.484L50.329,34.484L50.329,38.212ZM15.817,63.111L20.5,65.921C26.873,69.745,34.166,71.765,41.599,71.765L42.282,71.765C49.715,71.765,57.008,69.745,63.381,65.921L68.064,63.111L66.146,59.914L61.463,62.724C55.669,66.2,49.039,68.037,42.282,68.037L41.599,68.037C34.842,68.037,28.212,66.2,22.418,62.724L17.735,59.914L15.817,63.111ZM32.074,68.423L37.666,62.831L36.348,63.377L47.533,63.377L46.214,62.831L51.807,68.423L54.443,65.787L48.851,60.195L48.305,59.649L47.533,59.649L36.348,59.649L35.576,59.649L35.03,60.195L29.438,65.787L32.074,68.423Z"/>
</g>
  <g id="Ultralight-M" transform="matrix(1.0,0.0,0.0,1.0,519.0595470610119,1048.829566592262)">  <path stroke-miterlimit="4" stroke-width="1px" fill-opacity="1" stroke-opacity="1" stroke-dasharray="none" fill="#000000" stroke-linejoin="miter" stroke-linecap="butt" fill-rule="nonzero" stroke="none" d="M68.503,30.756L68.503,47.533C68.503,54.49,66.246,61.259,62.072,66.825L58.717,71.299C54.756,76.579,48.541,79.687,41.94,79.687C35.34,79.687,29.125,76.579,25.164,71.299L21.809,66.825C17.635,61.259,15.378,54.49,15.378,47.533L15.378,30.756L12.582,30.756L12.582,47.533C12.582,55.095,15.035,62.453,19.572,68.503L22.927,72.976C27.416,78.961,34.46,82.483,41.94,82.483C49.421,82.483,56.465,78.961,60.953,72.976L64.309,68.503C68.846,62.453,71.299,55.094,71.299,47.533L71.299,30.756L68.503,30.756ZM71.299,30.756C71.299,14.542,58.155,1.398,41.94,1.398C25.726,1.398,12.582,14.542,12.582,30.756L15.378,30.756C15.378,16.086,27.271,4.194,41.94,4.194C56.61,4.194,68.503,16.086,68.503,30.756L71.299,30.756ZM70.889,29.768L64.619,23.497C61.211,20.089,56.588,18.174,51.768,18.174L32.113,18.174C27.293,18.174,22.67,20.089,19.262,23.497L12.992,29.768L14.969,31.745L21.239,25.474C24.123,22.59,28.035,20.97,32.113,20.97L51.768,20.97C55.846,20.97,59.758,22.59,62.642,25.474L68.912,31.745L70.889,29.768ZM27.96,48.931L33.552,48.931L33.552,46.134L27.96,46.134L27.96,48.931ZM50.329,48.931L55.921,48.931L55.921,46.134L50.329,46.134L50.329,48.931ZM33.552,34.95L13.98,34.95C7.39,34.95,2.554,41.144,4.152,47.538L4.997,50.918C6.349,56.323,11.205,60.115,16.776,60.115L16.776,57.319C12.488,57.319,8.75,54.4,7.71,50.24L6.865,46.86C5.708,42.231,9.209,37.746,13.98,37.746L33.552,37.746L33.552,34.95ZM50.329,37.746L69.901,37.746C74.672,37.746,78.173,42.231,77.016,46.86L76.171,50.24C75.131,54.4,71.393,57.319,67.105,57.319L67.105,60.115C72.676,60.115,77.532,56.323,78.883,50.918L79.728,47.538C81.327,41.144,76.491,34.95,69.901,34.95L50.329,34.95L50.329,37.746ZM16.057,62.711L20.74,65.521C27.041,69.302,34.251,71.299,41.599,71.299L42.282,71.299C49.63,71.299,56.84,69.302,63.141,65.521L67.824,62.711L66.385,60.314L61.703,63.124C55.836,66.643,49.123,68.503,42.282,68.503L41.599,68.503C34.757,68.503,28.045,66.643,22.178,63.123L17.495,60.314L16.057,62.711ZM31.745,68.093L37.337,62.501L36.348,62.911L47.533,62.911L46.544,62.501L52.136,68.093L54.113,66.116L48.521,60.524L48.112,60.115L47.533,60.115L36.348,60.115L35.769,60.115L35.36,60.524L29.768,66.116L31.745,68.093Z"/>
</g>
  <g id="Black-S" transform="matrix(1.0,0.0,0.0,1.0,2901.840625348772,627.9306448800223)">  <path stroke-linecap="butt" fill-rule="nonzero" stroke-linejoin="miter" stroke-width="1px" fill="#000000" stroke-dasharray="none" stroke-opacity="1" fill-opacity="1" stroke="none" stroke-miterlimit="4" d="M49.894,24.082L49.894,37.218C49.894,41.855,48.39,46.368,45.607,50.078L42.98,53.581C40.586,56.773,36.829,58.651,32.839,58.651C28.85,58.651,25.093,56.773,22.699,53.581L20.071,50.078C17.289,46.368,15.785,41.855,15.785,37.218L15.785,24.082L6.108,24.082L6.108,37.218C6.108,43.949,8.291,50.499,12.33,55.884L14.957,59.387C19.179,65.015,25.804,68.328,32.839,68.328C39.875,68.328,46.5,65.015,50.721,59.387L53.349,55.884C57.387,50.499,59.571,43.949,59.571,37.218L59.571,24.082L49.894,24.082ZM59.571,24.082C59.571,9.319,47.603,-2.649,32.839,-2.649C18.076,-2.649,6.108,9.319,6.108,24.082L15.785,24.082C15.785,14.663,23.42,7.028,32.839,7.028C42.258,7.028,49.894,14.663,49.894,24.082L59.571,24.082ZM58.154,20.661L53.244,15.751C49.873,12.38,45.301,10.487,40.534,10.487L25.145,10.487C20.378,10.487,15.806,12.38,12.435,15.751L7.525,20.661L14.368,27.503L19.278,22.594C20.834,21.038,22.944,20.163,25.145,20.163L40.534,20.163C42.735,20.163,44.845,21.038,46.401,22.594L51.311,27.503L58.154,20.661ZM21.893,42.056L26.271,42.056L26.271,32.38L21.893,32.38L21.893,42.056ZM39.407,42.056L43.786,42.056L43.786,32.38L39.407,32.38L39.407,42.056ZM26.271,23.622L10.947,23.622C3.351,23.622,-2.223,30.761,-0.381,38.13L0.281,40.777C1.756,46.675,7.056,50.813,13.136,50.813L13.136,41.137C11.496,41.137,10.067,40.021,9.669,38.43L9.007,35.783C8.692,34.521,9.646,33.299,10.947,33.299L26.271,33.299L26.271,23.622ZM39.407,33.299L54.732,33.299C56.033,33.299,56.987,34.521,56.672,35.783L56.01,38.43C55.612,40.021,54.183,41.137,52.543,41.137L52.543,50.813C58.623,50.813,63.923,46.675,65.398,40.777L66.059,38.13C67.902,30.761,62.328,23.622,54.732,23.622L39.407,23.622L39.407,33.299ZM10.647,52.313L14.313,54.513C19.828,57.822,26.14,59.571,32.572,59.571L33.107,59.571C39.539,59.571,45.85,57.823,51.366,54.514L55.033,52.313L50.053,44.016L46.387,46.216C42.376,48.623,37.785,49.894,33.107,49.894L32.572,49.894C27.894,49.894,23.303,48.622,19.292,46.215L15.625,44.015L10.647,52.313ZM27.503,55.964L31.882,51.586L28.461,53.003L37.218,53.003L33.797,51.586L38.175,55.964L45.018,49.122L40.639,44.743L39.222,43.326L37.218,43.326L28.461,43.326L26.457,43.326L25.04,44.743L20.661,49.122L27.503,55.964Z"/>
</g>
  <g id="Heavy-S" transform="matrix(1.0,0.0,0.0,1.0,2605.130625348772,627.9306448800223)">  <path fill-opacity="1" stroke="none" stroke-linecap="butt" stroke-dasharray="none" stroke-miterlimit="4" fill-rule="nonzero" stroke-opacity="1" fill="#000000" stroke-linejoin="miter" stroke-width="1px" d="M50.424,24.082L50.424,37.218C50.424,41.97,48.882,46.594,46.031,50.396L43.404,53.899C40.91,57.224,36.996,59.181,32.839,59.181C28.683,59.181,24.769,57.224,22.275,53.899L19.648,50.396C16.796,46.594,15.255,41.97,15.255,37.218L15.255,24.082L6.638,24.082L6.638,37.218C6.638,43.835,8.784,50.273,12.754,55.566L15.381,59.069C19.503,64.564,25.971,67.798,32.839,67.798C39.708,67.798,46.176,64.564,50.298,59.069L52.925,55.566C56.895,50.272,59.041,43.834,59.041,37.218L59.041,24.082L50.424,24.082ZM59.041,24.082C59.041,9.612,47.31,-2.119,32.839,-2.119C18.369,-2.119,6.638,9.612,6.638,24.082L15.255,24.082C15.255,14.371,23.128,6.498,32.839,6.498C42.551,6.498,50.424,14.371,50.424,24.082L59.041,24.082ZM57.779,21.036L52.869,16.126C49.598,12.854,45.161,11.017,40.534,11.017L25.145,11.017C20.518,11.017,16.081,12.854,12.81,16.126L7.9,21.036L13.993,27.129L18.903,22.219C20.558,20.564,22.804,19.634,25.145,19.634L40.534,19.634C42.875,19.634,45.121,20.564,46.776,22.219L51.686,27.129L57.779,21.036ZM21.893,41.526L26.271,41.526L26.271,32.909L21.893,32.909L21.893,41.526ZM39.407,41.526L43.786,41.526L43.786,32.909L39.407,32.909L39.407,41.526ZM26.271,24.152L10.947,24.152C3.695,24.152,-1.625,30.967,0.133,38.001L0.795,40.648C2.211,46.311,7.299,50.284,13.136,50.284L13.136,41.667C11.253,41.667,9.612,40.385,9.155,38.558L8.493,35.912C8.094,34.315,9.301,32.769,10.947,32.769L26.271,32.769L26.271,24.152ZM39.407,32.769L54.732,32.769C56.377,32.769,57.585,34.315,57.186,35.912L56.524,38.559C56.067,40.385,54.426,41.667,52.543,41.667L52.543,50.284C58.38,50.284,63.468,46.311,64.884,40.648L65.545,38.001C67.304,30.967,61.984,24.152,54.732,24.152L39.407,24.152L39.407,32.769ZM10.919,51.859L14.586,54.059C20.019,57.319,26.236,59.041,32.572,59.041L33.107,59.041C39.443,59.041,45.66,57.319,51.093,54.059L54.76,51.859L50.326,44.47L46.659,46.67C42.566,49.126,37.881,50.424,33.107,50.424L32.572,50.424C27.797,50.424,23.113,49.126,19.019,46.67L15.352,44.47L10.919,51.859ZM27.129,55.59L31.507,51.211L28.461,52.473L37.218,52.473L34.171,51.211L38.55,55.59L44.643,49.496L40.265,45.118L39.003,43.856L37.218,43.856L28.461,43.856L26.676,43.856L25.414,45.118L21.036,49.496L27.129,55.59Z"/>
</g>
  <g id="Bold-S" transform="matrix(1.0,0.0,0.0,1.0,2308.420625348772,627.9306448800223)">  <path stroke-miterlimit="4" stroke-width="1px" stroke-linejoin="miter" stroke-linecap="butt" stroke="none" fill-opacity="1" stroke-opacity="1" fill-rule="nonzero" fill="#000000" stroke-dasharray="none" d="M50.954,24.082L50.954,37.218C50.954,42.085,49.375,46.82,46.455,50.714L43.828,54.216C41.234,57.675,37.163,59.711,32.839,59.711C28.516,59.711,24.445,57.675,21.851,54.216L19.224,50.714C16.304,46.82,14.725,42.085,14.725,37.218L14.725,24.082L7.168,24.082L7.168,37.218C7.168,43.72,9.277,50.046,13.178,55.248L15.805,58.751C19.826,64.113,26.137,67.268,32.839,67.268C39.541,67.268,45.853,64.113,49.874,58.751L52.501,55.248C56.402,50.046,58.511,43.72,58.511,37.218L58.511,24.082L50.954,24.082ZM58.511,24.082C58.511,9.904,47.017,-1.589,32.839,-1.589C18.661,-1.589,7.168,9.904,7.168,24.082L14.725,24.082C14.725,14.078,22.835,5.968,32.839,5.968C42.843,5.968,50.954,14.078,50.954,24.082L58.511,24.082ZM57.404,21.41L52.495,16.5C49.323,13.328,45.02,11.546,40.534,11.546L25.145,11.546C20.659,11.546,16.356,13.328,13.184,16.5L8.275,21.41L13.618,26.754L18.528,21.844C20.283,20.09,22.663,19.104,25.145,19.104L40.534,19.104C43.016,19.104,45.396,20.09,47.151,21.844L52.06,26.754L57.404,21.41ZM21.893,40.997L26.271,40.997L26.271,33.439L21.893,33.439L21.893,40.997ZM39.407,40.997L43.786,40.997L43.786,33.439L39.407,33.439L39.407,40.997ZM26.271,24.682L10.947,24.682C4.04,24.682,-1.028,31.173,0.647,37.873L1.309,40.52C2.666,45.947,7.542,49.754,13.136,49.754L13.136,42.196C11.01,42.196,9.156,40.749,8.641,38.687L7.979,36.04C7.497,34.11,8.957,32.24,10.947,32.24L26.271,32.24L26.271,24.682ZM39.407,32.24L54.732,32.24C56.722,32.24,58.182,34.11,57.7,36.04L57.038,38.687C56.522,40.75,54.669,42.196,52.543,42.196L52.543,49.754C58.137,49.754,63.013,45.947,64.37,40.52L65.031,37.873C66.706,31.173,61.639,24.682,54.732,24.682L39.407,24.682L39.407,32.24ZM11.192,51.405L14.858,53.605C20.209,56.815,26.332,58.511,32.572,58.511L33.107,58.511C39.347,58.511,45.47,56.815,50.82,53.605L54.487,51.405L50.599,44.924L46.932,47.125C42.756,49.63,37.977,50.954,33.107,50.954L32.572,50.954C27.701,50.954,22.923,49.63,18.747,47.124L15.08,44.924L11.192,51.405ZM26.754,55.215L31.133,50.836L28.461,51.943L37.218,51.943L34.546,50.836L38.925,55.215L44.268,49.871L39.89,45.492L38.783,44.386L37.218,44.386L28.461,44.386L26.896,44.386L25.789,45.492L21.41,49.871L26.754,55.215Z"/>
</g>
  <g id="Semibold-S" transform="matrix(1.0,0.0,0.0,1.0,2011.7106253487723,627.9306448800223)">  <path stroke-width="1px" fill-rule="nonzero" fill="#000000" stroke-linecap="butt" stroke="none" stroke-opacity="1" stroke-linejoin="miter" stroke-dasharray="none" fill-opacity="1" stroke-miterlimit="4" d="M51.483,24.082L51.483,37.218C51.483,42.199,49.868,47.046,46.879,51.032L44.252,54.534C41.558,58.126,37.329,60.241,32.839,60.241C28.349,60.241,24.121,58.126,21.427,54.534L18.8,51.032C15.811,47.046,14.195,42.199,14.195,37.218L14.195,24.082L7.698,24.082L7.698,37.218C7.698,43.605,9.769,49.82,13.602,54.93L16.229,58.433C20.15,63.661,26.304,66.738,32.839,66.738C39.375,66.738,45.529,63.661,49.45,58.433L52.077,54.93C55.91,49.82,57.981,43.605,57.981,37.218L57.981,24.082L51.483,24.082ZM57.981,24.082C57.981,10.197,46.725,-1.06,32.839,-1.06C18.954,-1.06,7.698,10.197,7.698,24.082L14.195,24.082C14.195,13.785,22.543,5.438,32.839,5.438C43.136,5.438,51.483,13.785,51.483,24.082L57.981,24.082ZM57.03,21.785L52.12,16.875C49.047,13.802,44.88,12.076,40.534,12.076L25.145,12.076C20.799,12.076,16.632,13.802,13.559,16.875L8.649,21.785L13.244,26.38L18.154,21.47C20.008,19.616,22.523,18.574,25.145,18.574L40.534,18.574C43.156,18.574,45.671,19.616,47.525,21.47L52.435,26.38L57.03,21.785ZM21.893,40.467L26.271,40.467L26.271,33.969L21.893,33.969L21.893,40.467ZM39.407,40.467L43.786,40.467L43.786,33.969L39.407,33.969L39.407,40.467ZM26.271,25.212L10.947,25.212C4.385,25.212,-0.43,31.379,1.161,37.744L1.823,40.391C3.121,45.582,7.785,49.224,13.136,49.224L13.136,42.726C10.767,42.726,8.701,41.114,8.127,38.815L7.465,36.169C6.899,33.904,8.612,31.71,10.947,31.71L26.271,31.71L26.271,25.212ZM39.407,31.71L54.732,31.71C57.067,31.71,58.78,33.904,58.214,36.169L57.552,38.816C56.977,41.114,54.912,42.726,52.543,42.726L52.543,49.224C57.894,49.224,62.558,45.582,63.856,40.391L64.517,37.744C66.109,31.379,61.294,25.212,54.732,25.212L39.407,25.212L39.407,31.71ZM11.464,50.95L15.131,53.15C20.399,56.311,26.428,57.981,32.572,57.981L33.107,57.981C39.251,57.981,45.279,56.311,50.548,53.151L54.215,50.95L50.871,45.379L47.205,47.579C42.946,50.134,38.073,51.483,33.107,51.483L32.572,51.483C27.605,51.483,22.733,50.134,18.474,47.578L14.807,45.378L11.464,50.95ZM26.38,54.84L30.758,50.462L28.461,51.413L37.218,51.413L34.921,50.462L39.299,54.84L43.894,50.246L39.515,45.867L38.564,44.916L37.218,44.916L28.461,44.916L27.115,44.916L26.163,45.867L21.785,50.246L26.38,54.84Z"/>
</g>
  <g id="Medium-S" transform="matrix(1.0,0.0,0.0,1.0,1715.0006253487722,627.9306448800223)">  <path stroke-dasharray="none" fill-rule="nonzero" stroke-linecap="butt" stroke-opacity="1" stroke-miterlimit="4" stroke-width="1px" stroke="none" stroke-linejoin="miter" fill="#000000" fill-opacity="1" d="M52.013,24.082L52.013,37.218C52.013,42.314,50.36,47.272,47.303,51.349L44.676,54.852C41.881,58.578,37.496,60.77,32.839,60.77C28.183,60.77,23.797,58.578,21.003,54.852L18.376,51.349C15.318,47.272,13.666,42.314,13.666,37.218L13.666,24.082L8.227,24.082L8.227,37.218C8.227,43.491,10.262,49.594,14.025,54.612L16.653,58.115C20.474,63.21,26.471,66.209,32.839,66.209C39.208,66.209,45.205,63.21,49.026,58.115L51.653,54.612C55.417,49.594,57.451,43.49,57.451,37.218L57.451,24.082L52.013,24.082ZM57.451,24.082C57.451,10.489,46.432,-0.53,32.839,-0.53C19.247,-0.53,8.227,10.489,8.227,24.082L13.666,24.082C13.666,13.493,22.25,4.908,32.839,4.908C43.429,4.908,52.013,13.493,52.013,24.082L57.451,24.082ZM56.655,22.16L51.745,17.25C48.772,14.276,44.739,12.606,40.534,12.606L25.145,12.606C20.94,12.606,16.907,14.276,13.934,17.25L9.024,22.16L12.869,26.005L17.779,21.095C19.732,19.142,22.382,18.044,25.145,18.044L40.534,18.044C43.297,18.044,45.946,19.142,47.9,21.095L52.81,26.005L56.655,22.16ZM21.893,39.937L26.271,39.937L26.271,34.499L21.893,34.499L21.893,39.937ZM39.407,39.937L43.786,39.937L43.786,34.499L39.407,34.499L39.407,39.937ZM26.271,25.742L10.947,25.742C4.729,25.742,0.167,31.584,1.675,37.616L2.337,40.263C3.576,45.218,8.028,48.694,13.136,48.694L13.136,43.256C10.523,43.256,8.246,41.478,7.613,38.944L6.951,36.297C6.301,33.698,8.267,31.18,10.947,31.18L26.271,31.18L26.271,25.742ZM39.407,31.18L54.732,31.18C57.411,31.18,59.377,33.698,58.727,36.297L58.066,38.944C57.432,41.478,55.155,43.256,52.543,43.256L52.543,48.694C57.651,48.694,62.103,45.218,63.342,40.263L64.003,37.616C65.511,31.584,60.949,25.742,54.732,25.742L39.407,25.742L39.407,31.18ZM11.737,50.496L15.404,52.696C20.589,55.808,26.524,57.451,32.572,57.451L33.107,57.451C39.155,57.451,45.089,55.808,50.275,52.696L53.942,50.496L51.144,45.833L47.477,48.033C43.137,50.637,38.169,52.013,33.107,52.013L32.572,52.013C27.509,52.013,22.542,50.637,18.202,48.033L14.535,45.833L11.737,50.496ZM26.005,54.466L30.383,50.087L28.461,50.884L37.218,50.884L35.295,50.087L39.674,54.466L43.519,50.62L39.141,46.242L38.344,45.445L37.218,45.445L28.461,45.445L27.335,45.445L26.538,46.242L22.16,50.62L26.005,54.466Z"/>
</g>
  <g id="Regular-S" transform="matrix(1.0,0.0,0.0,1.0,1418.2906253487722,627.9306448800223)">  <path stroke-width="1px" stroke-miterlimit="4" stroke-linecap="butt" stroke-dasharray="none" fill-opacity="1" stroke-opacity="1" fill-rule="nonzero" stroke="none" fill="#000000" stroke-linejoin="miter" d="M52.543,24.082L52.543,37.218C52.543,42.428,50.853,47.499,47.727,51.667L45.099,55.17C42.205,59.029,37.663,61.3,32.839,61.3C28.016,61.3,23.474,59.029,20.579,55.17L17.952,51.667C14.826,47.499,13.136,42.429,13.136,37.218L13.136,24.082L8.757,24.082L8.757,37.218C8.757,43.376,10.754,49.368,14.449,54.294L17.076,57.797C20.798,62.759,26.638,65.679,32.839,65.679C39.041,65.679,44.881,62.759,48.602,57.797L51.229,54.294C54.924,49.368,56.922,43.376,56.922,37.218L56.922,24.082L52.543,24.082ZM56.922,24.082C56.922,10.782,46.14,0,32.839,0C19.539,0,8.757,10.782,8.757,24.082L13.136,24.082C13.136,13.2,21.957,4.379,32.839,4.379C43.721,4.379,52.543,13.2,52.543,24.082L56.922,24.082ZM56.28,22.534L51.371,17.624C48.497,14.75,44.599,13.136,40.534,13.136L25.145,13.136C21.08,13.136,17.182,14.75,14.308,17.624L9.398,22.534L12.495,25.63L17.404,20.72C19.457,18.668,22.241,17.514,25.145,17.514L40.534,17.514C43.437,17.514,46.222,18.668,48.275,20.72L53.184,25.63L56.28,22.534ZM21.893,39.407L26.271,39.407L26.271,35.029L21.893,35.029L21.893,39.407ZM39.407,39.407L43.786,39.407L43.786,35.029L39.407,35.029L39.407,39.407ZM26.271,26.271L10.947,26.271C5.074,26.271,0.765,31.79,2.189,37.487L2.851,40.134C4.031,44.854,8.271,48.164,13.136,48.164L13.136,43.786C10.28,43.786,7.791,41.843,7.099,39.072L6.437,36.426C5.704,33.492,7.923,30.65,10.947,30.65L26.271,30.65L26.271,26.271ZM39.407,30.65L54.732,30.65C57.756,30.65,59.975,33.492,59.241,36.426L58.58,39.072C57.887,41.843,55.399,43.786,52.543,43.786L52.543,48.164C57.408,48.164,61.648,44.854,62.828,40.134L63.489,37.487C64.914,31.79,60.605,26.271,54.732,26.271L39.407,26.271L39.407,30.65ZM12.009,50.042L15.676,52.242C20.78,55.304,26.62,56.922,32.572,56.922L33.107,56.922C39.059,56.922,44.899,55.304,50.003,52.242L53.669,50.042L51.417,46.287L47.75,48.487C43.327,51.141,38.265,52.543,33.107,52.543L32.572,52.543C27.413,52.543,22.352,51.141,17.929,48.487L14.262,46.287L12.009,50.042ZM25.63,54.091L30.009,49.712L28.461,50.354L37.218,50.354L35.67,49.712L40.048,54.091L43.145,50.995L38.766,46.616L38.125,45.975L37.218,45.975L28.461,45.975L27.554,45.975L26.913,46.616L22.534,50.995L25.63,54.091Z"/>
</g>
  <g id="Light-S" transform="matrix(1.0,0.0,0.0,1.0,1121.5806253487724,627.9306448800223)">  <path fill="#000000" fill-opacity="1" stroke="none" stroke-linecap="butt" stroke-dasharray="none" stroke-width="1px" stroke-miterlimit="4" stroke-opacity="1" stroke-linejoin="miter" fill-rule="nonzero" d="M52.908,24.082L52.908,37.218C52.908,42.507,51.192,47.654,48.018,51.886L45.391,55.389C42.428,59.34,37.778,61.665,32.839,61.665C27.901,61.665,23.251,59.34,20.287,55.389L17.66,51.886C14.487,47.654,12.771,42.508,12.771,37.218L12.771,24.082L9.122,24.082L9.122,37.218C9.122,43.297,11.094,49.212,14.741,54.075L17.368,57.578C21.021,62.448,26.752,65.314,32.839,65.314C38.926,65.314,44.658,62.448,48.31,57.578L50.938,54.076C54.585,49.212,56.557,43.297,56.557,37.218L56.557,24.082L52.908,24.082ZM56.557,24.082C56.557,10.984,45.938,0.365,32.839,0.365C19.741,0.365,9.122,10.984,9.122,24.082L12.771,24.082C12.771,12.999,21.756,4.014,32.839,4.014C43.923,4.014,52.908,12.999,52.908,24.082L56.557,24.082ZM56.022,22.792L51.113,17.882C48.307,15.077,44.502,13.501,40.534,13.501L25.145,13.501C21.177,13.501,17.372,15.077,14.566,17.882L9.656,22.792L12.237,25.372L17.146,20.462C19.268,18.341,22.145,17.149,25.145,17.149L40.534,17.149C43.534,17.149,46.411,18.341,48.533,20.462L53.442,25.372L56.022,22.792ZM21.893,39.042L26.271,39.042L26.271,35.394L21.893,35.394L21.893,39.042ZM39.407,39.042L43.786,39.042L43.786,35.394L39.407,35.394L39.407,39.042ZM26.271,26.636L10.947,26.636C5.311,26.636,1.177,31.932,2.543,37.399L3.205,40.046C4.344,44.603,8.439,47.8,13.136,47.8L13.136,44.151C10.113,44.151,7.478,42.093,6.745,39.161L6.083,36.514C5.292,33.35,7.685,30.285,10.947,30.285L26.271,30.285L26.271,26.636ZM39.407,30.285L54.732,30.285C57.994,30.285,60.386,33.35,59.595,36.514L58.934,39.161C58.201,42.094,55.566,44.151,52.543,44.151L52.543,47.8C57.24,47.8,61.335,44.603,62.474,40.046L63.135,37.399C64.502,31.932,60.367,26.636,54.732,26.636L39.407,26.636L39.407,30.285ZM12.197,49.729L15.864,51.929C20.911,54.957,26.686,56.557,32.572,56.557L33.107,56.557C38.993,56.557,44.768,54.957,49.815,51.929L53.482,49.729L51.604,46.6L47.938,48.8C43.458,51.488,38.331,52.908,33.107,52.908L32.572,52.908C27.347,52.908,22.221,51.488,17.741,48.8L14.074,46.6L12.197,49.729ZM25.372,53.833L29.751,49.454L28.461,49.989L37.218,49.989L35.928,49.454L40.306,53.833L42.887,51.253L38.508,46.874L37.974,46.34L37.218,46.34L28.461,46.34L27.705,46.34L27.171,46.874L22.792,51.253L25.372,53.833Z"/>
</g>
  <g id="Thin-S" transform="matrix(1.0,0.0,0.0,1.0,824.8706253487724,627.9306448800223)">  <path stroke-dasharray="none" stroke-linejoin="miter" stroke="none" stroke-opacity="1" stroke-width="1px" fill-opacity="1" stroke-linecap="butt" fill="#000000" fill-rule="nonzero" stroke-miterlimit="4" d="M53.273,24.082L53.273,37.218C53.273,42.586,51.531,47.81,48.31,52.105L45.683,55.608C42.651,59.651,37.893,62.03,32.839,62.03C27.786,62.03,23.028,59.651,19.996,55.608L17.368,52.105C14.147,47.81,12.406,42.587,12.406,37.218L12.406,24.082L9.487,24.082L9.487,37.218C9.487,43.218,11.433,49.056,15.033,53.857L17.66,57.359C21.244,62.137,26.867,64.949,32.839,64.949C38.811,64.949,44.435,62.137,48.018,57.359L50.646,53.857C54.246,49.056,56.192,43.218,56.192,37.218L56.192,24.082L53.273,24.082ZM56.192,24.082C56.192,11.185,45.736,0.73,32.839,0.73C19.942,0.73,9.487,11.185,9.487,24.082L12.406,24.082C12.406,12.797,21.554,3.649,32.839,3.649C44.124,3.649,53.273,12.797,53.273,24.082L56.192,24.082ZM55.764,23.05L50.855,18.14C48.118,15.403,44.405,13.866,40.534,13.866L25.145,13.866C21.274,13.866,17.561,15.403,14.824,18.14L9.914,23.05L11.979,25.114L16.888,20.204C19.078,18.015,22.048,16.785,25.145,16.785L40.534,16.785C43.631,16.785,46.601,18.015,48.791,20.204L53.7,25.114L55.764,23.05ZM21.893,38.677L26.271,38.677L26.271,35.758L21.893,35.758L21.893,38.677ZM39.407,38.677L43.786,38.677L43.786,35.758L39.407,35.758L39.407,38.677ZM26.271,27.001L10.947,27.001C5.549,27.001,1.588,32.074,2.897,37.311L3.559,39.957C4.658,44.352,8.606,47.435,13.136,47.435L13.136,44.516C9.945,44.516,7.165,42.344,6.391,39.249L5.729,36.603C4.881,33.208,7.448,29.92,10.947,29.92L26.271,29.92L26.271,27.001ZM39.407,29.92L54.732,29.92C58.231,29.92,60.798,33.208,59.949,36.603L59.288,39.249C58.514,42.344,55.733,44.516,52.543,44.516L52.543,47.435C57.073,47.435,61.021,44.352,62.12,39.957L62.781,37.31C64.091,32.074,60.13,27.001,54.732,27.001L39.407,27.001L39.407,29.92ZM12.385,49.416L16.052,51.616C21.042,54.61,26.752,56.192,32.572,56.192L33.107,56.192C38.927,56.192,44.637,54.61,49.627,51.616L53.294,49.416L51.792,46.913L48.125,49.113C43.589,51.835,38.398,53.273,33.107,53.273L32.572,53.273C27.281,53.273,22.09,51.835,17.553,49.113L13.887,46.913L12.385,49.416ZM25.114,53.575L29.493,49.196L28.461,49.624L37.218,49.624L36.186,49.196L40.564,53.575L42.629,51.511L38.25,47.132L37.823,46.705L37.218,46.705L28.461,46.705L27.856,46.705L27.429,47.132L23.05,51.511L25.114,53.575Z"/>
</g>
  <g id="Ultralight-S" transform="matrix(1.0,0.0,0.0,1.0,528.1606253487723,627.9306448800223)">  <path stroke-miterlimit="4" stroke-width="1px" fill-opacity="1" stroke-opacity="1" stroke-dasharray="none" fill="#000000" stroke-linejoin="miter" stroke-linecap="butt" fill-rule="nonzero" stroke="none" d="M53.638,24.082L53.638,37.218C53.638,42.665,51.871,47.966,48.602,52.324L45.975,55.827C42.874,59.961,38.008,62.395,32.839,62.395C27.671,62.395,22.805,59.961,19.704,55.827L17.076,52.324C13.808,47.966,12.041,42.665,12.041,37.218L12.041,24.082L9.852,24.082L9.852,37.218C9.852,43.139,11.772,48.901,15.325,53.638L17.952,57.141C21.467,61.826,26.982,64.584,32.839,64.584C38.697,64.584,44.212,61.826,47.727,57.141L50.354,53.638C53.906,48.9,55.827,43.139,55.827,37.218L55.827,24.082L53.638,24.082ZM55.827,24.082C55.827,11.387,45.535,1.095,32.839,1.095C20.144,1.095,9.852,11.387,9.852,24.082L12.041,24.082C12.041,12.596,21.353,3.284,32.839,3.284C44.326,3.284,53.638,12.596,53.638,24.082L55.827,24.082ZM55.506,23.308L50.597,18.398C47.928,15.73,44.308,14.23,40.534,14.23L25.145,14.23C21.371,14.23,17.751,15.73,15.082,18.398L10.172,23.308L11.721,24.856L16.63,19.946C18.888,17.688,21.951,16.42,25.145,16.42L40.534,16.42C43.728,16.42,46.79,17.688,49.049,19.946L53.958,24.856L55.506,23.308ZM21.893,38.313L26.271,38.313L26.271,36.123L21.893,36.123L21.893,38.313ZM39.407,38.313L43.786,38.313L43.786,36.123L39.407,36.123L39.407,38.313ZM26.271,27.366L10.947,27.366C5.786,27.366,2,32.216,3.251,37.222L3.913,39.869C4.971,44.101,8.773,47.07,13.136,47.07L13.136,44.88C9.778,44.88,6.851,42.595,6.037,39.338L5.375,36.691C4.469,33.066,7.21,29.555,10.947,29.555L26.271,29.555L26.271,27.366ZM39.407,29.555L54.732,29.555C58.468,29.555,61.21,33.066,60.303,36.691L59.642,39.338C58.828,42.595,55.901,44.88,52.543,44.88L52.543,47.07C56.905,47.07,60.708,44.101,61.766,39.869L62.427,37.222C63.679,32.216,59.893,27.366,54.732,27.366L39.407,27.366L39.407,29.555ZM12.573,49.103L16.239,51.303C21.173,54.263,26.818,55.827,32.572,55.827L33.107,55.827C38.86,55.827,44.506,54.263,49.44,51.303L53.106,49.103L51.98,47.226L48.313,49.426C43.72,52.182,38.464,53.638,33.107,53.638L32.572,53.638C27.215,53.638,21.959,52.182,17.366,49.426L13.699,47.226L12.573,49.103ZM24.856,53.317L29.235,48.938L28.461,49.259L37.218,49.259L36.444,48.938L40.823,53.317L42.371,51.769L37.992,47.39L37.671,47.07L37.218,47.07L28.461,47.07L28.007,47.07L27.687,47.39L23.308,51.769L24.856,53.317Z"/>
</g>
 </g>
</svg>
